%
M48
M72
INCH,TZ
T01C0.0236
T02C0.0315
T03C0.0320
T04C0.0374
T05C0.0400
T06C0.0472
T07C0.0906
T08C0.1260
T09C0.1300
%
T01
X3824Y7716
X3824Y8466
X3824Y9215
X4574Y9215
X5323Y9215
X6073Y9215
X6073Y8466
X5323Y8466
X4574Y8466
X4574Y7716
X5323Y7716
X6073Y7716
X6073Y9965
X5323Y9965
X4574Y9965
X4574Y10715
X5323Y10715
X6073Y10715
X3824Y10715
X3824Y9965
X11342Y12946
X11932Y9924
X13212Y8645
X16847Y5190
X14366Y3989
X13409Y2611
X23868Y8713
X27127Y7404
X17838Y12355
X16854Y13719
X20512Y18943
X23842Y17401
X28074Y15406
X17050Y21115
X9728Y19626
X8947Y19618
X7728Y21398
X7642Y16697
X8978Y16682
T02
X8706Y11728
X10706Y11728
X17070Y16713
X20397Y12652
X22474Y16541
X26692Y4654
T03
X26376Y6443
X25376Y6443
X24376Y6443
X23376Y6443
X22376Y6443
X21376Y6443
X20376Y6443
X19376Y6443
X18376Y6443
X17376Y6443
X16376Y6443
X15376Y6443
X13261Y5022
X13261Y3622
X9812Y3637
X9812Y5037
X9084Y8394
X10723Y8399
X10723Y10399
X9084Y10394
X12118Y12405
X12118Y13440
X12118Y14459
X12556Y15227
X12556Y16227
X12118Y16899
X12634Y18527
X12634Y19527
X14045Y18056
X15118Y16899
X14836Y16255
X14836Y15255
X15118Y14459
X15118Y13440
X15118Y12405
X15149Y11340
X13149Y11340
X15376Y9443
X16376Y9443
X17376Y9443
X18376Y9443
X19376Y9443
X20376Y9443
X21376Y9443
X22376Y9443
X23376Y9443
X24376Y9443
X25376Y9443
X26376Y9443
X27376Y9443
X28376Y9443
X28376Y6443
X27376Y6443
X23055Y5015
X21055Y5015
X20102Y5121
X18102Y5121
X21946Y11111
X21946Y12111
X21975Y13091
X21975Y14091
X23290Y14543
X23292Y15616
X26292Y15616
X26290Y14543
X26295Y16966
X26295Y17966
X20403Y13599
X20403Y11699
X10188Y14329
X8188Y14329
X7079Y20066
X8732Y20285
X10732Y20285
X14045Y21056
X7079Y22066
T04
X6403Y17861
X5615Y17861
X5615Y16876
X6403Y16876
T05
X4519Y13517
X4519Y12517
X4519Y11517
X16072Y3202
X17072Y3202
X18072Y3202
X19072Y3202
X20072Y3202
X21072Y3202
X23044Y3222
X24044Y3222
X25044Y3222
X26044Y3222
X27044Y3222
X28044Y3222
X26295Y11482
X28224Y12202
X29224Y12202
X29224Y13202
X28224Y13202
X28224Y14202
X29224Y14202
X26295Y13262
X23735Y13262
X23735Y11482
X24164Y22232
X23164Y22232
X22164Y22232
X21164Y22232
X19484Y22232
X18484Y22232
X17484Y22232
X16484Y22232
X15484Y22232
X14484Y22232
X13484Y22232
X12484Y22232
X25164Y22232
X26164Y22232
X27164Y22232
X28164Y22232
T06
X12040Y6915
X8040Y6915
T07
X4548Y14998
X4548Y19739
T08
X9105Y22204
X29105Y16204
X29105Y5204
T09
X6081Y3404
X4901Y5374
X7261Y5374
M30
