G75*
%MOIN*%
%OFA0B0*%
%FSLAX25Y25*%
%IPPOS*%
%LPD*%
%AMOC8*
5,1,8,0,0,1.08239X$1,22.5*
%
%ADD10R,0.08700X0.02400*%
%ADD11R,0.04331X0.03937*%
%ADD12C,0.12661*%
%ADD13C,0.00800*%
%ADD14C,0.03937*%
%ADD15C,0.04400*%
%ADD16C,0.01000*%
%ADD17C,0.04000*%
D10*
X0175033Y0087500D03*
X0175033Y0092500D03*
X0175033Y0097500D03*
X0175033Y0102500D03*
X0201533Y0102500D03*
X0201533Y0097500D03*
X0201533Y0092500D03*
X0201533Y0087500D03*
D11*
X0198680Y0110000D03*
X0191987Y0110000D03*
X0184680Y0110000D03*
X0177987Y0110000D03*
D12*
X0162753Y0109770D03*
X0188333Y0124500D03*
X0213900Y0109778D03*
X0213909Y0080240D03*
X0188320Y0065465D03*
X0162752Y0080231D03*
D13*
X0181802Y0060081D02*
X0182920Y0059191D01*
X0184161Y0058483D01*
X0185496Y0057973D01*
X0186893Y0057673D01*
X0188320Y0057591D01*
X0189746Y0057673D01*
X0191144Y0057973D01*
X0192478Y0058483D01*
X0193720Y0059191D01*
X0194838Y0060081D01*
X0195807Y0061131D01*
X0196604Y0062317D01*
X0197211Y0063610D01*
X0197613Y0064982D01*
X0197800Y0066398D01*
X0197769Y0067827D01*
X0196665Y0066555D01*
X0195392Y0065454D01*
X0193975Y0064544D01*
X0192444Y0063846D01*
X0190828Y0063372D01*
X0189162Y0063132D01*
X0187478Y0063132D01*
X0185812Y0063372D01*
X0184196Y0063846D01*
X0182665Y0064544D01*
X0181248Y0065454D01*
X0179975Y0066555D01*
X0178871Y0067827D01*
X0178840Y0066398D01*
X0179027Y0064982D01*
X0179429Y0063610D01*
X0180035Y0062317D01*
X0180833Y0061131D01*
X0181802Y0060081D01*
X0182073Y0059866D02*
X0194567Y0059866D01*
X0195376Y0060664D02*
X0181264Y0060664D01*
X0180610Y0061463D02*
X0196030Y0061463D01*
X0196567Y0062261D02*
X0180073Y0062261D01*
X0179687Y0063060D02*
X0196953Y0063060D01*
X0197284Y0063858D02*
X0192471Y0063858D01*
X0194150Y0064657D02*
X0197518Y0064657D01*
X0197675Y0065455D02*
X0195394Y0065455D01*
X0196316Y0066254D02*
X0197781Y0066254D01*
X0197786Y0067052D02*
X0197096Y0067052D01*
X0184169Y0063858D02*
X0179356Y0063858D01*
X0179122Y0064657D02*
X0182490Y0064657D01*
X0181246Y0065455D02*
X0178964Y0065455D01*
X0178859Y0066254D02*
X0180323Y0066254D01*
X0179544Y0067052D02*
X0178854Y0067052D01*
X0169522Y0073229D02*
X0168301Y0072487D01*
X0166980Y0071941D01*
X0165592Y0071604D01*
X0164168Y0071482D01*
X0162743Y0071580D01*
X0161349Y0071894D01*
X0160019Y0072418D01*
X0158785Y0073139D01*
X0157676Y0074040D01*
X0156718Y0075100D01*
X0155933Y0076294D01*
X0155292Y0077570D01*
X0154853Y0078930D01*
X0154627Y0080341D01*
X0154620Y0081770D01*
X0154831Y0083184D01*
X0155255Y0084548D01*
X0155884Y0085831D01*
X0156701Y0087004D01*
X0157688Y0088037D01*
X0158821Y0088908D01*
X0160074Y0089595D01*
X0159524Y0088003D01*
X0159207Y0086350D01*
X0159128Y0084668D01*
X0159288Y0082992D01*
X0159686Y0081356D01*
X0160312Y0079794D01*
X0161153Y0078336D01*
X0162194Y0077012D01*
X0163412Y0075850D01*
X0164783Y0074873D01*
X0166279Y0074101D01*
X0167870Y0073549D01*
X0169522Y0073229D01*
X0168431Y0073440D02*
X0158414Y0073440D01*
X0157496Y0074239D02*
X0166011Y0074239D01*
X0164552Y0075037D02*
X0156775Y0075037D01*
X0156234Y0075836D02*
X0163432Y0075836D01*
X0162590Y0076634D02*
X0155762Y0076634D01*
X0155361Y0077433D02*
X0161863Y0077433D01*
X0161235Y0078231D02*
X0155078Y0078231D01*
X0154837Y0079030D02*
X0160753Y0079030D01*
X0160298Y0079828D02*
X0154709Y0079828D01*
X0154626Y0080627D02*
X0159978Y0080627D01*
X0159669Y0081425D02*
X0154621Y0081425D01*
X0154687Y0082224D02*
X0159475Y0082224D01*
X0159285Y0083022D02*
X0154807Y0083022D01*
X0155029Y0083821D02*
X0159209Y0083821D01*
X0159132Y0084619D02*
X0155290Y0084619D01*
X0155681Y0085418D02*
X0159163Y0085418D01*
X0159200Y0086216D02*
X0156152Y0086216D01*
X0156712Y0087015D02*
X0159334Y0087015D01*
X0159488Y0087813D02*
X0157474Y0087813D01*
X0158436Y0088612D02*
X0159734Y0088612D01*
X0159737Y0089410D02*
X0160010Y0089410D01*
X0160074Y0100406D02*
X0159525Y0101997D01*
X0159207Y0103650D01*
X0159128Y0105332D01*
X0159289Y0107008D01*
X0159686Y0108644D01*
X0160312Y0110207D01*
X0161154Y0111665D01*
X0162194Y0112988D01*
X0163412Y0114150D01*
X0164783Y0115127D01*
X0166279Y0115900D01*
X0167870Y0116452D01*
X0169523Y0116771D01*
X0168301Y0117513D01*
X0166981Y0118059D01*
X0165592Y0118397D01*
X0164169Y0118518D01*
X0162743Y0118421D01*
X0161349Y0118106D01*
X0160020Y0117583D01*
X0158786Y0116862D01*
X0157677Y0115961D01*
X0156718Y0114901D01*
X0155934Y0113707D01*
X0155292Y0112430D01*
X0154853Y0111070D01*
X0154627Y0109659D01*
X0154620Y0108230D01*
X0154831Y0106817D01*
X0155256Y0105453D01*
X0155884Y0104169D01*
X0156701Y0102997D01*
X0157688Y0101963D01*
X0158821Y0101093D01*
X0160074Y0100406D01*
X0160010Y0100590D02*
X0159739Y0100590D01*
X0159735Y0101388D02*
X0158437Y0101388D01*
X0157475Y0102187D02*
X0159488Y0102187D01*
X0159335Y0102985D02*
X0156712Y0102985D01*
X0156153Y0103784D02*
X0159201Y0103784D01*
X0159163Y0104582D02*
X0155682Y0104582D01*
X0155291Y0105381D02*
X0159133Y0105381D01*
X0159209Y0106179D02*
X0155030Y0106179D01*
X0154807Y0106978D02*
X0159286Y0106978D01*
X0159475Y0107776D02*
X0154688Y0107776D01*
X0154622Y0108575D02*
X0159669Y0108575D01*
X0159978Y0109373D02*
X0154626Y0109373D01*
X0154709Y0110172D02*
X0160298Y0110172D01*
X0160753Y0110970D02*
X0154837Y0110970D01*
X0155079Y0111769D02*
X0161236Y0111769D01*
X0161863Y0112567D02*
X0155361Y0112567D01*
X0155762Y0113366D02*
X0162590Y0113366D01*
X0163432Y0114164D02*
X0156234Y0114164D01*
X0156775Y0114963D02*
X0164552Y0114963D01*
X0166011Y0115761D02*
X0157497Y0115761D01*
X0158414Y0116560D02*
X0168429Y0116560D01*
X0168556Y0117358D02*
X0159636Y0117358D01*
X0161573Y0118157D02*
X0166579Y0118157D01*
X0178885Y0122138D02*
X0179988Y0123409D01*
X0181261Y0124511D01*
X0182678Y0125420D01*
X0184210Y0126119D01*
X0185825Y0126593D01*
X0187492Y0126832D01*
X0189175Y0126832D01*
X0190842Y0126593D01*
X0192457Y0126119D01*
X0193989Y0125420D01*
X0195405Y0124511D01*
X0196679Y0123409D01*
X0197782Y0122138D01*
X0197814Y0123566D01*
X0197626Y0124983D01*
X0197224Y0126354D01*
X0196618Y0127648D01*
X0195820Y0128834D01*
X0194851Y0129884D01*
X0193733Y0130773D01*
X0192492Y0131481D01*
X0191157Y0131991D01*
X0189760Y0132291D01*
X0188333Y0132374D01*
X0186907Y0132291D01*
X0185510Y0131991D01*
X0184175Y0131481D01*
X0182934Y0130773D01*
X0181815Y0129884D01*
X0180846Y0128834D01*
X0180049Y0127648D01*
X0179442Y0126354D01*
X0179040Y0124983D01*
X0178853Y0123566D01*
X0178885Y0122138D01*
X0178884Y0122149D02*
X0178895Y0122149D01*
X0178867Y0122948D02*
X0179588Y0122948D01*
X0178877Y0123746D02*
X0180378Y0123746D01*
X0181314Y0124545D02*
X0178983Y0124545D01*
X0179146Y0125343D02*
X0182558Y0125343D01*
X0184288Y0126142D02*
X0179380Y0126142D01*
X0179717Y0126940D02*
X0196950Y0126940D01*
X0197287Y0126142D02*
X0192379Y0126142D01*
X0194108Y0125343D02*
X0197521Y0125343D01*
X0197684Y0124545D02*
X0195352Y0124545D01*
X0196289Y0123746D02*
X0197790Y0123746D01*
X0197800Y0122948D02*
X0197079Y0122948D01*
X0197772Y0122149D02*
X0197782Y0122149D01*
X0207130Y0116779D02*
X0208352Y0117521D01*
X0209672Y0118067D01*
X0211061Y0118405D01*
X0212484Y0118526D01*
X0213910Y0118429D01*
X0215304Y0118114D01*
X0216633Y0117590D01*
X0217867Y0116870D01*
X0218976Y0115969D01*
X0219934Y0114909D01*
X0220719Y0113715D01*
X0221361Y0112438D01*
X0221800Y0111078D01*
X0222025Y0109667D01*
X0222033Y0108238D01*
X0221822Y0106825D01*
X0221397Y0105460D01*
X0220769Y0104177D01*
X0219952Y0103005D01*
X0218965Y0101971D01*
X0217832Y0101101D01*
X0216579Y0100414D01*
X0217128Y0102005D01*
X0217446Y0103658D01*
X0217525Y0105340D01*
X0217364Y0107016D01*
X0216967Y0108652D01*
X0216341Y0110215D01*
X0215499Y0111673D01*
X0214459Y0112996D01*
X0213240Y0114158D01*
X0211869Y0115135D01*
X0210374Y0115908D01*
X0208783Y0116459D01*
X0207130Y0116779D01*
X0208084Y0117358D02*
X0217030Y0117358D01*
X0218248Y0116560D02*
X0208264Y0116560D01*
X0210042Y0118157D02*
X0215115Y0118157D01*
X0212112Y0114963D02*
X0219885Y0114963D01*
X0220424Y0114164D02*
X0213232Y0114164D01*
X0214071Y0113366D02*
X0220895Y0113366D01*
X0221296Y0112567D02*
X0214796Y0112567D01*
X0215424Y0111769D02*
X0221577Y0111769D01*
X0221817Y0110970D02*
X0215905Y0110970D01*
X0216358Y0110172D02*
X0221945Y0110172D01*
X0222027Y0109373D02*
X0216678Y0109373D01*
X0216985Y0108575D02*
X0222031Y0108575D01*
X0221964Y0107776D02*
X0217179Y0107776D01*
X0217368Y0106978D02*
X0221845Y0106978D01*
X0221621Y0106179D02*
X0217444Y0106179D01*
X0217521Y0105381D02*
X0221358Y0105381D01*
X0220967Y0104582D02*
X0217489Y0104582D01*
X0217452Y0103784D02*
X0220495Y0103784D01*
X0219933Y0102985D02*
X0217316Y0102985D01*
X0217163Y0102187D02*
X0219171Y0102187D01*
X0218206Y0101388D02*
X0216915Y0101388D01*
X0216900Y0100590D02*
X0216640Y0100590D01*
X0216588Y0089604D02*
X0217137Y0088012D01*
X0217454Y0086359D01*
X0217534Y0084677D01*
X0217373Y0083002D01*
X0216975Y0081366D01*
X0216350Y0079803D01*
X0215508Y0078345D01*
X0214467Y0077021D01*
X0213249Y0075859D01*
X0211878Y0074882D01*
X0210382Y0074110D01*
X0208792Y0073558D01*
X0207139Y0073238D01*
X0208360Y0072496D01*
X0209681Y0071950D01*
X0211069Y0071613D01*
X0212493Y0071491D01*
X0213919Y0071589D01*
X0215312Y0071903D01*
X0216642Y0072427D01*
X0217876Y0073148D01*
X0218985Y0074049D01*
X0219943Y0075109D01*
X0220728Y0076303D01*
X0221370Y0077580D01*
X0221808Y0078939D01*
X0222034Y0080350D01*
X0222042Y0081779D01*
X0221830Y0083193D01*
X0221406Y0084557D01*
X0220777Y0085840D01*
X0219960Y0087013D01*
X0218974Y0088046D01*
X0217840Y0088917D01*
X0216588Y0089604D01*
X0216654Y0089410D02*
X0216940Y0089410D01*
X0216930Y0088612D02*
X0218237Y0088612D01*
X0219196Y0087813D02*
X0217175Y0087813D01*
X0217328Y0087015D02*
X0219958Y0087015D01*
X0220515Y0086216D02*
X0217461Y0086216D01*
X0217499Y0085418D02*
X0220984Y0085418D01*
X0221375Y0084619D02*
X0217528Y0084619D01*
X0217451Y0083821D02*
X0221635Y0083821D01*
X0221856Y0083022D02*
X0217375Y0083022D01*
X0217184Y0082224D02*
X0221975Y0082224D01*
X0222040Y0081425D02*
X0216990Y0081425D01*
X0216680Y0080627D02*
X0222036Y0080627D01*
X0221951Y0079828D02*
X0216360Y0079828D01*
X0215903Y0079030D02*
X0221823Y0079030D01*
X0221580Y0078231D02*
X0215419Y0078231D01*
X0214791Y0077433D02*
X0221296Y0077433D01*
X0220895Y0076634D02*
X0214062Y0076634D01*
X0213216Y0075836D02*
X0220421Y0075836D01*
X0219878Y0075037D02*
X0212096Y0075037D01*
X0210632Y0074239D02*
X0219156Y0074239D01*
X0218236Y0073440D02*
X0208183Y0073440D01*
X0208121Y0072642D02*
X0217009Y0072642D01*
X0215047Y0071843D02*
X0210122Y0071843D01*
X0193502Y0059067D02*
X0183138Y0059067D01*
X0184724Y0058268D02*
X0191916Y0058268D01*
X0168555Y0072642D02*
X0159636Y0072642D01*
X0161574Y0071843D02*
X0166577Y0071843D01*
X0210657Y0115761D02*
X0219163Y0115761D01*
X0196557Y0127739D02*
X0180110Y0127739D01*
X0180647Y0128537D02*
X0196020Y0128537D01*
X0195357Y0129336D02*
X0181310Y0129336D01*
X0182131Y0130134D02*
X0194536Y0130134D01*
X0193453Y0130933D02*
X0183214Y0130933D01*
X0184830Y0131732D02*
X0191837Y0131732D01*
D14*
X0173333Y0125000D03*
X0203333Y0065000D03*
D15*
X0193333Y0085000D03*
X0183333Y0085000D03*
X0183333Y0095000D03*
X0193333Y0095000D03*
X0193333Y0105000D03*
X0183333Y0105000D03*
D16*
X0184680Y0106346D01*
X0184680Y0110000D01*
X0177987Y0110000D02*
X0177987Y0107154D01*
X0175033Y0104200D01*
X0175033Y0102500D01*
X0169833Y0102500D01*
X0167333Y0100000D01*
X0163633Y0099993D02*
X0162945Y0099993D01*
X0163027Y0099822D02*
X0163684Y0099143D01*
X0163633Y0099264D01*
X0163633Y0100736D01*
X0164049Y0101739D01*
X0162109Y0101739D01*
X0163027Y0099822D01*
X0162467Y0100991D02*
X0163739Y0100991D01*
X0169040Y0104700D02*
X0169561Y0105221D01*
X0170783Y0108172D01*
X0170783Y0111367D01*
X0169561Y0114319D01*
X0169537Y0114342D01*
X0171428Y0114503D01*
X0174346Y0113796D01*
X0174938Y0113489D01*
X0174122Y0112673D01*
X0174122Y0107327D01*
X0174585Y0106863D01*
X0173122Y0105400D01*
X0169979Y0105400D01*
X0169279Y0104700D01*
X0169040Y0104700D01*
X0169325Y0104985D02*
X0169564Y0104985D01*
X0169877Y0105984D02*
X0173706Y0105984D01*
X0174467Y0106982D02*
X0170290Y0106982D01*
X0170704Y0107981D02*
X0174122Y0107981D01*
X0174122Y0108979D02*
X0170783Y0108979D01*
X0170783Y0109978D02*
X0174122Y0109978D01*
X0174122Y0110976D02*
X0170783Y0110976D01*
X0170532Y0111975D02*
X0174122Y0111975D01*
X0174422Y0112973D02*
X0170118Y0112973D01*
X0169704Y0113972D02*
X0173622Y0113972D01*
X0178539Y0113668D02*
X0178925Y0114080D01*
X0178917Y0114310D01*
X0179039Y0114504D01*
X0178904Y0115094D01*
X0178969Y0116454D01*
X0179823Y0119334D01*
X0181051Y0121097D01*
X0181525Y0119951D01*
X0183784Y0117692D01*
X0186736Y0116469D01*
X0189931Y0116469D01*
X0192882Y0117692D01*
X0195141Y0119951D01*
X0195600Y0121058D01*
X0196789Y0119363D01*
X0197653Y0116486D01*
X0197722Y0115137D01*
X0197585Y0114559D01*
X0197712Y0114353D01*
X0197705Y0114112D01*
X0198155Y0113636D01*
X0198499Y0113079D01*
X0198734Y0113023D01*
X0198900Y0112847D01*
X0199164Y0112839D01*
X0199164Y0110484D01*
X0202345Y0110484D01*
X0202345Y0112166D01*
X0202243Y0112547D01*
X0202045Y0112890D01*
X0201766Y0113169D01*
X0201424Y0113366D01*
X0201399Y0113373D01*
X0202270Y0113818D01*
X0205186Y0114508D01*
X0207105Y0114339D01*
X0207092Y0114327D01*
X0205870Y0111375D01*
X0205870Y0108180D01*
X0207092Y0105229D01*
X0209351Y0102969D01*
X0211700Y0101996D01*
X0211700Y0101478D01*
X0209922Y0099700D01*
X0207287Y0099700D01*
X0206987Y0100000D01*
X0207583Y0100596D01*
X0207583Y0104404D01*
X0206587Y0105400D01*
X0197233Y0105400D01*
X0197233Y0105776D01*
X0196920Y0106531D01*
X0198196Y0106531D01*
X0198196Y0109516D01*
X0199164Y0109516D01*
X0199164Y0110484D01*
X0198196Y0110484D01*
X0198196Y0113468D01*
X0196317Y0113468D01*
X0195935Y0113366D01*
X0195593Y0113169D01*
X0195475Y0113050D01*
X0194856Y0113668D01*
X0189117Y0113668D01*
X0188333Y0112884D01*
X0187549Y0113668D01*
X0181810Y0113668D01*
X0181333Y0113192D01*
X0180856Y0113668D01*
X0178539Y0113668D01*
X0178823Y0113972D02*
X0197838Y0113972D01*
X0197683Y0114970D02*
X0178932Y0114970D01*
X0178946Y0115969D02*
X0197679Y0115969D01*
X0197508Y0116967D02*
X0191133Y0116967D01*
X0193156Y0117966D02*
X0197209Y0117966D01*
X0196909Y0118964D02*
X0194155Y0118964D01*
X0195146Y0119963D02*
X0196368Y0119963D01*
X0195668Y0120961D02*
X0195560Y0120961D01*
X0185534Y0116967D02*
X0179121Y0116967D01*
X0179417Y0117966D02*
X0183510Y0117966D01*
X0182512Y0118964D02*
X0179713Y0118964D01*
X0180261Y0119963D02*
X0181520Y0119963D01*
X0181107Y0120961D02*
X0180956Y0120961D01*
X0202919Y0113972D02*
X0206945Y0113972D01*
X0206532Y0112973D02*
X0201962Y0112973D01*
X0202345Y0111975D02*
X0206118Y0111975D01*
X0205870Y0110976D02*
X0202345Y0110976D01*
X0202345Y0109516D02*
X0199164Y0109516D01*
X0199164Y0106531D01*
X0201043Y0106531D01*
X0201424Y0106634D01*
X0201766Y0106831D01*
X0202045Y0107110D01*
X0202243Y0107453D01*
X0202345Y0107834D01*
X0202345Y0109516D01*
X0202345Y0108979D02*
X0205870Y0108979D01*
X0205870Y0109978D02*
X0199164Y0109978D01*
X0199164Y0110976D02*
X0198196Y0110976D01*
X0198196Y0111975D02*
X0199164Y0111975D01*
X0198781Y0112973D02*
X0198196Y0112973D01*
X0198196Y0108979D02*
X0199164Y0108979D01*
X0199164Y0107981D02*
X0198196Y0107981D01*
X0198196Y0106982D02*
X0199164Y0106982D01*
X0197147Y0105984D02*
X0206779Y0105984D01*
X0207002Y0104985D02*
X0207336Y0104985D01*
X0207583Y0103987D02*
X0208334Y0103987D01*
X0207583Y0102988D02*
X0209333Y0102988D01*
X0207583Y0101990D02*
X0211700Y0101990D01*
X0211213Y0100991D02*
X0207583Y0100991D01*
X0206995Y0099993D02*
X0210215Y0099993D01*
X0210833Y0097500D02*
X0213900Y0100567D01*
X0213900Y0109778D01*
X0206366Y0106982D02*
X0201917Y0106982D01*
X0202345Y0107981D02*
X0205952Y0107981D01*
X0191987Y0108654D02*
X0191987Y0110000D01*
X0191987Y0108654D02*
X0188333Y0105000D01*
X0192333Y0101000D01*
X0195333Y0101000D01*
X0196833Y0102500D01*
X0201533Y0102500D01*
X0192316Y0098800D02*
X0191841Y0098800D01*
X0191743Y0098562D01*
X0192316Y0098800D01*
X0189771Y0096591D02*
X0189433Y0095776D01*
X0189433Y0094224D01*
X0189771Y0093409D01*
X0189069Y0093700D01*
X0187597Y0093700D01*
X0186896Y0093409D01*
X0187233Y0094224D01*
X0187233Y0095776D01*
X0186896Y0096591D01*
X0187597Y0096300D01*
X0189069Y0096300D01*
X0189771Y0096591D01*
X0189526Y0095999D02*
X0187141Y0095999D01*
X0187233Y0095000D02*
X0189433Y0095000D01*
X0189526Y0094001D02*
X0187141Y0094001D01*
X0183333Y0095000D02*
X0183333Y0090000D01*
X0188320Y0085013D01*
X0188320Y0080000D01*
X0198333Y0080000D01*
X0201533Y0083200D01*
X0201533Y0087500D01*
X0195483Y0088331D02*
X0195483Y0088800D01*
X0194350Y0088800D01*
X0195483Y0088331D01*
X0192316Y0088800D02*
X0191743Y0088562D01*
X0191841Y0088800D01*
X0192316Y0088800D01*
X0189333Y0091000D02*
X0188333Y0090000D01*
X0189333Y0091000D02*
X0194833Y0091000D01*
X0196333Y0092500D01*
X0201533Y0092500D01*
X0210833Y0092500D01*
X0213909Y0089424D01*
X0213909Y0080240D01*
X0206547Y0077027D02*
X0200864Y0077027D01*
X0201076Y0076828D02*
X0200632Y0077245D01*
X0200406Y0077238D01*
X0200215Y0077358D01*
X0199562Y0077211D01*
X0198893Y0077189D01*
X0198738Y0077024D01*
X0198518Y0076974D01*
X0198161Y0076408D01*
X0197703Y0075920D01*
X0197710Y0075694D01*
X0197589Y0075503D01*
X0197724Y0074909D01*
X0197658Y0073549D01*
X0196804Y0070675D01*
X0195580Y0068923D01*
X0195128Y0070014D01*
X0192869Y0072273D01*
X0190520Y0073246D01*
X0190520Y0077800D01*
X0199245Y0077800D01*
X0200533Y0079089D01*
X0203733Y0082289D01*
X0203733Y0084600D01*
X0206587Y0084600D01*
X0207583Y0085596D01*
X0207583Y0089404D01*
X0206987Y0090000D01*
X0207287Y0090300D01*
X0209922Y0090300D01*
X0211709Y0088513D01*
X0211709Y0088021D01*
X0209360Y0087048D01*
X0207101Y0084789D01*
X0205878Y0081837D01*
X0205878Y0078642D01*
X0207101Y0075691D01*
X0207157Y0075635D01*
X0205211Y0075476D01*
X0202288Y0076194D01*
X0201076Y0076828D01*
X0199470Y0078025D02*
X0206134Y0078025D01*
X0205878Y0079024D02*
X0200468Y0079024D01*
X0201467Y0080022D02*
X0205878Y0080022D01*
X0205878Y0081021D02*
X0202465Y0081021D01*
X0203464Y0082019D02*
X0205954Y0082019D01*
X0206367Y0083018D02*
X0203733Y0083018D01*
X0203733Y0084016D02*
X0206781Y0084016D01*
X0207002Y0085015D02*
X0207327Y0085015D01*
X0207583Y0086013D02*
X0208325Y0086013D01*
X0207583Y0087012D02*
X0209324Y0087012D01*
X0207583Y0088010D02*
X0211684Y0088010D01*
X0211213Y0089009D02*
X0207583Y0089009D01*
X0206995Y0090007D02*
X0210215Y0090007D01*
X0209065Y0094700D02*
X0207287Y0094700D01*
X0206987Y0095000D01*
X0209086Y0095000D01*
X0209089Y0094991D02*
X0209024Y0094777D01*
X0209065Y0094700D01*
X0209089Y0094991D02*
X0209022Y0095204D01*
X0209073Y0095300D01*
X0207287Y0095300D01*
X0206987Y0095000D01*
X0210833Y0097500D02*
X0201533Y0097500D01*
X0195833Y0097500D01*
X0193333Y0095000D01*
X0183333Y0100000D02*
X0180833Y0097500D01*
X0175033Y0097500D01*
X0169579Y0095000D02*
X0168983Y0095596D01*
X0168983Y0096679D01*
X0168069Y0096300D01*
X0167212Y0096300D01*
X0167366Y0095811D01*
X0167683Y0095208D01*
X0167620Y0095005D01*
X0167684Y0094802D01*
X0167370Y0094197D01*
X0167167Y0093546D01*
X0166979Y0093447D01*
X0166881Y0093259D01*
X0166287Y0093071D01*
X0165125Y0092335D01*
X0163046Y0090168D01*
X0162035Y0088035D01*
X0162239Y0088061D01*
X0163265Y0088061D01*
X0164283Y0087927D01*
X0165275Y0087662D01*
X0166223Y0087269D01*
X0167112Y0086756D01*
X0167926Y0086131D01*
X0168652Y0085405D01*
X0169277Y0084591D01*
X0169284Y0084579D01*
X0162935Y0080914D01*
X0163435Y0080048D01*
X0169784Y0083713D01*
X0169790Y0083702D01*
X0170183Y0082753D01*
X0170449Y0081762D01*
X0170583Y0080744D01*
X0170583Y0079717D01*
X0170449Y0078700D01*
X0170183Y0077708D01*
X0169790Y0076760D01*
X0169277Y0075871D01*
X0169152Y0075708D01*
X0171505Y0075517D01*
X0174421Y0076234D01*
X0175633Y0076869D01*
X0176082Y0077287D01*
X0176304Y0077279D01*
X0176491Y0077398D01*
X0177148Y0077249D01*
X0177820Y0077225D01*
X0177972Y0077063D01*
X0178188Y0077014D01*
X0178547Y0076445D01*
X0179006Y0075952D01*
X0178998Y0075731D01*
X0179117Y0075543D01*
X0178982Y0074945D01*
X0179043Y0073581D01*
X0179887Y0070704D01*
X0181083Y0068979D01*
X0181512Y0070014D01*
X0183771Y0072273D01*
X0186120Y0073246D01*
X0186120Y0079089D01*
X0186120Y0082554D01*
X0185692Y0082126D01*
X0185086Y0081721D01*
X0184413Y0081442D01*
X0183698Y0081300D01*
X0183333Y0081300D01*
X0183333Y0085000D01*
X0183333Y0085000D01*
X0183333Y0081300D01*
X0182969Y0081300D01*
X0182254Y0081442D01*
X0181581Y0081721D01*
X0180975Y0082126D01*
X0180459Y0082641D01*
X0180054Y0083247D01*
X0179776Y0083921D01*
X0179633Y0084636D01*
X0179633Y0084814D01*
X0179581Y0084800D01*
X0175133Y0084800D01*
X0175133Y0087400D01*
X0174933Y0087400D01*
X0169183Y0087400D01*
X0169183Y0086103D01*
X0169286Y0085721D01*
X0169483Y0085379D01*
X0169762Y0085100D01*
X0170104Y0084902D01*
X0170486Y0084800D01*
X0174933Y0084800D01*
X0174933Y0087400D01*
X0174933Y0087600D01*
X0169183Y0087600D01*
X0169183Y0088897D01*
X0169286Y0089279D01*
X0169483Y0089621D01*
X0169721Y0089859D01*
X0168983Y0090596D01*
X0168983Y0094404D01*
X0169579Y0095000D01*
X0167622Y0095000D01*
X0167309Y0094001D02*
X0168983Y0094001D01*
X0168983Y0093003D02*
X0166179Y0093003D01*
X0164808Y0092004D02*
X0168983Y0092004D01*
X0168983Y0091006D02*
X0163850Y0091006D01*
X0162970Y0090007D02*
X0169572Y0090007D01*
X0169213Y0089009D02*
X0162497Y0089009D01*
X0163653Y0088010D02*
X0169183Y0088010D01*
X0169183Y0087012D02*
X0166668Y0087012D01*
X0168044Y0086013D02*
X0169207Y0086013D01*
X0168952Y0085015D02*
X0169909Y0085015D01*
X0168309Y0084016D02*
X0179756Y0084016D01*
X0180208Y0083018D02*
X0170074Y0083018D01*
X0170380Y0082019D02*
X0181134Y0082019D01*
X0183333Y0082019D02*
X0183333Y0082019D01*
X0183333Y0083018D02*
X0183333Y0083018D01*
X0183333Y0084016D02*
X0183333Y0084016D01*
X0185532Y0082019D02*
X0186120Y0082019D01*
X0186120Y0081021D02*
X0170546Y0081021D01*
X0170583Y0080022D02*
X0186120Y0080022D01*
X0186120Y0079024D02*
X0170492Y0079024D01*
X0170268Y0078025D02*
X0186120Y0078025D01*
X0186120Y0077027D02*
X0178131Y0077027D01*
X0178935Y0076028D02*
X0186120Y0076028D01*
X0186120Y0075030D02*
X0179001Y0075030D01*
X0179022Y0074031D02*
X0186120Y0074031D01*
X0185606Y0073033D02*
X0179203Y0073033D01*
X0179497Y0072034D02*
X0183532Y0072034D01*
X0182534Y0071036D02*
X0179790Y0071036D01*
X0180349Y0070037D02*
X0181535Y0070037D01*
X0181108Y0069039D02*
X0181042Y0069039D01*
X0193107Y0072034D02*
X0197208Y0072034D01*
X0196911Y0071036D02*
X0194106Y0071036D01*
X0195104Y0070037D02*
X0196358Y0070037D01*
X0195661Y0069039D02*
X0195532Y0069039D01*
X0197505Y0073033D02*
X0191034Y0073033D01*
X0190520Y0074031D02*
X0197681Y0074031D01*
X0197658Y0073549D02*
X0197658Y0073549D01*
X0197696Y0075030D02*
X0190520Y0075030D01*
X0190520Y0076028D02*
X0197804Y0076028D01*
X0198740Y0077027D02*
X0190520Y0077027D01*
X0188320Y0080000D02*
X0188320Y0065465D01*
X0202961Y0076028D02*
X0206961Y0076028D01*
X0199333Y0084111D02*
X0197422Y0082200D01*
X0196049Y0082200D01*
X0196640Y0082791D01*
X0197233Y0084224D01*
X0197233Y0084600D01*
X0199333Y0084600D01*
X0199333Y0084111D01*
X0199238Y0084016D02*
X0197147Y0084016D01*
X0196734Y0083018D02*
X0198240Y0083018D01*
X0190618Y0082200D02*
X0190520Y0082298D01*
X0190520Y0082200D01*
X0190618Y0082200D01*
X0181581Y0088279D02*
X0180975Y0087874D01*
X0180883Y0087783D01*
X0180883Y0088897D01*
X0180781Y0089279D01*
X0180584Y0089621D01*
X0180346Y0089859D01*
X0181083Y0090596D01*
X0181083Y0091735D01*
X0181124Y0091694D01*
X0181133Y0091690D01*
X0181133Y0089089D01*
X0181837Y0088385D01*
X0181581Y0088279D01*
X0181179Y0088010D02*
X0180883Y0088010D01*
X0180853Y0089009D02*
X0181213Y0089009D01*
X0181133Y0090007D02*
X0180495Y0090007D01*
X0181083Y0091006D02*
X0181133Y0091006D01*
X0175133Y0087012D02*
X0174933Y0087012D01*
X0174933Y0086013D02*
X0175133Y0086013D01*
X0175133Y0085015D02*
X0174933Y0085015D01*
X0168580Y0083018D02*
X0166580Y0083018D01*
X0166850Y0082019D02*
X0164850Y0082019D01*
X0165121Y0081021D02*
X0163121Y0081021D01*
X0169901Y0077027D02*
X0175802Y0077027D01*
X0173584Y0076028D02*
X0169368Y0076028D01*
X0168983Y0095999D02*
X0167307Y0095999D01*
X0181083Y0100861D02*
X0181083Y0101735D01*
X0181124Y0101694D01*
X0181684Y0101462D01*
X0181133Y0100911D01*
X0181083Y0100861D01*
X0181083Y0100991D02*
X0181213Y0100991D01*
X0183333Y0100000D02*
X0188333Y0100000D01*
X0188333Y0105000D02*
X0183333Y0105000D01*
X0179433Y0105400D02*
X0179433Y0105489D01*
X0179345Y0105400D01*
X0179433Y0105400D01*
X0188245Y0112973D02*
X0188422Y0112973D01*
D17*
X0203833Y0110500D03*
X0188333Y0100000D03*
X0167333Y0100000D03*
X0188333Y0090000D03*
M02*
