G75*
%MOIN*%
%OFA0B0*%
%FSLAX25Y25*%
%IPPOS*%
%LPD*%
%AMOC8*
5,1,8,0,0,1.08239X$1,22.5*
%
%ADD10C,0.00800*%
%ADD11R,0.09500X0.03200*%
%ADD12R,0.05131X0.04737*%
%ADD13C,0.13461*%
%ADD14C,0.04737*%
D10*
X0145026Y0051693D02*
X0145026Y0095000D01*
X0165105Y0095000D01*
X0161168Y0092244D01*
X0159199Y0087126D01*
X0159199Y0082402D01*
X0161168Y0077283D01*
X0164318Y0074921D01*
X0169829Y0072953D01*
X0175341Y0073740D01*
X0176522Y0074528D01*
X0177310Y0070591D01*
X0179672Y0066654D01*
X0183609Y0063898D01*
X0188333Y0062717D01*
X0188333Y0051693D01*
X0145026Y0051693D01*
X0145026Y0051880D02*
X0188333Y0051880D01*
X0231640Y0051880D01*
X0231640Y0051693D02*
X0188333Y0051693D01*
X0188333Y0063110D01*
X0192664Y0063504D01*
X0196601Y0066260D01*
X0199357Y0070197D01*
X0200144Y0074528D01*
X0203294Y0073346D01*
X0208018Y0072953D01*
X0212743Y0074921D01*
X0216680Y0078858D01*
X0217861Y0083976D01*
X0216680Y0090276D01*
X0212349Y0095000D01*
X0231640Y0095000D01*
X0231640Y0051693D01*
X0231640Y0052679D02*
X0188333Y0052679D01*
X0145026Y0052679D01*
X0145026Y0053477D02*
X0188333Y0053477D01*
X0231640Y0053477D01*
X0231640Y0054276D02*
X0188333Y0054276D01*
X0145026Y0054276D01*
X0145026Y0055074D02*
X0188333Y0055074D01*
X0231640Y0055074D01*
X0231640Y0055873D02*
X0188333Y0055873D01*
X0145026Y0055873D01*
X0145026Y0056671D02*
X0188333Y0056671D01*
X0231640Y0056671D01*
X0231640Y0057470D02*
X0188333Y0057470D01*
X0145026Y0057470D01*
X0145026Y0058268D02*
X0188333Y0058268D01*
X0231640Y0058268D01*
X0231640Y0059067D02*
X0188333Y0059067D01*
X0145026Y0059067D01*
X0145026Y0059866D02*
X0188333Y0059866D01*
X0231640Y0059866D01*
X0231640Y0060664D02*
X0188333Y0060664D01*
X0145026Y0060664D01*
X0145026Y0061463D02*
X0188333Y0061463D01*
X0231640Y0061463D01*
X0231640Y0062261D02*
X0188333Y0062261D01*
X0145026Y0062261D01*
X0145026Y0063060D02*
X0186961Y0063060D01*
X0187478Y0063132D02*
X0185812Y0063372D01*
X0184196Y0063846D01*
X0182665Y0064544D01*
X0181248Y0065454D01*
X0179975Y0066555D01*
X0178871Y0067827D01*
X0178840Y0066398D01*
X0179027Y0064982D01*
X0179429Y0063610D01*
X0180035Y0062317D01*
X0180833Y0061131D01*
X0181802Y0060081D01*
X0182920Y0059191D01*
X0184161Y0058483D01*
X0185496Y0057973D01*
X0186893Y0057673D01*
X0188320Y0057591D01*
X0189746Y0057673D01*
X0191144Y0057973D01*
X0192478Y0058483D01*
X0193720Y0059191D01*
X0194838Y0060081D01*
X0195807Y0061131D01*
X0196604Y0062317D01*
X0197211Y0063610D01*
X0197613Y0064982D01*
X0197800Y0066398D01*
X0197769Y0067827D01*
X0196665Y0066555D01*
X0195392Y0065454D01*
X0193975Y0064544D01*
X0192444Y0063846D01*
X0190828Y0063372D01*
X0189162Y0063132D01*
X0187478Y0063132D01*
X0188333Y0063060D02*
X0231640Y0063060D01*
X0231640Y0063858D02*
X0193170Y0063858D01*
X0192471Y0063858D02*
X0197284Y0063858D01*
X0197518Y0064657D02*
X0194150Y0064657D01*
X0194311Y0064657D02*
X0231640Y0064657D01*
X0231640Y0065455D02*
X0195451Y0065455D01*
X0195394Y0065455D02*
X0197675Y0065455D01*
X0197781Y0066254D02*
X0196316Y0066254D01*
X0196592Y0066254D02*
X0231640Y0066254D01*
X0231640Y0067052D02*
X0197156Y0067052D01*
X0197096Y0067052D02*
X0197786Y0067052D01*
X0197715Y0067851D02*
X0231640Y0067851D01*
X0231640Y0068649D02*
X0198274Y0068649D01*
X0198832Y0069448D02*
X0231640Y0069448D01*
X0231640Y0070246D02*
X0199366Y0070246D01*
X0199511Y0071045D02*
X0231640Y0071045D01*
X0231640Y0071843D02*
X0199656Y0071843D01*
X0199801Y0072642D02*
X0231640Y0072642D01*
X0231640Y0073440D02*
X0209188Y0073440D01*
X0208792Y0073558D02*
X0207139Y0073238D01*
X0208360Y0072496D01*
X0209681Y0071950D01*
X0211069Y0071613D01*
X0212493Y0071491D01*
X0213919Y0071589D01*
X0215312Y0071903D01*
X0216642Y0072427D01*
X0217876Y0073148D01*
X0218985Y0074049D01*
X0219943Y0075109D01*
X0220728Y0076303D01*
X0221370Y0077580D01*
X0221808Y0078939D01*
X0222034Y0080350D01*
X0222042Y0081779D01*
X0221830Y0083193D01*
X0221406Y0084557D01*
X0220777Y0085840D01*
X0219960Y0087013D01*
X0218974Y0088046D01*
X0217840Y0088917D01*
X0216588Y0089604D01*
X0217137Y0088012D01*
X0217454Y0086359D01*
X0217534Y0084677D01*
X0217373Y0083002D01*
X0216975Y0081366D01*
X0216350Y0079803D01*
X0215508Y0078345D01*
X0214467Y0077021D01*
X0213249Y0075859D01*
X0211878Y0074882D01*
X0210382Y0074110D01*
X0208792Y0073558D01*
X0208183Y0073440D02*
X0218236Y0073440D01*
X0219156Y0074239D02*
X0210632Y0074239D01*
X0211105Y0074239D02*
X0231640Y0074239D01*
X0231640Y0075037D02*
X0212859Y0075037D01*
X0212096Y0075037D02*
X0219878Y0075037D01*
X0220421Y0075836D02*
X0213216Y0075836D01*
X0213657Y0075836D02*
X0231640Y0075836D01*
X0231640Y0076634D02*
X0214456Y0076634D01*
X0214062Y0076634D02*
X0220895Y0076634D01*
X0221296Y0077433D02*
X0214791Y0077433D01*
X0215254Y0077433D02*
X0231640Y0077433D01*
X0231640Y0078231D02*
X0216053Y0078231D01*
X0215419Y0078231D02*
X0221580Y0078231D01*
X0221823Y0079030D02*
X0215903Y0079030D01*
X0216719Y0079030D02*
X0231640Y0079030D01*
X0231640Y0079828D02*
X0216904Y0079828D01*
X0216360Y0079828D02*
X0221951Y0079828D01*
X0222036Y0080627D02*
X0216680Y0080627D01*
X0217088Y0080627D02*
X0231640Y0080627D01*
X0231640Y0081425D02*
X0217272Y0081425D01*
X0216990Y0081425D02*
X0222040Y0081425D01*
X0221975Y0082224D02*
X0217184Y0082224D01*
X0217456Y0082224D02*
X0231640Y0082224D01*
X0231640Y0083022D02*
X0217641Y0083022D01*
X0217375Y0083022D02*
X0221856Y0083022D01*
X0221635Y0083821D02*
X0217451Y0083821D01*
X0217825Y0083821D02*
X0231640Y0083821D01*
X0231640Y0084619D02*
X0217740Y0084619D01*
X0217528Y0084619D02*
X0221375Y0084619D01*
X0220984Y0085418D02*
X0217499Y0085418D01*
X0217591Y0085418D02*
X0231640Y0085418D01*
X0231640Y0086216D02*
X0217441Y0086216D01*
X0217461Y0086216D02*
X0220515Y0086216D01*
X0219958Y0087015D02*
X0217328Y0087015D01*
X0217291Y0087015D02*
X0231640Y0087015D01*
X0231640Y0087813D02*
X0217141Y0087813D01*
X0217175Y0087813D02*
X0219196Y0087813D01*
X0218237Y0088612D02*
X0216930Y0088612D01*
X0216992Y0088612D02*
X0231640Y0088612D01*
X0231640Y0089410D02*
X0216842Y0089410D01*
X0216940Y0089410D02*
X0216654Y0089410D01*
X0216692Y0090209D02*
X0231640Y0090209D01*
X0231640Y0091007D02*
X0216009Y0091007D01*
X0215277Y0091806D02*
X0231640Y0091806D01*
X0231640Y0092604D02*
X0214545Y0092604D01*
X0213813Y0093403D02*
X0231640Y0093403D01*
X0231640Y0094201D02*
X0213081Y0094201D01*
X0211955Y0095000D02*
X0231640Y0095000D01*
X0211955Y0095000D01*
X0214711Y0096969D01*
X0217467Y0102087D01*
X0217467Y0108386D01*
X0214318Y0113504D01*
X0210381Y0116260D01*
X0206444Y0117047D01*
X0201719Y0116260D01*
X0200144Y0115472D01*
X0199751Y0119016D01*
X0197388Y0122953D01*
X0193451Y0126102D01*
X0188333Y0128071D01*
X0188333Y0138307D01*
X0231640Y0138307D01*
X0231640Y0095000D01*
X0231640Y0095799D02*
X0213073Y0095799D01*
X0214191Y0096597D02*
X0231640Y0096597D01*
X0231640Y0097396D02*
X0214941Y0097396D01*
X0215371Y0098194D02*
X0231640Y0098194D01*
X0231640Y0098993D02*
X0215801Y0098993D01*
X0216231Y0099791D02*
X0231640Y0099791D01*
X0231640Y0100590D02*
X0216661Y0100590D01*
X0216640Y0100590D02*
X0216900Y0100590D01*
X0216579Y0100414D02*
X0217832Y0101101D01*
X0218965Y0101971D01*
X0219952Y0103005D01*
X0220769Y0104177D01*
X0221397Y0105460D01*
X0221822Y0106825D01*
X0222033Y0108238D01*
X0222025Y0109667D01*
X0221800Y0111078D01*
X0221361Y0112438D01*
X0220719Y0113715D01*
X0219934Y0114909D01*
X0218976Y0115969D01*
X0217867Y0116870D01*
X0216633Y0117590D01*
X0215304Y0118114D01*
X0213910Y0118429D01*
X0212484Y0118526D01*
X0211061Y0118405D01*
X0209672Y0118067D01*
X0208352Y0117521D01*
X0207130Y0116779D01*
X0208783Y0116459D01*
X0210374Y0115908D01*
X0211869Y0115135D01*
X0213240Y0114158D01*
X0214459Y0112996D01*
X0215499Y0111673D01*
X0216341Y0110215D01*
X0216967Y0108652D01*
X0217364Y0107016D01*
X0217525Y0105340D01*
X0217446Y0103658D01*
X0217128Y0102005D01*
X0216579Y0100414D01*
X0216915Y0101388D02*
X0218206Y0101388D01*
X0217467Y0102187D02*
X0231640Y0102187D01*
X0231640Y0102985D02*
X0217467Y0102985D01*
X0217316Y0102985D02*
X0219933Y0102985D01*
X0220495Y0103784D02*
X0217452Y0103784D01*
X0217467Y0103784D02*
X0231640Y0103784D01*
X0231640Y0104582D02*
X0217467Y0104582D01*
X0217489Y0104582D02*
X0220967Y0104582D01*
X0221358Y0105381D02*
X0217521Y0105381D01*
X0217467Y0105381D02*
X0231640Y0105381D01*
X0231640Y0106179D02*
X0217467Y0106179D01*
X0217444Y0106179D02*
X0221621Y0106179D01*
X0221845Y0106978D02*
X0217368Y0106978D01*
X0217467Y0106978D02*
X0231640Y0106978D01*
X0231640Y0107776D02*
X0217467Y0107776D01*
X0217179Y0107776D02*
X0221964Y0107776D01*
X0222031Y0108575D02*
X0216985Y0108575D01*
X0217351Y0108575D02*
X0231640Y0108575D01*
X0231640Y0109373D02*
X0216860Y0109373D01*
X0216678Y0109373D02*
X0222027Y0109373D01*
X0221945Y0110172D02*
X0216358Y0110172D01*
X0216368Y0110172D02*
X0231640Y0110172D01*
X0231640Y0110970D02*
X0215877Y0110970D01*
X0215905Y0110970D02*
X0221817Y0110970D01*
X0221577Y0111769D02*
X0215424Y0111769D01*
X0215385Y0111769D02*
X0231640Y0111769D01*
X0231640Y0112567D02*
X0214894Y0112567D01*
X0214796Y0112567D02*
X0221296Y0112567D01*
X0220895Y0113366D02*
X0214071Y0113366D01*
X0214403Y0113366D02*
X0231640Y0113366D01*
X0231640Y0114164D02*
X0213374Y0114164D01*
X0213232Y0114164D02*
X0220424Y0114164D01*
X0219885Y0114963D02*
X0212112Y0114963D01*
X0212234Y0114963D02*
X0231640Y0114963D01*
X0231640Y0115761D02*
X0211093Y0115761D01*
X0210657Y0115761D02*
X0219163Y0115761D01*
X0218248Y0116560D02*
X0208264Y0116560D01*
X0208881Y0116560D02*
X0231640Y0116560D01*
X0231640Y0117358D02*
X0199935Y0117358D01*
X0200024Y0116560D02*
X0203519Y0116560D01*
X0200722Y0115761D02*
X0200112Y0115761D01*
X0199846Y0118157D02*
X0231640Y0118157D01*
X0231640Y0118955D02*
X0199757Y0118955D01*
X0199308Y0119754D02*
X0231640Y0119754D01*
X0231640Y0120552D02*
X0198829Y0120552D01*
X0198350Y0121351D02*
X0231640Y0121351D01*
X0231640Y0122149D02*
X0197870Y0122149D01*
X0197782Y0122149D02*
X0197772Y0122149D01*
X0197782Y0122138D02*
X0196679Y0123409D01*
X0195405Y0124511D01*
X0193989Y0125420D01*
X0192457Y0126119D01*
X0190842Y0126593D01*
X0189175Y0126832D01*
X0187492Y0126832D01*
X0185825Y0126593D01*
X0184210Y0126119D01*
X0182678Y0125420D01*
X0181261Y0124511D01*
X0179988Y0123409D01*
X0178885Y0122138D01*
X0178853Y0123566D01*
X0179040Y0124983D01*
X0179442Y0126354D01*
X0180049Y0127648D01*
X0180846Y0128834D01*
X0181815Y0129884D01*
X0182934Y0130773D01*
X0184175Y0131481D01*
X0185510Y0131991D01*
X0186907Y0132291D01*
X0188333Y0132374D01*
X0189760Y0132291D01*
X0191157Y0131991D01*
X0192492Y0131481D01*
X0193733Y0130773D01*
X0194851Y0129884D01*
X0195820Y0128834D01*
X0196618Y0127648D01*
X0197224Y0126354D01*
X0197626Y0124983D01*
X0197814Y0123566D01*
X0197782Y0122138D01*
X0197800Y0122948D02*
X0197079Y0122948D01*
X0197391Y0122948D02*
X0231640Y0122948D01*
X0231640Y0123746D02*
X0196396Y0123746D01*
X0196289Y0123746D02*
X0197790Y0123746D01*
X0197684Y0124545D02*
X0195352Y0124545D01*
X0195398Y0124545D02*
X0231640Y0124545D01*
X0231640Y0125343D02*
X0194400Y0125343D01*
X0194108Y0125343D02*
X0197521Y0125343D01*
X0197287Y0126142D02*
X0192379Y0126142D01*
X0193349Y0126142D02*
X0231640Y0126142D01*
X0231640Y0126940D02*
X0191272Y0126940D01*
X0189196Y0127739D02*
X0231640Y0127739D01*
X0231640Y0128537D02*
X0188333Y0128537D01*
X0145026Y0128537D01*
X0145026Y0127739D02*
X0188333Y0127739D01*
X0188333Y0127283D02*
X0182822Y0126102D01*
X0179278Y0122953D01*
X0176916Y0119016D01*
X0176522Y0115472D01*
X0171798Y0117047D01*
X0167073Y0116654D01*
X0162349Y0113898D01*
X0159593Y0109567D01*
X0158806Y0104843D01*
X0159987Y0100512D01*
X0162349Y0096575D01*
X0164711Y0095000D01*
X0145026Y0095000D01*
X0145026Y0138307D01*
X0188333Y0138307D01*
X0188333Y0127283D01*
X0186733Y0126940D02*
X0145026Y0126940D01*
X0145026Y0126142D02*
X0183006Y0126142D01*
X0182558Y0125343D02*
X0179146Y0125343D01*
X0178983Y0124545D02*
X0181314Y0124545D01*
X0181069Y0124545D02*
X0145026Y0124545D01*
X0145026Y0125343D02*
X0181968Y0125343D01*
X0180378Y0123746D02*
X0178877Y0123746D01*
X0178867Y0122948D02*
X0179588Y0122948D01*
X0179275Y0122948D02*
X0145026Y0122948D01*
X0145026Y0123746D02*
X0180171Y0123746D01*
X0178895Y0122149D02*
X0178884Y0122149D01*
X0178796Y0122149D02*
X0145026Y0122149D01*
X0145026Y0121351D02*
X0178317Y0121351D01*
X0177838Y0120552D02*
X0145026Y0120552D01*
X0145026Y0119754D02*
X0177359Y0119754D01*
X0176909Y0118955D02*
X0145026Y0118955D01*
X0145026Y0118157D02*
X0176821Y0118157D01*
X0176732Y0117358D02*
X0145026Y0117358D01*
X0145026Y0116560D02*
X0166913Y0116560D01*
X0166279Y0115900D02*
X0167870Y0116452D01*
X0169523Y0116771D01*
X0168301Y0117513D01*
X0166981Y0118059D01*
X0165592Y0118397D01*
X0164169Y0118518D01*
X0162743Y0118421D01*
X0161349Y0118106D01*
X0160020Y0117583D01*
X0158786Y0116862D01*
X0157677Y0115961D01*
X0156718Y0114901D01*
X0155934Y0113707D01*
X0155292Y0112430D01*
X0154853Y0111070D01*
X0154627Y0109659D01*
X0154620Y0108230D01*
X0154831Y0106817D01*
X0155256Y0105453D01*
X0155884Y0104169D01*
X0156701Y0102997D01*
X0157688Y0101963D01*
X0158821Y0101093D01*
X0160074Y0100406D01*
X0159525Y0101997D01*
X0159207Y0103650D01*
X0159128Y0105332D01*
X0159289Y0107008D01*
X0159686Y0108644D01*
X0160312Y0110207D01*
X0161154Y0111665D01*
X0162194Y0112988D01*
X0163412Y0114150D01*
X0164783Y0115127D01*
X0166279Y0115900D01*
X0166011Y0115761D02*
X0157497Y0115761D01*
X0156775Y0114963D02*
X0164552Y0114963D01*
X0164175Y0114963D02*
X0145026Y0114963D01*
X0145026Y0115761D02*
X0165544Y0115761D01*
X0163432Y0114164D02*
X0156234Y0114164D01*
X0155762Y0113366D02*
X0162590Y0113366D01*
X0162011Y0113366D02*
X0145026Y0113366D01*
X0145026Y0114164D02*
X0162806Y0114164D01*
X0161863Y0112567D02*
X0155361Y0112567D01*
X0155079Y0111769D02*
X0161236Y0111769D01*
X0160994Y0111769D02*
X0145026Y0111769D01*
X0145026Y0112567D02*
X0161502Y0112567D01*
X0160753Y0110970D02*
X0154837Y0110970D01*
X0154709Y0110172D02*
X0160298Y0110172D01*
X0159978Y0110172D02*
X0145026Y0110172D01*
X0145026Y0110970D02*
X0160486Y0110970D01*
X0159978Y0109373D02*
X0154626Y0109373D01*
X0154622Y0108575D02*
X0159669Y0108575D01*
X0159428Y0108575D02*
X0145026Y0108575D01*
X0145026Y0109373D02*
X0159561Y0109373D01*
X0159475Y0107776D02*
X0154688Y0107776D01*
X0154807Y0106978D02*
X0159286Y0106978D01*
X0159162Y0106978D02*
X0145026Y0106978D01*
X0145026Y0107776D02*
X0159295Y0107776D01*
X0159209Y0106179D02*
X0155030Y0106179D01*
X0155291Y0105381D02*
X0159133Y0105381D01*
X0158895Y0105381D02*
X0145026Y0105381D01*
X0145026Y0106179D02*
X0159029Y0106179D01*
X0159163Y0104582D02*
X0155682Y0104582D01*
X0156153Y0103784D02*
X0159201Y0103784D01*
X0159095Y0103784D02*
X0145026Y0103784D01*
X0145026Y0104582D02*
X0158877Y0104582D01*
X0159312Y0102985D02*
X0145026Y0102985D01*
X0145026Y0102187D02*
X0159530Y0102187D01*
X0159488Y0102187D02*
X0157475Y0102187D01*
X0156712Y0102985D02*
X0159335Y0102985D01*
X0159735Y0101388D02*
X0158437Y0101388D01*
X0159748Y0101388D02*
X0145026Y0101388D01*
X0145026Y0100590D02*
X0159966Y0100590D01*
X0160010Y0100590D02*
X0159739Y0100590D01*
X0160419Y0099791D02*
X0145026Y0099791D01*
X0145026Y0098993D02*
X0160898Y0098993D01*
X0161378Y0098194D02*
X0145026Y0098194D01*
X0145026Y0097396D02*
X0161857Y0097396D01*
X0162336Y0096597D02*
X0145026Y0096597D01*
X0145026Y0095799D02*
X0163514Y0095799D01*
X0164711Y0095000D02*
X0145026Y0095000D01*
X0145026Y0094201D02*
X0163964Y0094201D01*
X0162824Y0093403D02*
X0145026Y0093403D01*
X0145026Y0092604D02*
X0161683Y0092604D01*
X0160999Y0091806D02*
X0145026Y0091806D01*
X0145026Y0091007D02*
X0160692Y0091007D01*
X0160385Y0090209D02*
X0145026Y0090209D01*
X0145026Y0089410D02*
X0160078Y0089410D01*
X0160010Y0089410D02*
X0159737Y0089410D01*
X0160074Y0089595D02*
X0159524Y0088003D01*
X0159207Y0086350D01*
X0159128Y0084668D01*
X0159288Y0082992D01*
X0159686Y0081356D01*
X0160312Y0079794D01*
X0161153Y0078336D01*
X0162194Y0077012D01*
X0163412Y0075850D01*
X0164783Y0074873D01*
X0166279Y0074101D01*
X0167870Y0073549D01*
X0169522Y0073229D01*
X0168301Y0072487D01*
X0166980Y0071941D01*
X0165592Y0071604D01*
X0164168Y0071482D01*
X0162743Y0071580D01*
X0161349Y0071894D01*
X0160019Y0072418D01*
X0158785Y0073139D01*
X0157676Y0074040D01*
X0156718Y0075100D01*
X0155933Y0076294D01*
X0155292Y0077570D01*
X0154853Y0078930D01*
X0154627Y0080341D01*
X0154620Y0081770D01*
X0154831Y0083184D01*
X0155255Y0084548D01*
X0155884Y0085831D01*
X0156701Y0087004D01*
X0157688Y0088037D01*
X0158821Y0088908D01*
X0160074Y0089595D01*
X0159771Y0088612D02*
X0145026Y0088612D01*
X0145026Y0087813D02*
X0159464Y0087813D01*
X0159488Y0087813D02*
X0157474Y0087813D01*
X0156712Y0087015D02*
X0159334Y0087015D01*
X0159199Y0087015D02*
X0145026Y0087015D01*
X0145026Y0086216D02*
X0159199Y0086216D01*
X0159200Y0086216D02*
X0156152Y0086216D01*
X0155681Y0085418D02*
X0159163Y0085418D01*
X0159199Y0085418D02*
X0145026Y0085418D01*
X0145026Y0084619D02*
X0159199Y0084619D01*
X0159132Y0084619D02*
X0155290Y0084619D01*
X0155029Y0083821D02*
X0159209Y0083821D01*
X0159199Y0083821D02*
X0145026Y0083821D01*
X0145026Y0083022D02*
X0159199Y0083022D01*
X0159285Y0083022D02*
X0154807Y0083022D01*
X0154687Y0082224D02*
X0159475Y0082224D01*
X0159268Y0082224D02*
X0145026Y0082224D01*
X0145026Y0081425D02*
X0159575Y0081425D01*
X0159669Y0081425D02*
X0154621Y0081425D01*
X0154626Y0080627D02*
X0159978Y0080627D01*
X0159882Y0080627D02*
X0145026Y0080627D01*
X0145026Y0079828D02*
X0160189Y0079828D01*
X0160298Y0079828D02*
X0154709Y0079828D01*
X0154837Y0079030D02*
X0160753Y0079030D01*
X0160496Y0079030D02*
X0145026Y0079030D01*
X0145026Y0078231D02*
X0160803Y0078231D01*
X0161235Y0078231D02*
X0155078Y0078231D01*
X0155361Y0077433D02*
X0161863Y0077433D01*
X0161111Y0077433D02*
X0145026Y0077433D01*
X0145026Y0076634D02*
X0162034Y0076634D01*
X0162590Y0076634D02*
X0155762Y0076634D01*
X0156234Y0075836D02*
X0163432Y0075836D01*
X0163098Y0075836D02*
X0145026Y0075836D01*
X0145026Y0075037D02*
X0164163Y0075037D01*
X0164552Y0075037D02*
X0156775Y0075037D01*
X0157496Y0074239D02*
X0166011Y0074239D01*
X0166229Y0074239D02*
X0145026Y0074239D01*
X0145026Y0073440D02*
X0168465Y0073440D01*
X0168431Y0073440D02*
X0158414Y0073440D01*
X0159636Y0072642D02*
X0168555Y0072642D01*
X0166577Y0071843D02*
X0161574Y0071843D01*
X0173241Y0073440D02*
X0176740Y0073440D01*
X0176899Y0072642D02*
X0145026Y0072642D01*
X0145026Y0071843D02*
X0177059Y0071843D01*
X0177219Y0071045D02*
X0145026Y0071045D01*
X0145026Y0070246D02*
X0177516Y0070246D01*
X0177995Y0069448D02*
X0145026Y0069448D01*
X0145026Y0068649D02*
X0178475Y0068649D01*
X0178954Y0067851D02*
X0145026Y0067851D01*
X0145026Y0067052D02*
X0179433Y0067052D01*
X0179544Y0067052D02*
X0178854Y0067052D01*
X0178859Y0066254D02*
X0180323Y0066254D01*
X0180243Y0066254D02*
X0145026Y0066254D01*
X0145026Y0065455D02*
X0181384Y0065455D01*
X0181246Y0065455D02*
X0178964Y0065455D01*
X0179122Y0064657D02*
X0182490Y0064657D01*
X0182525Y0064657D02*
X0145026Y0064657D01*
X0145026Y0063858D02*
X0183767Y0063858D01*
X0184169Y0063858D02*
X0179356Y0063858D01*
X0179687Y0063060D02*
X0196953Y0063060D01*
X0196567Y0062261D02*
X0180073Y0062261D01*
X0180610Y0061463D02*
X0196030Y0061463D01*
X0195376Y0060664D02*
X0181264Y0060664D01*
X0182073Y0059866D02*
X0194567Y0059866D01*
X0193502Y0059067D02*
X0183138Y0059067D01*
X0184724Y0058268D02*
X0191916Y0058268D01*
X0208121Y0072642D02*
X0217009Y0072642D01*
X0215047Y0071843D02*
X0210122Y0071843D01*
X0203044Y0073440D02*
X0199947Y0073440D01*
X0200092Y0074239D02*
X0200915Y0074239D01*
X0199829Y0075118D02*
X0199835Y0074837D01*
X0199833Y0074556D01*
X0199825Y0074275D01*
X0199810Y0073994D01*
X0199788Y0073713D01*
X0199759Y0073434D01*
X0199723Y0073155D01*
X0199681Y0072876D01*
X0199632Y0072600D01*
X0199576Y0072324D01*
X0199513Y0072050D01*
X0199443Y0071777D01*
X0199367Y0071506D01*
X0199284Y0071238D01*
X0199195Y0070971D01*
X0199099Y0070706D01*
X0198997Y0070444D01*
X0198888Y0070185D01*
X0198773Y0069928D01*
X0198652Y0069674D01*
X0198524Y0069424D01*
X0198391Y0069176D01*
X0198251Y0068932D01*
X0198106Y0068691D01*
X0197955Y0068454D01*
X0197797Y0068221D01*
X0197635Y0067991D01*
X0197466Y0067766D01*
X0197292Y0067545D01*
X0197113Y0067328D01*
X0196929Y0067116D01*
X0196739Y0066908D01*
X0196545Y0066705D01*
X0196345Y0066507D01*
X0196141Y0066313D01*
X0195932Y0066125D01*
X0195718Y0065942D01*
X0195500Y0065764D01*
X0195278Y0065592D01*
X0195051Y0065425D01*
X0194821Y0065264D01*
X0194587Y0065108D01*
X0194349Y0064958D01*
X0194107Y0064814D01*
X0193862Y0064676D01*
X0193613Y0064544D01*
X0193362Y0064418D01*
X0193107Y0064299D01*
X0192850Y0064186D01*
X0192590Y0064079D01*
X0192327Y0063978D01*
X0192062Y0063884D01*
X0191795Y0063796D01*
X0191525Y0063715D01*
X0191254Y0063641D01*
X0190981Y0063573D01*
X0190706Y0063512D01*
X0190430Y0063458D01*
X0190153Y0063410D01*
X0189875Y0063369D01*
X0189596Y0063336D01*
X0189316Y0063309D01*
X0189035Y0063288D01*
X0188754Y0063275D01*
X0188473Y0063269D01*
X0188192Y0063269D01*
X0187910Y0063276D01*
X0187630Y0063291D01*
X0187349Y0063312D01*
X0187069Y0063340D01*
X0186790Y0063375D01*
X0186512Y0063416D01*
X0186235Y0063465D01*
X0185959Y0063520D01*
X0185685Y0063582D01*
X0185412Y0063651D01*
X0185141Y0063726D01*
X0184872Y0063808D01*
X0184605Y0063897D01*
X0184340Y0063992D01*
X0184078Y0064093D01*
X0183818Y0064201D01*
X0183561Y0064315D01*
X0183307Y0064436D01*
X0183056Y0064562D01*
X0182808Y0064695D01*
X0182563Y0064834D01*
X0182322Y0064979D01*
X0182084Y0065129D01*
X0181850Y0065286D01*
X0181621Y0065448D01*
X0181395Y0065616D01*
X0181173Y0065789D01*
X0180956Y0065967D01*
X0180743Y0066151D01*
X0180534Y0066340D01*
X0180331Y0066534D01*
X0180132Y0066733D01*
X0179938Y0066937D01*
X0179749Y0067145D01*
X0179565Y0067358D01*
X0179387Y0067576D01*
X0179214Y0067797D01*
X0179046Y0068023D01*
X0178884Y0068253D01*
X0178728Y0068487D01*
X0178577Y0068725D01*
X0178433Y0068966D01*
X0178294Y0069211D01*
X0178161Y0069459D01*
X0178035Y0069710D01*
X0177914Y0069964D01*
X0177800Y0070221D01*
X0177692Y0070481D01*
X0177591Y0070743D01*
X0177496Y0071008D01*
X0177408Y0071275D01*
X0177326Y0071544D01*
X0177251Y0071815D01*
X0177182Y0072088D01*
X0177120Y0072362D01*
X0177065Y0072638D01*
X0177017Y0072915D01*
X0176975Y0073194D01*
X0176940Y0073473D01*
X0176912Y0073753D01*
X0176891Y0074033D01*
X0176877Y0074314D01*
X0176870Y0074595D01*
X0176870Y0074876D01*
X0176876Y0075158D01*
X0176580Y0074239D02*
X0176089Y0074239D01*
X0176877Y0075158D02*
X0176639Y0075012D01*
X0176397Y0074871D01*
X0176152Y0074736D01*
X0175903Y0074608D01*
X0175652Y0074485D01*
X0175397Y0074369D01*
X0175140Y0074259D01*
X0174880Y0074155D01*
X0174618Y0074058D01*
X0174354Y0073967D01*
X0174087Y0073882D01*
X0173819Y0073804D01*
X0173548Y0073733D01*
X0173276Y0073668D01*
X0173002Y0073610D01*
X0172727Y0073559D01*
X0172451Y0073514D01*
X0172174Y0073476D01*
X0171896Y0073445D01*
X0171618Y0073420D01*
X0171338Y0073403D01*
X0171059Y0073392D01*
X0170779Y0073388D01*
X0170499Y0073391D01*
X0170220Y0073401D01*
X0169941Y0073417D01*
X0169662Y0073440D01*
X0169384Y0073471D01*
X0169107Y0073507D01*
X0168830Y0073551D01*
X0168555Y0073601D01*
X0168281Y0073658D01*
X0168009Y0073722D01*
X0167738Y0073793D01*
X0167469Y0073869D01*
X0167202Y0073953D01*
X0166938Y0074043D01*
X0166675Y0074139D01*
X0166415Y0074242D01*
X0166157Y0074351D01*
X0165902Y0074467D01*
X0165650Y0074588D01*
X0165402Y0074716D01*
X0165156Y0074849D01*
X0164913Y0074989D01*
X0164675Y0075134D01*
X0164439Y0075286D01*
X0164208Y0075443D01*
X0163980Y0075605D01*
X0163757Y0075773D01*
X0163537Y0075947D01*
X0163322Y0076126D01*
X0163111Y0076310D01*
X0162905Y0076499D01*
X0162704Y0076693D01*
X0162507Y0076892D01*
X0162315Y0077095D01*
X0162129Y0077303D01*
X0161947Y0077516D01*
X0161771Y0077733D01*
X0161600Y0077955D01*
X0161434Y0078180D01*
X0161274Y0078410D01*
X0161120Y0078643D01*
X0160971Y0078880D01*
X0160828Y0079120D01*
X0160691Y0079364D01*
X0160560Y0079611D01*
X0160436Y0079862D01*
X0160317Y0080115D01*
X0160204Y0080371D01*
X0160098Y0080630D01*
X0159998Y0080891D01*
X0159905Y0081155D01*
X0159818Y0081421D01*
X0159737Y0081689D01*
X0159663Y0081958D01*
X0159596Y0082230D01*
X0159535Y0082503D01*
X0159481Y0082777D01*
X0159434Y0083053D01*
X0159394Y0083330D01*
X0159360Y0083607D01*
X0159333Y0083886D01*
X0159313Y0084165D01*
X0159299Y0084444D01*
X0159293Y0084724D01*
X0159293Y0085004D01*
X0159300Y0085283D01*
X0159314Y0085563D01*
X0159335Y0085841D01*
X0159362Y0086120D01*
X0159397Y0086397D01*
X0159438Y0086674D01*
X0159485Y0086950D01*
X0159540Y0087224D01*
X0159601Y0087497D01*
X0159669Y0087768D01*
X0159743Y0088038D01*
X0159824Y0088306D01*
X0159912Y0088571D01*
X0160006Y0088835D01*
X0160106Y0089096D01*
X0160213Y0089355D01*
X0160326Y0089610D01*
X0160445Y0089864D01*
X0160570Y0090114D01*
X0160702Y0090361D01*
X0160839Y0090604D01*
X0160982Y0090844D01*
X0161131Y0091081D01*
X0161286Y0091314D01*
X0161446Y0091543D01*
X0161612Y0091768D01*
X0161784Y0091989D01*
X0161961Y0092206D01*
X0162143Y0092419D01*
X0162330Y0092627D01*
X0162522Y0092830D01*
X0162719Y0093028D01*
X0162921Y0093222D01*
X0163127Y0093411D01*
X0163338Y0093594D01*
X0163554Y0093773D01*
X0163774Y0093946D01*
X0163997Y0094113D01*
X0164225Y0094275D01*
X0164457Y0094432D01*
X0164693Y0094583D01*
X0164932Y0094728D01*
X0165175Y0094867D01*
X0165420Y0095000D01*
X0159734Y0088612D02*
X0158436Y0088612D01*
X0199829Y0075118D02*
X0200068Y0074972D01*
X0200311Y0074831D01*
X0200556Y0074696D01*
X0200805Y0074567D01*
X0201057Y0074444D01*
X0201312Y0074328D01*
X0201570Y0074218D01*
X0201830Y0074114D01*
X0202093Y0074016D01*
X0202358Y0073925D01*
X0202625Y0073840D01*
X0202894Y0073762D01*
X0203165Y0073691D01*
X0203438Y0073626D01*
X0203712Y0073568D01*
X0203988Y0073516D01*
X0204264Y0073472D01*
X0204542Y0073434D01*
X0204821Y0073402D01*
X0205100Y0073378D01*
X0205380Y0073361D01*
X0205660Y0073350D01*
X0205940Y0073346D01*
X0206220Y0073349D01*
X0206500Y0073359D01*
X0206780Y0073375D01*
X0207059Y0073399D01*
X0207338Y0073429D01*
X0207616Y0073466D01*
X0207893Y0073510D01*
X0208168Y0073561D01*
X0208443Y0073618D01*
X0208716Y0073682D01*
X0208987Y0073753D01*
X0209256Y0073830D01*
X0209524Y0073914D01*
X0209789Y0074004D01*
X0210052Y0074101D01*
X0210313Y0074204D01*
X0210571Y0074313D01*
X0210826Y0074429D01*
X0211079Y0074551D01*
X0211328Y0074679D01*
X0211574Y0074813D01*
X0211817Y0074953D01*
X0212056Y0075099D01*
X0212292Y0075251D01*
X0212524Y0075408D01*
X0212752Y0075571D01*
X0212976Y0075740D01*
X0213195Y0075914D01*
X0213411Y0076093D01*
X0213622Y0076278D01*
X0213828Y0076467D01*
X0214030Y0076662D01*
X0214227Y0076861D01*
X0214419Y0077065D01*
X0214606Y0077274D01*
X0214788Y0077488D01*
X0214964Y0077705D01*
X0215135Y0077927D01*
X0215301Y0078153D01*
X0215461Y0078383D01*
X0215616Y0078617D01*
X0215764Y0078855D01*
X0215907Y0079096D01*
X0216044Y0079340D01*
X0216175Y0079588D01*
X0216300Y0079839D01*
X0216419Y0080093D01*
X0216531Y0080350D01*
X0216638Y0080609D01*
X0216737Y0080871D01*
X0216831Y0081135D01*
X0216918Y0081402D01*
X0216998Y0081670D01*
X0217072Y0081941D01*
X0217139Y0082213D01*
X0217200Y0082486D01*
X0217253Y0082762D01*
X0217300Y0083038D01*
X0217341Y0083315D01*
X0217374Y0083593D01*
X0217401Y0083872D01*
X0217421Y0084152D01*
X0217434Y0084432D01*
X0217440Y0084712D01*
X0217440Y0084993D01*
X0217432Y0085273D01*
X0217418Y0085553D01*
X0217397Y0085832D01*
X0217369Y0086111D01*
X0217335Y0086389D01*
X0217293Y0086666D01*
X0217245Y0086942D01*
X0217190Y0087217D01*
X0217128Y0087491D01*
X0217060Y0087763D01*
X0216985Y0088033D01*
X0216904Y0088301D01*
X0216816Y0088567D01*
X0216721Y0088831D01*
X0216620Y0089092D01*
X0216513Y0089351D01*
X0216399Y0089608D01*
X0216280Y0089861D01*
X0216154Y0090111D01*
X0216022Y0090359D01*
X0215884Y0090603D01*
X0215740Y0090843D01*
X0215590Y0091080D01*
X0215435Y0091313D01*
X0215274Y0091543D01*
X0215107Y0091768D01*
X0214935Y0091989D01*
X0214758Y0092206D01*
X0214575Y0092419D01*
X0214387Y0092627D01*
X0214194Y0092830D01*
X0213997Y0093029D01*
X0213794Y0093223D01*
X0213587Y0093412D01*
X0213375Y0093595D01*
X0213159Y0093774D01*
X0212939Y0093947D01*
X0212714Y0094114D01*
X0212485Y0094276D01*
X0212253Y0094433D01*
X0212016Y0094584D01*
X0211777Y0094729D01*
X0211533Y0094868D01*
X0211287Y0095001D01*
X0217091Y0101388D02*
X0231640Y0101388D01*
X0219171Y0102187D02*
X0217163Y0102187D01*
X0211286Y0095000D02*
X0211532Y0095136D01*
X0211775Y0095277D01*
X0212014Y0095425D01*
X0212250Y0095578D01*
X0212482Y0095737D01*
X0212710Y0095902D01*
X0212933Y0096072D01*
X0213153Y0096247D01*
X0213368Y0096428D01*
X0213579Y0096614D01*
X0213785Y0096805D01*
X0213986Y0097001D01*
X0214183Y0097202D01*
X0214374Y0097408D01*
X0214561Y0097619D01*
X0214742Y0097833D01*
X0214918Y0098053D01*
X0215088Y0098276D01*
X0215253Y0098504D01*
X0215413Y0098735D01*
X0215566Y0098971D01*
X0215714Y0099210D01*
X0215856Y0099452D01*
X0215992Y0099698D01*
X0216122Y0099947D01*
X0216246Y0100200D01*
X0216363Y0100455D01*
X0216475Y0100713D01*
X0216580Y0100974D01*
X0216678Y0101237D01*
X0216770Y0101503D01*
X0216856Y0101770D01*
X0216935Y0102040D01*
X0217007Y0102312D01*
X0217073Y0102585D01*
X0217132Y0102860D01*
X0217185Y0103136D01*
X0217230Y0103413D01*
X0217269Y0103692D01*
X0217301Y0103971D01*
X0217326Y0104251D01*
X0217344Y0104532D01*
X0217355Y0104812D01*
X0217360Y0105093D01*
X0217358Y0105375D01*
X0217348Y0105655D01*
X0217332Y0105936D01*
X0217309Y0106216D01*
X0217279Y0106496D01*
X0217243Y0106774D01*
X0217199Y0107052D01*
X0217149Y0107329D01*
X0217092Y0107604D01*
X0217029Y0107878D01*
X0216958Y0108150D01*
X0216881Y0108420D01*
X0216798Y0108689D01*
X0216708Y0108955D01*
X0216611Y0109219D01*
X0216508Y0109480D01*
X0216399Y0109739D01*
X0216283Y0109995D01*
X0216161Y0110249D01*
X0216033Y0110499D01*
X0215899Y0110746D01*
X0215759Y0110990D01*
X0215613Y0111230D01*
X0215461Y0111466D01*
X0215303Y0111699D01*
X0215140Y0111928D01*
X0214971Y0112153D01*
X0214797Y0112373D01*
X0214617Y0112589D01*
X0214433Y0112801D01*
X0214243Y0113008D01*
X0214048Y0113211D01*
X0213848Y0113408D01*
X0213643Y0113601D01*
X0213434Y0113789D01*
X0213220Y0113971D01*
X0213002Y0114149D01*
X0212779Y0114320D01*
X0212553Y0114487D01*
X0212322Y0114647D01*
X0212088Y0114802D01*
X0211850Y0114952D01*
X0211608Y0115095D01*
X0211363Y0115233D01*
X0211114Y0115364D01*
X0210863Y0115489D01*
X0210608Y0115608D01*
X0210351Y0115721D01*
X0210091Y0115828D01*
X0209828Y0115928D01*
X0209563Y0116022D01*
X0209296Y0116109D01*
X0209026Y0116189D01*
X0208755Y0116263D01*
X0208482Y0116331D01*
X0208208Y0116392D01*
X0207932Y0116445D01*
X0207655Y0116493D01*
X0207377Y0116533D01*
X0207098Y0116567D01*
X0206818Y0116593D01*
X0206538Y0116613D01*
X0206257Y0116626D01*
X0205976Y0116632D01*
X0205695Y0116632D01*
X0205414Y0116624D01*
X0205133Y0116610D01*
X0204853Y0116588D01*
X0204573Y0116560D01*
X0204294Y0116525D01*
X0204016Y0116484D01*
X0203739Y0116435D01*
X0203464Y0116380D01*
X0203190Y0116318D01*
X0202917Y0116249D01*
X0202646Y0116173D01*
X0202377Y0116092D01*
X0202111Y0116003D01*
X0201846Y0115908D01*
X0201584Y0115807D01*
X0201324Y0115699D01*
X0201068Y0115585D01*
X0200814Y0115464D01*
X0200563Y0115338D01*
X0200315Y0115205D01*
X0200070Y0115066D01*
X0199829Y0114922D01*
X0208084Y0117358D02*
X0217030Y0117358D01*
X0215115Y0118157D02*
X0210042Y0118157D01*
X0199829Y0114921D02*
X0199834Y0115203D01*
X0199832Y0115485D01*
X0199822Y0115766D01*
X0199806Y0116047D01*
X0199784Y0116328D01*
X0199754Y0116608D01*
X0199717Y0116887D01*
X0199674Y0117166D01*
X0199624Y0117443D01*
X0199567Y0117718D01*
X0199503Y0117993D01*
X0199433Y0118265D01*
X0199356Y0118536D01*
X0199272Y0118805D01*
X0199182Y0119072D01*
X0199085Y0119337D01*
X0198982Y0119599D01*
X0198873Y0119858D01*
X0198757Y0120115D01*
X0198635Y0120369D01*
X0198507Y0120619D01*
X0198373Y0120867D01*
X0198232Y0121111D01*
X0198086Y0121352D01*
X0197934Y0121589D01*
X0197776Y0121822D01*
X0197613Y0122052D01*
X0197444Y0122277D01*
X0197269Y0122498D01*
X0197090Y0122715D01*
X0196905Y0122927D01*
X0196714Y0123135D01*
X0196519Y0123338D01*
X0196319Y0123536D01*
X0196114Y0123729D01*
X0195905Y0123917D01*
X0195691Y0124100D01*
X0195472Y0124278D01*
X0195249Y0124450D01*
X0195022Y0124617D01*
X0194791Y0124778D01*
X0194557Y0124933D01*
X0194318Y0125083D01*
X0194076Y0125227D01*
X0193830Y0125365D01*
X0193582Y0125497D01*
X0193330Y0125622D01*
X0193075Y0125742D01*
X0192817Y0125855D01*
X0192556Y0125962D01*
X0192293Y0126063D01*
X0192028Y0126157D01*
X0191760Y0126244D01*
X0191490Y0126325D01*
X0191219Y0126400D01*
X0190945Y0126467D01*
X0190670Y0126528D01*
X0190394Y0126582D01*
X0190116Y0126630D01*
X0189838Y0126671D01*
X0189558Y0126705D01*
X0189278Y0126732D01*
X0188997Y0126752D01*
X0188716Y0126765D01*
X0188434Y0126771D01*
X0188152Y0126771D01*
X0187871Y0126764D01*
X0187590Y0126749D01*
X0187309Y0126728D01*
X0187029Y0126700D01*
X0186749Y0126665D01*
X0186471Y0126624D01*
X0186193Y0126575D01*
X0185917Y0126520D01*
X0185642Y0126458D01*
X0185369Y0126390D01*
X0185098Y0126314D01*
X0184828Y0126232D01*
X0184561Y0126144D01*
X0184296Y0126049D01*
X0184033Y0125948D01*
X0183773Y0125840D01*
X0183516Y0125726D01*
X0183261Y0125605D01*
X0183009Y0125479D01*
X0182761Y0125346D01*
X0182516Y0125207D01*
X0182274Y0125063D01*
X0182036Y0124912D01*
X0181802Y0124756D01*
X0181572Y0124594D01*
X0181345Y0124426D01*
X0181123Y0124253D01*
X0180905Y0124075D01*
X0180692Y0123891D01*
X0180483Y0123702D01*
X0180279Y0123508D01*
X0180079Y0123309D01*
X0179885Y0123106D01*
X0179695Y0122897D01*
X0179511Y0122685D01*
X0179332Y0122467D01*
X0179158Y0122246D01*
X0178990Y0122020D01*
X0178827Y0121790D01*
X0178670Y0121556D01*
X0178519Y0121318D01*
X0178374Y0121077D01*
X0178234Y0120833D01*
X0178101Y0120585D01*
X0177974Y0120333D01*
X0177852Y0120079D01*
X0177738Y0119822D01*
X0177629Y0119562D01*
X0177527Y0119300D01*
X0177431Y0119035D01*
X0177342Y0118768D01*
X0177259Y0118499D01*
X0177183Y0118227D01*
X0177114Y0117954D01*
X0177051Y0117680D01*
X0176995Y0117404D01*
X0176946Y0117127D01*
X0176903Y0116848D01*
X0176868Y0116569D01*
X0176839Y0116289D01*
X0176817Y0116008D01*
X0176802Y0115727D01*
X0176794Y0115445D01*
X0176792Y0115164D01*
X0176798Y0114882D01*
X0176554Y0115761D02*
X0175656Y0115761D01*
X0176643Y0116560D02*
X0173260Y0116560D01*
X0168556Y0117358D02*
X0159636Y0117358D01*
X0158414Y0116560D02*
X0168429Y0116560D01*
X0166579Y0118157D02*
X0161573Y0118157D01*
X0179380Y0126142D02*
X0184288Y0126142D01*
X0180110Y0127739D02*
X0196557Y0127739D01*
X0196950Y0126940D02*
X0179717Y0126940D01*
X0180647Y0128537D02*
X0196020Y0128537D01*
X0195357Y0129336D02*
X0181310Y0129336D01*
X0182131Y0130134D02*
X0194536Y0130134D01*
X0193453Y0130933D02*
X0183214Y0130933D01*
X0184830Y0131732D02*
X0191837Y0131732D01*
X0188333Y0131732D02*
X0231640Y0131732D01*
X0231640Y0132530D02*
X0188333Y0132530D01*
X0145026Y0132530D01*
X0145026Y0131732D02*
X0188333Y0131732D01*
X0188333Y0130933D02*
X0231640Y0130933D01*
X0231640Y0130134D02*
X0188333Y0130134D01*
X0145026Y0130134D01*
X0145026Y0129336D02*
X0188333Y0129336D01*
X0231640Y0129336D01*
X0231640Y0133329D02*
X0188333Y0133329D01*
X0145026Y0133329D01*
X0145026Y0134127D02*
X0188333Y0134127D01*
X0231640Y0134127D01*
X0231640Y0134926D02*
X0188333Y0134926D01*
X0145026Y0134926D01*
X0145026Y0135724D02*
X0188333Y0135724D01*
X0231640Y0135724D01*
X0231640Y0136523D02*
X0188333Y0136523D01*
X0145026Y0136523D01*
X0145026Y0137321D02*
X0188333Y0137321D01*
X0231640Y0137321D01*
X0231640Y0138120D02*
X0188333Y0138120D01*
X0145026Y0138120D01*
X0145026Y0130933D02*
X0188333Y0130933D01*
X0176798Y0114882D02*
X0176560Y0115028D01*
X0176317Y0115167D01*
X0176072Y0115301D01*
X0175823Y0115429D01*
X0175571Y0115550D01*
X0175316Y0115666D01*
X0175058Y0115775D01*
X0174798Y0115878D01*
X0174536Y0115974D01*
X0174271Y0116064D01*
X0174004Y0116148D01*
X0173735Y0116225D01*
X0173464Y0116295D01*
X0173192Y0116359D01*
X0172918Y0116416D01*
X0172643Y0116467D01*
X0172367Y0116510D01*
X0172090Y0116547D01*
X0171811Y0116577D01*
X0171533Y0116601D01*
X0171254Y0116617D01*
X0170974Y0116627D01*
X0170694Y0116630D01*
X0170415Y0116626D01*
X0170135Y0116615D01*
X0169856Y0116598D01*
X0169577Y0116573D01*
X0169299Y0116542D01*
X0169022Y0116504D01*
X0168746Y0116460D01*
X0168471Y0116408D01*
X0168197Y0116350D01*
X0167925Y0116286D01*
X0167655Y0116214D01*
X0167386Y0116136D01*
X0167120Y0116052D01*
X0166855Y0115961D01*
X0166593Y0115864D01*
X0166333Y0115760D01*
X0166076Y0115650D01*
X0165822Y0115533D01*
X0165570Y0115411D01*
X0165322Y0115282D01*
X0165076Y0115148D01*
X0164835Y0115007D01*
X0164596Y0114861D01*
X0164361Y0114709D01*
X0164131Y0114551D01*
X0163904Y0114388D01*
X0163681Y0114219D01*
X0163462Y0114044D01*
X0163247Y0113865D01*
X0163037Y0113680D01*
X0162832Y0113490D01*
X0162631Y0113295D01*
X0162435Y0113096D01*
X0162244Y0112891D01*
X0162058Y0112682D01*
X0161878Y0112469D01*
X0161702Y0112251D01*
X0161532Y0112029D01*
X0161367Y0111803D01*
X0161208Y0111573D01*
X0161055Y0111339D01*
X0160907Y0111102D01*
X0160765Y0110861D01*
X0160629Y0110616D01*
X0160499Y0110368D01*
X0160375Y0110118D01*
X0160257Y0109864D01*
X0160146Y0109607D01*
X0160041Y0109348D01*
X0159942Y0109087D01*
X0159850Y0108823D01*
X0159764Y0108556D01*
X0159684Y0108288D01*
X0159611Y0108018D01*
X0159545Y0107746D01*
X0159485Y0107473D01*
X0159432Y0107198D01*
X0159386Y0106923D01*
X0159347Y0106646D01*
X0159314Y0106368D01*
X0159288Y0106089D01*
X0159269Y0105810D01*
X0159257Y0105531D01*
X0159251Y0105251D01*
X0159253Y0104971D01*
X0159261Y0104692D01*
X0159276Y0104413D01*
X0159298Y0104134D01*
X0159326Y0103855D01*
X0159362Y0103578D01*
X0159404Y0103301D01*
X0159453Y0103026D01*
X0159508Y0102752D01*
X0159571Y0102479D01*
X0159639Y0102208D01*
X0159715Y0101939D01*
X0159797Y0101671D01*
X0159886Y0101406D01*
X0159981Y0101143D01*
X0160082Y0100882D01*
X0160190Y0100624D01*
X0160304Y0100369D01*
X0160424Y0100116D01*
X0160550Y0099867D01*
X0160682Y0099620D01*
X0160821Y0099377D01*
X0160965Y0099137D01*
X0161115Y0098901D01*
X0161271Y0098669D01*
X0161432Y0098440D01*
X0161599Y0098216D01*
X0161771Y0097996D01*
X0161949Y0097780D01*
X0162132Y0097568D01*
X0162320Y0097361D01*
X0162513Y0097158D01*
X0162711Y0096961D01*
X0162913Y0096768D01*
X0163121Y0096580D01*
X0163332Y0096397D01*
X0163548Y0096220D01*
X0163769Y0096047D01*
X0163993Y0095881D01*
X0164222Y0095719D01*
X0164455Y0095564D01*
X0164691Y0095414D01*
X0164930Y0095270D01*
X0165174Y0095132D01*
X0165420Y0095000D01*
D11*
X0175033Y0097500D03*
X0175033Y0092500D03*
X0175033Y0087500D03*
X0201533Y0087500D03*
X0201533Y0092500D03*
X0201533Y0097500D03*
X0201533Y0102500D03*
X0175033Y0102500D03*
D12*
X0177987Y0110000D03*
X0184680Y0110000D03*
X0191987Y0110000D03*
X0198680Y0110000D03*
D13*
X0213900Y0109778D03*
X0188333Y0124500D03*
X0162753Y0109770D03*
X0162752Y0080231D03*
X0188320Y0065465D03*
X0213909Y0080240D03*
D14*
X0203333Y0065000D03*
X0173333Y0125000D03*
M02*
