G75*
%MOIN*%
%OFA0B0*%
%FSLAX25Y25*%
%IPPOS*%
%LPD*%
%AMOC8*
5,1,8,0,0,1.08239X$1,22.5*
%
%ADD10C,0.01000*%
D10*
X0148963Y0095000D02*
X0148975Y0095966D01*
X0149010Y0096932D01*
X0149070Y0097896D01*
X0149153Y0098859D01*
X0149259Y0099819D01*
X0149389Y0100777D01*
X0149543Y0101731D01*
X0149719Y0102681D01*
X0149920Y0103626D01*
X0150143Y0104566D01*
X0150389Y0105500D01*
X0150658Y0106429D01*
X0150950Y0107350D01*
X0151264Y0108263D01*
X0151601Y0109169D01*
X0151960Y0110066D01*
X0152341Y0110954D01*
X0152743Y0111833D01*
X0153167Y0112701D01*
X0153612Y0113559D01*
X0154078Y0114405D01*
X0154564Y0115240D01*
X0155071Y0116063D01*
X0155598Y0116873D01*
X0156145Y0117670D01*
X0156711Y0118453D01*
X0157296Y0119222D01*
X0157900Y0119976D01*
X0158522Y0120715D01*
X0159162Y0121439D01*
X0159819Y0122147D01*
X0160494Y0122839D01*
X0161186Y0123514D01*
X0161894Y0124171D01*
X0162618Y0124811D01*
X0163357Y0125433D01*
X0164111Y0126037D01*
X0164880Y0126622D01*
X0165663Y0127188D01*
X0166460Y0127735D01*
X0167270Y0128262D01*
X0168093Y0128769D01*
X0168928Y0129255D01*
X0169774Y0129721D01*
X0170632Y0130166D01*
X0171500Y0130590D01*
X0172379Y0130992D01*
X0173267Y0131373D01*
X0174164Y0131732D01*
X0175070Y0132069D01*
X0175983Y0132383D01*
X0176904Y0132675D01*
X0177833Y0132944D01*
X0178767Y0133190D01*
X0179707Y0133413D01*
X0180652Y0133614D01*
X0181602Y0133790D01*
X0182556Y0133944D01*
X0183514Y0134074D01*
X0184474Y0134180D01*
X0185437Y0134263D01*
X0186401Y0134323D01*
X0187367Y0134358D01*
X0188333Y0134370D01*
X0189299Y0134358D01*
X0190265Y0134323D01*
X0191229Y0134263D01*
X0192192Y0134180D01*
X0193152Y0134074D01*
X0194110Y0133944D01*
X0195064Y0133790D01*
X0196014Y0133614D01*
X0196959Y0133413D01*
X0197899Y0133190D01*
X0198833Y0132944D01*
X0199762Y0132675D01*
X0200683Y0132383D01*
X0201596Y0132069D01*
X0202502Y0131732D01*
X0203399Y0131373D01*
X0204287Y0130992D01*
X0205166Y0130590D01*
X0206034Y0130166D01*
X0206892Y0129721D01*
X0207738Y0129255D01*
X0208573Y0128769D01*
X0209396Y0128262D01*
X0210206Y0127735D01*
X0211003Y0127188D01*
X0211786Y0126622D01*
X0212555Y0126037D01*
X0213309Y0125433D01*
X0214048Y0124811D01*
X0214772Y0124171D01*
X0215480Y0123514D01*
X0216172Y0122839D01*
X0216847Y0122147D01*
X0217504Y0121439D01*
X0218144Y0120715D01*
X0218766Y0119976D01*
X0219370Y0119222D01*
X0219955Y0118453D01*
X0220521Y0117670D01*
X0221068Y0116873D01*
X0221595Y0116063D01*
X0222102Y0115240D01*
X0222588Y0114405D01*
X0223054Y0113559D01*
X0223499Y0112701D01*
X0223923Y0111833D01*
X0224325Y0110954D01*
X0224706Y0110066D01*
X0225065Y0109169D01*
X0225402Y0108263D01*
X0225716Y0107350D01*
X0226008Y0106429D01*
X0226277Y0105500D01*
X0226523Y0104566D01*
X0226746Y0103626D01*
X0226947Y0102681D01*
X0227123Y0101731D01*
X0227277Y0100777D01*
X0227407Y0099819D01*
X0227513Y0098859D01*
X0227596Y0097896D01*
X0227656Y0096932D01*
X0227691Y0095966D01*
X0227703Y0095000D01*
X0227691Y0094034D01*
X0227656Y0093068D01*
X0227596Y0092104D01*
X0227513Y0091141D01*
X0227407Y0090181D01*
X0227277Y0089223D01*
X0227123Y0088269D01*
X0226947Y0087319D01*
X0226746Y0086374D01*
X0226523Y0085434D01*
X0226277Y0084500D01*
X0226008Y0083571D01*
X0225716Y0082650D01*
X0225402Y0081737D01*
X0225065Y0080831D01*
X0224706Y0079934D01*
X0224325Y0079046D01*
X0223923Y0078167D01*
X0223499Y0077299D01*
X0223054Y0076441D01*
X0222588Y0075595D01*
X0222102Y0074760D01*
X0221595Y0073937D01*
X0221068Y0073127D01*
X0220521Y0072330D01*
X0219955Y0071547D01*
X0219370Y0070778D01*
X0218766Y0070024D01*
X0218144Y0069285D01*
X0217504Y0068561D01*
X0216847Y0067853D01*
X0216172Y0067161D01*
X0215480Y0066486D01*
X0214772Y0065829D01*
X0214048Y0065189D01*
X0213309Y0064567D01*
X0212555Y0063963D01*
X0211786Y0063378D01*
X0211003Y0062812D01*
X0210206Y0062265D01*
X0209396Y0061738D01*
X0208573Y0061231D01*
X0207738Y0060745D01*
X0206892Y0060279D01*
X0206034Y0059834D01*
X0205166Y0059410D01*
X0204287Y0059008D01*
X0203399Y0058627D01*
X0202502Y0058268D01*
X0201596Y0057931D01*
X0200683Y0057617D01*
X0199762Y0057325D01*
X0198833Y0057056D01*
X0197899Y0056810D01*
X0196959Y0056587D01*
X0196014Y0056386D01*
X0195064Y0056210D01*
X0194110Y0056056D01*
X0193152Y0055926D01*
X0192192Y0055820D01*
X0191229Y0055737D01*
X0190265Y0055677D01*
X0189299Y0055642D01*
X0188333Y0055630D01*
X0187367Y0055642D01*
X0186401Y0055677D01*
X0185437Y0055737D01*
X0184474Y0055820D01*
X0183514Y0055926D01*
X0182556Y0056056D01*
X0181602Y0056210D01*
X0180652Y0056386D01*
X0179707Y0056587D01*
X0178767Y0056810D01*
X0177833Y0057056D01*
X0176904Y0057325D01*
X0175983Y0057617D01*
X0175070Y0057931D01*
X0174164Y0058268D01*
X0173267Y0058627D01*
X0172379Y0059008D01*
X0171500Y0059410D01*
X0170632Y0059834D01*
X0169774Y0060279D01*
X0168928Y0060745D01*
X0168093Y0061231D01*
X0167270Y0061738D01*
X0166460Y0062265D01*
X0165663Y0062812D01*
X0164880Y0063378D01*
X0164111Y0063963D01*
X0163357Y0064567D01*
X0162618Y0065189D01*
X0161894Y0065829D01*
X0161186Y0066486D01*
X0160494Y0067161D01*
X0159819Y0067853D01*
X0159162Y0068561D01*
X0158522Y0069285D01*
X0157900Y0070024D01*
X0157296Y0070778D01*
X0156711Y0071547D01*
X0156145Y0072330D01*
X0155598Y0073127D01*
X0155071Y0073937D01*
X0154564Y0074760D01*
X0154078Y0075595D01*
X0153612Y0076441D01*
X0153167Y0077299D01*
X0152743Y0078167D01*
X0152341Y0079046D01*
X0151960Y0079934D01*
X0151601Y0080831D01*
X0151264Y0081737D01*
X0150950Y0082650D01*
X0150658Y0083571D01*
X0150389Y0084500D01*
X0150143Y0085434D01*
X0149920Y0086374D01*
X0149719Y0087319D01*
X0149543Y0088269D01*
X0149389Y0089223D01*
X0149259Y0090181D01*
X0149153Y0091141D01*
X0149070Y0092104D01*
X0149010Y0093068D01*
X0148975Y0094034D01*
X0148963Y0095000D01*
M02*
