G75*
%MOIN*%
%OFA0B0*%
%FSLAX25Y25*%
%IPPOS*%
%LPD*%
%AMOC8*
5,1,8,0,0,1.08239X$1,22.5*
%
%ADD10C,0.00600*%
%ADD11C,0.00800*%
%ADD12C,0.00100*%
%ADD13C,0.02200*%
%ADD14R,0.01800X0.03000*%
D10*
X0174405Y0061905D02*
X0174973Y0061338D01*
X0176107Y0061338D01*
X0176674Y0061905D01*
X0176674Y0064174D01*
X0174405Y0061905D01*
X0174405Y0064174D01*
X0174973Y0064741D01*
X0176107Y0064741D01*
X0176674Y0064174D01*
X0208633Y0066549D02*
X0210902Y0066549D01*
X0209768Y0066549D02*
X0209768Y0069952D01*
X0208633Y0068817D01*
X0198332Y0085701D02*
X0178235Y0085701D01*
X0154902Y0090501D02*
X0152633Y0090501D01*
X0178235Y0104299D02*
X0198332Y0104299D01*
X0221941Y0101923D02*
X0222508Y0102490D01*
X0223643Y0102490D01*
X0224210Y0101923D01*
X0224210Y0101356D01*
X0221941Y0099087D01*
X0224210Y0099087D01*
X0164268Y0120867D02*
X0164268Y0123136D01*
X0165402Y0122001D02*
X0163133Y0122001D01*
X0199196Y0126918D02*
X0199763Y0126350D01*
X0200898Y0126350D01*
X0201465Y0126918D01*
X0201465Y0127485D01*
X0200898Y0128052D01*
X0200331Y0128052D01*
X0200898Y0128052D02*
X0201465Y0128619D01*
X0201465Y0129186D01*
X0200898Y0129753D01*
X0199763Y0129753D01*
X0199196Y0129186D01*
D11*
X0180868Y0102100D02*
X0180870Y0102147D01*
X0180876Y0102194D01*
X0180886Y0102241D01*
X0180899Y0102286D01*
X0180917Y0102330D01*
X0180938Y0102372D01*
X0180962Y0102413D01*
X0180990Y0102451D01*
X0181021Y0102487D01*
X0181055Y0102520D01*
X0181091Y0102550D01*
X0181130Y0102577D01*
X0181171Y0102601D01*
X0181214Y0102621D01*
X0181258Y0102637D01*
X0181304Y0102650D01*
X0181350Y0102659D01*
X0181398Y0102664D01*
X0181445Y0102665D01*
X0181492Y0102662D01*
X0181539Y0102655D01*
X0181585Y0102644D01*
X0181630Y0102630D01*
X0181674Y0102611D01*
X0181715Y0102589D01*
X0181755Y0102564D01*
X0181793Y0102535D01*
X0181828Y0102504D01*
X0181861Y0102469D01*
X0181890Y0102432D01*
X0181916Y0102393D01*
X0181939Y0102351D01*
X0181958Y0102308D01*
X0181974Y0102263D01*
X0181986Y0102217D01*
X0181994Y0102171D01*
X0181998Y0102124D01*
X0181998Y0102076D01*
X0181994Y0102029D01*
X0181986Y0101983D01*
X0181974Y0101937D01*
X0181958Y0101892D01*
X0181939Y0101849D01*
X0181916Y0101807D01*
X0181890Y0101768D01*
X0181861Y0101731D01*
X0181828Y0101696D01*
X0181793Y0101665D01*
X0181755Y0101636D01*
X0181716Y0101611D01*
X0181674Y0101589D01*
X0181630Y0101570D01*
X0181585Y0101556D01*
X0181539Y0101545D01*
X0181492Y0101538D01*
X0181445Y0101535D01*
X0181398Y0101536D01*
X0181350Y0101541D01*
X0181304Y0101550D01*
X0181258Y0101563D01*
X0181214Y0101579D01*
X0181171Y0101599D01*
X0181130Y0101623D01*
X0181091Y0101650D01*
X0181055Y0101680D01*
X0181021Y0101713D01*
X0180990Y0101749D01*
X0180962Y0101787D01*
X0180938Y0101828D01*
X0180917Y0101870D01*
X0180899Y0101914D01*
X0180886Y0101959D01*
X0180876Y0102006D01*
X0180870Y0102053D01*
X0180868Y0102100D01*
X0185289Y0085395D02*
X0185291Y0085254D01*
X0185297Y0085113D01*
X0185306Y0084972D01*
X0185320Y0084832D01*
X0185338Y0084692D01*
X0185359Y0084553D01*
X0185384Y0084414D01*
X0185413Y0084276D01*
X0185446Y0084139D01*
X0185482Y0084002D01*
X0185522Y0083867D01*
X0185566Y0083733D01*
X0185614Y0083600D01*
X0185665Y0083469D01*
X0185720Y0083339D01*
X0185779Y0083211D01*
X0185840Y0083084D01*
X0185906Y0082959D01*
X0185975Y0082836D01*
X0186047Y0082715D01*
X0186122Y0082596D01*
X0186201Y0082479D01*
X0186283Y0082364D01*
X0186368Y0082251D01*
X0186456Y0082141D01*
X0186547Y0082034D01*
X0186642Y0081929D01*
X0186739Y0081826D01*
X0186838Y0081727D01*
X0186941Y0081630D01*
X0187046Y0081535D01*
X0187153Y0081444D01*
X0187263Y0081356D01*
X0187376Y0081271D01*
X0187491Y0081189D01*
X0187608Y0081110D01*
X0187727Y0081035D01*
X0187848Y0080963D01*
X0187971Y0080894D01*
X0188096Y0080828D01*
X0188223Y0080767D01*
X0188351Y0080708D01*
X0188481Y0080653D01*
X0188612Y0080602D01*
X0188745Y0080554D01*
X0188879Y0080510D01*
X0189014Y0080470D01*
X0189151Y0080434D01*
X0189288Y0080401D01*
X0189426Y0080372D01*
X0189565Y0080347D01*
X0189704Y0080326D01*
X0189844Y0080308D01*
X0189984Y0080294D01*
X0190125Y0080285D01*
X0190266Y0080279D01*
X0190407Y0080277D01*
X0191195Y0080277D01*
X0189423Y0081065D02*
X0189425Y0081173D01*
X0189431Y0081281D01*
X0189441Y0081388D01*
X0189454Y0081495D01*
X0189472Y0081601D01*
X0189494Y0081707D01*
X0189519Y0081812D01*
X0189548Y0081916D01*
X0189581Y0082018D01*
X0189618Y0082120D01*
X0189658Y0082220D01*
X0189702Y0082318D01*
X0189750Y0082415D01*
X0189801Y0082510D01*
X0189855Y0082603D01*
X0189913Y0082694D01*
X0189974Y0082783D01*
X0190039Y0082870D01*
X0190106Y0082954D01*
X0190177Y0083036D01*
X0190250Y0083115D01*
X0190326Y0083191D01*
X0190405Y0083264D01*
X0190487Y0083335D01*
X0190571Y0083402D01*
X0190658Y0083467D01*
X0190747Y0083528D01*
X0190838Y0083586D01*
X0190931Y0083640D01*
X0191026Y0083691D01*
X0191123Y0083739D01*
X0191221Y0083783D01*
X0191321Y0083823D01*
X0191423Y0083860D01*
X0191525Y0083893D01*
X0191629Y0083922D01*
X0191734Y0083947D01*
X0191840Y0083969D01*
X0191946Y0083987D01*
X0192053Y0084000D01*
X0192160Y0084010D01*
X0192268Y0084016D01*
X0192376Y0084018D01*
X0192376Y0084017D02*
X0192770Y0084017D01*
X0192832Y0084015D01*
X0192893Y0084009D01*
X0192954Y0084000D01*
X0193015Y0083986D01*
X0193074Y0083969D01*
X0193132Y0083948D01*
X0193189Y0083923D01*
X0193244Y0083895D01*
X0193297Y0083864D01*
X0193348Y0083829D01*
X0193397Y0083791D01*
X0193444Y0083750D01*
X0193487Y0083707D01*
X0193528Y0083660D01*
X0193566Y0083611D01*
X0193601Y0083560D01*
X0193632Y0083507D01*
X0193660Y0083452D01*
X0193685Y0083395D01*
X0193706Y0083337D01*
X0193723Y0083278D01*
X0193737Y0083217D01*
X0193746Y0083156D01*
X0193752Y0083095D01*
X0193754Y0083033D01*
X0193754Y0082836D01*
X0193752Y0082736D01*
X0193746Y0082635D01*
X0193736Y0082535D01*
X0193722Y0082436D01*
X0193705Y0082337D01*
X0193683Y0082239D01*
X0193658Y0082141D01*
X0193629Y0082045D01*
X0193596Y0081950D01*
X0193559Y0081857D01*
X0193519Y0081765D01*
X0193475Y0081674D01*
X0193428Y0081586D01*
X0193377Y0081499D01*
X0193323Y0081414D01*
X0193265Y0081332D01*
X0193205Y0081252D01*
X0193141Y0081174D01*
X0193074Y0081099D01*
X0193004Y0081027D01*
X0192932Y0080957D01*
X0192857Y0080890D01*
X0192779Y0080826D01*
X0192699Y0080766D01*
X0192617Y0080708D01*
X0192532Y0080654D01*
X0192445Y0080603D01*
X0192357Y0080556D01*
X0192266Y0080512D01*
X0192174Y0080472D01*
X0192081Y0080435D01*
X0191986Y0080402D01*
X0191890Y0080373D01*
X0191792Y0080348D01*
X0191694Y0080326D01*
X0191595Y0080309D01*
X0191496Y0080295D01*
X0191396Y0080285D01*
X0191295Y0080279D01*
X0191195Y0080277D01*
X0189423Y0081065D02*
X0189423Y0078506D01*
X0185486Y0077718D02*
X0185092Y0077718D01*
X0184699Y0073782D02*
X0184834Y0073784D01*
X0184969Y0073790D01*
X0185103Y0073799D01*
X0185237Y0073813D01*
X0185371Y0073830D01*
X0185505Y0073851D01*
X0185637Y0073876D01*
X0185769Y0073905D01*
X0185900Y0073937D01*
X0186030Y0073973D01*
X0186159Y0074013D01*
X0186286Y0074057D01*
X0186413Y0074104D01*
X0186538Y0074155D01*
X0186661Y0074209D01*
X0186783Y0074267D01*
X0186904Y0074328D01*
X0187022Y0074393D01*
X0187138Y0074461D01*
X0187253Y0074532D01*
X0187365Y0074606D01*
X0187476Y0074684D01*
X0187584Y0074765D01*
X0187689Y0074849D01*
X0187793Y0074936D01*
X0187893Y0075026D01*
X0187991Y0075118D01*
X0188087Y0075214D01*
X0188179Y0075312D01*
X0188269Y0075412D01*
X0188356Y0075516D01*
X0188440Y0075621D01*
X0188521Y0075729D01*
X0188599Y0075840D01*
X0188673Y0075952D01*
X0188744Y0076067D01*
X0188812Y0076183D01*
X0188877Y0076301D01*
X0188938Y0076422D01*
X0188996Y0076544D01*
X0189050Y0076667D01*
X0189101Y0076792D01*
X0189148Y0076919D01*
X0189192Y0077046D01*
X0189232Y0077175D01*
X0189268Y0077305D01*
X0189300Y0077436D01*
X0189329Y0077568D01*
X0189354Y0077700D01*
X0189375Y0077834D01*
X0189392Y0077968D01*
X0189406Y0078102D01*
X0189415Y0078236D01*
X0189421Y0078371D01*
X0189423Y0078506D01*
X0188439Y0074765D02*
X0188466Y0074666D01*
X0188498Y0074568D01*
X0188533Y0074472D01*
X0188571Y0074377D01*
X0188613Y0074283D01*
X0188659Y0074191D01*
X0188708Y0074101D01*
X0188760Y0074013D01*
X0188815Y0073926D01*
X0188874Y0073842D01*
X0188936Y0073760D01*
X0189001Y0073680D01*
X0189069Y0073603D01*
X0189139Y0073529D01*
X0189213Y0073457D01*
X0189289Y0073388D01*
X0189367Y0073322D01*
X0189448Y0073259D01*
X0189531Y0073199D01*
X0189617Y0073142D01*
X0189704Y0073088D01*
X0189794Y0073038D01*
X0189885Y0072991D01*
X0189978Y0072947D01*
X0190072Y0072907D01*
X0190168Y0072870D01*
X0190266Y0072838D01*
X0190364Y0072808D01*
X0190463Y0072783D01*
X0190564Y0072761D01*
X0190665Y0072743D01*
X0190767Y0072729D01*
X0190869Y0072718D01*
X0190971Y0072712D01*
X0191074Y0072709D01*
X0191176Y0072710D01*
X0191279Y0072715D01*
X0191381Y0072724D01*
X0191483Y0072736D01*
X0191584Y0072753D01*
X0191685Y0072773D01*
X0191785Y0072797D01*
X0188439Y0074765D02*
X0188437Y0074873D01*
X0188431Y0074981D01*
X0188421Y0075088D01*
X0188408Y0075195D01*
X0188390Y0075301D01*
X0188368Y0075407D01*
X0188343Y0075512D01*
X0188314Y0075616D01*
X0188281Y0075718D01*
X0188244Y0075820D01*
X0188204Y0075920D01*
X0188160Y0076018D01*
X0188112Y0076115D01*
X0188061Y0076210D01*
X0188007Y0076303D01*
X0187949Y0076394D01*
X0187888Y0076483D01*
X0187823Y0076570D01*
X0187756Y0076654D01*
X0187685Y0076736D01*
X0187612Y0076815D01*
X0187536Y0076891D01*
X0187457Y0076964D01*
X0187375Y0077035D01*
X0187291Y0077102D01*
X0187204Y0077167D01*
X0187115Y0077228D01*
X0187024Y0077286D01*
X0186931Y0077340D01*
X0186836Y0077391D01*
X0186739Y0077439D01*
X0186641Y0077483D01*
X0186541Y0077523D01*
X0186439Y0077560D01*
X0186337Y0077593D01*
X0186233Y0077622D01*
X0186128Y0077647D01*
X0186022Y0077669D01*
X0185916Y0077687D01*
X0185809Y0077700D01*
X0185702Y0077710D01*
X0185594Y0077716D01*
X0185486Y0077718D01*
X0185092Y0077718D02*
X0185000Y0077716D01*
X0184908Y0077710D01*
X0184817Y0077700D01*
X0184726Y0077687D01*
X0184636Y0077669D01*
X0184546Y0077648D01*
X0184458Y0077623D01*
X0184371Y0077594D01*
X0184285Y0077562D01*
X0184200Y0077526D01*
X0184117Y0077486D01*
X0184036Y0077443D01*
X0183957Y0077397D01*
X0183880Y0077347D01*
X0183805Y0077294D01*
X0183732Y0077237D01*
X0183662Y0077178D01*
X0183594Y0077116D01*
X0183529Y0077051D01*
X0183467Y0076983D01*
X0183408Y0076913D01*
X0183351Y0076840D01*
X0183298Y0076765D01*
X0183248Y0076688D01*
X0183202Y0076609D01*
X0183159Y0076528D01*
X0183119Y0076445D01*
X0183083Y0076360D01*
X0183051Y0076274D01*
X0183022Y0076187D01*
X0182997Y0076099D01*
X0182976Y0076009D01*
X0182958Y0075919D01*
X0182945Y0075828D01*
X0182935Y0075737D01*
X0182929Y0075645D01*
X0182927Y0075553D01*
X0182929Y0075471D01*
X0182935Y0075390D01*
X0182944Y0075308D01*
X0182957Y0075227D01*
X0182974Y0075147D01*
X0182995Y0075068D01*
X0183019Y0074990D01*
X0183047Y0074913D01*
X0183078Y0074837D01*
X0183113Y0074763D01*
X0183151Y0074691D01*
X0183192Y0074620D01*
X0183237Y0074552D01*
X0183285Y0074485D01*
X0183336Y0074421D01*
X0183389Y0074359D01*
X0183446Y0074300D01*
X0183505Y0074243D01*
X0183567Y0074190D01*
X0183631Y0074139D01*
X0183698Y0074091D01*
X0183766Y0074046D01*
X0183837Y0074005D01*
X0183909Y0073967D01*
X0183983Y0073932D01*
X0184059Y0073901D01*
X0184136Y0073873D01*
X0184214Y0073849D01*
X0184293Y0073828D01*
X0184373Y0073811D01*
X0184454Y0073798D01*
X0184536Y0073789D01*
X0184617Y0073783D01*
X0184699Y0073781D01*
D12*
X0185382Y0097103D02*
X0186633Y0097103D01*
X0186883Y0097354D01*
X0186883Y0097854D01*
X0186633Y0098104D01*
X0185382Y0098104D01*
X0185882Y0098577D02*
X0185382Y0099077D01*
X0186883Y0099077D01*
X0186883Y0098577D02*
X0186883Y0099578D01*
X0184411Y0105450D02*
X0183410Y0105450D01*
X0182938Y0105450D02*
X0182437Y0105950D01*
X0182687Y0105950D02*
X0181937Y0105950D01*
X0181937Y0105450D02*
X0181937Y0106951D01*
X0182687Y0106951D01*
X0182938Y0106701D01*
X0182938Y0106201D01*
X0182687Y0105950D01*
X0183410Y0106451D02*
X0183910Y0106951D01*
X0183910Y0105450D01*
X0191883Y0113300D02*
X0192134Y0113050D01*
X0192634Y0113050D01*
X0192884Y0113300D01*
X0193357Y0113050D02*
X0194357Y0113050D01*
X0193857Y0113050D02*
X0193857Y0114551D01*
X0193357Y0114051D01*
X0192884Y0114301D02*
X0192634Y0114551D01*
X0192134Y0114551D01*
X0191883Y0114301D01*
X0191883Y0113300D01*
D13*
X0195333Y0110120D02*
X0195333Y0109880D01*
D14*
X0181333Y0110000D03*
M02*
