G75*
%MOIN*%
%OFA0B0*%
%FSLAX25Y25*%
%IPPOS*%
%LPD*%
%AMOC8*
5,1,8,0,0,1.08239X$1,22.5*
%
%ADD10R,0.05000X0.02200*%
%ADD11R,0.02200X0.05000*%
%ADD12R,0.06693X0.02756*%
%ADD13R,0.03937X0.04331*%
%ADD14R,0.04331X0.03937*%
%ADD15C,0.01181*%
D10*
X0106838Y0036114D03*
X0106838Y0039264D03*
X0106838Y0042414D03*
X0106838Y0045563D03*
X0106838Y0048713D03*
X0106838Y0051862D03*
X0106838Y0055012D03*
X0106838Y0058162D03*
X0140638Y0058162D03*
X0140638Y0055012D03*
X0140638Y0051862D03*
X0140638Y0048713D03*
X0140638Y0045563D03*
X0140638Y0042414D03*
X0140638Y0039264D03*
X0140638Y0036114D03*
D11*
X0134762Y0030238D03*
X0131612Y0030238D03*
X0128462Y0030238D03*
X0125313Y0030238D03*
X0122163Y0030238D03*
X0119014Y0030238D03*
X0115864Y0030238D03*
X0112714Y0030238D03*
X0112714Y0064038D03*
X0115864Y0064038D03*
X0119014Y0064038D03*
X0122163Y0064038D03*
X0125313Y0064038D03*
X0128462Y0064038D03*
X0131612Y0064038D03*
X0134762Y0064038D03*
D12*
X0150368Y0057517D03*
X0150368Y0052792D03*
X0150368Y0048068D03*
D13*
X0098483Y0033102D03*
X0098483Y0039795D03*
X0098378Y0048702D03*
X0098378Y0055395D03*
X0103888Y0064617D03*
X0103888Y0071310D03*
D14*
X0083280Y0039433D03*
X0076587Y0039433D03*
X0070280Y0039433D03*
X0063587Y0039433D03*
X0147552Y0037798D03*
X0154245Y0037798D03*
X0156925Y0027478D03*
X0150232Y0027478D03*
D15*
X0097316Y0065658D02*
X0094560Y0065658D01*
X0097316Y0065658D02*
X0097316Y0062902D01*
X0094560Y0062902D01*
X0094560Y0065658D01*
X0094560Y0064082D02*
X0097316Y0064082D01*
X0097316Y0065262D02*
X0094560Y0065262D01*
X0094560Y0072564D02*
X0097316Y0072564D01*
X0097316Y0069808D01*
X0094560Y0069808D01*
X0094560Y0072564D01*
X0094560Y0070988D02*
X0097316Y0070988D01*
X0097316Y0072168D02*
X0094560Y0072168D01*
M02*
