%
M48
M72
T01C0.0120
T02C0.0394
T03C0.0400
%
T01
X2143Y2293
X2743Y2293
X5043Y2293
X5643Y2293
X6243Y2293
X8193Y2943
X10043Y2393
X10643Y2393
X11243Y2393
X11793Y2393
X12343Y2393
X14293Y2693
X14543Y2943
X14443Y3243
X14043Y3293
X13243Y3643
X12560Y3599
X11930Y3599
X11243Y3993
X11260Y4662
X13504Y4185
X13543Y4893
X11591Y5680
X12143Y5943
X12560Y5803
X13474Y5869
X14493Y6093
X14715Y6330
X14743Y6843
X14443Y7143
X13793Y7143
X13143Y7143
X12493Y7143
X11893Y6793
X10943Y7143
X10943Y6143
X10293Y6043
X7143Y7243
X5043Y7193
X2743Y7193
X2143Y7193
X6943Y4343
X10443Y2943
X14743Y2293
X16293Y2293
X16793Y2293
X18143Y2293
X18793Y2293
X19293Y2293
X19293Y7193
X18793Y7193
X18193Y7193
X16843Y7193
X16293Y7193
T02
X17539Y6741
X19114Y4753
X17559Y2765
X6879Y2936
X3848Y2753
X2273Y4741
X3828Y6730
T03
X6293Y6843
X7993Y6843
X7993Y5843
X6293Y5843
X6293Y4843
X7993Y4843
X16743Y4743
X16743Y3743
X16743Y5743
M30
