G75*
%MOIN*%
%OFA0B0*%
%FSLAX25Y25*%
%IPPOS*%
%LPD*%
%AMOC8*
5,1,8,0,0,1.08239X$1,22.5*
%
%ADD10C,0.00700*%
%ADD11C,0.01000*%
%ADD12C,0.00500*%
%ADD13C,0.03000*%
%ADD14C,0.02300*%
%ADD15C,0.01600*%
%ADD16C,0.00600*%
%ADD17C,0.00709*%
%ADD18C,0.02200*%
%ADD19R,0.01800X0.03000*%
%ADD20C,0.00800*%
%ADD21R,0.03000X0.01800*%
D10*
X0050298Y0026818D02*
X0050931Y0026184D01*
X0052199Y0026184D01*
X0052833Y0026818D01*
X0052833Y0028720D01*
X0053467Y0028720D02*
X0054101Y0028086D01*
X0054101Y0027452D01*
X0053467Y0028720D02*
X0050298Y0028720D01*
X0050298Y0026818D01*
X0050298Y0030328D02*
X0050298Y0030962D01*
X0052833Y0030962D01*
X0052833Y0031595D02*
X0052833Y0030328D01*
X0049030Y0030962D02*
X0048396Y0030962D01*
X0050298Y0033090D02*
X0050298Y0034358D01*
X0049664Y0033724D02*
X0052199Y0033724D01*
X0052833Y0034358D01*
X0052833Y0035852D02*
X0052833Y0036486D01*
X0052199Y0036486D01*
X0052199Y0035852D01*
X0052833Y0035852D01*
X0052833Y0037924D02*
X0052833Y0039192D01*
X0052833Y0038558D02*
X0050298Y0038558D01*
X0050298Y0037924D01*
X0049030Y0038558D02*
X0048396Y0038558D01*
X0050931Y0040687D02*
X0052199Y0040687D01*
X0052833Y0041320D01*
X0052833Y0042588D01*
X0052199Y0043222D01*
X0050931Y0043222D01*
X0050298Y0042588D01*
X0050298Y0041320D01*
X0050931Y0040687D01*
X0052833Y0044830D02*
X0049030Y0047366D01*
X0049030Y0048974D02*
X0052833Y0048974D01*
X0051565Y0048974D02*
X0050298Y0050875D01*
X0051565Y0048974D02*
X0052833Y0050875D01*
X0052199Y0052427D02*
X0051565Y0053060D01*
X0051565Y0054962D01*
X0050931Y0054962D02*
X0052833Y0054962D01*
X0052833Y0053060D01*
X0052199Y0052427D01*
X0050298Y0053060D02*
X0050298Y0054328D01*
X0050931Y0054962D01*
X0050298Y0056570D02*
X0050298Y0058472D01*
X0050931Y0059106D01*
X0052833Y0059106D01*
X0050931Y0060714D02*
X0050931Y0061981D01*
X0049664Y0061348D02*
X0049030Y0061981D01*
X0049664Y0061348D02*
X0052833Y0061348D01*
X0052833Y0063476D02*
X0052833Y0064744D01*
X0052833Y0064110D02*
X0049030Y0064110D01*
X0049030Y0063476D01*
X0050931Y0066238D02*
X0052199Y0066238D01*
X0052833Y0066872D01*
X0052833Y0068140D01*
X0052199Y0068774D01*
X0050931Y0068774D01*
X0050298Y0068140D01*
X0050298Y0066872D01*
X0050931Y0066238D01*
X0050298Y0056570D02*
X0052833Y0056570D01*
X0087530Y0057041D02*
X0087530Y0055140D01*
X0091333Y0055140D01*
X0091333Y0057041D01*
X0090699Y0057675D01*
X0088164Y0057675D01*
X0087530Y0057041D01*
X0088164Y0059283D02*
X0087530Y0059917D01*
X0087530Y0061185D01*
X0088164Y0061819D01*
X0090699Y0061819D01*
X0091333Y0061185D01*
X0091333Y0059917D01*
X0090699Y0059283D01*
X0088164Y0059283D01*
X0090065Y0060551D02*
X0091333Y0061819D01*
X0089431Y0067711D02*
X0089431Y0070247D01*
X0088164Y0068979D02*
X0090699Y0068979D01*
X0089431Y0049247D02*
X0089431Y0046711D01*
D11*
X0155933Y0059433D02*
X0160433Y0059433D01*
X0159433Y0057933D02*
X0158433Y0057933D01*
X0156933Y0057933D01*
X0158433Y0057933D02*
X0159433Y0057933D01*
X0158433Y0057933D01*
X0159433Y0057933D01*
X0158933Y0056433D02*
X0157433Y0056433D01*
X0159933Y0049933D02*
X0159933Y0044933D01*
X0157433Y0047433D01*
X0159933Y0049933D01*
X0159933Y0049388D02*
X0159388Y0049388D01*
X0159933Y0048390D02*
X0158390Y0048390D01*
X0157475Y0047391D02*
X0159933Y0047391D01*
X0159933Y0046393D02*
X0158473Y0046393D01*
X0159472Y0045394D02*
X0159933Y0045394D01*
X0157933Y0039933D02*
X0157933Y0034933D01*
X0160433Y0037433D01*
X0157933Y0039933D01*
X0157933Y0039403D02*
X0158463Y0039403D01*
X0157933Y0038405D02*
X0159461Y0038405D01*
X0160406Y0037406D02*
X0157933Y0037406D01*
X0157933Y0036408D02*
X0159408Y0036408D01*
X0158409Y0035409D02*
X0157933Y0035409D01*
D12*
X0184008Y0027717D02*
X0191114Y0027717D01*
X0191114Y0038717D01*
X0191114Y0027717D01*
X0130291Y0051645D02*
X0129018Y0050371D01*
X0129018Y0052919D01*
X0128699Y0053237D01*
X0128062Y0053237D01*
X0127425Y0052600D01*
X0127425Y0051963D01*
X0126616Y0051154D02*
X0126934Y0050835D01*
X0126934Y0050198D01*
X0127571Y0050198D01*
X0127889Y0049880D01*
X0127889Y0049243D01*
X0127253Y0048606D01*
X0126616Y0048606D01*
X0126124Y0047478D02*
X0125169Y0048433D01*
X0124532Y0048433D01*
X0123895Y0047796D01*
X0124532Y0047160D02*
X0125488Y0048115D01*
X0126124Y0047478D02*
X0125169Y0046523D01*
X0124532Y0046523D01*
X0124532Y0047160D01*
X0122767Y0046668D02*
X0121812Y0045713D01*
X0121812Y0045076D01*
X0122449Y0044439D01*
X0123086Y0044439D01*
X0124041Y0045394D01*
X0124359Y0045076D02*
X0122767Y0046668D01*
X0124359Y0045076D02*
X0124359Y0044439D01*
X0124041Y0044121D01*
X0121639Y0042993D02*
X0121002Y0042356D01*
X0120365Y0042356D01*
X0119728Y0042993D01*
X0119728Y0043629D01*
X0120365Y0044266D01*
X0121002Y0044266D01*
X0121321Y0043948D01*
X0120047Y0042674D01*
X0119874Y0041227D02*
X0117963Y0043138D01*
X0117963Y0041864D01*
X0116689Y0041864D01*
X0118600Y0039954D01*
X0117154Y0038507D02*
X0115243Y0040418D01*
X0114606Y0039781D02*
X0115880Y0041055D01*
X0114433Y0038334D02*
X0115707Y0037060D01*
X0114752Y0038016D02*
X0113478Y0036742D01*
X0113159Y0037060D02*
X0113159Y0038334D01*
X0114433Y0038334D01*
X0113159Y0037060D02*
X0114433Y0035787D01*
X0125342Y0049880D02*
X0125342Y0050517D01*
X0125979Y0051154D01*
X0126616Y0051154D01*
X0126934Y0050198D02*
X0126616Y0049880D01*
X0130464Y0053092D02*
X0130464Y0053728D01*
X0131101Y0054365D01*
X0131738Y0054365D01*
X0132056Y0054047D01*
X0132056Y0053410D01*
X0131420Y0052773D01*
X0130783Y0052773D01*
X0130464Y0053092D01*
X0130464Y0053728D02*
X0129827Y0053728D01*
X0129509Y0054047D01*
X0129509Y0054684D01*
X0130146Y0055321D01*
X0130783Y0055321D01*
X0131101Y0055002D01*
X0131101Y0054365D01*
X0132548Y0055175D02*
X0133503Y0056130D01*
X0133503Y0056767D01*
X0132866Y0057404D01*
X0132229Y0057404D01*
X0131274Y0056449D01*
X0133185Y0054538D01*
X0184008Y0067217D02*
X0191114Y0067217D01*
X0191114Y0056217D01*
X0191114Y0067217D01*
X0029858Y0067228D02*
X0022752Y0067228D01*
X0022752Y0056228D01*
X0022752Y0067228D01*
X0022752Y0056228D01*
X0022752Y0067228D01*
X0029858Y0067228D01*
X0022752Y0038728D02*
X0022752Y0027728D01*
X0029858Y0027728D01*
X0022752Y0027728D01*
X0022752Y0038728D01*
X0022752Y0027728D01*
X0022752Y0038728D01*
D13*
X0039926Y0041725D02*
X0039926Y0053068D01*
D14*
X0175191Y0047414D02*
X0183665Y0047414D01*
X0179428Y0043177D02*
X0179428Y0051651D01*
D15*
X0074433Y0048433D02*
X0068433Y0048433D01*
X0068433Y0058433D02*
X0074433Y0058433D01*
X0074433Y0068433D02*
X0068433Y0068433D01*
D16*
X0109939Y0060937D02*
X0137537Y0060937D01*
X0137537Y0034737D01*
X0136140Y0033339D01*
X0109939Y0033339D01*
X0109939Y0060937D01*
X0133124Y0036338D02*
X0133126Y0036413D01*
X0133132Y0036487D01*
X0133142Y0036561D01*
X0133155Y0036634D01*
X0133173Y0036707D01*
X0133194Y0036778D01*
X0133219Y0036849D01*
X0133248Y0036918D01*
X0133281Y0036985D01*
X0133317Y0037050D01*
X0133356Y0037114D01*
X0133398Y0037175D01*
X0133444Y0037234D01*
X0133493Y0037291D01*
X0133545Y0037344D01*
X0133599Y0037395D01*
X0133656Y0037444D01*
X0133716Y0037488D01*
X0133778Y0037530D01*
X0133842Y0037569D01*
X0133908Y0037604D01*
X0133975Y0037635D01*
X0134045Y0037663D01*
X0134115Y0037687D01*
X0134187Y0037708D01*
X0134260Y0037724D01*
X0134333Y0037737D01*
X0134408Y0037746D01*
X0134482Y0037751D01*
X0134557Y0037752D01*
X0134631Y0037749D01*
X0134706Y0037742D01*
X0134779Y0037731D01*
X0134853Y0037717D01*
X0134925Y0037698D01*
X0134996Y0037676D01*
X0135066Y0037650D01*
X0135135Y0037620D01*
X0135201Y0037587D01*
X0135266Y0037550D01*
X0135329Y0037510D01*
X0135390Y0037466D01*
X0135448Y0037420D01*
X0135504Y0037370D01*
X0135557Y0037318D01*
X0135608Y0037263D01*
X0135655Y0037205D01*
X0135699Y0037145D01*
X0135740Y0037082D01*
X0135778Y0037018D01*
X0135812Y0036952D01*
X0135843Y0036883D01*
X0135870Y0036814D01*
X0135893Y0036743D01*
X0135912Y0036671D01*
X0135928Y0036598D01*
X0135940Y0036524D01*
X0135948Y0036450D01*
X0135952Y0036375D01*
X0135952Y0036301D01*
X0135948Y0036226D01*
X0135940Y0036152D01*
X0135928Y0036078D01*
X0135912Y0036005D01*
X0135893Y0035933D01*
X0135870Y0035862D01*
X0135843Y0035793D01*
X0135812Y0035724D01*
X0135778Y0035658D01*
X0135740Y0035594D01*
X0135699Y0035531D01*
X0135655Y0035471D01*
X0135608Y0035413D01*
X0135557Y0035358D01*
X0135504Y0035306D01*
X0135448Y0035256D01*
X0135390Y0035210D01*
X0135329Y0035166D01*
X0135266Y0035126D01*
X0135201Y0035089D01*
X0135135Y0035056D01*
X0135066Y0035026D01*
X0134996Y0035000D01*
X0134925Y0034978D01*
X0134853Y0034959D01*
X0134779Y0034945D01*
X0134706Y0034934D01*
X0134631Y0034927D01*
X0134557Y0034924D01*
X0134482Y0034925D01*
X0134408Y0034930D01*
X0134333Y0034939D01*
X0134260Y0034952D01*
X0134187Y0034968D01*
X0134115Y0034989D01*
X0134045Y0035013D01*
X0133975Y0035041D01*
X0133908Y0035072D01*
X0133842Y0035107D01*
X0133778Y0035146D01*
X0133716Y0035188D01*
X0133656Y0035232D01*
X0133599Y0035281D01*
X0133545Y0035332D01*
X0133493Y0035385D01*
X0133444Y0035442D01*
X0133398Y0035501D01*
X0133356Y0035562D01*
X0133317Y0035626D01*
X0133281Y0035691D01*
X0133248Y0035758D01*
X0133219Y0035827D01*
X0133194Y0035898D01*
X0133173Y0035969D01*
X0133155Y0036042D01*
X0133142Y0036115D01*
X0133132Y0036189D01*
X0133126Y0036263D01*
X0133124Y0036338D01*
D17*
X0147613Y0045706D02*
X0153124Y0045706D01*
X0153124Y0059879D02*
X0147613Y0059879D01*
D18*
X0098498Y0052048D02*
X0098258Y0052048D01*
X0098363Y0036448D02*
X0098603Y0036448D01*
X0150898Y0037678D02*
X0150898Y0037918D01*
D19*
X0153578Y0027478D03*
X0079933Y0039433D03*
X0066933Y0039433D03*
D20*
X0065433Y0043433D02*
X0060433Y0043433D01*
X0057933Y0045933D01*
X0057933Y0050933D01*
X0060433Y0053433D01*
X0057933Y0055933D01*
X0057933Y0060933D01*
X0060433Y0063433D01*
X0057933Y0065933D01*
X0057933Y0070933D01*
X0060433Y0073433D01*
X0065433Y0073433D01*
X0067933Y0070933D01*
X0067933Y0065933D01*
X0065433Y0063433D01*
X0067933Y0060933D01*
X0067933Y0055933D01*
X0065433Y0053433D01*
X0067933Y0050933D01*
X0067933Y0045933D01*
X0065433Y0043433D01*
X0074933Y0045933D02*
X0077433Y0043433D01*
X0082433Y0043433D01*
X0084933Y0045933D01*
X0084933Y0050933D01*
X0082433Y0053433D01*
X0084933Y0055933D01*
X0084933Y0060933D01*
X0082433Y0063433D01*
X0084933Y0065933D01*
X0084933Y0070933D01*
X0082433Y0073433D01*
X0077433Y0073433D01*
X0074933Y0070933D01*
X0074933Y0065933D01*
X0077433Y0063433D01*
X0074933Y0060933D01*
X0074933Y0055933D01*
X0077433Y0053433D01*
X0074933Y0050933D01*
X0074933Y0045933D01*
X0071293Y0034358D02*
X0066293Y0034358D01*
X0063793Y0031858D01*
X0063793Y0026858D01*
X0066293Y0024358D01*
X0071293Y0024358D01*
X0073793Y0026858D01*
X0073793Y0031858D01*
X0071293Y0034358D01*
X0094127Y0067064D02*
X0095938Y0067064D01*
X0095018Y0068284D01*
X0096038Y0067124D02*
X0096798Y0068284D01*
X0095938Y0067064D02*
X0097749Y0067064D01*
X0162433Y0059933D02*
X0162433Y0054933D01*
X0164933Y0052433D01*
X0162433Y0049933D01*
X0162433Y0044933D01*
X0164933Y0042433D01*
X0162433Y0039933D01*
X0162433Y0034933D01*
X0164933Y0032433D01*
X0169933Y0032433D01*
X0172433Y0034933D01*
X0172433Y0039933D01*
X0169933Y0042433D01*
X0172433Y0044933D01*
X0172433Y0049933D01*
X0169933Y0052433D01*
X0172433Y0054933D01*
X0172433Y0059933D01*
X0169933Y0062433D01*
X0164933Y0062433D01*
X0162433Y0059933D01*
D21*
X0103888Y0067963D03*
M02*
