G75*
%MOIN*%
%OFA0B0*%
%FSLAX25Y25*%
%IPPOS*%
%LPD*%
%AMOC8*
5,1,8,0,0,1.08239X$1,22.5*
%
%ADD10C,0.00700*%
%ADD11C,0.02300*%
%ADD12C,0.03000*%
%ADD13C,0.01100*%
%ADD14C,0.00500*%
%ADD15C,0.00600*%
D10*
X0116686Y0024490D02*
X0116686Y0028293D01*
X0119222Y0028293D02*
X0119222Y0024490D01*
X0117954Y0025758D01*
X0116686Y0024490D01*
X0120830Y0025124D02*
X0121464Y0024490D01*
X0122731Y0024490D01*
X0123365Y0025124D01*
X0123365Y0027660D01*
X0122731Y0028293D01*
X0121464Y0028293D01*
X0120830Y0027660D01*
X0124973Y0027660D02*
X0125607Y0028293D01*
X0126875Y0028293D01*
X0127509Y0027660D01*
X0127509Y0027026D01*
X0126875Y0026392D01*
X0124973Y0026392D01*
X0124973Y0025124D02*
X0124973Y0027660D01*
X0129117Y0028293D02*
X0130385Y0027660D01*
X0131652Y0026392D01*
X0129751Y0026392D01*
X0129117Y0025758D01*
X0129117Y0025124D01*
X0129751Y0024490D01*
X0131019Y0024490D01*
X0131652Y0025124D01*
X0131652Y0026392D01*
X0133260Y0028293D02*
X0134528Y0027026D01*
X0135796Y0028293D01*
X0135796Y0024490D01*
X0133260Y0024490D02*
X0133260Y0028293D01*
X0137404Y0028293D02*
X0139940Y0028293D01*
X0139940Y0024490D01*
X0141548Y0024490D02*
X0142815Y0025758D01*
X0142181Y0025758D02*
X0144083Y0025758D01*
X0142181Y0025758D02*
X0141548Y0026392D01*
X0141548Y0027660D01*
X0142181Y0028293D01*
X0144083Y0028293D01*
X0144083Y0024490D01*
X0139940Y0026392D02*
X0138672Y0026392D01*
X0127509Y0025124D02*
X0126875Y0024490D01*
X0125607Y0024490D01*
X0124973Y0025124D01*
D11*
X0179438Y0043177D02*
X0179438Y0051651D01*
X0175202Y0047414D02*
X0183675Y0047414D01*
D12*
X0039940Y0053068D02*
X0039940Y0041725D01*
D13*
X0049983Y0027998D02*
X0053920Y0027998D01*
X0055888Y0029966D01*
X0053920Y0031935D01*
X0049983Y0031935D01*
X0052936Y0031935D02*
X0052936Y0027998D01*
X0052936Y0034444D02*
X0052936Y0038380D01*
X0053920Y0038380D02*
X0049983Y0038380D01*
X0053920Y0038380D02*
X0055888Y0036412D01*
X0053920Y0034444D01*
X0049983Y0034444D01*
X0050967Y0040889D02*
X0052936Y0040889D01*
X0053920Y0041873D01*
X0053920Y0044826D01*
X0055888Y0044826D02*
X0049983Y0044826D01*
X0049983Y0041873D01*
X0050967Y0040889D01*
X0050967Y0047335D02*
X0049983Y0048319D01*
X0049983Y0051271D01*
X0053920Y0051271D01*
X0053920Y0053780D02*
X0053920Y0054764D01*
X0049983Y0054764D01*
X0049983Y0053780D02*
X0049983Y0055748D01*
X0049983Y0058077D02*
X0053920Y0058077D01*
X0053920Y0061030D01*
X0052936Y0062014D01*
X0049983Y0062014D01*
X0050967Y0064523D02*
X0049983Y0065507D01*
X0049983Y0067475D01*
X0050967Y0068459D01*
X0052936Y0068459D01*
X0053920Y0067475D01*
X0053920Y0065507D01*
X0052936Y0064523D01*
X0050967Y0064523D01*
X0055888Y0054764D02*
X0056872Y0054764D01*
X0053920Y0047335D02*
X0050967Y0047335D01*
D14*
X0093672Y0075052D02*
X0152727Y0075052D01*
X0145700Y0062493D02*
X0145700Y0042493D01*
X0145728Y0042279D01*
X0145751Y0042064D01*
X0145768Y0041848D01*
X0145780Y0041632D01*
X0145787Y0041416D01*
X0145789Y0041200D01*
X0145785Y0040983D01*
X0145776Y0040767D01*
X0145762Y0040552D01*
X0145742Y0040336D01*
X0145718Y0040121D01*
X0145687Y0039907D01*
X0145652Y0039694D01*
X0145612Y0039481D01*
X0145566Y0039270D01*
X0145515Y0039060D01*
X0145459Y0038851D01*
X0145398Y0038643D01*
X0145332Y0038438D01*
X0145261Y0038233D01*
X0145185Y0038031D01*
X0145104Y0037830D01*
X0145018Y0037632D01*
X0144927Y0037436D01*
X0144831Y0037242D01*
X0144731Y0037050D01*
X0144626Y0036861D01*
X0144517Y0036674D01*
X0144403Y0036491D01*
X0144284Y0036310D01*
X0144161Y0036132D01*
X0144034Y0035957D01*
X0143903Y0035785D01*
X0143767Y0035617D01*
X0143627Y0035452D01*
X0143484Y0035290D01*
X0143336Y0035132D01*
X0143185Y0034978D01*
X0143030Y0034827D01*
X0142871Y0034680D01*
X0142709Y0034537D01*
X0142543Y0034398D01*
X0142374Y0034264D01*
X0142201Y0034133D01*
X0142026Y0034007D01*
X0141847Y0033885D01*
X0141666Y0033767D01*
X0141481Y0033654D01*
X0141294Y0033545D01*
X0141105Y0033441D01*
X0140913Y0033342D01*
X0140718Y0033247D01*
X0140521Y0033158D01*
X0140323Y0033073D01*
X0140122Y0032993D01*
X0139919Y0032918D01*
X0139714Y0032847D01*
X0139508Y0032782D01*
X0139300Y0032722D01*
X0139091Y0032667D01*
X0138881Y0032617D01*
X0138669Y0032573D01*
X0138456Y0032533D01*
X0138243Y0032499D01*
X0138029Y0032470D01*
X0137814Y0032446D01*
X0137598Y0032428D01*
X0137382Y0032415D01*
X0137166Y0032407D01*
X0136950Y0032404D01*
X0136734Y0032407D01*
X0136518Y0032415D01*
X0136302Y0032428D01*
X0136086Y0032446D01*
X0135871Y0032470D01*
X0135657Y0032499D01*
X0135444Y0032533D01*
X0135231Y0032573D01*
X0135019Y0032617D01*
X0134809Y0032667D01*
X0134600Y0032722D01*
X0134392Y0032782D01*
X0134186Y0032847D01*
X0133981Y0032918D01*
X0133778Y0032993D01*
X0133577Y0033073D01*
X0133379Y0033158D01*
X0133182Y0033247D01*
X0132987Y0033342D01*
X0132795Y0033441D01*
X0132606Y0033545D01*
X0132419Y0033654D01*
X0132234Y0033767D01*
X0132053Y0033885D01*
X0131874Y0034007D01*
X0131699Y0034133D01*
X0131526Y0034264D01*
X0131357Y0034398D01*
X0131191Y0034537D01*
X0131029Y0034680D01*
X0130870Y0034827D01*
X0130715Y0034978D01*
X0130564Y0035132D01*
X0130416Y0035290D01*
X0130273Y0035452D01*
X0130133Y0035617D01*
X0129997Y0035785D01*
X0129866Y0035957D01*
X0129739Y0036132D01*
X0129616Y0036310D01*
X0129497Y0036491D01*
X0129383Y0036674D01*
X0129274Y0036861D01*
X0129169Y0037050D01*
X0129069Y0037242D01*
X0128973Y0037436D01*
X0128882Y0037632D01*
X0128796Y0037830D01*
X0128715Y0038031D01*
X0128639Y0038233D01*
X0128568Y0038438D01*
X0128502Y0038643D01*
X0128441Y0038851D01*
X0128385Y0039060D01*
X0128334Y0039270D01*
X0128288Y0039481D01*
X0128248Y0039694D01*
X0128213Y0039907D01*
X0128182Y0040121D01*
X0128158Y0040336D01*
X0128138Y0040552D01*
X0128124Y0040767D01*
X0128115Y0040983D01*
X0128111Y0041200D01*
X0128113Y0041416D01*
X0128120Y0041632D01*
X0128132Y0041848D01*
X0128149Y0042064D01*
X0128172Y0042279D01*
X0128200Y0042493D01*
X0128200Y0062493D01*
X0128203Y0062706D01*
X0128210Y0062919D01*
X0128223Y0063132D01*
X0128241Y0063344D01*
X0128265Y0063556D01*
X0128293Y0063767D01*
X0128327Y0063977D01*
X0128366Y0064187D01*
X0128409Y0064396D01*
X0128458Y0064603D01*
X0128512Y0064809D01*
X0128571Y0065014D01*
X0128635Y0065217D01*
X0128704Y0065419D01*
X0128777Y0065619D01*
X0128856Y0065817D01*
X0128939Y0066013D01*
X0129027Y0066207D01*
X0129120Y0066399D01*
X0129218Y0066588D01*
X0129320Y0066775D01*
X0129426Y0066960D01*
X0129537Y0067142D01*
X0129653Y0067321D01*
X0129772Y0067497D01*
X0129896Y0067671D01*
X0130024Y0067841D01*
X0130157Y0068008D01*
X0130293Y0068172D01*
X0130433Y0068332D01*
X0130577Y0068489D01*
X0130725Y0068642D01*
X0130877Y0068792D01*
X0131032Y0068938D01*
X0131191Y0069080D01*
X0131353Y0069219D01*
X0131518Y0069353D01*
X0131687Y0069483D01*
X0131859Y0069609D01*
X0132034Y0069731D01*
X0132211Y0069849D01*
X0132392Y0069962D01*
X0132575Y0070071D01*
X0132761Y0070175D01*
X0132949Y0070275D01*
X0133140Y0070370D01*
X0133333Y0070460D01*
X0133528Y0070546D01*
X0133725Y0070627D01*
X0133924Y0070703D01*
X0134125Y0070774D01*
X0134327Y0070841D01*
X0134531Y0070902D01*
X0134737Y0070958D01*
X0134944Y0071010D01*
X0135152Y0071056D01*
X0135361Y0071097D01*
X0135571Y0071134D01*
X0135781Y0071165D01*
X0135993Y0071191D01*
X0136205Y0071211D01*
X0136418Y0071227D01*
X0136630Y0071237D01*
X0136843Y0071242D01*
X0137057Y0071242D01*
X0137270Y0071237D01*
X0137482Y0071227D01*
X0137695Y0071211D01*
X0137907Y0071191D01*
X0138119Y0071165D01*
X0138329Y0071134D01*
X0138539Y0071097D01*
X0138748Y0071056D01*
X0138956Y0071010D01*
X0139163Y0070958D01*
X0139369Y0070902D01*
X0139573Y0070841D01*
X0139775Y0070774D01*
X0139976Y0070703D01*
X0140175Y0070627D01*
X0140372Y0070546D01*
X0140567Y0070460D01*
X0140760Y0070370D01*
X0140951Y0070275D01*
X0141139Y0070175D01*
X0141325Y0070071D01*
X0141508Y0069962D01*
X0141689Y0069849D01*
X0141866Y0069731D01*
X0142041Y0069609D01*
X0142213Y0069483D01*
X0142382Y0069353D01*
X0142547Y0069219D01*
X0142709Y0069080D01*
X0142868Y0068938D01*
X0143023Y0068792D01*
X0143175Y0068642D01*
X0143323Y0068489D01*
X0143467Y0068332D01*
X0143607Y0068172D01*
X0143743Y0068008D01*
X0143876Y0067841D01*
X0144004Y0067671D01*
X0144128Y0067497D01*
X0144247Y0067321D01*
X0144363Y0067142D01*
X0144474Y0066960D01*
X0144580Y0066775D01*
X0144682Y0066588D01*
X0144780Y0066399D01*
X0144873Y0066207D01*
X0144961Y0066013D01*
X0145044Y0065817D01*
X0145123Y0065619D01*
X0145196Y0065419D01*
X0145265Y0065217D01*
X0145329Y0065014D01*
X0145388Y0064809D01*
X0145442Y0064603D01*
X0145491Y0064396D01*
X0145534Y0064187D01*
X0145573Y0063977D01*
X0145607Y0063767D01*
X0145635Y0063556D01*
X0145659Y0063344D01*
X0145677Y0063132D01*
X0145690Y0062919D01*
X0145697Y0062706D01*
X0145700Y0062493D01*
X0152727Y0019934D02*
X0093672Y0019934D01*
D15*
X0097511Y0022793D02*
X0098078Y0022793D01*
X0098078Y0023360D01*
X0097511Y0023360D01*
X0097511Y0022793D01*
X0099399Y0022793D02*
X0099966Y0023360D01*
X0099966Y0025628D01*
X0099399Y0025061D02*
X0100534Y0025061D01*
X0101948Y0024494D02*
X0101948Y0022793D01*
X0104217Y0022793D02*
X0104217Y0025061D01*
X0102515Y0025061D01*
X0101948Y0024494D01*
X0105631Y0024494D02*
X0107900Y0024494D01*
X0107900Y0025061D02*
X0106766Y0026196D01*
X0105631Y0025061D01*
X0105631Y0022793D01*
X0107900Y0022793D02*
X0107900Y0025061D01*
X0106766Y0030293D02*
X0105631Y0031427D01*
X0105631Y0033696D01*
X0104217Y0033128D02*
X0104217Y0030860D01*
X0103650Y0030293D01*
X0102515Y0030293D01*
X0101948Y0030860D01*
X0100534Y0030860D02*
X0099966Y0030293D01*
X0098832Y0030293D01*
X0098265Y0030860D01*
X0100534Y0030860D02*
X0100534Y0033128D01*
X0099966Y0033696D01*
X0098832Y0033696D01*
X0098265Y0033128D01*
X0101948Y0033128D02*
X0102515Y0033696D01*
X0103650Y0033696D01*
X0104217Y0033128D01*
X0107900Y0033696D02*
X0107900Y0031427D01*
X0106766Y0030293D01*
X0107333Y0037793D02*
X0106198Y0037793D01*
X0105631Y0038360D01*
X0105631Y0039494D01*
X0106766Y0039494D01*
X0107900Y0038360D02*
X0107333Y0037793D01*
X0107900Y0038360D02*
X0107900Y0040628D01*
X0107333Y0041196D01*
X0106198Y0041196D01*
X0105631Y0040628D01*
X0104217Y0041196D02*
X0101948Y0037793D01*
X0101948Y0041196D01*
X0100534Y0041196D02*
X0098832Y0041196D01*
X0098265Y0040628D01*
X0098265Y0038360D01*
X0098832Y0037793D01*
X0100534Y0037793D01*
X0100534Y0041196D01*
X0104217Y0041196D02*
X0104217Y0037793D01*
M02*
