G04 (created by PCBNEW (2013-07-07 BZR 4022)-stable) date 11/9/2013 7:35:54 PM*
%MOIN*%
G04 Gerber Fmt 3.4, Leading zero omitted, Abs format*
%FSLAX34Y34*%
G01*
G70*
G90*
G04 APERTURE LIST*
%ADD10C,0.006*%
%ADD11C,0.0984252*%
%ADD12C,0.141732*%
%ADD13R,0.0669291X0.0669291*%
%ADD14C,0.0669291*%
%ADD15C,0.03*%
%ADD16C,0.035*%
%ADD17C,0.012*%
%ADD18C,0.02*%
%ADD19C,0.01*%
%ADD20C,0.025*%
G04 APERTURE END LIST*
G54D10*
G54D11*
X40250Y6750D03*
X31750Y6750D03*
X40250Y35250D03*
X31750Y35250D03*
G54D12*
X6250Y29750D03*
X23750Y12250D03*
X6250Y12250D03*
X23750Y29750D03*
G54D13*
X9500Y17000D03*
G54D14*
X10500Y17000D03*
X9500Y16000D03*
X10500Y16000D03*
X9500Y15000D03*
X10500Y15000D03*
G54D15*
X15425Y19750D03*
X9450Y18125D03*
X8700Y16650D03*
X37850Y15500D03*
X36500Y32900D03*
X38000Y16000D03*
X36000Y32550D03*
X38350Y15300D03*
X36000Y32050D03*
X34950Y11600D03*
X35600Y15900D03*
X37800Y26250D03*
X37900Y16450D03*
X17200Y23675D03*
X18400Y8550D03*
X18400Y9050D03*
X15700Y22650D03*
X20775Y24000D03*
X18400Y9550D03*
X10850Y23000D03*
X13200Y21800D03*
X9650Y23300D03*
X14600Y20450D03*
X14400Y19300D03*
X11150Y22650D03*
X14550Y21400D03*
X11000Y23400D03*
X5350Y19700D03*
X7800Y23250D03*
X35550Y13350D03*
X36600Y13350D03*
X37000Y32150D03*
X21750Y17250D03*
X13250Y22700D03*
X21300Y17250D03*
X15100Y20050D03*
X36550Y16050D03*
X34200Y17300D03*
X38600Y21250D03*
G54D16*
X18750Y7200D03*
X25200Y10800D03*
X28650Y17150D03*
X28650Y24650D03*
X25400Y31100D03*
X18700Y34850D03*
X4500Y30750D03*
X1200Y24900D03*
X1050Y17450D03*
X5200Y10350D03*
X11300Y7300D03*
X11450Y34900D03*
X20550Y11500D03*
X32900Y8800D03*
X39100Y7550D03*
G54D15*
X10550Y28650D03*
X19750Y22000D03*
X20250Y22000D03*
X19750Y20000D03*
X20250Y20000D03*
X19750Y20500D03*
X20250Y20500D03*
X19750Y21000D03*
X20250Y21000D03*
X19750Y21500D03*
X20250Y21500D03*
X14750Y16000D03*
X15250Y16000D03*
X14750Y15500D03*
X15250Y15500D03*
X14750Y15000D03*
X15250Y15000D03*
X14750Y16500D03*
X15250Y16500D03*
X14750Y17000D03*
X15250Y17000D03*
X9750Y21000D03*
X10250Y21000D03*
X9750Y20500D03*
X10250Y20500D03*
X9750Y20000D03*
X10250Y20000D03*
X9750Y21500D03*
X10250Y21500D03*
X10250Y22000D03*
X19800Y7100D03*
X27950Y23500D03*
X2000Y18500D03*
X22800Y22800D03*
X10050Y30100D03*
X21200Y16550D03*
X11400Y15400D03*
X16850Y9300D03*
X19100Y8050D03*
X12950Y20150D03*
X22550Y19300D03*
X9750Y22000D03*
X15500Y21000D03*
X12700Y23150D03*
X16550Y24300D03*
X20050Y27800D03*
X16400Y27850D03*
X8200Y23700D03*
X16350Y22700D03*
X10200Y14000D03*
X12150Y14750D03*
X18900Y19500D03*
X18950Y16800D03*
X17950Y16800D03*
X38650Y13400D03*
X35600Y15400D03*
X4200Y20000D03*
X4600Y21500D03*
X6150Y20000D03*
X6550Y22500D03*
X6550Y22000D03*
X6600Y20000D03*
X2550Y22000D03*
X1600Y21800D03*
X4950Y21750D03*
X4650Y20000D03*
X3700Y20000D03*
X4200Y21250D03*
X3800Y21100D03*
X3250Y20000D03*
X24450Y18400D03*
X24000Y16900D03*
X13500Y17950D03*
X11750Y17500D03*
X12450Y21450D03*
X7500Y22900D03*
X12550Y21000D03*
X7250Y22550D03*
X5700Y18950D03*
X8700Y18400D03*
X5700Y19450D03*
X6900Y22250D03*
X5700Y19950D03*
X6550Y23000D03*
X7550Y19550D03*
X16450Y12100D03*
X17450Y21050D03*
X18500Y22900D03*
X22050Y23200D03*
X17450Y20150D03*
X22700Y20250D03*
X23600Y22000D03*
X11500Y17150D03*
X13850Y17700D03*
X24050Y22000D03*
X23200Y20250D03*
X24500Y22000D03*
X23700Y20250D03*
X26700Y20900D03*
X27900Y21000D03*
X18500Y19300D03*
X11450Y14900D03*
X17500Y17500D03*
X18950Y17250D03*
X17850Y14200D03*
X15500Y8050D03*
X13200Y8300D03*
X18450Y14850D03*
X12350Y13750D03*
X18350Y15350D03*
X11200Y14100D03*
X18150Y16100D03*
X7550Y20000D03*
X18450Y13700D03*
X20450Y23650D03*
X21100Y23250D03*
X17450Y20600D03*
X18850Y22650D03*
X22500Y23200D03*
X17450Y19700D03*
X27200Y20050D03*
X28100Y20050D03*
X24000Y17350D03*
X24000Y18400D03*
X18000Y17500D03*
X11400Y16000D03*
X11650Y14100D03*
X18750Y15850D03*
X14500Y8050D03*
X18250Y14400D03*
X12775Y22700D03*
X13950Y23425D03*
X19625Y16850D03*
X22500Y22000D03*
X7450Y24000D03*
X16950Y20200D03*
X14550Y11900D03*
X16000Y11650D03*
G54D17*
X15425Y19750D02*
X14525Y18850D01*
X14525Y18850D02*
X11725Y18850D01*
X11725Y18850D02*
X11000Y18125D01*
X11000Y18125D02*
X9450Y18125D01*
X8700Y16650D02*
X8725Y16625D01*
X8725Y16625D02*
X8725Y15775D01*
X8725Y15775D02*
X9500Y15000D01*
X37850Y15500D02*
X37950Y15600D01*
X37950Y15600D02*
X38150Y15600D01*
X38150Y15600D02*
X38200Y15650D01*
X37350Y18040D02*
X37350Y18600D01*
X37350Y18600D02*
X39600Y20850D01*
X39600Y20850D02*
X39600Y30600D01*
X39600Y30600D02*
X37400Y32800D01*
X37400Y32800D02*
X36600Y32800D01*
X36600Y32800D02*
X36500Y32900D01*
X37340Y18040D02*
X37350Y18040D01*
X37350Y18040D02*
X37340Y18040D01*
X38350Y17040D02*
X37350Y18040D01*
X38350Y15650D02*
X38550Y15850D01*
X38550Y15850D02*
X38550Y16840D01*
X38550Y16840D02*
X38350Y17040D01*
X38200Y15650D02*
X38350Y15650D01*
X37100Y17850D02*
X37100Y18750D01*
X37100Y18750D02*
X39350Y21000D01*
X39350Y21000D02*
X39350Y30450D01*
X39350Y30450D02*
X37250Y32550D01*
X37250Y32550D02*
X36000Y32550D01*
X38000Y16950D02*
X37100Y17850D01*
X38109Y16000D02*
X38300Y16190D01*
X38300Y16190D02*
X38300Y16650D01*
X38300Y16650D02*
X38000Y16950D01*
X38000Y16000D02*
X38109Y16000D01*
X37600Y18200D02*
X37600Y18450D01*
X37600Y18450D02*
X39850Y20700D01*
X39850Y20700D02*
X39850Y30750D01*
X39850Y30750D02*
X37350Y33250D01*
X37350Y33250D02*
X36150Y33250D01*
X36150Y33250D02*
X35600Y32700D01*
X35600Y32700D02*
X35600Y32450D01*
X35600Y32450D02*
X36000Y32050D01*
X37590Y18209D02*
X37600Y18200D01*
X38800Y15750D02*
X38800Y16990D01*
X38800Y16990D02*
X37590Y18200D01*
X37590Y18200D02*
X37590Y18209D01*
X38350Y15300D02*
X38800Y15750D01*
X19200Y9350D02*
X19200Y9450D01*
X20550Y13500D02*
X21700Y13500D01*
X19200Y12150D02*
X20550Y13500D01*
X19200Y10650D02*
X19200Y9450D01*
X23560Y15950D02*
X23560Y15260D01*
X17200Y23675D02*
X17325Y23550D01*
X17325Y23550D02*
X19425Y23550D01*
X19425Y23550D02*
X20500Y24625D01*
X20500Y24625D02*
X21075Y24625D01*
X21075Y24625D02*
X21575Y24125D01*
X21575Y24125D02*
X22925Y24125D01*
X22925Y24125D02*
X24400Y22650D01*
X24400Y22650D02*
X24725Y22650D01*
X24725Y22650D02*
X25100Y22275D01*
X25100Y22275D02*
X25100Y21020D01*
X23560Y18240D02*
X23560Y15950D01*
X23560Y19220D02*
X25100Y20760D01*
X25100Y20760D02*
X25100Y21020D01*
X23560Y18240D02*
X23560Y19220D01*
X23560Y15260D02*
X21800Y13500D01*
X21800Y13500D02*
X21700Y13500D01*
X19200Y11250D02*
X19200Y10650D01*
X19200Y11250D02*
X19200Y12150D01*
X18400Y8550D02*
X19200Y9350D01*
X18400Y9050D02*
X18404Y9045D01*
X19550Y23300D02*
X16650Y23300D01*
X20625Y24375D02*
X19550Y23300D01*
X20950Y24375D02*
X20625Y24375D01*
X21450Y23875D02*
X20950Y24375D01*
X22800Y23875D02*
X21450Y23875D01*
X24275Y22400D02*
X22800Y23875D01*
X24600Y22400D02*
X24275Y22400D01*
X24850Y22150D02*
X24600Y22400D01*
X24850Y21360D02*
X24850Y22150D01*
X23300Y18760D02*
X23300Y15900D01*
X24850Y21360D02*
X24850Y21120D01*
X24850Y20890D02*
X23300Y19340D01*
X23300Y19340D02*
X23300Y18760D01*
X24850Y21120D02*
X24850Y20890D01*
X23300Y15400D02*
X21650Y13750D01*
X21650Y13750D02*
X21150Y13750D01*
X23300Y15900D02*
X23300Y15400D01*
X18905Y9545D02*
X18404Y9045D01*
X20450Y13750D02*
X18905Y12205D01*
X18905Y12205D02*
X18905Y9545D01*
X21150Y13750D02*
X20450Y13750D01*
X16350Y23300D02*
X15700Y22650D01*
X16650Y23300D02*
X16350Y23300D01*
X23000Y15500D02*
X23000Y19400D01*
X23225Y23050D02*
X22900Y23375D01*
X23225Y21275D02*
X23225Y23050D01*
X22355Y20405D02*
X23225Y21275D01*
X22675Y23600D02*
X22900Y23375D01*
X21175Y23600D02*
X22675Y23600D01*
X20775Y24000D02*
X21175Y23600D01*
X22355Y20405D02*
X22355Y20045D01*
X23000Y15500D02*
X21500Y14000D01*
X21500Y14000D02*
X21000Y14000D01*
X18650Y11300D02*
X18650Y10550D01*
X22355Y20045D02*
X23000Y19400D01*
X18450Y9550D02*
X18650Y9750D01*
X18650Y9750D02*
X18650Y10550D01*
X18650Y12350D02*
X20300Y14000D01*
X20300Y14000D02*
X21000Y14000D01*
X18650Y11300D02*
X18650Y12350D01*
X18400Y9550D02*
X18450Y9550D01*
X8900Y24050D02*
X9650Y23300D01*
X8360Y24050D02*
X8900Y24050D01*
X8110Y24300D02*
X8360Y24050D01*
X7900Y24300D02*
X8110Y24300D01*
X7800Y24200D02*
X7900Y24300D01*
X7800Y23850D02*
X7800Y24200D01*
X7600Y23650D02*
X7800Y23850D01*
X8750Y17000D02*
X9500Y17000D01*
X7150Y18600D02*
X8750Y17000D01*
X5550Y18600D02*
X7150Y18600D01*
X5350Y18800D02*
X5550Y18600D01*
X5350Y19150D02*
X5350Y18800D01*
X5000Y19500D02*
X5350Y19150D01*
X5000Y20200D02*
X5000Y19500D01*
X5459Y20659D02*
X5000Y20200D01*
X5459Y22809D02*
X5459Y20659D01*
X6300Y23650D02*
X5459Y22809D01*
X6950Y23650D02*
X6300Y23650D01*
X6950Y23650D02*
X7600Y23650D01*
X11350Y23000D02*
X10850Y23000D01*
X11500Y22850D02*
X11350Y23000D01*
X12900Y22100D02*
X12800Y22100D01*
X13200Y21800D02*
X12900Y22100D01*
X11600Y22100D02*
X11500Y22200D01*
X11500Y22200D02*
X11500Y22850D01*
X12800Y22100D02*
X11600Y22100D01*
X12550Y21850D02*
X12300Y21850D01*
X13000Y21400D02*
X12550Y21850D01*
X14050Y21400D02*
X13000Y21400D01*
X14600Y20850D02*
X14050Y21400D01*
X14600Y20450D02*
X14600Y20850D01*
X14400Y19300D02*
X14600Y19500D01*
X14600Y19500D02*
X14600Y20450D01*
X11400Y21850D02*
X11150Y22100D01*
X11150Y22100D02*
X11150Y22650D01*
X12300Y21850D02*
X11400Y21850D01*
X14550Y21400D02*
X13600Y22350D01*
X13600Y22350D02*
X12950Y22350D01*
X11740Y22959D02*
X11300Y23400D01*
X11300Y23400D02*
X11000Y23400D01*
X11850Y22350D02*
X11740Y22459D01*
X11740Y22459D02*
X11740Y22959D01*
X12950Y22350D02*
X11850Y22350D01*
X5350Y19700D02*
X5350Y20150D01*
X5350Y20150D02*
X5700Y20500D01*
X5700Y20500D02*
X5700Y22650D01*
X5700Y22650D02*
X6400Y23350D01*
X6400Y23350D02*
X7700Y23350D01*
X7700Y23350D02*
X7800Y23250D01*
X35550Y13350D02*
X36600Y13350D01*
X39050Y30100D02*
X37000Y32150D01*
X39050Y21100D02*
X39050Y30100D01*
X36850Y18900D02*
X39050Y21100D01*
X36850Y16750D02*
X36850Y18900D01*
X36600Y13350D02*
X36600Y14650D01*
X36850Y16300D02*
X36950Y16200D01*
X36950Y16200D02*
X36950Y15900D01*
X36950Y15900D02*
X36600Y15550D01*
X36600Y15550D02*
X36600Y14650D01*
X36850Y16750D02*
X36850Y16300D01*
X21750Y17300D02*
X21200Y17850D01*
X21750Y17250D02*
X21750Y17300D01*
X14900Y21150D02*
X14900Y21600D01*
X14900Y21600D02*
X13800Y22700D01*
X13800Y22700D02*
X13250Y22700D01*
X21200Y17850D02*
X20250Y17850D01*
X20250Y17850D02*
X19850Y18250D01*
X19850Y18250D02*
X19850Y19400D01*
X19850Y19400D02*
X19150Y20100D01*
X19150Y20100D02*
X18450Y20100D01*
X18450Y20100D02*
X17675Y19325D01*
X17669Y19319D02*
X17675Y19325D01*
X14900Y21150D02*
X14900Y21050D01*
X17050Y19575D02*
X17305Y19319D01*
X17305Y19319D02*
X17669Y19319D01*
X15639Y20350D02*
X16099Y19890D01*
X16099Y19890D02*
X16734Y19890D01*
X16734Y19890D02*
X17050Y19575D01*
X14900Y20750D02*
X15300Y20350D01*
X15300Y20350D02*
X15639Y20350D01*
X14900Y21050D02*
X14900Y20750D01*
X21300Y17250D02*
X20950Y17600D01*
X20950Y17600D02*
X20150Y17600D01*
X20150Y17600D02*
X19600Y18150D01*
X19600Y18150D02*
X19600Y19300D01*
X19600Y19300D02*
X19050Y19850D01*
X18550Y19850D02*
X19050Y19850D01*
X17775Y19075D02*
X18550Y19850D01*
X16809Y19440D02*
X17175Y19075D01*
X17175Y19075D02*
X17775Y19075D01*
X15400Y20100D02*
X15550Y20100D01*
X15550Y20100D02*
X16000Y19650D01*
X16000Y19650D02*
X16600Y19650D01*
X16600Y19650D02*
X16809Y19440D01*
X15100Y20050D02*
X15150Y20100D01*
X15150Y20100D02*
X15400Y20100D01*
X36550Y16050D02*
X35300Y17300D01*
X35300Y17300D02*
X34200Y17300D01*
X36550Y19200D02*
X38600Y21250D01*
X36550Y16050D02*
X36550Y19200D01*
G54D18*
X18700Y7250D02*
X18750Y7200D01*
X11300Y7300D02*
X18700Y7250D01*
X21939Y8979D02*
X25200Y10800D01*
X18750Y7200D02*
X21939Y8979D01*
X25200Y10800D02*
X28650Y17150D01*
X28650Y17150D02*
X28650Y24650D01*
X28650Y24650D02*
X25400Y31100D01*
X25400Y31100D02*
X18700Y34850D01*
X18700Y34850D02*
X11450Y34900D01*
X11450Y34900D02*
X4500Y30750D01*
X4500Y30750D02*
X1200Y24900D01*
X1200Y24900D02*
X1050Y17450D01*
X1050Y17450D02*
X5200Y10350D01*
X11300Y7300D02*
X5200Y10350D01*
X21939Y10110D02*
X20550Y11500D01*
X21939Y8979D02*
X21939Y10110D01*
X32900Y8800D02*
X34150Y7550D01*
X34150Y7550D02*
X39100Y7550D01*
G54D17*
X9750Y22100D02*
X8200Y23650D01*
X8200Y23650D02*
X8200Y23700D01*
X9750Y22000D02*
X9750Y22100D01*
X15500Y21850D02*
X16350Y22700D01*
X15500Y21000D02*
X15500Y21850D01*
X10500Y14300D02*
X10200Y14000D01*
X10500Y15000D02*
X10500Y14300D01*
X19000Y16800D02*
X18950Y16800D01*
X19350Y19050D02*
X19350Y17150D01*
X18900Y19500D02*
X19350Y19050D01*
X19350Y17150D02*
X19000Y16800D01*
X12550Y14750D02*
X13250Y14050D01*
X13250Y14050D02*
X15750Y14050D01*
X15750Y14050D02*
X16250Y14550D01*
X16250Y14550D02*
X16250Y15000D01*
X16250Y15000D02*
X17100Y15850D01*
X17100Y15850D02*
X17600Y15850D01*
X17600Y15850D02*
X17800Y16050D01*
X17800Y16050D02*
X17800Y16650D01*
X17800Y16650D02*
X17950Y16800D01*
X12150Y14750D02*
X12550Y14750D01*
X35600Y14000D02*
X35150Y13550D01*
X35150Y13550D02*
X35150Y13150D01*
X35150Y13150D02*
X35300Y13000D01*
X35300Y13000D02*
X36800Y13000D01*
X36800Y13000D02*
X37200Y13400D01*
X37200Y13400D02*
X38650Y13400D01*
X35600Y15400D02*
X35600Y14000D01*
X4200Y20150D02*
X4200Y20000D01*
X4400Y20350D02*
X4200Y20150D01*
X4400Y20950D02*
X4400Y20350D01*
X4550Y21100D02*
X4400Y20950D01*
X4550Y21450D02*
X4550Y21100D01*
X4600Y21500D02*
X4550Y21450D01*
X6150Y20000D02*
X6300Y20150D01*
X6300Y20150D02*
X6300Y20300D01*
X6200Y22150D02*
X6550Y22500D01*
X6200Y21850D02*
X6200Y22150D01*
X6300Y21750D02*
X6200Y21850D01*
X6300Y20300D02*
X6300Y21750D01*
X6550Y20500D02*
X6550Y22000D01*
X6550Y20050D02*
X6550Y20500D01*
X6550Y20050D02*
X6550Y20500D01*
X6600Y20000D02*
X6550Y20050D01*
X1800Y22000D02*
X2550Y22000D01*
X1600Y21800D02*
X1800Y22000D01*
X4950Y21750D02*
X4950Y21100D01*
X4950Y21100D02*
X4650Y20800D01*
X4650Y20800D02*
X4650Y20000D01*
X4150Y20450D02*
X3700Y20000D01*
X4150Y21200D02*
X4150Y20450D01*
X4200Y21250D02*
X4150Y21200D01*
X3800Y20600D02*
X3250Y20050D01*
X3250Y20050D02*
X3250Y20000D01*
X3800Y21100D02*
X3800Y20600D01*
X24450Y18400D02*
X24350Y18300D01*
X24350Y18300D02*
X24350Y17200D01*
X24350Y17200D02*
X24050Y16900D01*
X24050Y16900D02*
X24000Y16900D01*
X11750Y17700D02*
X12150Y18100D01*
X12150Y18100D02*
X13350Y18100D01*
X13350Y18100D02*
X13500Y17950D01*
X11750Y17500D02*
X11750Y17700D01*
X12150Y21150D02*
X12150Y20800D01*
X12150Y20800D02*
X12300Y20650D01*
X12300Y20650D02*
X12350Y20650D01*
X10500Y18750D02*
X10900Y18750D01*
X7600Y22800D02*
X7500Y22900D01*
X10500Y18750D02*
X8390Y18750D01*
X8390Y18750D02*
X8150Y18990D01*
X8150Y18990D02*
X8150Y19950D01*
X8150Y19950D02*
X7500Y20600D01*
X7500Y20600D02*
X7500Y22200D01*
X7500Y22200D02*
X7600Y22300D01*
X7600Y22300D02*
X7600Y22800D01*
X10900Y18750D02*
X11500Y19350D01*
X12950Y19350D02*
X11500Y19350D01*
X12450Y21450D02*
X12150Y21150D01*
X12700Y20650D02*
X12950Y20900D01*
X12950Y20900D02*
X13800Y20900D01*
X13800Y20900D02*
X13950Y20750D01*
X13950Y20750D02*
X13950Y19800D01*
X13950Y19800D02*
X13500Y19350D01*
X13500Y19350D02*
X12950Y19350D01*
X12350Y20650D02*
X12700Y20650D01*
X10900Y18400D02*
X11600Y19100D01*
X8700Y18400D02*
X9250Y18400D01*
X9700Y18400D02*
X10550Y18400D01*
X9600Y18500D02*
X9700Y18400D01*
X9350Y18500D02*
X9600Y18500D01*
X9250Y18400D02*
X9350Y18500D01*
X5700Y18950D02*
X6100Y19350D01*
X6100Y19350D02*
X6850Y19350D01*
X6850Y19350D02*
X7200Y19700D01*
X7200Y19700D02*
X7200Y22050D01*
X7200Y22050D02*
X7250Y22100D01*
X7250Y22100D02*
X7250Y22550D01*
X10550Y18400D02*
X10900Y18400D01*
X12450Y19100D02*
X11600Y19100D01*
X13650Y19100D02*
X14250Y19700D01*
X14250Y19700D02*
X14250Y20800D01*
X14250Y20800D02*
X13900Y21150D01*
X13900Y21150D02*
X12700Y21150D01*
X12700Y21150D02*
X12550Y21000D01*
X12450Y19100D02*
X13650Y19100D01*
X5700Y19450D02*
X5850Y19600D01*
X5850Y19600D02*
X6750Y19600D01*
X6750Y19600D02*
X6950Y19800D01*
X6950Y19800D02*
X6950Y22200D01*
X6950Y22200D02*
X6900Y22250D01*
X5700Y19950D02*
X5700Y20000D01*
X5700Y20000D02*
X5700Y20100D01*
X5700Y20100D02*
X6050Y20450D01*
X6050Y20450D02*
X6050Y21650D01*
X6050Y21650D02*
X5950Y21750D01*
X5950Y21750D02*
X5950Y22400D01*
X5950Y22400D02*
X6550Y23000D01*
X16450Y12300D02*
X18200Y14050D01*
X13900Y18350D02*
X13500Y18350D01*
X13500Y18350D02*
X12200Y18350D01*
X7550Y19550D02*
X7550Y19350D01*
X7550Y18600D02*
X7550Y19350D01*
X8300Y17850D02*
X7550Y18600D01*
X8450Y17700D02*
X8300Y17850D01*
X11975Y18350D02*
X11150Y17525D01*
X11150Y17525D02*
X8625Y17525D01*
X8625Y17525D02*
X8450Y17700D01*
X12200Y18350D02*
X11975Y18350D01*
X18350Y16850D02*
X18350Y16400D01*
X18900Y16200D02*
X18550Y16200D01*
X18550Y16200D02*
X18350Y16400D01*
X16450Y12100D02*
X16450Y12300D01*
X18350Y18350D02*
X18150Y18550D01*
X18150Y18550D02*
X16960Y18550D01*
X16960Y18550D02*
X16350Y19159D01*
X16350Y19159D02*
X15559Y19159D01*
X15559Y19159D02*
X14750Y18350D01*
X14750Y18350D02*
X13900Y18350D01*
X18350Y16850D02*
X18350Y18350D01*
X18400Y14050D02*
X18800Y14450D01*
X18800Y14450D02*
X18800Y15400D01*
X18800Y15400D02*
X19100Y15700D01*
X19100Y15700D02*
X19100Y16000D01*
X19100Y16000D02*
X18900Y16200D01*
X18200Y14050D02*
X18400Y14050D01*
X18500Y22900D02*
X17900Y22900D01*
X17450Y22450D02*
X17900Y22900D01*
X17450Y21050D02*
X17450Y22450D01*
X18850Y22300D02*
X19000Y22300D01*
X19000Y22300D02*
X19600Y22900D01*
X19600Y22900D02*
X21750Y22900D01*
X21750Y22900D02*
X22050Y23200D01*
X17450Y20150D02*
X17500Y20150D01*
X17500Y20150D02*
X18000Y20650D01*
X18150Y22300D02*
X18050Y22200D01*
X18050Y22200D02*
X18050Y20700D01*
X18050Y20700D02*
X18000Y20650D01*
X18850Y22300D02*
X18150Y22300D01*
X22700Y20250D02*
X23600Y21150D01*
X23600Y21150D02*
X23600Y22000D01*
X13750Y17600D02*
X13850Y17700D01*
X13350Y17600D02*
X13750Y17600D01*
X11900Y17150D02*
X12100Y17350D01*
X12100Y17350D02*
X12100Y17700D01*
X12100Y17700D02*
X12250Y17850D01*
X12250Y17850D02*
X13100Y17850D01*
X13100Y17850D02*
X13350Y17600D01*
X11500Y17150D02*
X11900Y17150D01*
X24050Y21100D02*
X24050Y22000D01*
X23200Y20250D02*
X24050Y21100D01*
X24500Y22000D02*
X24500Y21050D01*
X24500Y21050D02*
X23700Y20250D01*
X27800Y20900D02*
X27900Y21000D01*
X26700Y20900D02*
X27800Y20900D01*
X19100Y17400D02*
X18950Y17250D01*
X19100Y18700D02*
X19100Y17400D01*
X18500Y19300D02*
X19100Y18700D01*
X11650Y15100D02*
X11450Y14900D01*
X12200Y15100D02*
X11650Y15100D01*
X12550Y15100D02*
X13350Y14300D01*
X13350Y14300D02*
X15600Y14300D01*
X15600Y14300D02*
X16000Y14700D01*
X16000Y14700D02*
X16000Y15150D01*
X16000Y15150D02*
X16950Y16100D01*
X16950Y16100D02*
X17350Y16100D01*
X17350Y16100D02*
X17500Y16250D01*
X17500Y16250D02*
X17500Y17500D01*
X12200Y15100D02*
X12550Y15100D01*
X17850Y14050D02*
X15500Y11700D01*
X15500Y11700D02*
X15500Y8700D01*
X17850Y14200D02*
X17850Y14050D01*
X15500Y8700D02*
X15500Y8050D01*
X17550Y14850D02*
X17250Y14550D01*
X17250Y14550D02*
X17250Y14150D01*
X17250Y14150D02*
X15009Y11909D01*
X15009Y11909D02*
X15009Y10109D01*
X15009Y10109D02*
X13200Y8300D01*
X18450Y14850D02*
X17550Y14850D01*
X17450Y15100D02*
X18100Y15100D01*
X18100Y15100D02*
X18350Y15350D01*
X17000Y14650D02*
X17450Y15100D01*
X12350Y13490D02*
X12540Y13300D01*
X12540Y13300D02*
X16050Y13300D01*
X16050Y13300D02*
X17000Y14250D01*
X17000Y14250D02*
X17000Y14650D01*
X12350Y13750D02*
X12350Y13490D01*
X11200Y14150D02*
X11200Y14100D01*
X11200Y14100D02*
X11200Y14300D01*
X11450Y14550D02*
X11200Y14300D01*
X11800Y14550D02*
X11450Y14550D01*
X11950Y14400D02*
X11800Y14550D01*
X12050Y14400D02*
X11950Y14400D01*
X12550Y14400D02*
X13150Y13800D01*
X13150Y13800D02*
X15850Y13800D01*
X15850Y13800D02*
X16500Y14450D01*
X16500Y14450D02*
X16500Y14900D01*
X16500Y14900D02*
X17200Y15600D01*
X17200Y15600D02*
X17750Y15600D01*
X17750Y15600D02*
X18150Y16000D01*
X18150Y16000D02*
X18150Y16100D01*
X12050Y14400D02*
X12550Y14400D01*
X7625Y20000D02*
X7900Y19725D01*
X7550Y20000D02*
X7625Y20000D01*
X13600Y18600D02*
X12250Y18600D01*
X13750Y18600D02*
X13600Y18600D01*
X11850Y18600D02*
X11025Y17775D01*
X12250Y18600D02*
X11850Y18600D01*
X8750Y17775D02*
X11025Y17775D01*
X7900Y18625D02*
X8750Y17775D01*
X7900Y19725D02*
X7900Y18625D01*
X18800Y16450D02*
X18690Y16450D01*
X18600Y17400D02*
X18600Y17500D01*
X18600Y17400D02*
X18600Y16540D01*
X18600Y16540D02*
X18690Y16450D01*
X14650Y18600D02*
X15450Y19400D01*
X15450Y19400D02*
X16450Y19400D01*
X16450Y19400D02*
X17050Y18800D01*
X17050Y18800D02*
X18300Y18800D01*
X18300Y18800D02*
X18600Y18500D01*
X18600Y18500D02*
X18600Y17500D01*
X13750Y18600D02*
X14650Y18600D01*
X19050Y16450D02*
X19350Y16150D01*
X19350Y16150D02*
X19350Y15600D01*
X19350Y15600D02*
X19050Y15300D01*
X19050Y15300D02*
X19050Y14300D01*
X19050Y14300D02*
X18450Y13700D01*
X18800Y16450D02*
X19050Y16450D01*
X20450Y23650D02*
X20850Y23250D01*
X20850Y23250D02*
X21100Y23250D01*
X17450Y20600D02*
X17500Y20600D01*
X17500Y20600D02*
X17800Y20900D01*
X17800Y21050D02*
X17800Y20900D01*
X18750Y22650D02*
X18650Y22550D01*
X18650Y22550D02*
X17900Y22550D01*
X18850Y22650D02*
X18750Y22650D01*
X17800Y22450D02*
X17900Y22550D01*
X17800Y21050D02*
X17800Y22450D01*
X19069Y22030D02*
X19689Y22650D01*
X19689Y22650D02*
X22050Y22650D01*
X22050Y22650D02*
X22500Y23100D01*
X22500Y23100D02*
X22500Y23200D01*
X17450Y19700D02*
X17500Y19700D01*
X17500Y19700D02*
X18250Y20450D01*
X18370Y22030D02*
X18290Y21950D01*
X18290Y21950D02*
X18290Y20490D01*
X18290Y20490D02*
X18250Y20450D01*
X19069Y22030D02*
X18370Y22030D01*
X27200Y20050D02*
X28100Y20050D01*
X24000Y18400D02*
X24000Y17350D01*
X12900Y17350D02*
X13450Y17350D01*
X14000Y17350D02*
X14200Y17550D01*
X13450Y17350D02*
X14000Y17350D01*
X11600Y16500D02*
X12450Y17350D01*
X12450Y17350D02*
X12900Y17350D01*
X18000Y18159D02*
X17859Y18300D01*
X17859Y18300D02*
X16850Y18300D01*
X16850Y18300D02*
X16244Y18905D01*
X16244Y18905D02*
X15705Y18905D01*
X15705Y18905D02*
X14900Y18100D01*
X14900Y18100D02*
X14350Y18100D01*
X14350Y18100D02*
X14200Y17950D01*
X14200Y17950D02*
X14200Y17550D01*
X18000Y17500D02*
X18000Y18159D01*
X11400Y16000D02*
X11600Y16200D01*
X11600Y16200D02*
X11600Y16500D01*
X12500Y14100D02*
X12700Y13900D01*
X12700Y13900D02*
X12700Y13650D01*
X12700Y13650D02*
X12800Y13550D01*
X12800Y13550D02*
X15950Y13550D01*
X15950Y13550D02*
X16759Y14359D01*
X16759Y14359D02*
X16759Y14809D01*
X16759Y14809D02*
X17300Y15350D01*
X17300Y15350D02*
X17850Y15350D01*
X17850Y15350D02*
X18200Y15700D01*
X18200Y15700D02*
X18600Y15700D01*
X18600Y15700D02*
X18750Y15850D01*
X11650Y14100D02*
X12500Y14100D01*
X15150Y8700D02*
X14500Y8050D01*
X18250Y14400D02*
X18200Y14400D01*
X15250Y11800D02*
X15250Y8900D01*
X17500Y14050D02*
X15250Y11800D01*
X17500Y14400D02*
X17500Y14050D01*
X17650Y14550D02*
X17500Y14400D01*
X18050Y14550D02*
X17650Y14550D01*
X18200Y14400D02*
X18050Y14550D01*
X15250Y8800D02*
X15150Y8700D01*
X15250Y8900D02*
X15250Y8800D01*
X22100Y17400D02*
X21350Y18150D01*
X22100Y17100D02*
X22100Y17400D01*
X21900Y16900D02*
X22100Y17100D01*
X21100Y16900D02*
X21900Y16900D01*
X20640Y17359D02*
X21100Y16900D01*
X19909Y17359D02*
X20640Y17359D01*
X19625Y17075D02*
X19909Y17359D01*
X19625Y16850D02*
X19625Y17075D01*
X11050Y16450D02*
X10500Y17000D01*
X11050Y14550D02*
X11050Y15400D01*
X10800Y14300D02*
X11050Y14550D01*
X10800Y13900D02*
X10800Y14300D01*
X11100Y13600D02*
X10800Y13900D01*
X14550Y11900D02*
X15200Y12550D01*
X15200Y12550D02*
X15200Y12900D01*
X15200Y12900D02*
X15050Y13050D01*
X15050Y13050D02*
X12400Y13050D01*
X12400Y13050D02*
X11850Y13600D01*
X11850Y13600D02*
X11100Y13600D01*
X16100Y11750D02*
X16000Y11650D01*
X16600Y11750D02*
X16100Y11750D01*
X16800Y11950D02*
X16600Y11750D01*
X16800Y12200D02*
X16800Y11950D01*
X17950Y13350D02*
X16800Y12200D01*
X18150Y13350D02*
X17950Y13350D01*
X11050Y15400D02*
X11050Y16450D01*
X6250Y24000D02*
X7450Y24000D01*
X5200Y22950D02*
X6250Y24000D01*
X5200Y22300D02*
X5200Y22950D01*
X5000Y22100D02*
X5200Y22300D01*
X4650Y22100D02*
X5000Y22100D01*
X4150Y21600D02*
X4650Y22100D01*
X3700Y21600D02*
X4150Y21600D01*
X3450Y21350D02*
X3700Y21600D01*
X3450Y20800D02*
X3450Y21350D01*
X2850Y20200D02*
X3450Y20800D01*
X2850Y19800D02*
X2850Y20200D01*
X3150Y19500D02*
X2850Y19800D01*
X4250Y19500D02*
X3150Y19500D01*
X5400Y18350D02*
X4250Y19500D01*
X6950Y18350D02*
X5400Y18350D01*
X8350Y16950D02*
X6950Y18350D01*
X8350Y15250D02*
X8350Y16950D01*
X15150Y21750D02*
X13950Y22950D01*
X15150Y21300D02*
X15150Y21750D01*
X13950Y22950D02*
X13950Y23425D01*
X16950Y20200D02*
X16900Y20150D01*
X16900Y20150D02*
X16200Y20150D01*
X16200Y20150D02*
X15759Y20590D01*
X15759Y20590D02*
X15409Y20590D01*
X15409Y20590D02*
X15150Y20850D01*
X15150Y20850D02*
X15150Y21300D01*
X12200Y22600D02*
X12050Y22750D01*
X12609Y22600D02*
X12200Y22600D01*
X12709Y22700D02*
X12609Y22600D01*
X12000Y23150D02*
X11800Y23350D01*
X12000Y22800D02*
X12000Y23150D01*
X12050Y22750D02*
X12000Y22800D01*
X7450Y24000D02*
X7450Y24550D01*
X9050Y24300D02*
X9350Y24000D01*
X8450Y24300D02*
X9050Y24300D01*
X8050Y24700D02*
X8450Y24300D01*
X7600Y24700D02*
X8050Y24700D01*
X7450Y24550D02*
X7600Y24700D01*
X9600Y23750D02*
X9350Y24000D01*
X11400Y23750D02*
X9600Y23750D01*
X11800Y23350D02*
X11400Y23750D01*
X12775Y22700D02*
X12709Y22700D01*
X13950Y23300D02*
X13700Y23050D01*
X13700Y23050D02*
X13100Y23050D01*
X13100Y23050D02*
X12775Y22725D01*
X12775Y22725D02*
X12775Y22700D01*
X13950Y23425D02*
X13950Y23300D01*
X21350Y20850D02*
X22500Y22000D01*
X21350Y18150D02*
X21350Y20850D01*
X8350Y14200D02*
X8950Y13600D01*
X8950Y13600D02*
X11100Y13600D01*
X8350Y15250D02*
X8350Y14200D01*
X18600Y13350D02*
X19300Y14050D01*
X19300Y14050D02*
X19300Y15200D01*
X19300Y15200D02*
X19625Y15525D01*
X19625Y15525D02*
X19625Y16850D01*
X18150Y13350D02*
X18600Y13350D01*
G54D10*
G36*
X10683Y14551D02*
X10616Y14483D01*
X10600Y14465D01*
X10585Y14446D01*
X10584Y14445D01*
X10583Y14444D01*
X10572Y14423D01*
X10561Y14402D01*
X10560Y14401D01*
X10559Y14399D01*
X10552Y14376D01*
X10545Y14354D01*
X10545Y14352D01*
X10545Y14351D01*
X10542Y14327D01*
X10540Y14303D01*
X10540Y14300D01*
X10540Y14300D01*
X10540Y14300D01*
X10540Y14300D01*
X10540Y13900D01*
X10542Y13876D01*
X10543Y13860D01*
X9057Y13860D01*
X8610Y14307D01*
X8610Y15250D01*
X8610Y15522D01*
X8984Y15147D01*
X8966Y15059D01*
X8964Y14955D01*
X8983Y14851D01*
X9022Y14754D01*
X9078Y14666D01*
X9151Y14590D01*
X9237Y14531D01*
X9333Y14489D01*
X9436Y14466D01*
X9541Y14464D01*
X9644Y14482D01*
X9742Y14520D01*
X9830Y14576D01*
X9906Y14648D01*
X9967Y14734D01*
X10009Y14830D01*
X10025Y14898D01*
X10028Y14876D01*
X10061Y14787D01*
X10078Y14755D01*
X10148Y14719D01*
X10429Y15000D01*
X10148Y15280D01*
X10078Y15244D01*
X10039Y15157D01*
X10025Y15099D01*
X10014Y15155D01*
X9974Y15252D01*
X9916Y15339D01*
X9842Y15413D01*
X9755Y15472D01*
X9689Y15500D01*
X9742Y15520D01*
X9830Y15576D01*
X9906Y15648D01*
X9967Y15734D01*
X10000Y15809D01*
X10022Y15754D01*
X10078Y15666D01*
X10151Y15590D01*
X10237Y15531D01*
X10333Y15489D01*
X10399Y15474D01*
X10376Y15471D01*
X10287Y15438D01*
X10255Y15421D01*
X10219Y15351D01*
X10500Y15070D01*
X10505Y15076D01*
X10576Y15005D01*
X10570Y15000D01*
X10576Y14994D01*
X10505Y14923D01*
X10500Y14929D01*
X10219Y14648D01*
X10255Y14578D01*
X10342Y14539D01*
X10434Y14517D01*
X10529Y14513D01*
X10623Y14528D01*
X10683Y14551D01*
X10683Y14551D01*
G37*
G54D19*
X10683Y14551D02*
X10616Y14483D01*
X10600Y14465D01*
X10585Y14446D01*
X10584Y14445D01*
X10583Y14444D01*
X10572Y14423D01*
X10561Y14402D01*
X10560Y14401D01*
X10559Y14399D01*
X10552Y14376D01*
X10545Y14354D01*
X10545Y14352D01*
X10545Y14351D01*
X10542Y14327D01*
X10540Y14303D01*
X10540Y14300D01*
X10540Y14300D01*
X10540Y14300D01*
X10540Y14300D01*
X10540Y13900D01*
X10542Y13876D01*
X10543Y13860D01*
X9057Y13860D01*
X8610Y14307D01*
X8610Y15250D01*
X8610Y15522D01*
X8984Y15147D01*
X8966Y15059D01*
X8964Y14955D01*
X8983Y14851D01*
X9022Y14754D01*
X9078Y14666D01*
X9151Y14590D01*
X9237Y14531D01*
X9333Y14489D01*
X9436Y14466D01*
X9541Y14464D01*
X9644Y14482D01*
X9742Y14520D01*
X9830Y14576D01*
X9906Y14648D01*
X9967Y14734D01*
X10009Y14830D01*
X10025Y14898D01*
X10028Y14876D01*
X10061Y14787D01*
X10078Y14755D01*
X10148Y14719D01*
X10429Y15000D01*
X10148Y15280D01*
X10078Y15244D01*
X10039Y15157D01*
X10025Y15099D01*
X10014Y15155D01*
X9974Y15252D01*
X9916Y15339D01*
X9842Y15413D01*
X9755Y15472D01*
X9689Y15500D01*
X9742Y15520D01*
X9830Y15576D01*
X9906Y15648D01*
X9967Y15734D01*
X10000Y15809D01*
X10022Y15754D01*
X10078Y15666D01*
X10151Y15590D01*
X10237Y15531D01*
X10333Y15489D01*
X10399Y15474D01*
X10376Y15471D01*
X10287Y15438D01*
X10255Y15421D01*
X10219Y15351D01*
X10500Y15070D01*
X10505Y15076D01*
X10576Y15005D01*
X10570Y15000D01*
X10576Y14994D01*
X10505Y14923D01*
X10500Y14929D01*
X10219Y14648D01*
X10255Y14578D01*
X10342Y14539D01*
X10434Y14517D01*
X10529Y14513D01*
X10623Y14528D01*
X10683Y14551D01*
G54D10*
G36*
X13690Y19907D02*
X13392Y19610D01*
X12950Y19610D01*
X11500Y19610D01*
X11476Y19607D01*
X11452Y19605D01*
X11450Y19605D01*
X11449Y19605D01*
X11426Y19598D01*
X11403Y19591D01*
X11402Y19590D01*
X11400Y19590D01*
X11379Y19579D01*
X11358Y19568D01*
X11357Y19567D01*
X11356Y19566D01*
X11337Y19551D01*
X11318Y19536D01*
X11316Y19534D01*
X11316Y19534D01*
X11316Y19534D01*
X11316Y19533D01*
X10792Y19010D01*
X10500Y19010D01*
X8497Y19010D01*
X8410Y19097D01*
X8410Y19950D01*
X8407Y19973D01*
X8405Y19997D01*
X8405Y19999D01*
X8405Y20000D01*
X8398Y20023D01*
X8391Y20046D01*
X8390Y20047D01*
X8390Y20049D01*
X8379Y20070D01*
X8368Y20091D01*
X8367Y20092D01*
X8366Y20093D01*
X8351Y20112D01*
X8336Y20131D01*
X8334Y20133D01*
X8334Y20133D01*
X8334Y20133D01*
X8333Y20133D01*
X7760Y20707D01*
X7760Y22092D01*
X7783Y22116D01*
X7799Y22134D01*
X7814Y22153D01*
X7815Y22154D01*
X7816Y22155D01*
X7827Y22176D01*
X7838Y22197D01*
X7839Y22198D01*
X7840Y22200D01*
X7847Y22223D01*
X7854Y22245D01*
X7854Y22247D01*
X7854Y22248D01*
X7857Y22272D01*
X7859Y22296D01*
X7859Y22299D01*
X7859Y22299D01*
X7859Y22299D01*
X7860Y22300D01*
X7860Y22800D01*
X7857Y22823D01*
X7855Y22847D01*
X7855Y22849D01*
X7855Y22850D01*
X7849Y22870D01*
X7849Y22903D01*
X7894Y22911D01*
X7958Y22936D01*
X8016Y22972D01*
X8066Y23020D01*
X8105Y23076D01*
X8133Y23138D01*
X8148Y23205D01*
X8150Y23284D01*
X8136Y23351D01*
X8110Y23415D01*
X8072Y23472D01*
X8024Y23520D01*
X7967Y23559D01*
X7903Y23585D01*
X7903Y23586D01*
X7983Y23666D01*
X7999Y23684D01*
X8014Y23703D01*
X8015Y23704D01*
X8016Y23705D01*
X8027Y23726D01*
X8038Y23747D01*
X8039Y23748D01*
X8040Y23750D01*
X8047Y23773D01*
X8054Y23795D01*
X8054Y23797D01*
X8054Y23798D01*
X8057Y23822D01*
X8059Y23846D01*
X8059Y23849D01*
X8059Y23849D01*
X8059Y23849D01*
X8060Y23850D01*
X8060Y23982D01*
X8176Y23866D01*
X8195Y23850D01*
X8213Y23835D01*
X8214Y23834D01*
X8215Y23833D01*
X8237Y23822D01*
X8258Y23811D01*
X8259Y23810D01*
X8260Y23809D01*
X8283Y23802D01*
X8306Y23795D01*
X8307Y23795D01*
X8309Y23795D01*
X8333Y23792D01*
X8356Y23790D01*
X8359Y23790D01*
X8359Y23790D01*
X8359Y23790D01*
X8360Y23790D01*
X8792Y23790D01*
X9299Y23282D01*
X9299Y23270D01*
X9311Y23203D01*
X9337Y23139D01*
X9374Y23081D01*
X9422Y23032D01*
X9478Y22992D01*
X9541Y22965D01*
X9608Y22950D01*
X9676Y22949D01*
X9744Y22961D01*
X9808Y22986D01*
X9866Y23022D01*
X9916Y23070D01*
X9955Y23126D01*
X9983Y23188D01*
X9998Y23255D01*
X10000Y23334D01*
X9986Y23401D01*
X9960Y23465D01*
X9943Y23490D01*
X10661Y23490D01*
X10650Y23439D01*
X10649Y23370D01*
X10661Y23303D01*
X10664Y23296D01*
X10629Y23274D01*
X10580Y23226D01*
X10541Y23169D01*
X10514Y23106D01*
X10500Y23039D01*
X10499Y22970D01*
X10511Y22903D01*
X10537Y22839D01*
X10574Y22781D01*
X10622Y22732D01*
X10678Y22692D01*
X10741Y22665D01*
X10799Y22652D01*
X10799Y22620D01*
X10811Y22553D01*
X10837Y22489D01*
X10874Y22431D01*
X10890Y22415D01*
X10890Y22100D01*
X10892Y22076D01*
X10894Y22052D01*
X10894Y22050D01*
X10894Y22049D01*
X10901Y22026D01*
X10908Y22003D01*
X10909Y22002D01*
X10909Y22000D01*
X10920Y21979D01*
X10931Y21958D01*
X10932Y21957D01*
X10933Y21956D01*
X10948Y21937D01*
X10963Y21918D01*
X10965Y21916D01*
X10965Y21916D01*
X10965Y21916D01*
X10966Y21916D01*
X11216Y21666D01*
X11234Y21650D01*
X11253Y21635D01*
X11254Y21634D01*
X11255Y21633D01*
X11276Y21622D01*
X11297Y21611D01*
X11298Y21610D01*
X11300Y21609D01*
X11323Y21602D01*
X11345Y21595D01*
X11347Y21595D01*
X11348Y21595D01*
X11372Y21592D01*
X11396Y21590D01*
X11399Y21590D01*
X11399Y21590D01*
X11399Y21590D01*
X11400Y21590D01*
X12129Y21590D01*
X12114Y21556D01*
X12100Y21489D01*
X12100Y21467D01*
X11966Y21333D01*
X11950Y21315D01*
X11935Y21296D01*
X11934Y21295D01*
X11933Y21294D01*
X11922Y21273D01*
X11911Y21252D01*
X11910Y21251D01*
X11909Y21249D01*
X11902Y21226D01*
X11895Y21204D01*
X11895Y21202D01*
X11895Y21201D01*
X11892Y21177D01*
X11890Y21153D01*
X11890Y21150D01*
X11890Y21150D01*
X11890Y21150D01*
X11890Y21150D01*
X11890Y20800D01*
X11892Y20776D01*
X11894Y20752D01*
X11894Y20750D01*
X11894Y20749D01*
X11901Y20726D01*
X11908Y20703D01*
X11909Y20702D01*
X11909Y20700D01*
X11920Y20679D01*
X11931Y20658D01*
X11932Y20657D01*
X11933Y20656D01*
X11948Y20637D01*
X11963Y20618D01*
X11965Y20616D01*
X11965Y20616D01*
X11965Y20616D01*
X11966Y20616D01*
X12116Y20466D01*
X12134Y20450D01*
X12153Y20435D01*
X12154Y20434D01*
X12155Y20433D01*
X12176Y20422D01*
X12197Y20411D01*
X12198Y20410D01*
X12200Y20409D01*
X12223Y20402D01*
X12245Y20395D01*
X12247Y20395D01*
X12248Y20395D01*
X12272Y20392D01*
X12296Y20390D01*
X12299Y20390D01*
X12299Y20390D01*
X12299Y20390D01*
X12300Y20390D01*
X12350Y20390D01*
X12700Y20390D01*
X12723Y20392D01*
X12747Y20394D01*
X12749Y20394D01*
X12750Y20394D01*
X12773Y20401D01*
X12796Y20408D01*
X12797Y20409D01*
X12799Y20409D01*
X12820Y20420D01*
X12841Y20431D01*
X12842Y20432D01*
X12843Y20433D01*
X12862Y20448D01*
X12881Y20463D01*
X12883Y20465D01*
X12883Y20465D01*
X12883Y20465D01*
X12883Y20466D01*
X13057Y20640D01*
X13690Y20640D01*
X13690Y19907D01*
X13690Y19907D01*
G37*
G54D19*
X13690Y19907D02*
X13392Y19610D01*
X12950Y19610D01*
X11500Y19610D01*
X11476Y19607D01*
X11452Y19605D01*
X11450Y19605D01*
X11449Y19605D01*
X11426Y19598D01*
X11403Y19591D01*
X11402Y19590D01*
X11400Y19590D01*
X11379Y19579D01*
X11358Y19568D01*
X11357Y19567D01*
X11356Y19566D01*
X11337Y19551D01*
X11318Y19536D01*
X11316Y19534D01*
X11316Y19534D01*
X11316Y19534D01*
X11316Y19533D01*
X10792Y19010D01*
X10500Y19010D01*
X8497Y19010D01*
X8410Y19097D01*
X8410Y19950D01*
X8407Y19973D01*
X8405Y19997D01*
X8405Y19999D01*
X8405Y20000D01*
X8398Y20023D01*
X8391Y20046D01*
X8390Y20047D01*
X8390Y20049D01*
X8379Y20070D01*
X8368Y20091D01*
X8367Y20092D01*
X8366Y20093D01*
X8351Y20112D01*
X8336Y20131D01*
X8334Y20133D01*
X8334Y20133D01*
X8334Y20133D01*
X8333Y20133D01*
X7760Y20707D01*
X7760Y22092D01*
X7783Y22116D01*
X7799Y22134D01*
X7814Y22153D01*
X7815Y22154D01*
X7816Y22155D01*
X7827Y22176D01*
X7838Y22197D01*
X7839Y22198D01*
X7840Y22200D01*
X7847Y22223D01*
X7854Y22245D01*
X7854Y22247D01*
X7854Y22248D01*
X7857Y22272D01*
X7859Y22296D01*
X7859Y22299D01*
X7859Y22299D01*
X7859Y22299D01*
X7860Y22300D01*
X7860Y22800D01*
X7857Y22823D01*
X7855Y22847D01*
X7855Y22849D01*
X7855Y22850D01*
X7849Y22870D01*
X7849Y22903D01*
X7894Y22911D01*
X7958Y22936D01*
X8016Y22972D01*
X8066Y23020D01*
X8105Y23076D01*
X8133Y23138D01*
X8148Y23205D01*
X8150Y23284D01*
X8136Y23351D01*
X8110Y23415D01*
X8072Y23472D01*
X8024Y23520D01*
X7967Y23559D01*
X7903Y23585D01*
X7903Y23586D01*
X7983Y23666D01*
X7999Y23684D01*
X8014Y23703D01*
X8015Y23704D01*
X8016Y23705D01*
X8027Y23726D01*
X8038Y23747D01*
X8039Y23748D01*
X8040Y23750D01*
X8047Y23773D01*
X8054Y23795D01*
X8054Y23797D01*
X8054Y23798D01*
X8057Y23822D01*
X8059Y23846D01*
X8059Y23849D01*
X8059Y23849D01*
X8059Y23849D01*
X8060Y23850D01*
X8060Y23982D01*
X8176Y23866D01*
X8195Y23850D01*
X8213Y23835D01*
X8214Y23834D01*
X8215Y23833D01*
X8237Y23822D01*
X8258Y23811D01*
X8259Y23810D01*
X8260Y23809D01*
X8283Y23802D01*
X8306Y23795D01*
X8307Y23795D01*
X8309Y23795D01*
X8333Y23792D01*
X8356Y23790D01*
X8359Y23790D01*
X8359Y23790D01*
X8359Y23790D01*
X8360Y23790D01*
X8792Y23790D01*
X9299Y23282D01*
X9299Y23270D01*
X9311Y23203D01*
X9337Y23139D01*
X9374Y23081D01*
X9422Y23032D01*
X9478Y22992D01*
X9541Y22965D01*
X9608Y22950D01*
X9676Y22949D01*
X9744Y22961D01*
X9808Y22986D01*
X9866Y23022D01*
X9916Y23070D01*
X9955Y23126D01*
X9983Y23188D01*
X9998Y23255D01*
X10000Y23334D01*
X9986Y23401D01*
X9960Y23465D01*
X9943Y23490D01*
X10661Y23490D01*
X10650Y23439D01*
X10649Y23370D01*
X10661Y23303D01*
X10664Y23296D01*
X10629Y23274D01*
X10580Y23226D01*
X10541Y23169D01*
X10514Y23106D01*
X10500Y23039D01*
X10499Y22970D01*
X10511Y22903D01*
X10537Y22839D01*
X10574Y22781D01*
X10622Y22732D01*
X10678Y22692D01*
X10741Y22665D01*
X10799Y22652D01*
X10799Y22620D01*
X10811Y22553D01*
X10837Y22489D01*
X10874Y22431D01*
X10890Y22415D01*
X10890Y22100D01*
X10892Y22076D01*
X10894Y22052D01*
X10894Y22050D01*
X10894Y22049D01*
X10901Y22026D01*
X10908Y22003D01*
X10909Y22002D01*
X10909Y22000D01*
X10920Y21979D01*
X10931Y21958D01*
X10932Y21957D01*
X10933Y21956D01*
X10948Y21937D01*
X10963Y21918D01*
X10965Y21916D01*
X10965Y21916D01*
X10965Y21916D01*
X10966Y21916D01*
X11216Y21666D01*
X11234Y21650D01*
X11253Y21635D01*
X11254Y21634D01*
X11255Y21633D01*
X11276Y21622D01*
X11297Y21611D01*
X11298Y21610D01*
X11300Y21609D01*
X11323Y21602D01*
X11345Y21595D01*
X11347Y21595D01*
X11348Y21595D01*
X11372Y21592D01*
X11396Y21590D01*
X11399Y21590D01*
X11399Y21590D01*
X11399Y21590D01*
X11400Y21590D01*
X12129Y21590D01*
X12114Y21556D01*
X12100Y21489D01*
X12100Y21467D01*
X11966Y21333D01*
X11950Y21315D01*
X11935Y21296D01*
X11934Y21295D01*
X11933Y21294D01*
X11922Y21273D01*
X11911Y21252D01*
X11910Y21251D01*
X11909Y21249D01*
X11902Y21226D01*
X11895Y21204D01*
X11895Y21202D01*
X11895Y21201D01*
X11892Y21177D01*
X11890Y21153D01*
X11890Y21150D01*
X11890Y21150D01*
X11890Y21150D01*
X11890Y21150D01*
X11890Y20800D01*
X11892Y20776D01*
X11894Y20752D01*
X11894Y20750D01*
X11894Y20749D01*
X11901Y20726D01*
X11908Y20703D01*
X11909Y20702D01*
X11909Y20700D01*
X11920Y20679D01*
X11931Y20658D01*
X11932Y20657D01*
X11933Y20656D01*
X11948Y20637D01*
X11963Y20618D01*
X11965Y20616D01*
X11965Y20616D01*
X11965Y20616D01*
X11966Y20616D01*
X12116Y20466D01*
X12134Y20450D01*
X12153Y20435D01*
X12154Y20434D01*
X12155Y20433D01*
X12176Y20422D01*
X12197Y20411D01*
X12198Y20410D01*
X12200Y20409D01*
X12223Y20402D01*
X12245Y20395D01*
X12247Y20395D01*
X12248Y20395D01*
X12272Y20392D01*
X12296Y20390D01*
X12299Y20390D01*
X12299Y20390D01*
X12299Y20390D01*
X12300Y20390D01*
X12350Y20390D01*
X12700Y20390D01*
X12723Y20392D01*
X12747Y20394D01*
X12749Y20394D01*
X12750Y20394D01*
X12773Y20401D01*
X12796Y20408D01*
X12797Y20409D01*
X12799Y20409D01*
X12820Y20420D01*
X12841Y20431D01*
X12842Y20432D01*
X12843Y20433D01*
X12862Y20448D01*
X12881Y20463D01*
X12883Y20465D01*
X12883Y20465D01*
X12883Y20465D01*
X12883Y20466D01*
X13057Y20640D01*
X13690Y20640D01*
X13690Y19907D01*
G54D10*
G36*
X17740Y17755D02*
X17724Y17770D01*
X17667Y17809D01*
X17603Y17835D01*
X17536Y17849D01*
X17468Y17850D01*
X17400Y17837D01*
X17337Y17811D01*
X17279Y17774D01*
X17230Y17726D01*
X17191Y17669D01*
X17164Y17606D01*
X17150Y17539D01*
X17149Y17470D01*
X17161Y17403D01*
X17187Y17339D01*
X17224Y17281D01*
X17240Y17265D01*
X17240Y16360D01*
X16950Y16360D01*
X16926Y16357D01*
X16902Y16355D01*
X16900Y16355D01*
X16899Y16355D01*
X16876Y16348D01*
X16853Y16341D01*
X16852Y16340D01*
X16850Y16340D01*
X16829Y16329D01*
X16808Y16318D01*
X16807Y16317D01*
X16806Y16316D01*
X16787Y16301D01*
X16768Y16286D01*
X16766Y16284D01*
X16766Y16284D01*
X16766Y16284D01*
X16766Y16283D01*
X15816Y15333D01*
X15800Y15315D01*
X15785Y15296D01*
X15784Y15295D01*
X15783Y15294D01*
X15772Y15273D01*
X15761Y15252D01*
X15760Y15251D01*
X15759Y15249D01*
X15752Y15226D01*
X15745Y15204D01*
X15745Y15202D01*
X15745Y15201D01*
X15742Y15177D01*
X15740Y15153D01*
X15740Y15150D01*
X15740Y15150D01*
X15740Y15150D01*
X15740Y15150D01*
X15740Y14807D01*
X15492Y14560D01*
X13457Y14560D01*
X12733Y15283D01*
X12715Y15299D01*
X12696Y15314D01*
X12695Y15315D01*
X12694Y15316D01*
X12673Y15327D01*
X12652Y15338D01*
X12651Y15339D01*
X12649Y15340D01*
X12626Y15347D01*
X12604Y15354D01*
X12602Y15354D01*
X12601Y15354D01*
X12577Y15357D01*
X12553Y15359D01*
X12550Y15359D01*
X12550Y15359D01*
X12550Y15359D01*
X12550Y15360D01*
X12200Y15360D01*
X11650Y15360D01*
X11626Y15357D01*
X11602Y15355D01*
X11600Y15355D01*
X11599Y15355D01*
X11576Y15348D01*
X11553Y15341D01*
X11552Y15340D01*
X11550Y15340D01*
X11529Y15329D01*
X11508Y15318D01*
X11507Y15317D01*
X11506Y15316D01*
X11487Y15301D01*
X11468Y15286D01*
X11466Y15284D01*
X11466Y15284D01*
X11466Y15284D01*
X11466Y15283D01*
X11432Y15250D01*
X11418Y15250D01*
X11350Y15237D01*
X11310Y15220D01*
X11310Y15400D01*
X11310Y15661D01*
X11358Y15650D01*
X11426Y15649D01*
X11494Y15661D01*
X11558Y15686D01*
X11616Y15722D01*
X11666Y15770D01*
X11705Y15826D01*
X11733Y15888D01*
X11748Y15955D01*
X11749Y15981D01*
X11783Y16016D01*
X11799Y16034D01*
X11814Y16053D01*
X11815Y16054D01*
X11816Y16055D01*
X11827Y16076D01*
X11838Y16097D01*
X11839Y16098D01*
X11840Y16100D01*
X11847Y16123D01*
X11854Y16145D01*
X11854Y16147D01*
X11854Y16148D01*
X11857Y16172D01*
X11859Y16196D01*
X11859Y16199D01*
X11859Y16199D01*
X11859Y16199D01*
X11860Y16200D01*
X11860Y16392D01*
X12557Y17090D01*
X12900Y17090D01*
X13450Y17090D01*
X14000Y17090D01*
X14023Y17092D01*
X14047Y17094D01*
X14049Y17094D01*
X14050Y17094D01*
X14073Y17101D01*
X14096Y17108D01*
X14097Y17109D01*
X14099Y17109D01*
X14120Y17120D01*
X14141Y17131D01*
X14142Y17132D01*
X14143Y17133D01*
X14162Y17148D01*
X14181Y17163D01*
X14183Y17165D01*
X14183Y17165D01*
X14183Y17165D01*
X14183Y17166D01*
X14383Y17366D01*
X14399Y17384D01*
X14414Y17403D01*
X14415Y17404D01*
X14416Y17405D01*
X14427Y17426D01*
X14438Y17447D01*
X14439Y17448D01*
X14440Y17450D01*
X14447Y17473D01*
X14454Y17495D01*
X14454Y17497D01*
X14454Y17498D01*
X14457Y17522D01*
X14459Y17546D01*
X14459Y17549D01*
X14459Y17549D01*
X14459Y17549D01*
X14460Y17550D01*
X14460Y17840D01*
X14900Y17840D01*
X14923Y17842D01*
X14947Y17844D01*
X14949Y17844D01*
X14950Y17844D01*
X14973Y17851D01*
X14996Y17858D01*
X14997Y17859D01*
X14999Y17859D01*
X15020Y17870D01*
X15041Y17881D01*
X15042Y17882D01*
X15043Y17883D01*
X15062Y17898D01*
X15081Y17913D01*
X15083Y17915D01*
X15083Y17915D01*
X15083Y17915D01*
X15083Y17916D01*
X15812Y18645D01*
X16137Y18645D01*
X16666Y18116D01*
X16684Y18100D01*
X16703Y18085D01*
X16704Y18084D01*
X16705Y18083D01*
X16726Y18072D01*
X16747Y18061D01*
X16748Y18060D01*
X16750Y18059D01*
X16773Y18052D01*
X16795Y18045D01*
X16797Y18045D01*
X16798Y18045D01*
X16822Y18042D01*
X16846Y18040D01*
X16849Y18040D01*
X16849Y18040D01*
X16849Y18040D01*
X16850Y18040D01*
X17740Y18040D01*
X17740Y17755D01*
X17740Y17755D01*
G37*
G54D19*
X17740Y17755D02*
X17724Y17770D01*
X17667Y17809D01*
X17603Y17835D01*
X17536Y17849D01*
X17468Y17850D01*
X17400Y17837D01*
X17337Y17811D01*
X17279Y17774D01*
X17230Y17726D01*
X17191Y17669D01*
X17164Y17606D01*
X17150Y17539D01*
X17149Y17470D01*
X17161Y17403D01*
X17187Y17339D01*
X17224Y17281D01*
X17240Y17265D01*
X17240Y16360D01*
X16950Y16360D01*
X16926Y16357D01*
X16902Y16355D01*
X16900Y16355D01*
X16899Y16355D01*
X16876Y16348D01*
X16853Y16341D01*
X16852Y16340D01*
X16850Y16340D01*
X16829Y16329D01*
X16808Y16318D01*
X16807Y16317D01*
X16806Y16316D01*
X16787Y16301D01*
X16768Y16286D01*
X16766Y16284D01*
X16766Y16284D01*
X16766Y16284D01*
X16766Y16283D01*
X15816Y15333D01*
X15800Y15315D01*
X15785Y15296D01*
X15784Y15295D01*
X15783Y15294D01*
X15772Y15273D01*
X15761Y15252D01*
X15760Y15251D01*
X15759Y15249D01*
X15752Y15226D01*
X15745Y15204D01*
X15745Y15202D01*
X15745Y15201D01*
X15742Y15177D01*
X15740Y15153D01*
X15740Y15150D01*
X15740Y15150D01*
X15740Y15150D01*
X15740Y15150D01*
X15740Y14807D01*
X15492Y14560D01*
X13457Y14560D01*
X12733Y15283D01*
X12715Y15299D01*
X12696Y15314D01*
X12695Y15315D01*
X12694Y15316D01*
X12673Y15327D01*
X12652Y15338D01*
X12651Y15339D01*
X12649Y15340D01*
X12626Y15347D01*
X12604Y15354D01*
X12602Y15354D01*
X12601Y15354D01*
X12577Y15357D01*
X12553Y15359D01*
X12550Y15359D01*
X12550Y15359D01*
X12550Y15359D01*
X12550Y15360D01*
X12200Y15360D01*
X11650Y15360D01*
X11626Y15357D01*
X11602Y15355D01*
X11600Y15355D01*
X11599Y15355D01*
X11576Y15348D01*
X11553Y15341D01*
X11552Y15340D01*
X11550Y15340D01*
X11529Y15329D01*
X11508Y15318D01*
X11507Y15317D01*
X11506Y15316D01*
X11487Y15301D01*
X11468Y15286D01*
X11466Y15284D01*
X11466Y15284D01*
X11466Y15284D01*
X11466Y15283D01*
X11432Y15250D01*
X11418Y15250D01*
X11350Y15237D01*
X11310Y15220D01*
X11310Y15400D01*
X11310Y15661D01*
X11358Y15650D01*
X11426Y15649D01*
X11494Y15661D01*
X11558Y15686D01*
X11616Y15722D01*
X11666Y15770D01*
X11705Y15826D01*
X11733Y15888D01*
X11748Y15955D01*
X11749Y15981D01*
X11783Y16016D01*
X11799Y16034D01*
X11814Y16053D01*
X11815Y16054D01*
X11816Y16055D01*
X11827Y16076D01*
X11838Y16097D01*
X11839Y16098D01*
X11840Y16100D01*
X11847Y16123D01*
X11854Y16145D01*
X11854Y16147D01*
X11854Y16148D01*
X11857Y16172D01*
X11859Y16196D01*
X11859Y16199D01*
X11859Y16199D01*
X11859Y16199D01*
X11860Y16200D01*
X11860Y16392D01*
X12557Y17090D01*
X12900Y17090D01*
X13450Y17090D01*
X14000Y17090D01*
X14023Y17092D01*
X14047Y17094D01*
X14049Y17094D01*
X14050Y17094D01*
X14073Y17101D01*
X14096Y17108D01*
X14097Y17109D01*
X14099Y17109D01*
X14120Y17120D01*
X14141Y17131D01*
X14142Y17132D01*
X14143Y17133D01*
X14162Y17148D01*
X14181Y17163D01*
X14183Y17165D01*
X14183Y17165D01*
X14183Y17165D01*
X14183Y17166D01*
X14383Y17366D01*
X14399Y17384D01*
X14414Y17403D01*
X14415Y17404D01*
X14416Y17405D01*
X14427Y17426D01*
X14438Y17447D01*
X14439Y17448D01*
X14440Y17450D01*
X14447Y17473D01*
X14454Y17495D01*
X14454Y17497D01*
X14454Y17498D01*
X14457Y17522D01*
X14459Y17546D01*
X14459Y17549D01*
X14459Y17549D01*
X14459Y17549D01*
X14460Y17550D01*
X14460Y17840D01*
X14900Y17840D01*
X14923Y17842D01*
X14947Y17844D01*
X14949Y17844D01*
X14950Y17844D01*
X14973Y17851D01*
X14996Y17858D01*
X14997Y17859D01*
X14999Y17859D01*
X15020Y17870D01*
X15041Y17881D01*
X15042Y17882D01*
X15043Y17883D01*
X15062Y17898D01*
X15081Y17913D01*
X15083Y17915D01*
X15083Y17915D01*
X15083Y17915D01*
X15083Y17916D01*
X15812Y18645D01*
X16137Y18645D01*
X16666Y18116D01*
X16684Y18100D01*
X16703Y18085D01*
X16704Y18084D01*
X16705Y18083D01*
X16726Y18072D01*
X16747Y18061D01*
X16748Y18060D01*
X16750Y18059D01*
X16773Y18052D01*
X16795Y18045D01*
X16797Y18045D01*
X16798Y18045D01*
X16822Y18042D01*
X16846Y18040D01*
X16849Y18040D01*
X16849Y18040D01*
X16849Y18040D01*
X16850Y18040D01*
X17740Y18040D01*
X17740Y17755D01*
G54D10*
G36*
X28300Y17391D02*
X28275Y17355D01*
X28242Y17279D01*
X28225Y17197D01*
X28224Y17114D01*
X28225Y17106D01*
X25360Y11828D01*
X25360Y20760D01*
X25360Y21020D01*
X25360Y22275D01*
X25357Y22298D01*
X25355Y22322D01*
X25355Y22324D01*
X25355Y22325D01*
X25348Y22348D01*
X25341Y22371D01*
X25340Y22372D01*
X25340Y22374D01*
X25329Y22395D01*
X25318Y22416D01*
X25317Y22417D01*
X25316Y22418D01*
X25301Y22437D01*
X25286Y22456D01*
X25284Y22458D01*
X25284Y22458D01*
X25284Y22458D01*
X25283Y22458D01*
X24908Y22833D01*
X24890Y22849D01*
X24871Y22864D01*
X24870Y22865D01*
X24869Y22866D01*
X24848Y22877D01*
X24827Y22888D01*
X24826Y22889D01*
X24824Y22890D01*
X24801Y22897D01*
X24779Y22904D01*
X24777Y22904D01*
X24776Y22904D01*
X24752Y22907D01*
X24728Y22909D01*
X24725Y22909D01*
X24725Y22909D01*
X24725Y22909D01*
X24725Y22910D01*
X24612Y22910D01*
X24612Y29763D01*
X24593Y29931D01*
X24542Y30091D01*
X24476Y30215D01*
X24367Y30297D01*
X24297Y30226D01*
X24297Y30367D01*
X24215Y30476D01*
X24065Y30552D01*
X23903Y30598D01*
X23736Y30612D01*
X23568Y30593D01*
X23408Y30542D01*
X23284Y30476D01*
X23202Y30367D01*
X23750Y29820D01*
X24297Y30367D01*
X24297Y30226D01*
X23820Y29750D01*
X24367Y29202D01*
X24476Y29284D01*
X24552Y29434D01*
X24598Y29596D01*
X24612Y29763D01*
X24612Y22910D01*
X24507Y22910D01*
X24297Y23120D01*
X24297Y29132D01*
X23750Y29679D01*
X23679Y29608D01*
X23679Y29750D01*
X23132Y30297D01*
X23023Y30215D01*
X22947Y30065D01*
X22901Y29903D01*
X22887Y29736D01*
X22906Y29568D01*
X22957Y29408D01*
X23023Y29284D01*
X23132Y29202D01*
X23679Y29750D01*
X23679Y29608D01*
X23202Y29132D01*
X23284Y29023D01*
X23434Y28947D01*
X23596Y28901D01*
X23763Y28887D01*
X23931Y28906D01*
X24091Y28957D01*
X24215Y29023D01*
X24297Y29132D01*
X24297Y23120D01*
X23108Y24308D01*
X23090Y24324D01*
X23071Y24339D01*
X23070Y24340D01*
X23069Y24341D01*
X23048Y24352D01*
X23027Y24363D01*
X23026Y24364D01*
X23024Y24365D01*
X23001Y24372D01*
X22979Y24379D01*
X22977Y24379D01*
X22976Y24379D01*
X22952Y24382D01*
X22928Y24384D01*
X22925Y24384D01*
X22925Y24384D01*
X22925Y24384D01*
X22925Y24385D01*
X21682Y24385D01*
X21258Y24808D01*
X21240Y24824D01*
X21221Y24839D01*
X21220Y24840D01*
X21219Y24841D01*
X21198Y24852D01*
X21177Y24863D01*
X21176Y24864D01*
X21174Y24865D01*
X21151Y24872D01*
X21129Y24879D01*
X21127Y24879D01*
X21126Y24879D01*
X21102Y24882D01*
X21078Y24884D01*
X21075Y24884D01*
X21075Y24884D01*
X21075Y24884D01*
X21075Y24885D01*
X20500Y24885D01*
X20476Y24882D01*
X20452Y24880D01*
X20450Y24880D01*
X20449Y24880D01*
X20426Y24873D01*
X20403Y24866D01*
X20402Y24865D01*
X20400Y24865D01*
X20379Y24854D01*
X20358Y24843D01*
X20357Y24842D01*
X20356Y24841D01*
X20337Y24826D01*
X20318Y24811D01*
X20316Y24809D01*
X20316Y24809D01*
X20316Y24809D01*
X20316Y24808D01*
X19317Y23810D01*
X17522Y23810D01*
X17510Y23840D01*
X17472Y23897D01*
X17424Y23945D01*
X17367Y23984D01*
X17303Y24010D01*
X17236Y24024D01*
X17168Y24025D01*
X17100Y24012D01*
X17037Y23986D01*
X16979Y23949D01*
X16930Y23901D01*
X16891Y23844D01*
X16864Y23781D01*
X16850Y23714D01*
X16849Y23645D01*
X16861Y23578D01*
X16869Y23560D01*
X16650Y23560D01*
X16350Y23560D01*
X16326Y23557D01*
X16302Y23555D01*
X16300Y23555D01*
X16299Y23555D01*
X16276Y23548D01*
X16253Y23541D01*
X16252Y23540D01*
X16250Y23540D01*
X16229Y23529D01*
X16208Y23518D01*
X16207Y23517D01*
X16206Y23516D01*
X16187Y23501D01*
X16168Y23486D01*
X16166Y23484D01*
X16166Y23484D01*
X16166Y23484D01*
X16166Y23483D01*
X15682Y23000D01*
X15668Y23000D01*
X15600Y22987D01*
X15537Y22961D01*
X15479Y22924D01*
X15430Y22876D01*
X15391Y22819D01*
X15364Y22756D01*
X15350Y22689D01*
X15349Y22620D01*
X15361Y22553D01*
X15387Y22489D01*
X15424Y22431D01*
X15472Y22382D01*
X15528Y22342D01*
X15591Y22315D01*
X15658Y22300D01*
X15726Y22299D01*
X15794Y22311D01*
X15858Y22336D01*
X15916Y22372D01*
X15966Y22420D01*
X16005Y22476D01*
X16033Y22538D01*
X16048Y22605D01*
X16049Y22631D01*
X16457Y23040D01*
X16650Y23040D01*
X17672Y23040D01*
X17266Y22633D01*
X17250Y22615D01*
X17235Y22596D01*
X17234Y22595D01*
X17233Y22594D01*
X17222Y22573D01*
X17211Y22552D01*
X17210Y22551D01*
X17209Y22549D01*
X17202Y22526D01*
X17195Y22504D01*
X17195Y22502D01*
X17195Y22501D01*
X17192Y22477D01*
X17190Y22453D01*
X17190Y22450D01*
X17190Y22450D01*
X17190Y22450D01*
X17190Y22450D01*
X17190Y21285D01*
X17180Y21276D01*
X17141Y21219D01*
X17114Y21156D01*
X17100Y21089D01*
X17099Y21020D01*
X17111Y20953D01*
X17137Y20889D01*
X17174Y20831D01*
X17180Y20825D01*
X17141Y20769D01*
X17114Y20706D01*
X17100Y20639D01*
X17099Y20570D01*
X17110Y20512D01*
X17053Y20535D01*
X16986Y20549D01*
X16918Y20550D01*
X16850Y20537D01*
X16787Y20511D01*
X16729Y20474D01*
X16680Y20426D01*
X16669Y20410D01*
X16307Y20410D01*
X15943Y20773D01*
X15925Y20789D01*
X15906Y20804D01*
X15905Y20805D01*
X15904Y20806D01*
X15883Y20817D01*
X15862Y20828D01*
X15861Y20829D01*
X15859Y20830D01*
X15836Y20837D01*
X15814Y20844D01*
X15812Y20844D01*
X15811Y20844D01*
X15787Y20847D01*
X15763Y20849D01*
X15760Y20849D01*
X15760Y20849D01*
X15760Y20849D01*
X15759Y20850D01*
X15517Y20850D01*
X15410Y20957D01*
X15410Y21300D01*
X15410Y21750D01*
X15407Y21773D01*
X15405Y21797D01*
X15405Y21799D01*
X15405Y21800D01*
X15398Y21823D01*
X15391Y21846D01*
X15390Y21847D01*
X15390Y21849D01*
X15379Y21870D01*
X15368Y21891D01*
X15367Y21892D01*
X15366Y21893D01*
X15351Y21912D01*
X15336Y21931D01*
X15334Y21933D01*
X15334Y21933D01*
X15334Y21933D01*
X15333Y21933D01*
X14210Y23057D01*
X14210Y23189D01*
X14216Y23195D01*
X14255Y23251D01*
X14283Y23313D01*
X14298Y23380D01*
X14300Y23459D01*
X14286Y23526D01*
X14260Y23590D01*
X14222Y23647D01*
X14174Y23695D01*
X14117Y23734D01*
X14053Y23760D01*
X13986Y23774D01*
X13918Y23775D01*
X13850Y23762D01*
X13787Y23736D01*
X13729Y23699D01*
X13680Y23651D01*
X13641Y23594D01*
X13614Y23531D01*
X13600Y23464D01*
X13599Y23395D01*
X13611Y23329D01*
X13592Y23310D01*
X13100Y23310D01*
X13076Y23307D01*
X13052Y23305D01*
X13050Y23305D01*
X13049Y23305D01*
X13026Y23298D01*
X13003Y23291D01*
X13002Y23290D01*
X13000Y23290D01*
X12979Y23279D01*
X12958Y23268D01*
X12957Y23267D01*
X12956Y23266D01*
X12937Y23251D01*
X12918Y23236D01*
X12916Y23234D01*
X12916Y23234D01*
X12916Y23234D01*
X12916Y23233D01*
X12730Y23047D01*
X12675Y23037D01*
X12612Y23011D01*
X12554Y22974D01*
X12505Y22926D01*
X12466Y22869D01*
X12462Y22860D01*
X12307Y22860D01*
X12260Y22907D01*
X12260Y23150D01*
X12257Y23173D01*
X12255Y23197D01*
X12255Y23199D01*
X12255Y23200D01*
X12248Y23223D01*
X12241Y23246D01*
X12240Y23247D01*
X12240Y23249D01*
X12229Y23270D01*
X12218Y23291D01*
X12217Y23292D01*
X12216Y23293D01*
X12201Y23312D01*
X12186Y23331D01*
X12184Y23333D01*
X12184Y23333D01*
X12184Y23333D01*
X12183Y23333D01*
X11983Y23533D01*
X11983Y23533D01*
X11983Y23533D01*
X11583Y23933D01*
X11565Y23949D01*
X11546Y23964D01*
X11545Y23965D01*
X11544Y23966D01*
X11523Y23977D01*
X11502Y23988D01*
X11501Y23989D01*
X11499Y23990D01*
X11476Y23997D01*
X11454Y24004D01*
X11452Y24004D01*
X11451Y24004D01*
X11427Y24007D01*
X11403Y24009D01*
X11400Y24009D01*
X11400Y24009D01*
X11400Y24009D01*
X11400Y24010D01*
X9707Y24010D01*
X9533Y24183D01*
X9533Y24183D01*
X9533Y24183D01*
X9233Y24483D01*
X9215Y24499D01*
X9196Y24514D01*
X9195Y24515D01*
X9194Y24516D01*
X9173Y24527D01*
X9152Y24538D01*
X9151Y24539D01*
X9149Y24540D01*
X9126Y24547D01*
X9104Y24554D01*
X9102Y24554D01*
X9101Y24554D01*
X9077Y24557D01*
X9053Y24559D01*
X9050Y24559D01*
X9050Y24559D01*
X9050Y24559D01*
X9050Y24560D01*
X8557Y24560D01*
X8233Y24883D01*
X8215Y24899D01*
X8196Y24914D01*
X8195Y24915D01*
X8194Y24916D01*
X8173Y24927D01*
X8152Y24938D01*
X8151Y24939D01*
X8149Y24940D01*
X8126Y24947D01*
X8104Y24954D01*
X8102Y24954D01*
X8101Y24954D01*
X8077Y24957D01*
X8053Y24959D01*
X8050Y24959D01*
X8050Y24959D01*
X8050Y24959D01*
X8050Y24960D01*
X7600Y24960D01*
X7576Y24957D01*
X7552Y24955D01*
X7550Y24955D01*
X7549Y24955D01*
X7526Y24948D01*
X7503Y24941D01*
X7502Y24940D01*
X7500Y24940D01*
X7479Y24929D01*
X7458Y24918D01*
X7457Y24917D01*
X7456Y24916D01*
X7437Y24901D01*
X7418Y24886D01*
X7416Y24884D01*
X7416Y24884D01*
X7416Y24884D01*
X7416Y24883D01*
X7266Y24733D01*
X7250Y24715D01*
X7235Y24696D01*
X7234Y24695D01*
X7233Y24694D01*
X7222Y24673D01*
X7211Y24652D01*
X7210Y24651D01*
X7209Y24649D01*
X7202Y24626D01*
X7195Y24604D01*
X7195Y24602D01*
X7195Y24601D01*
X7192Y24577D01*
X7190Y24553D01*
X7190Y24550D01*
X7190Y24550D01*
X7190Y24550D01*
X7190Y24550D01*
X7190Y24260D01*
X7112Y24260D01*
X7112Y29763D01*
X7093Y29931D01*
X7042Y30091D01*
X6976Y30215D01*
X6867Y30297D01*
X6797Y30226D01*
X6797Y30367D01*
X6715Y30476D01*
X6565Y30552D01*
X6403Y30598D01*
X6236Y30612D01*
X6068Y30593D01*
X5908Y30542D01*
X5784Y30476D01*
X5702Y30367D01*
X6250Y29820D01*
X6797Y30367D01*
X6797Y30226D01*
X6320Y29750D01*
X6867Y29202D01*
X6976Y29284D01*
X7052Y29434D01*
X7098Y29596D01*
X7112Y29763D01*
X7112Y24260D01*
X6797Y24260D01*
X6797Y29132D01*
X6250Y29679D01*
X6179Y29608D01*
X6179Y29750D01*
X5632Y30297D01*
X5523Y30215D01*
X5447Y30065D01*
X5401Y29903D01*
X5387Y29736D01*
X5406Y29568D01*
X5457Y29408D01*
X5523Y29284D01*
X5632Y29202D01*
X6179Y29750D01*
X6179Y29608D01*
X5702Y29132D01*
X5784Y29023D01*
X5934Y28947D01*
X6096Y28901D01*
X6263Y28887D01*
X6431Y28906D01*
X6591Y28957D01*
X6715Y29023D01*
X6797Y29132D01*
X6797Y24260D01*
X6250Y24260D01*
X6226Y24257D01*
X6202Y24255D01*
X6200Y24255D01*
X6199Y24255D01*
X6176Y24248D01*
X6153Y24241D01*
X6152Y24240D01*
X6150Y24240D01*
X6129Y24229D01*
X6108Y24218D01*
X6107Y24217D01*
X6106Y24216D01*
X6087Y24201D01*
X6068Y24186D01*
X6066Y24184D01*
X6066Y24184D01*
X6066Y24184D01*
X6066Y24183D01*
X5016Y23133D01*
X5000Y23115D01*
X4985Y23096D01*
X4984Y23095D01*
X4983Y23094D01*
X4972Y23073D01*
X4961Y23052D01*
X4960Y23051D01*
X4959Y23049D01*
X4952Y23026D01*
X4945Y23004D01*
X4945Y23002D01*
X4945Y23001D01*
X4942Y22977D01*
X4940Y22953D01*
X4940Y22950D01*
X4940Y22950D01*
X4940Y22950D01*
X4940Y22950D01*
X4940Y22407D01*
X4892Y22360D01*
X4650Y22360D01*
X4626Y22357D01*
X4602Y22355D01*
X4600Y22355D01*
X4599Y22355D01*
X4576Y22348D01*
X4553Y22341D01*
X4552Y22340D01*
X4550Y22340D01*
X4529Y22329D01*
X4508Y22318D01*
X4507Y22317D01*
X4506Y22316D01*
X4487Y22301D01*
X4468Y22286D01*
X4466Y22284D01*
X4466Y22284D01*
X4466Y22284D01*
X4466Y22283D01*
X4042Y21860D01*
X3700Y21860D01*
X3676Y21857D01*
X3652Y21855D01*
X3650Y21855D01*
X3649Y21855D01*
X3626Y21848D01*
X3603Y21841D01*
X3602Y21840D01*
X3600Y21840D01*
X3579Y21829D01*
X3558Y21818D01*
X3557Y21817D01*
X3556Y21816D01*
X3537Y21801D01*
X3518Y21786D01*
X3516Y21784D01*
X3516Y21784D01*
X3516Y21784D01*
X3516Y21783D01*
X3266Y21533D01*
X3250Y21515D01*
X3235Y21496D01*
X3234Y21495D01*
X3233Y21494D01*
X3222Y21473D01*
X3211Y21452D01*
X3210Y21451D01*
X3209Y21449D01*
X3202Y21426D01*
X3195Y21404D01*
X3195Y21402D01*
X3195Y21401D01*
X3192Y21377D01*
X3190Y21353D01*
X3190Y21350D01*
X3190Y21350D01*
X3190Y21350D01*
X3190Y21350D01*
X3190Y20907D01*
X2666Y20383D01*
X2650Y20365D01*
X2635Y20346D01*
X2634Y20345D01*
X2633Y20344D01*
X2622Y20323D01*
X2611Y20302D01*
X2610Y20301D01*
X2609Y20299D01*
X2602Y20276D01*
X2595Y20254D01*
X2595Y20252D01*
X2595Y20251D01*
X2592Y20227D01*
X2590Y20203D01*
X2590Y20200D01*
X2590Y20200D01*
X2590Y20200D01*
X2590Y20200D01*
X2590Y19800D01*
X2592Y19776D01*
X2594Y19752D01*
X2594Y19750D01*
X2594Y19749D01*
X2601Y19726D01*
X2608Y19703D01*
X2609Y19702D01*
X2609Y19700D01*
X2620Y19679D01*
X2631Y19658D01*
X2632Y19657D01*
X2633Y19656D01*
X2648Y19637D01*
X2663Y19618D01*
X2665Y19616D01*
X2665Y19616D01*
X2665Y19616D01*
X2666Y19616D01*
X2966Y19316D01*
X2984Y19300D01*
X3003Y19285D01*
X3004Y19284D01*
X3005Y19283D01*
X3026Y19272D01*
X3047Y19261D01*
X3048Y19260D01*
X3050Y19259D01*
X3073Y19252D01*
X3095Y19245D01*
X3097Y19245D01*
X3098Y19245D01*
X3122Y19242D01*
X3146Y19240D01*
X3149Y19240D01*
X3149Y19240D01*
X3149Y19240D01*
X3150Y19240D01*
X4142Y19240D01*
X5216Y18166D01*
X5234Y18150D01*
X5253Y18135D01*
X5254Y18134D01*
X5255Y18133D01*
X5276Y18122D01*
X5297Y18111D01*
X5298Y18110D01*
X5300Y18109D01*
X5323Y18102D01*
X5345Y18095D01*
X5347Y18095D01*
X5348Y18095D01*
X5372Y18092D01*
X5396Y18090D01*
X5399Y18090D01*
X5399Y18090D01*
X5399Y18090D01*
X5400Y18090D01*
X6842Y18090D01*
X8090Y16842D01*
X8090Y15250D01*
X8090Y14200D01*
X8092Y14176D01*
X8094Y14152D01*
X8094Y14150D01*
X8094Y14149D01*
X8101Y14126D01*
X8108Y14103D01*
X8109Y14102D01*
X8109Y14100D01*
X8120Y14079D01*
X8131Y14058D01*
X8132Y14057D01*
X8133Y14056D01*
X8148Y14037D01*
X8163Y14018D01*
X8165Y14016D01*
X8165Y14016D01*
X8165Y14016D01*
X8166Y14016D01*
X8766Y13416D01*
X8784Y13400D01*
X8803Y13385D01*
X8804Y13384D01*
X8805Y13383D01*
X8826Y13372D01*
X8847Y13361D01*
X8848Y13360D01*
X8850Y13359D01*
X8873Y13352D01*
X8895Y13345D01*
X8897Y13345D01*
X8898Y13345D01*
X8922Y13342D01*
X8946Y13340D01*
X8949Y13340D01*
X8949Y13340D01*
X8949Y13340D01*
X8950Y13340D01*
X11100Y13340D01*
X11742Y13340D01*
X12216Y12866D01*
X12234Y12850D01*
X12253Y12835D01*
X12254Y12834D01*
X12255Y12833D01*
X12276Y12822D01*
X12297Y12811D01*
X12298Y12810D01*
X12300Y12809D01*
X12323Y12802D01*
X12345Y12795D01*
X12347Y12795D01*
X12348Y12795D01*
X12372Y12792D01*
X12396Y12790D01*
X12399Y12790D01*
X12399Y12790D01*
X12399Y12790D01*
X12400Y12790D01*
X14940Y12790D01*
X14940Y12657D01*
X14532Y12250D01*
X14518Y12250D01*
X14450Y12237D01*
X14387Y12211D01*
X14329Y12174D01*
X14280Y12126D01*
X14241Y12069D01*
X14214Y12006D01*
X14200Y11939D01*
X14199Y11870D01*
X14211Y11803D01*
X14237Y11739D01*
X14274Y11681D01*
X14322Y11632D01*
X14378Y11592D01*
X14441Y11565D01*
X14508Y11550D01*
X14576Y11549D01*
X14644Y11561D01*
X14708Y11586D01*
X14749Y11612D01*
X14749Y10217D01*
X13182Y8650D01*
X13168Y8650D01*
X13100Y8637D01*
X13037Y8611D01*
X12979Y8574D01*
X12930Y8526D01*
X12891Y8469D01*
X12864Y8406D01*
X12850Y8339D01*
X12849Y8270D01*
X12861Y8203D01*
X12887Y8139D01*
X12924Y8081D01*
X12972Y8032D01*
X13028Y7992D01*
X13091Y7965D01*
X13158Y7950D01*
X13226Y7949D01*
X13294Y7961D01*
X13358Y7986D01*
X13416Y8022D01*
X13466Y8070D01*
X13505Y8126D01*
X13533Y8188D01*
X13548Y8255D01*
X13549Y8281D01*
X14990Y9722D01*
X14990Y8907D01*
X14966Y8883D01*
X14966Y8883D01*
X14482Y8400D01*
X14468Y8400D01*
X14400Y8387D01*
X14337Y8361D01*
X14279Y8324D01*
X14230Y8276D01*
X14191Y8219D01*
X14164Y8156D01*
X14150Y8089D01*
X14149Y8020D01*
X14161Y7953D01*
X14187Y7889D01*
X14224Y7831D01*
X14272Y7782D01*
X14328Y7742D01*
X14391Y7715D01*
X14458Y7700D01*
X14526Y7699D01*
X14594Y7711D01*
X14658Y7736D01*
X14716Y7772D01*
X14766Y7820D01*
X14805Y7876D01*
X14833Y7938D01*
X14848Y8005D01*
X14849Y8031D01*
X15240Y8422D01*
X15240Y8285D01*
X15230Y8276D01*
X15191Y8219D01*
X15164Y8156D01*
X15150Y8089D01*
X15149Y8020D01*
X15161Y7953D01*
X15187Y7889D01*
X15224Y7831D01*
X15272Y7782D01*
X15328Y7742D01*
X15391Y7715D01*
X15458Y7700D01*
X15526Y7699D01*
X15594Y7711D01*
X15658Y7736D01*
X15716Y7772D01*
X15766Y7820D01*
X15805Y7876D01*
X15833Y7938D01*
X15848Y8005D01*
X15850Y8084D01*
X15836Y8151D01*
X15810Y8215D01*
X15772Y8272D01*
X15760Y8284D01*
X15760Y8700D01*
X15760Y11394D01*
X15772Y11382D01*
X15828Y11342D01*
X15891Y11315D01*
X15958Y11300D01*
X16026Y11299D01*
X16094Y11311D01*
X16158Y11336D01*
X16216Y11372D01*
X16266Y11420D01*
X16305Y11476D01*
X16311Y11490D01*
X16600Y11490D01*
X16623Y11492D01*
X16647Y11494D01*
X16649Y11494D01*
X16650Y11494D01*
X16673Y11501D01*
X16696Y11508D01*
X16697Y11509D01*
X16699Y11509D01*
X16720Y11520D01*
X16741Y11531D01*
X16742Y11532D01*
X16743Y11533D01*
X16762Y11548D01*
X16781Y11563D01*
X16783Y11565D01*
X16783Y11565D01*
X16783Y11565D01*
X16783Y11566D01*
X16983Y11766D01*
X16999Y11784D01*
X17014Y11803D01*
X17015Y11804D01*
X17016Y11805D01*
X17027Y11826D01*
X17038Y11847D01*
X17039Y11848D01*
X17040Y11850D01*
X17047Y11873D01*
X17054Y11895D01*
X17054Y11897D01*
X17054Y11898D01*
X17057Y11922D01*
X17059Y11946D01*
X17059Y11949D01*
X17059Y11949D01*
X17059Y11949D01*
X17060Y11950D01*
X17060Y12092D01*
X18057Y13090D01*
X18150Y13090D01*
X18600Y13090D01*
X18623Y13092D01*
X18647Y13094D01*
X18649Y13094D01*
X18650Y13094D01*
X18673Y13101D01*
X18696Y13108D01*
X18697Y13109D01*
X18699Y13109D01*
X18720Y13120D01*
X18741Y13131D01*
X18742Y13132D01*
X18743Y13133D01*
X18762Y13148D01*
X18781Y13163D01*
X18783Y13165D01*
X18783Y13165D01*
X18783Y13165D01*
X18783Y13166D01*
X19483Y13866D01*
X19499Y13884D01*
X19514Y13903D01*
X19515Y13904D01*
X19516Y13905D01*
X19527Y13926D01*
X19538Y13947D01*
X19539Y13948D01*
X19540Y13950D01*
X19547Y13973D01*
X19554Y13995D01*
X19554Y13997D01*
X19554Y13998D01*
X19557Y14022D01*
X19559Y14046D01*
X19559Y14049D01*
X19559Y14049D01*
X19559Y14049D01*
X19560Y14050D01*
X19560Y15092D01*
X19809Y15342D01*
X19825Y15360D01*
X19840Y15379D01*
X19841Y15380D01*
X19842Y15381D01*
X19853Y15402D01*
X19864Y15423D01*
X19865Y15424D01*
X19866Y15426D01*
X19873Y15449D01*
X19880Y15471D01*
X19880Y15473D01*
X19880Y15474D01*
X19883Y15498D01*
X19885Y15522D01*
X19885Y15525D01*
X19885Y15525D01*
X19885Y15525D01*
X19885Y15525D01*
X19885Y16614D01*
X19892Y16620D01*
X19931Y16676D01*
X19959Y16738D01*
X19974Y16805D01*
X19975Y16884D01*
X19962Y16951D01*
X19936Y17015D01*
X19935Y17017D01*
X20017Y17099D01*
X20532Y17099D01*
X20916Y16716D01*
X20934Y16700D01*
X20953Y16685D01*
X20954Y16684D01*
X20955Y16683D01*
X20976Y16672D01*
X20997Y16661D01*
X20998Y16660D01*
X21000Y16659D01*
X21023Y16652D01*
X21045Y16645D01*
X21047Y16645D01*
X21048Y16645D01*
X21072Y16642D01*
X21096Y16640D01*
X21099Y16640D01*
X21099Y16640D01*
X21099Y16640D01*
X21100Y16640D01*
X21900Y16640D01*
X21923Y16642D01*
X21947Y16644D01*
X21949Y16644D01*
X21950Y16644D01*
X21973Y16651D01*
X21996Y16658D01*
X21997Y16659D01*
X21999Y16659D01*
X22020Y16670D01*
X22041Y16681D01*
X22042Y16682D01*
X22043Y16683D01*
X22062Y16698D01*
X22081Y16713D01*
X22083Y16715D01*
X22083Y16715D01*
X22083Y16715D01*
X22083Y16716D01*
X22283Y16916D01*
X22299Y16934D01*
X22314Y16953D01*
X22315Y16954D01*
X22316Y16955D01*
X22327Y16976D01*
X22338Y16997D01*
X22339Y16998D01*
X22340Y17000D01*
X22347Y17023D01*
X22354Y17045D01*
X22354Y17047D01*
X22354Y17048D01*
X22357Y17072D01*
X22359Y17096D01*
X22359Y17099D01*
X22359Y17099D01*
X22359Y17099D01*
X22360Y17100D01*
X22360Y17400D01*
X22357Y17423D01*
X22355Y17447D01*
X22355Y17449D01*
X22355Y17450D01*
X22348Y17473D01*
X22341Y17496D01*
X22340Y17497D01*
X22340Y17499D01*
X22329Y17520D01*
X22318Y17541D01*
X22317Y17542D01*
X22316Y17543D01*
X22301Y17562D01*
X22286Y17581D01*
X22284Y17583D01*
X22284Y17583D01*
X22284Y17583D01*
X22283Y17583D01*
X21610Y18257D01*
X21610Y20742D01*
X22517Y21649D01*
X22526Y21649D01*
X22594Y21661D01*
X22658Y21686D01*
X22716Y21722D01*
X22766Y21770D01*
X22805Y21826D01*
X22833Y21888D01*
X22848Y21955D01*
X22850Y22034D01*
X22836Y22101D01*
X22810Y22165D01*
X22772Y22222D01*
X22724Y22270D01*
X22667Y22309D01*
X22603Y22335D01*
X22536Y22349D01*
X22468Y22350D01*
X22400Y22337D01*
X22337Y22311D01*
X22279Y22274D01*
X22230Y22226D01*
X22191Y22169D01*
X22164Y22106D01*
X22150Y22039D01*
X22150Y22017D01*
X21166Y21033D01*
X21150Y21015D01*
X21135Y20996D01*
X21134Y20995D01*
X21133Y20994D01*
X21122Y20973D01*
X21111Y20952D01*
X21110Y20951D01*
X21109Y20949D01*
X21102Y20926D01*
X21095Y20904D01*
X21095Y20902D01*
X21095Y20901D01*
X21092Y20877D01*
X21090Y20853D01*
X21090Y20850D01*
X21090Y20850D01*
X21090Y20850D01*
X21090Y20850D01*
X21090Y18150D01*
X21092Y18126D01*
X21093Y18110D01*
X20357Y18110D01*
X20110Y18357D01*
X20110Y19400D01*
X20107Y19423D01*
X20105Y19447D01*
X20105Y19449D01*
X20105Y19450D01*
X20098Y19473D01*
X20091Y19496D01*
X20090Y19497D01*
X20090Y19499D01*
X20079Y19520D01*
X20068Y19541D01*
X20067Y19542D01*
X20066Y19543D01*
X20051Y19562D01*
X20036Y19581D01*
X20034Y19583D01*
X20034Y19583D01*
X20034Y19583D01*
X20033Y19583D01*
X19333Y20283D01*
X19315Y20299D01*
X19296Y20314D01*
X19295Y20315D01*
X19294Y20316D01*
X19273Y20327D01*
X19252Y20338D01*
X19251Y20339D01*
X19249Y20340D01*
X19226Y20347D01*
X19204Y20354D01*
X19202Y20354D01*
X19201Y20354D01*
X19177Y20357D01*
X19153Y20359D01*
X19150Y20359D01*
X19150Y20359D01*
X19150Y20359D01*
X19150Y20360D01*
X18513Y20360D01*
X18517Y20366D01*
X18528Y20387D01*
X18529Y20388D01*
X18530Y20390D01*
X18537Y20413D01*
X18544Y20435D01*
X18544Y20437D01*
X18544Y20438D01*
X18547Y20462D01*
X18549Y20486D01*
X18549Y20489D01*
X18549Y20489D01*
X18549Y20489D01*
X18550Y20490D01*
X18550Y21770D01*
X19069Y21770D01*
X19093Y21772D01*
X19117Y21774D01*
X19118Y21775D01*
X19120Y21775D01*
X19143Y21782D01*
X19166Y21788D01*
X19167Y21789D01*
X19168Y21789D01*
X19189Y21801D01*
X19211Y21812D01*
X19212Y21813D01*
X19213Y21813D01*
X19232Y21828D01*
X19250Y21843D01*
X19252Y21845D01*
X19252Y21845D01*
X19252Y21845D01*
X19253Y21846D01*
X19797Y22390D01*
X22050Y22390D01*
X22073Y22392D01*
X22097Y22394D01*
X22099Y22394D01*
X22100Y22394D01*
X22123Y22401D01*
X22146Y22408D01*
X22147Y22409D01*
X22149Y22409D01*
X22170Y22420D01*
X22191Y22431D01*
X22192Y22432D01*
X22193Y22433D01*
X22212Y22448D01*
X22231Y22463D01*
X22233Y22465D01*
X22233Y22465D01*
X22233Y22465D01*
X22233Y22466D01*
X22650Y22883D01*
X22658Y22886D01*
X22716Y22922D01*
X22766Y22970D01*
X22805Y23026D01*
X22828Y23078D01*
X22965Y22942D01*
X22965Y21382D01*
X22171Y20588D01*
X22155Y20570D01*
X22140Y20551D01*
X22139Y20550D01*
X22138Y20549D01*
X22127Y20528D01*
X22116Y20507D01*
X22115Y20506D01*
X22114Y20504D01*
X22107Y20481D01*
X22100Y20459D01*
X22100Y20457D01*
X22100Y20456D01*
X22097Y20432D01*
X22095Y20408D01*
X22095Y20405D01*
X22095Y20405D01*
X22095Y20405D01*
X22095Y20405D01*
X22095Y20045D01*
X22097Y20021D01*
X22099Y19997D01*
X22099Y19995D01*
X22099Y19994D01*
X22106Y19971D01*
X22113Y19948D01*
X22114Y19947D01*
X22114Y19945D01*
X22125Y19924D01*
X22136Y19903D01*
X22137Y19902D01*
X22138Y19901D01*
X22153Y19882D01*
X22168Y19863D01*
X22170Y19861D01*
X22170Y19861D01*
X22170Y19861D01*
X22171Y19861D01*
X22740Y19292D01*
X22740Y15607D01*
X21392Y14260D01*
X21000Y14260D01*
X20300Y14260D01*
X20276Y14257D01*
X20252Y14255D01*
X20250Y14255D01*
X20249Y14255D01*
X20226Y14248D01*
X20203Y14241D01*
X20202Y14240D01*
X20200Y14240D01*
X20179Y14229D01*
X20158Y14218D01*
X20157Y14217D01*
X20156Y14216D01*
X20137Y14201D01*
X20118Y14186D01*
X20116Y14184D01*
X20116Y14184D01*
X20116Y14184D01*
X20116Y14183D01*
X18466Y12533D01*
X18450Y12515D01*
X18435Y12496D01*
X18434Y12495D01*
X18433Y12494D01*
X18422Y12473D01*
X18411Y12452D01*
X18410Y12451D01*
X18409Y12449D01*
X18402Y12426D01*
X18395Y12404D01*
X18395Y12402D01*
X18395Y12401D01*
X18392Y12377D01*
X18390Y12353D01*
X18390Y12350D01*
X18390Y12350D01*
X18390Y12350D01*
X18390Y12350D01*
X18390Y11300D01*
X18390Y10550D01*
X18390Y9900D01*
X18368Y9900D01*
X18300Y9887D01*
X18237Y9861D01*
X18179Y9824D01*
X18130Y9776D01*
X18091Y9719D01*
X18064Y9656D01*
X18050Y9589D01*
X18049Y9520D01*
X18061Y9453D01*
X18087Y9389D01*
X18124Y9331D01*
X18154Y9299D01*
X18130Y9276D01*
X18091Y9219D01*
X18064Y9156D01*
X18050Y9089D01*
X18049Y9020D01*
X18061Y8953D01*
X18087Y8889D01*
X18124Y8831D01*
X18154Y8799D01*
X18130Y8776D01*
X18091Y8719D01*
X18064Y8656D01*
X18050Y8589D01*
X18049Y8520D01*
X18061Y8453D01*
X18087Y8389D01*
X18124Y8331D01*
X18172Y8282D01*
X18228Y8242D01*
X18291Y8215D01*
X18358Y8200D01*
X18426Y8199D01*
X18494Y8211D01*
X18558Y8236D01*
X18616Y8272D01*
X18666Y8320D01*
X18705Y8376D01*
X18733Y8438D01*
X18748Y8505D01*
X18749Y8531D01*
X19383Y9166D01*
X19399Y9184D01*
X19414Y9203D01*
X19415Y9204D01*
X19416Y9205D01*
X19427Y9226D01*
X19438Y9247D01*
X19439Y9248D01*
X19440Y9250D01*
X19447Y9273D01*
X19454Y9295D01*
X19454Y9297D01*
X19454Y9298D01*
X19457Y9322D01*
X19459Y9346D01*
X19459Y9349D01*
X19459Y9349D01*
X19459Y9349D01*
X19460Y9350D01*
X19460Y9450D01*
X19460Y10650D01*
X19460Y11250D01*
X19460Y12042D01*
X20657Y13240D01*
X21700Y13240D01*
X21800Y13240D01*
X21823Y13242D01*
X21847Y13244D01*
X21849Y13244D01*
X21850Y13244D01*
X21873Y13251D01*
X21896Y13258D01*
X21897Y13259D01*
X21899Y13259D01*
X21920Y13270D01*
X21941Y13281D01*
X21942Y13282D01*
X21943Y13283D01*
X21962Y13298D01*
X21981Y13313D01*
X21983Y13315D01*
X21983Y13315D01*
X21983Y13315D01*
X21983Y13316D01*
X23743Y15076D01*
X23759Y15094D01*
X23774Y15113D01*
X23775Y15114D01*
X23776Y15115D01*
X23787Y15136D01*
X23798Y15157D01*
X23799Y15158D01*
X23800Y15160D01*
X23807Y15183D01*
X23814Y15205D01*
X23814Y15207D01*
X23814Y15208D01*
X23817Y15232D01*
X23819Y15256D01*
X23819Y15259D01*
X23819Y15259D01*
X23819Y15259D01*
X23820Y15260D01*
X23820Y15950D01*
X23820Y16598D01*
X23828Y16592D01*
X23891Y16565D01*
X23958Y16550D01*
X24026Y16549D01*
X24094Y16561D01*
X24158Y16586D01*
X24216Y16622D01*
X24266Y16670D01*
X24305Y16726D01*
X24333Y16788D01*
X24341Y16823D01*
X24533Y17016D01*
X24549Y17034D01*
X24564Y17053D01*
X24565Y17054D01*
X24566Y17055D01*
X24577Y17076D01*
X24588Y17097D01*
X24589Y17098D01*
X24590Y17100D01*
X24597Y17123D01*
X24604Y17145D01*
X24604Y17147D01*
X24604Y17148D01*
X24607Y17172D01*
X24609Y17196D01*
X24609Y17199D01*
X24609Y17199D01*
X24609Y17199D01*
X24610Y17200D01*
X24610Y18086D01*
X24666Y18122D01*
X24716Y18170D01*
X24755Y18226D01*
X24783Y18288D01*
X24798Y18355D01*
X24800Y18434D01*
X24786Y18501D01*
X24760Y18565D01*
X24722Y18622D01*
X24674Y18670D01*
X24617Y18709D01*
X24553Y18735D01*
X24486Y18749D01*
X24418Y18750D01*
X24350Y18737D01*
X24287Y18711D01*
X24229Y18674D01*
X24225Y18669D01*
X24224Y18670D01*
X24167Y18709D01*
X24103Y18735D01*
X24036Y18749D01*
X23968Y18750D01*
X23900Y18737D01*
X23837Y18711D01*
X23820Y18700D01*
X23820Y19112D01*
X25283Y20576D01*
X25299Y20594D01*
X25314Y20613D01*
X25315Y20614D01*
X25316Y20615D01*
X25327Y20636D01*
X25338Y20657D01*
X25339Y20658D01*
X25340Y20660D01*
X25347Y20683D01*
X25354Y20705D01*
X25354Y20707D01*
X25354Y20708D01*
X25357Y20732D01*
X25359Y20756D01*
X25359Y20759D01*
X25359Y20759D01*
X25359Y20759D01*
X25360Y20760D01*
X25360Y11828D01*
X25008Y11181D01*
X25002Y11178D01*
X24932Y11132D01*
X24872Y11074D01*
X24825Y11005D01*
X24819Y10990D01*
X24612Y10875D01*
X24612Y12263D01*
X24593Y12431D01*
X24542Y12591D01*
X24476Y12715D01*
X24367Y12797D01*
X24297Y12726D01*
X24297Y12867D01*
X24215Y12976D01*
X24065Y13052D01*
X23903Y13098D01*
X23736Y13112D01*
X23568Y13093D01*
X23408Y13042D01*
X23284Y12976D01*
X23202Y12867D01*
X23750Y12320D01*
X24297Y12867D01*
X24297Y12726D01*
X23820Y12250D01*
X24367Y11702D01*
X24476Y11784D01*
X24552Y11934D01*
X24598Y12096D01*
X24612Y12263D01*
X24612Y10875D01*
X24297Y10698D01*
X24297Y11632D01*
X23750Y12179D01*
X23679Y12108D01*
X23679Y12250D01*
X23132Y12797D01*
X23023Y12715D01*
X22947Y12565D01*
X22901Y12403D01*
X22887Y12236D01*
X22906Y12068D01*
X22957Y11908D01*
X23023Y11784D01*
X23132Y11702D01*
X23679Y12250D01*
X23679Y12108D01*
X23202Y11632D01*
X23284Y11523D01*
X23434Y11447D01*
X23596Y11401D01*
X23763Y11387D01*
X23931Y11406D01*
X24091Y11457D01*
X24215Y11523D01*
X24297Y11632D01*
X24297Y10698D01*
X22289Y9576D01*
X22289Y10110D01*
X22285Y10143D01*
X22283Y10175D01*
X22282Y10177D01*
X22282Y10178D01*
X22273Y10209D01*
X22264Y10240D01*
X22263Y10242D01*
X22262Y10244D01*
X22247Y10272D01*
X22232Y10301D01*
X22231Y10302D01*
X22230Y10304D01*
X22210Y10329D01*
X22190Y10354D01*
X22187Y10357D01*
X22187Y10357D01*
X22187Y10357D01*
X22186Y10358D01*
X20968Y11576D01*
X20958Y11623D01*
X20927Y11700D01*
X20880Y11769D01*
X20822Y11829D01*
X20753Y11875D01*
X20676Y11907D01*
X20594Y11924D01*
X20511Y11925D01*
X20429Y11909D01*
X20352Y11878D01*
X20282Y11832D01*
X20222Y11774D01*
X20175Y11705D01*
X20142Y11629D01*
X20125Y11547D01*
X20124Y11464D01*
X20139Y11382D01*
X20170Y11304D01*
X20215Y11234D01*
X20273Y11174D01*
X20341Y11127D01*
X20418Y11093D01*
X20473Y11081D01*
X21589Y9965D01*
X21589Y9187D01*
X18792Y7624D01*
X18711Y7625D01*
X18629Y7609D01*
X18603Y7599D01*
X11543Y7648D01*
X11503Y7675D01*
X11426Y7707D01*
X11344Y7724D01*
X11261Y7725D01*
X11233Y7720D01*
X7112Y9783D01*
X7112Y12263D01*
X7093Y12431D01*
X7042Y12591D01*
X6976Y12715D01*
X6867Y12797D01*
X6797Y12726D01*
X6797Y12867D01*
X6715Y12976D01*
X6565Y13052D01*
X6403Y13098D01*
X6236Y13112D01*
X6068Y13093D01*
X5908Y13042D01*
X5784Y12976D01*
X5702Y12867D01*
X6250Y12320D01*
X6797Y12867D01*
X6797Y12726D01*
X6320Y12250D01*
X6867Y11702D01*
X6976Y11784D01*
X7052Y11934D01*
X7098Y12096D01*
X7112Y12263D01*
X7112Y9783D01*
X6797Y9941D01*
X6797Y11632D01*
X6250Y12179D01*
X6179Y12108D01*
X6179Y12250D01*
X5632Y12797D01*
X5523Y12715D01*
X5447Y12565D01*
X5401Y12403D01*
X5387Y12236D01*
X5406Y12068D01*
X5457Y11908D01*
X5523Y11784D01*
X5632Y11702D01*
X6179Y12250D01*
X6179Y12108D01*
X5702Y11632D01*
X5784Y11523D01*
X5934Y11447D01*
X6096Y11401D01*
X6263Y11387D01*
X6431Y11406D01*
X6591Y11457D01*
X6715Y11523D01*
X6797Y11632D01*
X6797Y9941D01*
X5574Y10553D01*
X5530Y10619D01*
X5472Y10679D01*
X5403Y10725D01*
X5378Y10735D01*
X1473Y17418D01*
X1475Y17491D01*
X1458Y17573D01*
X1427Y17650D01*
X1404Y17683D01*
X1484Y21468D01*
X1491Y21465D01*
X1558Y21450D01*
X1626Y21449D01*
X1694Y21461D01*
X1758Y21486D01*
X1816Y21522D01*
X1866Y21570D01*
X1905Y21626D01*
X1933Y21688D01*
X1945Y21740D01*
X2314Y21740D01*
X2322Y21732D01*
X2378Y21692D01*
X2441Y21665D01*
X2508Y21650D01*
X2576Y21649D01*
X2644Y21661D01*
X2708Y21686D01*
X2766Y21722D01*
X2816Y21770D01*
X2855Y21826D01*
X2883Y21888D01*
X2898Y21955D01*
X2900Y22034D01*
X2886Y22101D01*
X2860Y22165D01*
X2822Y22222D01*
X2774Y22270D01*
X2717Y22309D01*
X2653Y22335D01*
X2586Y22349D01*
X2518Y22350D01*
X2450Y22337D01*
X2387Y22311D01*
X2329Y22274D01*
X2315Y22260D01*
X1800Y22260D01*
X1776Y22257D01*
X1752Y22255D01*
X1750Y22255D01*
X1749Y22255D01*
X1726Y22248D01*
X1703Y22241D01*
X1702Y22240D01*
X1700Y22240D01*
X1679Y22229D01*
X1658Y22218D01*
X1657Y22217D01*
X1656Y22216D01*
X1637Y22201D01*
X1618Y22186D01*
X1616Y22184D01*
X1616Y22184D01*
X1616Y22184D01*
X1616Y22183D01*
X1582Y22150D01*
X1568Y22150D01*
X1500Y22137D01*
X1498Y22136D01*
X1551Y24660D01*
X1571Y24689D01*
X1605Y24765D01*
X1623Y24846D01*
X1625Y24941D01*
X4680Y30364D01*
X4692Y30368D01*
X4762Y30413D01*
X4823Y30470D01*
X4871Y30539D01*
X4886Y30572D01*
X11432Y34475D01*
X11482Y34474D01*
X11564Y34488D01*
X11642Y34518D01*
X11689Y34548D01*
X18457Y34501D01*
X18491Y34477D01*
X18568Y34443D01*
X18649Y34425D01*
X18732Y34424D01*
X18741Y34425D01*
X25014Y30920D01*
X25020Y30904D01*
X25065Y30834D01*
X25123Y30774D01*
X25191Y30727D01*
X25196Y30724D01*
X28226Y24701D01*
X28225Y24697D01*
X28224Y24614D01*
X28239Y24532D01*
X28270Y24454D01*
X28300Y24408D01*
X28300Y20337D01*
X28267Y20359D01*
X28250Y20366D01*
X28250Y21034D01*
X28236Y21101D01*
X28210Y21165D01*
X28172Y21222D01*
X28124Y21270D01*
X28067Y21309D01*
X28003Y21335D01*
X27936Y21349D01*
X27868Y21350D01*
X27800Y21337D01*
X27737Y21311D01*
X27679Y21274D01*
X27630Y21226D01*
X27591Y21169D01*
X27587Y21160D01*
X26935Y21160D01*
X26924Y21170D01*
X26867Y21209D01*
X26803Y21235D01*
X26736Y21249D01*
X26668Y21250D01*
X26600Y21237D01*
X26537Y21211D01*
X26479Y21174D01*
X26430Y21126D01*
X26391Y21069D01*
X26364Y21006D01*
X26350Y20939D01*
X26349Y20870D01*
X26361Y20803D01*
X26387Y20739D01*
X26424Y20681D01*
X26472Y20632D01*
X26528Y20592D01*
X26591Y20565D01*
X26658Y20550D01*
X26726Y20549D01*
X26794Y20561D01*
X26858Y20586D01*
X26916Y20622D01*
X26934Y20640D01*
X27800Y20640D01*
X27823Y20642D01*
X27847Y20644D01*
X27849Y20644D01*
X27850Y20644D01*
X27869Y20650D01*
X27926Y20649D01*
X27994Y20661D01*
X28058Y20686D01*
X28116Y20722D01*
X28166Y20770D01*
X28205Y20826D01*
X28233Y20888D01*
X28248Y20955D01*
X28250Y21034D01*
X28250Y20366D01*
X28203Y20385D01*
X28136Y20399D01*
X28068Y20400D01*
X28000Y20387D01*
X27937Y20361D01*
X27879Y20324D01*
X27865Y20310D01*
X27435Y20310D01*
X27424Y20320D01*
X27367Y20359D01*
X27303Y20385D01*
X27236Y20399D01*
X27168Y20400D01*
X27100Y20387D01*
X27037Y20361D01*
X26979Y20324D01*
X26930Y20276D01*
X26891Y20219D01*
X26864Y20156D01*
X26850Y20089D01*
X26849Y20020D01*
X26861Y19953D01*
X26887Y19889D01*
X26924Y19831D01*
X26972Y19782D01*
X27028Y19742D01*
X27091Y19715D01*
X27158Y19700D01*
X27226Y19699D01*
X27294Y19711D01*
X27358Y19736D01*
X27416Y19772D01*
X27434Y19790D01*
X27864Y19790D01*
X27872Y19782D01*
X27928Y19742D01*
X27991Y19715D01*
X28058Y19700D01*
X28126Y19699D01*
X28194Y19711D01*
X28258Y19736D01*
X28300Y19762D01*
X28300Y17391D01*
X28300Y17391D01*
G37*
G54D19*
X28300Y17391D02*
X28275Y17355D01*
X28242Y17279D01*
X28225Y17197D01*
X28224Y17114D01*
X28225Y17106D01*
X25360Y11828D01*
X25360Y20760D01*
X25360Y21020D01*
X25360Y22275D01*
X25357Y22298D01*
X25355Y22322D01*
X25355Y22324D01*
X25355Y22325D01*
X25348Y22348D01*
X25341Y22371D01*
X25340Y22372D01*
X25340Y22374D01*
X25329Y22395D01*
X25318Y22416D01*
X25317Y22417D01*
X25316Y22418D01*
X25301Y22437D01*
X25286Y22456D01*
X25284Y22458D01*
X25284Y22458D01*
X25284Y22458D01*
X25283Y22458D01*
X24908Y22833D01*
X24890Y22849D01*
X24871Y22864D01*
X24870Y22865D01*
X24869Y22866D01*
X24848Y22877D01*
X24827Y22888D01*
X24826Y22889D01*
X24824Y22890D01*
X24801Y22897D01*
X24779Y22904D01*
X24777Y22904D01*
X24776Y22904D01*
X24752Y22907D01*
X24728Y22909D01*
X24725Y22909D01*
X24725Y22909D01*
X24725Y22909D01*
X24725Y22910D01*
X24612Y22910D01*
X24612Y29763D01*
X24593Y29931D01*
X24542Y30091D01*
X24476Y30215D01*
X24367Y30297D01*
X24297Y30226D01*
X24297Y30367D01*
X24215Y30476D01*
X24065Y30552D01*
X23903Y30598D01*
X23736Y30612D01*
X23568Y30593D01*
X23408Y30542D01*
X23284Y30476D01*
X23202Y30367D01*
X23750Y29820D01*
X24297Y30367D01*
X24297Y30226D01*
X23820Y29750D01*
X24367Y29202D01*
X24476Y29284D01*
X24552Y29434D01*
X24598Y29596D01*
X24612Y29763D01*
X24612Y22910D01*
X24507Y22910D01*
X24297Y23120D01*
X24297Y29132D01*
X23750Y29679D01*
X23679Y29608D01*
X23679Y29750D01*
X23132Y30297D01*
X23023Y30215D01*
X22947Y30065D01*
X22901Y29903D01*
X22887Y29736D01*
X22906Y29568D01*
X22957Y29408D01*
X23023Y29284D01*
X23132Y29202D01*
X23679Y29750D01*
X23679Y29608D01*
X23202Y29132D01*
X23284Y29023D01*
X23434Y28947D01*
X23596Y28901D01*
X23763Y28887D01*
X23931Y28906D01*
X24091Y28957D01*
X24215Y29023D01*
X24297Y29132D01*
X24297Y23120D01*
X23108Y24308D01*
X23090Y24324D01*
X23071Y24339D01*
X23070Y24340D01*
X23069Y24341D01*
X23048Y24352D01*
X23027Y24363D01*
X23026Y24364D01*
X23024Y24365D01*
X23001Y24372D01*
X22979Y24379D01*
X22977Y24379D01*
X22976Y24379D01*
X22952Y24382D01*
X22928Y24384D01*
X22925Y24384D01*
X22925Y24384D01*
X22925Y24384D01*
X22925Y24385D01*
X21682Y24385D01*
X21258Y24808D01*
X21240Y24824D01*
X21221Y24839D01*
X21220Y24840D01*
X21219Y24841D01*
X21198Y24852D01*
X21177Y24863D01*
X21176Y24864D01*
X21174Y24865D01*
X21151Y24872D01*
X21129Y24879D01*
X21127Y24879D01*
X21126Y24879D01*
X21102Y24882D01*
X21078Y24884D01*
X21075Y24884D01*
X21075Y24884D01*
X21075Y24884D01*
X21075Y24885D01*
X20500Y24885D01*
X20476Y24882D01*
X20452Y24880D01*
X20450Y24880D01*
X20449Y24880D01*
X20426Y24873D01*
X20403Y24866D01*
X20402Y24865D01*
X20400Y24865D01*
X20379Y24854D01*
X20358Y24843D01*
X20357Y24842D01*
X20356Y24841D01*
X20337Y24826D01*
X20318Y24811D01*
X20316Y24809D01*
X20316Y24809D01*
X20316Y24809D01*
X20316Y24808D01*
X19317Y23810D01*
X17522Y23810D01*
X17510Y23840D01*
X17472Y23897D01*
X17424Y23945D01*
X17367Y23984D01*
X17303Y24010D01*
X17236Y24024D01*
X17168Y24025D01*
X17100Y24012D01*
X17037Y23986D01*
X16979Y23949D01*
X16930Y23901D01*
X16891Y23844D01*
X16864Y23781D01*
X16850Y23714D01*
X16849Y23645D01*
X16861Y23578D01*
X16869Y23560D01*
X16650Y23560D01*
X16350Y23560D01*
X16326Y23557D01*
X16302Y23555D01*
X16300Y23555D01*
X16299Y23555D01*
X16276Y23548D01*
X16253Y23541D01*
X16252Y23540D01*
X16250Y23540D01*
X16229Y23529D01*
X16208Y23518D01*
X16207Y23517D01*
X16206Y23516D01*
X16187Y23501D01*
X16168Y23486D01*
X16166Y23484D01*
X16166Y23484D01*
X16166Y23484D01*
X16166Y23483D01*
X15682Y23000D01*
X15668Y23000D01*
X15600Y22987D01*
X15537Y22961D01*
X15479Y22924D01*
X15430Y22876D01*
X15391Y22819D01*
X15364Y22756D01*
X15350Y22689D01*
X15349Y22620D01*
X15361Y22553D01*
X15387Y22489D01*
X15424Y22431D01*
X15472Y22382D01*
X15528Y22342D01*
X15591Y22315D01*
X15658Y22300D01*
X15726Y22299D01*
X15794Y22311D01*
X15858Y22336D01*
X15916Y22372D01*
X15966Y22420D01*
X16005Y22476D01*
X16033Y22538D01*
X16048Y22605D01*
X16049Y22631D01*
X16457Y23040D01*
X16650Y23040D01*
X17672Y23040D01*
X17266Y22633D01*
X17250Y22615D01*
X17235Y22596D01*
X17234Y22595D01*
X17233Y22594D01*
X17222Y22573D01*
X17211Y22552D01*
X17210Y22551D01*
X17209Y22549D01*
X17202Y22526D01*
X17195Y22504D01*
X17195Y22502D01*
X17195Y22501D01*
X17192Y22477D01*
X17190Y22453D01*
X17190Y22450D01*
X17190Y22450D01*
X17190Y22450D01*
X17190Y22450D01*
X17190Y21285D01*
X17180Y21276D01*
X17141Y21219D01*
X17114Y21156D01*
X17100Y21089D01*
X17099Y21020D01*
X17111Y20953D01*
X17137Y20889D01*
X17174Y20831D01*
X17180Y20825D01*
X17141Y20769D01*
X17114Y20706D01*
X17100Y20639D01*
X17099Y20570D01*
X17110Y20512D01*
X17053Y20535D01*
X16986Y20549D01*
X16918Y20550D01*
X16850Y20537D01*
X16787Y20511D01*
X16729Y20474D01*
X16680Y20426D01*
X16669Y20410D01*
X16307Y20410D01*
X15943Y20773D01*
X15925Y20789D01*
X15906Y20804D01*
X15905Y20805D01*
X15904Y20806D01*
X15883Y20817D01*
X15862Y20828D01*
X15861Y20829D01*
X15859Y20830D01*
X15836Y20837D01*
X15814Y20844D01*
X15812Y20844D01*
X15811Y20844D01*
X15787Y20847D01*
X15763Y20849D01*
X15760Y20849D01*
X15760Y20849D01*
X15760Y20849D01*
X15759Y20850D01*
X15517Y20850D01*
X15410Y20957D01*
X15410Y21300D01*
X15410Y21750D01*
X15407Y21773D01*
X15405Y21797D01*
X15405Y21799D01*
X15405Y21800D01*
X15398Y21823D01*
X15391Y21846D01*
X15390Y21847D01*
X15390Y21849D01*
X15379Y21870D01*
X15368Y21891D01*
X15367Y21892D01*
X15366Y21893D01*
X15351Y21912D01*
X15336Y21931D01*
X15334Y21933D01*
X15334Y21933D01*
X15334Y21933D01*
X15333Y21933D01*
X14210Y23057D01*
X14210Y23189D01*
X14216Y23195D01*
X14255Y23251D01*
X14283Y23313D01*
X14298Y23380D01*
X14300Y23459D01*
X14286Y23526D01*
X14260Y23590D01*
X14222Y23647D01*
X14174Y23695D01*
X14117Y23734D01*
X14053Y23760D01*
X13986Y23774D01*
X13918Y23775D01*
X13850Y23762D01*
X13787Y23736D01*
X13729Y23699D01*
X13680Y23651D01*
X13641Y23594D01*
X13614Y23531D01*
X13600Y23464D01*
X13599Y23395D01*
X13611Y23329D01*
X13592Y23310D01*
X13100Y23310D01*
X13076Y23307D01*
X13052Y23305D01*
X13050Y23305D01*
X13049Y23305D01*
X13026Y23298D01*
X13003Y23291D01*
X13002Y23290D01*
X13000Y23290D01*
X12979Y23279D01*
X12958Y23268D01*
X12957Y23267D01*
X12956Y23266D01*
X12937Y23251D01*
X12918Y23236D01*
X12916Y23234D01*
X12916Y23234D01*
X12916Y23234D01*
X12916Y23233D01*
X12730Y23047D01*
X12675Y23037D01*
X12612Y23011D01*
X12554Y22974D01*
X12505Y22926D01*
X12466Y22869D01*
X12462Y22860D01*
X12307Y22860D01*
X12260Y22907D01*
X12260Y23150D01*
X12257Y23173D01*
X12255Y23197D01*
X12255Y23199D01*
X12255Y23200D01*
X12248Y23223D01*
X12241Y23246D01*
X12240Y23247D01*
X12240Y23249D01*
X12229Y23270D01*
X12218Y23291D01*
X12217Y23292D01*
X12216Y23293D01*
X12201Y23312D01*
X12186Y23331D01*
X12184Y23333D01*
X12184Y23333D01*
X12184Y23333D01*
X12183Y23333D01*
X11983Y23533D01*
X11983Y23533D01*
X11983Y23533D01*
X11583Y23933D01*
X11565Y23949D01*
X11546Y23964D01*
X11545Y23965D01*
X11544Y23966D01*
X11523Y23977D01*
X11502Y23988D01*
X11501Y23989D01*
X11499Y23990D01*
X11476Y23997D01*
X11454Y24004D01*
X11452Y24004D01*
X11451Y24004D01*
X11427Y24007D01*
X11403Y24009D01*
X11400Y24009D01*
X11400Y24009D01*
X11400Y24009D01*
X11400Y24010D01*
X9707Y24010D01*
X9533Y24183D01*
X9533Y24183D01*
X9533Y24183D01*
X9233Y24483D01*
X9215Y24499D01*
X9196Y24514D01*
X9195Y24515D01*
X9194Y24516D01*
X9173Y24527D01*
X9152Y24538D01*
X9151Y24539D01*
X9149Y24540D01*
X9126Y24547D01*
X9104Y24554D01*
X9102Y24554D01*
X9101Y24554D01*
X9077Y24557D01*
X9053Y24559D01*
X9050Y24559D01*
X9050Y24559D01*
X9050Y24559D01*
X9050Y24560D01*
X8557Y24560D01*
X8233Y24883D01*
X8215Y24899D01*
X8196Y24914D01*
X8195Y24915D01*
X8194Y24916D01*
X8173Y24927D01*
X8152Y24938D01*
X8151Y24939D01*
X8149Y24940D01*
X8126Y24947D01*
X8104Y24954D01*
X8102Y24954D01*
X8101Y24954D01*
X8077Y24957D01*
X8053Y24959D01*
X8050Y24959D01*
X8050Y24959D01*
X8050Y24959D01*
X8050Y24960D01*
X7600Y24960D01*
X7576Y24957D01*
X7552Y24955D01*
X7550Y24955D01*
X7549Y24955D01*
X7526Y24948D01*
X7503Y24941D01*
X7502Y24940D01*
X7500Y24940D01*
X7479Y24929D01*
X7458Y24918D01*
X7457Y24917D01*
X7456Y24916D01*
X7437Y24901D01*
X7418Y24886D01*
X7416Y24884D01*
X7416Y24884D01*
X7416Y24884D01*
X7416Y24883D01*
X7266Y24733D01*
X7250Y24715D01*
X7235Y24696D01*
X7234Y24695D01*
X7233Y24694D01*
X7222Y24673D01*
X7211Y24652D01*
X7210Y24651D01*
X7209Y24649D01*
X7202Y24626D01*
X7195Y24604D01*
X7195Y24602D01*
X7195Y24601D01*
X7192Y24577D01*
X7190Y24553D01*
X7190Y24550D01*
X7190Y24550D01*
X7190Y24550D01*
X7190Y24550D01*
X7190Y24260D01*
X7112Y24260D01*
X7112Y29763D01*
X7093Y29931D01*
X7042Y30091D01*
X6976Y30215D01*
X6867Y30297D01*
X6797Y30226D01*
X6797Y30367D01*
X6715Y30476D01*
X6565Y30552D01*
X6403Y30598D01*
X6236Y30612D01*
X6068Y30593D01*
X5908Y30542D01*
X5784Y30476D01*
X5702Y30367D01*
X6250Y29820D01*
X6797Y30367D01*
X6797Y30226D01*
X6320Y29750D01*
X6867Y29202D01*
X6976Y29284D01*
X7052Y29434D01*
X7098Y29596D01*
X7112Y29763D01*
X7112Y24260D01*
X6797Y24260D01*
X6797Y29132D01*
X6250Y29679D01*
X6179Y29608D01*
X6179Y29750D01*
X5632Y30297D01*
X5523Y30215D01*
X5447Y30065D01*
X5401Y29903D01*
X5387Y29736D01*
X5406Y29568D01*
X5457Y29408D01*
X5523Y29284D01*
X5632Y29202D01*
X6179Y29750D01*
X6179Y29608D01*
X5702Y29132D01*
X5784Y29023D01*
X5934Y28947D01*
X6096Y28901D01*
X6263Y28887D01*
X6431Y28906D01*
X6591Y28957D01*
X6715Y29023D01*
X6797Y29132D01*
X6797Y24260D01*
X6250Y24260D01*
X6226Y24257D01*
X6202Y24255D01*
X6200Y24255D01*
X6199Y24255D01*
X6176Y24248D01*
X6153Y24241D01*
X6152Y24240D01*
X6150Y24240D01*
X6129Y24229D01*
X6108Y24218D01*
X6107Y24217D01*
X6106Y24216D01*
X6087Y24201D01*
X6068Y24186D01*
X6066Y24184D01*
X6066Y24184D01*
X6066Y24184D01*
X6066Y24183D01*
X5016Y23133D01*
X5000Y23115D01*
X4985Y23096D01*
X4984Y23095D01*
X4983Y23094D01*
X4972Y23073D01*
X4961Y23052D01*
X4960Y23051D01*
X4959Y23049D01*
X4952Y23026D01*
X4945Y23004D01*
X4945Y23002D01*
X4945Y23001D01*
X4942Y22977D01*
X4940Y22953D01*
X4940Y22950D01*
X4940Y22950D01*
X4940Y22950D01*
X4940Y22950D01*
X4940Y22407D01*
X4892Y22360D01*
X4650Y22360D01*
X4626Y22357D01*
X4602Y22355D01*
X4600Y22355D01*
X4599Y22355D01*
X4576Y22348D01*
X4553Y22341D01*
X4552Y22340D01*
X4550Y22340D01*
X4529Y22329D01*
X4508Y22318D01*
X4507Y22317D01*
X4506Y22316D01*
X4487Y22301D01*
X4468Y22286D01*
X4466Y22284D01*
X4466Y22284D01*
X4466Y22284D01*
X4466Y22283D01*
X4042Y21860D01*
X3700Y21860D01*
X3676Y21857D01*
X3652Y21855D01*
X3650Y21855D01*
X3649Y21855D01*
X3626Y21848D01*
X3603Y21841D01*
X3602Y21840D01*
X3600Y21840D01*
X3579Y21829D01*
X3558Y21818D01*
X3557Y21817D01*
X3556Y21816D01*
X3537Y21801D01*
X3518Y21786D01*
X3516Y21784D01*
X3516Y21784D01*
X3516Y21784D01*
X3516Y21783D01*
X3266Y21533D01*
X3250Y21515D01*
X3235Y21496D01*
X3234Y21495D01*
X3233Y21494D01*
X3222Y21473D01*
X3211Y21452D01*
X3210Y21451D01*
X3209Y21449D01*
X3202Y21426D01*
X3195Y21404D01*
X3195Y21402D01*
X3195Y21401D01*
X3192Y21377D01*
X3190Y21353D01*
X3190Y21350D01*
X3190Y21350D01*
X3190Y21350D01*
X3190Y21350D01*
X3190Y20907D01*
X2666Y20383D01*
X2650Y20365D01*
X2635Y20346D01*
X2634Y20345D01*
X2633Y20344D01*
X2622Y20323D01*
X2611Y20302D01*
X2610Y20301D01*
X2609Y20299D01*
X2602Y20276D01*
X2595Y20254D01*
X2595Y20252D01*
X2595Y20251D01*
X2592Y20227D01*
X2590Y20203D01*
X2590Y20200D01*
X2590Y20200D01*
X2590Y20200D01*
X2590Y20200D01*
X2590Y19800D01*
X2592Y19776D01*
X2594Y19752D01*
X2594Y19750D01*
X2594Y19749D01*
X2601Y19726D01*
X2608Y19703D01*
X2609Y19702D01*
X2609Y19700D01*
X2620Y19679D01*
X2631Y19658D01*
X2632Y19657D01*
X2633Y19656D01*
X2648Y19637D01*
X2663Y19618D01*
X2665Y19616D01*
X2665Y19616D01*
X2665Y19616D01*
X2666Y19616D01*
X2966Y19316D01*
X2984Y19300D01*
X3003Y19285D01*
X3004Y19284D01*
X3005Y19283D01*
X3026Y19272D01*
X3047Y19261D01*
X3048Y19260D01*
X3050Y19259D01*
X3073Y19252D01*
X3095Y19245D01*
X3097Y19245D01*
X3098Y19245D01*
X3122Y19242D01*
X3146Y19240D01*
X3149Y19240D01*
X3149Y19240D01*
X3149Y19240D01*
X3150Y19240D01*
X4142Y19240D01*
X5216Y18166D01*
X5234Y18150D01*
X5253Y18135D01*
X5254Y18134D01*
X5255Y18133D01*
X5276Y18122D01*
X5297Y18111D01*
X5298Y18110D01*
X5300Y18109D01*
X5323Y18102D01*
X5345Y18095D01*
X5347Y18095D01*
X5348Y18095D01*
X5372Y18092D01*
X5396Y18090D01*
X5399Y18090D01*
X5399Y18090D01*
X5399Y18090D01*
X5400Y18090D01*
X6842Y18090D01*
X8090Y16842D01*
X8090Y15250D01*
X8090Y14200D01*
X8092Y14176D01*
X8094Y14152D01*
X8094Y14150D01*
X8094Y14149D01*
X8101Y14126D01*
X8108Y14103D01*
X8109Y14102D01*
X8109Y14100D01*
X8120Y14079D01*
X8131Y14058D01*
X8132Y14057D01*
X8133Y14056D01*
X8148Y14037D01*
X8163Y14018D01*
X8165Y14016D01*
X8165Y14016D01*
X8165Y14016D01*
X8166Y14016D01*
X8766Y13416D01*
X8784Y13400D01*
X8803Y13385D01*
X8804Y13384D01*
X8805Y13383D01*
X8826Y13372D01*
X8847Y13361D01*
X8848Y13360D01*
X8850Y13359D01*
X8873Y13352D01*
X8895Y13345D01*
X8897Y13345D01*
X8898Y13345D01*
X8922Y13342D01*
X8946Y13340D01*
X8949Y13340D01*
X8949Y13340D01*
X8949Y13340D01*
X8950Y13340D01*
X11100Y13340D01*
X11742Y13340D01*
X12216Y12866D01*
X12234Y12850D01*
X12253Y12835D01*
X12254Y12834D01*
X12255Y12833D01*
X12276Y12822D01*
X12297Y12811D01*
X12298Y12810D01*
X12300Y12809D01*
X12323Y12802D01*
X12345Y12795D01*
X12347Y12795D01*
X12348Y12795D01*
X12372Y12792D01*
X12396Y12790D01*
X12399Y12790D01*
X12399Y12790D01*
X12399Y12790D01*
X12400Y12790D01*
X14940Y12790D01*
X14940Y12657D01*
X14532Y12250D01*
X14518Y12250D01*
X14450Y12237D01*
X14387Y12211D01*
X14329Y12174D01*
X14280Y12126D01*
X14241Y12069D01*
X14214Y12006D01*
X14200Y11939D01*
X14199Y11870D01*
X14211Y11803D01*
X14237Y11739D01*
X14274Y11681D01*
X14322Y11632D01*
X14378Y11592D01*
X14441Y11565D01*
X14508Y11550D01*
X14576Y11549D01*
X14644Y11561D01*
X14708Y11586D01*
X14749Y11612D01*
X14749Y10217D01*
X13182Y8650D01*
X13168Y8650D01*
X13100Y8637D01*
X13037Y8611D01*
X12979Y8574D01*
X12930Y8526D01*
X12891Y8469D01*
X12864Y8406D01*
X12850Y8339D01*
X12849Y8270D01*
X12861Y8203D01*
X12887Y8139D01*
X12924Y8081D01*
X12972Y8032D01*
X13028Y7992D01*
X13091Y7965D01*
X13158Y7950D01*
X13226Y7949D01*
X13294Y7961D01*
X13358Y7986D01*
X13416Y8022D01*
X13466Y8070D01*
X13505Y8126D01*
X13533Y8188D01*
X13548Y8255D01*
X13549Y8281D01*
X14990Y9722D01*
X14990Y8907D01*
X14966Y8883D01*
X14966Y8883D01*
X14482Y8400D01*
X14468Y8400D01*
X14400Y8387D01*
X14337Y8361D01*
X14279Y8324D01*
X14230Y8276D01*
X14191Y8219D01*
X14164Y8156D01*
X14150Y8089D01*
X14149Y8020D01*
X14161Y7953D01*
X14187Y7889D01*
X14224Y7831D01*
X14272Y7782D01*
X14328Y7742D01*
X14391Y7715D01*
X14458Y7700D01*
X14526Y7699D01*
X14594Y7711D01*
X14658Y7736D01*
X14716Y7772D01*
X14766Y7820D01*
X14805Y7876D01*
X14833Y7938D01*
X14848Y8005D01*
X14849Y8031D01*
X15240Y8422D01*
X15240Y8285D01*
X15230Y8276D01*
X15191Y8219D01*
X15164Y8156D01*
X15150Y8089D01*
X15149Y8020D01*
X15161Y7953D01*
X15187Y7889D01*
X15224Y7831D01*
X15272Y7782D01*
X15328Y7742D01*
X15391Y7715D01*
X15458Y7700D01*
X15526Y7699D01*
X15594Y7711D01*
X15658Y7736D01*
X15716Y7772D01*
X15766Y7820D01*
X15805Y7876D01*
X15833Y7938D01*
X15848Y8005D01*
X15850Y8084D01*
X15836Y8151D01*
X15810Y8215D01*
X15772Y8272D01*
X15760Y8284D01*
X15760Y8700D01*
X15760Y11394D01*
X15772Y11382D01*
X15828Y11342D01*
X15891Y11315D01*
X15958Y11300D01*
X16026Y11299D01*
X16094Y11311D01*
X16158Y11336D01*
X16216Y11372D01*
X16266Y11420D01*
X16305Y11476D01*
X16311Y11490D01*
X16600Y11490D01*
X16623Y11492D01*
X16647Y11494D01*
X16649Y11494D01*
X16650Y11494D01*
X16673Y11501D01*
X16696Y11508D01*
X16697Y11509D01*
X16699Y11509D01*
X16720Y11520D01*
X16741Y11531D01*
X16742Y11532D01*
X16743Y11533D01*
X16762Y11548D01*
X16781Y11563D01*
X16783Y11565D01*
X16783Y11565D01*
X16783Y11565D01*
X16783Y11566D01*
X16983Y11766D01*
X16999Y11784D01*
X17014Y11803D01*
X17015Y11804D01*
X17016Y11805D01*
X17027Y11826D01*
X17038Y11847D01*
X17039Y11848D01*
X17040Y11850D01*
X17047Y11873D01*
X17054Y11895D01*
X17054Y11897D01*
X17054Y11898D01*
X17057Y11922D01*
X17059Y11946D01*
X17059Y11949D01*
X17059Y11949D01*
X17059Y11949D01*
X17060Y11950D01*
X17060Y12092D01*
X18057Y13090D01*
X18150Y13090D01*
X18600Y13090D01*
X18623Y13092D01*
X18647Y13094D01*
X18649Y13094D01*
X18650Y13094D01*
X18673Y13101D01*
X18696Y13108D01*
X18697Y13109D01*
X18699Y13109D01*
X18720Y13120D01*
X18741Y13131D01*
X18742Y13132D01*
X18743Y13133D01*
X18762Y13148D01*
X18781Y13163D01*
X18783Y13165D01*
X18783Y13165D01*
X18783Y13165D01*
X18783Y13166D01*
X19483Y13866D01*
X19499Y13884D01*
X19514Y13903D01*
X19515Y13904D01*
X19516Y13905D01*
X19527Y13926D01*
X19538Y13947D01*
X19539Y13948D01*
X19540Y13950D01*
X19547Y13973D01*
X19554Y13995D01*
X19554Y13997D01*
X19554Y13998D01*
X19557Y14022D01*
X19559Y14046D01*
X19559Y14049D01*
X19559Y14049D01*
X19559Y14049D01*
X19560Y14050D01*
X19560Y15092D01*
X19809Y15342D01*
X19825Y15360D01*
X19840Y15379D01*
X19841Y15380D01*
X19842Y15381D01*
X19853Y15402D01*
X19864Y15423D01*
X19865Y15424D01*
X19866Y15426D01*
X19873Y15449D01*
X19880Y15471D01*
X19880Y15473D01*
X19880Y15474D01*
X19883Y15498D01*
X19885Y15522D01*
X19885Y15525D01*
X19885Y15525D01*
X19885Y15525D01*
X19885Y15525D01*
X19885Y16614D01*
X19892Y16620D01*
X19931Y16676D01*
X19959Y16738D01*
X19974Y16805D01*
X19975Y16884D01*
X19962Y16951D01*
X19936Y17015D01*
X19935Y17017D01*
X20017Y17099D01*
X20532Y17099D01*
X20916Y16716D01*
X20934Y16700D01*
X20953Y16685D01*
X20954Y16684D01*
X20955Y16683D01*
X20976Y16672D01*
X20997Y16661D01*
X20998Y16660D01*
X21000Y16659D01*
X21023Y16652D01*
X21045Y16645D01*
X21047Y16645D01*
X21048Y16645D01*
X21072Y16642D01*
X21096Y16640D01*
X21099Y16640D01*
X21099Y16640D01*
X21099Y16640D01*
X21100Y16640D01*
X21900Y16640D01*
X21923Y16642D01*
X21947Y16644D01*
X21949Y16644D01*
X21950Y16644D01*
X21973Y16651D01*
X21996Y16658D01*
X21997Y16659D01*
X21999Y16659D01*
X22020Y16670D01*
X22041Y16681D01*
X22042Y16682D01*
X22043Y16683D01*
X22062Y16698D01*
X22081Y16713D01*
X22083Y16715D01*
X22083Y16715D01*
X22083Y16715D01*
X22083Y16716D01*
X22283Y16916D01*
X22299Y16934D01*
X22314Y16953D01*
X22315Y16954D01*
X22316Y16955D01*
X22327Y16976D01*
X22338Y16997D01*
X22339Y16998D01*
X22340Y17000D01*
X22347Y17023D01*
X22354Y17045D01*
X22354Y17047D01*
X22354Y17048D01*
X22357Y17072D01*
X22359Y17096D01*
X22359Y17099D01*
X22359Y17099D01*
X22359Y17099D01*
X22360Y17100D01*
X22360Y17400D01*
X22357Y17423D01*
X22355Y17447D01*
X22355Y17449D01*
X22355Y17450D01*
X22348Y17473D01*
X22341Y17496D01*
X22340Y17497D01*
X22340Y17499D01*
X22329Y17520D01*
X22318Y17541D01*
X22317Y17542D01*
X22316Y17543D01*
X22301Y17562D01*
X22286Y17581D01*
X22284Y17583D01*
X22284Y17583D01*
X22284Y17583D01*
X22283Y17583D01*
X21610Y18257D01*
X21610Y20742D01*
X22517Y21649D01*
X22526Y21649D01*
X22594Y21661D01*
X22658Y21686D01*
X22716Y21722D01*
X22766Y21770D01*
X22805Y21826D01*
X22833Y21888D01*
X22848Y21955D01*
X22850Y22034D01*
X22836Y22101D01*
X22810Y22165D01*
X22772Y22222D01*
X22724Y22270D01*
X22667Y22309D01*
X22603Y22335D01*
X22536Y22349D01*
X22468Y22350D01*
X22400Y22337D01*
X22337Y22311D01*
X22279Y22274D01*
X22230Y22226D01*
X22191Y22169D01*
X22164Y22106D01*
X22150Y22039D01*
X22150Y22017D01*
X21166Y21033D01*
X21150Y21015D01*
X21135Y20996D01*
X21134Y20995D01*
X21133Y20994D01*
X21122Y20973D01*
X21111Y20952D01*
X21110Y20951D01*
X21109Y20949D01*
X21102Y20926D01*
X21095Y20904D01*
X21095Y20902D01*
X21095Y20901D01*
X21092Y20877D01*
X21090Y20853D01*
X21090Y20850D01*
X21090Y20850D01*
X21090Y20850D01*
X21090Y20850D01*
X21090Y18150D01*
X21092Y18126D01*
X21093Y18110D01*
X20357Y18110D01*
X20110Y18357D01*
X20110Y19400D01*
X20107Y19423D01*
X20105Y19447D01*
X20105Y19449D01*
X20105Y19450D01*
X20098Y19473D01*
X20091Y19496D01*
X20090Y19497D01*
X20090Y19499D01*
X20079Y19520D01*
X20068Y19541D01*
X20067Y19542D01*
X20066Y19543D01*
X20051Y19562D01*
X20036Y19581D01*
X20034Y19583D01*
X20034Y19583D01*
X20034Y19583D01*
X20033Y19583D01*
X19333Y20283D01*
X19315Y20299D01*
X19296Y20314D01*
X19295Y20315D01*
X19294Y20316D01*
X19273Y20327D01*
X19252Y20338D01*
X19251Y20339D01*
X19249Y20340D01*
X19226Y20347D01*
X19204Y20354D01*
X19202Y20354D01*
X19201Y20354D01*
X19177Y20357D01*
X19153Y20359D01*
X19150Y20359D01*
X19150Y20359D01*
X19150Y20359D01*
X19150Y20360D01*
X18513Y20360D01*
X18517Y20366D01*
X18528Y20387D01*
X18529Y20388D01*
X18530Y20390D01*
X18537Y20413D01*
X18544Y20435D01*
X18544Y20437D01*
X18544Y20438D01*
X18547Y20462D01*
X18549Y20486D01*
X18549Y20489D01*
X18549Y20489D01*
X18549Y20489D01*
X18550Y20490D01*
X18550Y21770D01*
X19069Y21770D01*
X19093Y21772D01*
X19117Y21774D01*
X19118Y21775D01*
X19120Y21775D01*
X19143Y21782D01*
X19166Y21788D01*
X19167Y21789D01*
X19168Y21789D01*
X19189Y21801D01*
X19211Y21812D01*
X19212Y21813D01*
X19213Y21813D01*
X19232Y21828D01*
X19250Y21843D01*
X19252Y21845D01*
X19252Y21845D01*
X19252Y21845D01*
X19253Y21846D01*
X19797Y22390D01*
X22050Y22390D01*
X22073Y22392D01*
X22097Y22394D01*
X22099Y22394D01*
X22100Y22394D01*
X22123Y22401D01*
X22146Y22408D01*
X22147Y22409D01*
X22149Y22409D01*
X22170Y22420D01*
X22191Y22431D01*
X22192Y22432D01*
X22193Y22433D01*
X22212Y22448D01*
X22231Y22463D01*
X22233Y22465D01*
X22233Y22465D01*
X22233Y22465D01*
X22233Y22466D01*
X22650Y22883D01*
X22658Y22886D01*
X22716Y22922D01*
X22766Y22970D01*
X22805Y23026D01*
X22828Y23078D01*
X22965Y22942D01*
X22965Y21382D01*
X22171Y20588D01*
X22155Y20570D01*
X22140Y20551D01*
X22139Y20550D01*
X22138Y20549D01*
X22127Y20528D01*
X22116Y20507D01*
X22115Y20506D01*
X22114Y20504D01*
X22107Y20481D01*
X22100Y20459D01*
X22100Y20457D01*
X22100Y20456D01*
X22097Y20432D01*
X22095Y20408D01*
X22095Y20405D01*
X22095Y20405D01*
X22095Y20405D01*
X22095Y20405D01*
X22095Y20045D01*
X22097Y20021D01*
X22099Y19997D01*
X22099Y19995D01*
X22099Y19994D01*
X22106Y19971D01*
X22113Y19948D01*
X22114Y19947D01*
X22114Y19945D01*
X22125Y19924D01*
X22136Y19903D01*
X22137Y19902D01*
X22138Y19901D01*
X22153Y19882D01*
X22168Y19863D01*
X22170Y19861D01*
X22170Y19861D01*
X22170Y19861D01*
X22171Y19861D01*
X22740Y19292D01*
X22740Y15607D01*
X21392Y14260D01*
X21000Y14260D01*
X20300Y14260D01*
X20276Y14257D01*
X20252Y14255D01*
X20250Y14255D01*
X20249Y14255D01*
X20226Y14248D01*
X20203Y14241D01*
X20202Y14240D01*
X20200Y14240D01*
X20179Y14229D01*
X20158Y14218D01*
X20157Y14217D01*
X20156Y14216D01*
X20137Y14201D01*
X20118Y14186D01*
X20116Y14184D01*
X20116Y14184D01*
X20116Y14184D01*
X20116Y14183D01*
X18466Y12533D01*
X18450Y12515D01*
X18435Y12496D01*
X18434Y12495D01*
X18433Y12494D01*
X18422Y12473D01*
X18411Y12452D01*
X18410Y12451D01*
X18409Y12449D01*
X18402Y12426D01*
X18395Y12404D01*
X18395Y12402D01*
X18395Y12401D01*
X18392Y12377D01*
X18390Y12353D01*
X18390Y12350D01*
X18390Y12350D01*
X18390Y12350D01*
X18390Y12350D01*
X18390Y11300D01*
X18390Y10550D01*
X18390Y9900D01*
X18368Y9900D01*
X18300Y9887D01*
X18237Y9861D01*
X18179Y9824D01*
X18130Y9776D01*
X18091Y9719D01*
X18064Y9656D01*
X18050Y9589D01*
X18049Y9520D01*
X18061Y9453D01*
X18087Y9389D01*
X18124Y9331D01*
X18154Y9299D01*
X18130Y9276D01*
X18091Y9219D01*
X18064Y9156D01*
X18050Y9089D01*
X18049Y9020D01*
X18061Y8953D01*
X18087Y8889D01*
X18124Y8831D01*
X18154Y8799D01*
X18130Y8776D01*
X18091Y8719D01*
X18064Y8656D01*
X18050Y8589D01*
X18049Y8520D01*
X18061Y8453D01*
X18087Y8389D01*
X18124Y8331D01*
X18172Y8282D01*
X18228Y8242D01*
X18291Y8215D01*
X18358Y8200D01*
X18426Y8199D01*
X18494Y8211D01*
X18558Y8236D01*
X18616Y8272D01*
X18666Y8320D01*
X18705Y8376D01*
X18733Y8438D01*
X18748Y8505D01*
X18749Y8531D01*
X19383Y9166D01*
X19399Y9184D01*
X19414Y9203D01*
X19415Y9204D01*
X19416Y9205D01*
X19427Y9226D01*
X19438Y9247D01*
X19439Y9248D01*
X19440Y9250D01*
X19447Y9273D01*
X19454Y9295D01*
X19454Y9297D01*
X19454Y9298D01*
X19457Y9322D01*
X19459Y9346D01*
X19459Y9349D01*
X19459Y9349D01*
X19459Y9349D01*
X19460Y9350D01*
X19460Y9450D01*
X19460Y10650D01*
X19460Y11250D01*
X19460Y12042D01*
X20657Y13240D01*
X21700Y13240D01*
X21800Y13240D01*
X21823Y13242D01*
X21847Y13244D01*
X21849Y13244D01*
X21850Y13244D01*
X21873Y13251D01*
X21896Y13258D01*
X21897Y13259D01*
X21899Y13259D01*
X21920Y13270D01*
X21941Y13281D01*
X21942Y13282D01*
X21943Y13283D01*
X21962Y13298D01*
X21981Y13313D01*
X21983Y13315D01*
X21983Y13315D01*
X21983Y13315D01*
X21983Y13316D01*
X23743Y15076D01*
X23759Y15094D01*
X23774Y15113D01*
X23775Y15114D01*
X23776Y15115D01*
X23787Y15136D01*
X23798Y15157D01*
X23799Y15158D01*
X23800Y15160D01*
X23807Y15183D01*
X23814Y15205D01*
X23814Y15207D01*
X23814Y15208D01*
X23817Y15232D01*
X23819Y15256D01*
X23819Y15259D01*
X23819Y15259D01*
X23819Y15259D01*
X23820Y15260D01*
X23820Y15950D01*
X23820Y16598D01*
X23828Y16592D01*
X23891Y16565D01*
X23958Y16550D01*
X24026Y16549D01*
X24094Y16561D01*
X24158Y16586D01*
X24216Y16622D01*
X24266Y16670D01*
X24305Y16726D01*
X24333Y16788D01*
X24341Y16823D01*
X24533Y17016D01*
X24549Y17034D01*
X24564Y17053D01*
X24565Y17054D01*
X24566Y17055D01*
X24577Y17076D01*
X24588Y17097D01*
X24589Y17098D01*
X24590Y17100D01*
X24597Y17123D01*
X24604Y17145D01*
X24604Y17147D01*
X24604Y17148D01*
X24607Y17172D01*
X24609Y17196D01*
X24609Y17199D01*
X24609Y17199D01*
X24609Y17199D01*
X24610Y17200D01*
X24610Y18086D01*
X24666Y18122D01*
X24716Y18170D01*
X24755Y18226D01*
X24783Y18288D01*
X24798Y18355D01*
X24800Y18434D01*
X24786Y18501D01*
X24760Y18565D01*
X24722Y18622D01*
X24674Y18670D01*
X24617Y18709D01*
X24553Y18735D01*
X24486Y18749D01*
X24418Y18750D01*
X24350Y18737D01*
X24287Y18711D01*
X24229Y18674D01*
X24225Y18669D01*
X24224Y18670D01*
X24167Y18709D01*
X24103Y18735D01*
X24036Y18749D01*
X23968Y18750D01*
X23900Y18737D01*
X23837Y18711D01*
X23820Y18700D01*
X23820Y19112D01*
X25283Y20576D01*
X25299Y20594D01*
X25314Y20613D01*
X25315Y20614D01*
X25316Y20615D01*
X25327Y20636D01*
X25338Y20657D01*
X25339Y20658D01*
X25340Y20660D01*
X25347Y20683D01*
X25354Y20705D01*
X25354Y20707D01*
X25354Y20708D01*
X25357Y20732D01*
X25359Y20756D01*
X25359Y20759D01*
X25359Y20759D01*
X25359Y20759D01*
X25360Y20760D01*
X25360Y11828D01*
X25008Y11181D01*
X25002Y11178D01*
X24932Y11132D01*
X24872Y11074D01*
X24825Y11005D01*
X24819Y10990D01*
X24612Y10875D01*
X24612Y12263D01*
X24593Y12431D01*
X24542Y12591D01*
X24476Y12715D01*
X24367Y12797D01*
X24297Y12726D01*
X24297Y12867D01*
X24215Y12976D01*
X24065Y13052D01*
X23903Y13098D01*
X23736Y13112D01*
X23568Y13093D01*
X23408Y13042D01*
X23284Y12976D01*
X23202Y12867D01*
X23750Y12320D01*
X24297Y12867D01*
X24297Y12726D01*
X23820Y12250D01*
X24367Y11702D01*
X24476Y11784D01*
X24552Y11934D01*
X24598Y12096D01*
X24612Y12263D01*
X24612Y10875D01*
X24297Y10698D01*
X24297Y11632D01*
X23750Y12179D01*
X23679Y12108D01*
X23679Y12250D01*
X23132Y12797D01*
X23023Y12715D01*
X22947Y12565D01*
X22901Y12403D01*
X22887Y12236D01*
X22906Y12068D01*
X22957Y11908D01*
X23023Y11784D01*
X23132Y11702D01*
X23679Y12250D01*
X23679Y12108D01*
X23202Y11632D01*
X23284Y11523D01*
X23434Y11447D01*
X23596Y11401D01*
X23763Y11387D01*
X23931Y11406D01*
X24091Y11457D01*
X24215Y11523D01*
X24297Y11632D01*
X24297Y10698D01*
X22289Y9576D01*
X22289Y10110D01*
X22285Y10143D01*
X22283Y10175D01*
X22282Y10177D01*
X22282Y10178D01*
X22273Y10209D01*
X22264Y10240D01*
X22263Y10242D01*
X22262Y10244D01*
X22247Y10272D01*
X22232Y10301D01*
X22231Y10302D01*
X22230Y10304D01*
X22210Y10329D01*
X22190Y10354D01*
X22187Y10357D01*
X22187Y10357D01*
X22187Y10357D01*
X22186Y10358D01*
X20968Y11576D01*
X20958Y11623D01*
X20927Y11700D01*
X20880Y11769D01*
X20822Y11829D01*
X20753Y11875D01*
X20676Y11907D01*
X20594Y11924D01*
X20511Y11925D01*
X20429Y11909D01*
X20352Y11878D01*
X20282Y11832D01*
X20222Y11774D01*
X20175Y11705D01*
X20142Y11629D01*
X20125Y11547D01*
X20124Y11464D01*
X20139Y11382D01*
X20170Y11304D01*
X20215Y11234D01*
X20273Y11174D01*
X20341Y11127D01*
X20418Y11093D01*
X20473Y11081D01*
X21589Y9965D01*
X21589Y9187D01*
X18792Y7624D01*
X18711Y7625D01*
X18629Y7609D01*
X18603Y7599D01*
X11543Y7648D01*
X11503Y7675D01*
X11426Y7707D01*
X11344Y7724D01*
X11261Y7725D01*
X11233Y7720D01*
X7112Y9783D01*
X7112Y12263D01*
X7093Y12431D01*
X7042Y12591D01*
X6976Y12715D01*
X6867Y12797D01*
X6797Y12726D01*
X6797Y12867D01*
X6715Y12976D01*
X6565Y13052D01*
X6403Y13098D01*
X6236Y13112D01*
X6068Y13093D01*
X5908Y13042D01*
X5784Y12976D01*
X5702Y12867D01*
X6250Y12320D01*
X6797Y12867D01*
X6797Y12726D01*
X6320Y12250D01*
X6867Y11702D01*
X6976Y11784D01*
X7052Y11934D01*
X7098Y12096D01*
X7112Y12263D01*
X7112Y9783D01*
X6797Y9941D01*
X6797Y11632D01*
X6250Y12179D01*
X6179Y12108D01*
X6179Y12250D01*
X5632Y12797D01*
X5523Y12715D01*
X5447Y12565D01*
X5401Y12403D01*
X5387Y12236D01*
X5406Y12068D01*
X5457Y11908D01*
X5523Y11784D01*
X5632Y11702D01*
X6179Y12250D01*
X6179Y12108D01*
X5702Y11632D01*
X5784Y11523D01*
X5934Y11447D01*
X6096Y11401D01*
X6263Y11387D01*
X6431Y11406D01*
X6591Y11457D01*
X6715Y11523D01*
X6797Y11632D01*
X6797Y9941D01*
X5574Y10553D01*
X5530Y10619D01*
X5472Y10679D01*
X5403Y10725D01*
X5378Y10735D01*
X1473Y17418D01*
X1475Y17491D01*
X1458Y17573D01*
X1427Y17650D01*
X1404Y17683D01*
X1484Y21468D01*
X1491Y21465D01*
X1558Y21450D01*
X1626Y21449D01*
X1694Y21461D01*
X1758Y21486D01*
X1816Y21522D01*
X1866Y21570D01*
X1905Y21626D01*
X1933Y21688D01*
X1945Y21740D01*
X2314Y21740D01*
X2322Y21732D01*
X2378Y21692D01*
X2441Y21665D01*
X2508Y21650D01*
X2576Y21649D01*
X2644Y21661D01*
X2708Y21686D01*
X2766Y21722D01*
X2816Y21770D01*
X2855Y21826D01*
X2883Y21888D01*
X2898Y21955D01*
X2900Y22034D01*
X2886Y22101D01*
X2860Y22165D01*
X2822Y22222D01*
X2774Y22270D01*
X2717Y22309D01*
X2653Y22335D01*
X2586Y22349D01*
X2518Y22350D01*
X2450Y22337D01*
X2387Y22311D01*
X2329Y22274D01*
X2315Y22260D01*
X1800Y22260D01*
X1776Y22257D01*
X1752Y22255D01*
X1750Y22255D01*
X1749Y22255D01*
X1726Y22248D01*
X1703Y22241D01*
X1702Y22240D01*
X1700Y22240D01*
X1679Y22229D01*
X1658Y22218D01*
X1657Y22217D01*
X1656Y22216D01*
X1637Y22201D01*
X1618Y22186D01*
X1616Y22184D01*
X1616Y22184D01*
X1616Y22184D01*
X1616Y22183D01*
X1582Y22150D01*
X1568Y22150D01*
X1500Y22137D01*
X1498Y22136D01*
X1551Y24660D01*
X1571Y24689D01*
X1605Y24765D01*
X1623Y24846D01*
X1625Y24941D01*
X4680Y30364D01*
X4692Y30368D01*
X4762Y30413D01*
X4823Y30470D01*
X4871Y30539D01*
X4886Y30572D01*
X11432Y34475D01*
X11482Y34474D01*
X11564Y34488D01*
X11642Y34518D01*
X11689Y34548D01*
X18457Y34501D01*
X18491Y34477D01*
X18568Y34443D01*
X18649Y34425D01*
X18732Y34424D01*
X18741Y34425D01*
X25014Y30920D01*
X25020Y30904D01*
X25065Y30834D01*
X25123Y30774D01*
X25191Y30727D01*
X25196Y30724D01*
X28226Y24701D01*
X28225Y24697D01*
X28224Y24614D01*
X28239Y24532D01*
X28270Y24454D01*
X28300Y24408D01*
X28300Y20337D01*
X28267Y20359D01*
X28250Y20366D01*
X28250Y21034D01*
X28236Y21101D01*
X28210Y21165D01*
X28172Y21222D01*
X28124Y21270D01*
X28067Y21309D01*
X28003Y21335D01*
X27936Y21349D01*
X27868Y21350D01*
X27800Y21337D01*
X27737Y21311D01*
X27679Y21274D01*
X27630Y21226D01*
X27591Y21169D01*
X27587Y21160D01*
X26935Y21160D01*
X26924Y21170D01*
X26867Y21209D01*
X26803Y21235D01*
X26736Y21249D01*
X26668Y21250D01*
X26600Y21237D01*
X26537Y21211D01*
X26479Y21174D01*
X26430Y21126D01*
X26391Y21069D01*
X26364Y21006D01*
X26350Y20939D01*
X26349Y20870D01*
X26361Y20803D01*
X26387Y20739D01*
X26424Y20681D01*
X26472Y20632D01*
X26528Y20592D01*
X26591Y20565D01*
X26658Y20550D01*
X26726Y20549D01*
X26794Y20561D01*
X26858Y20586D01*
X26916Y20622D01*
X26934Y20640D01*
X27800Y20640D01*
X27823Y20642D01*
X27847Y20644D01*
X27849Y20644D01*
X27850Y20644D01*
X27869Y20650D01*
X27926Y20649D01*
X27994Y20661D01*
X28058Y20686D01*
X28116Y20722D01*
X28166Y20770D01*
X28205Y20826D01*
X28233Y20888D01*
X28248Y20955D01*
X28250Y21034D01*
X28250Y20366D01*
X28203Y20385D01*
X28136Y20399D01*
X28068Y20400D01*
X28000Y20387D01*
X27937Y20361D01*
X27879Y20324D01*
X27865Y20310D01*
X27435Y20310D01*
X27424Y20320D01*
X27367Y20359D01*
X27303Y20385D01*
X27236Y20399D01*
X27168Y20400D01*
X27100Y20387D01*
X27037Y20361D01*
X26979Y20324D01*
X26930Y20276D01*
X26891Y20219D01*
X26864Y20156D01*
X26850Y20089D01*
X26849Y20020D01*
X26861Y19953D01*
X26887Y19889D01*
X26924Y19831D01*
X26972Y19782D01*
X27028Y19742D01*
X27091Y19715D01*
X27158Y19700D01*
X27226Y19699D01*
X27294Y19711D01*
X27358Y19736D01*
X27416Y19772D01*
X27434Y19790D01*
X27864Y19790D01*
X27872Y19782D01*
X27928Y19742D01*
X27991Y19715D01*
X28058Y19700D01*
X28126Y19699D01*
X28194Y19711D01*
X28258Y19736D01*
X28300Y19762D01*
X28300Y17391D01*
G54D10*
G36*
X29774Y21550D02*
X29700Y21550D01*
X29700Y20450D01*
X29769Y20450D01*
X29502Y17727D01*
X29075Y16313D01*
X29075Y17191D01*
X29058Y17273D01*
X29027Y17350D01*
X29000Y17391D01*
X29000Y24408D01*
X29021Y24439D01*
X29055Y24515D01*
X29073Y24596D01*
X29075Y24691D01*
X29058Y24773D01*
X29027Y24850D01*
X28980Y24919D01*
X28922Y24979D01*
X28853Y25025D01*
X28845Y25029D01*
X25822Y31039D01*
X25823Y31046D01*
X25825Y31141D01*
X25808Y31223D01*
X25777Y31300D01*
X25730Y31369D01*
X25672Y31429D01*
X25603Y31475D01*
X25526Y31507D01*
X25444Y31524D01*
X25366Y31525D01*
X19082Y35037D01*
X19077Y35050D01*
X19030Y35119D01*
X18972Y35179D01*
X18903Y35225D01*
X18826Y35257D01*
X18744Y35274D01*
X18661Y35275D01*
X18579Y35259D01*
X18502Y35228D01*
X18460Y35201D01*
X11693Y35248D01*
X11653Y35275D01*
X11576Y35307D01*
X11494Y35324D01*
X11411Y35325D01*
X11329Y35309D01*
X11252Y35278D01*
X11182Y35232D01*
X11122Y35174D01*
X11075Y35105D01*
X11059Y35067D01*
X4529Y31174D01*
X4461Y31175D01*
X4379Y31159D01*
X4302Y31128D01*
X4232Y31082D01*
X4172Y31024D01*
X4125Y30955D01*
X4092Y30879D01*
X4075Y30797D01*
X4074Y30714D01*
X1014Y25283D01*
X1002Y25278D01*
X932Y25232D01*
X872Y25174D01*
X825Y25105D01*
X792Y25029D01*
X775Y24947D01*
X774Y24864D01*
X789Y24782D01*
X820Y24704D01*
X850Y24657D01*
X705Y17698D01*
X675Y17655D01*
X642Y17579D01*
X625Y17497D01*
X624Y17414D01*
X639Y17332D01*
X670Y17254D01*
X715Y17184D01*
X773Y17124D01*
X841Y17077D01*
X869Y17065D01*
X4775Y10381D01*
X4774Y10314D01*
X4789Y10232D01*
X4820Y10154D01*
X4865Y10084D01*
X4923Y10024D01*
X4991Y9977D01*
X5068Y9943D01*
X5149Y9925D01*
X5232Y9924D01*
X5259Y9928D01*
X10930Y7089D01*
X10965Y7034D01*
X11023Y6974D01*
X11091Y6927D01*
X11168Y6893D01*
X11249Y6875D01*
X11332Y6874D01*
X11414Y6888D01*
X11492Y6918D01*
X11539Y6948D01*
X18448Y6900D01*
X18473Y6874D01*
X18541Y6827D01*
X18618Y6793D01*
X18699Y6775D01*
X18782Y6774D01*
X18864Y6788D01*
X18942Y6818D01*
X19012Y6863D01*
X19073Y6920D01*
X19121Y6989D01*
X19131Y7012D01*
X22088Y8665D01*
X22105Y8672D01*
X22109Y8674D01*
X25154Y10375D01*
X25232Y10374D01*
X25314Y10388D01*
X25392Y10418D01*
X25462Y10463D01*
X25523Y10520D01*
X25571Y10589D01*
X25605Y10665D01*
X25623Y10746D01*
X25625Y10841D01*
X25623Y10847D01*
X28838Y16767D01*
X28842Y16768D01*
X28912Y16813D01*
X28973Y16870D01*
X29021Y16939D01*
X29055Y17015D01*
X29073Y17096D01*
X29075Y17191D01*
X29075Y16313D01*
X28696Y15060D01*
X27389Y12600D01*
X25628Y10442D01*
X23481Y8666D01*
X21031Y7341D01*
X18370Y6517D01*
X15589Y6225D01*
X15499Y6224D01*
X15478Y6222D01*
X15457Y6221D01*
X15456Y6220D01*
X15455Y6220D01*
X15435Y6214D01*
X15415Y6208D01*
X15414Y6208D01*
X15413Y6207D01*
X15395Y6197D01*
X15376Y6188D01*
X15375Y6187D01*
X15374Y6186D01*
X15358Y6173D01*
X15342Y6160D01*
X15341Y6159D01*
X15340Y6159D01*
X15327Y6143D01*
X15314Y6127D01*
X15313Y6126D01*
X15313Y6125D01*
X15303Y6106D01*
X15293Y6088D01*
X15292Y6087D01*
X15292Y6086D01*
X15286Y6066D01*
X15280Y6050D01*
X14718Y6050D01*
X14717Y6053D01*
X14715Y6063D01*
X14711Y6074D01*
X14708Y6085D01*
X14703Y6094D01*
X14699Y6104D01*
X14692Y6114D01*
X14687Y6124D01*
X14680Y6132D01*
X14675Y6140D01*
X14667Y6149D01*
X14659Y6158D01*
X14651Y6165D01*
X14644Y6172D01*
X14634Y6179D01*
X14625Y6186D01*
X14616Y6191D01*
X14608Y6197D01*
X14597Y6201D01*
X14587Y6207D01*
X14577Y6210D01*
X14568Y6214D01*
X14556Y6216D01*
X14545Y6220D01*
X14535Y6221D01*
X14525Y6223D01*
X14521Y6223D01*
X11727Y6497D01*
X9060Y7303D01*
X6600Y8610D01*
X4442Y10371D01*
X2666Y12518D01*
X1341Y14968D01*
X517Y17629D01*
X225Y20410D01*
X225Y20500D01*
X225Y21488D01*
X497Y24272D01*
X1303Y26939D01*
X2610Y29399D01*
X4371Y31557D01*
X6518Y33333D01*
X8968Y34658D01*
X11629Y35482D01*
X14410Y35774D01*
X14500Y35775D01*
X14521Y35777D01*
X14542Y35778D01*
X14543Y35779D01*
X14544Y35779D01*
X14564Y35785D01*
X14584Y35791D01*
X14585Y35791D01*
X14586Y35792D01*
X14604Y35802D01*
X14623Y35811D01*
X14624Y35812D01*
X14625Y35813D01*
X14641Y35826D01*
X14657Y35839D01*
X14658Y35840D01*
X14659Y35840D01*
X14672Y35856D01*
X14685Y35872D01*
X14686Y35873D01*
X14686Y35874D01*
X14696Y35893D01*
X14706Y35911D01*
X14707Y35912D01*
X14707Y35913D01*
X14713Y35933D01*
X14719Y35950D01*
X15281Y35950D01*
X15282Y35946D01*
X15284Y35936D01*
X15288Y35925D01*
X15291Y35914D01*
X15296Y35905D01*
X15300Y35895D01*
X15307Y35885D01*
X15312Y35875D01*
X15319Y35867D01*
X15324Y35859D01*
X15332Y35850D01*
X15340Y35841D01*
X15348Y35834D01*
X15355Y35827D01*
X15365Y35820D01*
X15374Y35813D01*
X15383Y35808D01*
X15391Y35802D01*
X15402Y35798D01*
X15412Y35792D01*
X15422Y35789D01*
X15431Y35785D01*
X15443Y35783D01*
X15454Y35779D01*
X15464Y35778D01*
X15474Y35776D01*
X15478Y35776D01*
X18272Y35502D01*
X20939Y34696D01*
X23399Y33389D01*
X25557Y31628D01*
X27333Y29481D01*
X28658Y27031D01*
X29482Y24370D01*
X29774Y21589D01*
X29774Y21550D01*
X29774Y21550D01*
G37*
G54D19*
X29774Y21550D02*
X29700Y21550D01*
X29700Y20450D01*
X29769Y20450D01*
X29502Y17727D01*
X29075Y16313D01*
X29075Y17191D01*
X29058Y17273D01*
X29027Y17350D01*
X29000Y17391D01*
X29000Y24408D01*
X29021Y24439D01*
X29055Y24515D01*
X29073Y24596D01*
X29075Y24691D01*
X29058Y24773D01*
X29027Y24850D01*
X28980Y24919D01*
X28922Y24979D01*
X28853Y25025D01*
X28845Y25029D01*
X25822Y31039D01*
X25823Y31046D01*
X25825Y31141D01*
X25808Y31223D01*
X25777Y31300D01*
X25730Y31369D01*
X25672Y31429D01*
X25603Y31475D01*
X25526Y31507D01*
X25444Y31524D01*
X25366Y31525D01*
X19082Y35037D01*
X19077Y35050D01*
X19030Y35119D01*
X18972Y35179D01*
X18903Y35225D01*
X18826Y35257D01*
X18744Y35274D01*
X18661Y35275D01*
X18579Y35259D01*
X18502Y35228D01*
X18460Y35201D01*
X11693Y35248D01*
X11653Y35275D01*
X11576Y35307D01*
X11494Y35324D01*
X11411Y35325D01*
X11329Y35309D01*
X11252Y35278D01*
X11182Y35232D01*
X11122Y35174D01*
X11075Y35105D01*
X11059Y35067D01*
X4529Y31174D01*
X4461Y31175D01*
X4379Y31159D01*
X4302Y31128D01*
X4232Y31082D01*
X4172Y31024D01*
X4125Y30955D01*
X4092Y30879D01*
X4075Y30797D01*
X4074Y30714D01*
X1014Y25283D01*
X1002Y25278D01*
X932Y25232D01*
X872Y25174D01*
X825Y25105D01*
X792Y25029D01*
X775Y24947D01*
X774Y24864D01*
X789Y24782D01*
X820Y24704D01*
X850Y24657D01*
X705Y17698D01*
X675Y17655D01*
X642Y17579D01*
X625Y17497D01*
X624Y17414D01*
X639Y17332D01*
X670Y17254D01*
X715Y17184D01*
X773Y17124D01*
X841Y17077D01*
X869Y17065D01*
X4775Y10381D01*
X4774Y10314D01*
X4789Y10232D01*
X4820Y10154D01*
X4865Y10084D01*
X4923Y10024D01*
X4991Y9977D01*
X5068Y9943D01*
X5149Y9925D01*
X5232Y9924D01*
X5259Y9928D01*
X10930Y7089D01*
X10965Y7034D01*
X11023Y6974D01*
X11091Y6927D01*
X11168Y6893D01*
X11249Y6875D01*
X11332Y6874D01*
X11414Y6888D01*
X11492Y6918D01*
X11539Y6948D01*
X18448Y6900D01*
X18473Y6874D01*
X18541Y6827D01*
X18618Y6793D01*
X18699Y6775D01*
X18782Y6774D01*
X18864Y6788D01*
X18942Y6818D01*
X19012Y6863D01*
X19073Y6920D01*
X19121Y6989D01*
X19131Y7012D01*
X22088Y8665D01*
X22105Y8672D01*
X22109Y8674D01*
X25154Y10375D01*
X25232Y10374D01*
X25314Y10388D01*
X25392Y10418D01*
X25462Y10463D01*
X25523Y10520D01*
X25571Y10589D01*
X25605Y10665D01*
X25623Y10746D01*
X25625Y10841D01*
X25623Y10847D01*
X28838Y16767D01*
X28842Y16768D01*
X28912Y16813D01*
X28973Y16870D01*
X29021Y16939D01*
X29055Y17015D01*
X29073Y17096D01*
X29075Y17191D01*
X29075Y16313D01*
X28696Y15060D01*
X27389Y12600D01*
X25628Y10442D01*
X23481Y8666D01*
X21031Y7341D01*
X18370Y6517D01*
X15589Y6225D01*
X15499Y6224D01*
X15478Y6222D01*
X15457Y6221D01*
X15456Y6220D01*
X15455Y6220D01*
X15435Y6214D01*
X15415Y6208D01*
X15414Y6208D01*
X15413Y6207D01*
X15395Y6197D01*
X15376Y6188D01*
X15375Y6187D01*
X15374Y6186D01*
X15358Y6173D01*
X15342Y6160D01*
X15341Y6159D01*
X15340Y6159D01*
X15327Y6143D01*
X15314Y6127D01*
X15313Y6126D01*
X15313Y6125D01*
X15303Y6106D01*
X15293Y6088D01*
X15292Y6087D01*
X15292Y6086D01*
X15286Y6066D01*
X15280Y6050D01*
X14718Y6050D01*
X14717Y6053D01*
X14715Y6063D01*
X14711Y6074D01*
X14708Y6085D01*
X14703Y6094D01*
X14699Y6104D01*
X14692Y6114D01*
X14687Y6124D01*
X14680Y6132D01*
X14675Y6140D01*
X14667Y6149D01*
X14659Y6158D01*
X14651Y6165D01*
X14644Y6172D01*
X14634Y6179D01*
X14625Y6186D01*
X14616Y6191D01*
X14608Y6197D01*
X14597Y6201D01*
X14587Y6207D01*
X14577Y6210D01*
X14568Y6214D01*
X14556Y6216D01*
X14545Y6220D01*
X14535Y6221D01*
X14525Y6223D01*
X14521Y6223D01*
X11727Y6497D01*
X9060Y7303D01*
X6600Y8610D01*
X4442Y10371D01*
X2666Y12518D01*
X1341Y14968D01*
X517Y17629D01*
X225Y20410D01*
X225Y20500D01*
X225Y21488D01*
X497Y24272D01*
X1303Y26939D01*
X2610Y29399D01*
X4371Y31557D01*
X6518Y33333D01*
X8968Y34658D01*
X11629Y35482D01*
X14410Y35774D01*
X14500Y35775D01*
X14521Y35777D01*
X14542Y35778D01*
X14543Y35779D01*
X14544Y35779D01*
X14564Y35785D01*
X14584Y35791D01*
X14585Y35791D01*
X14586Y35792D01*
X14604Y35802D01*
X14623Y35811D01*
X14624Y35812D01*
X14625Y35813D01*
X14641Y35826D01*
X14657Y35839D01*
X14658Y35840D01*
X14659Y35840D01*
X14672Y35856D01*
X14685Y35872D01*
X14686Y35873D01*
X14686Y35874D01*
X14696Y35893D01*
X14706Y35911D01*
X14707Y35912D01*
X14707Y35913D01*
X14713Y35933D01*
X14719Y35950D01*
X15281Y35950D01*
X15282Y35946D01*
X15284Y35936D01*
X15288Y35925D01*
X15291Y35914D01*
X15296Y35905D01*
X15300Y35895D01*
X15307Y35885D01*
X15312Y35875D01*
X15319Y35867D01*
X15324Y35859D01*
X15332Y35850D01*
X15340Y35841D01*
X15348Y35834D01*
X15355Y35827D01*
X15365Y35820D01*
X15374Y35813D01*
X15383Y35808D01*
X15391Y35802D01*
X15402Y35798D01*
X15412Y35792D01*
X15422Y35789D01*
X15431Y35785D01*
X15443Y35783D01*
X15454Y35779D01*
X15464Y35778D01*
X15474Y35776D01*
X15478Y35776D01*
X18272Y35502D01*
X20939Y34696D01*
X23399Y33389D01*
X25557Y31628D01*
X27333Y29481D01*
X28658Y27031D01*
X29482Y24370D01*
X29774Y21589D01*
X29774Y21550D01*
G54D10*
G36*
X40775Y6050D02*
X40215Y6050D01*
X40207Y6086D01*
X40159Y6159D01*
X40110Y6191D01*
X40110Y20700D01*
X40110Y30750D01*
X40090Y30849D01*
X40033Y30933D01*
X37533Y33433D01*
X37449Y33490D01*
X37350Y33510D01*
X36150Y33510D01*
X36050Y33490D01*
X35966Y33433D01*
X35416Y32883D01*
X35359Y32799D01*
X35340Y32700D01*
X35340Y32450D01*
X35359Y32350D01*
X35416Y32266D01*
X35649Y32032D01*
X35649Y31980D01*
X35703Y31852D01*
X35801Y31753D01*
X35930Y31700D01*
X36069Y31699D01*
X36198Y31753D01*
X36296Y31851D01*
X36349Y31980D01*
X36350Y32119D01*
X36296Y32248D01*
X36254Y32290D01*
X36679Y32290D01*
X36650Y32219D01*
X36649Y32080D01*
X36703Y31952D01*
X36801Y31853D01*
X36930Y31800D01*
X36982Y31800D01*
X38790Y29992D01*
X38790Y21550D01*
X38669Y21599D01*
X38530Y21600D01*
X38402Y21546D01*
X38303Y21448D01*
X38250Y21319D01*
X38250Y21267D01*
X36366Y19383D01*
X36309Y19299D01*
X36290Y19200D01*
X36290Y16677D01*
X35483Y17483D01*
X35399Y17540D01*
X35300Y17560D01*
X34434Y17560D01*
X34398Y17596D01*
X34269Y17649D01*
X34130Y17650D01*
X34002Y17596D01*
X33903Y17498D01*
X33850Y17369D01*
X33849Y17230D01*
X33903Y17102D01*
X34001Y17003D01*
X34130Y16950D01*
X34269Y16949D01*
X34398Y17003D01*
X34434Y17040D01*
X35192Y17040D01*
X36199Y16032D01*
X36199Y15980D01*
X36253Y15852D01*
X36351Y15753D01*
X36412Y15728D01*
X36359Y15649D01*
X36340Y15550D01*
X36340Y14650D01*
X36340Y13610D01*
X35784Y13610D01*
X35748Y13646D01*
X35653Y13685D01*
X35783Y13816D01*
X35840Y13900D01*
X35859Y14000D01*
X35860Y14000D01*
X35860Y15165D01*
X35896Y15201D01*
X35949Y15330D01*
X35950Y15469D01*
X35896Y15598D01*
X35798Y15696D01*
X35669Y15749D01*
X35530Y15750D01*
X35402Y15696D01*
X35303Y15598D01*
X35250Y15469D01*
X35249Y15330D01*
X35303Y15202D01*
X35340Y15165D01*
X35340Y14107D01*
X34966Y13733D01*
X34909Y13649D01*
X34890Y13550D01*
X34890Y13150D01*
X34909Y13050D01*
X34966Y12966D01*
X35116Y12816D01*
X35116Y12816D01*
X35200Y12759D01*
X35300Y12740D01*
X36800Y12740D01*
X36899Y12759D01*
X36983Y12816D01*
X37307Y13140D01*
X38415Y13140D01*
X38451Y13103D01*
X38580Y13050D01*
X38719Y13049D01*
X38848Y13103D01*
X38946Y13201D01*
X38999Y13330D01*
X39000Y13469D01*
X38946Y13598D01*
X38848Y13696D01*
X38719Y13749D01*
X38580Y13750D01*
X38452Y13696D01*
X38415Y13660D01*
X37200Y13660D01*
X37100Y13640D01*
X37072Y13621D01*
X37016Y13583D01*
X36921Y13488D01*
X36896Y13548D01*
X36860Y13584D01*
X36860Y14650D01*
X36860Y15442D01*
X37133Y15716D01*
X37133Y15716D01*
X37171Y15772D01*
X37190Y15800D01*
X37190Y15800D01*
X37209Y15899D01*
X37210Y15900D01*
X37210Y16200D01*
X37190Y16299D01*
X37133Y16383D01*
X37110Y16407D01*
X37110Y16750D01*
X37110Y17472D01*
X37816Y16766D01*
X38040Y16542D01*
X38040Y16349D01*
X37930Y16350D01*
X37802Y16296D01*
X37703Y16198D01*
X37650Y16069D01*
X37649Y15930D01*
X37697Y15815D01*
X37652Y15796D01*
X37553Y15698D01*
X37500Y15569D01*
X37499Y15430D01*
X37553Y15302D01*
X37651Y15203D01*
X37780Y15150D01*
X37919Y15149D01*
X38016Y15190D01*
X38053Y15102D01*
X38151Y15003D01*
X38280Y14950D01*
X38419Y14949D01*
X38548Y15003D01*
X38646Y15101D01*
X38699Y15230D01*
X38699Y15282D01*
X38983Y15566D01*
X39040Y15650D01*
X39059Y15750D01*
X39060Y15750D01*
X39060Y16990D01*
X39040Y17089D01*
X38983Y17173D01*
X37860Y18297D01*
X37860Y18342D01*
X40033Y20516D01*
X40033Y20516D01*
X40090Y20600D01*
X40090Y20600D01*
X40093Y20617D01*
X40109Y20700D01*
X40110Y20700D01*
X40110Y6191D01*
X40086Y6207D01*
X40000Y6225D01*
X39525Y6225D01*
X39525Y7634D01*
X39460Y7790D01*
X39341Y7910D01*
X39184Y7974D01*
X39015Y7975D01*
X38859Y7910D01*
X38849Y7900D01*
X34294Y7900D01*
X33325Y8869D01*
X33325Y8884D01*
X33260Y9040D01*
X33141Y9160D01*
X32984Y9224D01*
X32815Y9225D01*
X32659Y9160D01*
X32539Y9041D01*
X32475Y8884D01*
X32474Y8715D01*
X32539Y8559D01*
X32658Y8439D01*
X32815Y8375D01*
X32829Y8375D01*
X33902Y7302D01*
X34016Y7226D01*
X34016Y7226D01*
X34150Y7200D01*
X38848Y7200D01*
X38858Y7189D01*
X39015Y7125D01*
X39184Y7124D01*
X39340Y7189D01*
X39460Y7308D01*
X39524Y7465D01*
X39525Y7634D01*
X39525Y6225D01*
X32000Y6225D01*
X31913Y6207D01*
X31840Y6159D01*
X31792Y6086D01*
X31784Y6050D01*
X31225Y6050D01*
X31225Y20450D01*
X31300Y20450D01*
X31300Y21550D01*
X31225Y21550D01*
X31225Y35950D01*
X31784Y35950D01*
X31792Y35913D01*
X31840Y35840D01*
X31913Y35792D01*
X32000Y35775D01*
X40000Y35775D01*
X40086Y35792D01*
X40159Y35840D01*
X40207Y35913D01*
X40215Y35950D01*
X40775Y35950D01*
X40775Y6050D01*
X40775Y6050D01*
G37*
G54D19*
X40775Y6050D02*
X40215Y6050D01*
X40207Y6086D01*
X40159Y6159D01*
X40110Y6191D01*
X40110Y20700D01*
X40110Y30750D01*
X40090Y30849D01*
X40033Y30933D01*
X37533Y33433D01*
X37449Y33490D01*
X37350Y33510D01*
X36150Y33510D01*
X36050Y33490D01*
X35966Y33433D01*
X35416Y32883D01*
X35359Y32799D01*
X35340Y32700D01*
X35340Y32450D01*
X35359Y32350D01*
X35416Y32266D01*
X35649Y32032D01*
X35649Y31980D01*
X35703Y31852D01*
X35801Y31753D01*
X35930Y31700D01*
X36069Y31699D01*
X36198Y31753D01*
X36296Y31851D01*
X36349Y31980D01*
X36350Y32119D01*
X36296Y32248D01*
X36254Y32290D01*
X36679Y32290D01*
X36650Y32219D01*
X36649Y32080D01*
X36703Y31952D01*
X36801Y31853D01*
X36930Y31800D01*
X36982Y31800D01*
X38790Y29992D01*
X38790Y21550D01*
X38669Y21599D01*
X38530Y21600D01*
X38402Y21546D01*
X38303Y21448D01*
X38250Y21319D01*
X38250Y21267D01*
X36366Y19383D01*
X36309Y19299D01*
X36290Y19200D01*
X36290Y16677D01*
X35483Y17483D01*
X35399Y17540D01*
X35300Y17560D01*
X34434Y17560D01*
X34398Y17596D01*
X34269Y17649D01*
X34130Y17650D01*
X34002Y17596D01*
X33903Y17498D01*
X33850Y17369D01*
X33849Y17230D01*
X33903Y17102D01*
X34001Y17003D01*
X34130Y16950D01*
X34269Y16949D01*
X34398Y17003D01*
X34434Y17040D01*
X35192Y17040D01*
X36199Y16032D01*
X36199Y15980D01*
X36253Y15852D01*
X36351Y15753D01*
X36412Y15728D01*
X36359Y15649D01*
X36340Y15550D01*
X36340Y14650D01*
X36340Y13610D01*
X35784Y13610D01*
X35748Y13646D01*
X35653Y13685D01*
X35783Y13816D01*
X35840Y13900D01*
X35859Y14000D01*
X35860Y14000D01*
X35860Y15165D01*
X35896Y15201D01*
X35949Y15330D01*
X35950Y15469D01*
X35896Y15598D01*
X35798Y15696D01*
X35669Y15749D01*
X35530Y15750D01*
X35402Y15696D01*
X35303Y15598D01*
X35250Y15469D01*
X35249Y15330D01*
X35303Y15202D01*
X35340Y15165D01*
X35340Y14107D01*
X34966Y13733D01*
X34909Y13649D01*
X34890Y13550D01*
X34890Y13150D01*
X34909Y13050D01*
X34966Y12966D01*
X35116Y12816D01*
X35116Y12816D01*
X35200Y12759D01*
X35300Y12740D01*
X36800Y12740D01*
X36899Y12759D01*
X36983Y12816D01*
X37307Y13140D01*
X38415Y13140D01*
X38451Y13103D01*
X38580Y13050D01*
X38719Y13049D01*
X38848Y13103D01*
X38946Y13201D01*
X38999Y13330D01*
X39000Y13469D01*
X38946Y13598D01*
X38848Y13696D01*
X38719Y13749D01*
X38580Y13750D01*
X38452Y13696D01*
X38415Y13660D01*
X37200Y13660D01*
X37100Y13640D01*
X37072Y13621D01*
X37016Y13583D01*
X36921Y13488D01*
X36896Y13548D01*
X36860Y13584D01*
X36860Y14650D01*
X36860Y15442D01*
X37133Y15716D01*
X37133Y15716D01*
X37171Y15772D01*
X37190Y15800D01*
X37190Y15800D01*
X37209Y15899D01*
X37210Y15900D01*
X37210Y16200D01*
X37190Y16299D01*
X37133Y16383D01*
X37110Y16407D01*
X37110Y16750D01*
X37110Y17472D01*
X37816Y16766D01*
X38040Y16542D01*
X38040Y16349D01*
X37930Y16350D01*
X37802Y16296D01*
X37703Y16198D01*
X37650Y16069D01*
X37649Y15930D01*
X37697Y15815D01*
X37652Y15796D01*
X37553Y15698D01*
X37500Y15569D01*
X37499Y15430D01*
X37553Y15302D01*
X37651Y15203D01*
X37780Y15150D01*
X37919Y15149D01*
X38016Y15190D01*
X38053Y15102D01*
X38151Y15003D01*
X38280Y14950D01*
X38419Y14949D01*
X38548Y15003D01*
X38646Y15101D01*
X38699Y15230D01*
X38699Y15282D01*
X38983Y15566D01*
X39040Y15650D01*
X39059Y15750D01*
X39060Y15750D01*
X39060Y16990D01*
X39040Y17089D01*
X38983Y17173D01*
X37860Y18297D01*
X37860Y18342D01*
X40033Y20516D01*
X40033Y20516D01*
X40090Y20600D01*
X40090Y20600D01*
X40093Y20617D01*
X40109Y20700D01*
X40110Y20700D01*
X40110Y6191D01*
X40086Y6207D01*
X40000Y6225D01*
X39525Y6225D01*
X39525Y7634D01*
X39460Y7790D01*
X39341Y7910D01*
X39184Y7974D01*
X39015Y7975D01*
X38859Y7910D01*
X38849Y7900D01*
X34294Y7900D01*
X33325Y8869D01*
X33325Y8884D01*
X33260Y9040D01*
X33141Y9160D01*
X32984Y9224D01*
X32815Y9225D01*
X32659Y9160D01*
X32539Y9041D01*
X32475Y8884D01*
X32474Y8715D01*
X32539Y8559D01*
X32658Y8439D01*
X32815Y8375D01*
X32829Y8375D01*
X33902Y7302D01*
X34016Y7226D01*
X34016Y7226D01*
X34150Y7200D01*
X38848Y7200D01*
X38858Y7189D01*
X39015Y7125D01*
X39184Y7124D01*
X39340Y7189D01*
X39460Y7308D01*
X39524Y7465D01*
X39525Y7634D01*
X39525Y6225D01*
X32000Y6225D01*
X31913Y6207D01*
X31840Y6159D01*
X31792Y6086D01*
X31784Y6050D01*
X31225Y6050D01*
X31225Y20450D01*
X31300Y20450D01*
X31300Y21550D01*
X31225Y21550D01*
X31225Y35950D01*
X31784Y35950D01*
X31792Y35913D01*
X31840Y35840D01*
X31913Y35792D01*
X32000Y35775D01*
X40000Y35775D01*
X40086Y35792D01*
X40159Y35840D01*
X40207Y35913D01*
X40215Y35950D01*
X40775Y35950D01*
X40775Y6050D01*
G54D10*
G36*
X40600Y37125D02*
X40375Y37125D01*
X40369Y37153D01*
X40282Y37282D01*
X40153Y37369D01*
X40000Y37400D01*
X39553Y37400D01*
X39553Y39692D01*
X39399Y40080D01*
X39380Y40108D01*
X39272Y40141D01*
X39141Y40272D01*
X39108Y40380D01*
X38725Y40546D01*
X38307Y40553D01*
X37919Y40399D01*
X37891Y40380D01*
X37858Y40272D01*
X37727Y40141D01*
X37619Y40108D01*
X37453Y39725D01*
X37446Y39307D01*
X37600Y38919D01*
X37619Y38891D01*
X37727Y38858D01*
X37858Y38727D01*
X37891Y38619D01*
X38274Y38453D01*
X38692Y38446D01*
X39080Y38600D01*
X39108Y38619D01*
X39141Y38727D01*
X39272Y38858D01*
X39380Y38891D01*
X39546Y39274D01*
X39553Y39692D01*
X39553Y37400D01*
X32000Y37400D01*
X31846Y37369D01*
X31717Y37282D01*
X31630Y37153D01*
X31624Y37125D01*
X31375Y37125D01*
X31369Y37153D01*
X31282Y37282D01*
X31153Y37369D01*
X31000Y37400D01*
X15500Y37400D01*
X15346Y37369D01*
X15217Y37282D01*
X15130Y37153D01*
X15124Y37125D01*
X14875Y37125D01*
X14869Y37153D01*
X14782Y37282D01*
X14653Y37369D01*
X14500Y37400D01*
X3553Y37400D01*
X3553Y39692D01*
X3399Y40080D01*
X3380Y40108D01*
X3272Y40141D01*
X3141Y40272D01*
X3108Y40380D01*
X2725Y40546D01*
X2307Y40553D01*
X1919Y40399D01*
X1891Y40380D01*
X1858Y40272D01*
X1727Y40141D01*
X1619Y40108D01*
X1453Y39725D01*
X1446Y39307D01*
X1600Y38919D01*
X1619Y38891D01*
X1727Y38858D01*
X1858Y38727D01*
X1891Y38619D01*
X2274Y38453D01*
X2692Y38446D01*
X3080Y38600D01*
X3108Y38619D01*
X3141Y38727D01*
X3272Y38858D01*
X3380Y38891D01*
X3546Y39274D01*
X3553Y39692D01*
X3553Y37400D01*
X400Y37400D01*
X400Y41600D01*
X40600Y41600D01*
X40600Y37125D01*
X40600Y37125D01*
G37*
G54D20*
X40600Y37125D02*
X40375Y37125D01*
X40369Y37153D01*
X40282Y37282D01*
X40153Y37369D01*
X40000Y37400D01*
X39553Y37400D01*
X39553Y39692D01*
X39399Y40080D01*
X39380Y40108D01*
X39272Y40141D01*
X39141Y40272D01*
X39108Y40380D01*
X38725Y40546D01*
X38307Y40553D01*
X37919Y40399D01*
X37891Y40380D01*
X37858Y40272D01*
X37727Y40141D01*
X37619Y40108D01*
X37453Y39725D01*
X37446Y39307D01*
X37600Y38919D01*
X37619Y38891D01*
X37727Y38858D01*
X37858Y38727D01*
X37891Y38619D01*
X38274Y38453D01*
X38692Y38446D01*
X39080Y38600D01*
X39108Y38619D01*
X39141Y38727D01*
X39272Y38858D01*
X39380Y38891D01*
X39546Y39274D01*
X39553Y39692D01*
X39553Y37400D01*
X32000Y37400D01*
X31846Y37369D01*
X31717Y37282D01*
X31630Y37153D01*
X31624Y37125D01*
X31375Y37125D01*
X31369Y37153D01*
X31282Y37282D01*
X31153Y37369D01*
X31000Y37400D01*
X15500Y37400D01*
X15346Y37369D01*
X15217Y37282D01*
X15130Y37153D01*
X15124Y37125D01*
X14875Y37125D01*
X14869Y37153D01*
X14782Y37282D01*
X14653Y37369D01*
X14500Y37400D01*
X3553Y37400D01*
X3553Y39692D01*
X3399Y40080D01*
X3380Y40108D01*
X3272Y40141D01*
X3141Y40272D01*
X3108Y40380D01*
X2725Y40546D01*
X2307Y40553D01*
X1919Y40399D01*
X1891Y40380D01*
X1858Y40272D01*
X1727Y40141D01*
X1619Y40108D01*
X1453Y39725D01*
X1446Y39307D01*
X1600Y38919D01*
X1619Y38891D01*
X1727Y38858D01*
X1858Y38727D01*
X1891Y38619D01*
X2274Y38453D01*
X2692Y38446D01*
X3080Y38600D01*
X3108Y38619D01*
X3141Y38727D01*
X3272Y38858D01*
X3380Y38891D01*
X3546Y39274D01*
X3553Y39692D01*
X3553Y37400D01*
X400Y37400D01*
X400Y41600D01*
X40600Y41600D01*
X40600Y37125D01*
G54D10*
G36*
X40600Y400D02*
X39553Y400D01*
X39553Y2692D01*
X39399Y3080D01*
X39380Y3108D01*
X39272Y3141D01*
X39141Y3272D01*
X39108Y3380D01*
X38725Y3546D01*
X38307Y3553D01*
X37919Y3399D01*
X37891Y3380D01*
X37858Y3272D01*
X37727Y3141D01*
X37619Y3108D01*
X37453Y2725D01*
X37446Y2307D01*
X37600Y1919D01*
X37619Y1891D01*
X37727Y1858D01*
X37858Y1727D01*
X37891Y1619D01*
X38274Y1453D01*
X38692Y1446D01*
X39080Y1600D01*
X39108Y1619D01*
X39141Y1727D01*
X39272Y1858D01*
X39380Y1891D01*
X39546Y2274D01*
X39553Y2692D01*
X39553Y400D01*
X3553Y400D01*
X3553Y2692D01*
X3399Y3080D01*
X3380Y3108D01*
X3272Y3141D01*
X3141Y3272D01*
X3108Y3380D01*
X2725Y3546D01*
X2307Y3553D01*
X1919Y3399D01*
X1891Y3380D01*
X1858Y3272D01*
X1727Y3141D01*
X1619Y3108D01*
X1453Y2725D01*
X1446Y2307D01*
X1600Y1919D01*
X1619Y1891D01*
X1727Y1858D01*
X1858Y1727D01*
X1891Y1619D01*
X2274Y1453D01*
X2692Y1446D01*
X3080Y1600D01*
X3108Y1619D01*
X3141Y1727D01*
X3272Y1858D01*
X3380Y1891D01*
X3546Y2274D01*
X3553Y2692D01*
X3553Y400D01*
X400Y400D01*
X400Y4600D01*
X14500Y4600D01*
X14653Y4630D01*
X14782Y4717D01*
X14869Y4846D01*
X14875Y4875D01*
X15124Y4875D01*
X15130Y4846D01*
X15217Y4717D01*
X15346Y4630D01*
X15500Y4600D01*
X31000Y4600D01*
X31153Y4630D01*
X31282Y4717D01*
X31369Y4846D01*
X31375Y4875D01*
X31624Y4875D01*
X31630Y4846D01*
X31717Y4717D01*
X31846Y4630D01*
X32000Y4600D01*
X40000Y4600D01*
X40153Y4630D01*
X40282Y4717D01*
X40369Y4846D01*
X40375Y4875D01*
X40600Y4875D01*
X40600Y4500D01*
X40600Y400D01*
X40600Y400D01*
G37*
G54D20*
X40600Y400D02*
X39553Y400D01*
X39553Y2692D01*
X39399Y3080D01*
X39380Y3108D01*
X39272Y3141D01*
X39141Y3272D01*
X39108Y3380D01*
X38725Y3546D01*
X38307Y3553D01*
X37919Y3399D01*
X37891Y3380D01*
X37858Y3272D01*
X37727Y3141D01*
X37619Y3108D01*
X37453Y2725D01*
X37446Y2307D01*
X37600Y1919D01*
X37619Y1891D01*
X37727Y1858D01*
X37858Y1727D01*
X37891Y1619D01*
X38274Y1453D01*
X38692Y1446D01*
X39080Y1600D01*
X39108Y1619D01*
X39141Y1727D01*
X39272Y1858D01*
X39380Y1891D01*
X39546Y2274D01*
X39553Y2692D01*
X39553Y400D01*
X3553Y400D01*
X3553Y2692D01*
X3399Y3080D01*
X3380Y3108D01*
X3272Y3141D01*
X3141Y3272D01*
X3108Y3380D01*
X2725Y3546D01*
X2307Y3553D01*
X1919Y3399D01*
X1891Y3380D01*
X1858Y3272D01*
X1727Y3141D01*
X1619Y3108D01*
X1453Y2725D01*
X1446Y2307D01*
X1600Y1919D01*
X1619Y1891D01*
X1727Y1858D01*
X1858Y1727D01*
X1891Y1619D01*
X2274Y1453D01*
X2692Y1446D01*
X3080Y1600D01*
X3108Y1619D01*
X3141Y1727D01*
X3272Y1858D01*
X3380Y1891D01*
X3546Y2274D01*
X3553Y2692D01*
X3553Y400D01*
X400Y400D01*
X400Y4600D01*
X14500Y4600D01*
X14653Y4630D01*
X14782Y4717D01*
X14869Y4846D01*
X14875Y4875D01*
X15124Y4875D01*
X15130Y4846D01*
X15217Y4717D01*
X15346Y4630D01*
X15500Y4600D01*
X31000Y4600D01*
X31153Y4630D01*
X31282Y4717D01*
X31369Y4846D01*
X31375Y4875D01*
X31624Y4875D01*
X31630Y4846D01*
X31717Y4717D01*
X31846Y4630D01*
X32000Y4600D01*
X40000Y4600D01*
X40153Y4630D01*
X40282Y4717D01*
X40369Y4846D01*
X40375Y4875D01*
X40600Y4875D01*
X40600Y4500D01*
X40600Y400D01*
M02*
