M48
;DRILL file {Pcbnew (2013-07-07 BZR 4022)-stable} date 11/9/2013 7:35:35 PM
;FORMAT={2:4/ absolute / inch / keep zeros}
FMAT,2
INCH,TZ
T1C0.015
T2C0.020
T3C0.035
T4C0.098
T5C0.142
%
G90
G05
M72
T1
X001600Y021800
X002000Y018500
X002550Y022000
X003250Y020000
X003700Y020000
X003800Y021100
X004200Y021250
X004200Y020000
X004600Y021500
X004650Y020000
X004950Y021750
X005350Y019700
X005700Y019950
X005700Y019450
X005700Y018950
X006150Y020000
X006550Y023000
X006550Y022500
X006550Y022000
X006600Y020000
X006900Y022250
X007250Y022550
X007450Y024000
X007500Y022900
X007550Y020000
X007550Y019550
X007800Y023250
X008200Y023700
X008700Y018400
X008700Y016650
X009450Y018125
X009650Y023300
X009750Y022000
X009750Y021500
X009750Y021000
X009750Y020500
X009750Y020000
X010050Y030100
X010200Y014000
X010250Y022000
X010250Y021500
X010250Y021000
X010250Y020500
X010250Y020000
X010550Y028650
X010850Y023000
X011000Y023400
X011150Y022650
X011200Y014100
X011400Y016000
X011400Y015400
X011450Y014900
X011500Y017150
X011650Y014100
X011750Y017500
X012150Y014750
X012350Y013750
X012450Y021450
X012550Y021000
X012700Y023150
X012775Y022700
X012950Y020150
X013200Y021800
X013200Y008300
X013250Y022700
X013500Y017950
X013850Y017700
X013950Y023425
X014400Y019300
X014500Y008050
X014550Y021400
X014550Y011900
X014600Y020450
X014750Y017000
X014750Y016500
X014750Y016000
X014750Y015500
X014750Y015000
X015100Y020050
X015250Y017000
X015250Y016500
X015250Y016000
X015250Y015500
X015250Y015000
X015425Y019750
X015500Y021000
X015500Y008050
X015700Y022650
X016000Y011650
X016350Y022700
X016400Y027850
X016450Y012100
X016550Y024300
X016850Y009300
X016950Y020200
X017200Y023675
X017450Y021050
X017450Y020600
X017450Y020150
X017450Y019700
X017500Y017500
X017850Y014200
X017950Y016800
X018000Y017500
X018150Y016100
X018250Y014400
X018350Y015350
X018400Y009550
X018400Y009050
X018400Y008550
X018450Y014850
X018450Y013700
X018500Y022900
X018500Y019300
X018750Y015850
X018850Y022650
X018900Y019500
X018950Y017250
X018950Y016800
X019100Y008050
X019626Y016850
X019750Y022000
X019750Y021500
X019750Y021000
X019750Y020500
X019750Y020000
X019800Y007100
X020050Y027800
X020250Y022000
X020250Y021500
X020250Y021000
X020250Y020500
X020250Y020000
X020450Y023650
X020775Y024000
X021100Y023250
X021200Y016550
X021300Y017250
X021750Y017250
X022050Y023200
X022500Y023200
X022500Y022000
X022550Y019300
X022700Y020250
X022800Y022800
X023200Y020250
X023600Y022000
X023700Y020250
X024000Y018400
X024000Y017350
X024000Y016900
X024050Y022000
X024450Y018400
X024500Y022000
X026700Y020900
X027200Y020050
X027900Y021000
X027950Y023500
X028100Y020050
X034200Y017300
X034950Y011600
X035550Y013350
X035600Y015900
X035600Y015400
X036000Y032550
X036000Y032050
X036500Y032900
X036550Y016050
X036600Y013350
X037000Y032150
X037800Y026250
X037850Y015500
X037900Y016450
X038000Y016000
X038350Y015300
X038600Y021250
X038650Y013400
T2
X001050Y017450
X001200Y024900
X004500Y030750
X005200Y010350
X011300Y007300
X011450Y034900
X018700Y034850
X018750Y007200
X020550Y011500
X025200Y010800
X025400Y031100
X028650Y024650
X028650Y017150
X032900Y008800
X039100Y007550
T3
X009500Y017000
X009500Y016000
X009500Y015000
X010500Y017000
X010500Y016000
X010500Y015000
T4
X031750Y035250
X031750Y006750
X040250Y035250
X040250Y006750
T5
X006250Y029750
X006250Y012250
X023750Y029750
X023750Y012250
T0
M30
