G75*
%MOIN*%
%OFA0B0*%
%FSLAX24Y24*%
%IPPOS*%
%LPD*%
%AMOC8*
5,1,8,0,0,1.08239X$1,22.5*
%
%ADD10R,0.0472X0.0472*%
%ADD11R,0.0640X0.0640*%
%ADD12OC8,0.0640*%
%ADD13C,0.0400*%
%ADD14C,0.0450*%
%ADD15C,0.0120*%
%ADD16C,0.0240*%
%ADD17C,0.0320*%
%ADD18C,0.0500*%
%ADD19C,0.0160*%
D10*
X009879Y018184D03*
X010706Y018184D03*
X013816Y018184D03*
X014643Y018184D03*
X017753Y018184D03*
X018580Y018184D03*
X021690Y018184D03*
X022517Y018184D03*
D11*
X025162Y009884D03*
X014198Y005979D03*
D12*
X015198Y005979D03*
X016198Y005979D03*
X017198Y005979D03*
X018198Y005979D03*
X024162Y009884D03*
X024162Y010884D03*
X025162Y010884D03*
X025162Y011884D03*
X024162Y011884D03*
X024162Y012884D03*
X025162Y012884D03*
X025162Y013884D03*
X024162Y013884D03*
D13*
X022365Y012396D03*
X021593Y012267D03*
X022712Y011267D03*
X023416Y011884D03*
X026644Y011415D03*
X026664Y013405D03*
X026684Y014757D03*
X027615Y016018D03*
X023876Y015677D03*
X021887Y015601D03*
X021119Y017378D03*
X021119Y018184D03*
X023487Y018184D03*
X024859Y018774D03*
X018762Y016288D03*
X016637Y017351D03*
X017182Y018184D03*
X013712Y016205D03*
X012524Y015267D03*
X013712Y014892D03*
X015024Y014892D03*
X014724Y013767D03*
X013924Y012517D03*
X013474Y011067D03*
X011774Y010567D03*
X010574Y010517D03*
X010474Y011167D03*
X011674Y012067D03*
X010004Y013267D03*
X008637Y013851D03*
X007824Y015226D03*
X010224Y016192D03*
X011387Y017601D03*
X013245Y017514D03*
X013245Y018184D03*
X009308Y018184D03*
X007536Y018774D03*
X004780Y016018D03*
X011537Y014267D03*
X006355Y011687D03*
X008514Y010777D03*
X010574Y009667D03*
X011374Y008617D03*
X010324Y008367D03*
X009724Y008567D03*
X007714Y009137D03*
X006355Y010310D03*
X004780Y007750D03*
X007536Y004995D03*
X009702Y006569D03*
X011080Y006569D03*
X012887Y008288D03*
X013512Y008351D03*
X016974Y010367D03*
X015474Y010667D03*
X016924Y011567D03*
X019714Y010367D03*
X019524Y009477D03*
X018967Y009125D03*
X018424Y008710D03*
X017274Y008317D03*
X017124Y008867D03*
X018979Y007107D03*
X019724Y007167D03*
X019824Y006667D03*
X021624Y006667D03*
X021924Y007517D03*
X023037Y008167D03*
X022637Y008667D03*
X022137Y009167D03*
X022906Y009817D03*
X025254Y008157D03*
X026044Y009147D03*
X027615Y007750D03*
X023824Y006267D03*
X023424Y006767D03*
X024859Y004995D03*
X020387Y005601D03*
X019735Y013832D03*
X017574Y014226D03*
D14*
X022406Y014267D03*
X015012Y007288D03*
D15*
X007323Y006109D02*
X007323Y004781D01*
X025073Y004781D01*
X025073Y006109D01*
X025068Y006114D01*
X025073Y006182D01*
X025073Y006250D01*
X025078Y006255D01*
X025081Y006297D01*
X025073Y006309D01*
X025086Y006369D01*
X025091Y006431D01*
X025102Y006441D01*
X025112Y006488D01*
X025106Y006501D01*
X025127Y006559D01*
X025141Y006620D01*
X025153Y006627D01*
X025170Y006673D01*
X025166Y006687D01*
X025195Y006741D01*
X025217Y006799D01*
X025230Y006805D01*
X025254Y006848D01*
X025251Y006862D01*
X025288Y006912D01*
X025318Y006966D01*
X025332Y006970D01*
X025361Y007009D01*
X025361Y007024D01*
X025405Y007067D01*
X025442Y007117D01*
X025456Y007119D01*
X025491Y007153D01*
X025493Y007168D01*
X025542Y007205D01*
X025586Y007248D01*
X025600Y007248D01*
X025639Y007277D01*
X025644Y007292D01*
X025698Y007321D01*
X025747Y007358D01*
X025762Y007356D01*
X025804Y007379D01*
X025810Y007393D01*
X025868Y007414D01*
X025922Y007444D01*
X025936Y007440D01*
X025982Y007457D01*
X025990Y007469D01*
X026050Y007482D01*
X026108Y007504D01*
X026121Y007498D01*
X026169Y007508D01*
X026179Y007519D01*
X026240Y007523D01*
X026300Y007536D01*
X026313Y007529D01*
X026354Y007532D01*
X026359Y007537D01*
X026427Y007537D01*
X026495Y007542D01*
X026501Y007537D01*
X027829Y007537D01*
X027829Y016232D01*
X026501Y016232D01*
X026495Y016227D01*
X026427Y016232D01*
X026359Y016232D01*
X026354Y016237D01*
X026313Y016240D01*
X026300Y016232D01*
X026240Y016245D01*
X026179Y016250D01*
X026169Y016261D01*
X026121Y016271D01*
X026108Y016265D01*
X026050Y016287D01*
X025990Y016300D01*
X025982Y016312D01*
X025936Y016329D01*
X025922Y016325D01*
X025868Y016354D01*
X025810Y016376D01*
X025804Y016389D01*
X025762Y016413D01*
X025747Y016411D01*
X025698Y016448D01*
X025644Y016477D01*
X025639Y016491D01*
X025600Y016520D01*
X025586Y016520D01*
X025542Y016564D01*
X025493Y016601D01*
X025491Y016615D01*
X025456Y016650D01*
X025442Y016652D01*
X025405Y016701D01*
X025361Y016745D01*
X025361Y016760D01*
X025332Y016799D01*
X025318Y016803D01*
X025288Y016857D01*
X025251Y016906D01*
X025254Y016921D01*
X025230Y016963D01*
X025217Y016970D01*
X025195Y017027D01*
X025166Y017082D01*
X025170Y017096D01*
X025153Y017141D01*
X025141Y017149D01*
X025127Y017209D01*
X025106Y017267D01*
X025112Y017281D01*
X025102Y017328D01*
X025091Y017338D01*
X025086Y017399D01*
X014374Y017399D01*
X014286Y017311D02*
X014743Y017767D01*
X014953Y017767D01*
X015059Y017873D01*
X016955Y017873D01*
X016967Y017861D02*
X017106Y017804D01*
X017257Y017804D01*
X017362Y017847D01*
X017442Y017767D01*
X018064Y017767D01*
X018169Y017873D01*
X018202Y017873D01*
X018194Y017886D02*
X018215Y017849D01*
X018245Y017819D01*
X018282Y017798D01*
X018322Y017787D01*
X018521Y017787D01*
X018521Y018125D01*
X018638Y018125D01*
X018638Y018242D01*
X018521Y018242D01*
X018521Y018580D01*
X018322Y018580D01*
X018282Y018569D01*
X018245Y018548D01*
X018215Y018518D01*
X018194Y018482D01*
X018183Y018441D01*
X018183Y018242D01*
X018521Y018242D01*
X018521Y018125D01*
X018183Y018125D01*
X018183Y017926D01*
X018194Y017886D01*
X018169Y017873D02*
X018169Y018494D01*
X018064Y018600D01*
X017442Y018600D01*
X017362Y018520D01*
X017257Y018564D01*
X017106Y018564D01*
X016967Y018506D01*
X016860Y018399D01*
X016802Y018259D01*
X016802Y018108D01*
X016860Y017968D01*
X016967Y017861D01*
X016850Y017991D02*
X015059Y017991D01*
X015059Y017873D02*
X015059Y018494D01*
X014953Y018600D01*
X014332Y018600D01*
X014229Y018497D01*
X014127Y018600D01*
X013505Y018600D01*
X013425Y018520D01*
X013320Y018564D01*
X013169Y018564D01*
X013030Y018506D01*
X012923Y018399D01*
X012865Y018259D01*
X012865Y018108D01*
X012923Y017968D01*
X013030Y017861D01*
X013060Y017849D01*
X013030Y017836D01*
X012947Y017754D01*
X012449Y017754D01*
X012361Y017718D01*
X012293Y017650D01*
X010871Y016228D01*
X010834Y016140D01*
X010834Y013836D01*
X010489Y014181D01*
X010489Y015512D01*
X010490Y015513D01*
X010489Y015564D01*
X010489Y015614D01*
X010489Y015615D01*
X010486Y015917D01*
X010547Y015977D01*
X010604Y016117D01*
X010604Y016268D01*
X010547Y016408D01*
X010440Y016515D01*
X010300Y016572D01*
X010149Y016572D01*
X010009Y016515D01*
X009902Y016408D01*
X009844Y016268D01*
X009844Y016117D01*
X009902Y015977D01*
X009966Y015913D01*
X009969Y015562D01*
X009969Y014022D01*
X010009Y013926D01*
X010479Y013456D01*
X010479Y011801D01*
X010327Y011649D01*
X010254Y011576D01*
X010214Y011480D01*
X010214Y011445D01*
X010152Y011383D01*
X010094Y011243D01*
X010094Y011092D01*
X010152Y010952D01*
X010259Y010845D01*
X010334Y010814D01*
X010252Y010733D01*
X010194Y010593D01*
X010194Y010442D01*
X010252Y010302D01*
X010359Y010195D01*
X010499Y010137D01*
X010650Y010137D01*
X010790Y010195D01*
X010897Y010302D01*
X010954Y010442D01*
X010954Y010558D01*
X011210Y010814D01*
X011278Y010881D01*
X013684Y010881D01*
X013684Y010763D02*
X011159Y010763D01*
X011041Y010644D02*
X013684Y010644D01*
X013684Y010526D02*
X010954Y010526D01*
X010940Y010407D02*
X013684Y010407D01*
X013684Y010289D02*
X010883Y010289D01*
X010730Y010170D02*
X013684Y010170D01*
X013684Y010052D02*
X006069Y010052D01*
X006069Y010170D02*
X010419Y010170D01*
X010266Y010289D02*
X006069Y010289D01*
X006069Y010407D02*
X010209Y010407D01*
X010194Y010526D02*
X006069Y010526D01*
X006069Y010644D02*
X010216Y010644D01*
X010282Y010763D02*
X006703Y010763D01*
X006656Y010715D02*
X006756Y010816D01*
X006811Y010947D01*
X006811Y011089D01*
X006756Y011221D01*
X006656Y011321D01*
X006525Y011375D01*
X006382Y011375D01*
X006251Y011321D01*
X006151Y011221D01*
X006096Y011089D01*
X006096Y010947D01*
X006151Y010816D01*
X006251Y010715D01*
X006382Y010661D01*
X006525Y010661D01*
X006656Y010715D01*
X006783Y010881D02*
X010223Y010881D01*
X010132Y011000D02*
X006811Y011000D01*
X006799Y011118D02*
X010094Y011118D01*
X010094Y011237D02*
X006740Y011237D01*
X006573Y011355D02*
X010141Y011355D01*
X010214Y011474D02*
X006069Y011474D01*
X006069Y011592D02*
X010270Y011592D01*
X010389Y011711D02*
X006069Y011711D01*
X006069Y011829D02*
X010479Y011829D01*
X010479Y011948D02*
X006069Y011948D01*
X006069Y012066D02*
X010479Y012066D01*
X010479Y012185D02*
X006069Y012185D01*
X006069Y012303D02*
X010479Y012303D01*
X010479Y012422D02*
X006594Y012422D01*
X006656Y012448D02*
X006756Y012548D01*
X006811Y012679D01*
X006811Y012822D01*
X006756Y012953D01*
X006656Y013053D01*
X006525Y013108D01*
X006382Y013108D01*
X006251Y013053D01*
X006151Y012953D01*
X006096Y012822D01*
X006096Y012679D01*
X006151Y012548D01*
X006251Y012448D01*
X006382Y012393D01*
X006525Y012393D01*
X006656Y012448D01*
X006749Y012540D02*
X010479Y012540D01*
X010479Y012659D02*
X006802Y012659D01*
X006811Y012777D02*
X010479Y012777D01*
X010479Y012896D02*
X006780Y012896D01*
X006695Y013014D02*
X010479Y013014D01*
X010479Y013133D02*
X006069Y013133D01*
X006069Y013251D02*
X010479Y013251D01*
X010479Y013370D02*
X006069Y013370D01*
X006069Y013488D02*
X010446Y013488D01*
X010328Y013607D02*
X006069Y013607D01*
X006069Y013725D02*
X010209Y013725D01*
X010091Y013844D02*
X006069Y013844D01*
X006069Y013962D02*
X009994Y013962D01*
X009969Y014081D02*
X006069Y014081D01*
X006069Y014199D02*
X009969Y014199D01*
X009969Y014318D02*
X006081Y014318D01*
X006069Y014306D02*
X006775Y015012D01*
X006810Y015012D01*
X006968Y015078D01*
X007089Y015199D01*
X007154Y015357D01*
X007154Y015528D01*
X007089Y015686D01*
X006968Y015807D01*
X006810Y015872D01*
X006639Y015872D01*
X006481Y015807D01*
X006360Y015686D01*
X006294Y015528D01*
X006294Y015493D01*
X005537Y014735D01*
X005441Y014640D01*
X005389Y014515D01*
X005389Y009295D01*
X005441Y009170D01*
X005537Y009074D01*
X007732Y006879D01*
X007857Y006827D01*
X014260Y006827D01*
X014800Y006288D01*
X014698Y006186D01*
X014698Y005772D01*
X014991Y005479D01*
X015405Y005479D01*
X015698Y005772D01*
X015698Y006186D01*
X015538Y006346D01*
X015538Y006438D01*
X015486Y006563D01*
X015390Y006659D01*
X014593Y007456D01*
X014589Y007457D01*
X019477Y007457D01*
X019402Y007383D01*
X019344Y007243D01*
X019344Y007092D01*
X019402Y006952D01*
X019493Y006861D01*
X019444Y006743D01*
X019444Y006592D01*
X019502Y006452D01*
X019609Y006345D01*
X019749Y006287D01*
X019900Y006287D01*
X020040Y006345D01*
X020122Y006427D01*
X021327Y006427D01*
X021409Y006345D01*
X021549Y006287D01*
X021665Y006287D01*
X022588Y005364D01*
X022677Y005327D01*
X023967Y005327D01*
X024055Y005364D01*
X024833Y006141D01*
X024869Y006230D01*
X024869Y009384D01*
X025557Y009384D01*
X025662Y009490D01*
X025662Y010279D01*
X025557Y010384D01*
X024869Y010384D01*
X024869Y010470D01*
X024955Y010384D01*
X025369Y010384D01*
X025662Y010677D01*
X025662Y011091D01*
X025369Y011384D01*
X024955Y011384D01*
X024869Y011298D01*
X024869Y011410D01*
X024869Y011457D01*
X024869Y011458D01*
X024869Y011459D01*
X024861Y011478D01*
X024955Y011384D01*
X025369Y011384D01*
X025662Y011677D01*
X025662Y012091D01*
X025369Y012384D01*
X024997Y012384D01*
X024997Y012384D01*
X025369Y012384D01*
X025662Y012677D01*
X025662Y013091D01*
X025369Y013384D01*
X024955Y013384D01*
X024662Y013091D01*
X024369Y013384D01*
X024141Y013384D01*
X024121Y013404D01*
X024122Y013404D01*
X024122Y013844D01*
X024202Y013844D01*
X024202Y013404D01*
X024361Y013404D01*
X024642Y013686D01*
X024642Y013844D01*
X024662Y013844D01*
X024642Y013844D02*
X024202Y013844D01*
X024122Y013844D01*
X023682Y013844D01*
X023679Y013844D01*
X023682Y013844D02*
X023682Y013841D01*
X023439Y014083D01*
X023439Y014956D01*
X023387Y015081D01*
X022675Y015793D01*
X022579Y015889D01*
X022454Y015941D01*
X022059Y015941D01*
X021962Y015981D01*
X021811Y015981D01*
X021714Y015941D01*
X013967Y015941D01*
X013943Y015965D01*
X013785Y016031D01*
X013614Y016031D01*
X013456Y015965D01*
X013335Y015844D01*
X013269Y015686D01*
X013269Y015515D01*
X013335Y015357D01*
X013456Y015236D01*
X013614Y015171D01*
X013785Y015171D01*
X013943Y015236D01*
X013967Y015261D01*
X021714Y015261D01*
X021811Y015221D01*
X021962Y015221D01*
X022059Y015261D01*
X022246Y015261D01*
X022759Y014748D01*
X022759Y014008D01*
X022759Y014008D01*
X022759Y013941D01*
X022759Y013873D01*
X022759Y013872D01*
X022785Y013811D01*
X022811Y013749D01*
X022811Y013748D01*
X022811Y013748D01*
X022859Y013700D01*
X022907Y013653D01*
X023662Y012902D01*
X023662Y012677D01*
X023699Y012641D01*
X022657Y012641D01*
X022580Y012718D01*
X022440Y012776D01*
X022289Y012776D01*
X022149Y012718D01*
X022042Y012611D01*
X021985Y012472D01*
X021985Y012321D01*
X022042Y012181D01*
X022149Y012074D01*
X022289Y012016D01*
X022440Y012016D01*
X022580Y012074D01*
X022667Y012161D01*
X023732Y012161D01*
X023662Y012091D01*
X023662Y011677D01*
X023955Y011384D01*
X023695Y011124D01*
X020884Y011124D01*
X020796Y011088D01*
X020728Y011020D01*
X020094Y010387D01*
X020094Y010443D01*
X020037Y010583D01*
X019930Y010690D01*
X019790Y010747D01*
X019639Y010747D01*
X019499Y010690D01*
X019417Y010607D01*
X018577Y010607D01*
X018488Y010571D01*
X017165Y009247D01*
X017049Y009247D01*
X016909Y009190D01*
X016802Y009083D01*
X016744Y008943D01*
X016744Y008792D01*
X016802Y008652D01*
X016909Y008545D01*
X017049Y008487D01*
X017200Y008487D01*
X017340Y008545D01*
X017447Y008652D01*
X017504Y008792D01*
X017504Y008908D01*
X018724Y010127D01*
X019417Y010127D01*
X019499Y010045D01*
X019639Y009987D01*
X019695Y009987D01*
X019565Y009857D01*
X019449Y009857D01*
X019309Y009799D01*
X019202Y009692D01*
X019144Y009553D01*
X019144Y009463D01*
X019043Y009505D01*
X018891Y009505D01*
X018752Y009447D01*
X018645Y009340D01*
X018587Y009200D01*
X018587Y009054D01*
X018500Y009090D01*
X018349Y009090D01*
X018209Y009032D01*
X018102Y008925D01*
X018044Y008786D01*
X018044Y008634D01*
X018102Y008495D01*
X018209Y008388D01*
X018349Y008330D01*
X018500Y008330D01*
X018640Y008388D01*
X018722Y008470D01*
X019693Y008470D01*
X019782Y008506D01*
X019849Y008574D01*
X020603Y009327D01*
X021792Y009327D01*
X021757Y009243D01*
X021757Y009092D01*
X021815Y008952D01*
X021899Y008868D01*
X021899Y008506D01*
X021936Y008417D01*
X022003Y008350D01*
X022109Y008244D01*
X022109Y007852D01*
X022000Y007897D01*
X021912Y007897D01*
X021872Y007938D01*
X021776Y007977D01*
X013113Y007977D01*
X013209Y008073D01*
X013267Y008213D01*
X013267Y008329D01*
X014128Y009190D01*
X014164Y009278D01*
X014164Y012220D01*
X014247Y012302D01*
X014304Y012442D01*
X014304Y012593D01*
X014247Y012733D01*
X014140Y012840D01*
X014000Y012897D01*
X013849Y012897D01*
X013709Y012840D01*
X013602Y012733D01*
X013544Y012593D01*
X013544Y012442D01*
X013602Y012302D01*
X013684Y012220D01*
X013684Y009426D01*
X012927Y008668D01*
X012811Y008668D01*
X012671Y008611D01*
X012564Y008504D01*
X012507Y008364D01*
X012507Y008213D01*
X012564Y008073D01*
X012660Y007977D01*
X011082Y007977D01*
X010704Y008355D01*
X010704Y008443D01*
X010647Y008583D01*
X010540Y008690D01*
X010400Y008747D01*
X010249Y008747D01*
X010109Y008690D01*
X010002Y008583D01*
X009944Y008443D01*
X009944Y008292D01*
X010002Y008152D01*
X010109Y008045D01*
X010249Y007987D01*
X010337Y007987D01*
X010754Y007570D01*
X010817Y007507D01*
X008065Y007507D01*
X006069Y009504D01*
X006069Y014306D01*
X006199Y014436D02*
X009969Y014436D01*
X009969Y014555D02*
X006318Y014555D01*
X006436Y014673D02*
X009969Y014673D01*
X009969Y014792D02*
X006555Y014792D01*
X006673Y014910D02*
X009969Y014910D01*
X009969Y015029D02*
X006850Y015029D01*
X007038Y015147D02*
X009969Y015147D01*
X009969Y015266D02*
X007117Y015266D01*
X007154Y015384D02*
X009969Y015384D01*
X009969Y015503D02*
X007154Y015503D01*
X007116Y015621D02*
X009969Y015621D01*
X009968Y015740D02*
X007035Y015740D01*
X006844Y015858D02*
X009967Y015858D01*
X009903Y015977D02*
X004567Y015977D01*
X004567Y016095D02*
X009853Y016095D01*
X009844Y016214D02*
X004567Y016214D01*
X004567Y016232D02*
X005894Y016232D01*
X005900Y016227D01*
X005968Y016232D01*
X006036Y016232D01*
X006041Y016237D01*
X006083Y016240D01*
X006095Y016232D01*
X006155Y016245D01*
X006217Y016250D01*
X006226Y016261D01*
X006274Y016271D01*
X006287Y016265D01*
X006345Y016287D01*
X006405Y016300D01*
X006413Y016312D01*
X006459Y016329D01*
X006473Y016325D01*
X006527Y016354D01*
X006585Y016376D01*
X006591Y016389D01*
X006634Y016413D01*
X006648Y016411D01*
X006698Y016448D01*
X006752Y016477D01*
X006756Y016491D01*
X006795Y016520D01*
X006809Y016520D01*
X006853Y016564D01*
X006902Y016601D01*
X006905Y016615D01*
X006939Y016650D01*
X006953Y016652D01*
X006990Y016701D01*
X007034Y016745D01*
X007034Y016760D01*
X007063Y016799D01*
X007077Y016803D01*
X007107Y016857D01*
X007144Y016906D01*
X007142Y016921D01*
X007165Y016963D01*
X007178Y016970D01*
X007200Y017027D01*
X007229Y017082D01*
X007225Y017096D01*
X007242Y017141D01*
X007255Y017149D01*
X007268Y017209D01*
X007289Y017267D01*
X007283Y017281D01*
X007294Y017328D01*
X007305Y017338D01*
X007309Y017399D01*
X012042Y017399D01*
X012161Y017517D02*
X007321Y017517D01*
X007323Y017518D02*
X007323Y017587D01*
X007327Y017655D01*
X007323Y017660D01*
X007323Y018988D01*
X025073Y018988D01*
X025073Y017660D01*
X025068Y017655D01*
X025073Y017587D01*
X025073Y017518D01*
X025078Y017513D01*
X025081Y017472D01*
X025073Y017459D01*
X025086Y017399D01*
X025074Y017517D02*
X014493Y017517D01*
X014611Y017636D02*
X025069Y017636D01*
X025073Y017754D02*
X014730Y017754D01*
X014643Y018006D02*
X014643Y018184D01*
X014643Y018006D02*
X014150Y017514D01*
X013245Y017514D01*
X012497Y017514D01*
X011074Y016092D01*
X011074Y011017D01*
X010574Y010517D01*
X011278Y010881D02*
X011314Y010970D01*
X011314Y015992D01*
X012596Y017274D01*
X012947Y017274D01*
X013030Y017192D01*
X013169Y017134D01*
X013320Y017134D01*
X013460Y017192D01*
X013542Y017274D01*
X014198Y017274D01*
X014286Y017311D01*
X014213Y017280D02*
X025112Y017280D01*
X025138Y017162D02*
X013387Y017162D01*
X013103Y017162D02*
X012484Y017162D01*
X012365Y017043D02*
X025187Y017043D01*
X025251Y016925D02*
X012247Y016925D01*
X012128Y016806D02*
X025316Y016806D01*
X025415Y016688D02*
X012010Y016688D01*
X011891Y016569D02*
X025535Y016569D01*
X025692Y016451D02*
X011773Y016451D01*
X011654Y016332D02*
X025909Y016332D01*
X027829Y016214D02*
X011536Y016214D01*
X011417Y016095D02*
X027829Y016095D01*
X027829Y015977D02*
X021972Y015977D01*
X021801Y015977D02*
X013915Y015977D01*
X013483Y015977D02*
X011314Y015977D01*
X011314Y015858D02*
X013349Y015858D01*
X013291Y015740D02*
X011314Y015740D01*
X011314Y015621D02*
X013269Y015621D01*
X013274Y015503D02*
X011314Y015503D01*
X011314Y015384D02*
X013323Y015384D01*
X013426Y015266D02*
X011314Y015266D01*
X011314Y015147D02*
X022359Y015147D01*
X022478Y015029D02*
X011314Y015029D01*
X011314Y014910D02*
X022596Y014910D01*
X022715Y014792D02*
X011314Y014792D01*
X011314Y014673D02*
X022759Y014673D01*
X022759Y014555D02*
X011314Y014555D01*
X011314Y014436D02*
X022759Y014436D01*
X022759Y014318D02*
X011314Y014318D01*
X011314Y014199D02*
X022759Y014199D01*
X022759Y014081D02*
X011314Y014081D01*
X011314Y013962D02*
X022759Y013962D01*
X022759Y013873D02*
X022759Y013873D01*
X022771Y013844D02*
X011314Y013844D01*
X011314Y013725D02*
X022834Y013725D01*
X022907Y013653D02*
X022907Y013653D01*
X022953Y013607D02*
X011314Y013607D01*
X011314Y013488D02*
X023072Y013488D01*
X023191Y013370D02*
X011314Y013370D01*
X011314Y013251D02*
X023311Y013251D01*
X023430Y013133D02*
X011314Y013133D01*
X011314Y013014D02*
X023549Y013014D01*
X023662Y012896D02*
X016864Y012896D01*
X016860Y012897D02*
X016689Y012897D01*
X016531Y012832D01*
X016410Y012711D01*
X016344Y012553D01*
X016344Y012462D01*
X015920Y012037D01*
X015874Y011927D01*
X015874Y010042D01*
X015480Y009647D01*
X015389Y009647D01*
X015231Y009582D01*
X015110Y009461D01*
X015044Y009303D01*
X015044Y009132D01*
X015110Y008974D01*
X015231Y008853D01*
X015389Y008787D01*
X015560Y008787D01*
X015718Y008853D01*
X015839Y008974D01*
X015904Y009132D01*
X015904Y009223D01*
X016344Y009663D01*
X016429Y009747D01*
X016474Y009858D01*
X016474Y011743D01*
X016769Y012037D01*
X016860Y012037D01*
X017018Y012103D01*
X017139Y012224D01*
X017204Y012382D01*
X017204Y012553D01*
X017139Y012711D01*
X017018Y012832D01*
X016860Y012897D01*
X016685Y012896D02*
X014004Y012896D01*
X013845Y012896D02*
X011314Y012896D01*
X011314Y012777D02*
X013647Y012777D01*
X013572Y012659D02*
X011314Y012659D01*
X011314Y012540D02*
X013544Y012540D01*
X013553Y012422D02*
X011314Y012422D01*
X011314Y012303D02*
X013602Y012303D01*
X013684Y012185D02*
X011314Y012185D01*
X011314Y012066D02*
X013684Y012066D01*
X013684Y011948D02*
X011314Y011948D01*
X011314Y011829D02*
X013684Y011829D01*
X013684Y011711D02*
X011314Y011711D01*
X011314Y011592D02*
X013684Y011592D01*
X013684Y011474D02*
X011314Y011474D01*
X011314Y011355D02*
X013684Y011355D01*
X013684Y011237D02*
X011314Y011237D01*
X011314Y011118D02*
X013684Y011118D01*
X013684Y011000D02*
X011314Y011000D01*
X013684Y009933D02*
X006069Y009933D01*
X006069Y009815D02*
X013684Y009815D01*
X013684Y009696D02*
X006069Y009696D01*
X006069Y009578D02*
X013684Y009578D01*
X013684Y009459D02*
X006113Y009459D01*
X006232Y009341D02*
X013600Y009341D01*
X013481Y009222D02*
X006350Y009222D01*
X006469Y009104D02*
X013363Y009104D01*
X013244Y008985D02*
X006587Y008985D01*
X006706Y008867D02*
X013126Y008867D01*
X013007Y008748D02*
X006824Y008748D01*
X006943Y008630D02*
X010049Y008630D01*
X009973Y008511D02*
X007061Y008511D01*
X007180Y008393D02*
X009944Y008393D01*
X009952Y008274D02*
X007298Y008274D01*
X007417Y008156D02*
X010001Y008156D01*
X010128Y008037D02*
X007535Y008037D01*
X007654Y007919D02*
X010405Y007919D01*
X010524Y007800D02*
X007772Y007800D01*
X007891Y007682D02*
X010642Y007682D01*
X010754Y007570D02*
X010754Y007570D01*
X010761Y007563D02*
X008009Y007563D01*
X007403Y007208D02*
X006850Y007208D01*
X006853Y007205D02*
X006809Y007248D01*
X006795Y007248D01*
X006756Y007277D01*
X006752Y007292D01*
X006698Y007321D01*
X006648Y007358D01*
X006634Y007356D01*
X006591Y007379D01*
X006585Y007393D01*
X006527Y007414D01*
X006473Y007444D01*
X006459Y007440D01*
X006413Y007457D01*
X006405Y007469D01*
X006345Y007482D01*
X006287Y007504D01*
X006274Y007498D01*
X006226Y007508D01*
X006217Y007519D01*
X006155Y007523D01*
X006095Y007536D01*
X006083Y007529D01*
X006041Y007532D01*
X006036Y007537D01*
X005968Y007537D01*
X005900Y007542D01*
X005894Y007537D01*
X004567Y007537D01*
X004567Y016232D01*
X004567Y015858D02*
X006605Y015858D01*
X006414Y015740D02*
X004567Y015740D01*
X004567Y015621D02*
X006333Y015621D01*
X006294Y015503D02*
X004567Y015503D01*
X004567Y015384D02*
X006186Y015384D01*
X006067Y015266D02*
X004567Y015266D01*
X004567Y015147D02*
X005949Y015147D01*
X005830Y015029D02*
X004567Y015029D01*
X004567Y014910D02*
X005712Y014910D01*
X005593Y014792D02*
X004567Y014792D01*
X004567Y014673D02*
X005475Y014673D01*
X005406Y014555D02*
X004567Y014555D01*
X004567Y014436D02*
X005389Y014436D01*
X005389Y014318D02*
X004567Y014318D01*
X004567Y014199D02*
X005389Y014199D01*
X005389Y014081D02*
X004567Y014081D01*
X004567Y013962D02*
X005389Y013962D01*
X005389Y013844D02*
X004567Y013844D01*
X004567Y013725D02*
X005389Y013725D01*
X005389Y013607D02*
X004567Y013607D01*
X004567Y013488D02*
X005389Y013488D01*
X005389Y013370D02*
X004567Y013370D01*
X004567Y013251D02*
X005389Y013251D01*
X005389Y013133D02*
X004567Y013133D01*
X004567Y013014D02*
X005389Y013014D01*
X005389Y012896D02*
X004567Y012896D01*
X004567Y012777D02*
X005389Y012777D01*
X005389Y012659D02*
X004567Y012659D01*
X004567Y012540D02*
X005389Y012540D01*
X005389Y012422D02*
X004567Y012422D01*
X004567Y012303D02*
X005389Y012303D01*
X005389Y012185D02*
X004567Y012185D01*
X004567Y012066D02*
X005389Y012066D01*
X005389Y011948D02*
X004567Y011948D01*
X004567Y011829D02*
X005389Y011829D01*
X005389Y011711D02*
X004567Y011711D01*
X004567Y011592D02*
X005389Y011592D01*
X005389Y011474D02*
X004567Y011474D01*
X004567Y011355D02*
X005389Y011355D01*
X005389Y011237D02*
X004567Y011237D01*
X004567Y011118D02*
X005389Y011118D01*
X005389Y011000D02*
X004567Y011000D01*
X004567Y010881D02*
X005389Y010881D01*
X005389Y010763D02*
X004567Y010763D01*
X004567Y010644D02*
X005389Y010644D01*
X005389Y010526D02*
X004567Y010526D01*
X004567Y010407D02*
X005389Y010407D01*
X005389Y010289D02*
X004567Y010289D01*
X004567Y010170D02*
X005389Y010170D01*
X005389Y010052D02*
X004567Y010052D01*
X004567Y009933D02*
X005389Y009933D01*
X005389Y009815D02*
X004567Y009815D01*
X004567Y009696D02*
X005389Y009696D01*
X005389Y009578D02*
X004567Y009578D01*
X004567Y009459D02*
X005389Y009459D01*
X005389Y009341D02*
X004567Y009341D01*
X004567Y009222D02*
X005419Y009222D01*
X005507Y009104D02*
X004567Y009104D01*
X004567Y008985D02*
X005626Y008985D01*
X005744Y008867D02*
X004567Y008867D01*
X004567Y008748D02*
X005863Y008748D01*
X005981Y008630D02*
X004567Y008630D01*
X004567Y008511D02*
X006100Y008511D01*
X006218Y008393D02*
X004567Y008393D01*
X004567Y008274D02*
X006337Y008274D01*
X006455Y008156D02*
X004567Y008156D01*
X004567Y008037D02*
X006574Y008037D01*
X006692Y007919D02*
X004567Y007919D01*
X004567Y007800D02*
X006811Y007800D01*
X006929Y007682D02*
X004567Y007682D01*
X004567Y007563D02*
X007048Y007563D01*
X007166Y007445D02*
X006445Y007445D01*
X006690Y007326D02*
X007285Y007326D01*
X007522Y007089D02*
X006974Y007089D01*
X006990Y007067D02*
X006953Y007117D01*
X006939Y007119D01*
X006905Y007153D01*
X006902Y007168D01*
X006853Y007205D01*
X006990Y007067D02*
X007034Y007024D01*
X007034Y007009D01*
X007063Y006970D01*
X007077Y006966D01*
X007107Y006912D01*
X007144Y006862D01*
X007142Y006848D01*
X007165Y006805D01*
X007178Y006799D01*
X007200Y006741D01*
X007229Y006687D01*
X007225Y006673D01*
X007242Y006627D01*
X007255Y006620D01*
X007268Y006559D01*
X007289Y006501D01*
X007283Y006488D01*
X007294Y006441D01*
X007305Y006431D01*
X007309Y006369D01*
X007322Y006309D01*
X007314Y006297D01*
X007317Y006255D01*
X007323Y006250D01*
X007323Y006182D01*
X007327Y006114D01*
X007323Y006109D01*
X007325Y006141D02*
X013698Y006141D01*
X013698Y006023D02*
X007323Y006023D01*
X007323Y005904D02*
X013698Y005904D01*
X013698Y005786D02*
X007323Y005786D01*
X007323Y005667D02*
X013698Y005667D01*
X013698Y005584D02*
X013803Y005479D01*
X014592Y005479D01*
X014698Y005584D01*
X014698Y006373D01*
X014592Y006479D01*
X013803Y006479D01*
X013698Y006373D01*
X013698Y005584D01*
X013733Y005549D02*
X007323Y005549D01*
X007323Y005430D02*
X022522Y005430D01*
X022404Y005549D02*
X018475Y005549D01*
X018405Y005479D02*
X018698Y005772D01*
X018698Y006186D01*
X018405Y006479D01*
X017991Y006479D01*
X017698Y006186D01*
X017698Y005772D01*
X017991Y005479D01*
X018405Y005479D01*
X018593Y005667D02*
X022285Y005667D01*
X022167Y005786D02*
X018698Y005786D01*
X018698Y005904D02*
X022048Y005904D01*
X021930Y006023D02*
X018698Y006023D01*
X018698Y006141D02*
X021811Y006141D01*
X021693Y006260D02*
X018624Y006260D01*
X018505Y006378D02*
X019576Y006378D01*
X019484Y006497D02*
X015513Y006497D01*
X015538Y006378D02*
X015918Y006378D01*
X015999Y006459D02*
X015718Y006178D01*
X015718Y006019D01*
X016158Y006019D01*
X016158Y006459D01*
X015999Y006459D01*
X016158Y006378D02*
X016238Y006378D01*
X016238Y006459D02*
X016238Y006019D01*
X016678Y006019D01*
X016678Y006178D01*
X016396Y006459D01*
X016238Y006459D01*
X016238Y006260D02*
X016158Y006260D01*
X016158Y006141D02*
X016238Y006141D01*
X016238Y006023D02*
X016158Y006023D01*
X016158Y006019D02*
X016238Y006019D01*
X016238Y005939D01*
X016678Y005939D01*
X016678Y005780D01*
X016396Y005499D01*
X016238Y005499D01*
X016238Y005939D01*
X016158Y005939D01*
X016158Y005499D01*
X015999Y005499D01*
X015718Y005780D01*
X015718Y005939D01*
X016158Y005939D01*
X016158Y006019D01*
X016158Y005904D02*
X016238Y005904D01*
X016238Y005786D02*
X016158Y005786D01*
X016158Y005667D02*
X016238Y005667D01*
X016238Y005549D02*
X016158Y005549D01*
X015949Y005549D02*
X015475Y005549D01*
X015593Y005667D02*
X015830Y005667D01*
X015718Y005786D02*
X015698Y005786D01*
X015698Y005904D02*
X015718Y005904D01*
X015718Y006023D02*
X015698Y006023D01*
X015698Y006141D02*
X015718Y006141D01*
X015800Y006260D02*
X015624Y006260D01*
X015434Y006615D02*
X019444Y006615D01*
X019444Y006734D02*
X015315Y006734D01*
X015197Y006852D02*
X019490Y006852D01*
X019395Y006971D02*
X015078Y006971D01*
X014960Y007089D02*
X019345Y007089D01*
X019344Y007208D02*
X014841Y007208D01*
X014723Y007326D02*
X019379Y007326D01*
X019464Y007445D02*
X014604Y007445D01*
X014353Y006734D02*
X007204Y006734D01*
X007256Y006615D02*
X014472Y006615D01*
X014590Y006497D02*
X007287Y006497D01*
X007308Y006378D02*
X013703Y006378D01*
X013698Y006260D02*
X007317Y006260D01*
X007142Y006852D02*
X007796Y006852D01*
X007640Y006971D02*
X007063Y006971D01*
X007323Y005312D02*
X025073Y005312D01*
X025073Y005430D02*
X024122Y005430D01*
X024240Y005549D02*
X025073Y005549D01*
X025073Y005667D02*
X024359Y005667D01*
X024477Y005786D02*
X025073Y005786D01*
X025073Y005904D02*
X024596Y005904D01*
X024714Y006023D02*
X025073Y006023D01*
X025070Y006141D02*
X024833Y006141D01*
X024869Y006260D02*
X025078Y006260D01*
X025087Y006378D02*
X024869Y006378D01*
X024869Y006497D02*
X025108Y006497D01*
X025140Y006615D02*
X024869Y006615D01*
X024869Y006734D02*
X025191Y006734D01*
X025253Y006852D02*
X024869Y006852D01*
X024869Y006971D02*
X025333Y006971D01*
X025421Y007089D02*
X024869Y007089D01*
X024869Y007208D02*
X025545Y007208D01*
X025705Y007326D02*
X024869Y007326D01*
X024869Y007445D02*
X025951Y007445D01*
X024869Y007563D02*
X027829Y007563D01*
X027829Y007682D02*
X024869Y007682D01*
X024869Y007800D02*
X027829Y007800D01*
X027829Y007919D02*
X024869Y007919D01*
X024869Y008037D02*
X027829Y008037D01*
X027829Y008156D02*
X024869Y008156D01*
X024869Y008274D02*
X027829Y008274D01*
X027829Y008393D02*
X024869Y008393D01*
X024869Y008511D02*
X027829Y008511D01*
X027829Y008630D02*
X024869Y008630D01*
X024869Y008748D02*
X027829Y008748D01*
X027829Y008867D02*
X024869Y008867D01*
X024869Y008985D02*
X027829Y008985D01*
X027829Y009104D02*
X024869Y009104D01*
X024869Y009222D02*
X027829Y009222D01*
X027829Y009341D02*
X024869Y009341D01*
X025632Y009459D02*
X027829Y009459D01*
X027829Y009578D02*
X025662Y009578D01*
X025662Y009696D02*
X027829Y009696D01*
X027829Y009815D02*
X025662Y009815D01*
X025662Y009933D02*
X027829Y009933D01*
X027829Y010052D02*
X025662Y010052D01*
X025662Y010170D02*
X027829Y010170D01*
X027829Y010289D02*
X025652Y010289D01*
X025511Y010526D02*
X027829Y010526D01*
X027829Y010644D02*
X025629Y010644D01*
X025662Y010763D02*
X027829Y010763D01*
X027829Y010881D02*
X025662Y010881D01*
X025662Y011000D02*
X027829Y011000D01*
X027829Y011118D02*
X025635Y011118D01*
X025517Y011237D02*
X027829Y011237D01*
X027829Y011355D02*
X025398Y011355D01*
X025459Y011474D02*
X027829Y011474D01*
X027829Y011592D02*
X025577Y011592D01*
X025662Y011711D02*
X027829Y011711D01*
X027829Y011829D02*
X025662Y011829D01*
X025662Y011948D02*
X027829Y011948D01*
X027829Y012066D02*
X025662Y012066D01*
X025569Y012185D02*
X027829Y012185D01*
X027829Y012303D02*
X025450Y012303D01*
X025407Y012422D02*
X027829Y012422D01*
X027829Y012540D02*
X025525Y012540D01*
X025644Y012659D02*
X027829Y012659D01*
X027829Y012777D02*
X025662Y012777D01*
X025662Y012896D02*
X027829Y012896D01*
X027829Y013014D02*
X025662Y013014D01*
X025621Y013133D02*
X027829Y013133D01*
X027829Y013251D02*
X025502Y013251D01*
X025384Y013370D02*
X027829Y013370D01*
X027829Y013488D02*
X025473Y013488D01*
X025369Y013384D02*
X024955Y013384D01*
X024662Y013677D01*
X024662Y014091D01*
X024955Y014384D01*
X025369Y014384D01*
X025662Y014091D01*
X025662Y013677D01*
X025369Y013384D01*
X025592Y013607D02*
X027829Y013607D01*
X027829Y013725D02*
X025662Y013725D01*
X025662Y013844D02*
X027829Y013844D01*
X027829Y013962D02*
X025662Y013962D01*
X025662Y014081D02*
X027829Y014081D01*
X027829Y014199D02*
X025554Y014199D01*
X025436Y014318D02*
X027829Y014318D01*
X027829Y014436D02*
X023439Y014436D01*
X023439Y014318D02*
X023917Y014318D01*
X023963Y014364D02*
X023682Y014083D01*
X023682Y013924D01*
X024122Y013924D01*
X024122Y013844D01*
X024202Y013844D02*
X024202Y013924D01*
X024642Y013924D01*
X024642Y014083D01*
X024361Y014364D01*
X024202Y014364D01*
X024202Y013924D01*
X024122Y013924D01*
X024122Y014364D01*
X023963Y014364D01*
X024122Y014318D02*
X024202Y014318D01*
X024202Y014199D02*
X024122Y014199D01*
X024122Y014081D02*
X024202Y014081D01*
X024202Y013962D02*
X024122Y013962D01*
X024122Y013725D02*
X024202Y013725D01*
X024202Y013607D02*
X024122Y013607D01*
X024122Y013488D02*
X024202Y013488D01*
X024384Y013370D02*
X024941Y013370D01*
X024851Y013488D02*
X024445Y013488D01*
X024564Y013607D02*
X024733Y013607D01*
X024662Y013725D02*
X024642Y013725D01*
X024642Y013962D02*
X024662Y013962D01*
X024662Y014081D02*
X024642Y014081D01*
X024526Y014199D02*
X024770Y014199D01*
X024889Y014318D02*
X024407Y014318D01*
X023798Y014199D02*
X023439Y014199D01*
X023441Y014081D02*
X023682Y014081D01*
X023682Y013962D02*
X023560Y013962D01*
X023439Y014555D02*
X027829Y014555D01*
X027829Y014673D02*
X023439Y014673D01*
X023439Y014792D02*
X027829Y014792D01*
X027829Y014910D02*
X023439Y014910D01*
X023409Y015029D02*
X027829Y015029D01*
X027829Y015147D02*
X023321Y015147D01*
X023202Y015266D02*
X027829Y015266D01*
X027829Y015384D02*
X023084Y015384D01*
X022965Y015503D02*
X027829Y015503D01*
X027829Y015621D02*
X022847Y015621D01*
X022728Y015740D02*
X027829Y015740D01*
X027829Y015858D02*
X022610Y015858D01*
X022575Y017787D02*
X022774Y017787D01*
X022815Y017798D01*
X022851Y017819D01*
X022881Y017849D01*
X022902Y017886D01*
X022913Y017926D01*
X022913Y018125D01*
X022575Y018125D01*
X022575Y018242D01*
X022458Y018242D01*
X022458Y018125D01*
X022575Y018125D01*
X022575Y017787D01*
X022575Y017873D02*
X022458Y017873D01*
X022458Y017787D02*
X022458Y018125D01*
X022120Y018125D01*
X022120Y017926D01*
X022131Y017886D01*
X022152Y017849D01*
X022182Y017819D01*
X022219Y017798D01*
X022259Y017787D01*
X022458Y017787D01*
X022458Y017991D02*
X022575Y017991D01*
X022575Y018110D02*
X022458Y018110D01*
X022458Y018228D02*
X022106Y018228D01*
X022120Y018242D02*
X022120Y018441D01*
X022131Y018482D01*
X022152Y018518D01*
X022182Y018548D01*
X022219Y018569D01*
X022259Y018580D01*
X022458Y018580D01*
X022458Y018242D01*
X022120Y018242D01*
X022106Y018347D02*
X022120Y018347D01*
X022106Y018465D02*
X022127Y018465D01*
X022106Y018494D02*
X022001Y018600D01*
X021379Y018600D01*
X021299Y018520D01*
X021194Y018564D01*
X021043Y018564D01*
X020904Y018506D01*
X020797Y018399D01*
X020739Y018259D01*
X020739Y018108D01*
X020797Y017968D01*
X020904Y017861D01*
X021043Y017804D01*
X021194Y017804D01*
X021299Y017847D01*
X021379Y017767D01*
X022001Y017767D01*
X022106Y017873D01*
X022139Y017873D01*
X022106Y017873D02*
X022106Y018494D01*
X022016Y018584D02*
X025073Y018584D01*
X025073Y018702D02*
X007323Y018702D01*
X007323Y018584D02*
X009552Y018584D01*
X009568Y018600D02*
X009488Y018520D01*
X009383Y018564D01*
X009232Y018564D01*
X009093Y018506D01*
X008986Y018399D01*
X008928Y018259D01*
X008928Y018108D01*
X008986Y017968D01*
X009093Y017861D01*
X009232Y017804D01*
X009383Y017804D01*
X009488Y017847D01*
X009568Y017767D01*
X010190Y017767D01*
X010295Y017873D01*
X010328Y017873D01*
X010320Y017886D02*
X010341Y017849D01*
X010371Y017819D01*
X010408Y017798D01*
X010448Y017787D01*
X010647Y017787D01*
X010647Y018125D01*
X010764Y018125D01*
X010764Y018242D01*
X010647Y018242D01*
X010647Y018580D01*
X010448Y018580D01*
X010408Y018569D01*
X010371Y018548D01*
X010341Y018518D01*
X010320Y018482D01*
X010309Y018441D01*
X010309Y018242D01*
X010647Y018242D01*
X010647Y018125D01*
X010309Y018125D01*
X010309Y017926D01*
X010320Y017886D01*
X010295Y017873D02*
X010295Y018494D01*
X010190Y018600D01*
X009568Y018600D01*
X009308Y018184D02*
X009879Y018184D01*
X010295Y018228D02*
X010647Y018228D01*
X010764Y018228D02*
X012865Y018228D01*
X012865Y018110D02*
X011102Y018110D01*
X011102Y018125D02*
X010764Y018125D01*
X010764Y017787D01*
X010963Y017787D01*
X011003Y017798D01*
X011040Y017819D01*
X011070Y017849D01*
X011091Y017886D01*
X011102Y017926D01*
X011102Y018125D01*
X011102Y018242D02*
X010764Y018242D01*
X010764Y018580D01*
X010963Y018580D01*
X011003Y018569D01*
X011040Y018548D01*
X011070Y018518D01*
X011091Y018482D01*
X011102Y018441D01*
X011102Y018242D01*
X011102Y018347D02*
X012901Y018347D01*
X012989Y018465D02*
X011095Y018465D01*
X010764Y018465D02*
X010647Y018465D01*
X010647Y018347D02*
X010764Y018347D01*
X010764Y018110D02*
X010647Y018110D01*
X010647Y017991D02*
X010764Y017991D01*
X010764Y017873D02*
X010647Y017873D01*
X010309Y017991D02*
X010295Y017991D01*
X010295Y018110D02*
X010309Y018110D01*
X010295Y018347D02*
X010309Y018347D01*
X010295Y018465D02*
X010316Y018465D01*
X010205Y018584D02*
X013489Y018584D01*
X013245Y018184D02*
X013816Y018184D01*
X014142Y018584D02*
X014316Y018584D01*
X014969Y018584D02*
X017426Y018584D01*
X017182Y018184D02*
X017753Y018184D01*
X018079Y018584D02*
X021363Y018584D01*
X021119Y018184D02*
X021690Y018184D01*
X022106Y018110D02*
X022120Y018110D01*
X022106Y017991D02*
X022120Y017991D01*
X022458Y018347D02*
X022575Y018347D01*
X022575Y018242D02*
X022575Y018580D01*
X022774Y018580D01*
X022815Y018569D01*
X022851Y018548D01*
X022881Y018518D01*
X022902Y018482D01*
X022913Y018441D01*
X022913Y018242D01*
X022575Y018242D01*
X022575Y018228D02*
X025073Y018228D01*
X025073Y018110D02*
X022913Y018110D01*
X022913Y017991D02*
X025073Y017991D01*
X025073Y017873D02*
X022895Y017873D01*
X022913Y018347D02*
X025073Y018347D01*
X025073Y018465D02*
X022906Y018465D01*
X022575Y018465D02*
X022458Y018465D01*
X020892Y017873D02*
X018958Y017873D01*
X018965Y017886D02*
X018976Y017926D01*
X018976Y018125D01*
X018638Y018125D01*
X018638Y017787D01*
X018837Y017787D01*
X018878Y017798D01*
X018914Y017819D01*
X018944Y017849D01*
X018965Y017886D01*
X018976Y017991D02*
X020787Y017991D01*
X020739Y018110D02*
X018976Y018110D01*
X018976Y018242D02*
X018638Y018242D01*
X018638Y018580D01*
X018837Y018580D01*
X018878Y018569D01*
X018914Y018548D01*
X018944Y018518D01*
X018965Y018482D01*
X018976Y018441D01*
X018976Y018242D01*
X018976Y018347D02*
X020775Y018347D01*
X020739Y018228D02*
X018638Y018228D01*
X018521Y018228D02*
X018169Y018228D01*
X018169Y018110D02*
X018183Y018110D01*
X018169Y017991D02*
X018183Y017991D01*
X018521Y017991D02*
X018638Y017991D01*
X018638Y017873D02*
X018521Y017873D01*
X018521Y018110D02*
X018638Y018110D01*
X018638Y018347D02*
X018521Y018347D01*
X018521Y018465D02*
X018638Y018465D01*
X018969Y018465D02*
X020863Y018465D01*
X018190Y018465D02*
X018169Y018465D01*
X018169Y018347D02*
X018183Y018347D01*
X016926Y018465D02*
X015059Y018465D01*
X015059Y018347D02*
X016838Y018347D01*
X016802Y018228D02*
X015059Y018228D01*
X015059Y018110D02*
X016802Y018110D01*
X013018Y017873D02*
X011084Y017873D01*
X011102Y017991D02*
X012913Y017991D01*
X012948Y017754D02*
X007323Y017754D01*
X007326Y017636D02*
X012279Y017636D01*
X011924Y017280D02*
X007283Y017280D01*
X007257Y017162D02*
X011805Y017162D01*
X011687Y017043D02*
X007209Y017043D01*
X007144Y016925D02*
X011568Y016925D01*
X011450Y016806D02*
X007079Y016806D01*
X006980Y016688D02*
X011331Y016688D01*
X011213Y016569D02*
X010307Y016569D01*
X010142Y016569D02*
X006860Y016569D01*
X006704Y016451D02*
X009945Y016451D01*
X009871Y016332D02*
X006487Y016332D01*
X007309Y017399D02*
X007322Y017459D01*
X007314Y017472D01*
X007317Y017513D01*
X007323Y017518D01*
X007323Y017873D02*
X009081Y017873D01*
X008976Y017991D02*
X007323Y017991D01*
X007323Y018110D02*
X008928Y018110D01*
X008928Y018228D02*
X007323Y018228D01*
X007323Y018347D02*
X008964Y018347D01*
X009052Y018465D02*
X007323Y018465D01*
X007323Y018821D02*
X025073Y018821D01*
X025073Y018939D02*
X007323Y018939D01*
X010503Y016451D02*
X011094Y016451D01*
X010976Y016332D02*
X010578Y016332D01*
X010604Y016214D02*
X010865Y016214D01*
X010834Y016095D02*
X010596Y016095D01*
X010546Y015977D02*
X010834Y015977D01*
X010834Y015858D02*
X010487Y015858D01*
X010488Y015740D02*
X010834Y015740D01*
X010834Y015621D02*
X010489Y015621D01*
X010489Y015503D02*
X010834Y015503D01*
X010834Y015384D02*
X010489Y015384D01*
X010489Y015266D02*
X010834Y015266D01*
X010834Y015147D02*
X010489Y015147D01*
X010489Y015029D02*
X010834Y015029D01*
X010834Y014910D02*
X010489Y014910D01*
X010489Y014792D02*
X010834Y014792D01*
X010834Y014673D02*
X010489Y014673D01*
X010489Y014555D02*
X010834Y014555D01*
X010834Y014436D02*
X010489Y014436D01*
X010489Y014318D02*
X010834Y014318D01*
X010834Y014199D02*
X010489Y014199D01*
X010589Y014081D02*
X010834Y014081D01*
X010834Y013962D02*
X010708Y013962D01*
X010826Y013844D02*
X010834Y013844D01*
X013924Y012517D02*
X013924Y009326D01*
X012887Y008288D01*
X013243Y008156D02*
X022109Y008156D01*
X022109Y008037D02*
X013173Y008037D01*
X013267Y008274D02*
X022079Y008274D01*
X021960Y008393D02*
X018645Y008393D01*
X018424Y008710D02*
X019646Y008710D01*
X020503Y009567D01*
X022356Y009567D01*
X022656Y009267D01*
X023539Y009267D01*
X024162Y009884D01*
X024869Y010407D02*
X024932Y010407D01*
X025392Y010407D02*
X027829Y010407D01*
X024926Y011355D02*
X024869Y011355D01*
X024863Y011474D02*
X024866Y011474D01*
X024629Y011411D02*
X024629Y006277D01*
X023919Y005567D01*
X022724Y005567D01*
X021624Y006667D01*
X019824Y006667D01*
X020073Y006378D02*
X021376Y006378D01*
X022093Y007067D02*
X022349Y007323D01*
X022349Y008343D01*
X022139Y008553D01*
X022139Y009165D01*
X022137Y009167D01*
X021801Y008985D02*
X020261Y008985D01*
X020379Y009104D02*
X021757Y009104D01*
X021757Y009222D02*
X020498Y009222D01*
X020142Y008867D02*
X021899Y008867D01*
X021899Y008748D02*
X020024Y008748D01*
X019905Y008630D02*
X021899Y008630D01*
X021899Y008511D02*
X019787Y008511D01*
X019611Y009025D02*
X019067Y009025D01*
X018967Y009125D01*
X018587Y009104D02*
X017700Y009104D01*
X017582Y008985D02*
X018162Y008985D01*
X018078Y008867D02*
X017504Y008867D01*
X017486Y008748D02*
X018044Y008748D01*
X018046Y008630D02*
X017424Y008630D01*
X017258Y008511D02*
X018095Y008511D01*
X018204Y008393D02*
X013331Y008393D01*
X013449Y008511D02*
X016991Y008511D01*
X016825Y008630D02*
X013568Y008630D01*
X013686Y008748D02*
X016762Y008748D01*
X016744Y008867D02*
X015732Y008867D01*
X015844Y008985D02*
X016762Y008985D01*
X016823Y009104D02*
X015893Y009104D01*
X015904Y009222D02*
X016988Y009222D01*
X017258Y009341D02*
X016022Y009341D01*
X016141Y009459D02*
X017377Y009459D01*
X017495Y009578D02*
X016259Y009578D01*
X016378Y009696D02*
X017614Y009696D01*
X017732Y009815D02*
X016457Y009815D01*
X016474Y009933D02*
X017851Y009933D01*
X017969Y010052D02*
X016474Y010052D01*
X016474Y010170D02*
X018088Y010170D01*
X018206Y010289D02*
X016474Y010289D01*
X016474Y010407D02*
X018325Y010407D01*
X018443Y010526D02*
X016474Y010526D01*
X016474Y010644D02*
X019454Y010644D01*
X019714Y010367D02*
X018624Y010367D01*
X017124Y008867D01*
X017819Y009222D02*
X018596Y009222D01*
X018646Y009341D02*
X017937Y009341D01*
X018056Y009459D02*
X018781Y009459D01*
X019155Y009578D02*
X018174Y009578D01*
X018293Y009696D02*
X019206Y009696D01*
X019347Y009815D02*
X018411Y009815D01*
X018530Y009933D02*
X019641Y009933D01*
X019493Y010052D02*
X018648Y010052D01*
X019524Y009477D02*
X020931Y010884D01*
X024162Y010884D01*
X023808Y011237D02*
X016474Y011237D01*
X016474Y011355D02*
X023926Y011355D01*
X023955Y011384D02*
X024318Y011384D01*
X024318Y011384D01*
X023955Y011384D01*
X023866Y011474D02*
X016474Y011474D01*
X016474Y011592D02*
X023747Y011592D01*
X023662Y011711D02*
X016474Y011711D01*
X016561Y011829D02*
X023662Y011829D01*
X023662Y011948D02*
X016679Y011948D01*
X016930Y012066D02*
X022168Y012066D01*
X022041Y012185D02*
X017100Y012185D01*
X017172Y012303D02*
X021992Y012303D01*
X021985Y012422D02*
X017204Y012422D01*
X017204Y012540D02*
X022013Y012540D01*
X022090Y012659D02*
X017161Y012659D01*
X017073Y012777D02*
X023662Y012777D01*
X023681Y012659D02*
X022639Y012659D01*
X022439Y012401D02*
X022365Y012396D01*
X022439Y012401D02*
X024672Y012401D01*
X025162Y012884D01*
X024662Y012896D02*
X024662Y012896D01*
X024662Y013014D02*
X024662Y013014D01*
X024662Y013091D02*
X024662Y012728D01*
X024662Y012728D01*
X024662Y013091D01*
X024621Y013133D02*
X024704Y013133D01*
X024822Y013251D02*
X024502Y013251D01*
X024662Y012777D02*
X024662Y012777D01*
X024162Y011884D02*
X024629Y011411D01*
X023662Y012066D02*
X022561Y012066D01*
X020869Y011118D02*
X016474Y011118D01*
X016474Y011000D02*
X020708Y011000D01*
X020589Y010881D02*
X016474Y010881D01*
X016474Y010763D02*
X020471Y010763D01*
X020352Y010644D02*
X019975Y010644D01*
X020060Y010526D02*
X020234Y010526D01*
X020115Y010407D02*
X020094Y010407D01*
X020403Y009817D02*
X019611Y009025D01*
X020403Y009817D02*
X022906Y009817D01*
X022637Y008667D02*
X022637Y007946D01*
X023424Y007158D01*
X023424Y006767D01*
X023824Y006267D02*
X023824Y007380D01*
X023037Y008167D01*
X022109Y007919D02*
X021891Y007919D01*
X022093Y007067D02*
X019824Y007067D01*
X019724Y007167D01*
X017890Y006378D02*
X017505Y006378D01*
X017405Y006479D02*
X016991Y006479D01*
X016698Y006186D01*
X016698Y005772D01*
X016991Y005479D01*
X017405Y005479D01*
X017698Y005772D01*
X017698Y006186D01*
X017405Y006479D01*
X017624Y006260D02*
X017772Y006260D01*
X017698Y006141D02*
X017698Y006141D01*
X017698Y006023D02*
X017698Y006023D01*
X017698Y005904D02*
X017698Y005904D01*
X017698Y005786D02*
X017698Y005786D01*
X017593Y005667D02*
X017802Y005667D01*
X017920Y005549D02*
X017475Y005549D01*
X016920Y005549D02*
X016447Y005549D01*
X016565Y005667D02*
X016802Y005667D01*
X016698Y005786D02*
X016678Y005786D01*
X016678Y005904D02*
X016698Y005904D01*
X016698Y006023D02*
X016678Y006023D01*
X016678Y006141D02*
X016698Y006141D01*
X016772Y006260D02*
X016595Y006260D01*
X016477Y006378D02*
X016890Y006378D01*
X014772Y006260D02*
X014698Y006260D01*
X014693Y006378D02*
X014709Y006378D01*
X014698Y006141D02*
X014698Y006141D01*
X014698Y006023D02*
X014698Y006023D01*
X014698Y005904D02*
X014698Y005904D01*
X014698Y005786D02*
X014698Y005786D01*
X014698Y005667D02*
X014802Y005667D01*
X014920Y005549D02*
X014662Y005549D01*
X012600Y008037D02*
X011022Y008037D01*
X010904Y008156D02*
X012530Y008156D01*
X012507Y008274D02*
X010785Y008274D01*
X010704Y008393D02*
X012519Y008393D01*
X012572Y008511D02*
X010676Y008511D01*
X010599Y008630D02*
X012718Y008630D01*
X013805Y008867D02*
X015217Y008867D01*
X015105Y008985D02*
X013923Y008985D01*
X014042Y009104D02*
X015056Y009104D01*
X015044Y009222D02*
X014141Y009222D01*
X014164Y009341D02*
X015060Y009341D01*
X015109Y009459D02*
X014164Y009459D01*
X014164Y009578D02*
X015227Y009578D01*
X015529Y009696D02*
X014164Y009696D01*
X014164Y009815D02*
X015648Y009815D01*
X015766Y009933D02*
X014164Y009933D01*
X014164Y010052D02*
X015874Y010052D01*
X015874Y010170D02*
X014164Y010170D01*
X014164Y010289D02*
X015874Y010289D01*
X015874Y010407D02*
X014164Y010407D01*
X014164Y010526D02*
X015874Y010526D01*
X015874Y010644D02*
X014164Y010644D01*
X014164Y010763D02*
X015874Y010763D01*
X015874Y010881D02*
X014164Y010881D01*
X014164Y011000D02*
X015874Y011000D01*
X015874Y011118D02*
X014164Y011118D01*
X014164Y011237D02*
X015874Y011237D01*
X015874Y011355D02*
X014164Y011355D01*
X014164Y011474D02*
X015874Y011474D01*
X015874Y011592D02*
X014164Y011592D01*
X014164Y011711D02*
X015874Y011711D01*
X015874Y011829D02*
X014164Y011829D01*
X014164Y011948D02*
X015883Y011948D01*
X015949Y012066D02*
X014164Y012066D01*
X014164Y012185D02*
X016068Y012185D01*
X016186Y012303D02*
X014247Y012303D01*
X014296Y012422D02*
X016305Y012422D01*
X016344Y012540D02*
X014304Y012540D01*
X014277Y012659D02*
X016388Y012659D01*
X016476Y012777D02*
X014202Y012777D01*
X006314Y012422D02*
X006069Y012422D01*
X006069Y012540D02*
X006159Y012540D01*
X006105Y012659D02*
X006069Y012659D01*
X006069Y012777D02*
X006096Y012777D01*
X006069Y012896D02*
X006127Y012896D01*
X006069Y013014D02*
X006212Y013014D01*
X006334Y011355D02*
X006069Y011355D01*
X006069Y011237D02*
X006167Y011237D01*
X006108Y011118D02*
X006069Y011118D01*
X006069Y011000D02*
X006096Y011000D01*
X006069Y010881D02*
X006124Y010881D01*
X006069Y010763D02*
X006204Y010763D01*
X007323Y005193D02*
X025073Y005193D01*
X025073Y005075D02*
X007323Y005075D01*
X007323Y004956D02*
X025073Y004956D01*
X025073Y004838D02*
X007323Y004838D01*
D16*
X015474Y009217D02*
X016174Y009917D01*
X016174Y011867D01*
X016774Y012467D01*
D17*
X013699Y015601D02*
X021887Y015601D01*
X022387Y015601D01*
X023099Y014888D01*
X023099Y013941D01*
X024162Y012884D01*
X015198Y006371D02*
X014401Y007167D01*
X007924Y007167D01*
X005729Y009363D01*
X005729Y014447D01*
X006724Y015442D01*
X015198Y006371D02*
X015198Y005979D01*
D18*
X015474Y009217D03*
X016774Y012467D03*
X013699Y015601D03*
X006724Y015442D03*
D19*
X010229Y015563D02*
X010229Y014073D01*
X010739Y013563D01*
X010739Y011693D01*
X010474Y011429D01*
X010474Y011167D01*
X010324Y008367D02*
X010974Y007717D01*
X021724Y007717D01*
X021924Y007517D01*
X010229Y015563D02*
X010224Y016192D01*
M02*
