G75*
%MOIN*%
%OFA0B0*%
%FSLAX24Y24*%
%IPPOS*%
%LPD*%
%AMOC8*
5,1,8,0,0,1.08239X$1,22.5*
%
%ADD10R,0.0394X0.0433*%
%ADD11R,0.0472X0.0472*%
%ADD12R,0.0433X0.0394*%
%ADD13R,0.0630X0.0551*%
%ADD14R,0.0701X0.0402*%
%ADD15R,0.0551X0.0630*%
%ADD16R,0.0354X0.0138*%
%ADD17R,0.0984X0.0787*%
%ADD18R,0.1299X0.0197*%
%ADD19R,0.0453X0.0173*%
%ADD20R,0.0453X0.0248*%
%ADD21R,0.0550X0.0137*%
%ADD22R,0.0472X0.0217*%
%ADD23R,0.0640X0.0640*%
%ADD24OC8,0.0640*%
%ADD25C,0.0120*%
%ADD26C,0.0100*%
%ADD27C,0.0400*%
%ADD28C,0.0450*%
%ADD29C,0.0160*%
%ADD30C,0.0320*%
%ADD31C,0.0200*%
%ADD32C,0.0240*%
%ADD33C,0.0500*%
D10*
X012640Y007617D03*
X013309Y007617D03*
X009074Y010783D03*
X009074Y011452D03*
X005887Y014891D03*
X005887Y015561D03*
X007989Y018184D03*
X008658Y018184D03*
X011926Y018184D03*
X012595Y018184D03*
X015863Y018184D03*
X016532Y018184D03*
X019800Y018184D03*
X020469Y018184D03*
X018774Y015561D03*
X018774Y014891D03*
X017574Y014891D03*
X017574Y015561D03*
X014387Y015561D03*
X014387Y014891D03*
X020240Y010367D03*
X020909Y010367D03*
D11*
X021690Y018184D03*
X022517Y018184D03*
X018580Y018184D03*
X017753Y018184D03*
X014643Y018184D03*
X013816Y018184D03*
X010706Y018184D03*
X009879Y018184D03*
D12*
X014140Y008326D03*
X014809Y008326D03*
X011759Y007617D03*
X011090Y007617D03*
X010309Y007617D03*
X009640Y007617D03*
X024015Y007242D03*
X024684Y007242D03*
D13*
X021165Y011267D03*
X019984Y011267D03*
D14*
X009387Y014875D03*
X009387Y015576D03*
D15*
X010887Y015816D03*
X010887Y014635D03*
D16*
X020423Y007585D03*
X020423Y007329D03*
X020423Y007073D03*
X020423Y006817D03*
X020423Y006561D03*
X020423Y006306D03*
X020423Y006050D03*
X022726Y006050D03*
X022726Y006306D03*
X022726Y006561D03*
X022726Y006817D03*
X022726Y007073D03*
X022726Y007329D03*
X022726Y007585D03*
D17*
X007438Y010132D03*
X005272Y010132D03*
X005272Y013636D03*
X007438Y013636D03*
D18*
X007674Y012514D03*
X007674Y012199D03*
X007674Y011884D03*
X007674Y011569D03*
X007674Y011254D03*
D19*
X020191Y012710D03*
X020191Y013025D03*
X020958Y013025D03*
X020958Y012710D03*
X020958Y014710D03*
X020958Y015025D03*
X020191Y015025D03*
X020191Y014710D03*
X020191Y009025D03*
X020191Y008710D03*
X020958Y008710D03*
X020958Y009025D03*
D20*
X020958Y009377D03*
X020191Y009377D03*
X020191Y008358D03*
X020958Y008358D03*
X020958Y012358D03*
X020191Y012358D03*
X020191Y013377D03*
X020958Y013377D03*
X020958Y014358D03*
X020191Y014358D03*
X020191Y015377D03*
X020958Y015377D03*
D21*
X017664Y012431D03*
X017664Y012175D03*
X017664Y011919D03*
X017664Y011663D03*
X017664Y011407D03*
X017664Y011151D03*
X017664Y010895D03*
X017664Y010639D03*
X017664Y010384D03*
X017664Y010128D03*
X017664Y009872D03*
X017664Y009616D03*
X017664Y009360D03*
X017664Y009104D03*
X014785Y009104D03*
X014785Y009360D03*
X014785Y009616D03*
X014785Y009872D03*
X014785Y010128D03*
X014785Y010384D03*
X014785Y010639D03*
X014785Y010895D03*
X014785Y011151D03*
X014785Y011407D03*
X014785Y011663D03*
X014785Y011919D03*
X014785Y012175D03*
X014785Y012431D03*
X012714Y012431D03*
X012714Y012175D03*
X012714Y011919D03*
X012714Y011663D03*
X012714Y011407D03*
X012714Y011151D03*
X012714Y010895D03*
X012714Y010639D03*
X012714Y010384D03*
X012714Y010128D03*
X012714Y009872D03*
X012714Y009616D03*
X012714Y009360D03*
X012714Y009104D03*
X009835Y009104D03*
X009835Y009360D03*
X009835Y009616D03*
X009835Y009872D03*
X009835Y010128D03*
X009835Y010384D03*
X009835Y010639D03*
X009835Y010895D03*
X009835Y011151D03*
X009835Y011407D03*
X009835Y011663D03*
X009835Y011919D03*
X009835Y012175D03*
X009835Y012431D03*
D22*
X008398Y014852D03*
X008398Y015226D03*
X008398Y015600D03*
X007375Y015600D03*
X007375Y014852D03*
X011963Y014852D03*
X011963Y015226D03*
X011963Y015600D03*
X012986Y015600D03*
X012986Y014852D03*
X015686Y014852D03*
X015686Y015226D03*
X015686Y015600D03*
X016709Y015600D03*
X016709Y014852D03*
D23*
X025162Y009884D03*
X014198Y005979D03*
D24*
X015198Y005979D03*
X016198Y005979D03*
X017198Y005979D03*
X018198Y005979D03*
X024162Y009884D03*
X024162Y010884D03*
X025162Y010884D03*
X025162Y011884D03*
X024162Y011884D03*
X024162Y012884D03*
X025162Y012884D03*
X025162Y013884D03*
X024162Y013884D03*
D25*
X022365Y012396D02*
X022051Y012710D01*
X020958Y012710D01*
X020191Y012710D02*
X020191Y012358D01*
X019523Y012358D01*
X018317Y011151D01*
X017664Y011151D01*
X017664Y010895D02*
X016852Y010895D01*
X016524Y010567D01*
X016524Y007700D01*
X016947Y007278D01*
X017930Y007278D01*
X018902Y006306D01*
X020423Y006306D01*
X020423Y006561D01*
X020429Y006567D01*
X020924Y006567D01*
X021141Y006784D01*
X021141Y007067D01*
X021141Y007632D01*
X020869Y007903D01*
X020409Y007903D01*
X020201Y008112D01*
X020191Y008358D01*
X020191Y008710D02*
X018424Y008710D01*
X018030Y009104D01*
X017664Y009104D01*
X017664Y009360D02*
X018732Y009360D01*
X018967Y009125D01*
X019067Y009025D01*
X020191Y009025D01*
X020191Y009377D02*
X019624Y009377D01*
X019524Y009477D01*
X019386Y009616D01*
X017664Y009616D01*
X017664Y009872D02*
X020413Y009872D01*
X020909Y010367D01*
X020915Y010367D01*
X020961Y010401D01*
X024672Y010401D01*
X025162Y010884D01*
X024672Y011401D02*
X025162Y011884D01*
X024672Y011401D02*
X023260Y011401D01*
X022893Y011767D01*
X019293Y011767D01*
X018165Y010639D01*
X017664Y010639D01*
X017664Y010384D02*
X018269Y010384D01*
X019149Y011263D01*
X019980Y011263D01*
X019984Y011267D01*
X020240Y010367D02*
X019714Y010367D01*
X018223Y011407D02*
X019559Y012743D01*
X019559Y012893D01*
X019691Y013025D01*
X020191Y013025D01*
X020191Y013377D01*
X019289Y012823D02*
X019289Y013983D01*
X019663Y014358D01*
X020191Y014358D01*
X020191Y014710D01*
X020191Y015025D02*
X019829Y015013D01*
X019539Y015013D01*
X019039Y014513D01*
X019039Y012933D01*
X018025Y011919D01*
X017664Y011919D01*
X017664Y012175D02*
X017132Y012175D01*
X016924Y011967D01*
X016924Y011567D01*
X017664Y011663D02*
X018129Y011663D01*
X019289Y012823D01*
X018774Y013017D02*
X018188Y012431D01*
X017664Y012431D01*
X016811Y012431D01*
X016774Y012467D01*
X016198Y012891D02*
X015226Y011919D01*
X014785Y011919D01*
X014785Y012175D02*
X015107Y012175D01*
X015686Y012754D01*
X015686Y014101D01*
X015686Y014267D01*
X012224Y014267D01*
X011963Y014529D01*
X011963Y014529D01*
X011963Y014852D01*
X012074Y015601D02*
X008387Y015601D01*
X008387Y016601D01*
X008887Y017101D01*
X015512Y017101D01*
X015762Y016851D01*
X015762Y015601D01*
X015449Y015601D01*
X015449Y016163D01*
X015012Y016601D01*
X012387Y016601D01*
X012074Y016288D01*
X012074Y015601D01*
X012074Y015621D02*
X008387Y015621D01*
X008387Y015740D02*
X012074Y015740D01*
X012074Y015858D02*
X008387Y015858D01*
X008387Y015977D02*
X012074Y015977D01*
X012074Y016095D02*
X008387Y016095D01*
X008387Y016214D02*
X012074Y016214D01*
X012118Y016332D02*
X008387Y016332D01*
X008387Y016451D02*
X012237Y016451D01*
X012355Y016569D02*
X008387Y016569D01*
X008474Y016688D02*
X015762Y016688D01*
X015762Y016806D02*
X008592Y016806D01*
X008711Y016925D02*
X015688Y016925D01*
X015569Y017043D02*
X008829Y017043D01*
X007989Y017203D02*
X006724Y015939D01*
X006724Y015442D01*
X006729Y015447D01*
X009074Y014785D02*
X009076Y014791D01*
X009137Y014851D01*
X009637Y014851D01*
X009699Y014788D01*
X009699Y013601D01*
X008574Y012476D01*
X008400Y012476D01*
X008398Y012478D01*
X007074Y012478D01*
X007074Y012788D01*
X007137Y012851D01*
X008324Y012851D01*
X009074Y013601D01*
X009074Y014785D01*
X009078Y014792D02*
X009696Y014792D01*
X009699Y014673D02*
X009074Y014673D01*
X009074Y014555D02*
X009699Y014555D01*
X009699Y014436D02*
X009074Y014436D01*
X009074Y014318D02*
X009699Y014318D01*
X009699Y014199D02*
X009074Y014199D01*
X009074Y014081D02*
X009699Y014081D01*
X009699Y013962D02*
X009074Y013962D01*
X009074Y013844D02*
X009699Y013844D01*
X009699Y013725D02*
X009074Y013725D01*
X009074Y013607D02*
X009699Y013607D01*
X009587Y013488D02*
X008962Y013488D01*
X008843Y013370D02*
X009468Y013370D01*
X009350Y013251D02*
X008725Y013251D01*
X008606Y013133D02*
X009231Y013133D01*
X009113Y013014D02*
X008488Y013014D01*
X008369Y012896D02*
X008994Y012896D01*
X008876Y012777D02*
X007074Y012777D01*
X007074Y012659D02*
X008757Y012659D01*
X008639Y012540D02*
X007074Y012540D01*
X007297Y012513D02*
X007674Y012514D01*
X007674Y012199D02*
X008755Y012199D01*
X009279Y012723D01*
X010309Y012723D01*
X010469Y012563D01*
X010469Y012353D01*
X010291Y012175D01*
X009835Y012175D01*
X009835Y012431D02*
X009329Y012431D01*
X009082Y012183D01*
X009079Y012183D01*
X008780Y011884D01*
X007674Y011884D01*
X009074Y011817D02*
X009074Y011452D01*
X009074Y011817D02*
X009176Y011919D01*
X009835Y011919D01*
X010279Y011663D02*
X010374Y011567D01*
X010474Y011167D02*
X010458Y011151D01*
X009835Y011151D01*
X009835Y010895D02*
X009122Y010895D01*
X009074Y010783D01*
X009835Y010639D02*
X010446Y010639D01*
X010574Y010517D01*
X009835Y009872D02*
X009229Y009872D01*
X009174Y009817D01*
X009324Y009616D02*
X009324Y009567D01*
X009324Y009616D02*
X009835Y009616D01*
X011824Y009567D02*
X011824Y008764D01*
X011824Y007683D01*
X011759Y007617D01*
X012887Y008288D02*
X013309Y007866D01*
X013309Y007617D01*
X013309Y006376D01*
X013707Y005979D01*
X014198Y005979D01*
X015974Y007311D02*
X016686Y006600D01*
X016686Y005526D01*
X016863Y005349D01*
X017568Y005349D01*
X018198Y005979D01*
X017198Y005979D02*
X017198Y006632D01*
X016224Y007606D01*
X016224Y011267D01*
X015829Y011663D01*
X014785Y011663D01*
X014785Y011407D02*
X015635Y011407D01*
X015974Y011067D01*
X015974Y007311D01*
X016824Y007867D02*
X016824Y008567D01*
X017124Y008867D01*
X018424Y008710D02*
X018482Y008710D01*
X018924Y009167D02*
X018967Y009125D01*
X017664Y010128D02*
X017214Y010128D01*
X016974Y010367D01*
X017664Y011407D02*
X018223Y011407D01*
X017664Y012175D02*
X017661Y012177D01*
X017614Y012177D01*
X018774Y013017D02*
X018774Y014891D01*
X020191Y015025D02*
X020191Y015377D01*
X019702Y016867D02*
X019800Y016966D01*
X019800Y018184D01*
X020469Y018184D02*
X021119Y018184D01*
X021690Y018184D01*
X021900Y016891D02*
X021924Y016867D01*
X021924Y016891D02*
X021900Y016891D01*
X017753Y018184D02*
X017182Y018184D01*
X016532Y018184D01*
X015863Y018184D02*
X015863Y017928D01*
X016198Y017593D01*
X016198Y012891D01*
X014785Y012431D02*
X014011Y012431D01*
X013924Y012517D01*
X014348Y011151D02*
X014344Y011147D01*
X015344Y011147D01*
X014785Y011151D02*
X014348Y011151D01*
X014334Y010627D02*
X015434Y010627D01*
X013234Y010627D02*
X013224Y010637D01*
X012624Y010637D01*
X012714Y010639D02*
X012152Y010639D01*
X012124Y010667D01*
X012024Y010767D01*
X012024Y010667D02*
X012124Y010667D01*
X012180Y010667D01*
X012152Y010639D01*
X012129Y009872D02*
X011824Y009567D01*
X012129Y009872D02*
X012714Y009872D01*
X011824Y008764D02*
X015500Y008764D01*
X015474Y009217D02*
X015332Y009360D01*
X014785Y009360D01*
X015474Y009217D02*
X015532Y009360D01*
X016824Y007867D02*
X017124Y007567D01*
X019924Y007567D01*
X020163Y007329D01*
X020423Y007329D01*
X020423Y007073D02*
X019819Y007073D01*
X019724Y007167D01*
X019974Y006817D02*
X020423Y006817D01*
X020774Y006817D01*
X020924Y006967D01*
X020924Y007467D01*
X020807Y007585D01*
X020423Y007585D01*
X021141Y007067D02*
X021146Y007073D01*
X022726Y007073D01*
X022726Y007329D01*
X022726Y007585D02*
X023672Y007585D01*
X024015Y007242D01*
X023424Y006767D02*
X023219Y006561D01*
X022726Y006561D01*
X022726Y006306D02*
X023786Y006306D01*
X023824Y006267D01*
X022726Y006050D02*
X022342Y006050D01*
X022124Y006267D01*
X022124Y006667D01*
X021624Y006667D01*
X022124Y006667D02*
X022274Y006817D01*
X022726Y006817D01*
X022726Y007585D02*
X021957Y007585D01*
X021924Y007517D01*
X021919Y007523D02*
X021919Y007823D01*
X021389Y008353D01*
X020972Y008353D01*
X020958Y008710D02*
X021553Y008710D01*
X022095Y008167D01*
X023037Y008167D01*
X022637Y008667D02*
X022055Y008667D01*
X021698Y009025D01*
X020958Y009025D01*
X020958Y009377D02*
X021927Y009377D01*
X022137Y009167D01*
X022906Y009817D02*
X023606Y009117D01*
X024389Y009117D01*
X025162Y009884D01*
X019974Y006817D02*
X019824Y006667D01*
X015686Y014267D02*
X015686Y014852D01*
X015762Y015621D02*
X015449Y015621D01*
X015449Y015740D02*
X015762Y015740D01*
X015762Y015858D02*
X015449Y015858D01*
X015449Y015977D02*
X015762Y015977D01*
X015762Y016095D02*
X015449Y016095D01*
X015399Y016214D02*
X015762Y016214D01*
X015762Y016332D02*
X015280Y016332D01*
X015162Y016451D02*
X015762Y016451D01*
X015762Y016569D02*
X015043Y016569D01*
X014150Y017514D02*
X013245Y017514D01*
X014150Y017514D02*
X014643Y018006D01*
X014643Y018184D01*
X013816Y018184D02*
X013245Y018184D01*
X012595Y018184D01*
X011926Y018184D02*
X011926Y018436D01*
X011762Y018601D01*
X008137Y018601D01*
X007989Y018453D01*
X007989Y018184D01*
X007989Y017203D01*
X008658Y018184D02*
X009308Y018184D01*
X009879Y018184D01*
D26*
X009835Y012175D02*
X009843Y012167D01*
X009835Y011663D02*
X010279Y011663D01*
X012714Y011663D02*
X013629Y011663D01*
X013924Y011367D01*
X013924Y010367D01*
X014164Y010128D01*
X014785Y010128D01*
X014785Y009872D02*
X013520Y009872D01*
X013264Y010128D01*
X012714Y010128D01*
X012714Y009616D02*
X014785Y009616D01*
X014785Y009104D02*
X012714Y009104D01*
X010374Y009867D02*
X009774Y009867D01*
X009824Y009667D02*
X009824Y009617D01*
X009826Y009616D01*
X009835Y009616D01*
X009824Y009617D02*
X010274Y009617D01*
X009174Y009567D02*
X009174Y009817D01*
X011759Y007617D02*
X012640Y007617D01*
D27*
X012887Y008288D03*
X013512Y008351D03*
X011374Y008617D03*
X010324Y008367D03*
X009724Y008567D03*
X010574Y009667D03*
X010574Y010517D03*
X010474Y011167D03*
X011774Y010567D03*
X013474Y011067D03*
X011674Y012067D03*
X010004Y013267D03*
X008637Y013851D03*
X007824Y015226D03*
X010224Y016192D03*
X011387Y017601D03*
X013245Y017514D03*
X013245Y018184D03*
X013712Y016205D03*
X012524Y015267D03*
X013712Y014892D03*
X015024Y014892D03*
X014724Y013767D03*
X013924Y012517D03*
X016924Y011567D03*
X015474Y010667D03*
X016974Y010367D03*
X018967Y009125D03*
X019524Y009477D03*
X019714Y010367D03*
X022137Y009167D03*
X022637Y008667D03*
X023037Y008167D03*
X021924Y007517D03*
X021624Y006667D03*
X019824Y006667D03*
X019724Y007167D03*
X018979Y007107D03*
X017274Y008317D03*
X017124Y008867D03*
X018424Y008710D03*
X022906Y009817D03*
X022712Y011267D03*
X023416Y011884D03*
X022365Y012396D03*
X021593Y012267D03*
X019735Y013832D03*
X017574Y014226D03*
X018762Y016288D03*
X016637Y017351D03*
X017182Y018184D03*
X021119Y018184D03*
X021119Y017378D03*
X023487Y018184D03*
X024859Y018774D03*
X027615Y016018D03*
X026684Y014757D03*
X026664Y013405D03*
X026644Y011415D03*
X026044Y009147D03*
X025254Y008157D03*
X023424Y006767D03*
X023824Y006267D03*
X024859Y004995D03*
X027615Y007750D03*
X020387Y005601D03*
X011080Y006569D03*
X009702Y006569D03*
X007536Y004995D03*
X004780Y007750D03*
X007714Y009137D03*
X006355Y010310D03*
X008514Y010777D03*
X006355Y011687D03*
X011537Y014267D03*
X004780Y016018D03*
X007536Y018774D03*
X009308Y018184D03*
X021887Y015601D03*
X023876Y015677D03*
D28*
X022406Y014267D03*
X015012Y007288D03*
D29*
X007343Y006101D02*
X007343Y004801D01*
X025053Y004801D01*
X025053Y006101D01*
X025047Y006107D01*
X025053Y006183D01*
X025053Y006259D01*
X025059Y006264D01*
X025061Y006292D01*
X025052Y006305D01*
X025066Y006372D01*
X025071Y006441D01*
X025083Y006451D01*
X025091Y006486D01*
X025084Y006501D01*
X025108Y006565D01*
X025123Y006632D01*
X025136Y006641D01*
X025149Y006674D01*
X025144Y006689D01*
X025177Y006750D01*
X025201Y006814D01*
X025216Y006821D01*
X025233Y006852D01*
X025230Y006868D01*
X025272Y006923D01*
X025304Y006983D01*
X025320Y006987D01*
X025341Y007016D01*
X025341Y007032D01*
X025390Y007080D01*
X025431Y007135D01*
X025447Y007138D01*
X025472Y007163D01*
X025474Y007179D01*
X025529Y007220D01*
X025578Y007268D01*
X025594Y007268D01*
X025622Y007289D01*
X025627Y007305D01*
X025687Y007338D01*
X025742Y007379D01*
X025758Y007377D01*
X025789Y007394D01*
X025796Y007408D01*
X025860Y007432D01*
X025920Y007465D01*
X025936Y007461D01*
X025969Y007473D01*
X025978Y007487D01*
X026045Y007501D01*
X026109Y007525D01*
X026124Y007519D01*
X026158Y007526D01*
X026169Y007538D01*
X026237Y007543D01*
X026304Y007558D01*
X026318Y007549D01*
X026345Y007551D01*
X026351Y007557D01*
X026427Y007557D01*
X026502Y007562D01*
X026508Y007557D01*
X027809Y007557D01*
X027809Y016212D01*
X026508Y016212D01*
X026502Y016206D01*
X026427Y016212D01*
X026351Y016212D01*
X026345Y016218D01*
X026318Y016220D01*
X026304Y016211D01*
X026237Y016225D01*
X026169Y016230D01*
X026158Y016243D01*
X026124Y016250D01*
X026109Y016243D01*
X026045Y016267D01*
X025978Y016282D01*
X025969Y016296D01*
X025936Y016308D01*
X025920Y016303D01*
X025860Y016336D01*
X025796Y016360D01*
X025789Y016375D01*
X025758Y016392D01*
X025742Y016390D01*
X025687Y016431D01*
X025627Y016464D01*
X025622Y016479D01*
X025594Y016500D01*
X025578Y016500D01*
X025529Y016549D01*
X025474Y016590D01*
X025472Y016606D01*
X025447Y016631D01*
X025431Y016633D01*
X025390Y016688D01*
X025341Y016737D01*
X025341Y016753D01*
X025320Y016781D01*
X025304Y016786D01*
X025272Y016846D01*
X025230Y016901D01*
X025233Y016917D01*
X025216Y016948D01*
X025201Y016955D01*
X025177Y017019D01*
X025144Y017079D01*
X025149Y017095D01*
X025136Y017128D01*
X025123Y017137D01*
X025108Y017204D01*
X025084Y017268D01*
X025091Y017283D01*
X025083Y017317D01*
X025071Y017328D01*
X025066Y017396D01*
X025052Y017463D01*
X025061Y017477D01*
X025059Y017504D01*
X025053Y017510D01*
X025053Y017586D01*
X025047Y017661D01*
X025053Y017668D01*
X025053Y018968D01*
X007343Y018968D01*
X007343Y017668D01*
X007348Y017661D01*
X007343Y017586D01*
X007343Y017510D01*
X007337Y017504D01*
X007335Y017477D01*
X007344Y017463D01*
X007329Y017396D01*
X007324Y017328D01*
X007312Y017317D01*
X007304Y017283D01*
X007311Y017268D01*
X007287Y017204D01*
X007272Y017137D01*
X007259Y017128D01*
X007246Y017095D01*
X007251Y017079D01*
X007218Y017019D01*
X007194Y016955D01*
X007179Y016948D01*
X007162Y016917D01*
X007165Y016901D01*
X007124Y016846D01*
X007091Y016786D01*
X007075Y016781D01*
X007054Y016753D01*
X007054Y016737D01*
X007006Y016688D01*
X006964Y016633D01*
X006948Y016631D01*
X006923Y016606D01*
X006921Y016590D01*
X006866Y016549D01*
X006818Y016500D01*
X006801Y016500D01*
X006773Y016479D01*
X006769Y016464D01*
X006708Y016431D01*
X006654Y016390D01*
X006637Y016392D01*
X006606Y016375D01*
X006600Y016360D01*
X006535Y016336D01*
X006475Y016303D01*
X006460Y016308D01*
X006426Y016296D01*
X006418Y016282D01*
X006351Y016267D01*
X006286Y016243D01*
X006272Y016250D01*
X006237Y016243D01*
X006226Y016230D01*
X006158Y016225D01*
X006091Y016211D01*
X006077Y016220D01*
X006050Y016218D01*
X006044Y016212D01*
X005969Y016212D01*
X005893Y016206D01*
X005887Y016212D01*
X004587Y016212D01*
X004587Y014119D01*
X004697Y014230D01*
X005847Y014230D01*
X005965Y014113D01*
X005965Y013160D01*
X006746Y013160D01*
X006863Y013043D01*
X006961Y013043D01*
X006916Y012998D01*
X006854Y012936D01*
X006819Y012853D01*
X006773Y012964D01*
X006667Y013070D01*
X006529Y013128D01*
X006379Y013128D01*
X006240Y013070D01*
X006134Y012964D01*
X006076Y012825D01*
X006076Y012675D01*
X006134Y012537D01*
X006240Y012431D01*
X006379Y012373D01*
X006529Y012373D01*
X006667Y012431D01*
X006773Y012537D01*
X006814Y012635D01*
X006814Y012424D01*
X006824Y012399D01*
X006824Y011388D01*
X006844Y011368D01*
X006844Y011254D01*
X006844Y011132D01*
X006857Y011087D01*
X006880Y011045D01*
X006914Y011012D01*
X006955Y010988D01*
X007001Y010976D01*
X007674Y010976D01*
X007674Y011254D01*
X007674Y010976D01*
X008347Y010976D01*
X008393Y010988D01*
X008434Y011012D01*
X008468Y011045D01*
X008491Y011087D01*
X008504Y011132D01*
X008504Y011254D01*
X007674Y011254D01*
X007674Y011254D01*
X007674Y011254D01*
X006844Y011254D01*
X007674Y011254D01*
X007674Y011254D01*
X008504Y011254D01*
X008504Y011368D01*
X008524Y011388D01*
X008524Y011624D01*
X008678Y011624D01*
X008678Y011153D01*
X008729Y011102D01*
X008710Y011069D01*
X008698Y011023D01*
X008698Y010801D01*
X009056Y010801D01*
X009056Y010764D01*
X009093Y010764D01*
X009093Y010386D01*
X009295Y010386D01*
X009341Y010398D01*
X009360Y010410D01*
X009360Y009976D01*
X009380Y009956D01*
X009380Y009872D01*
X009465Y009872D01*
X009380Y009872D01*
X009380Y009780D01*
X009390Y009744D01*
X009380Y009708D01*
X009380Y009616D01*
X009465Y009616D01*
X009465Y009616D01*
X009380Y009616D01*
X009380Y009531D01*
X009360Y009511D01*
X009360Y008953D01*
X009477Y008836D01*
X010147Y008836D01*
X010087Y008776D01*
X010044Y008673D01*
X010044Y008653D01*
X009985Y008594D01*
X009924Y008447D01*
X009924Y008288D01*
X009985Y008141D01*
X010044Y008082D01*
X010044Y008014D01*
X010010Y008014D01*
X009959Y007963D01*
X009926Y007982D01*
X009880Y007994D01*
X009658Y007994D01*
X009658Y007636D01*
X009621Y007636D01*
X009621Y007599D01*
X009243Y007599D01*
X009243Y007397D01*
X009255Y007351D01*
X009279Y007310D01*
X009313Y007277D01*
X009354Y007253D01*
X009400Y007241D01*
X009621Y007241D01*
X009621Y007599D01*
X009658Y007599D01*
X009658Y007241D01*
X009880Y007241D01*
X009926Y007253D01*
X009959Y007272D01*
X010010Y007221D01*
X010608Y007221D01*
X010718Y007330D01*
X010729Y007310D01*
X010763Y007277D01*
X010804Y007253D01*
X010850Y007241D01*
X011071Y007241D01*
X011071Y007599D01*
X011108Y007599D01*
X011108Y007241D01*
X011330Y007241D01*
X011376Y007253D01*
X011409Y007272D01*
X011460Y007221D01*
X012058Y007221D01*
X012176Y007338D01*
X012176Y007367D01*
X012243Y007367D01*
X012243Y007318D01*
X012360Y007201D01*
X012919Y007201D01*
X012974Y007256D01*
X013029Y007201D01*
X013049Y007201D01*
X013049Y006325D01*
X013089Y006229D01*
X013486Y005832D01*
X013559Y005758D01*
X013655Y005719D01*
X013678Y005719D01*
X013678Y005576D01*
X013795Y005459D01*
X014600Y005459D01*
X014718Y005576D01*
X014718Y005723D01*
X014982Y005459D01*
X015413Y005459D01*
X015712Y005758D01*
X015991Y005479D01*
X016178Y005479D01*
X016178Y005959D01*
X016218Y005959D01*
X016218Y005479D01*
X016405Y005479D01*
X016426Y005500D01*
X016426Y005474D01*
X016465Y005379D01*
X016643Y005202D01*
X016716Y005128D01*
X016811Y005089D01*
X017619Y005089D01*
X017715Y005128D01*
X018045Y005459D01*
X018413Y005459D01*
X018718Y005763D01*
X018718Y006123D01*
X018755Y006085D01*
X018851Y006046D01*
X020066Y006046D01*
X020066Y005957D01*
X020078Y005911D01*
X020102Y005870D01*
X020135Y005837D01*
X020176Y005813D01*
X020222Y005801D01*
X020423Y005801D01*
X020624Y005801D01*
X020669Y005813D01*
X020711Y005837D01*
X020744Y005870D01*
X020768Y005911D01*
X020780Y005957D01*
X020780Y006050D01*
X020780Y006134D01*
X020800Y006154D01*
X020800Y006307D01*
X020976Y006307D01*
X021072Y006347D01*
X021145Y006420D01*
X021250Y006526D01*
X021285Y006441D01*
X021398Y006328D01*
X021545Y006267D01*
X021704Y006267D01*
X021851Y006328D01*
X021864Y006342D01*
X021864Y006216D01*
X021904Y006120D01*
X021977Y006047D01*
X022195Y005829D01*
X022290Y005790D01*
X022457Y005790D01*
X022466Y005781D01*
X022986Y005781D01*
X023103Y005898D01*
X023103Y006046D01*
X023483Y006046D01*
X023485Y006041D01*
X023598Y005928D01*
X023745Y005867D01*
X023904Y005867D01*
X024051Y005928D01*
X024164Y006041D01*
X024224Y006188D01*
X024224Y006347D01*
X024164Y006494D01*
X024051Y006607D01*
X023904Y006667D01*
X023816Y006667D01*
X023824Y006688D01*
X023824Y006846D01*
X024314Y006846D01*
X024365Y006897D01*
X024398Y006878D01*
X024444Y006866D01*
X024666Y006866D01*
X024666Y007224D01*
X024702Y007224D01*
X024702Y006866D01*
X024924Y006866D01*
X024970Y006878D01*
X025011Y006902D01*
X025045Y006935D01*
X025068Y006976D01*
X025081Y007022D01*
X025081Y007224D01*
X024702Y007224D01*
X024702Y007261D01*
X024666Y007261D01*
X024666Y007619D01*
X024444Y007619D01*
X024398Y007607D01*
X024365Y007588D01*
X024314Y007639D01*
X023986Y007639D01*
X023819Y007806D01*
X023724Y007845D01*
X023280Y007845D01*
X023376Y007941D01*
X023437Y008088D01*
X027809Y008088D01*
X027809Y008246D02*
X023437Y008246D01*
X023437Y008247D02*
X023376Y008394D01*
X023264Y008507D01*
X023117Y008567D01*
X023029Y008567D01*
X023037Y008588D01*
X023037Y008747D01*
X022976Y008894D01*
X022864Y009007D01*
X022717Y009067D01*
X022557Y009067D01*
X022523Y009053D01*
X022537Y009088D01*
X022537Y009247D01*
X022476Y009394D01*
X022364Y009507D01*
X022217Y009567D01*
X022105Y009567D01*
X022074Y009598D01*
X021979Y009637D01*
X021332Y009637D01*
X021267Y009701D01*
X020649Y009701D01*
X020574Y009627D01*
X020553Y009648D01*
X020561Y009651D01*
X020860Y009951D01*
X021189Y009951D01*
X021306Y010068D01*
X021306Y010141D01*
X022664Y010141D01*
X022567Y010044D01*
X022506Y009897D01*
X022506Y009738D01*
X022567Y009591D01*
X022679Y009478D01*
X022826Y009417D01*
X022938Y009417D01*
X023385Y008970D01*
X023459Y008897D01*
X023554Y008857D01*
X024389Y008857D01*
X024440Y008857D01*
X024440Y008857D01*
X024441Y008857D01*
X024488Y008877D01*
X024535Y008896D01*
X024536Y008897D01*
X024572Y008933D01*
X025007Y009364D01*
X025565Y009364D01*
X025682Y009481D01*
X025682Y010287D01*
X025565Y010404D01*
X025418Y010404D01*
X025682Y010669D01*
X025682Y011100D01*
X025398Y011384D01*
X025682Y011669D01*
X025682Y012100D01*
X025398Y012384D01*
X025682Y012669D01*
X025682Y013100D01*
X025398Y013384D01*
X025682Y013669D01*
X025682Y014100D01*
X025416Y014366D01*
X025416Y016402D01*
X025361Y016535D01*
X024723Y017173D01*
X024591Y017227D01*
X020060Y017227D01*
X020060Y017767D01*
X020080Y017767D01*
X020135Y017822D01*
X020190Y017767D01*
X020749Y017767D01*
X020859Y017877D01*
X020892Y017844D01*
X021039Y017784D01*
X021198Y017784D01*
X021295Y017823D01*
X021371Y017747D01*
X022009Y017747D01*
X022122Y017861D01*
X022136Y017837D01*
X022170Y017803D01*
X022211Y017780D01*
X022257Y017767D01*
X022478Y017767D01*
X022478Y018145D01*
X022555Y018145D01*
X022555Y018222D01*
X022478Y018222D01*
X022478Y018600D01*
X022257Y018600D01*
X022211Y018587D01*
X022170Y018564D01*
X022136Y018530D01*
X022122Y018506D01*
X022009Y018620D01*
X021371Y018620D01*
X021295Y018544D01*
X021198Y018584D01*
X021039Y018584D01*
X020892Y018523D01*
X020859Y018490D01*
X020749Y018600D01*
X020190Y018600D01*
X020135Y018545D01*
X020080Y018600D01*
X019520Y018600D01*
X019403Y018483D01*
X019403Y017884D01*
X019520Y017767D01*
X019540Y017767D01*
X019540Y017227D01*
X018053Y017227D01*
X017920Y017173D01*
X017269Y016521D01*
X017214Y016389D01*
X017214Y015960D01*
X016638Y015960D01*
X016513Y015908D01*
X016458Y015908D01*
X016458Y017645D01*
X016418Y017740D01*
X016391Y017767D01*
X016812Y017767D01*
X016922Y017877D01*
X016955Y017844D01*
X017102Y017784D01*
X017261Y017784D01*
X017358Y017823D01*
X017434Y017747D01*
X018072Y017747D01*
X018185Y017861D01*
X018199Y017837D01*
X018233Y017803D01*
X018274Y017780D01*
X018320Y017767D01*
X018541Y017767D01*
X018541Y018145D01*
X018618Y018145D01*
X018618Y018222D01*
X018541Y018222D01*
X018541Y018600D01*
X018320Y018600D01*
X018274Y018587D01*
X018233Y018564D01*
X018199Y018530D01*
X018185Y018506D01*
X018072Y018620D01*
X017434Y018620D01*
X017358Y018544D01*
X017261Y018584D01*
X017102Y018584D01*
X016955Y018523D01*
X016922Y018490D01*
X016812Y018600D01*
X016253Y018600D01*
X016198Y018545D01*
X016143Y018600D01*
X015583Y018600D01*
X015466Y018483D01*
X015466Y017884D01*
X015583Y017767D01*
X015656Y017767D01*
X015938Y017485D01*
X015938Y017043D01*
X015732Y017248D01*
X015659Y017321D01*
X015563Y017361D01*
X014365Y017361D01*
X014751Y017747D01*
X014962Y017747D01*
X015079Y017864D01*
X015079Y018503D01*
X014962Y018620D01*
X014323Y018620D01*
X014229Y018525D01*
X014135Y018620D01*
X013497Y018620D01*
X013421Y018544D01*
X013324Y018584D01*
X013165Y018584D01*
X013018Y018523D01*
X012985Y018490D01*
X012875Y018600D01*
X012316Y018600D01*
X012261Y018545D01*
X012206Y018600D01*
X012130Y018600D01*
X011982Y018748D01*
X011909Y018821D01*
X011813Y018861D01*
X008085Y018861D01*
X007989Y018821D01*
X007769Y018601D01*
X007768Y018600D01*
X007709Y018600D01*
X007592Y018483D01*
X007592Y017884D01*
X007709Y017767D01*
X007729Y017767D01*
X007729Y017311D01*
X006504Y016086D01*
X006464Y015990D01*
X006464Y015819D01*
X006434Y015788D01*
X006283Y015788D01*
X006283Y015860D01*
X006166Y015977D01*
X005607Y015977D01*
X005490Y015860D01*
X005490Y015261D01*
X005541Y015210D01*
X005522Y015177D01*
X005510Y015131D01*
X005510Y014910D01*
X005868Y014910D01*
X005868Y014873D01*
X005510Y014873D01*
X005510Y014651D01*
X005522Y014605D01*
X005546Y014564D01*
X005579Y014531D01*
X005620Y014507D01*
X005666Y014495D01*
X005868Y014495D01*
X005868Y014873D01*
X005905Y014873D01*
X005905Y014910D01*
X006263Y014910D01*
X006263Y015131D01*
X006259Y015148D01*
X006382Y015148D01*
X006399Y015131D01*
X006399Y014979D01*
X006445Y014868D01*
X006529Y014784D01*
X006529Y014784D01*
X006716Y014598D01*
X006826Y014552D01*
X007047Y014552D01*
X007056Y014544D01*
X007694Y014544D01*
X007811Y014661D01*
X007811Y015043D01*
X007694Y015160D01*
X007079Y015160D01*
X007106Y015187D01*
X007149Y015292D01*
X007694Y015292D01*
X007811Y015409D01*
X007811Y015791D01*
X007694Y015908D01*
X007062Y015908D01*
X008209Y017056D01*
X008249Y017152D01*
X008249Y017767D01*
X008269Y017767D01*
X008324Y017822D01*
X008379Y017767D01*
X008938Y017767D01*
X009048Y017877D01*
X009081Y017844D01*
X009228Y017784D01*
X009387Y017784D01*
X009484Y017823D01*
X009560Y017747D01*
X010198Y017747D01*
X010311Y017861D01*
X010325Y017837D01*
X010359Y017803D01*
X010400Y017780D01*
X010446Y017767D01*
X010667Y017767D01*
X010667Y018145D01*
X010744Y018145D01*
X010744Y018222D01*
X011122Y018222D01*
X011122Y018341D01*
X011529Y018341D01*
X011529Y017884D01*
X011646Y017767D01*
X012206Y017767D01*
X012261Y017822D01*
X012316Y017767D01*
X012875Y017767D01*
X012985Y017877D01*
X013014Y017849D01*
X012906Y017741D01*
X012845Y017594D01*
X012845Y017435D01*
X012875Y017361D01*
X008835Y017361D01*
X008739Y017321D01*
X008166Y016748D01*
X008127Y016653D01*
X008127Y015908D01*
X008079Y015908D01*
X007962Y015791D01*
X007962Y015409D01*
X007989Y015382D01*
X007982Y015358D01*
X007982Y015226D01*
X008398Y015226D01*
X008398Y015226D01*
X007982Y015226D01*
X007982Y015094D01*
X007989Y015069D01*
X007962Y015043D01*
X007962Y014661D01*
X008079Y014544D01*
X008717Y014544D01*
X008726Y014552D01*
X008814Y014552D01*
X008814Y013709D01*
X008216Y013111D01*
X008081Y013111D01*
X008130Y013160D01*
X008265Y013160D01*
X008130Y013160D02*
X008130Y014113D01*
X008013Y014230D01*
X006863Y014230D01*
X006746Y014113D01*
X006746Y013160D01*
X006746Y013318D02*
X005965Y013318D01*
X005965Y013160D02*
X005847Y013043D01*
X004697Y013043D01*
X004587Y013153D01*
X004587Y010615D01*
X004697Y010726D01*
X005847Y010726D01*
X005965Y010609D01*
X005965Y009656D01*
X005847Y009539D01*
X004697Y009539D01*
X004587Y009650D01*
X004587Y007557D01*
X005887Y007557D01*
X005893Y007562D01*
X005969Y007557D01*
X006044Y007557D01*
X006050Y007551D01*
X006077Y007549D01*
X006091Y007558D01*
X006158Y007543D01*
X006226Y007538D01*
X006237Y007526D01*
X006272Y007519D01*
X006286Y007525D01*
X006351Y007501D01*
X006418Y007487D01*
X006426Y007473D01*
X006460Y007461D01*
X006475Y007465D01*
X006535Y007432D01*
X006600Y007408D01*
X006606Y007394D01*
X006637Y007377D01*
X006654Y007379D01*
X006708Y007338D01*
X006769Y007305D01*
X006773Y007289D01*
X006801Y007268D01*
X006818Y007268D01*
X006866Y007220D01*
X006921Y007179D01*
X006923Y007163D01*
X006948Y007138D01*
X006964Y007135D01*
X007006Y007080D01*
X007054Y007032D01*
X007054Y007016D01*
X007075Y006987D01*
X007091Y006983D01*
X007124Y006923D01*
X007165Y006868D01*
X007162Y006852D01*
X007179Y006821D01*
X007194Y006814D01*
X007218Y006750D01*
X007251Y006689D01*
X007246Y006674D01*
X007259Y006641D01*
X007272Y006632D01*
X007287Y006565D01*
X007311Y006501D01*
X007304Y006486D01*
X007312Y006451D01*
X007324Y006441D01*
X007329Y006372D01*
X007344Y006305D01*
X007335Y006292D01*
X007337Y006264D01*
X007343Y006259D01*
X007343Y006183D01*
X007348Y006107D01*
X007343Y006101D01*
X007343Y006027D02*
X013290Y006027D01*
X013132Y006186D02*
X007343Y006186D01*
X007335Y006344D02*
X013049Y006344D01*
X013049Y006503D02*
X007310Y006503D01*
X007251Y006661D02*
X013049Y006661D01*
X013049Y006820D02*
X007181Y006820D01*
X007093Y006978D02*
X013049Y006978D01*
X013049Y007137D02*
X006954Y007137D01*
X006771Y007295D02*
X009294Y007295D01*
X009243Y007454D02*
X006496Y007454D01*
X004587Y007612D02*
X009621Y007612D01*
X009621Y007636D02*
X009243Y007636D01*
X009243Y007838D01*
X009255Y007884D01*
X009279Y007925D01*
X009313Y007958D01*
X009354Y007982D01*
X009400Y007994D01*
X009621Y007994D01*
X009621Y007636D01*
X009621Y007771D02*
X009658Y007771D01*
X009658Y007929D02*
X009621Y007929D01*
X009284Y007929D02*
X004587Y007929D01*
X004587Y007771D02*
X009243Y007771D01*
X009621Y007454D02*
X009658Y007454D01*
X009658Y007295D02*
X009621Y007295D01*
X010309Y007617D02*
X010324Y007633D01*
X010324Y008367D01*
X010324Y008617D01*
X011024Y009317D01*
X011024Y011067D01*
X010924Y011167D01*
X010474Y011167D01*
X010980Y011447D02*
X011083Y011405D01*
X011262Y011226D01*
X011304Y011123D01*
X011304Y009262D01*
X011262Y009159D01*
X011183Y009080D01*
X010673Y008570D01*
X010724Y008447D01*
X010724Y008288D01*
X010664Y008141D01*
X010604Y008082D01*
X010604Y008014D01*
X010608Y008014D01*
X010718Y007905D01*
X010729Y007925D01*
X010763Y007958D01*
X010804Y007982D01*
X010850Y007994D01*
X011071Y007994D01*
X011071Y007636D01*
X011108Y007636D01*
X011108Y007994D01*
X011330Y007994D01*
X011376Y007982D01*
X011409Y007963D01*
X011460Y008014D01*
X011564Y008014D01*
X011564Y009619D01*
X011604Y009715D01*
X011677Y009788D01*
X011981Y010092D01*
X012077Y010132D01*
X012239Y010132D01*
X012239Y010535D01*
X012259Y010555D01*
X012259Y010639D01*
X012343Y010639D01*
X012343Y010639D01*
X012343Y010639D01*
X012259Y010639D01*
X012259Y010724D01*
X012239Y010744D01*
X012239Y012582D01*
X012356Y012699D01*
X013072Y012699D01*
X013189Y012582D01*
X013189Y011913D01*
X013678Y011913D01*
X013770Y011875D01*
X014066Y011579D01*
X014136Y011509D01*
X014174Y011417D01*
X014174Y010471D01*
X014268Y010378D01*
X014310Y010378D01*
X014310Y010535D01*
X014330Y010555D01*
X014330Y010639D01*
X014415Y010639D01*
X014415Y010639D01*
X014330Y010639D01*
X014330Y010732D01*
X014340Y010767D01*
X014330Y010803D01*
X014330Y010895D01*
X014785Y010895D01*
X014785Y010895D01*
X014785Y010888D01*
X014785Y010652D01*
X014785Y010652D01*
X014785Y010895D01*
X014785Y010895D01*
X014785Y010895D01*
X015240Y010895D01*
X015240Y010803D01*
X015230Y010767D01*
X015240Y010732D01*
X015240Y010639D01*
X015155Y010639D01*
X015240Y010639D01*
X015240Y010555D01*
X015260Y010535D01*
X015260Y009620D01*
X015270Y009620D01*
X015385Y009667D01*
X015564Y009667D01*
X015714Y009605D01*
X015714Y010960D01*
X015527Y011147D01*
X015240Y011147D01*
X015240Y011059D01*
X015230Y011023D01*
X015240Y010988D01*
X015240Y010895D01*
X014785Y010895D01*
X014330Y010895D01*
X014330Y010988D01*
X014340Y011023D01*
X014330Y011059D01*
X014330Y011151D01*
X014415Y011151D01*
X014415Y011151D01*
X014330Y011151D01*
X014330Y011236D01*
X014310Y011256D01*
X014310Y012171D01*
X014133Y012171D01*
X014004Y012117D01*
X013845Y012117D01*
X013698Y012178D01*
X013585Y012291D01*
X013524Y012438D01*
X013524Y012597D01*
X013585Y012744D01*
X013698Y012857D01*
X013845Y012917D01*
X014004Y012917D01*
X014151Y012857D01*
X014264Y012744D01*
X014286Y012691D01*
X014419Y012691D01*
X014427Y012699D01*
X015143Y012699D01*
X015203Y012639D01*
X015426Y012862D01*
X015426Y014007D01*
X012173Y014007D01*
X012077Y014047D01*
X012004Y014120D01*
X012004Y014120D01*
X011815Y014309D01*
X011742Y014382D01*
X011703Y014478D01*
X011703Y014544D01*
X011644Y014544D01*
X011526Y014661D01*
X011526Y015043D01*
X011553Y015069D01*
X011546Y015094D01*
X011546Y015226D01*
X011963Y015226D01*
X012379Y015226D01*
X012379Y015358D01*
X012372Y015382D01*
X012399Y015409D01*
X012399Y015791D01*
X012334Y015856D01*
X012334Y016181D01*
X012494Y016341D01*
X014904Y016341D01*
X015189Y016056D01*
X015189Y015549D01*
X015229Y015454D01*
X015250Y015433D01*
X015250Y015409D01*
X015276Y015382D01*
X015270Y015358D01*
X015270Y015226D01*
X015686Y015226D01*
X015686Y015226D01*
X015270Y015226D01*
X015270Y015094D01*
X015276Y015069D01*
X015250Y015043D01*
X015250Y014661D01*
X015367Y014544D01*
X015426Y014544D01*
X015426Y014527D01*
X014688Y014527D01*
X014694Y014531D01*
X014728Y014564D01*
X014751Y014605D01*
X014763Y014651D01*
X014763Y014873D01*
X014405Y014873D01*
X014405Y014910D01*
X014763Y014910D01*
X014763Y015131D01*
X014751Y015177D01*
X014732Y015210D01*
X014783Y015261D01*
X014783Y015860D01*
X014666Y015977D01*
X014107Y015977D01*
X014091Y015961D01*
X013976Y015961D01*
X013954Y015982D01*
X013789Y016051D01*
X013610Y016051D01*
X013444Y015982D01*
X013422Y015960D01*
X013351Y015960D01*
X012915Y015960D01*
X012790Y015908D01*
X012667Y015908D01*
X012550Y015791D01*
X012550Y015409D01*
X012667Y015292D01*
X012790Y015292D01*
X012915Y015240D01*
X013281Y015240D01*
X013281Y015240D01*
X013352Y015240D01*
X013423Y015240D01*
X013424Y015240D01*
X013444Y015219D01*
X013610Y015151D01*
X013789Y015151D01*
X013954Y015219D01*
X013976Y015241D01*
X014010Y015241D01*
X014041Y015210D01*
X014022Y015177D01*
X014010Y015131D01*
X014010Y014910D01*
X014368Y014910D01*
X014368Y014873D01*
X014010Y014873D01*
X014010Y014651D01*
X014022Y014605D01*
X014046Y014564D01*
X014079Y014531D01*
X014085Y014527D01*
X012332Y014527D01*
X012299Y014561D01*
X012399Y014661D01*
X012399Y015043D01*
X012372Y015069D01*
X012379Y015094D01*
X012379Y015226D01*
X011963Y015226D01*
X011963Y015226D01*
X011963Y015226D01*
X011546Y015226D01*
X011546Y015341D01*
X011284Y015341D01*
X011245Y015301D01*
X010528Y015301D01*
X010489Y015341D01*
X009937Y015341D01*
X009937Y015293D01*
X009870Y015226D01*
X009937Y015159D01*
X009937Y014894D01*
X009959Y014840D01*
X009959Y013549D01*
X009920Y013454D01*
X009449Y012983D01*
X010361Y012983D01*
X010456Y012944D01*
X010530Y012871D01*
X010690Y012711D01*
X010729Y012615D01*
X010729Y012302D01*
X010690Y012206D01*
X010616Y012133D01*
X010438Y011954D01*
X010342Y011915D01*
X010310Y011915D01*
X010310Y011768D01*
X010290Y011748D01*
X010290Y011663D01*
X010205Y011663D01*
X010205Y011663D01*
X010205Y011663D01*
X010290Y011663D01*
X010290Y011579D01*
X010310Y011559D01*
X010310Y011532D01*
X010395Y011567D01*
X010554Y011567D01*
X010701Y011507D01*
X010760Y011447D01*
X010980Y011447D01*
X011055Y011416D02*
X012239Y011416D01*
X012239Y011258D02*
X011230Y011258D01*
X011304Y011099D02*
X012239Y011099D01*
X012239Y010941D02*
X011304Y010941D01*
X011304Y010782D02*
X012239Y010782D01*
X012259Y010624D02*
X011304Y010624D01*
X011304Y010465D02*
X012239Y010465D01*
X012239Y010307D02*
X011304Y010307D01*
X011304Y010148D02*
X012239Y010148D01*
X011879Y009990D02*
X011304Y009990D01*
X011304Y009831D02*
X011721Y009831D01*
X011587Y009673D02*
X011304Y009673D01*
X011304Y009514D02*
X011564Y009514D01*
X011564Y009356D02*
X011304Y009356D01*
X011278Y009197D02*
X011564Y009197D01*
X011564Y009039D02*
X011142Y009039D01*
X010983Y008880D02*
X011564Y008880D01*
X011564Y008722D02*
X010825Y008722D01*
X010676Y008563D02*
X011564Y008563D01*
X011564Y008405D02*
X010724Y008405D01*
X010707Y008246D02*
X011564Y008246D01*
X011564Y008088D02*
X010611Y008088D01*
X010693Y007929D02*
X010734Y007929D01*
X011071Y007929D02*
X011108Y007929D01*
X011108Y007771D02*
X011071Y007771D01*
X011071Y007454D02*
X011108Y007454D01*
X011108Y007295D02*
X011071Y007295D01*
X010744Y007295D02*
X010683Y007295D01*
X010309Y007617D02*
X010324Y007891D01*
X010324Y008367D01*
X010038Y008088D02*
X004587Y008088D01*
X004587Y008246D02*
X009942Y008246D01*
X009924Y008405D02*
X004587Y008405D01*
X004587Y008563D02*
X009973Y008563D01*
X010065Y008722D02*
X004587Y008722D01*
X004587Y008880D02*
X009432Y008880D01*
X009360Y009039D02*
X004587Y009039D01*
X004587Y009197D02*
X009360Y009197D01*
X009360Y009356D02*
X004587Y009356D01*
X004587Y009514D02*
X009363Y009514D01*
X009380Y009673D02*
X008130Y009673D01*
X008130Y009656D02*
X008130Y010609D01*
X008013Y010726D01*
X006863Y010726D01*
X006746Y010609D01*
X006746Y009656D01*
X006863Y009539D01*
X008013Y009539D01*
X008130Y009656D01*
X008130Y009831D02*
X009380Y009831D01*
X009465Y009872D02*
X009465Y009872D01*
X009360Y009990D02*
X008130Y009990D01*
X008130Y010148D02*
X009360Y010148D01*
X009360Y010307D02*
X008130Y010307D01*
X008130Y010465D02*
X008728Y010465D01*
X008734Y010456D02*
X008767Y010422D01*
X008808Y010398D01*
X008854Y010386D01*
X009056Y010386D01*
X009056Y010764D01*
X008698Y010764D01*
X008698Y010543D01*
X008710Y010497D01*
X008734Y010456D01*
X008698Y010624D02*
X008115Y010624D01*
X008698Y010941D02*
X006830Y010941D01*
X006831Y010943D02*
X006773Y010805D01*
X006667Y010698D01*
X006529Y010641D01*
X006379Y010641D01*
X006240Y010698D01*
X006134Y010805D01*
X006076Y010943D01*
X006076Y011093D01*
X006134Y011232D01*
X006240Y011338D01*
X006379Y011395D01*
X006529Y011395D01*
X006667Y011338D01*
X006773Y011232D01*
X006831Y011093D01*
X006831Y010943D01*
X006828Y011099D02*
X006853Y011099D01*
X006844Y011258D02*
X006747Y011258D01*
X006824Y011416D02*
X004587Y011416D01*
X004587Y011258D02*
X006160Y011258D01*
X006079Y011099D02*
X004587Y011099D01*
X004587Y010941D02*
X006077Y010941D01*
X006156Y010782D02*
X004587Y010782D01*
X004587Y010624D02*
X004595Y010624D01*
X004587Y011575D02*
X006824Y011575D01*
X006824Y011733D02*
X004587Y011733D01*
X004587Y011892D02*
X006824Y011892D01*
X006824Y012050D02*
X004587Y012050D01*
X004587Y012209D02*
X006824Y012209D01*
X006824Y012367D02*
X004587Y012367D01*
X004587Y012526D02*
X006145Y012526D01*
X006076Y012684D02*
X004587Y012684D01*
X004587Y012843D02*
X006084Y012843D01*
X006171Y013001D02*
X004587Y013001D01*
X005965Y013477D02*
X006746Y013477D01*
X006746Y013635D02*
X005965Y013635D01*
X005965Y013794D02*
X006746Y013794D01*
X006746Y013952D02*
X005965Y013952D01*
X005965Y014111D02*
X006746Y014111D01*
X006228Y014564D02*
X006251Y014605D01*
X006263Y014651D01*
X006263Y014873D01*
X005905Y014873D01*
X005905Y014495D01*
X006107Y014495D01*
X006153Y014507D01*
X006194Y014531D01*
X006228Y014564D01*
X006240Y014586D02*
X006743Y014586D01*
X006568Y014745D02*
X006263Y014745D01*
X006430Y014903D02*
X005905Y014903D01*
X005868Y014903D02*
X004587Y014903D01*
X004587Y014745D02*
X005510Y014745D01*
X005533Y014586D02*
X004587Y014586D01*
X004587Y014428D02*
X008814Y014428D01*
X008814Y014269D02*
X004587Y014269D01*
X004587Y015062D02*
X005510Y015062D01*
X005531Y015220D02*
X004587Y015220D01*
X004587Y015379D02*
X005490Y015379D01*
X005490Y015537D02*
X004587Y015537D01*
X004587Y015696D02*
X005490Y015696D01*
X005490Y015854D02*
X004587Y015854D01*
X004587Y016013D02*
X006474Y016013D01*
X006464Y015854D02*
X006283Y015854D01*
X006589Y016171D02*
X004587Y016171D01*
X006524Y016330D02*
X006748Y016330D01*
X006785Y016488D02*
X006906Y016488D01*
X006975Y016647D02*
X007065Y016647D01*
X007102Y016805D02*
X007223Y016805D01*
X007198Y016964D02*
X007382Y016964D01*
X007257Y017122D02*
X007540Y017122D01*
X007699Y017281D02*
X007305Y017281D01*
X007338Y017439D02*
X007729Y017439D01*
X007729Y017598D02*
X007343Y017598D01*
X007343Y017756D02*
X007729Y017756D01*
X007592Y017915D02*
X007343Y017915D01*
X007343Y018073D02*
X007592Y018073D01*
X007592Y018232D02*
X007343Y018232D01*
X007343Y018390D02*
X007592Y018390D01*
X007658Y018549D02*
X007343Y018549D01*
X007343Y018707D02*
X007875Y018707D01*
X007343Y018866D02*
X025053Y018866D01*
X025053Y018707D02*
X012023Y018707D01*
X012257Y018549D02*
X012264Y018549D01*
X012926Y018549D02*
X013082Y018549D01*
X013408Y018549D02*
X013426Y018549D01*
X014206Y018549D02*
X014253Y018549D01*
X015032Y018549D02*
X015532Y018549D01*
X015466Y018390D02*
X015079Y018390D01*
X015079Y018232D02*
X015466Y018232D01*
X015466Y018073D02*
X015079Y018073D01*
X015079Y017915D02*
X015466Y017915D01*
X015667Y017756D02*
X014971Y017756D01*
X014602Y017598D02*
X015825Y017598D01*
X015938Y017439D02*
X014443Y017439D01*
X015699Y017281D02*
X015938Y017281D01*
X015938Y017122D02*
X015858Y017122D01*
X016458Y017122D02*
X017870Y017122D01*
X017712Y016964D02*
X016458Y016964D01*
X016458Y016805D02*
X017553Y016805D01*
X017395Y016647D02*
X016458Y016647D01*
X016458Y016488D02*
X017256Y016488D01*
X017214Y016330D02*
X016458Y016330D01*
X016458Y016171D02*
X017214Y016171D01*
X017214Y016013D02*
X016458Y016013D01*
X016458Y015292D02*
X016513Y015292D01*
X016638Y015240D01*
X017199Y015240D01*
X017229Y015210D01*
X017210Y015177D01*
X017198Y015131D01*
X017198Y014910D01*
X017556Y014910D01*
X017556Y014873D01*
X017198Y014873D01*
X017198Y014651D01*
X017210Y014605D01*
X017234Y014564D01*
X017267Y014531D01*
X017308Y014507D01*
X017354Y014495D01*
X017556Y014495D01*
X017556Y014873D01*
X017593Y014873D01*
X017593Y014910D01*
X017951Y014910D01*
X017951Y015131D01*
X017939Y015177D01*
X017920Y015210D01*
X017971Y015261D01*
X017971Y015860D01*
X017934Y015897D01*
X017934Y016168D01*
X018274Y016507D01*
X024370Y016507D01*
X024696Y016182D01*
X024696Y014990D01*
X021365Y014990D01*
X021365Y015025D01*
X021365Y015077D01*
X021723Y015077D01*
X021833Y015123D01*
X021911Y015201D01*
X021966Y015201D01*
X022113Y015262D01*
X022226Y015374D01*
X022287Y015521D01*
X022287Y015680D01*
X022226Y015827D01*
X022113Y015940D01*
X021966Y016001D01*
X021807Y016001D01*
X021660Y015940D01*
X021548Y015827D01*
X021487Y015680D01*
X021487Y015677D01*
X021292Y015677D01*
X021267Y015701D01*
X020649Y015701D01*
X020574Y015627D01*
X020500Y015701D01*
X019881Y015701D01*
X019764Y015584D01*
X019764Y015273D01*
X019487Y015273D01*
X019392Y015234D01*
X019319Y015161D01*
X019171Y015013D01*
X019171Y015191D01*
X019120Y015242D01*
X019139Y015274D01*
X019151Y015320D01*
X019151Y015542D01*
X018793Y015542D01*
X018793Y015579D01*
X019151Y015579D01*
X019151Y015801D01*
X019139Y015847D01*
X019115Y015888D01*
X019082Y015921D01*
X019041Y015945D01*
X018995Y015957D01*
X018793Y015957D01*
X018793Y015579D01*
X018756Y015579D01*
X018756Y015957D01*
X018554Y015957D01*
X018508Y015945D01*
X018467Y015921D01*
X018434Y015888D01*
X018410Y015847D01*
X018398Y015801D01*
X018398Y015579D01*
X018756Y015579D01*
X018756Y015542D01*
X018398Y015542D01*
X018398Y015320D01*
X018410Y015274D01*
X018429Y015242D01*
X018378Y015191D01*
X018378Y014592D01*
X018495Y014475D01*
X018514Y014475D01*
X018514Y013125D01*
X018080Y012691D01*
X018030Y012691D01*
X018022Y012699D01*
X017306Y012699D01*
X017297Y012691D01*
X017169Y012691D01*
X017156Y012722D01*
X017029Y012849D01*
X016864Y012917D01*
X016685Y012917D01*
X016520Y012849D01*
X016421Y012750D01*
X016458Y012839D01*
X016458Y014544D01*
X017029Y014544D01*
X017146Y014661D01*
X017146Y015043D01*
X017029Y015160D01*
X016458Y015160D01*
X016458Y015292D01*
X016458Y015220D02*
X017218Y015220D01*
X017198Y015062D02*
X017127Y015062D01*
X017146Y014903D02*
X017556Y014903D01*
X017593Y014903D02*
X018378Y014903D01*
X018378Y014745D02*
X017951Y014745D01*
X017951Y014651D02*
X017951Y014873D01*
X017593Y014873D01*
X017593Y014495D01*
X017795Y014495D01*
X017841Y014507D01*
X017882Y014531D01*
X017915Y014564D01*
X017939Y014605D01*
X017951Y014651D01*
X017928Y014586D02*
X018383Y014586D01*
X018514Y014428D02*
X016458Y014428D01*
X016458Y014269D02*
X018514Y014269D01*
X018514Y014111D02*
X016458Y014111D01*
X016458Y013952D02*
X018514Y013952D01*
X018514Y013794D02*
X016458Y013794D01*
X016458Y013635D02*
X018514Y013635D01*
X018514Y013477D02*
X016458Y013477D01*
X016458Y013318D02*
X018514Y013318D01*
X018514Y013160D02*
X016458Y013160D01*
X016458Y013001D02*
X018391Y013001D01*
X018232Y012843D02*
X017035Y012843D01*
X016513Y012843D02*
X016458Y012843D01*
X016390Y012715D02*
X016324Y012557D01*
X016324Y012378D01*
X016393Y012212D01*
X016520Y012086D01*
X016685Y012017D01*
X016864Y012017D01*
X017029Y012086D01*
X017114Y012171D01*
X017209Y012171D01*
X017209Y012090D01*
X017189Y012070D01*
X017189Y011155D01*
X016801Y011155D01*
X016705Y011116D01*
X016632Y011043D01*
X016632Y011043D01*
X016484Y010895D01*
X016484Y011319D01*
X016445Y011415D01*
X016372Y011488D01*
X015976Y011883D01*
X015880Y011923D01*
X015598Y011923D01*
X016390Y012715D01*
X016377Y012684D02*
X016359Y012684D01*
X016324Y012526D02*
X016201Y012526D01*
X016329Y012367D02*
X016042Y012367D01*
X015884Y012209D02*
X016397Y012209D01*
X016605Y012050D02*
X015725Y012050D01*
X015956Y011892D02*
X017189Y011892D01*
X017189Y012050D02*
X016944Y012050D01*
X017189Y011733D02*
X016126Y011733D01*
X016285Y011575D02*
X017189Y011575D01*
X017189Y011416D02*
X016443Y011416D01*
X016484Y011258D02*
X017189Y011258D01*
X016689Y011099D02*
X016484Y011099D01*
X016484Y010941D02*
X016530Y010941D01*
X016949Y010624D02*
X017189Y010624D01*
X017189Y010635D02*
X017189Y010232D01*
X017209Y010212D01*
X017209Y010128D01*
X017293Y010128D01*
X017293Y010128D01*
X017209Y010128D01*
X017209Y010043D01*
X017189Y010023D01*
X017189Y009267D01*
X017045Y009267D01*
X016898Y009207D01*
X016785Y009094D01*
X016784Y009092D01*
X016784Y010460D01*
X016960Y010635D01*
X017189Y010635D01*
X017189Y010465D02*
X016790Y010465D01*
X016784Y010307D02*
X017189Y010307D01*
X017209Y010148D02*
X016784Y010148D01*
X016784Y009990D02*
X017189Y009990D01*
X017189Y009831D02*
X016784Y009831D01*
X016784Y009673D02*
X017189Y009673D01*
X017189Y009514D02*
X016784Y009514D01*
X016784Y009356D02*
X017189Y009356D01*
X016889Y009197D02*
X016784Y009197D01*
X017524Y008836D02*
X017931Y008836D01*
X018024Y008742D01*
X018024Y008630D01*
X018085Y008483D01*
X018198Y008371D01*
X018345Y008310D01*
X018504Y008310D01*
X018651Y008371D01*
X018730Y008450D01*
X019764Y008450D01*
X019764Y008151D01*
X019881Y008034D01*
X019950Y008034D01*
X019962Y008008D01*
X019980Y007965D01*
X019984Y007961D01*
X019986Y007956D01*
X020020Y007924D01*
X020127Y007818D01*
X020084Y007775D01*
X020072Y007788D01*
X019976Y007827D01*
X017232Y007827D01*
X017084Y007975D01*
X017084Y008460D01*
X017092Y008467D01*
X017204Y008467D01*
X017351Y008528D01*
X017464Y008641D01*
X017524Y008788D01*
X017524Y008836D01*
X017497Y008722D02*
X018024Y008722D01*
X018052Y008563D02*
X017386Y008563D01*
X017084Y008405D02*
X018164Y008405D01*
X018685Y008405D02*
X019764Y008405D01*
X019764Y008246D02*
X017084Y008246D01*
X017084Y008088D02*
X019827Y008088D01*
X020015Y007929D02*
X017130Y007929D01*
X018268Y007307D02*
X019349Y007307D01*
X019324Y007247D01*
X019324Y007088D01*
X019385Y006941D01*
X019470Y006856D01*
X019424Y006747D01*
X019424Y006588D01*
X019434Y006566D01*
X019010Y006566D01*
X018268Y007307D01*
X018280Y007295D02*
X019344Y007295D01*
X019324Y007137D02*
X018439Y007137D01*
X018597Y006978D02*
X019370Y006978D01*
X019455Y006820D02*
X018756Y006820D01*
X018914Y006661D02*
X019424Y006661D01*
X020066Y006027D02*
X018718Y006027D01*
X018718Y005869D02*
X020103Y005869D01*
X020423Y005869D02*
X020423Y005869D01*
X020423Y005801D02*
X020423Y006037D01*
X020423Y005801D01*
X020423Y006027D02*
X020423Y006027D01*
X020423Y006037D02*
X020423Y006037D01*
X020696Y006050D02*
X020696Y006050D01*
X020780Y006050D01*
X020696Y006050D01*
X020780Y006027D02*
X021997Y006027D01*
X021877Y006186D02*
X020800Y006186D01*
X021065Y006344D02*
X021382Y006344D01*
X021260Y006503D02*
X021228Y006503D01*
X020743Y005869D02*
X022155Y005869D01*
X023074Y005869D02*
X023741Y005869D01*
X023908Y005869D02*
X025053Y005869D01*
X025053Y006027D02*
X024150Y006027D01*
X024224Y006186D02*
X025053Y006186D01*
X025060Y006344D02*
X024224Y006344D01*
X024155Y006503D02*
X025085Y006503D01*
X025144Y006661D02*
X023919Y006661D01*
X023824Y006820D02*
X025214Y006820D01*
X025302Y006978D02*
X025069Y006978D01*
X025081Y007137D02*
X025442Y007137D01*
X025624Y007295D02*
X025081Y007295D01*
X025081Y007261D02*
X025081Y007463D01*
X025068Y007509D01*
X025045Y007550D01*
X025011Y007583D01*
X024970Y007607D01*
X024924Y007619D01*
X024702Y007619D01*
X024702Y007261D01*
X025081Y007261D01*
X025081Y007454D02*
X025899Y007454D01*
X024950Y007612D02*
X027809Y007612D01*
X027809Y007771D02*
X023854Y007771D01*
X024341Y007612D02*
X024418Y007612D01*
X024666Y007612D02*
X024702Y007612D01*
X024702Y007454D02*
X024666Y007454D01*
X024666Y007295D02*
X024702Y007295D01*
X024702Y007137D02*
X024666Y007137D01*
X024666Y006978D02*
X024702Y006978D01*
X023365Y007929D02*
X027809Y007929D01*
X027809Y008405D02*
X023365Y008405D01*
X023437Y008247D02*
X023437Y008088D01*
X023126Y008563D02*
X027809Y008563D01*
X027809Y008722D02*
X023037Y008722D01*
X022982Y008880D02*
X023499Y008880D01*
X023385Y008970D02*
X023385Y008970D01*
X023317Y009039D02*
X022785Y009039D01*
X022537Y009197D02*
X023158Y009197D01*
X023000Y009356D02*
X022492Y009356D01*
X022345Y009514D02*
X022643Y009514D01*
X022533Y009673D02*
X021296Y009673D01*
X021228Y009990D02*
X022544Y009990D01*
X022506Y009831D02*
X020741Y009831D01*
X020621Y009673D02*
X020582Y009673D01*
X019384Y010132D02*
X018341Y010132D01*
X018417Y010163D01*
X019257Y011003D01*
X019469Y011003D01*
X019469Y010909D01*
X019586Y010792D01*
X020382Y010792D01*
X020499Y010909D01*
X020499Y011507D01*
X020670Y011507D01*
X020670Y011325D01*
X021107Y011325D01*
X021107Y011210D01*
X020670Y011210D01*
X020670Y010968D01*
X020682Y010922D01*
X020706Y010881D01*
X020739Y010848D01*
X020781Y010824D01*
X020826Y010812D01*
X021107Y010812D01*
X021107Y011210D01*
X021223Y011210D01*
X021223Y011325D01*
X021660Y011325D01*
X021660Y011507D01*
X022786Y011507D01*
X023039Y011254D01*
X023113Y011180D01*
X023208Y011141D01*
X023683Y011141D01*
X023642Y011100D01*
X023642Y010669D01*
X023650Y010661D01*
X021306Y010661D01*
X021306Y010667D01*
X021189Y010784D01*
X020629Y010784D01*
X020574Y010729D01*
X020519Y010784D01*
X019960Y010784D01*
X019900Y010724D01*
X019794Y010767D01*
X019635Y010767D01*
X019488Y010707D01*
X019375Y010594D01*
X019314Y010447D01*
X019314Y010288D01*
X019375Y010141D01*
X019384Y010132D01*
X019372Y010148D02*
X018381Y010148D01*
X018560Y010307D02*
X019314Y010307D01*
X019322Y010465D02*
X018719Y010465D01*
X018877Y010624D02*
X019405Y010624D01*
X019469Y010941D02*
X019194Y010941D01*
X019036Y010782D02*
X019959Y010782D01*
X020521Y010782D02*
X020628Y010782D01*
X020677Y010941D02*
X020499Y010941D01*
X020499Y011099D02*
X020670Y011099D01*
X020499Y011258D02*
X021107Y011258D01*
X021223Y011258D02*
X023035Y011258D01*
X022877Y011416D02*
X021660Y011416D01*
X021660Y011210D02*
X021223Y011210D01*
X021223Y010812D01*
X021504Y010812D01*
X021549Y010824D01*
X021590Y010848D01*
X021624Y010881D01*
X021648Y010922D01*
X021660Y010968D01*
X021660Y011210D01*
X021660Y011099D02*
X023642Y011099D01*
X023642Y010941D02*
X021653Y010941D01*
X021223Y010941D02*
X021107Y010941D01*
X021107Y011099D02*
X021223Y011099D01*
X021190Y010782D02*
X023642Y010782D01*
X023650Y011661D02*
X023368Y011661D01*
X023041Y011988D01*
X022945Y012027D01*
X022520Y012027D01*
X022591Y012057D01*
X022704Y012170D01*
X022765Y012317D01*
X022765Y012476D01*
X022704Y012623D01*
X022591Y012735D01*
X022444Y012796D01*
X022332Y012796D01*
X022198Y012930D01*
X022103Y012970D01*
X021365Y012970D01*
X021365Y013025D01*
X021365Y013097D01*
X022547Y013097D01*
X023642Y012007D01*
X023642Y011669D01*
X023650Y011661D01*
X023642Y011733D02*
X023295Y011733D01*
X023137Y011892D02*
X023642Y011892D01*
X023599Y012050D02*
X022575Y012050D01*
X022720Y012209D02*
X023439Y012209D01*
X023280Y012367D02*
X022765Y012367D01*
X022744Y012526D02*
X023121Y012526D01*
X022962Y012684D02*
X022642Y012684D01*
X022803Y012843D02*
X022286Y012843D01*
X022644Y013001D02*
X021365Y013001D01*
X021365Y013025D02*
X020958Y013025D01*
X021365Y013025D01*
X020958Y013025D02*
X020958Y013025D01*
X020958Y013377D02*
X022663Y013377D01*
X024162Y011884D01*
X025415Y012367D02*
X027809Y012367D01*
X027809Y012209D02*
X025573Y012209D01*
X025682Y012050D02*
X027809Y012050D01*
X027809Y011892D02*
X025682Y011892D01*
X025682Y011733D02*
X027809Y011733D01*
X027809Y011575D02*
X025588Y011575D01*
X025430Y011416D02*
X027809Y011416D01*
X027809Y011258D02*
X025524Y011258D01*
X025682Y011099D02*
X027809Y011099D01*
X027809Y010941D02*
X025682Y010941D01*
X025682Y010782D02*
X027809Y010782D01*
X027809Y010624D02*
X025637Y010624D01*
X025479Y010465D02*
X027809Y010465D01*
X027809Y010307D02*
X025663Y010307D01*
X025682Y010148D02*
X027809Y010148D01*
X027809Y009990D02*
X025682Y009990D01*
X025682Y009831D02*
X027809Y009831D01*
X027809Y009673D02*
X025682Y009673D01*
X025682Y009514D02*
X027809Y009514D01*
X027809Y009356D02*
X024999Y009356D01*
X024839Y009197D02*
X027809Y009197D01*
X027809Y009039D02*
X024679Y009039D01*
X024536Y008897D02*
X024536Y008897D01*
X024496Y008880D02*
X027809Y008880D01*
X023499Y006027D02*
X023103Y006027D01*
X025053Y005710D02*
X018665Y005710D01*
X018506Y005552D02*
X025053Y005552D01*
X025053Y005393D02*
X017980Y005393D01*
X017821Y005235D02*
X025053Y005235D01*
X025053Y005076D02*
X007343Y005076D01*
X007343Y004918D02*
X025053Y004918D01*
X021924Y007517D02*
X021919Y007523D01*
X020972Y008353D02*
X020958Y008358D01*
X017293Y010128D02*
X017293Y010128D01*
X015714Y010148D02*
X015260Y010148D01*
X015260Y009990D02*
X015714Y009990D01*
X015714Y009831D02*
X015260Y009831D01*
X015260Y009673D02*
X015714Y009673D01*
X015714Y010307D02*
X015260Y010307D01*
X015260Y010465D02*
X015714Y010465D01*
X015714Y010624D02*
X015240Y010624D01*
X015155Y010639D02*
X015155Y010639D01*
X015234Y010782D02*
X015714Y010782D01*
X015714Y010941D02*
X015240Y010941D01*
X015240Y011099D02*
X015575Y011099D01*
X014785Y011099D02*
X014785Y011099D01*
X014785Y011139D02*
X014785Y010895D01*
X014785Y010895D01*
X014785Y011139D01*
X014785Y011139D01*
X014785Y010941D02*
X014785Y010941D01*
X014785Y010782D02*
X014785Y010782D01*
X014336Y010782D02*
X014174Y010782D01*
X014174Y010624D02*
X014330Y010624D01*
X014310Y010465D02*
X014180Y010465D01*
X013817Y010122D02*
X013624Y010122D01*
X013406Y010340D01*
X013314Y010378D01*
X013189Y010378D01*
X013189Y010535D01*
X013169Y010555D01*
X013169Y010639D01*
X013084Y010639D01*
X013084Y010639D01*
X013084Y010639D01*
X013169Y010639D01*
X013169Y010724D01*
X013189Y010744D01*
X013189Y011413D01*
X013525Y011413D01*
X013674Y011264D01*
X013674Y010318D01*
X013712Y010226D01*
X013817Y010122D01*
X013790Y010148D02*
X013597Y010148D01*
X013679Y010307D02*
X013438Y010307D01*
X013674Y010465D02*
X013189Y010465D01*
X013169Y010624D02*
X013674Y010624D01*
X013674Y010782D02*
X013189Y010782D01*
X013189Y010941D02*
X013674Y010941D01*
X013674Y011099D02*
X013189Y011099D01*
X013189Y011258D02*
X013674Y011258D01*
X014174Y011258D02*
X014310Y011258D01*
X014310Y011416D02*
X014174Y011416D01*
X014070Y011575D02*
X014310Y011575D01*
X014310Y011733D02*
X013912Y011733D01*
X013730Y011892D02*
X014310Y011892D01*
X014310Y012050D02*
X013189Y012050D01*
X013189Y012209D02*
X013667Y012209D01*
X013554Y012367D02*
X013189Y012367D01*
X013189Y012526D02*
X013524Y012526D01*
X013561Y012684D02*
X013087Y012684D01*
X013684Y012843D02*
X010557Y012843D01*
X010700Y012684D02*
X012341Y012684D01*
X012239Y012526D02*
X010729Y012526D01*
X010729Y012367D02*
X012239Y012367D01*
X012239Y012209D02*
X010691Y012209D01*
X010534Y012050D02*
X012239Y012050D01*
X012239Y011892D02*
X010310Y011892D01*
X010290Y011733D02*
X012239Y011733D01*
X012239Y011575D02*
X010294Y011575D01*
X009056Y010782D02*
X006751Y010782D01*
X006761Y010624D02*
X005950Y010624D01*
X005965Y010465D02*
X006746Y010465D01*
X006746Y010307D02*
X005965Y010307D01*
X005965Y010148D02*
X006746Y010148D01*
X006746Y009990D02*
X005965Y009990D01*
X005965Y009831D02*
X006746Y009831D01*
X006746Y009673D02*
X005965Y009673D01*
X007674Y011099D02*
X007674Y011099D01*
X008495Y011099D02*
X008727Y011099D01*
X008678Y011258D02*
X008504Y011258D01*
X008524Y011416D02*
X008678Y011416D01*
X008678Y011575D02*
X008524Y011575D01*
X009056Y010624D02*
X009093Y010624D01*
X009093Y010465D02*
X009056Y010465D01*
X009835Y009859D02*
X009835Y009859D01*
X009835Y009628D01*
X009835Y009628D01*
X009835Y009859D01*
X009835Y009831D02*
X009835Y009831D01*
X009835Y009673D02*
X009835Y009673D01*
X010205Y009616D02*
X010290Y009616D01*
X010290Y009708D01*
X010280Y009744D01*
X010290Y009780D01*
X010290Y009872D01*
X010290Y009956D01*
X010310Y009976D01*
X010310Y010216D01*
X010348Y010178D01*
X010495Y010117D01*
X010654Y010117D01*
X010744Y010155D01*
X010744Y009433D01*
X010310Y008999D01*
X010310Y009511D01*
X010290Y009531D01*
X010290Y009616D01*
X010205Y009616D01*
X010205Y009616D01*
X010290Y009673D02*
X010744Y009673D01*
X010744Y009831D02*
X010290Y009831D01*
X010290Y009872D02*
X010205Y009872D01*
X010205Y009872D01*
X010290Y009872D01*
X010310Y009990D02*
X010744Y009990D01*
X010729Y010148D02*
X010744Y010148D01*
X010420Y010148D02*
X010310Y010148D01*
X010307Y009514D02*
X010744Y009514D01*
X010667Y009356D02*
X010310Y009356D01*
X010310Y009197D02*
X010508Y009197D01*
X010350Y009039D02*
X010310Y009039D01*
X012133Y007295D02*
X012266Y007295D01*
X013287Y008256D02*
X013509Y008034D01*
X013589Y008034D01*
X013706Y007917D01*
X013706Y007318D01*
X013589Y007201D01*
X013569Y007201D01*
X013569Y006484D01*
X013678Y006376D01*
X013678Y006382D01*
X013795Y006499D01*
X014600Y006499D01*
X014718Y006382D01*
X014718Y006234D01*
X014838Y006354D01*
X014838Y006625D01*
X014892Y006758D01*
X015140Y007005D01*
X015140Y007961D01*
X015108Y007929D01*
X014510Y007929D01*
X014459Y007980D01*
X014426Y007961D01*
X014380Y007949D01*
X014158Y007949D01*
X014158Y008308D01*
X014121Y008308D01*
X013743Y008308D01*
X013743Y008106D01*
X013755Y008060D01*
X013779Y008019D01*
X013813Y007985D01*
X013854Y007961D01*
X013900Y007949D01*
X014121Y007949D01*
X014121Y008308D01*
X014121Y008344D01*
X013743Y008344D01*
X013743Y008504D01*
X013230Y008504D01*
X013287Y008368D01*
X013287Y008256D01*
X013296Y008246D02*
X013743Y008246D01*
X013748Y008088D02*
X013455Y008088D01*
X013693Y007929D02*
X014510Y007929D01*
X014158Y008088D02*
X014121Y008088D01*
X014121Y008246D02*
X014158Y008246D01*
X013743Y008405D02*
X013271Y008405D01*
X013706Y007771D02*
X015140Y007771D01*
X015140Y007929D02*
X015109Y007929D01*
X015500Y008276D02*
X015450Y008326D01*
X014809Y008326D01*
X015140Y007612D02*
X013706Y007612D01*
X013706Y007454D02*
X015140Y007454D01*
X015140Y007295D02*
X013683Y007295D01*
X013569Y007137D02*
X015140Y007137D01*
X015113Y006978D02*
X013569Y006978D01*
X013569Y006820D02*
X014955Y006820D01*
X014853Y006661D02*
X013569Y006661D01*
X013569Y006503D02*
X014838Y006503D01*
X014828Y006344D02*
X014718Y006344D01*
X015558Y006354D02*
X015712Y006200D01*
X015991Y006479D01*
X016178Y006479D01*
X016178Y005999D01*
X016218Y005999D01*
X016218Y006479D01*
X016405Y006479D01*
X016426Y006458D01*
X016426Y006492D01*
X015860Y007057D01*
X015860Y006785D01*
X015806Y006652D01*
X015558Y006405D01*
X015558Y006354D01*
X015567Y006344D02*
X015856Y006344D01*
X015656Y006503D02*
X016415Y006503D01*
X016256Y006661D02*
X015809Y006661D01*
X015860Y006820D02*
X016098Y006820D01*
X015939Y006978D02*
X015860Y006978D01*
X016178Y006344D02*
X016218Y006344D01*
X016218Y006186D02*
X016178Y006186D01*
X016178Y006027D02*
X016218Y006027D01*
X016218Y005869D02*
X016178Y005869D01*
X016178Y005710D02*
X016218Y005710D01*
X016218Y005552D02*
X016178Y005552D01*
X015917Y005552D02*
X015506Y005552D01*
X015665Y005710D02*
X015759Y005710D01*
X016459Y005393D02*
X007343Y005393D01*
X007343Y005235D02*
X016609Y005235D01*
X014889Y005552D02*
X014694Y005552D01*
X014718Y005710D02*
X014731Y005710D01*
X013702Y005552D02*
X007343Y005552D01*
X007343Y005710D02*
X013678Y005710D01*
X013449Y005869D02*
X007343Y005869D01*
X014174Y010941D02*
X014330Y010941D01*
X014330Y011099D02*
X014174Y011099D01*
X015158Y012684D02*
X015249Y012684D01*
X015407Y012843D02*
X014165Y012843D01*
X015426Y013001D02*
X009467Y013001D01*
X009626Y013160D02*
X015426Y013160D01*
X015426Y013318D02*
X009784Y013318D01*
X009929Y013477D02*
X015426Y013477D01*
X015426Y013635D02*
X009959Y013635D01*
X009959Y013794D02*
X015426Y013794D01*
X015426Y013952D02*
X009959Y013952D01*
X009959Y014111D02*
X012013Y014111D01*
X011855Y014269D02*
X011335Y014269D01*
X011330Y014251D02*
X011342Y014297D01*
X011342Y014578D01*
X010944Y014578D01*
X010944Y014693D01*
X010829Y014693D01*
X010829Y015130D01*
X010587Y015130D01*
X010542Y015118D01*
X010501Y015094D01*
X010467Y015061D01*
X010443Y015020D01*
X010431Y014974D01*
X010431Y014693D01*
X010829Y014693D01*
X010829Y014578D01*
X010431Y014578D01*
X010431Y014297D01*
X010443Y014251D01*
X010467Y014210D01*
X010501Y014176D01*
X010542Y014153D01*
X010587Y014140D01*
X010829Y014140D01*
X010829Y014578D01*
X010944Y014578D01*
X010944Y014140D01*
X011186Y014140D01*
X011232Y014153D01*
X011273Y014176D01*
X011306Y014210D01*
X011330Y014251D01*
X011342Y014428D02*
X011723Y014428D01*
X011601Y014586D02*
X010944Y014586D01*
X010944Y014693D02*
X011342Y014693D01*
X011342Y014974D01*
X011330Y015020D01*
X011306Y015061D01*
X011273Y015094D01*
X011232Y015118D01*
X011186Y015130D01*
X010944Y015130D01*
X010944Y014693D01*
X010944Y014745D02*
X010829Y014745D01*
X010829Y014903D02*
X010944Y014903D01*
X010944Y015062D02*
X010829Y015062D01*
X010468Y015062D02*
X009937Y015062D01*
X009937Y014903D02*
X010431Y014903D01*
X010431Y014745D02*
X009959Y014745D01*
X009959Y014586D02*
X010829Y014586D01*
X010829Y014428D02*
X010944Y014428D01*
X010944Y014269D02*
X010829Y014269D01*
X010438Y014269D02*
X009959Y014269D01*
X009959Y014428D02*
X010431Y014428D01*
X011342Y014745D02*
X011526Y014745D01*
X011526Y014903D02*
X011342Y014903D01*
X011305Y015062D02*
X011545Y015062D01*
X011546Y015220D02*
X009876Y015220D01*
X008127Y016013D02*
X007166Y016013D01*
X007325Y016171D02*
X008127Y016171D01*
X008127Y016330D02*
X007483Y016330D01*
X007642Y016488D02*
X008127Y016488D01*
X008127Y016647D02*
X007800Y016647D01*
X007959Y016805D02*
X008223Y016805D01*
X008117Y016964D02*
X008382Y016964D01*
X008237Y017122D02*
X008540Y017122D01*
X008699Y017281D02*
X008249Y017281D01*
X008249Y017439D02*
X012845Y017439D01*
X012847Y017598D02*
X008249Y017598D01*
X008249Y017756D02*
X009551Y017756D01*
X010207Y017756D02*
X012921Y017756D01*
X011529Y017915D02*
X011119Y017915D01*
X011122Y017924D02*
X011122Y018145D01*
X010744Y018145D01*
X010744Y017767D01*
X010965Y017767D01*
X011011Y017780D01*
X011052Y017803D01*
X011086Y017837D01*
X011109Y017878D01*
X011122Y017924D01*
X011122Y018073D02*
X011529Y018073D01*
X011529Y018232D02*
X011122Y018232D01*
X010744Y018073D02*
X010667Y018073D01*
X010667Y017915D02*
X010744Y017915D01*
X012483Y016330D02*
X014915Y016330D01*
X015073Y016171D02*
X012334Y016171D01*
X012334Y016013D02*
X013518Y016013D01*
X013880Y016013D02*
X015189Y016013D01*
X015189Y015854D02*
X014783Y015854D01*
X014783Y015696D02*
X015189Y015696D01*
X015194Y015537D02*
X014783Y015537D01*
X014783Y015379D02*
X015275Y015379D01*
X015270Y015220D02*
X014743Y015220D01*
X014763Y015062D02*
X015269Y015062D01*
X015250Y014903D02*
X014405Y014903D01*
X014368Y014903D02*
X013422Y014903D01*
X013422Y015043D02*
X013422Y014661D01*
X013305Y014544D01*
X012667Y014544D01*
X012550Y014661D01*
X012550Y015043D01*
X012667Y015160D01*
X013305Y015160D01*
X013422Y015043D01*
X013404Y015062D02*
X014010Y015062D01*
X014031Y015220D02*
X013955Y015220D01*
X014010Y014745D02*
X013422Y014745D01*
X013348Y014586D02*
X014033Y014586D01*
X014740Y014586D02*
X015324Y014586D01*
X015250Y014745D02*
X014763Y014745D01*
X013443Y015220D02*
X012379Y015220D01*
X012380Y015062D02*
X012569Y015062D01*
X012550Y014903D02*
X012399Y014903D01*
X012399Y014745D02*
X012550Y014745D01*
X012624Y014586D02*
X012324Y014586D01*
X012373Y015379D02*
X012580Y015379D01*
X012550Y015537D02*
X012399Y015537D01*
X012399Y015696D02*
X012550Y015696D01*
X012613Y015854D02*
X012335Y015854D01*
X008814Y014111D02*
X008130Y014111D01*
X008130Y013952D02*
X008814Y013952D01*
X008814Y013794D02*
X008130Y013794D01*
X008130Y013635D02*
X008741Y013635D01*
X008582Y013477D02*
X008130Y013477D01*
X008130Y013318D02*
X008424Y013318D01*
X006919Y013001D02*
X006736Y013001D01*
X006762Y012526D02*
X006814Y012526D01*
X005905Y014586D02*
X005868Y014586D01*
X005868Y014745D02*
X005905Y014745D01*
X006263Y015062D02*
X006399Y015062D01*
X007120Y015220D02*
X007982Y015220D01*
X007981Y015062D02*
X007792Y015062D01*
X007811Y014903D02*
X007962Y014903D01*
X007962Y014745D02*
X007811Y014745D01*
X007737Y014586D02*
X008037Y014586D01*
X007988Y015379D02*
X007781Y015379D01*
X007811Y015537D02*
X007962Y015537D01*
X007962Y015696D02*
X007811Y015696D01*
X007748Y015854D02*
X008026Y015854D01*
X016194Y018549D02*
X016201Y018549D01*
X016863Y018549D02*
X017019Y018549D01*
X017345Y018549D02*
X017363Y018549D01*
X018143Y018549D02*
X018218Y018549D01*
X018541Y018549D02*
X018618Y018549D01*
X018618Y018600D02*
X018618Y018222D01*
X018996Y018222D01*
X018996Y018443D01*
X018983Y018489D01*
X018960Y018530D01*
X018926Y018564D01*
X018885Y018587D01*
X018839Y018600D01*
X018618Y018600D01*
X018618Y018390D02*
X018541Y018390D01*
X018541Y018232D02*
X018618Y018232D01*
X018618Y018145D02*
X018996Y018145D01*
X018996Y017924D01*
X018983Y017878D01*
X018960Y017837D01*
X018926Y017803D01*
X018885Y017780D01*
X018839Y017767D01*
X018618Y017767D01*
X018618Y018145D01*
X018618Y018073D02*
X018541Y018073D01*
X018541Y017915D02*
X018618Y017915D01*
X018993Y017915D02*
X019403Y017915D01*
X019403Y018073D02*
X018996Y018073D01*
X018996Y018232D02*
X019403Y018232D01*
X019403Y018390D02*
X018996Y018390D01*
X018941Y018549D02*
X019469Y018549D01*
X020131Y018549D02*
X020138Y018549D01*
X020800Y018549D02*
X020956Y018549D01*
X021282Y018549D02*
X021300Y018549D01*
X022080Y018549D02*
X022155Y018549D01*
X022478Y018549D02*
X022555Y018549D01*
X022555Y018600D02*
X022555Y018222D01*
X022933Y018222D01*
X022933Y018443D01*
X022920Y018489D01*
X022897Y018530D01*
X022863Y018564D01*
X022822Y018587D01*
X022776Y018600D01*
X022555Y018600D01*
X022555Y018390D02*
X022478Y018390D01*
X022478Y018232D02*
X022555Y018232D01*
X022555Y018145D02*
X022933Y018145D01*
X022933Y017924D01*
X022920Y017878D01*
X022897Y017837D01*
X022863Y017803D01*
X022822Y017780D01*
X022776Y017767D01*
X022555Y017767D01*
X022555Y018145D01*
X022555Y018073D02*
X022478Y018073D01*
X022478Y017915D02*
X022555Y017915D01*
X022930Y017915D02*
X025053Y017915D01*
X025053Y018073D02*
X022933Y018073D01*
X022933Y018232D02*
X025053Y018232D01*
X025053Y018390D02*
X022933Y018390D01*
X022878Y018549D02*
X025053Y018549D01*
X025053Y017756D02*
X022018Y017756D01*
X021362Y017756D02*
X020060Y017756D01*
X020060Y017598D02*
X025052Y017598D01*
X025057Y017439D02*
X020060Y017439D01*
X020060Y017281D02*
X025090Y017281D01*
X025139Y017122D02*
X024773Y017122D01*
X024932Y016964D02*
X025198Y016964D01*
X025294Y016805D02*
X025090Y016805D01*
X025249Y016647D02*
X025421Y016647D01*
X025380Y016488D02*
X025610Y016488D01*
X025416Y016330D02*
X025872Y016330D01*
X025416Y016171D02*
X027809Y016171D01*
X027809Y016013D02*
X025416Y016013D01*
X025416Y015854D02*
X027809Y015854D01*
X027809Y015696D02*
X025416Y015696D01*
X025416Y015537D02*
X027809Y015537D01*
X027809Y015379D02*
X025416Y015379D01*
X025416Y015220D02*
X027809Y015220D01*
X027809Y015062D02*
X025416Y015062D01*
X025416Y014903D02*
X027809Y014903D01*
X027809Y014745D02*
X025416Y014745D01*
X025416Y014586D02*
X027809Y014586D01*
X027809Y014428D02*
X025416Y014428D01*
X025513Y014269D02*
X027809Y014269D01*
X027809Y014111D02*
X025671Y014111D01*
X025682Y013952D02*
X027809Y013952D01*
X027809Y013794D02*
X025682Y013794D01*
X025649Y013635D02*
X027809Y013635D01*
X027809Y013477D02*
X025490Y013477D01*
X025464Y013318D02*
X027809Y013318D01*
X027809Y013160D02*
X025622Y013160D01*
X025682Y013001D02*
X027809Y013001D01*
X027809Y012843D02*
X025682Y012843D01*
X025682Y012684D02*
X027809Y012684D01*
X027809Y012526D02*
X025539Y012526D01*
X023941Y013398D02*
X023642Y013100D01*
X023642Y012797D01*
X022861Y013576D01*
X022822Y013615D01*
X022821Y013615D01*
X022770Y013636D01*
X022719Y013657D01*
X022718Y013657D01*
X022663Y013657D01*
X021312Y013657D01*
X021267Y013701D01*
X020649Y013701D01*
X020574Y013627D01*
X020500Y013701D01*
X019881Y013701D01*
X019764Y013584D01*
X019764Y013285D01*
X019639Y013285D01*
X019549Y013248D01*
X019549Y013876D01*
X019771Y014098D01*
X019817Y014098D01*
X019881Y014034D01*
X020500Y014034D01*
X020589Y014122D01*
X020621Y014090D01*
X020662Y014066D01*
X020708Y014054D01*
X020958Y014054D01*
X020958Y014358D01*
X021365Y014358D01*
X021365Y014430D01*
X024696Y014430D01*
X024696Y014153D01*
X024648Y014106D01*
X024369Y014384D01*
X024182Y014384D01*
X024182Y013904D01*
X024142Y013904D01*
X024142Y013864D01*
X023662Y013864D01*
X023662Y013677D01*
X023941Y013398D01*
X023863Y013477D02*
X022960Y013477D01*
X022821Y013615D02*
X022821Y013615D01*
X022771Y013635D02*
X023704Y013635D01*
X023662Y013794D02*
X019549Y013794D01*
X019549Y013635D02*
X019815Y013635D01*
X019764Y013477D02*
X019549Y013477D01*
X019549Y013318D02*
X019764Y013318D01*
X020566Y013635D02*
X020583Y013635D01*
X020577Y014111D02*
X020600Y014111D01*
X020958Y014111D02*
X020958Y014111D01*
X020958Y014054D02*
X021208Y014054D01*
X021254Y014066D01*
X021295Y014090D01*
X021329Y014123D01*
X021352Y014164D01*
X021365Y014210D01*
X021365Y014358D01*
X020958Y014358D01*
X020958Y014358D01*
X020958Y014358D01*
X020958Y014054D01*
X020958Y014269D02*
X020958Y014269D01*
X021317Y014111D02*
X023682Y014111D01*
X023662Y014091D02*
X023662Y013904D01*
X024142Y013904D01*
X024142Y014384D01*
X023955Y014384D01*
X023662Y014091D01*
X023662Y013952D02*
X019626Y013952D01*
X020958Y014710D02*
X024998Y014710D01*
X025056Y014767D01*
X024696Y014428D02*
X021365Y014428D01*
X021365Y014269D02*
X023840Y014269D01*
X024142Y014269D02*
X024182Y014269D01*
X024182Y014111D02*
X024142Y014111D01*
X024142Y013952D02*
X024182Y013952D01*
X024484Y014269D02*
X024696Y014269D01*
X024653Y014111D02*
X024643Y014111D01*
X023861Y013318D02*
X023119Y013318D01*
X023278Y013160D02*
X023702Y013160D01*
X023642Y013001D02*
X023437Y013001D01*
X023596Y012843D02*
X023642Y012843D01*
X022718Y013657D02*
X022718Y013657D01*
X021943Y012450D02*
X021365Y012450D01*
X021365Y012358D01*
X020958Y012358D01*
X020958Y012358D01*
X020958Y012358D01*
X020958Y012054D01*
X020708Y012054D01*
X020662Y012066D01*
X020621Y012090D01*
X020589Y012122D01*
X020500Y012034D01*
X019881Y012034D01*
X019817Y012098D01*
X019631Y012098D01*
X019561Y012027D01*
X022210Y012027D01*
X022138Y012057D01*
X022025Y012170D01*
X021965Y012317D01*
X021965Y012428D01*
X021943Y012450D01*
X021965Y012367D02*
X021365Y012367D01*
X021365Y012358D02*
X020958Y012358D01*
X020958Y012054D01*
X021208Y012054D01*
X021254Y012066D01*
X021295Y012090D01*
X021329Y012123D01*
X021352Y012164D01*
X021365Y012210D01*
X021365Y012358D01*
X021364Y012209D02*
X022009Y012209D01*
X022154Y012050D02*
X020517Y012050D01*
X020958Y012209D02*
X020958Y012209D01*
X019864Y012050D02*
X019584Y012050D01*
X020499Y011416D02*
X020670Y011416D01*
X017593Y014586D02*
X017556Y014586D01*
X017556Y014745D02*
X017593Y014745D01*
X017198Y014745D02*
X017146Y014745D01*
X017071Y014586D02*
X017221Y014586D01*
X017951Y015062D02*
X018378Y015062D01*
X018407Y015220D02*
X017931Y015220D01*
X017971Y015379D02*
X018398Y015379D01*
X018398Y015537D02*
X017971Y015537D01*
X017971Y015696D02*
X018398Y015696D01*
X018414Y015854D02*
X017971Y015854D01*
X017934Y016013D02*
X024696Y016013D01*
X024696Y016171D02*
X017938Y016171D01*
X018096Y016330D02*
X024548Y016330D01*
X024389Y016488D02*
X018255Y016488D01*
X018756Y015854D02*
X018793Y015854D01*
X018793Y015696D02*
X018756Y015696D01*
X019151Y015696D02*
X019876Y015696D01*
X019764Y015537D02*
X019151Y015537D01*
X019151Y015379D02*
X019764Y015379D01*
X019378Y015220D02*
X019141Y015220D01*
X019171Y015062D02*
X019220Y015062D01*
X019134Y015854D02*
X021574Y015854D01*
X021493Y015696D02*
X021273Y015696D01*
X020644Y015696D02*
X020505Y015696D01*
X020958Y015025D02*
X021365Y015025D01*
X020958Y015025D01*
X020958Y015025D01*
X021365Y015062D02*
X024696Y015062D01*
X024696Y015220D02*
X022013Y015220D01*
X022228Y015379D02*
X024696Y015379D01*
X024696Y015537D02*
X022287Y015537D01*
X022280Y015696D02*
X024696Y015696D01*
X024696Y015854D02*
X022199Y015854D01*
X019540Y017281D02*
X016458Y017281D01*
X016458Y017439D02*
X019540Y017439D01*
X019540Y017598D02*
X016458Y017598D01*
X016402Y017756D02*
X017425Y017756D01*
X018081Y017756D02*
X019540Y017756D01*
D30*
X019702Y016867D02*
X018124Y016867D01*
X017574Y016317D01*
X017574Y015561D01*
X017535Y015600D02*
X016709Y015600D01*
X014387Y015601D02*
X013699Y015601D01*
X013352Y015600D01*
X012986Y015600D01*
X006724Y015442D02*
X006698Y015468D01*
X015500Y009191D02*
X015500Y008764D01*
X015500Y008276D01*
X015500Y006856D01*
X015198Y006554D01*
X015198Y005979D01*
X025056Y013984D02*
X025162Y013884D01*
X025056Y013984D02*
X025056Y014767D01*
X025056Y016331D01*
X024519Y016867D01*
X021924Y016867D01*
X019702Y016867D01*
D31*
X021663Y015377D02*
X021887Y015601D01*
X021663Y015377D02*
X020958Y015377D01*
X017574Y015561D02*
X017535Y015600D01*
X014387Y015601D02*
X014370Y015617D01*
X014359Y015617D01*
X008824Y015601D02*
X008824Y014913D01*
X008763Y014852D01*
X008398Y014852D01*
X007375Y014852D02*
X006886Y014852D01*
X006699Y015038D01*
X006699Y015417D01*
X006724Y015442D01*
X006750Y015468D01*
X008823Y015600D02*
X008824Y015601D01*
D32*
X006724Y015468D02*
X006724Y015442D01*
X006698Y015468D02*
X005874Y015468D01*
X005887Y015561D01*
X014359Y015617D02*
X014387Y015561D01*
X015474Y009217D02*
X015500Y009191D01*
D33*
X015474Y009217D03*
X016774Y012467D03*
X013699Y015601D03*
X006724Y015442D03*
M02*
