%FSLAX24Y24*%
%MOIN*%
G70*
G01*
G75*
G04 Layer_Color=65535*
%ADD10R,0.0280X0.0360*%
%ADD11R,0.0360X0.0280*%
%ADD12R,0.0400X0.0400*%
%ADD13O,0.0177X0.0827*%
%ADD14R,0.0827X0.0197*%
%ADD15C,0.0100*%
%ADD16C,0.0200*%
%ADD17C,0.0591*%
%ADD18R,0.0591X0.0591*%
%ADD19R,0.0591X0.0591*%
%ADD20C,0.0315*%
%ADD21O,0.1575X0.0650*%
%ADD22C,0.0700*%
%ADD23C,0.0500*%
G04:AMPARAMS|DCode=24|XSize=70.9mil|YSize=51.2mil|CornerRadius=6.4mil|HoleSize=0mil|Usage=FLASHONLY|Rotation=270.000|XOffset=0mil|YOffset=0mil|HoleType=Round|Shape=RoundedRectangle|*
%AMROUNDEDRECTD24*
21,1,0.0709,0.0384,0,0,270.0*
21,1,0.0581,0.0512,0,0,270.0*
1,1,0.0128,-0.0192,-0.0290*
1,1,0.0128,-0.0192,0.0290*
1,1,0.0128,0.0192,0.0290*
1,1,0.0128,0.0192,-0.0290*
%
%ADD24ROUNDEDRECTD24*%
%ADD25C,0.0236*%
%ADD26C,0.0098*%
%ADD27C,0.0010*%
%ADD28C,0.0079*%
G36*
X30410Y29318D02*
X30220D01*
Y29368D01*
X30410D01*
Y29318D01*
D02*
G37*
G36*
X25344Y29287D02*
X25484D01*
Y29217D01*
X25344D01*
Y29097D01*
X25294D01*
Y29407D01*
X25344D01*
Y29287D01*
D02*
G37*
G36*
X30472Y29889D02*
X30422D01*
Y30199D01*
X30472D01*
Y29889D01*
D02*
G37*
G36*
X30647Y30421D02*
X30377D01*
Y30471D01*
X30647D01*
Y30421D01*
D02*
G37*
G36*
X30612Y29889D02*
X30562D01*
Y30199D01*
X30612D01*
Y29889D01*
D02*
G37*
G36*
X25484Y27916D02*
X25434D01*
Y28226D01*
X25484D01*
Y27916D01*
D02*
G37*
G36*
X25344D02*
X25294D01*
Y28226D01*
X25344D01*
Y27916D01*
D02*
G37*
G36*
X25489Y28506D02*
X25299D01*
X25299Y28556D01*
X25489D01*
X25489Y28506D01*
D02*
G37*
G36*
X30410Y29058D02*
X30220D01*
X30220Y29108D01*
X30410D01*
X30410Y29058D01*
D02*
G37*
G36*
X25489Y28766D02*
X25299D01*
Y28816D01*
X25489D01*
Y28766D01*
D02*
G37*
G36*
X31617Y30955D02*
X31307D01*
Y31005D01*
X31617D01*
Y30955D01*
D02*
G37*
G36*
Y30815D02*
X31307D01*
Y30865D01*
X31617D01*
Y30815D01*
D02*
G37*
G36*
X24911Y31105D02*
X24861D01*
Y31415D01*
X24911D01*
Y31105D01*
D02*
G37*
G36*
X30647Y31261D02*
X30377D01*
Y31311D01*
X30647D01*
Y31261D01*
D02*
G37*
G36*
X25051Y31105D02*
X25001D01*
Y31415D01*
X25051D01*
Y31105D01*
D02*
G37*
G36*
Y30514D02*
X25001D01*
Y30824D01*
X25051D01*
Y30514D01*
D02*
G37*
G36*
X24911D02*
X24861D01*
Y30824D01*
X24911D01*
Y30514D01*
D02*
G37*
G36*
X30557Y30641D02*
X30467D01*
Y31091D01*
X30557D01*
Y30641D01*
D02*
G37*
G36*
X30647Y30891D02*
X30807D01*
Y30841D01*
X30647D01*
Y30771D01*
X30647Y30771D01*
X30602D01*
Y30961D01*
X30602Y30961D01*
X30647D01*
Y30891D01*
D02*
G37*
G36*
X30422Y30771D02*
X30422Y30771D01*
X30377D01*
Y30841D01*
X30217D01*
Y30891D01*
X30377D01*
Y30961D01*
X30377Y30961D01*
X30422D01*
Y30771D01*
D02*
G37*
D15*
X25990Y30933D02*
X25890Y31033D01*
X25691D01*
X25591Y30933D01*
Y30533D01*
X25691Y30433D01*
X25890D01*
X25990Y30533D01*
X26190Y30433D02*
X26390D01*
X26290D01*
Y31033D01*
X26190Y30933D01*
X25951Y31642D02*
X25851Y31742D01*
X25651D01*
X25551Y31642D01*
Y31242D01*
X25651Y31142D01*
X25851D01*
X25951Y31242D01*
X26551Y31142D02*
X26151D01*
X26551Y31542D01*
Y31642D01*
X26451Y31742D01*
X26251D01*
X26151Y31642D01*
X27480Y30364D02*
Y29864D01*
X27580Y29764D01*
X27780D01*
X27880Y29864D01*
Y30364D01*
X28080Y29764D02*
X28280D01*
X28180D01*
Y30364D01*
X28080Y30264D01*
X21811Y29941D02*
Y30541D01*
X22111D01*
X22211Y30441D01*
Y30241D01*
X22111Y30141D01*
X21811D01*
X22411Y29941D02*
X22611D01*
X22511D01*
Y30541D01*
X22411Y30441D01*
D25*
X29350Y30000D02*
G03*
X29350Y30000I-118J0D01*
G01*
D26*
X29656Y30965D02*
G03*
X29656Y30965I-49J0D01*
G01*
D27*
X25344Y29217D02*
X25484D01*
X25344Y29287D02*
X25484D01*
X25344Y29097D02*
Y29217D01*
Y29287D02*
Y29407D01*
X25294Y29097D02*
X25344D01*
X25294D02*
Y29407D01*
X25344D01*
X25484Y29217D02*
Y29287D01*
X25299Y28766D02*
Y28816D01*
Y28766D02*
X25489D01*
Y28816D01*
X25299D02*
X25489D01*
X25299Y28506D02*
X25489D01*
X25299D02*
X25299Y28556D01*
X25489D01*
X25489Y28506D01*
X25484Y27916D02*
Y28226D01*
X25434Y27916D02*
Y28226D01*
Y27916D02*
X25484D01*
X25294D02*
X25344D01*
Y28226D01*
X25294Y27916D02*
Y28226D01*
X25434D02*
X25484D01*
X25294D02*
X25344D01*
X31307Y31005D02*
X31617D01*
X31307Y30955D02*
X31617D01*
Y31005D01*
Y30815D02*
Y30865D01*
X31307D02*
X31617D01*
X31307Y30815D02*
X31617D01*
X31307Y30955D02*
Y31005D01*
Y30815D02*
Y30865D01*
X30220Y29318D02*
Y29368D01*
Y29318D02*
X30410D01*
Y29368D01*
X30220D02*
X30410D01*
X30220Y29058D02*
X30410D01*
X30220D02*
X30220Y29108D01*
X30410D01*
X30410Y29058D01*
X30422Y29889D02*
Y30199D01*
X30472Y29889D02*
Y30199D01*
X30422D02*
X30472D01*
X30562D02*
X30612D01*
X30562Y29889D02*
Y30199D01*
X30612Y29889D02*
Y30199D01*
X30422Y29889D02*
X30472D01*
X30562D02*
X30612D01*
X30377Y31261D02*
X30647D01*
X30377Y31311D02*
X30647D01*
X30377Y31261D02*
Y31311D01*
X30647Y31261D02*
Y31311D01*
X30377Y30421D02*
Y30471D01*
X30647Y30421D02*
Y30471D01*
X30217Y30841D02*
Y30891D01*
Y30841D02*
X30377D01*
X30422Y30771D02*
Y30961D01*
X30217Y30891D02*
X30377D01*
Y30961D01*
X30647Y30771D02*
Y30841D01*
X30467Y30641D02*
Y31091D01*
X30377Y30421D02*
X30647D01*
X30377Y30471D02*
X30647D01*
Y30841D02*
X30807D01*
X30602Y30771D02*
Y30961D01*
X30647Y30891D02*
X30807D01*
Y30841D02*
Y30891D01*
X30647D02*
Y30961D01*
X30467Y31091D02*
X30557D01*
Y30641D02*
Y31091D01*
X30467Y30641D02*
X30557D01*
X30377Y30771D02*
Y30841D01*
Y30771D02*
X30422Y30771D01*
X30377Y30961D02*
X30422Y30961D01*
X30602Y30961D02*
X30647Y30961D01*
X30602Y30771D02*
X30647Y30771D01*
X24861Y30514D02*
Y30824D01*
X24911Y30514D02*
Y30824D01*
X24861D02*
X24911D01*
X25001D02*
X25051D01*
X25001Y30514D02*
Y30824D01*
X25051Y30514D02*
Y30824D01*
X24861Y30514D02*
X24911D01*
X25001D02*
X25051D01*
X24861Y31105D02*
Y31415D01*
X24911Y31105D02*
Y31415D01*
X24861D02*
X24911D01*
X25001D02*
X25051D01*
X25001Y31105D02*
Y31415D01*
X25051Y31105D02*
Y31415D01*
X24861Y31105D02*
X24911D01*
X25001D02*
X25051D01*
D28*
X24193Y31823D02*
Y32717D01*
X32193Y31823D02*
Y32717D01*
X24193Y31823D02*
X32193D01*
X26673Y28819D02*
Y30394D01*
X29626Y28819D02*
Y30394D01*
X26673Y28819D02*
X29626D01*
X26673Y30394D02*
X29626D01*
M02*
