%FSLAX24Y24*%
%MOIN*%
G70*
G01*
G75*
G04 Layer_Color=16711935*
%ADD10R,0.0280X0.0360*%
%ADD11R,0.0360X0.0280*%
%ADD12R,0.0400X0.0400*%
%ADD13O,0.0177X0.0827*%
%ADD14R,0.0827X0.0197*%
%ADD15C,0.0100*%
%ADD16C,0.0200*%
%ADD17C,0.0591*%
%ADD18R,0.0591X0.0591*%
%ADD19R,0.0591X0.0591*%
%ADD20C,0.0315*%
%ADD21O,0.1575X0.0650*%
%ADD22C,0.0700*%
%ADD23C,0.0500*%
G04:AMPARAMS|DCode=24|XSize=70.9mil|YSize=51.2mil|CornerRadius=6.4mil|HoleSize=0mil|Usage=FLASHONLY|Rotation=270.000|XOffset=0mil|YOffset=0mil|HoleType=Round|Shape=RoundedRectangle|*
%AMROUNDEDRECTD24*
21,1,0.0709,0.0384,0,0,270.0*
21,1,0.0581,0.0512,0,0,270.0*
1,1,0.0128,-0.0192,-0.0290*
1,1,0.0128,-0.0192,0.0290*
1,1,0.0128,0.0192,0.0290*
1,1,0.0128,0.0192,-0.0290*
%
%ADD24ROUNDEDRECTD24*%
%ADD25C,0.0236*%
%ADD26C,0.0098*%
%ADD27C,0.0010*%
%ADD28C,0.0079*%
%ADD29R,0.0360X0.0440*%
%ADD30R,0.0440X0.0360*%
%ADD31R,0.0480X0.0480*%
%ADD32O,0.0257X0.0907*%
%ADD33R,0.0907X0.0277*%
%ADD34C,0.0671*%
%ADD35R,0.0671X0.0671*%
%ADD36R,0.0671X0.0671*%
%ADD37C,0.0395*%
%ADD38O,0.1655X0.0730*%
%ADD39C,0.0780*%
%ADD40C,0.0580*%
G04:AMPARAMS|DCode=41|XSize=78.9mil|YSize=59.2mil|CornerRadius=10.4mil|HoleSize=0mil|Usage=FLASHONLY|Rotation=270.000|XOffset=0mil|YOffset=0mil|HoleType=Round|Shape=RoundedRectangle|*
%AMROUNDEDRECTD41*
21,1,0.0789,0.0384,0,0,270.0*
21,1,0.0581,0.0592,0,0,270.0*
1,1,0.0208,-0.0192,-0.0290*
1,1,0.0208,-0.0192,0.0290*
1,1,0.0208,0.0192,0.0290*
1,1,0.0208,0.0192,-0.0290*
%
%ADD41ROUNDEDRECTD41*%
%ADD42C,0.0050*%
%ADD43C,0.0059*%
D43*
X33720Y29567D02*
G03*
X33563Y29724I-157J0D01*
G01*
Y30709D02*
G03*
X33720Y30866I0J157D01*
G01*
X32047Y28799D02*
G03*
X32205Y28642I157J0D01*
G01*
X32205Y29724D02*
G03*
X32047Y29567I0J-157D01*
G01*
X32205Y31791D02*
G03*
X32047Y31634I0J-157D01*
G01*
X32047Y30866D02*
G03*
X32205Y30709I157J0D01*
G01*
X33720Y27756D02*
X34882D01*
Y32677D01*
X33720D02*
X34882D01*
X33720Y27756D02*
Y29567D01*
Y30866D02*
Y32677D01*
X32047Y28799D02*
Y29567D01*
X32205Y31791D02*
X33327D01*
X32047Y30866D02*
Y31634D01*
X32205Y30709D02*
X33563D01*
X32205Y29724D02*
X33563Y29724D01*
X21516Y33031D02*
X33327D01*
X21516Y27283D02*
Y33031D01*
X32205Y28642D02*
X33327D01*
Y27283D02*
Y28642D01*
Y31791D02*
Y33031D01*
X21516Y27283D02*
X33327D01*
M02*
