%FSLAX24Y24*%
%MOIN*%
G70*
G01*
G75*
G04 Layer_Color=32896*
%ADD10R,0.0280X0.0360*%
%ADD11R,0.0360X0.0280*%
%ADD12R,0.0400X0.0400*%
%ADD13O,0.0177X0.0827*%
%ADD14R,0.0827X0.0197*%
%ADD15C,0.0100*%
%ADD16C,0.0200*%
%ADD17C,0.0591*%
%ADD18R,0.0591X0.0591*%
%ADD19R,0.0591X0.0591*%
%ADD20C,0.0315*%
%ADD21O,0.1575X0.0650*%
%ADD22C,0.0700*%
%ADD23C,0.0500*%
G04:AMPARAMS|DCode=24|XSize=70.9mil|YSize=51.2mil|CornerRadius=6.4mil|HoleSize=0mil|Usage=FLASHONLY|Rotation=270.000|XOffset=0mil|YOffset=0mil|HoleType=Round|Shape=RoundedRectangle|*
%AMROUNDEDRECTD24*
21,1,0.0709,0.0384,0,0,270.0*
21,1,0.0581,0.0512,0,0,270.0*
1,1,0.0128,-0.0192,-0.0290*
1,1,0.0128,-0.0192,0.0290*
1,1,0.0128,0.0192,0.0290*
1,1,0.0128,0.0192,-0.0290*
%
%ADD24ROUNDEDRECTD24*%
%ADD25C,0.0236*%
%ADD26C,0.0098*%
%ADD27C,0.0010*%
%ADD28C,0.0079*%
%ADD29R,0.0360X0.0440*%
%ADD30R,0.0440X0.0360*%
%ADD31R,0.0480X0.0480*%
%ADD32O,0.0257X0.0907*%
%ADD33R,0.0907X0.0277*%
%ADD34C,0.0671*%
%ADD35R,0.0671X0.0671*%
%ADD36R,0.0671X0.0671*%
%ADD37C,0.0395*%
%ADD38O,0.1655X0.0730*%
%ADD39C,0.0780*%
%ADD40C,0.0580*%
G04:AMPARAMS|DCode=41|XSize=78.9mil|YSize=59.2mil|CornerRadius=10.4mil|HoleSize=0mil|Usage=FLASHONLY|Rotation=270.000|XOffset=0mil|YOffset=0mil|HoleType=Round|Shape=RoundedRectangle|*
%AMROUNDEDRECTD41*
21,1,0.0789,0.0384,0,0,270.0*
21,1,0.0581,0.0592,0,0,270.0*
1,1,0.0208,-0.0192,-0.0290*
1,1,0.0208,-0.0192,0.0290*
1,1,0.0208,0.0192,0.0290*
1,1,0.0208,0.0192,-0.0290*
%
%ADD41ROUNDEDRECTD41*%
%ADD42C,0.0050*%
D15*
X25866Y29694D02*
Y29094D01*
X25566D01*
X25466Y29194D01*
Y29594D01*
X25566Y29694D01*
X25866D01*
X25266Y29094D02*
X25066D01*
X25166D01*
Y29694D01*
X25266Y29594D01*
X25906Y28386D02*
Y28986D01*
X25606D01*
X25506Y28886D01*
Y28686D01*
X25606Y28586D01*
X25906D01*
X25706D02*
X25506Y28386D01*
X24906D02*
X25306D01*
X24906Y28786D01*
Y28886D01*
X25006Y28986D01*
X25206D01*
X25306Y28886D01*
X25466Y28177D02*
X25566Y28277D01*
X25766D01*
X25866Y28177D01*
Y27777D01*
X25766Y27677D01*
X25566D01*
X25466Y27777D01*
X24866Y28277D02*
X25266D01*
Y27977D01*
X25066Y28077D01*
X24966D01*
X24866Y27977D01*
Y27777D01*
X24966Y27677D01*
X25166D01*
X25266Y27777D01*
X31311Y31096D02*
X31211Y31196D01*
Y31396D01*
X31311Y31496D01*
X31711D01*
X31811Y31396D01*
Y31196D01*
X31711Y31096D01*
X31811Y30596D02*
X31211D01*
X31511Y30896D01*
Y30496D01*
X30669Y28937D02*
Y29537D01*
X30369D01*
X30269Y29437D01*
Y29237D01*
X30369Y29137D01*
X30669D01*
X30469D02*
X30269Y28937D01*
X30069D02*
X29870D01*
X29970D01*
Y29537D01*
X30069Y29437D01*
X30584Y30224D02*
X30684Y30324D01*
X30884D01*
X30984Y30224D01*
Y29824D01*
X30884Y29724D01*
X30684D01*
X30584Y29824D01*
X30384Y30224D02*
X30284Y30324D01*
X30085D01*
X29985Y30224D01*
Y30124D01*
X30085Y30024D01*
X30185D01*
X30085D01*
X29985Y29924D01*
Y29824D01*
X30085Y29724D01*
X30284D01*
X30384Y29824D01*
X31024Y31151D02*
X30624Y30551D01*
Y31151D02*
X31024Y30551D01*
X30424Y31151D02*
X30024D01*
X30224D01*
Y30551D01*
X29824D02*
X29624D01*
X29724D01*
Y31151D01*
X29824Y31051D01*
X23813Y31348D02*
X24213D01*
Y31048D01*
X24013D01*
X24213D01*
Y30748D01*
X23613D02*
X23413D01*
X23513D01*
Y31348D01*
X23613Y31248D01*
D42*
X25243Y30752D02*
X25623D01*
X25233Y31452D02*
X25633D01*
M02*
