%FSLAX24Y24*%
%MOIN*%
G70*
G01*
G75*
G04 Layer_Physical_Order=2*
G04 Layer_Color=16711680*
%ADD10R,0.0280X0.0360*%
%ADD11R,0.0360X0.0280*%
%ADD12R,0.0400X0.0400*%
%ADD13O,0.0177X0.0827*%
%ADD14R,0.0827X0.0197*%
%ADD15C,0.0100*%
%ADD16C,0.0200*%
%ADD17C,0.0591*%
%ADD18R,0.0591X0.0591*%
%ADD19R,0.0591X0.0591*%
%ADD20C,0.0315*%
%ADD21O,0.1575X0.0650*%
%ADD22C,0.0700*%
%ADD23C,0.0500*%
G04:AMPARAMS|DCode=24|XSize=70.9mil|YSize=51.2mil|CornerRadius=6.4mil|HoleSize=0mil|Usage=FLASHONLY|Rotation=270.000|XOffset=0mil|YOffset=0mil|HoleType=Round|Shape=RoundedRectangle|*
%AMROUNDEDRECTD24*
21,1,0.0709,0.0384,0,0,270.0*
21,1,0.0581,0.0512,0,0,270.0*
1,1,0.0128,-0.0192,-0.0290*
1,1,0.0128,-0.0192,0.0290*
1,1,0.0128,0.0192,0.0290*
1,1,0.0128,0.0192,-0.0290*
%
%ADD24ROUNDEDRECTD24*%
G36*
X33246Y31872D02*
X32205D01*
Y31876D01*
X32112Y31857D01*
X32034Y31805D01*
X31981Y31726D01*
X31963Y31634D01*
X31966D01*
Y30866D01*
X31963D01*
X31981Y30774D01*
X32034Y30695D01*
X32112Y30643D01*
X32205Y30624D01*
Y30628D01*
X32205Y30628D01*
X33563D01*
Y30624D01*
X33655Y30643D01*
X33734Y30695D01*
X33786Y30774D01*
X33805Y30866D01*
X33802D01*
Y32596D01*
X34064D01*
Y32550D01*
X34064D01*
Y31859D01*
X34755D01*
Y31859D01*
X34765D01*
X34801Y31824D01*
Y31260D01*
X34751Y31256D01*
X34746Y31295D01*
X34711Y31379D01*
X34656Y31451D01*
X34584Y31506D01*
X34500Y31541D01*
X34409Y31553D01*
X34319Y31541D01*
X34235Y31506D01*
X34163Y31451D01*
X34108Y31379D01*
X34073Y31295D01*
X34061Y31205D01*
X34073Y31115D01*
X34108Y31031D01*
X34163Y30958D01*
X34235Y30903D01*
X34319Y30868D01*
X34409Y30856D01*
X34500Y30868D01*
X34584Y30903D01*
X34656Y30958D01*
X34711Y31031D01*
X34746Y31115D01*
X34751Y31153D01*
X34801Y31150D01*
Y30260D01*
X34751Y30256D01*
X34746Y30295D01*
X34711Y30379D01*
X34656Y30451D01*
X34584Y30506D01*
X34500Y30541D01*
X34459Y30546D01*
Y30205D01*
Y29863D01*
X34500Y29868D01*
X34584Y29903D01*
X34656Y29958D01*
X34711Y30031D01*
X34746Y30115D01*
X34751Y30153D01*
X34801Y30150D01*
Y29260D01*
X34751Y29256D01*
X34746Y29295D01*
X34711Y29379D01*
X34656Y29451D01*
X34584Y29506D01*
X34500Y29541D01*
X34409Y29553D01*
X34319Y29541D01*
X34247Y29511D01*
X34209Y29550D01*
Y29792D01*
X34201Y29831D01*
X34179Y29864D01*
X33860Y30183D01*
X33827Y30205D01*
X33788Y30213D01*
X31980D01*
X31941Y30205D01*
X31907Y30183D01*
X31717Y29992D01*
X31672Y30014D01*
X31674Y30029D01*
X31428D01*
Y29783D01*
X31456Y29786D01*
X31456Y29786D01*
X31456Y29786D01*
X31523Y29790D01*
X31559Y29756D01*
Y29432D01*
X31512Y29416D01*
X31474Y29466D01*
X31411Y29514D01*
X31338Y29544D01*
X31260Y29555D01*
X31181Y29544D01*
X31108Y29514D01*
X31046Y29466D01*
X30998Y29403D01*
X30968Y29330D01*
X30957Y29252D01*
X30968Y29174D01*
X30998Y29101D01*
X31003Y29093D01*
X30325Y28415D01*
X30292Y28366D01*
X30280Y28307D01*
Y28095D01*
X30154Y27968D01*
X30116Y28001D01*
X30144Y28038D01*
X30174Y28111D01*
X30178Y28139D01*
X29932D01*
Y27893D01*
X29960Y27897D01*
X30033Y27927D01*
X30070Y27955D01*
X30103Y27917D01*
X29959Y27774D01*
X24568D01*
X24151Y28191D01*
X24161Y28268D01*
X24151Y28344D01*
X24714Y28908D01*
X24748Y28957D01*
X24759Y29016D01*
X24759Y29016D01*
X24759Y29016D01*
Y29016D01*
Y29700D01*
X24820Y29747D01*
X24868Y29809D01*
X24899Y29882D01*
X24909Y29961D01*
X24899Y30039D01*
X24868Y30112D01*
X24820Y30175D01*
X24758Y30223D01*
X24685Y30253D01*
X24606Y30263D01*
X24528Y30253D01*
X24455Y30223D01*
X24392Y30175D01*
X24344Y30112D01*
X24314Y30039D01*
X24304Y29961D01*
X24314Y29882D01*
X24344Y29809D01*
X24392Y29747D01*
X24453Y29700D01*
Y29079D01*
X23934Y28560D01*
X23858Y28570D01*
X23780Y28560D01*
X23707Y28530D01*
X23644Y28482D01*
X23596Y28419D01*
X23566Y28346D01*
X23556Y28268D01*
X23566Y28189D01*
X23596Y28116D01*
X23644Y28054D01*
X23707Y28006D01*
X23780Y27975D01*
X23858Y27965D01*
X23934Y27975D01*
X24397Y27513D01*
X24446Y27480D01*
X24456Y27478D01*
X24505Y27468D01*
X30022D01*
X30081Y27480D01*
X30131Y27513D01*
X30131Y27513D01*
X30131Y27513D01*
X30541Y27923D01*
X30574Y27973D01*
X30586Y28031D01*
X30586Y28031D01*
X30586Y28031D01*
Y28031D01*
Y28244D01*
X31296Y28954D01*
X31338Y28960D01*
X31411Y28990D01*
X31474Y29038D01*
X31512Y29088D01*
X31559Y29071D01*
Y28751D01*
X31151Y28343D01*
X31102Y28363D01*
X31024Y28373D01*
X30945Y28363D01*
X30872Y28333D01*
X30810Y28285D01*
X30762Y28222D01*
X30731Y28149D01*
X30721Y28071D01*
X30731Y27993D01*
X30762Y27920D01*
X30810Y27857D01*
X30872Y27809D01*
X30945Y27779D01*
X31024Y27768D01*
X31102Y27779D01*
X31175Y27809D01*
X31238Y27857D01*
X31286Y27920D01*
X31316Y27993D01*
X31326Y28071D01*
X31316Y28149D01*
X31295Y28199D01*
X31713Y28616D01*
X31759Y28597D01*
Y28358D01*
X31699Y28333D01*
X31636Y28285D01*
X31588Y28222D01*
X31558Y28149D01*
X31548Y28071D01*
X31558Y27993D01*
X31588Y27920D01*
X31636Y27857D01*
X31699Y27809D01*
X31772Y27779D01*
X31850Y27768D01*
X31929Y27779D01*
X32002Y27809D01*
X32064Y27857D01*
X32112Y27920D01*
X32143Y27993D01*
X32153Y28071D01*
X32143Y28149D01*
X32112Y28222D01*
X32064Y28285D01*
X32002Y28333D01*
X31963Y28349D01*
Y28648D01*
X32011Y28663D01*
X32034Y28628D01*
X32112Y28576D01*
X32205Y28558D01*
Y28561D01*
X32205Y28561D01*
X33246D01*
Y27365D01*
X21597D01*
Y32950D01*
X33246D01*
Y31872D01*
D02*
G37*
%LPC*%
G36*
X31328Y30029D02*
X31082D01*
X31086Y30000D01*
X31116Y29927D01*
X31164Y29865D01*
X31227Y29817D01*
X31300Y29786D01*
X31328Y29783D01*
Y30029D01*
D02*
G37*
G36*
X25690Y29911D02*
X25444D01*
Y29665D01*
X25472Y29668D01*
X25545Y29699D01*
X25608Y29747D01*
X25656Y29809D01*
X25686Y29882D01*
X25690Y29911D01*
D02*
G37*
G36*
X28693Y32710D02*
X28603Y32699D01*
X28519Y32664D01*
X28447Y32608D01*
X28391Y32536D01*
X28357Y32452D01*
X28345Y32362D01*
X28357Y32272D01*
X28391Y32188D01*
X28447Y32116D01*
X28518Y32061D01*
X28521Y32012D01*
X28304Y31795D01*
X27205D01*
X27166Y31787D01*
X27133Y31765D01*
X26542Y31174D01*
X26520Y31141D01*
X26512Y31102D01*
Y30401D01*
X26463Y30380D01*
X26400Y30332D01*
X26352Y30269D01*
X26322Y30196D01*
X26312Y30118D01*
X26322Y30040D01*
X26352Y29967D01*
X26400Y29904D01*
X26463Y29856D01*
X26536Y29826D01*
X26614Y29816D01*
X26692Y29826D01*
X26765Y29856D01*
X26828Y29904D01*
X26876Y29967D01*
X26906Y30040D01*
X26917Y30118D01*
X26906Y30196D01*
X26876Y30269D01*
X26828Y30332D01*
X26765Y30380D01*
X26716Y30401D01*
Y31060D01*
X27247Y31591D01*
X28346D01*
X28385Y31599D01*
X28419Y31621D01*
X28765Y31967D01*
X28787Y32000D01*
X28793Y32030D01*
X28867Y32061D01*
X28939Y32116D01*
X28995Y32188D01*
X29029Y32272D01*
X29041Y32362D01*
X29029Y32452D01*
X28995Y32536D01*
X28939Y32608D01*
X28867Y32664D01*
X28783Y32699D01*
X28693Y32710D01*
D02*
G37*
G36*
X26312Y31052D02*
X25696D01*
Y30812D01*
X25705Y30768D01*
X25730Y30730D01*
X25756Y30712D01*
X25761Y30662D01*
X25357Y30258D01*
X25394Y30263D01*
X25444Y30257D01*
Y30011D01*
X25690D01*
X25686Y30039D01*
X25656Y30112D01*
X25650Y30119D01*
X26112Y30581D01*
X26145Y30630D01*
X26157Y30689D01*
X26157Y30689D01*
X26157Y30689D01*
Y30689D01*
Y30696D01*
X26196D01*
X26240Y30705D01*
X26278Y30730D01*
X26303Y30768D01*
X26312Y30812D01*
Y31052D01*
D02*
G37*
G36*
X25344Y30257D02*
X25315Y30253D01*
X25242Y30223D01*
X25180Y30175D01*
X25132Y30112D01*
X25101Y30039D01*
X25098Y30011D01*
X25344D01*
Y30257D01*
D02*
G37*
G36*
X34359Y30155D02*
X34068D01*
X34073Y30115D01*
X34108Y30031D01*
X34163Y29958D01*
X34235Y29903D01*
X34319Y29868D01*
X34359Y29863D01*
Y30155D01*
D02*
G37*
G36*
X29832Y28485D02*
X29804Y28481D01*
X29731Y28451D01*
X29668Y28403D01*
X29620Y28340D01*
X29590Y28267D01*
X29586Y28239D01*
X29832D01*
Y28485D01*
D02*
G37*
G36*
Y28139D02*
X29586D01*
X29590Y28111D01*
X29620Y28038D01*
X29668Y27975D01*
X29731Y27927D01*
X29804Y27897D01*
X29832Y27893D01*
Y28139D01*
D02*
G37*
G36*
X32539Y28452D02*
X32461Y28442D01*
X32388Y28412D01*
X32325Y28364D01*
X32277Y28301D01*
X32247Y28228D01*
X32237Y28150D01*
X32247Y28071D01*
X32277Y27998D01*
X32325Y27936D01*
X32388Y27888D01*
X32461Y27857D01*
X32539Y27847D01*
X32618Y27857D01*
X32691Y27888D01*
X32753Y27936D01*
X32801Y27998D01*
X32832Y28071D01*
X32842Y28150D01*
X32832Y28228D01*
X32801Y28301D01*
X32753Y28364D01*
X32691Y28412D01*
X32618Y28442D01*
X32539Y28452D01*
D02*
G37*
G36*
X29932Y28485D02*
Y28239D01*
X30178D01*
X30174Y28267D01*
X30144Y28340D01*
X30096Y28403D01*
X30033Y28451D01*
X29960Y28481D01*
X29932Y28485D01*
D02*
G37*
G36*
X25344Y29911D02*
X25098D01*
X25101Y29882D01*
X25132Y29809D01*
X25180Y29747D01*
X25242Y29699D01*
X25315Y29668D01*
X25344Y29665D01*
Y29911D01*
D02*
G37*
G36*
X22598Y29600D02*
X22529Y29590D01*
X22464Y29564D01*
X22408Y29521D01*
X22366Y29465D01*
X22339Y29400D01*
X22285Y29407D01*
X22270Y29443D01*
X22222Y29505D01*
X22159Y29553D01*
X22086Y29584D01*
X22008Y29594D01*
X21930Y29584D01*
X21857Y29553D01*
X21794Y29505D01*
X21746Y29443D01*
X21716Y29370D01*
X21705Y29291D01*
X21716Y29213D01*
X21746Y29140D01*
X21794Y29077D01*
X21857Y29029D01*
X21906Y29009D01*
Y28363D01*
X21914Y28324D01*
X21926Y28306D01*
X21924Y28302D01*
X21841Y28238D01*
X21777Y28154D01*
X21736Y28057D01*
X21723Y27953D01*
X21736Y27848D01*
X21777Y27751D01*
X21841Y27667D01*
X21924Y27603D01*
X22022Y27563D01*
X22126Y27549D01*
X22230Y27563D01*
X22306Y27594D01*
X22418D01*
X22494Y27563D01*
X22598Y27549D01*
X22703Y27563D01*
X22779Y27594D01*
X22891D01*
X22966Y27563D01*
X23071Y27549D01*
X23175Y27563D01*
X23273Y27603D01*
X23356Y27667D01*
X23420Y27751D01*
X23461Y27848D01*
X23474Y27953D01*
X23461Y28057D01*
X23420Y28154D01*
X23356Y28238D01*
X23273Y28302D01*
X23175Y28342D01*
X23071Y28356D01*
X23027Y28350D01*
X22642D01*
X22598Y28356D01*
X22555Y28350D01*
X22170D01*
X22164Y28351D01*
X22110Y28405D01*
Y29009D01*
X22159Y29029D01*
X22222Y29077D01*
X22270Y29140D01*
X22300Y29213D01*
X22302Y29224D01*
X22351Y29231D01*
X22366Y29196D01*
X22408Y29141D01*
X22464Y29098D01*
X22529Y29071D01*
X22598Y29062D01*
X22668Y29071D01*
X22733Y29098D01*
X22789Y29141D01*
X22831Y29196D01*
X22858Y29261D01*
X22867Y29331D01*
X22858Y29400D01*
X22831Y29465D01*
X22789Y29521D01*
X22733Y29564D01*
X22668Y29590D01*
X22598Y29600D01*
D02*
G37*
G36*
X29055Y29791D02*
X28977Y29780D01*
X28904Y29750D01*
X28841Y29702D01*
X28793Y29639D01*
X28763Y29567D01*
X28753Y29488D01*
X28763Y29410D01*
X28783Y29361D01*
X28462Y29039D01*
X27008D01*
X26969Y29031D01*
X26936Y29009D01*
X26545Y28618D01*
X26496Y28639D01*
X26417Y28649D01*
X26339Y28639D01*
X26266Y28609D01*
X26203Y28560D01*
X26155Y28498D01*
X26125Y28425D01*
X26115Y28346D01*
X26125Y28268D01*
X26155Y28195D01*
X26203Y28132D01*
X26266Y28084D01*
X26339Y28054D01*
X26417Y28044D01*
X26496Y28054D01*
X26569Y28084D01*
X26631Y28132D01*
X26679Y28195D01*
X26710Y28268D01*
X26720Y28346D01*
X26710Y28425D01*
X26689Y28474D01*
X27050Y28835D01*
X28504D01*
X28543Y28843D01*
X28576Y28865D01*
X28927Y29216D01*
X28977Y29196D01*
X29055Y29186D01*
X29133Y29196D01*
X29206Y29226D01*
X29269Y29274D01*
X29317Y29337D01*
X29347Y29410D01*
X29358Y29488D01*
X29347Y29567D01*
X29317Y29639D01*
X29269Y29702D01*
X29206Y29750D01*
X29133Y29780D01*
X29055Y29791D01*
D02*
G37*
G36*
X31328Y30375D02*
X31300Y30371D01*
X31227Y30341D01*
X31164Y30293D01*
X31116Y30230D01*
X31086Y30157D01*
X31082Y30129D01*
X31328D01*
Y30375D01*
D02*
G37*
G36*
X26693Y32710D02*
X26603Y32699D01*
X26519Y32664D01*
X26447Y32608D01*
X26391Y32536D01*
X26357Y32452D01*
X26345Y32362D01*
X26357Y32272D01*
X26391Y32188D01*
X26447Y32116D01*
X26519Y32061D01*
X26603Y32026D01*
X26693Y32014D01*
X26783Y32026D01*
X26867Y32061D01*
X26939Y32116D01*
X26995Y32188D01*
X27029Y32272D01*
X27041Y32362D01*
X27029Y32452D01*
X26995Y32536D01*
X26939Y32608D01*
X26867Y32664D01*
X26783Y32699D01*
X26693Y32710D01*
D02*
G37*
G36*
X25693D02*
X25603Y32699D01*
X25519Y32664D01*
X25447Y32608D01*
X25391Y32536D01*
X25357Y32452D01*
X25345Y32362D01*
X25357Y32272D01*
X25391Y32188D01*
X25447Y32116D01*
X25519Y32061D01*
X25603Y32026D01*
X25693Y32014D01*
X25783Y32026D01*
X25867Y32061D01*
X25939Y32116D01*
X25995Y32188D01*
X26029Y32272D01*
X26041Y32362D01*
X26029Y32452D01*
X25995Y32536D01*
X25939Y32608D01*
X25867Y32664D01*
X25783Y32699D01*
X25693Y32710D01*
D02*
G37*
G36*
X24693D02*
X24603Y32699D01*
X24519Y32664D01*
X24447Y32608D01*
X24391Y32536D01*
X24357Y32452D01*
X24345Y32362D01*
X24357Y32272D01*
X24391Y32188D01*
X24447Y32116D01*
X24519Y32061D01*
X24603Y32026D01*
X24693Y32014D01*
X24783Y32026D01*
X24867Y32061D01*
X24939Y32116D01*
X24995Y32188D01*
X25029Y32272D01*
X25041Y32362D01*
X25029Y32452D01*
X24995Y32536D01*
X24939Y32608D01*
X24867Y32664D01*
X24783Y32699D01*
X24693Y32710D01*
D02*
G37*
G36*
X22598Y32864D02*
X22494Y32850D01*
X22466Y32839D01*
X22259D01*
X22230Y32850D01*
X22126Y32864D01*
X22022Y32850D01*
X21924Y32810D01*
X21841Y32746D01*
X21777Y32662D01*
X21736Y32565D01*
X21723Y32461D01*
X21736Y32356D01*
X21777Y32259D01*
X21841Y32175D01*
X21924Y32111D01*
X22010Y32076D01*
X22020Y32027D01*
X21936Y31942D01*
X21914Y31909D01*
X21906Y31870D01*
Y31464D01*
X21857Y31443D01*
X21794Y31395D01*
X21746Y31332D01*
X21716Y31259D01*
X21705Y31181D01*
X21716Y31103D01*
X21746Y31030D01*
X21794Y30967D01*
X21857Y30919D01*
X21930Y30889D01*
X22008Y30879D01*
X22086Y30889D01*
X22159Y30919D01*
X22222Y30967D01*
X22270Y31030D01*
X22285Y31067D01*
X22335Y31061D01*
X22339Y31033D01*
X22366Y30968D01*
X22408Y30912D01*
X22464Y30870D01*
X22529Y30843D01*
X22598Y30834D01*
X22668Y30843D01*
X22733Y30870D01*
X22789Y30912D01*
X22831Y30968D01*
X22858Y31033D01*
X22867Y31102D01*
X22858Y31172D01*
X22831Y31237D01*
X22789Y31292D01*
X22733Y31335D01*
X22668Y31362D01*
X22598Y31371D01*
X22529Y31362D01*
X22464Y31335D01*
X22408Y31292D01*
X22366Y31237D01*
X22355Y31212D01*
X22306Y31218D01*
X22300Y31259D01*
X22270Y31332D01*
X22222Y31395D01*
X22159Y31443D01*
X22110Y31464D01*
Y31828D01*
X22365Y32083D01*
X22466D01*
X22494Y32071D01*
X22598Y32057D01*
X22703Y32071D01*
X22731Y32083D01*
X22938D01*
X22966Y32071D01*
X23071Y32057D01*
X23175Y32071D01*
X23273Y32111D01*
X23356Y32175D01*
X23420Y32259D01*
X23461Y32356D01*
X23474Y32461D01*
X23461Y32565D01*
X23420Y32662D01*
X23356Y32746D01*
X23273Y32810D01*
X23175Y32850D01*
X23071Y32864D01*
X22966Y32850D01*
X22938Y32839D01*
X22731D01*
X22703Y32850D01*
X22598Y32864D01*
D02*
G37*
G36*
X29693Y32710D02*
X29603Y32699D01*
X29519Y32664D01*
X29447Y32608D01*
X29391Y32536D01*
X29357Y32452D01*
X29345Y32362D01*
X29357Y32272D01*
X29391Y32188D01*
X29401Y32175D01*
X26995Y29769D01*
X26968Y29780D01*
X26890Y29791D01*
X26811Y29780D01*
X26738Y29750D01*
X26676Y29702D01*
X26628Y29639D01*
X26597Y29567D01*
X26587Y29488D01*
X26597Y29410D01*
X26628Y29337D01*
X26676Y29274D01*
X26738Y29226D01*
X26811Y29196D01*
X26890Y29186D01*
X26968Y29196D01*
X27041Y29226D01*
X27104Y29274D01*
X27152Y29337D01*
X27182Y29410D01*
X27192Y29488D01*
X27182Y29567D01*
X27152Y29638D01*
X29558Y32044D01*
X29603Y32026D01*
X29693Y32014D01*
X29783Y32026D01*
X29867Y32061D01*
X29939Y32116D01*
X29995Y32188D01*
X30029Y32272D01*
X30041Y32362D01*
X30029Y32452D01*
X29995Y32536D01*
X29939Y32608D01*
X29867Y32664D01*
X29783Y32699D01*
X29693Y32710D01*
D02*
G37*
G36*
X27693D02*
X27603Y32699D01*
X27519Y32664D01*
X27447Y32608D01*
X27391Y32536D01*
X27357Y32452D01*
X27345Y32362D01*
X27357Y32272D01*
X27391Y32188D01*
X27447Y32116D01*
X27519Y32061D01*
X27603Y32026D01*
X27693Y32014D01*
X27783Y32026D01*
X27867Y32061D01*
X27939Y32116D01*
X27995Y32188D01*
X28029Y32272D01*
X28041Y32362D01*
X28029Y32452D01*
X27995Y32536D01*
X27939Y32608D01*
X27867Y32664D01*
X27783Y32699D01*
X27693Y32710D01*
D02*
G37*
G36*
X32539Y32586D02*
X32461Y32576D01*
X32388Y32546D01*
X32325Y32497D01*
X32277Y32435D01*
X32247Y32362D01*
X32237Y32283D01*
X32247Y32205D01*
X32277Y32132D01*
X32325Y32069D01*
X32388Y32021D01*
X32461Y31991D01*
X32539Y31981D01*
X32618Y31991D01*
X32691Y32021D01*
X32753Y32069D01*
X32801Y32132D01*
X32832Y32205D01*
X32842Y32283D01*
X32832Y32362D01*
X32801Y32435D01*
X32753Y32497D01*
X32691Y32546D01*
X32618Y32576D01*
X32539Y32586D01*
D02*
G37*
G36*
X23858Y32310D02*
X23780Y32300D01*
X23707Y32270D01*
X23644Y32222D01*
X23596Y32159D01*
X23566Y32086D01*
X23556Y32008D01*
X23566Y31930D01*
X23596Y31857D01*
X23644Y31794D01*
X23705Y31747D01*
Y31339D01*
X23705Y31339D01*
X23705D01*
X23717Y31280D01*
X23750Y31230D01*
X23986Y30994D01*
X23986D01*
X23986Y30994D01*
X23986Y30994D01*
Y30994D01*
X24036Y30961D01*
X24094Y30949D01*
X24554D01*
Y30812D01*
X24563Y30768D01*
X24588Y30730D01*
X24626Y30705D01*
X24670Y30696D01*
X25054D01*
X25099Y30705D01*
X25136Y30730D01*
X25161Y30768D01*
X25170Y30812D01*
Y31393D01*
X25161Y31437D01*
X25136Y31475D01*
X25099Y31500D01*
X25054Y31509D01*
X24670D01*
X24626Y31500D01*
X24588Y31475D01*
X24563Y31437D01*
X24554Y31393D01*
Y31255D01*
X24158D01*
X24011Y31402D01*
Y31747D01*
X24072Y31794D01*
X24120Y31857D01*
X24151Y31930D01*
X24161Y32008D01*
X24151Y32086D01*
X24120Y32159D01*
X24072Y32222D01*
X24010Y32270D01*
X23937Y32300D01*
X23858Y32310D01*
D02*
G37*
G36*
X34359Y30546D02*
X34319Y30541D01*
X34235Y30506D01*
X34163Y30451D01*
X34108Y30379D01*
X34073Y30295D01*
X34068Y30255D01*
X34359D01*
Y30546D01*
D02*
G37*
G36*
X31428Y30375D02*
Y30129D01*
X31674D01*
X31670Y30157D01*
X31640Y30230D01*
X31592Y30293D01*
X31529Y30341D01*
X31456Y30371D01*
X31428Y30375D01*
D02*
G37*
G36*
X30693Y32710D02*
X30603Y32699D01*
X30519Y32664D01*
X30447Y32608D01*
X30391Y32536D01*
X30357Y32452D01*
X30345Y32362D01*
X30357Y32272D01*
X30391Y32188D01*
X30401Y32175D01*
X30181Y31955D01*
X29642D01*
X29603Y31948D01*
X29569Y31926D01*
X27558Y29915D01*
X27536Y29882D01*
X27529Y29843D01*
Y29768D01*
X27487Y29750D01*
X27424Y29702D01*
X27376Y29639D01*
X27346Y29567D01*
X27335Y29488D01*
X27346Y29410D01*
X27376Y29337D01*
X27424Y29274D01*
X27487Y29226D01*
X27559Y29196D01*
X27638Y29186D01*
X27716Y29196D01*
X27789Y29226D01*
X27852Y29274D01*
X27900Y29337D01*
X27930Y29410D01*
X27940Y29488D01*
X27930Y29567D01*
X27900Y29639D01*
X27852Y29702D01*
X27789Y29750D01*
X27733Y29774D01*
Y29800D01*
X28120Y30187D01*
X28166Y30168D01*
Y29728D01*
X28132Y29702D01*
X28084Y29639D01*
X28054Y29566D01*
X28044Y29488D01*
X28054Y29410D01*
X28084Y29337D01*
X28132Y29274D01*
X28195Y29226D01*
X28268Y29196D01*
X28346Y29186D01*
X28425Y29196D01*
X28498Y29226D01*
X28560Y29274D01*
X28608Y29337D01*
X28639Y29410D01*
X28649Y29488D01*
X28639Y29566D01*
X28608Y29639D01*
X28560Y29702D01*
X28498Y29750D01*
X28425Y29780D01*
X28370Y29788D01*
Y30155D01*
X29767Y31552D01*
X31181D01*
X31220Y31559D01*
X31253Y31581D01*
X31253Y31581D01*
X31253Y31581D01*
X31689Y32017D01*
X32038D01*
Y32707D01*
X31348D01*
Y32017D01*
X31348Y32017D01*
X31348D01*
X31363Y31980D01*
X31139Y31755D01*
X30335D01*
X30316Y31802D01*
X30558Y32044D01*
X30603Y32026D01*
X30693Y32014D01*
X30783Y32026D01*
X30867Y32061D01*
X30939Y32116D01*
X30995Y32188D01*
X31029Y32272D01*
X31041Y32362D01*
X31029Y32452D01*
X30995Y32536D01*
X30939Y32608D01*
X30867Y32664D01*
X30783Y32699D01*
X30693Y32710D01*
D02*
G37*
G36*
X26196Y31509D02*
X26054D01*
Y31152D01*
X26312D01*
Y31393D01*
X26303Y31437D01*
X26278Y31475D01*
X26240Y31500D01*
X26196Y31509D01*
D02*
G37*
G36*
X25954D02*
X25812D01*
X25768Y31500D01*
X25730Y31475D01*
X25705Y31437D01*
X25696Y31393D01*
Y31152D01*
X25954D01*
Y31509D01*
D02*
G37*
%LPD*%
D15*
X31732Y28071D02*
X31861Y28200D01*
X28268Y29646D02*
X28425Y29488D01*
X28268Y29646D02*
Y30197D01*
X28504Y28937D02*
X28898Y29331D01*
X27008Y28937D02*
X28504D01*
X28898Y29331D02*
Y29488D01*
X28937Y29528D01*
X22008Y31870D02*
X22598Y32461D01*
X22008Y31181D02*
Y31870D01*
Y28363D02*
X22398Y27972D01*
X22008Y28363D02*
Y29291D01*
X31661Y28708D02*
Y29792D01*
X31024Y28071D02*
X31661Y28708D01*
X26417Y28346D02*
X27008Y28937D01*
X29642Y31854D02*
X30224D01*
X27008Y29638D02*
X29693Y32323D01*
X27008Y29449D02*
Y29638D01*
X27631Y29495D02*
X27638Y29488D01*
X27631Y29495D02*
Y29843D01*
X29642Y31854D01*
X30224D02*
X30693Y32323D01*
X31181Y31654D02*
X31693Y32165D01*
X29724Y31654D02*
X31181D01*
X28268Y30197D02*
X29724Y31654D01*
X31693Y32165D02*
Y32323D01*
X28693Y32039D02*
Y32323D01*
X28346Y31693D02*
X28693Y32039D01*
X27205Y31693D02*
X28346D01*
X26614Y31102D02*
X27205Y31693D01*
X26614Y30118D02*
Y31102D01*
X27638Y29685D02*
X27638Y29685D01*
X31861Y28200D02*
Y29709D01*
X31661Y29792D02*
X31980Y30111D01*
X33788D01*
X34107Y29792D01*
Y29508D02*
Y29792D01*
Y29508D02*
X34409Y29205D01*
X31861Y29709D02*
X32062Y29911D01*
X33705D01*
X33907Y29709D01*
Y28708D02*
Y29709D01*
Y28708D02*
X34409Y28205D01*
D16*
X30433Y28307D02*
X31260Y29134D01*
X30433Y28031D02*
Y28307D01*
X30022Y27621D02*
X30433Y28031D01*
X25394Y29961D02*
Y30079D01*
X26004Y30689D01*
X31260Y29134D02*
Y29252D01*
X24505Y27621D02*
X30022D01*
X26004Y30689D02*
Y31102D01*
X23858Y28268D02*
X24505Y27621D01*
X24606Y29016D02*
Y29961D01*
X23858Y28268D02*
X24606Y29016D01*
X24094Y31102D02*
X24862D01*
X23858Y31339D02*
X24094Y31102D01*
X23858Y31339D02*
Y32008D01*
D17*
X34409Y28205D02*
D03*
Y29205D02*
D03*
Y30205D02*
D03*
Y31205D02*
D03*
X30693Y32362D02*
D03*
X29693D02*
D03*
X28693D02*
D03*
X27693D02*
D03*
X26693D02*
D03*
X25693D02*
D03*
X24693D02*
D03*
D18*
X34409Y32205D02*
D03*
D19*
X31693Y32362D02*
D03*
D20*
X22598Y29331D02*
D03*
Y31102D02*
D03*
D21*
Y27972D02*
D03*
Y32461D02*
D03*
D22*
X23071Y32461D02*
D03*
X22126D02*
D03*
X22598Y32461D02*
D03*
Y27953D02*
D03*
X22126Y27953D02*
D03*
X23071D02*
D03*
D23*
X25394Y29961D02*
D03*
X28346Y29488D02*
D03*
X31260Y29252D02*
D03*
X26417Y28346D02*
D03*
X24606Y29961D02*
D03*
X23858Y28268D02*
D03*
X23858Y32008D02*
D03*
X22008Y29291D02*
D03*
Y31181D02*
D03*
X26614Y30118D02*
D03*
X29055Y29488D02*
D03*
X26890D02*
D03*
X27638D02*
D03*
X29882Y28189D02*
D03*
X31024Y28071D02*
D03*
X31850D02*
D03*
X31378Y30079D02*
D03*
X32539Y32283D02*
D03*
Y28150D02*
D03*
D24*
X26004Y31102D02*
D03*
X24862D02*
D03*
M02*
