M48
;Layer_Color=9474304
;FILE_FORMAT=2:4
INCH,LZ
;TYPE=PLATED
T1F00S00C0.0280
T2F00S00C0.0354
T3F00S00C0.0413
T4F00S00C0.0640
;TYPE=NON_PLATED
T5F00S00C0.0433
%
T01
X03185Y028071
X03126Y029252
X031378Y030079
X031024Y028071
X029882Y028189
X029055Y029488
X028346Y029488
X027638Y029488
X02689
X026614Y030118
X025394Y029961
X024606
X023858Y028268
X026417Y028346
X022008Y029291
Y031181
X023858Y032008
T02
X034409Y028205
Y029205
Y030205
Y031205
X030693Y032362
X029693
X028693
X027693
X026693
X025693
X024693
X031693
X034409Y032205
T03
X032539Y02815
Y032283
T04
X022126Y027953
X022598Y027953
X023071Y027953
Y032461
X022598Y032461
X022126Y032461
T05
X022598Y029331
Y031102
M30
