%
M48
M72
T01C0.0130
T02C0.0190
T03C0.0197
T04C0.0236
T05C0.0315
T06C0.0320
T07C0.0433
T08C0.0460
T09C0.0512
%
T01
X4860Y17090
X21060Y17690
X4860Y8950
X5210Y9750
X5760Y10300
X5660Y11740
X6060Y11740
X5260Y11740
X4860Y11740
X4860Y12890
X4860Y13590
X4860Y14040
X4860Y14690
X4860Y15290
X4860Y15890
X4860Y16490
X5260Y17690
X5860Y17690
X6460Y17690
X7060Y17690
X7660Y17690
X8260Y17690
X8860Y17690
X9460Y17690
X10060Y17690
X11410Y17150
X12510Y15700
X12510Y15250
X12960Y15250
X12760Y14550
X13960Y14200
X14433Y14574
X14690Y13700
X14060Y13700
X14960Y12900
X15820Y12950
X15830Y12580
X15410Y11400
X15710Y11100
X16260Y10700
X16660Y10000
X17060Y10000
X18410Y11100
X18060Y11400
X18160Y12100
X18360Y12950
X17960Y12950
X18760Y12950
X19160Y12950
X18960Y12500
X19110Y10890
X19490Y10510
X16860Y11400
X14860Y11050
X16060Y14250
X16460Y14300
X15510Y15400
X15660Y17690
X15060Y17690
X14460Y17690
X13860Y17690
X16260Y17690
X20460Y17690
X21460Y17290
X21460Y16690
X10360Y15600
X9960Y15550
X9960Y13940
X9960Y13540
X10360Y13540
X10360Y13940
T02
X9560Y17200
T03
X9160Y10450
X9310Y9500
X15810Y8350
X18560Y8050
T04
X11460Y8600
X13460Y9150
X8860Y9150
X5860Y13150
X19160Y15100
T05
X4960Y12300
X14475Y3050
X16444Y3050
X16480Y1100
X14480Y1100
T06
X13260Y12700
X13260Y13700
X13260Y14700
T07
X14728Y16637
X20791Y16637
X18744Y5063
X16775Y5063
T08
X5860Y1900
X7860Y1900
X10510Y1900
X12510Y1900
X18610Y1950
X20610Y1950
T09
X5200Y4100
X8200Y5100
X10050Y4100
X10050Y7100
X10050Y11100
X8200Y11100
X5200Y11100
X5200Y7100
X13050Y11100
M30
