G75*
%MOIN*%
%OFA0B0*%
%FSLAX24Y24*%
%IPPOS*%
%LPD*%
%AMOC8*
5,1,8,0,0,1.08239X$1,22.5*
%
%ADD10C,0.0000*%
%ADD11C,0.0020*%
%ADD12C,0.0030*%
%ADD13C,0.0050*%
%ADD14C,0.0079*%
%ADD15C,0.0080*%
%ADD16C,0.0060*%
%ADD17C,0.0100*%
%ADD18R,0.0146X0.0002*%
%ADD19R,0.0139X0.0002*%
%ADD20R,0.0146X0.0002*%
%ADD21R,0.0139X0.0002*%
%ADD22R,0.0154X0.0002*%
%ADD23R,0.0154X0.0002*%
%ADD24R,0.0158X0.0002*%
%ADD25R,0.0168X0.0002*%
%ADD26R,0.0158X0.0002*%
%ADD27R,0.0168X0.0002*%
%ADD28R,0.0166X0.0002*%
%ADD29R,0.0166X0.0002*%
%ADD30R,0.0173X0.0002*%
%ADD31R,0.0173X0.0002*%
%ADD32R,0.0180X0.0002*%
%ADD33R,0.0180X0.0002*%
%ADD34R,0.0026X0.0002*%
%ADD35R,0.0026X0.0002*%
%ADD36R,0.0187X0.0002*%
%ADD37R,0.0046X0.0002*%
%ADD38R,0.0048X0.0002*%
%ADD39R,0.0187X0.0002*%
%ADD40R,0.0046X0.0002*%
%ADD41R,0.0048X0.0002*%
%ADD42R,0.0060X0.0002*%
%ADD43R,0.0192X0.0002*%
%ADD44R,0.0192X0.0002*%
%ADD45R,0.0079X0.0002*%
%ADD46R,0.0079X0.0002*%
%ADD47R,0.0228X0.0002*%
%ADD48R,0.0094X0.0002*%
%ADD49R,0.0221X0.0002*%
%ADD50R,0.0228X0.0002*%
%ADD51R,0.0094X0.0002*%
%ADD52R,0.0221X0.0002*%
%ADD53R,0.0259X0.0002*%
%ADD54R,0.0115X0.0002*%
%ADD55R,0.0113X0.0002*%
%ADD56R,0.0266X0.0002*%
%ADD57R,0.0259X0.0002*%
%ADD58R,0.0115X0.0002*%
%ADD59R,0.0113X0.0002*%
%ADD60R,0.0266X0.0002*%
%ADD61R,0.0288X0.0002*%
%ADD62R,0.0125X0.0002*%
%ADD63R,0.0307X0.0002*%
%ADD64R,0.0300X0.0002*%
%ADD65R,0.0307X0.0002*%
%ADD66R,0.0300X0.0002*%
%ADD67R,0.0322X0.0002*%
%ADD68R,0.0161X0.0002*%
%ADD69R,0.0322X0.0002*%
%ADD70R,0.0161X0.0002*%
%ADD71R,0.0334X0.0002*%
%ADD72R,0.0326X0.0002*%
%ADD73R,0.0334X0.0002*%
%ADD74R,0.0326X0.0002*%
%ADD75R,0.0526X0.0002*%
%ADD76R,0.0528X0.0002*%
%ADD77R,0.0526X0.0002*%
%ADD78R,0.0528X0.0002*%
%ADD79R,0.0526X0.0002*%
%ADD80R,0.0533X0.0002*%
%ADD81R,0.0533X0.0002*%
%ADD82R,0.0533X0.0002*%
%ADD83R,0.0533X0.0002*%
%ADD84R,0.0526X0.0002*%
%ADD85R,0.0521X0.0002*%
%ADD86R,0.0518X0.0002*%
%ADD87R,0.0521X0.0002*%
%ADD88R,0.0518X0.0002*%
%ADD89R,0.0514X0.0002*%
%ADD90R,0.0511X0.0002*%
%ADD91R,0.0514X0.0002*%
%ADD92R,0.0511X0.0002*%
%ADD93R,0.0499X0.0002*%
%ADD94R,0.0506X0.0002*%
%ADD95R,0.0499X0.0002*%
%ADD96R,0.0506X0.0002*%
%ADD97R,0.0502X0.0002*%
%ADD98R,0.0502X0.0002*%
%ADD99R,0.0494X0.0002*%
%ADD100R,0.0480X0.0002*%
%ADD101R,0.0480X0.0002*%
%ADD102R,0.0466X0.0002*%
%ADD103R,0.0473X0.0002*%
%ADD104R,0.0466X0.0002*%
%ADD105R,0.0473X0.0002*%
%ADD106R,0.0458X0.0002*%
%ADD107R,0.0451X0.0002*%
%ADD108R,0.0454X0.0002*%
%ADD109R,0.0451X0.0002*%
%ADD110R,0.0454X0.0002*%
%ADD111R,0.0446X0.0002*%
%ADD112R,0.0446X0.0002*%
%ADD113R,0.0439X0.0002*%
%ADD114R,0.0439X0.0002*%
%ADD115R,0.0434X0.0002*%
%ADD116R,0.0427X0.0002*%
%ADD117R,0.0434X0.0002*%
%ADD118R,0.0427X0.0002*%
%ADD119R,0.0413X0.0002*%
%ADD120R,0.0420X0.0002*%
%ADD121R,0.0413X0.0002*%
%ADD122R,0.0420X0.0002*%
%ADD123R,0.0413X0.0002*%
%ADD124R,0.0413X0.0002*%
%ADD125R,0.0022X0.0002*%
%ADD126R,0.0415X0.0002*%
%ADD127R,0.0022X0.0002*%
%ADD128R,0.0415X0.0002*%
%ADD129R,0.0034X0.0002*%
%ADD130R,0.0038X0.0002*%
%ADD131R,0.0060X0.0002*%
%ADD132R,0.0334X0.0002*%
%ADD133R,0.0038X0.0002*%
%ADD134R,0.0334X0.0002*%
%ADD135R,0.0074X0.0002*%
%ADD136R,0.0305X0.0002*%
%ADD137R,0.0072X0.0002*%
%ADD138R,0.0074X0.0002*%
%ADD139R,0.0305X0.0002*%
%ADD140R,0.0072X0.0002*%
%ADD141R,0.0089X0.0002*%
%ADD142R,0.0293X0.0002*%
%ADD143R,0.0298X0.0002*%
%ADD144R,0.0089X0.0002*%
%ADD145R,0.0293X0.0002*%
%ADD146R,0.0298X0.0002*%
%ADD147R,0.0108X0.0002*%
%ADD148R,0.0293X0.0002*%
%ADD149R,0.0286X0.0002*%
%ADD150R,0.0125X0.0002*%
%ADD151R,0.0281X0.0002*%
%ADD152R,0.0286X0.0002*%
%ADD153R,0.0127X0.0002*%
%ADD154R,0.0281X0.0002*%
%ADD155R,0.0127X0.0002*%
%ADD156R,0.0281X0.0002*%
%ADD157R,0.0274X0.0002*%
%ADD158R,0.0281X0.0002*%
%ADD159R,0.0274X0.0002*%
%ADD160R,0.0166X0.0002*%
%ADD161R,0.0166X0.0002*%
%ADD162R,0.0221X0.0002*%
%ADD163R,0.0319X0.0002*%
%ADD164R,0.0226X0.0002*%
%ADD165R,0.0221X0.0002*%
%ADD166R,0.0319X0.0002*%
%ADD167R,0.0226X0.0002*%
%ADD168R,0.0346X0.0002*%
%ADD169R,0.0341X0.0002*%
%ADD170R,0.0278X0.0002*%
%ADD171R,0.0314X0.0002*%
%ADD172R,0.0382X0.0002*%
%ADD173R,0.0372X0.0002*%
%ADD174R,0.0314X0.0002*%
%ADD175R,0.0382X0.0002*%
%ADD176R,0.0372X0.0002*%
%ADD177R,0.0353X0.0002*%
%ADD178R,0.0386X0.0002*%
%ADD179R,0.0379X0.0002*%
%ADD180R,0.0353X0.0002*%
%ADD181R,0.0386X0.0002*%
%ADD182R,0.0379X0.0002*%
%ADD183R,0.0367X0.0002*%
%ADD184R,0.0367X0.0002*%
%ADD185R,0.0374X0.0002*%
%ADD186R,0.0374X0.0002*%
%ADD187R,0.0365X0.0002*%
%ADD188R,0.0360X0.0002*%
%ADD189R,0.0365X0.0002*%
%ADD190R,0.0360X0.0002*%
%ADD191R,0.0374X0.0002*%
%ADD192R,0.0374X0.0002*%
%ADD193R,0.0379X0.0002*%
%ADD194R,0.0379X0.0002*%
%ADD195R,0.0346X0.0002*%
%ADD196R,0.0338X0.0002*%
%ADD197R,0.0338X0.0002*%
%ADD198R,0.0312X0.0002*%
%ADD199R,0.0312X0.0002*%
%ADD200R,0.0295X0.0002*%
%ADD201R,0.0286X0.0002*%
%ADD202R,0.0295X0.0002*%
%ADD203R,0.0286X0.0002*%
%ADD204R,0.0288X0.0002*%
%ADD205R,0.0278X0.0002*%
%ADD206R,0.0307X0.0002*%
%ADD207R,0.0341X0.0002*%
%ADD208R,0.0341X0.0002*%
%ADD209R,0.0701X0.0002*%
%ADD210R,0.0701X0.0002*%
%ADD211R,0.0701X0.0002*%
%ADD212R,0.0701X0.0002*%
%ADD213R,0.0694X0.0002*%
%ADD214R,0.0694X0.0002*%
%ADD215R,0.0686X0.0002*%
%ADD216R,0.0686X0.0002*%
%ADD217R,0.0686X0.0002*%
%ADD218R,0.0686X0.0002*%
%ADD219R,0.0679X0.0002*%
%ADD220R,0.0672X0.0002*%
%ADD221R,0.0679X0.0002*%
%ADD222R,0.0672X0.0002*%
%ADD223R,0.0665X0.0002*%
%ADD224R,0.0665X0.0002*%
%ADD225R,0.0660X0.0002*%
%ADD226R,0.0660X0.0002*%
%ADD227R,0.0667X0.0002*%
%ADD228R,0.0667X0.0002*%
%ADD229R,0.0679X0.0002*%
%ADD230R,0.0679X0.0002*%
%ADD231R,0.0706X0.0002*%
%ADD232R,0.0708X0.0002*%
%ADD233R,0.0706X0.0002*%
%ADD234R,0.0708X0.0002*%
%ADD235R,0.0720X0.0002*%
%ADD236R,0.0713X0.0002*%
%ADD237R,0.0720X0.0002*%
%ADD238R,0.0713X0.0002*%
%ADD239R,0.0718X0.0002*%
%ADD240R,0.0718X0.0002*%
%ADD241R,0.0734X0.0002*%
%ADD242R,0.0732X0.0002*%
%ADD243R,0.0746X0.0002*%
%ADD244R,0.0739X0.0002*%
%ADD245R,0.0746X0.0002*%
%ADD246R,0.0739X0.0002*%
%ADD247R,0.0758X0.0002*%
%ADD248R,0.0761X0.0002*%
%ADD249R,0.0758X0.0002*%
%ADD250R,0.0761X0.0002*%
%ADD251R,0.0773X0.0002*%
%ADD252R,0.0773X0.0002*%
%ADD253R,0.0787X0.0002*%
%ADD254R,0.0785X0.0002*%
%ADD255R,0.0787X0.0002*%
%ADD256R,0.0785X0.0002*%
%ADD257R,0.0799X0.0002*%
%ADD258R,0.0799X0.0002*%
%ADD259R,0.0799X0.0002*%
%ADD260R,0.0799X0.0002*%
%ADD261R,0.0792X0.0002*%
%ADD262R,0.0792X0.0002*%
%ADD263R,0.0780X0.0002*%
%ADD264R,0.0778X0.0002*%
%ADD265R,0.0780X0.0002*%
%ADD266R,0.0778X0.0002*%
%ADD267R,0.0766X0.0002*%
%ADD268R,0.0768X0.0002*%
%ADD269R,0.0766X0.0002*%
%ADD270R,0.0768X0.0002*%
%ADD271R,0.0348X0.0002*%
%ADD272R,0.0175X0.0002*%
%ADD273R,0.0353X0.0002*%
%ADD274R,0.0173X0.0002*%
%ADD275R,0.0348X0.0002*%
%ADD276R,0.0175X0.0002*%
%ADD277R,0.0353X0.0002*%
%ADD278R,0.0173X0.0002*%
%ADD279R,0.0149X0.0002*%
%ADD280R,0.0139X0.0002*%
%ADD281R,0.0149X0.0002*%
%ADD282R,0.0139X0.0002*%
%ADD283R,0.0134X0.0002*%
%ADD284R,0.0252X0.0002*%
%ADD285R,0.0132X0.0002*%
%ADD286R,0.0127X0.0002*%
%ADD287R,0.0134X0.0002*%
%ADD288R,0.0252X0.0002*%
%ADD289R,0.0132X0.0002*%
%ADD290R,0.0127X0.0002*%
%ADD291R,0.0120X0.0002*%
%ADD292R,0.0113X0.0002*%
%ADD293R,0.0120X0.0002*%
%ADD294R,0.0108X0.0002*%
%ADD295R,0.0113X0.0002*%
%ADD296R,0.0098X0.0002*%
%ADD297R,0.0199X0.0002*%
%ADD298R,0.0101X0.0002*%
%ADD299R,0.0199X0.0002*%
%ADD300R,0.0086X0.0002*%
%ADD301R,0.0086X0.0002*%
%ADD302R,0.0185X0.0002*%
%ADD303R,0.0079X0.0002*%
%ADD304R,0.0086X0.0002*%
%ADD305R,0.0086X0.0002*%
%ADD306R,0.0185X0.0002*%
%ADD307R,0.0079X0.0002*%
%ADD308R,0.0067X0.0002*%
%ADD309R,0.0065X0.0002*%
%ADD310R,0.0067X0.0002*%
%ADD311R,0.0065X0.0002*%
%ADD312R,0.0053X0.0002*%
%ADD313R,0.0055X0.0002*%
%ADD314R,0.0053X0.0002*%
%ADD315R,0.0055X0.0002*%
%ADD316R,0.0034X0.0002*%
%ADD317R,0.0019X0.0002*%
%ADD318R,0.0019X0.0002*%
%ADD319R,0.0041X0.0002*%
%ADD320R,0.0041X0.0002*%
%ADD321R,0.0074X0.0002*%
%ADD322R,0.0074X0.0002*%
%ADD323R,0.0098X0.0002*%
%ADD324R,0.0206X0.0002*%
%ADD325R,0.0101X0.0002*%
%ADD326R,0.0108X0.0002*%
%ADD327R,0.0206X0.0002*%
%ADD328R,0.0108X0.0002*%
%ADD329R,0.0240X0.0002*%
%ADD330R,0.0240X0.0002*%
%ADD331R,0.0274X0.0002*%
%ADD332R,0.0274X0.0002*%
%ADD333R,0.0562X0.0002*%
%ADD334R,0.0562X0.0002*%
%ADD335R,0.0754X0.0002*%
%ADD336R,0.0754X0.0002*%
%ADD337R,0.0727X0.0002*%
%ADD338R,0.0725X0.0002*%
%ADD339R,0.0727X0.0002*%
%ADD340R,0.0725X0.0002*%
%ADD341R,0.0307X0.0002*%
%ADD342R,0.0338X0.0002*%
%ADD343R,0.0338X0.0002*%
%ADD344R,0.0372X0.0002*%
%ADD345R,0.0372X0.0002*%
%ADD346R,0.0341X0.0002*%
%ADD347R,0.0199X0.0002*%
%ADD348R,0.0161X0.0002*%
%ADD349R,0.0161X0.0002*%
%ADD350R,0.0101X0.0002*%
%ADD351R,0.0101X0.0002*%
%ADD352R,0.0319X0.0002*%
%ADD353R,0.0319X0.0002*%
%ADD354R,0.0408X0.0002*%
%ADD355R,0.0408X0.0002*%
%ADD356R,0.0432X0.0002*%
%ADD357R,0.0432X0.0002*%
%ADD358R,0.0473X0.0002*%
%ADD359R,0.0473X0.0002*%
%ADD360R,0.0487X0.0002*%
%ADD361R,0.0487X0.0002*%
%ADD362R,0.0492X0.0002*%
%ADD363R,0.0494X0.0002*%
%ADD364R,0.0492X0.0002*%
%ADD365R,0.0521X0.0002*%
%ADD366R,0.0521X0.0002*%
%ADD367R,0.0329X0.0002*%
%ADD368R,0.0329X0.0002*%
%ADD369R,0.0154X0.0002*%
%ADD370R,0.0154X0.0002*%
%ADD371R,0.0199X0.0002*%
%ADD372R,0.0031X0.0002*%
%ADD373R,0.0041X0.0002*%
%ADD374R,0.0031X0.0002*%
%ADD375R,0.0041X0.0002*%
D10*
X004460Y000900D02*
X004460Y017270D01*
X004462Y017324D01*
X004468Y017377D01*
X004477Y017429D01*
X004490Y017481D01*
X004507Y017532D01*
X004528Y017582D01*
X004552Y017629D01*
X004579Y017675D01*
X004610Y017719D01*
X004643Y017761D01*
X004680Y017800D01*
X004719Y017837D01*
X004761Y017870D01*
X004805Y017901D01*
X004851Y017928D01*
X004898Y017952D01*
X004948Y017973D01*
X004999Y017990D01*
X005051Y018003D01*
X005103Y018012D01*
X005156Y018018D01*
X005210Y018020D01*
X021202Y018020D01*
X021251Y018026D01*
X021300Y018028D01*
X021349Y018026D01*
X021398Y018021D01*
X021446Y018012D01*
X021494Y017999D01*
X021541Y017983D01*
X021586Y017964D01*
X021629Y017941D01*
X021671Y017915D01*
X021711Y017886D01*
X021748Y017854D01*
X021783Y017819D01*
X021815Y017782D01*
X021845Y017742D01*
X021871Y017701D01*
X021894Y017657D01*
X021914Y017612D01*
X021930Y017566D01*
X021943Y017518D01*
X021952Y017470D01*
X021952Y000900D01*
X021950Y000846D01*
X021944Y000793D01*
X021935Y000741D01*
X021922Y000689D01*
X021905Y000638D01*
X021884Y000588D01*
X021860Y000541D01*
X021833Y000495D01*
X021802Y000451D01*
X021769Y000409D01*
X021732Y000370D01*
X021693Y000333D01*
X021651Y000300D01*
X021607Y000269D01*
X021561Y000242D01*
X021514Y000218D01*
X021464Y000197D01*
X021413Y000180D01*
X021361Y000167D01*
X021309Y000158D01*
X021256Y000152D01*
X021202Y000150D01*
X005210Y000150D01*
X005156Y000152D01*
X005103Y000158D01*
X005051Y000167D01*
X004999Y000180D01*
X004948Y000197D01*
X004898Y000218D01*
X004851Y000242D01*
X004805Y000269D01*
X004761Y000300D01*
X004719Y000333D01*
X004680Y000370D01*
X004643Y000409D01*
X004610Y000451D01*
X004579Y000495D01*
X004552Y000541D01*
X004528Y000588D01*
X004507Y000638D01*
X004490Y000689D01*
X004477Y000741D01*
X004468Y000793D01*
X004462Y000846D01*
X004460Y000900D01*
D11*
X005231Y013627D02*
X005231Y013847D01*
X005341Y013847D01*
X005377Y013810D01*
X005377Y013737D01*
X005341Y013700D01*
X005231Y013700D01*
X005156Y013737D02*
X005156Y013883D01*
X005120Y013920D01*
X005046Y013920D01*
X005010Y013883D01*
X005010Y013737D01*
X005046Y013700D01*
X005120Y013700D01*
X005156Y013737D01*
X005451Y013737D02*
X005488Y013700D01*
X005562Y013700D01*
X005598Y013773D02*
X005451Y013773D01*
X005451Y013737D02*
X005451Y013810D01*
X005488Y013847D01*
X005562Y013847D01*
X005598Y013810D01*
X005598Y013773D01*
X005672Y013700D02*
X005672Y013847D01*
X005783Y013847D01*
X005819Y013810D01*
X005819Y013700D01*
X005893Y013700D02*
X005893Y013920D01*
X005893Y013810D02*
X006040Y013810D01*
X006114Y013737D02*
X006151Y013773D01*
X006261Y013773D01*
X006261Y013810D02*
X006261Y013700D01*
X006151Y013700D01*
X006114Y013737D01*
X006040Y013700D02*
X006040Y013920D01*
X006151Y013847D02*
X006225Y013847D01*
X006261Y013810D01*
X006335Y013773D02*
X006409Y013847D01*
X006446Y013847D01*
X006520Y013810D02*
X006556Y013847D01*
X006666Y013847D01*
X006666Y013920D02*
X006666Y013700D01*
X006556Y013700D01*
X006520Y013737D01*
X006520Y013810D01*
X006335Y013847D02*
X006335Y013700D01*
X006741Y013737D02*
X006777Y013700D01*
X006814Y013737D01*
X006851Y013700D01*
X006887Y013737D01*
X006887Y013847D01*
X006998Y013847D02*
X007072Y013847D01*
X007108Y013810D01*
X007108Y013700D01*
X006998Y013700D01*
X006962Y013737D01*
X006998Y013773D01*
X007108Y013773D01*
X007183Y013773D02*
X007256Y013847D01*
X007293Y013847D01*
X007367Y013810D02*
X007403Y013847D01*
X007477Y013847D01*
X007514Y013810D01*
X007514Y013773D01*
X007367Y013773D01*
X007367Y013737D02*
X007367Y013810D01*
X007367Y013737D02*
X007403Y013700D01*
X007477Y013700D01*
X007588Y013700D02*
X007624Y013700D01*
X007624Y013737D01*
X007588Y013737D01*
X007588Y013700D01*
X007698Y013700D02*
X007772Y013700D01*
X007735Y013700D02*
X007735Y013847D01*
X007698Y013847D01*
X007735Y013920D02*
X007735Y013957D01*
X007846Y013810D02*
X007846Y013737D01*
X007882Y013700D01*
X007956Y013700D01*
X007992Y013737D01*
X007992Y013810D01*
X007956Y013847D01*
X007882Y013847D01*
X007846Y013810D01*
X007183Y013847D02*
X007183Y013700D01*
X006741Y013737D02*
X006741Y013847D01*
X007184Y014540D02*
X007344Y014540D01*
X007385Y014580D01*
X007385Y014660D01*
X007344Y014700D01*
X007385Y014779D02*
X007385Y014940D01*
X007385Y014859D02*
X007144Y014859D01*
X007224Y014779D01*
X007184Y014700D02*
X007144Y014660D01*
X007144Y014580D01*
X007184Y014540D01*
X007184Y015019D02*
X007144Y015059D01*
X007144Y015139D01*
X007184Y015179D01*
X007344Y015019D01*
X007385Y015059D01*
X007385Y015139D01*
X007344Y015179D01*
X007184Y015179D01*
X007184Y015019D02*
X007344Y015019D01*
X007305Y016900D02*
X007158Y016900D01*
X007305Y017047D01*
X007305Y017083D01*
X007268Y017120D01*
X007195Y017120D01*
X007158Y017083D01*
X007195Y017260D02*
X007158Y017297D01*
X007158Y017443D01*
X007122Y017407D02*
X007195Y017407D01*
X007269Y017370D02*
X007306Y017407D01*
X007379Y017407D01*
X007416Y017370D01*
X007416Y017333D01*
X007269Y017333D01*
X007269Y017297D02*
X007269Y017370D01*
X007269Y017297D02*
X007306Y017260D01*
X007379Y017260D01*
X007490Y017260D02*
X007490Y017407D01*
X007563Y017407D02*
X007600Y017407D01*
X007563Y017407D02*
X007490Y017333D01*
X007674Y017260D02*
X007674Y017480D01*
X007821Y017260D01*
X007821Y017480D01*
X007895Y017370D02*
X007895Y017297D01*
X007932Y017260D01*
X008005Y017260D01*
X008042Y017297D01*
X008042Y017370D01*
X008005Y017407D01*
X007932Y017407D01*
X007895Y017370D01*
X008116Y017370D02*
X008153Y017407D01*
X008263Y017407D01*
X008263Y017480D02*
X008263Y017260D01*
X008153Y017260D01*
X008116Y017297D01*
X008116Y017370D01*
X008337Y017370D02*
X008374Y017407D01*
X008447Y017407D01*
X008484Y017370D01*
X008484Y017333D01*
X008337Y017333D01*
X008337Y017297D02*
X008337Y017370D01*
X008337Y017297D02*
X008374Y017260D01*
X008447Y017260D01*
X008779Y017260D02*
X008779Y017407D01*
X008852Y017407D02*
X008779Y017333D01*
X008852Y017407D02*
X008889Y017407D01*
X008963Y017407D02*
X009037Y017480D01*
X009037Y017260D01*
X009110Y017260D02*
X008963Y017260D01*
X009184Y017260D02*
X009184Y017297D01*
X009221Y017297D01*
X009221Y017260D01*
X009184Y017260D01*
X009295Y017297D02*
X009331Y017260D01*
X009405Y017260D01*
X009441Y017297D01*
X009441Y017333D01*
X009405Y017370D01*
X009368Y017370D01*
X009405Y017370D02*
X009441Y017407D01*
X009441Y017443D01*
X009405Y017480D01*
X009331Y017480D01*
X009295Y017443D01*
X007968Y017120D02*
X007895Y017083D01*
X007821Y017010D01*
X007931Y017010D01*
X007968Y016973D01*
X007968Y016937D01*
X007931Y016900D01*
X007858Y016900D01*
X007821Y016937D01*
X007821Y017010D01*
X007747Y016900D02*
X007600Y016900D01*
X007674Y016900D02*
X007674Y017120D01*
X007600Y017047D01*
X007526Y017083D02*
X007379Y016937D01*
X007416Y016900D01*
X007489Y016900D01*
X007526Y016937D01*
X007526Y017083D01*
X007489Y017120D01*
X007416Y017120D01*
X007379Y017083D01*
X007379Y016937D01*
X007048Y017260D02*
X007011Y017297D01*
X007011Y017443D01*
X006974Y017407D02*
X007048Y017407D01*
X006900Y017407D02*
X006900Y017260D01*
X006790Y017260D01*
X006753Y017297D01*
X006753Y017407D01*
X006679Y017370D02*
X006679Y017260D01*
X006679Y017370D02*
X006642Y017407D01*
X006569Y017407D01*
X006532Y017370D01*
X006458Y017333D02*
X006458Y017297D01*
X006421Y017260D01*
X006348Y017260D01*
X006311Y017297D01*
X006348Y017370D02*
X006421Y017370D01*
X006458Y017333D01*
X006532Y017260D02*
X006532Y017480D01*
X006458Y017443D02*
X006421Y017480D01*
X006348Y017480D01*
X006311Y017443D01*
X006311Y017407D01*
X006348Y017370D01*
X006237Y017407D02*
X006201Y017407D01*
X006127Y017333D01*
X006127Y017260D02*
X006127Y017407D01*
X006053Y017370D02*
X006053Y017333D01*
X005906Y017333D01*
X005906Y017297D02*
X005906Y017370D01*
X005943Y017407D01*
X006016Y017407D01*
X006053Y017370D01*
X006016Y017260D02*
X005943Y017260D01*
X005906Y017297D01*
X005832Y017260D02*
X005759Y017260D01*
X005796Y017260D02*
X005796Y017480D01*
X005759Y017480D01*
X005648Y017480D02*
X005648Y017260D01*
X005611Y017260D02*
X005685Y017260D01*
X005537Y017297D02*
X005537Y017370D01*
X005501Y017407D01*
X005427Y017407D01*
X005391Y017370D01*
X005391Y017297D01*
X005427Y017260D01*
X005501Y017260D01*
X005537Y017297D01*
X005538Y017120D02*
X005611Y017047D01*
X005611Y016973D01*
X005538Y016900D01*
X005464Y016900D02*
X005354Y016900D01*
X005317Y016937D01*
X005317Y017010D01*
X005354Y017047D01*
X005464Y017047D01*
X005243Y017120D02*
X005170Y017047D01*
X005170Y016973D01*
X005243Y016900D01*
X005316Y017260D02*
X005243Y017333D01*
X005280Y017333D02*
X005170Y017333D01*
X005170Y017260D02*
X005170Y017480D01*
X005280Y017480D01*
X005316Y017443D01*
X005316Y017370D01*
X005280Y017333D01*
X005611Y017480D02*
X005648Y017480D01*
X005943Y017120D02*
X005906Y017083D01*
X005906Y017047D01*
X005943Y017010D01*
X006016Y017010D01*
X006053Y016973D01*
X006053Y016937D01*
X006016Y016900D01*
X005943Y016900D01*
X005906Y016937D01*
X005943Y017120D02*
X006016Y017120D01*
X006053Y017083D01*
X006127Y017010D02*
X006127Y016937D01*
X006164Y016900D01*
X006274Y016900D01*
X006348Y016937D02*
X006385Y016973D01*
X006495Y016973D01*
X006495Y017010D02*
X006495Y016900D01*
X006385Y016900D01*
X006348Y016937D01*
X006385Y017047D02*
X006458Y017047D01*
X006495Y017010D01*
X006569Y016900D02*
X006643Y016900D01*
X006606Y016900D02*
X006606Y017120D01*
X006569Y017120D01*
X006716Y017047D02*
X006863Y017047D01*
X006716Y016900D01*
X006863Y016900D01*
X006274Y017047D02*
X006164Y017047D01*
X006127Y017010D01*
D12*
X008144Y016635D02*
X008144Y016538D01*
X008144Y016587D02*
X008435Y016587D01*
X008435Y016635D02*
X008435Y016538D01*
X008289Y016437D02*
X008338Y016389D01*
X008338Y016244D01*
X008435Y016244D02*
X008144Y016244D01*
X008144Y016389D01*
X008193Y016437D01*
X008289Y016437D01*
X008338Y016142D02*
X008386Y016142D01*
X008435Y016094D01*
X008435Y015997D01*
X008386Y015949D01*
X008289Y015997D02*
X008289Y016094D01*
X008338Y016142D01*
X008193Y016142D02*
X008144Y016094D01*
X008144Y015997D01*
X008193Y015949D01*
X008241Y015949D01*
X008289Y015997D01*
X008289Y015848D02*
X008338Y015799D01*
X008338Y015654D01*
X008435Y015654D02*
X008144Y015654D01*
X008144Y015799D01*
X008193Y015848D01*
X008289Y015848D01*
X008338Y015751D02*
X008435Y015848D01*
X008338Y015553D02*
X008144Y015553D01*
X008144Y015360D02*
X008338Y015360D01*
X008435Y015456D01*
X008338Y015553D01*
X008289Y015258D02*
X008289Y015065D01*
X008241Y015065D02*
X008144Y015162D01*
X008241Y015258D01*
X008435Y015258D01*
X008435Y015065D02*
X008241Y015065D01*
X008144Y014446D02*
X008144Y014349D01*
X008144Y014397D02*
X008435Y014397D01*
X008435Y014349D02*
X008435Y014446D01*
X008386Y014248D02*
X008193Y014248D01*
X008144Y014199D01*
X008144Y014054D01*
X008435Y014054D01*
X008435Y014199D01*
X008386Y014248D01*
X008144Y013953D02*
X008144Y013760D01*
X008144Y013856D02*
X008435Y013856D01*
X008289Y013562D02*
X008289Y013465D01*
X008144Y013465D02*
X008144Y013658D01*
X008144Y013465D02*
X008435Y013465D01*
X008478Y012685D02*
X008430Y012637D01*
X008430Y012443D01*
X008478Y012395D01*
X008575Y012395D01*
X008623Y012443D01*
X008623Y012637D02*
X008575Y012685D01*
X008478Y012685D01*
X008329Y012637D02*
X008280Y012685D01*
X008184Y012685D01*
X008135Y012637D01*
X008036Y012685D02*
X007939Y012685D01*
X007987Y012685D02*
X007987Y012395D01*
X007939Y012395D02*
X008036Y012395D01*
X008135Y012395D02*
X008329Y012588D01*
X008329Y012637D01*
X008329Y012395D02*
X008135Y012395D01*
X007838Y012685D02*
X007644Y012395D01*
X007543Y012443D02*
X007543Y012492D01*
X007495Y012540D01*
X007398Y012540D01*
X007349Y012588D01*
X007349Y012637D01*
X007398Y012685D01*
X007495Y012685D01*
X007543Y012637D01*
X007543Y012443D02*
X007495Y012395D01*
X007398Y012395D01*
X007349Y012443D01*
X007248Y012395D02*
X007248Y012685D01*
X007055Y012685D02*
X007055Y012395D01*
X006954Y012443D02*
X006954Y012637D01*
X006905Y012685D01*
X006809Y012685D01*
X006760Y012637D01*
X006760Y012443D01*
X006809Y012395D01*
X006905Y012395D01*
X006954Y012443D01*
X007055Y012685D02*
X007248Y012395D01*
X006659Y012685D02*
X006466Y012685D01*
X006562Y012685D02*
X006562Y012395D01*
X006268Y012395D02*
X006268Y012685D01*
X006364Y012685D02*
X006171Y012685D01*
X006070Y012685D02*
X006070Y012443D01*
X006021Y012395D01*
X005925Y012395D01*
X005876Y012443D01*
X005876Y012685D01*
X005775Y012637D02*
X005775Y012588D01*
X005727Y012540D01*
X005582Y012540D01*
X005727Y012540D02*
X005775Y012492D01*
X005775Y012443D01*
X005727Y012395D01*
X005582Y012395D01*
X005582Y012685D01*
X005727Y012685D01*
X005775Y012637D01*
X005863Y012265D02*
X005863Y011975D01*
X005669Y012265D01*
X005669Y011975D01*
X005568Y011975D02*
X005568Y012168D01*
X005471Y012265D01*
X005375Y012168D01*
X005375Y011975D01*
X005375Y012120D02*
X005568Y012120D01*
X005964Y012265D02*
X006157Y012265D01*
X006061Y012265D02*
X006061Y011975D01*
X009956Y012082D02*
X010004Y012034D01*
X010052Y012034D01*
X010101Y012082D01*
X010101Y012324D01*
X010149Y012324D02*
X010052Y012324D01*
X010250Y012324D02*
X010395Y012324D01*
X010444Y012276D01*
X010444Y012179D01*
X010395Y012131D01*
X010250Y012131D01*
X010250Y012034D02*
X010250Y012324D01*
X010545Y012276D02*
X010593Y012324D01*
X010690Y012324D01*
X010738Y012276D01*
X010738Y012227D01*
X010545Y012034D01*
X010738Y012034D01*
X012739Y011895D02*
X012836Y011895D01*
X012787Y011895D02*
X012787Y012185D01*
X012739Y012185D02*
X012836Y012185D01*
X012935Y012137D02*
X012935Y011943D01*
X012984Y011895D01*
X013080Y011895D01*
X013129Y011943D01*
X013230Y011943D02*
X013230Y011992D01*
X013278Y012040D01*
X013375Y012040D01*
X013423Y011992D01*
X013423Y011943D01*
X013375Y011895D01*
X013278Y011895D01*
X013230Y011943D01*
X013278Y012040D02*
X013230Y012088D01*
X013230Y012137D01*
X013278Y012185D01*
X013375Y012185D01*
X013423Y012137D01*
X013423Y012088D01*
X013375Y012040D01*
X013129Y012137D02*
X013080Y012185D01*
X012984Y012185D01*
X012935Y012137D01*
X011359Y013815D02*
X011262Y013815D01*
X011214Y013863D01*
X011214Y013960D01*
X011359Y013960D01*
X011407Y013912D01*
X011407Y013863D01*
X011359Y013815D01*
X011214Y013960D02*
X011311Y014057D01*
X011407Y014105D01*
X011113Y014057D02*
X011113Y013960D01*
X011064Y013912D01*
X010919Y013912D01*
X010919Y013815D02*
X010919Y014105D01*
X011064Y014105D01*
X011113Y014057D01*
X010818Y014105D02*
X010721Y014105D01*
X010770Y014105D02*
X010770Y013863D01*
X010721Y013815D01*
X010673Y013815D01*
X010625Y013863D01*
X010621Y015415D02*
X010670Y015463D01*
X010670Y015705D01*
X010718Y015705D02*
X010621Y015705D01*
X010819Y015705D02*
X010819Y015415D01*
X010819Y015512D02*
X010964Y015512D01*
X011013Y015560D01*
X011013Y015657D01*
X010964Y015705D01*
X010819Y015705D01*
X011114Y015705D02*
X011114Y015560D01*
X011211Y015608D01*
X011259Y015608D01*
X011307Y015560D01*
X011307Y015463D01*
X011259Y015415D01*
X011162Y015415D01*
X011114Y015463D01*
X011114Y015705D02*
X011307Y015705D01*
X010621Y015415D02*
X010573Y015415D01*
X010525Y015463D01*
X012079Y015913D02*
X012128Y015865D01*
X012321Y015865D01*
X012370Y015913D01*
X012370Y016010D01*
X012321Y016058D01*
X012370Y016160D02*
X012176Y016353D01*
X012128Y016353D01*
X012079Y016305D01*
X012079Y016208D01*
X012128Y016160D01*
X012128Y016058D02*
X012079Y016010D01*
X012079Y015913D01*
X012370Y016160D02*
X012370Y016353D01*
X012224Y016454D02*
X012224Y016648D01*
X012079Y016599D02*
X012224Y016454D01*
X012370Y016599D02*
X012079Y016599D01*
X011757Y008265D02*
X011757Y007975D01*
X011853Y007975D02*
X011660Y007975D01*
X011559Y007975D02*
X011365Y007975D01*
X011365Y008265D01*
X011264Y008217D02*
X011264Y008120D01*
X011216Y008072D01*
X011071Y008072D01*
X011167Y008072D02*
X011264Y007975D01*
X011071Y007975D02*
X011071Y008265D01*
X011216Y008265D01*
X011264Y008217D01*
X011660Y008168D02*
X011757Y008265D01*
X007093Y008247D02*
X007045Y008295D01*
X006948Y008295D01*
X006900Y008247D01*
X007093Y008247D02*
X007093Y008198D01*
X006900Y008005D01*
X007093Y008005D01*
X006799Y008005D02*
X006605Y008005D01*
X006605Y008295D01*
X006504Y008247D02*
X006504Y008150D01*
X006456Y008102D01*
X006311Y008102D01*
X006407Y008102D02*
X006504Y008005D01*
X006311Y008005D02*
X006311Y008295D01*
X006456Y008295D01*
X006504Y008247D01*
X014075Y002565D02*
X014075Y002372D01*
X014171Y002275D01*
X014268Y002372D01*
X014268Y002565D01*
X014369Y002468D02*
X014466Y002565D01*
X014466Y002275D01*
X014369Y002275D02*
X014563Y002275D01*
X014646Y000605D02*
X014646Y000315D01*
X014549Y000315D02*
X014743Y000315D01*
X014549Y000508D02*
X014646Y000605D01*
X014448Y000605D02*
X014255Y000605D01*
X014255Y000315D01*
X014255Y000460D02*
X014351Y000460D01*
X016853Y006802D02*
X016853Y007092D01*
X016853Y006947D02*
X017047Y006947D01*
X017047Y007092D02*
X017047Y006802D01*
X017148Y006802D02*
X017244Y006802D01*
X017196Y006802D02*
X017196Y007092D01*
X017148Y007092D02*
X017244Y007092D01*
X017344Y007092D02*
X017344Y006802D01*
X017538Y006802D01*
X017639Y006802D02*
X017736Y006802D01*
X017687Y006802D02*
X017687Y007092D01*
X017639Y007092D02*
X017736Y007092D01*
X017835Y007092D02*
X018029Y006802D01*
X018029Y007092D01*
X018130Y007092D02*
X018130Y006802D01*
X018130Y006899D02*
X018323Y007092D01*
X018178Y006947D02*
X018323Y006802D01*
X017835Y006802D02*
X017835Y007092D01*
D13*
X018260Y005350D02*
X017260Y005350D01*
X017231Y003877D02*
X013688Y003877D01*
X013680Y003870D02*
X013680Y002240D01*
X013688Y002223D02*
X017231Y002223D01*
X017240Y002230D02*
X017240Y003860D01*
X017560Y003550D02*
X021660Y003550D01*
X021660Y000350D01*
X017560Y000350D01*
X017560Y003550D01*
X017660Y002950D02*
X021560Y002950D01*
X021560Y000950D01*
X017660Y000950D01*
X017660Y002950D01*
X017130Y001890D02*
X017130Y000310D01*
X017125Y000313D02*
X013834Y000313D01*
X013830Y000310D02*
X013830Y001880D01*
X013834Y001887D02*
X017125Y001887D01*
X017709Y001950D02*
X017711Y002010D01*
X017717Y002069D01*
X017727Y002128D01*
X017740Y002186D01*
X017758Y002243D01*
X017779Y002298D01*
X017804Y002352D01*
X017832Y002405D01*
X017864Y002455D01*
X017899Y002503D01*
X017937Y002549D01*
X017978Y002592D01*
X018022Y002633D01*
X018068Y002670D01*
X018117Y002704D01*
X018168Y002735D01*
X018221Y002763D01*
X018276Y002787D01*
X018332Y002807D01*
X018389Y002823D01*
X018447Y002836D01*
X018506Y002845D01*
X018565Y002850D01*
X018625Y002851D01*
X018684Y002848D01*
X018744Y002841D01*
X018802Y002830D01*
X018860Y002816D01*
X018917Y002797D01*
X018972Y002775D01*
X019026Y002749D01*
X019078Y002720D01*
X019127Y002688D01*
X019175Y002652D01*
X019220Y002613D01*
X019263Y002571D01*
X019302Y002527D01*
X019339Y002480D01*
X019372Y002430D01*
X019402Y002379D01*
X019429Y002326D01*
X019452Y002271D01*
X019471Y002214D01*
X019487Y002157D01*
X019499Y002098D01*
X019507Y002039D01*
X019511Y001980D01*
X019511Y001920D01*
X019507Y001861D01*
X019499Y001802D01*
X019487Y001743D01*
X019471Y001686D01*
X019452Y001629D01*
X019429Y001574D01*
X019402Y001521D01*
X019372Y001470D01*
X019339Y001420D01*
X019302Y001373D01*
X019263Y001329D01*
X019220Y001287D01*
X019175Y001248D01*
X019127Y001212D01*
X019078Y001180D01*
X019026Y001151D01*
X018972Y001125D01*
X018917Y001103D01*
X018860Y001084D01*
X018802Y001070D01*
X018744Y001059D01*
X018684Y001052D01*
X018625Y001049D01*
X018565Y001050D01*
X018506Y001055D01*
X018447Y001064D01*
X018389Y001077D01*
X018332Y001093D01*
X018276Y001113D01*
X018221Y001137D01*
X018168Y001165D01*
X018117Y001196D01*
X018068Y001230D01*
X018022Y001267D01*
X017978Y001308D01*
X017937Y001351D01*
X017899Y001397D01*
X017864Y001445D01*
X017832Y001495D01*
X017804Y001548D01*
X017779Y001602D01*
X017758Y001657D01*
X017740Y001714D01*
X017727Y001772D01*
X017717Y001831D01*
X017711Y001890D01*
X017709Y001950D01*
X019709Y001950D02*
X019711Y002010D01*
X019717Y002069D01*
X019727Y002128D01*
X019740Y002186D01*
X019758Y002243D01*
X019779Y002298D01*
X019804Y002352D01*
X019832Y002405D01*
X019864Y002455D01*
X019899Y002503D01*
X019937Y002549D01*
X019978Y002592D01*
X020022Y002633D01*
X020068Y002670D01*
X020117Y002704D01*
X020168Y002735D01*
X020221Y002763D01*
X020276Y002787D01*
X020332Y002807D01*
X020389Y002823D01*
X020447Y002836D01*
X020506Y002845D01*
X020565Y002850D01*
X020625Y002851D01*
X020684Y002848D01*
X020744Y002841D01*
X020802Y002830D01*
X020860Y002816D01*
X020917Y002797D01*
X020972Y002775D01*
X021026Y002749D01*
X021078Y002720D01*
X021127Y002688D01*
X021175Y002652D01*
X021220Y002613D01*
X021263Y002571D01*
X021302Y002527D01*
X021339Y002480D01*
X021372Y002430D01*
X021402Y002379D01*
X021429Y002326D01*
X021452Y002271D01*
X021471Y002214D01*
X021487Y002157D01*
X021499Y002098D01*
X021507Y002039D01*
X021511Y001980D01*
X021511Y001920D01*
X021507Y001861D01*
X021499Y001802D01*
X021487Y001743D01*
X021471Y001686D01*
X021452Y001629D01*
X021429Y001574D01*
X021402Y001521D01*
X021372Y001470D01*
X021339Y001420D01*
X021302Y001373D01*
X021263Y001329D01*
X021220Y001287D01*
X021175Y001248D01*
X021127Y001212D01*
X021078Y001180D01*
X021026Y001151D01*
X020972Y001125D01*
X020917Y001103D01*
X020860Y001084D01*
X020802Y001070D01*
X020744Y001059D01*
X020684Y001052D01*
X020625Y001049D01*
X020565Y001050D01*
X020506Y001055D01*
X020447Y001064D01*
X020389Y001077D01*
X020332Y001093D01*
X020276Y001113D01*
X020221Y001137D01*
X020168Y001165D01*
X020117Y001196D01*
X020068Y001230D01*
X020022Y001267D01*
X019978Y001308D01*
X019937Y001351D01*
X019899Y001397D01*
X019864Y001445D01*
X019832Y001495D01*
X019804Y001548D01*
X019779Y001602D01*
X019758Y001657D01*
X019740Y001714D01*
X019727Y001772D01*
X019717Y001831D01*
X019711Y001890D01*
X019709Y001950D01*
X021736Y004157D02*
X021736Y017543D01*
X013783Y017543D01*
X013783Y004157D01*
X021736Y004157D01*
X013560Y003500D02*
X013560Y000300D01*
X009460Y000300D01*
X009460Y003500D01*
X013560Y003500D01*
X013460Y002900D02*
X009560Y002900D01*
X009560Y000900D01*
X013460Y000900D01*
X013460Y002900D01*
X011609Y001900D02*
X011611Y001960D01*
X011617Y002019D01*
X011627Y002078D01*
X011640Y002136D01*
X011658Y002193D01*
X011679Y002248D01*
X011704Y002302D01*
X011732Y002355D01*
X011764Y002405D01*
X011799Y002453D01*
X011837Y002499D01*
X011878Y002542D01*
X011922Y002583D01*
X011968Y002620D01*
X012017Y002654D01*
X012068Y002685D01*
X012121Y002713D01*
X012176Y002737D01*
X012232Y002757D01*
X012289Y002773D01*
X012347Y002786D01*
X012406Y002795D01*
X012465Y002800D01*
X012525Y002801D01*
X012584Y002798D01*
X012644Y002791D01*
X012702Y002780D01*
X012760Y002766D01*
X012817Y002747D01*
X012872Y002725D01*
X012926Y002699D01*
X012978Y002670D01*
X013027Y002638D01*
X013075Y002602D01*
X013120Y002563D01*
X013163Y002521D01*
X013202Y002477D01*
X013239Y002430D01*
X013272Y002380D01*
X013302Y002329D01*
X013329Y002276D01*
X013352Y002221D01*
X013371Y002164D01*
X013387Y002107D01*
X013399Y002048D01*
X013407Y001989D01*
X013411Y001930D01*
X013411Y001870D01*
X013407Y001811D01*
X013399Y001752D01*
X013387Y001693D01*
X013371Y001636D01*
X013352Y001579D01*
X013329Y001524D01*
X013302Y001471D01*
X013272Y001420D01*
X013239Y001370D01*
X013202Y001323D01*
X013163Y001279D01*
X013120Y001237D01*
X013075Y001198D01*
X013027Y001162D01*
X012978Y001130D01*
X012926Y001101D01*
X012872Y001075D01*
X012817Y001053D01*
X012760Y001034D01*
X012702Y001020D01*
X012644Y001009D01*
X012584Y001002D01*
X012525Y000999D01*
X012465Y001000D01*
X012406Y001005D01*
X012347Y001014D01*
X012289Y001027D01*
X012232Y001043D01*
X012176Y001063D01*
X012121Y001087D01*
X012068Y001115D01*
X012017Y001146D01*
X011968Y001180D01*
X011922Y001217D01*
X011878Y001258D01*
X011837Y001301D01*
X011799Y001347D01*
X011764Y001395D01*
X011732Y001445D01*
X011704Y001498D01*
X011679Y001552D01*
X011658Y001607D01*
X011640Y001664D01*
X011627Y001722D01*
X011617Y001781D01*
X011611Y001840D01*
X011609Y001900D01*
X009609Y001900D02*
X009611Y001960D01*
X009617Y002019D01*
X009627Y002078D01*
X009640Y002136D01*
X009658Y002193D01*
X009679Y002248D01*
X009704Y002302D01*
X009732Y002355D01*
X009764Y002405D01*
X009799Y002453D01*
X009837Y002499D01*
X009878Y002542D01*
X009922Y002583D01*
X009968Y002620D01*
X010017Y002654D01*
X010068Y002685D01*
X010121Y002713D01*
X010176Y002737D01*
X010232Y002757D01*
X010289Y002773D01*
X010347Y002786D01*
X010406Y002795D01*
X010465Y002800D01*
X010525Y002801D01*
X010584Y002798D01*
X010644Y002791D01*
X010702Y002780D01*
X010760Y002766D01*
X010817Y002747D01*
X010872Y002725D01*
X010926Y002699D01*
X010978Y002670D01*
X011027Y002638D01*
X011075Y002602D01*
X011120Y002563D01*
X011163Y002521D01*
X011202Y002477D01*
X011239Y002430D01*
X011272Y002380D01*
X011302Y002329D01*
X011329Y002276D01*
X011352Y002221D01*
X011371Y002164D01*
X011387Y002107D01*
X011399Y002048D01*
X011407Y001989D01*
X011411Y001930D01*
X011411Y001870D01*
X011407Y001811D01*
X011399Y001752D01*
X011387Y001693D01*
X011371Y001636D01*
X011352Y001579D01*
X011329Y001524D01*
X011302Y001471D01*
X011272Y001420D01*
X011239Y001370D01*
X011202Y001323D01*
X011163Y001279D01*
X011120Y001237D01*
X011075Y001198D01*
X011027Y001162D01*
X010978Y001130D01*
X010926Y001101D01*
X010872Y001075D01*
X010817Y001053D01*
X010760Y001034D01*
X010702Y001020D01*
X010644Y001009D01*
X010584Y001002D01*
X010525Y000999D01*
X010465Y001000D01*
X010406Y001005D01*
X010347Y001014D01*
X010289Y001027D01*
X010232Y001043D01*
X010176Y001063D01*
X010121Y001087D01*
X010068Y001115D01*
X010017Y001146D01*
X009968Y001180D01*
X009922Y001217D01*
X009878Y001258D01*
X009837Y001301D01*
X009799Y001347D01*
X009764Y001395D01*
X009732Y001445D01*
X009704Y001498D01*
X009679Y001552D01*
X009658Y001607D01*
X009640Y001664D01*
X009627Y001722D01*
X009617Y001781D01*
X009611Y001840D01*
X009609Y001900D01*
X008810Y002900D02*
X004910Y002900D01*
X004910Y000900D01*
X008810Y000900D01*
X008810Y002900D01*
X008910Y003500D02*
X004810Y003500D01*
X004810Y000300D01*
X008910Y000300D01*
X008910Y003500D01*
X006959Y001900D02*
X006961Y001960D01*
X006967Y002019D01*
X006977Y002078D01*
X006990Y002136D01*
X007008Y002193D01*
X007029Y002248D01*
X007054Y002302D01*
X007082Y002355D01*
X007114Y002405D01*
X007149Y002453D01*
X007187Y002499D01*
X007228Y002542D01*
X007272Y002583D01*
X007318Y002620D01*
X007367Y002654D01*
X007418Y002685D01*
X007471Y002713D01*
X007526Y002737D01*
X007582Y002757D01*
X007639Y002773D01*
X007697Y002786D01*
X007756Y002795D01*
X007815Y002800D01*
X007875Y002801D01*
X007934Y002798D01*
X007994Y002791D01*
X008052Y002780D01*
X008110Y002766D01*
X008167Y002747D01*
X008222Y002725D01*
X008276Y002699D01*
X008328Y002670D01*
X008377Y002638D01*
X008425Y002602D01*
X008470Y002563D01*
X008513Y002521D01*
X008552Y002477D01*
X008589Y002430D01*
X008622Y002380D01*
X008652Y002329D01*
X008679Y002276D01*
X008702Y002221D01*
X008721Y002164D01*
X008737Y002107D01*
X008749Y002048D01*
X008757Y001989D01*
X008761Y001930D01*
X008761Y001870D01*
X008757Y001811D01*
X008749Y001752D01*
X008737Y001693D01*
X008721Y001636D01*
X008702Y001579D01*
X008679Y001524D01*
X008652Y001471D01*
X008622Y001420D01*
X008589Y001370D01*
X008552Y001323D01*
X008513Y001279D01*
X008470Y001237D01*
X008425Y001198D01*
X008377Y001162D01*
X008328Y001130D01*
X008276Y001101D01*
X008222Y001075D01*
X008167Y001053D01*
X008110Y001034D01*
X008052Y001020D01*
X007994Y001009D01*
X007934Y001002D01*
X007875Y000999D01*
X007815Y001000D01*
X007756Y001005D01*
X007697Y001014D01*
X007639Y001027D01*
X007582Y001043D01*
X007526Y001063D01*
X007471Y001087D01*
X007418Y001115D01*
X007367Y001146D01*
X007318Y001180D01*
X007272Y001217D01*
X007228Y001258D01*
X007187Y001301D01*
X007149Y001347D01*
X007114Y001395D01*
X007082Y001445D01*
X007054Y001498D01*
X007029Y001552D01*
X007008Y001607D01*
X006990Y001664D01*
X006977Y001722D01*
X006967Y001781D01*
X006961Y001840D01*
X006959Y001900D01*
X004959Y001900D02*
X004961Y001960D01*
X004967Y002019D01*
X004977Y002078D01*
X004990Y002136D01*
X005008Y002193D01*
X005029Y002248D01*
X005054Y002302D01*
X005082Y002355D01*
X005114Y002405D01*
X005149Y002453D01*
X005187Y002499D01*
X005228Y002542D01*
X005272Y002583D01*
X005318Y002620D01*
X005367Y002654D01*
X005418Y002685D01*
X005471Y002713D01*
X005526Y002737D01*
X005582Y002757D01*
X005639Y002773D01*
X005697Y002786D01*
X005756Y002795D01*
X005815Y002800D01*
X005875Y002801D01*
X005934Y002798D01*
X005994Y002791D01*
X006052Y002780D01*
X006110Y002766D01*
X006167Y002747D01*
X006222Y002725D01*
X006276Y002699D01*
X006328Y002670D01*
X006377Y002638D01*
X006425Y002602D01*
X006470Y002563D01*
X006513Y002521D01*
X006552Y002477D01*
X006589Y002430D01*
X006622Y002380D01*
X006652Y002329D01*
X006679Y002276D01*
X006702Y002221D01*
X006721Y002164D01*
X006737Y002107D01*
X006749Y002048D01*
X006757Y001989D01*
X006761Y001930D01*
X006761Y001870D01*
X006757Y001811D01*
X006749Y001752D01*
X006737Y001693D01*
X006721Y001636D01*
X006702Y001579D01*
X006679Y001524D01*
X006652Y001471D01*
X006622Y001420D01*
X006589Y001370D01*
X006552Y001323D01*
X006513Y001279D01*
X006470Y001237D01*
X006425Y001198D01*
X006377Y001162D01*
X006328Y001130D01*
X006276Y001101D01*
X006222Y001075D01*
X006167Y001053D01*
X006110Y001034D01*
X006052Y001020D01*
X005994Y001009D01*
X005934Y001002D01*
X005875Y000999D01*
X005815Y001000D01*
X005756Y001005D01*
X005697Y001014D01*
X005639Y001027D01*
X005582Y001043D01*
X005526Y001063D01*
X005471Y001087D01*
X005418Y001115D01*
X005367Y001146D01*
X005318Y001180D01*
X005272Y001217D01*
X005228Y001258D01*
X005187Y001301D01*
X005149Y001347D01*
X005114Y001395D01*
X005082Y001445D01*
X005054Y001498D01*
X005029Y001552D01*
X005008Y001607D01*
X004990Y001664D01*
X004977Y001722D01*
X004967Y001781D01*
X004961Y001840D01*
X004959Y001900D01*
X011883Y016699D02*
X013536Y016699D01*
X013143Y017171D02*
X013143Y017329D01*
X013142Y017329D02*
X013140Y017357D01*
X013135Y017385D01*
X013127Y017413D01*
X013115Y017439D01*
X013100Y017463D01*
X013083Y017485D01*
X013062Y017506D01*
X013040Y017523D01*
X013016Y017538D01*
X012990Y017550D01*
X012962Y017558D01*
X012934Y017563D01*
X012906Y017565D01*
X012513Y017565D01*
X012485Y017563D01*
X012457Y017558D01*
X012429Y017550D01*
X012403Y017538D01*
X012379Y017523D01*
X012357Y017506D01*
X012336Y017485D01*
X012319Y017463D01*
X012304Y017439D01*
X012292Y017413D01*
X012284Y017385D01*
X012279Y017357D01*
X012277Y017329D01*
X012276Y017329D02*
X012276Y017171D01*
X012277Y017171D02*
X012279Y017143D01*
X012284Y017115D01*
X012292Y017087D01*
X012304Y017061D01*
X012319Y017037D01*
X012336Y017015D01*
X012357Y016994D01*
X012379Y016977D01*
X012403Y016962D01*
X012429Y016950D01*
X012457Y016942D01*
X012485Y016937D01*
X012513Y016935D01*
X012906Y016935D01*
X012934Y016937D01*
X012962Y016942D01*
X012990Y016950D01*
X013016Y016962D01*
X013040Y016977D01*
X013062Y016994D01*
X013083Y017015D01*
X013100Y017037D01*
X013115Y017061D01*
X013127Y017087D01*
X013135Y017115D01*
X013140Y017143D01*
X013142Y017171D01*
X013536Y017801D02*
X011883Y017801D01*
D14*
X013031Y016497D02*
X013031Y016103D01*
X013188Y016103D02*
X013188Y016497D01*
X013228Y016300D02*
X013246Y016300D01*
X012991Y016300D02*
X012973Y016300D01*
X007936Y014949D02*
X007543Y014949D01*
X007543Y014791D02*
X007936Y014791D01*
X007740Y014752D02*
X007740Y014733D01*
X007740Y014988D02*
X007740Y015007D01*
D15*
X008700Y011600D02*
X004700Y011600D01*
X004700Y003600D01*
X008700Y003600D01*
X008700Y011600D01*
X009550Y011600D02*
X009550Y003600D01*
X013550Y003600D01*
X013550Y011600D01*
X009550Y011600D01*
D16*
X013706Y012750D02*
X013760Y012777D01*
X013811Y012807D01*
X013861Y012840D01*
X013909Y012875D01*
X013910Y012875D02*
X013910Y014525D01*
X013310Y014253D02*
X013310Y014147D01*
X013697Y014654D02*
X013753Y014627D01*
X013807Y014596D01*
X013859Y014562D01*
X013909Y014525D01*
X012813Y014650D02*
X012756Y014621D01*
X012700Y014588D01*
X012647Y014553D01*
X012596Y014513D01*
X012548Y014471D01*
X012502Y014426D01*
X012459Y014379D01*
X012419Y014329D01*
X012382Y014276D01*
X012349Y014221D01*
X012318Y014165D01*
X012292Y014106D01*
X012269Y014046D01*
X012249Y013985D01*
X012234Y013923D01*
X012222Y013860D01*
X012214Y013796D01*
X012210Y013732D01*
X012210Y013668D01*
X012214Y013604D01*
X012222Y013540D01*
X012234Y013477D01*
X012249Y013415D01*
X012269Y013354D01*
X012292Y013294D01*
X012318Y013235D01*
X012349Y013179D01*
X012382Y013124D01*
X012419Y013071D01*
X012459Y013021D01*
X012502Y012974D01*
X012548Y012929D01*
X012596Y012887D01*
X012647Y012847D01*
X012700Y012812D01*
X012756Y012779D01*
X012813Y012750D01*
X013310Y013147D02*
X013310Y013253D01*
D17*
X011878Y013150D02*
X011878Y012600D01*
X011878Y013150D02*
X011478Y013150D01*
X011310Y013600D02*
X009310Y013600D01*
X009272Y013150D02*
X008872Y013150D01*
X008872Y012600D01*
X009572Y011750D02*
X011178Y011750D01*
X012010Y014450D02*
X012010Y015000D01*
X011610Y015000D01*
X011310Y015250D02*
X009310Y015250D01*
X009010Y015000D02*
X008610Y015000D01*
X008610Y014450D01*
X008610Y016100D02*
X008610Y016650D01*
X009010Y016650D01*
X011610Y016650D02*
X012010Y016650D01*
X012010Y016100D01*
D18*
X007050Y014990D03*
X006764Y015127D03*
X006764Y015136D03*
X006472Y014990D03*
X005759Y015127D03*
X005759Y015136D03*
X005459Y014544D03*
X005759Y014160D03*
X005759Y014150D03*
X006044Y014296D03*
X006472Y014296D03*
X006764Y016140D03*
X006764Y016147D03*
X005759Y016147D03*
X005759Y016140D03*
X005759Y016130D03*
D19*
X005455Y015760D03*
X005755Y015160D03*
X006761Y015160D03*
X007054Y015307D03*
X006761Y014150D03*
D20*
X006472Y014299D03*
X006472Y014301D03*
X006044Y014301D03*
X006044Y014299D03*
X005759Y014162D03*
X005759Y014157D03*
X005759Y014155D03*
X005759Y014152D03*
X005459Y014546D03*
X005459Y014548D03*
X005759Y015124D03*
X005759Y015129D03*
X005759Y015132D03*
X005759Y015134D03*
X005759Y015139D03*
X005759Y015141D03*
X005759Y015163D03*
X005759Y015165D03*
X005759Y015168D03*
X006472Y014995D03*
X006472Y014992D03*
X006764Y015124D03*
X006764Y015129D03*
X006764Y015132D03*
X006764Y015134D03*
X006764Y015139D03*
X006764Y015141D03*
X007050Y014995D03*
X007050Y014992D03*
X006764Y016137D03*
X006764Y016142D03*
X006764Y016144D03*
X005759Y016144D03*
X005759Y016142D03*
X005759Y016137D03*
X005759Y016135D03*
X005759Y016132D03*
D21*
X005455Y015758D03*
X005455Y015756D03*
X005755Y015158D03*
X005755Y015156D03*
X006761Y015156D03*
X006761Y015158D03*
X007054Y015304D03*
X006761Y014155D03*
X006761Y014152D03*
D22*
X006761Y014157D03*
X006761Y014162D03*
X006761Y014164D03*
X006761Y014169D03*
X006761Y014172D03*
X006761Y014174D03*
X006761Y014179D03*
X006761Y014181D03*
X006761Y014186D03*
X006761Y014188D03*
X007061Y014546D03*
X007061Y014548D03*
X006761Y015112D03*
X006761Y015115D03*
X006761Y015117D03*
X006761Y015122D03*
X006761Y015163D03*
X006761Y015165D03*
X006761Y015168D03*
X006761Y015172D03*
X006761Y015175D03*
X006761Y015177D03*
X006761Y015182D03*
X006761Y015184D03*
X006761Y015189D03*
X006761Y015192D03*
X006761Y015194D03*
X006761Y015199D03*
X006761Y015201D03*
X006475Y015309D03*
X006475Y015312D03*
X006475Y015314D03*
X007061Y015751D03*
X006761Y016123D03*
X006761Y016125D03*
X006761Y016128D03*
X006761Y016132D03*
X006761Y016135D03*
X006475Y015998D03*
X006475Y015996D03*
X005755Y015194D03*
X005755Y015192D03*
X005755Y015189D03*
X005755Y015184D03*
X005755Y015182D03*
X005755Y015177D03*
X005755Y015175D03*
X005755Y015172D03*
X005755Y015122D03*
X005755Y015117D03*
X005467Y015309D03*
X005467Y015312D03*
X005467Y015314D03*
X005755Y014188D03*
X005755Y014186D03*
X005755Y014181D03*
X005755Y014179D03*
X005755Y014174D03*
X005755Y014172D03*
X005755Y014169D03*
X005755Y014164D03*
D23*
X005755Y014167D03*
X005755Y014176D03*
X005755Y014184D03*
X005755Y015120D03*
X005755Y015170D03*
X005755Y015180D03*
X005755Y015187D03*
X006761Y015187D03*
X006761Y015180D03*
X006761Y015170D03*
X006761Y015196D03*
X006761Y015120D03*
X006761Y015110D03*
X007061Y014544D03*
X006761Y014184D03*
X006761Y014176D03*
X006761Y014167D03*
X006761Y014160D03*
X007061Y015753D03*
X006761Y016130D03*
X006475Y016000D03*
D24*
X005758Y016089D03*
X005758Y016092D03*
X005758Y016094D03*
X005758Y016099D03*
X005758Y016101D03*
X005758Y016106D03*
X005758Y016108D03*
X005758Y016111D03*
X005758Y016116D03*
X005758Y016118D03*
X005758Y016123D03*
X005758Y016125D03*
X005758Y016128D03*
X005758Y015208D03*
X005758Y015206D03*
X005758Y015201D03*
X005758Y015199D03*
X005758Y015115D03*
X005758Y015112D03*
X005758Y015108D03*
X005758Y015105D03*
X005758Y015103D03*
X005758Y015098D03*
X005758Y015096D03*
X005758Y015091D03*
X005758Y015088D03*
X005758Y015086D03*
X005758Y014196D03*
X005758Y014191D03*
X007051Y014983D03*
X007051Y014985D03*
X007051Y014988D03*
X007051Y015309D03*
X007051Y015312D03*
X007051Y015314D03*
D25*
X006761Y015235D03*
X006761Y015232D03*
X006761Y015228D03*
X006761Y015225D03*
X006761Y015223D03*
X006761Y015218D03*
X006761Y015216D03*
X006761Y015211D03*
X006761Y015208D03*
X006761Y015206D03*
X006761Y015088D03*
X006761Y015086D03*
X006761Y015081D03*
X006761Y015079D03*
X006761Y014224D03*
X006761Y014222D03*
X006761Y014217D03*
X006761Y014215D03*
X006761Y014212D03*
X006761Y014208D03*
X006761Y014205D03*
X006761Y014203D03*
X006761Y014198D03*
X006761Y014196D03*
X006761Y014191D03*
X006048Y015991D03*
X006761Y016084D03*
X006761Y016089D03*
X006761Y016092D03*
X006761Y016094D03*
D26*
X005758Y016096D03*
X005758Y016104D03*
X005758Y016113D03*
X005758Y016120D03*
X005758Y015204D03*
X005758Y015196D03*
X005758Y015110D03*
X005758Y015100D03*
X005758Y015093D03*
X005758Y015084D03*
X005758Y014193D03*
D27*
X006761Y014193D03*
X006761Y014200D03*
X006761Y014210D03*
X006761Y014220D03*
X006761Y014227D03*
X006761Y015076D03*
X006761Y015084D03*
X006761Y015204D03*
X006761Y015213D03*
X006761Y015220D03*
X006761Y015230D03*
X006048Y015993D03*
X006761Y016087D03*
D28*
X006474Y015991D03*
X006474Y015321D03*
X006474Y015319D03*
X006474Y014988D03*
X006474Y014985D03*
X006474Y014983D03*
X005754Y015211D03*
X005754Y015216D03*
X005754Y015218D03*
X005754Y015223D03*
X005754Y015225D03*
X005754Y015228D03*
X005754Y014222D03*
X005754Y014217D03*
X005754Y014215D03*
X005754Y014212D03*
X005754Y014208D03*
X005754Y014205D03*
X005754Y014203D03*
X005754Y014198D03*
D29*
X005754Y014200D03*
X005754Y014210D03*
X005754Y014220D03*
X005754Y015213D03*
X005754Y015220D03*
X006474Y015316D03*
X006474Y015993D03*
D30*
X005758Y016056D03*
X005758Y016058D03*
X005758Y016063D03*
X005758Y016065D03*
X005758Y016068D03*
X005758Y016072D03*
X005758Y016075D03*
X005758Y016077D03*
X005758Y016082D03*
X005758Y016084D03*
X005758Y015242D03*
X005758Y015237D03*
X005758Y015235D03*
X005758Y015232D03*
X005758Y015081D03*
X005758Y015079D03*
X005758Y015074D03*
X005758Y015072D03*
X005758Y015069D03*
X005758Y015064D03*
X005758Y015062D03*
X005758Y015057D03*
X005758Y015055D03*
X005758Y015052D03*
X005758Y014234D03*
X005758Y014232D03*
X005758Y014229D03*
X005758Y014224D03*
X007058Y014551D03*
D31*
X007058Y014553D03*
X005758Y014227D03*
X005758Y015050D03*
X005758Y015060D03*
X005758Y015067D03*
X005758Y015076D03*
X005758Y015230D03*
X005758Y015240D03*
X005758Y016060D03*
X005758Y016070D03*
X005758Y016080D03*
X005758Y016087D03*
D32*
X005754Y015261D03*
X005754Y015259D03*
X005754Y015254D03*
X005754Y015252D03*
X005754Y015249D03*
X005754Y015244D03*
X005754Y015048D03*
X005754Y015045D03*
X005754Y015043D03*
X005468Y014978D03*
X005468Y014976D03*
X005754Y014256D03*
X005754Y014251D03*
X005754Y014248D03*
X005754Y014246D03*
X005754Y014241D03*
X005754Y014239D03*
X006042Y014311D03*
X006042Y014316D03*
X006474Y014316D03*
X006474Y014311D03*
X006762Y014258D03*
X006762Y014256D03*
X006762Y014251D03*
X006762Y014248D03*
X006762Y014246D03*
X006762Y014241D03*
X006762Y014239D03*
X006762Y014234D03*
X006762Y014232D03*
X006762Y014229D03*
X006474Y014976D03*
X006474Y014978D03*
X006762Y015043D03*
X006762Y015045D03*
X006762Y015048D03*
X006762Y015052D03*
X006762Y015055D03*
X006762Y015237D03*
X006762Y015242D03*
X006762Y015244D03*
X006762Y015249D03*
X006762Y015252D03*
X006762Y015254D03*
X006762Y015259D03*
X006762Y015261D03*
X006762Y015266D03*
X006762Y015268D03*
X006762Y016051D03*
X006762Y016056D03*
X006762Y016058D03*
D33*
X006762Y016060D03*
X006762Y016053D03*
X006762Y015264D03*
X006762Y015256D03*
X006762Y015247D03*
X006762Y015240D03*
X006762Y015050D03*
X006474Y014980D03*
X006474Y014313D03*
X006762Y014260D03*
X006762Y014253D03*
X006762Y014244D03*
X006762Y014236D03*
X006042Y014313D03*
X005754Y014253D03*
X005754Y014244D03*
X005754Y014236D03*
X005468Y014980D03*
X005754Y015247D03*
X005754Y015256D03*
D34*
X006059Y015259D03*
X006059Y015261D03*
X006059Y015038D03*
X006059Y015036D03*
X005411Y015799D03*
X005411Y015801D03*
X006810Y015784D03*
X007110Y015799D03*
X007110Y015801D03*
X007064Y015261D03*
X007064Y015259D03*
X007064Y015038D03*
X007064Y015036D03*
X006457Y014256D03*
X006457Y014251D03*
X006059Y014251D03*
X006059Y014256D03*
D35*
X006059Y014253D03*
X006457Y014253D03*
X006059Y015040D03*
X006059Y015256D03*
X005411Y015796D03*
X006810Y015787D03*
X007110Y015796D03*
X007064Y015256D03*
X007064Y015040D03*
D36*
X006478Y015326D03*
X006478Y015328D03*
X005758Y015278D03*
X005758Y015276D03*
X005758Y015271D03*
X005758Y015268D03*
X005758Y015266D03*
X005758Y015038D03*
X005758Y015036D03*
X005758Y015031D03*
X005758Y015028D03*
X005758Y015026D03*
X005758Y015021D03*
X005758Y015019D03*
X005472Y015326D03*
X005472Y015328D03*
X005758Y016029D03*
X005758Y016032D03*
X005758Y016034D03*
X005758Y016039D03*
X005758Y016041D03*
X005758Y016046D03*
X005758Y016048D03*
X005758Y016051D03*
X005758Y014268D03*
X005758Y014265D03*
X005758Y014263D03*
X005758Y014258D03*
D37*
X006054Y014258D03*
X006054Y015031D03*
X006054Y015266D03*
X006054Y015268D03*
X007100Y015789D03*
X007100Y015792D03*
X007100Y015794D03*
D38*
X007061Y015268D03*
X007061Y015266D03*
X007061Y015031D03*
X006461Y014258D03*
X005714Y014512D03*
X005714Y014515D03*
X005422Y015789D03*
X005422Y015792D03*
X005422Y015794D03*
D39*
X005758Y016036D03*
X005758Y016044D03*
X005758Y016053D03*
X005758Y015280D03*
X005758Y015273D03*
X005758Y015264D03*
X005758Y015040D03*
X005758Y015033D03*
X005758Y015024D03*
X005758Y015016D03*
X005472Y015324D03*
X006478Y015324D03*
X005758Y014260D03*
D40*
X006054Y014260D03*
X006054Y015033D03*
X006054Y015264D03*
D41*
X005714Y014510D03*
X006461Y014260D03*
X007061Y015033D03*
X007061Y015264D03*
D42*
X007062Y015271D03*
X007062Y015028D03*
X007062Y015026D03*
X007093Y014515D03*
X007093Y014512D03*
X006462Y014268D03*
X006462Y014265D03*
X006462Y014263D03*
X006054Y014263D03*
X006054Y014265D03*
X006054Y014268D03*
X005420Y014512D03*
X005420Y014515D03*
X006054Y015026D03*
X006054Y015028D03*
X006054Y015271D03*
X007093Y015784D03*
D43*
X006761Y015288D03*
X006761Y015285D03*
X006761Y015283D03*
X006761Y015278D03*
X006761Y015276D03*
X006041Y015326D03*
X006041Y015328D03*
X005755Y015288D03*
X005755Y015285D03*
X005755Y015283D03*
X005755Y014275D03*
X005755Y014272D03*
X006761Y014272D03*
X006761Y014275D03*
X006761Y014268D03*
X006761Y014265D03*
X006761Y014263D03*
D44*
X006761Y014270D03*
X005755Y014270D03*
X006041Y015324D03*
X006761Y015280D03*
D45*
X006052Y015016D03*
X006052Y014270D03*
X006464Y014270D03*
D46*
X006464Y014272D03*
X006464Y014275D03*
X006052Y014275D03*
X006052Y014272D03*
X006052Y015019D03*
X006052Y015021D03*
D47*
X005752Y014282D03*
X005752Y014277D03*
D48*
X006052Y014277D03*
X006052Y014282D03*
X006464Y014282D03*
X006464Y014277D03*
X007084Y014524D03*
X007057Y015009D03*
X007057Y015012D03*
X007057Y015014D03*
X007057Y015283D03*
X007057Y015285D03*
X007057Y015288D03*
X006052Y015288D03*
X006052Y015285D03*
X006052Y015283D03*
X006052Y015014D03*
X006052Y015012D03*
X006052Y015009D03*
D49*
X006768Y015004D03*
X006768Y014282D03*
X006768Y014277D03*
D50*
X005752Y014280D03*
D51*
X006052Y014280D03*
X006464Y014280D03*
X007084Y014527D03*
D52*
X006768Y014280D03*
X006768Y015007D03*
D53*
X005748Y014284D03*
D54*
X006048Y014284D03*
D55*
X006467Y014284D03*
X007074Y014529D03*
X007074Y014532D03*
X007074Y014534D03*
X006467Y015004D03*
X007074Y015763D03*
X007074Y015765D03*
X007074Y015768D03*
D56*
X005444Y014568D03*
X005444Y014565D03*
X005444Y014563D03*
X006772Y014284D03*
D57*
X005748Y014287D03*
D58*
X006048Y014287D03*
D59*
X006467Y014287D03*
X006467Y015007D03*
D60*
X006772Y014287D03*
D61*
X006768Y014289D03*
X006768Y014292D03*
X006768Y014294D03*
X007001Y014736D03*
X007001Y014738D03*
X006768Y014992D03*
X006768Y014995D03*
X005748Y014294D03*
X005748Y014292D03*
X005748Y014289D03*
X005534Y014752D03*
X005534Y014755D03*
X005534Y015544D03*
D62*
X006048Y015302D03*
X006048Y015297D03*
X006048Y015002D03*
X006048Y014997D03*
X005448Y014541D03*
X005448Y014539D03*
X006048Y014294D03*
X006048Y014292D03*
X006048Y014289D03*
X006468Y014289D03*
X006468Y014292D03*
X006468Y014294D03*
D63*
X006564Y014520D03*
X006504Y014560D03*
X005758Y014296D03*
X007018Y015564D03*
X006758Y016000D03*
D64*
X006515Y015744D03*
X006560Y015530D03*
X005960Y015530D03*
X005960Y015780D03*
X005540Y015540D03*
X005509Y015564D03*
X005548Y014767D03*
X006762Y014296D03*
X006973Y014767D03*
D65*
X006564Y014769D03*
X006564Y014772D03*
X006564Y014774D03*
X006504Y014558D03*
X006504Y014556D03*
X006564Y014522D03*
X006564Y014517D03*
X005758Y014301D03*
X005758Y014299D03*
X007018Y015566D03*
X007018Y015568D03*
X006758Y015996D03*
X006758Y015998D03*
D66*
X006515Y015748D03*
X006515Y015746D03*
X006560Y015535D03*
X006560Y015532D03*
X005960Y015532D03*
X005960Y015535D03*
X005960Y015777D03*
X005960Y015782D03*
X005540Y015542D03*
X005540Y015537D03*
X005509Y015566D03*
X005509Y015568D03*
X005435Y015729D03*
X005435Y015732D03*
X005435Y015734D03*
X005754Y015314D03*
X005754Y015312D03*
X005754Y015309D03*
X005548Y014764D03*
X006762Y014301D03*
X006762Y014299D03*
X006973Y014764D03*
D67*
X006751Y014304D03*
X005765Y014304D03*
X005491Y014733D03*
X006571Y015787D03*
D68*
X006764Y016096D03*
X006764Y016104D03*
X006764Y016113D03*
X006764Y016120D03*
X006764Y015100D03*
X006764Y015093D03*
X006472Y014304D03*
X006044Y014304D03*
D69*
X005765Y014306D03*
X005765Y014308D03*
X005491Y014731D03*
X005558Y015523D03*
X005558Y015525D03*
X005558Y015528D03*
X006571Y015784D03*
X006958Y015528D03*
X006958Y015525D03*
X006958Y015523D03*
X006751Y014308D03*
X006751Y014306D03*
D70*
X006472Y014306D03*
X006472Y014308D03*
X006044Y014308D03*
X006044Y014306D03*
X006044Y014983D03*
X006044Y014985D03*
X006044Y014988D03*
X006044Y015309D03*
X006044Y015312D03*
X006044Y015314D03*
X006764Y015108D03*
X006764Y015105D03*
X006764Y015103D03*
X006764Y015098D03*
X006764Y015096D03*
X006764Y015091D03*
X006764Y016099D03*
X006764Y016101D03*
X006764Y016106D03*
X006764Y016108D03*
X006764Y016111D03*
X006764Y016116D03*
X006764Y016118D03*
D71*
X005778Y014316D03*
X005778Y014311D03*
D72*
X005942Y014512D03*
X005942Y014515D03*
X005942Y014779D03*
X005942Y014781D03*
X006742Y014316D03*
X006742Y014311D03*
X006022Y015739D03*
X006022Y015741D03*
D73*
X005778Y014313D03*
D74*
X005942Y014510D03*
X005942Y014776D03*
X006742Y014313D03*
X006022Y015736D03*
D75*
X005874Y015986D03*
X005874Y015988D03*
X005874Y014318D03*
D76*
X006641Y014318D03*
X006641Y015979D03*
X006641Y015981D03*
X005894Y015948D03*
X005894Y015945D03*
X005894Y015943D03*
D77*
X005874Y015984D03*
X005874Y014320D03*
D78*
X006641Y014320D03*
X006641Y015976D03*
D79*
X006628Y015955D03*
X006628Y015952D03*
X006628Y015948D03*
X006628Y015945D03*
X006628Y015943D03*
X005888Y015964D03*
X005881Y015969D03*
X005881Y015972D03*
X005881Y015974D03*
X005888Y014354D03*
X005888Y014352D03*
X005888Y014349D03*
X005881Y014328D03*
X005881Y014325D03*
X005881Y014323D03*
X006628Y014344D03*
X006628Y014349D03*
X006628Y014352D03*
X006628Y014354D03*
X006635Y014328D03*
X006635Y014325D03*
X006635Y014323D03*
D80*
X006631Y014330D03*
X006631Y014340D03*
X005885Y014330D03*
X006631Y015960D03*
X006631Y015967D03*
D81*
X006631Y015964D03*
X006631Y015962D03*
X006631Y015957D03*
X006631Y014342D03*
X006631Y014337D03*
X006631Y014335D03*
X006631Y014332D03*
X005885Y014332D03*
X005885Y014335D03*
D82*
X005892Y014337D03*
X005892Y014342D03*
X005892Y014344D03*
X005892Y015952D03*
X005892Y015955D03*
X005892Y015957D03*
X005892Y015962D03*
X006638Y015969D03*
X006638Y015972D03*
X006638Y015974D03*
D83*
X005892Y015960D03*
X005892Y015950D03*
X005892Y014347D03*
X005892Y014340D03*
D84*
X006628Y014347D03*
X006628Y015950D03*
X005888Y015967D03*
D85*
X005891Y015940D03*
X005891Y014356D03*
D86*
X006624Y014356D03*
X005878Y015976D03*
D87*
X005891Y015938D03*
X005891Y015936D03*
X005891Y014361D03*
X005891Y014359D03*
D88*
X006624Y014359D03*
X006624Y014361D03*
X005878Y015979D03*
X005878Y015981D03*
D89*
X005887Y014364D03*
D90*
X006628Y014364D03*
X006628Y015940D03*
D91*
X005887Y014368D03*
X005887Y014366D03*
D92*
X006628Y014366D03*
X006628Y014368D03*
X006628Y015936D03*
X006628Y015938D03*
D93*
X005887Y014378D03*
X005887Y014376D03*
X005887Y014371D03*
D94*
X006630Y014371D03*
X006630Y014376D03*
X006630Y015926D03*
X006630Y015928D03*
X006630Y015931D03*
X005891Y015931D03*
X005891Y015928D03*
X005891Y015926D03*
D95*
X005887Y014380D03*
X005887Y014373D03*
D96*
X006630Y014373D03*
X006630Y015924D03*
X006630Y015933D03*
X005891Y015933D03*
X005891Y015924D03*
D97*
X006628Y014378D03*
D98*
X006628Y014380D03*
D99*
X006631Y014383D03*
X006631Y014385D03*
X006631Y014388D03*
X005885Y014388D03*
X005885Y014385D03*
X005885Y014383D03*
X006631Y015919D03*
X006631Y015921D03*
D100*
X006631Y015907D03*
X005885Y015907D03*
X005885Y014400D03*
X005885Y014390D03*
X006631Y014390D03*
X006631Y014400D03*
D101*
X006631Y014402D03*
X006631Y014397D03*
X006631Y014395D03*
X006631Y014392D03*
X005885Y014392D03*
X005885Y014395D03*
X005885Y014397D03*
X005885Y014402D03*
X005885Y015904D03*
X006631Y015904D03*
D102*
X006638Y015895D03*
X006638Y015892D03*
X005885Y015892D03*
X005885Y015895D03*
X005885Y014404D03*
D103*
X006635Y014404D03*
X006635Y015897D03*
X006635Y015902D03*
D104*
X006638Y015890D03*
X005885Y015890D03*
X005885Y014407D03*
D105*
X006635Y014407D03*
X006635Y015900D03*
D106*
X006635Y015888D03*
X006635Y015885D03*
X006635Y015883D03*
X006635Y014414D03*
X006635Y014412D03*
X006635Y014409D03*
X005881Y014409D03*
X005881Y014412D03*
X005881Y014414D03*
D107*
X005885Y014416D03*
X005885Y015880D03*
D108*
X006637Y015880D03*
X006637Y014416D03*
D109*
X005885Y014419D03*
X005885Y014421D03*
X005885Y015876D03*
X005885Y015878D03*
X005885Y015883D03*
X005885Y015885D03*
X005885Y015888D03*
D110*
X006637Y015878D03*
X006637Y015876D03*
X006637Y014421D03*
X006637Y014419D03*
D111*
X006634Y014424D03*
X005882Y014424D03*
X005882Y015873D03*
D112*
X005882Y015871D03*
X005882Y014428D03*
X005882Y014426D03*
X006634Y014426D03*
X006634Y014428D03*
D113*
X006637Y014431D03*
X006637Y014436D03*
X005879Y014436D03*
X005879Y014431D03*
X006637Y015871D03*
D114*
X006637Y015873D03*
X006637Y014433D03*
X005879Y014433D03*
D115*
X005881Y014438D03*
X005881Y015859D03*
X005881Y015861D03*
X005881Y015866D03*
X005881Y015868D03*
D116*
X006638Y015861D03*
X006638Y015859D03*
X006638Y014448D03*
X006638Y014445D03*
X006638Y014443D03*
X006638Y014438D03*
X005878Y014443D03*
X005878Y014445D03*
X005878Y014448D03*
D117*
X005881Y014440D03*
X005881Y015856D03*
X005881Y015864D03*
D118*
X006638Y015856D03*
X006638Y014440D03*
D119*
X006638Y014460D03*
X006638Y014467D03*
X006624Y014493D03*
X006624Y014500D03*
X005892Y014493D03*
X005892Y014484D03*
X005878Y014460D03*
X005878Y014450D03*
X005892Y015813D03*
X005892Y015820D03*
X005878Y015840D03*
X005878Y015847D03*
X006624Y015804D03*
X006624Y015796D03*
X006638Y015830D03*
X006638Y015840D03*
D120*
X006642Y015847D03*
X006628Y015813D03*
X006642Y014450D03*
X005881Y014467D03*
D121*
X005878Y014462D03*
X005878Y014457D03*
X005878Y014455D03*
X005878Y014452D03*
X005892Y014486D03*
X005892Y014488D03*
X005892Y014491D03*
X005892Y014496D03*
X006617Y014503D03*
X006617Y014505D03*
X006617Y014508D03*
X006624Y014498D03*
X006624Y014496D03*
X006624Y014491D03*
X006638Y014464D03*
X006638Y014462D03*
X006638Y014457D03*
X006617Y015789D03*
X006617Y015792D03*
X006617Y015794D03*
X006624Y015799D03*
X006624Y015801D03*
X006624Y015806D03*
X006624Y015808D03*
X006638Y015832D03*
X006638Y015835D03*
X006638Y015837D03*
X006638Y015842D03*
X005892Y015818D03*
X005892Y015816D03*
X005892Y015811D03*
X005878Y015837D03*
X005878Y015842D03*
X005878Y015844D03*
D122*
X005881Y015849D03*
X005881Y015852D03*
X005881Y015854D03*
X006628Y015811D03*
X006642Y015844D03*
X006642Y015849D03*
X006642Y015852D03*
X006642Y015854D03*
X006642Y014455D03*
X006642Y014452D03*
X005881Y014464D03*
D123*
X005885Y014469D03*
X005885Y014472D03*
X005885Y014474D03*
X005885Y014479D03*
X005885Y014481D03*
X006631Y014481D03*
X006631Y014479D03*
X006631Y014474D03*
X006631Y014472D03*
X006631Y014469D03*
X006631Y014486D03*
X006631Y014488D03*
X006631Y015816D03*
X006631Y015818D03*
X006631Y015823D03*
X006631Y015825D03*
X006631Y015828D03*
X005885Y015828D03*
X005885Y015825D03*
X005885Y015823D03*
X005885Y015832D03*
X005885Y015835D03*
D124*
X005885Y015830D03*
X006631Y015820D03*
X006631Y014484D03*
X006631Y014476D03*
X005885Y014476D03*
D125*
X005408Y014498D03*
X005708Y015784D03*
X006061Y016051D03*
X007108Y014498D03*
D126*
X005898Y014498D03*
X005898Y014503D03*
X005898Y014505D03*
X005898Y014508D03*
X005898Y015789D03*
X005898Y015792D03*
X005898Y015794D03*
X005898Y015799D03*
X005898Y015801D03*
D127*
X005708Y015787D03*
X006061Y016053D03*
X005408Y014500D03*
X007108Y014500D03*
D128*
X005898Y014500D03*
X005898Y015796D03*
D129*
X006461Y015268D03*
X006461Y015266D03*
X006461Y015038D03*
X006461Y015036D03*
X005455Y015036D03*
X005455Y015038D03*
X005414Y014508D03*
X005414Y014505D03*
X005414Y014503D03*
D130*
X006804Y014512D03*
X006804Y014515D03*
X007104Y014508D03*
X007104Y014505D03*
X007104Y014503D03*
D131*
X007093Y014510D03*
X007062Y015024D03*
X007062Y015273D03*
X007093Y015787D03*
X006054Y015273D03*
X006054Y015024D03*
X005420Y014510D03*
D132*
X005752Y015316D03*
X005485Y015573D03*
X006491Y015573D03*
X006491Y015736D03*
X006577Y014776D03*
X006577Y014510D03*
X006952Y014776D03*
X007091Y014570D03*
D133*
X006804Y014510D03*
D134*
X006577Y014512D03*
X006577Y014515D03*
X006577Y014779D03*
X006577Y014781D03*
X006952Y014781D03*
X006952Y014779D03*
X007091Y014575D03*
X007091Y014572D03*
X006491Y015571D03*
X006491Y015739D03*
X006491Y015741D03*
X005752Y015321D03*
X005752Y015319D03*
X005485Y015571D03*
D135*
X005461Y015278D03*
X005461Y015276D03*
X005428Y014522D03*
X005428Y014517D03*
D136*
X005958Y014517D03*
X005958Y014522D03*
X005958Y014769D03*
X005958Y014772D03*
X005958Y014774D03*
X006764Y015309D03*
X006764Y015312D03*
X006764Y015314D03*
X006971Y015532D03*
X006971Y015535D03*
X006558Y015777D03*
X006558Y015782D03*
D137*
X007087Y014522D03*
X007087Y014517D03*
D138*
X005428Y014520D03*
X005461Y015280D03*
D139*
X005958Y014520D03*
X006971Y015530D03*
X006558Y015780D03*
D140*
X007087Y014520D03*
D141*
X005435Y014524D03*
X005435Y015777D03*
X005435Y015782D03*
D142*
X005758Y016003D03*
X005758Y016005D03*
X005758Y016008D03*
X006552Y015775D03*
X006552Y015772D03*
X006552Y015542D03*
X006552Y015537D03*
X006977Y015537D03*
X006977Y015542D03*
X006984Y015544D03*
X007078Y015729D03*
X007078Y015732D03*
X007078Y015734D03*
X006518Y014738D03*
X006518Y014736D03*
X005998Y014551D03*
X005964Y014524D03*
X005964Y014764D03*
D143*
X006554Y014764D03*
X006554Y014524D03*
D144*
X005435Y014527D03*
X005435Y015780D03*
D145*
X006552Y015770D03*
X006552Y015540D03*
X006977Y015540D03*
X006984Y015547D03*
X006518Y014740D03*
X005998Y014553D03*
X005964Y014527D03*
X005964Y014767D03*
D146*
X006554Y014767D03*
X006554Y014527D03*
D147*
X006052Y015004D03*
X006052Y015292D03*
X006052Y015295D03*
X005444Y014534D03*
X005444Y014532D03*
X005444Y014529D03*
D148*
X005971Y014529D03*
X005971Y014532D03*
X005971Y014534D03*
D149*
X006541Y014539D03*
X006541Y014541D03*
X006548Y014534D03*
X006548Y014532D03*
X006548Y014529D03*
X006548Y014757D03*
X006548Y014762D03*
X006988Y014755D03*
X006988Y014752D03*
X005975Y015544D03*
X005968Y015542D03*
X005968Y015537D03*
X006001Y015746D03*
X006001Y015748D03*
X005975Y015763D03*
X005975Y015765D03*
X005975Y015768D03*
X005968Y015772D03*
X005968Y015775D03*
X005528Y015554D03*
X005528Y015552D03*
X005528Y015549D03*
D150*
X006048Y015300D03*
X006048Y015000D03*
X005448Y014536D03*
D151*
X005977Y014536D03*
X005977Y014750D03*
X006997Y015556D03*
X005977Y015760D03*
D152*
X005968Y015770D03*
X006001Y015744D03*
X005975Y015547D03*
X005968Y015540D03*
X006548Y014760D03*
X006541Y014536D03*
X006988Y014750D03*
D153*
X007067Y014536D03*
D154*
X005977Y014539D03*
X005977Y014541D03*
X005977Y014752D03*
X005977Y014755D03*
X006997Y015559D03*
X006997Y015561D03*
X005977Y015756D03*
X005977Y015758D03*
D155*
X007067Y014541D03*
X007067Y014539D03*
D156*
X006524Y014553D03*
X005984Y014544D03*
X005992Y015556D03*
X006532Y015556D03*
X006532Y015753D03*
X006772Y016010D03*
D157*
X005755Y015307D03*
X006535Y014544D03*
D158*
X006524Y014551D03*
X005984Y014548D03*
X005984Y014546D03*
X005992Y015559D03*
X005992Y015561D03*
X006532Y015561D03*
X006532Y015559D03*
X006532Y015751D03*
X006772Y016012D03*
X006772Y016015D03*
D159*
X005981Y015554D03*
X005981Y015552D03*
X005981Y015549D03*
X005755Y015304D03*
X005981Y014748D03*
X005981Y014745D03*
X005981Y014743D03*
X006535Y014743D03*
X006535Y014745D03*
X006535Y014748D03*
X006535Y014548D03*
X006535Y014546D03*
D160*
X005461Y014551D03*
X005468Y014983D03*
X005468Y014985D03*
X005468Y014988D03*
X005468Y015319D03*
X005468Y015321D03*
D161*
X005468Y015316D03*
X005461Y014553D03*
D162*
X005455Y014556D03*
X005455Y014558D03*
X005755Y015004D03*
D163*
X005752Y014988D03*
X005752Y014985D03*
X005752Y014983D03*
X006018Y014558D03*
X006018Y014556D03*
X006498Y014731D03*
X006764Y014983D03*
X006764Y014985D03*
X006764Y014988D03*
D164*
X007070Y014558D03*
X007070Y014556D03*
D165*
X005755Y015007D03*
X005455Y014560D03*
D166*
X006018Y014560D03*
X006498Y014733D03*
D167*
X007070Y014560D03*
D168*
X006038Y014563D03*
X006038Y014565D03*
X006038Y014568D03*
X006038Y014726D03*
X006038Y014728D03*
X005431Y015724D03*
D169*
X006487Y014568D03*
X006487Y014565D03*
X006487Y014563D03*
X007087Y015724D03*
D170*
X006991Y015554D03*
X006991Y015552D03*
X006991Y015549D03*
X006545Y015544D03*
X006538Y015549D03*
X006538Y015552D03*
X006538Y015554D03*
X006538Y015756D03*
X006538Y015758D03*
X006545Y015763D03*
X006545Y015765D03*
X006545Y015768D03*
X005525Y015561D03*
X005525Y015559D03*
X005525Y014748D03*
X005525Y014745D03*
X005525Y014743D03*
X005971Y014757D03*
X005971Y014762D03*
X006545Y014755D03*
X006545Y014752D03*
X006991Y014748D03*
X006991Y014745D03*
X006991Y014743D03*
X007078Y014568D03*
X007078Y014565D03*
X007078Y014563D03*
D171*
X007021Y014733D03*
X005435Y014570D03*
D172*
X006061Y014570D03*
X006061Y015727D03*
D173*
X006071Y015700D03*
X006071Y015693D03*
X006071Y015684D03*
X006071Y015624D03*
X006071Y015616D03*
X006071Y015607D03*
X006052Y015580D03*
X005444Y015600D03*
X005444Y015607D03*
X005444Y014700D03*
X005444Y014690D03*
X006071Y014690D03*
X006071Y014680D03*
X006071Y014613D03*
X006071Y014604D03*
X006071Y014596D03*
X006464Y014570D03*
X007064Y014716D03*
D174*
X007021Y014731D03*
X006568Y015523D03*
X006568Y015525D03*
X006568Y015528D03*
X005948Y015528D03*
X005948Y015525D03*
X005948Y015523D03*
X005555Y014774D03*
X005555Y014772D03*
X005555Y014769D03*
X005435Y014575D03*
X005435Y014572D03*
D175*
X006061Y014572D03*
X006061Y014575D03*
X006061Y015724D03*
D176*
X006071Y015698D03*
X006071Y015696D03*
X006071Y015691D03*
X006071Y015688D03*
X006071Y015686D03*
X006071Y015628D03*
X006071Y015626D03*
X006071Y015621D03*
X006071Y015619D03*
X006071Y015614D03*
X006071Y015612D03*
X006071Y015609D03*
X006071Y015604D03*
X006052Y015578D03*
X006052Y015576D03*
X005444Y015597D03*
X005444Y015602D03*
X005444Y015604D03*
X005444Y015609D03*
X005444Y015612D03*
X005444Y015614D03*
X005444Y015703D03*
X005444Y015705D03*
X005444Y015708D03*
X005444Y014702D03*
X005444Y014697D03*
X005444Y014695D03*
X005444Y014692D03*
X006071Y014692D03*
X006071Y014695D03*
X006071Y014688D03*
X006071Y014685D03*
X006071Y014683D03*
X006071Y014678D03*
X006071Y014676D03*
X006071Y014611D03*
X006071Y014608D03*
X006071Y014606D03*
X006071Y014601D03*
X006071Y014599D03*
X006464Y014575D03*
X006464Y014572D03*
X007064Y014719D03*
X007064Y014721D03*
D177*
X007081Y014582D03*
X007081Y014577D03*
X007081Y015717D03*
X007081Y015722D03*
X005435Y014582D03*
X005435Y014577D03*
D178*
X006064Y014577D03*
X006064Y014582D03*
X006064Y014709D03*
X006064Y014712D03*
X006064Y014714D03*
X006457Y014719D03*
X006457Y014721D03*
X006457Y015583D03*
X006457Y015585D03*
X006457Y015588D03*
X006457Y015724D03*
X006064Y015722D03*
X006064Y015717D03*
X006064Y015588D03*
X006064Y015585D03*
X006064Y015583D03*
X005452Y015583D03*
X005452Y015585D03*
X005452Y015588D03*
D179*
X006067Y015592D03*
X006067Y015595D03*
X006067Y015597D03*
X006067Y015602D03*
X006067Y015703D03*
X006067Y015705D03*
X006067Y015708D03*
X006067Y015712D03*
X006067Y015715D03*
X006454Y015717D03*
X006454Y015722D03*
X006454Y015595D03*
X006454Y015592D03*
X006454Y014714D03*
X006454Y014712D03*
X006454Y014709D03*
X006454Y014704D03*
X006454Y014584D03*
X006454Y014582D03*
X006454Y014577D03*
X006067Y014584D03*
X006067Y014589D03*
X006067Y014592D03*
X006067Y014594D03*
X006067Y014697D03*
X006067Y014702D03*
X006067Y014704D03*
X005455Y014719D03*
X005455Y014721D03*
D180*
X005435Y014580D03*
X007081Y014580D03*
X007081Y015720D03*
D181*
X006457Y015727D03*
X006064Y015720D03*
X006457Y014716D03*
X006064Y014580D03*
D182*
X006067Y014587D03*
X006067Y014700D03*
X006067Y014707D03*
X006454Y014707D03*
X006454Y014587D03*
X006454Y014580D03*
X005455Y014716D03*
X006067Y015590D03*
X006067Y015600D03*
X006067Y015710D03*
X006454Y015720D03*
X006454Y015590D03*
D183*
X006448Y015619D03*
X006448Y015621D03*
X006448Y015626D03*
X006448Y015628D03*
X006448Y015631D03*
X006448Y015636D03*
X006448Y015638D03*
X006448Y015643D03*
X006448Y015645D03*
X006448Y015648D03*
X006448Y015664D03*
X006448Y015669D03*
X006448Y015672D03*
X006448Y015674D03*
X006448Y015679D03*
X006448Y015681D03*
X006448Y015686D03*
X006448Y015688D03*
X006448Y015691D03*
X007074Y015691D03*
X007074Y015688D03*
X007074Y015686D03*
X007074Y015696D03*
X007074Y015698D03*
X007074Y015703D03*
X007074Y015705D03*
X007074Y015708D03*
X007074Y015712D03*
X007074Y015715D03*
X007074Y015628D03*
X007074Y015626D03*
X007074Y015621D03*
X007074Y015619D03*
X007074Y015614D03*
X007074Y015612D03*
X007074Y015609D03*
X007074Y014695D03*
X007074Y014692D03*
X007074Y014688D03*
X007074Y014685D03*
X007074Y014683D03*
X007074Y014678D03*
X007074Y014676D03*
X007074Y014611D03*
X007074Y014608D03*
X007074Y014606D03*
X007074Y014601D03*
X007074Y014599D03*
X007074Y014594D03*
X007074Y014592D03*
X007074Y014589D03*
X007074Y014584D03*
X006448Y014606D03*
X006448Y014608D03*
X006448Y014611D03*
X006448Y014616D03*
X006448Y014618D03*
X006448Y014623D03*
X006448Y014625D03*
X006448Y014628D03*
X006448Y014632D03*
X006448Y014635D03*
X006448Y014659D03*
X006448Y014661D03*
X006448Y014666D03*
X006448Y014668D03*
X006448Y014671D03*
X006448Y014676D03*
X006448Y014678D03*
X006448Y014683D03*
X006448Y014685D03*
X006448Y014688D03*
X005754Y015326D03*
X005754Y015328D03*
X005442Y015619D03*
X005442Y015621D03*
X005442Y015626D03*
X005442Y015628D03*
X005442Y015631D03*
X005442Y015636D03*
X005442Y015638D03*
X005442Y015643D03*
X005442Y015645D03*
X005442Y015648D03*
X005442Y015664D03*
X005442Y015669D03*
X005442Y015672D03*
X005442Y015674D03*
X005442Y015679D03*
X005442Y015681D03*
X005442Y015686D03*
X005442Y015688D03*
X005442Y015691D03*
X005442Y015696D03*
X005442Y015698D03*
X005442Y015712D03*
X005442Y015715D03*
X005442Y014688D03*
X005442Y014685D03*
X005442Y014683D03*
X005442Y014678D03*
X005442Y014676D03*
X005442Y014671D03*
X005442Y014668D03*
X005442Y014666D03*
X005442Y014661D03*
X005442Y014659D03*
X005442Y014635D03*
X005442Y014632D03*
X005442Y014628D03*
X005442Y014625D03*
X005442Y014623D03*
X005442Y014618D03*
X005442Y014616D03*
X005442Y014611D03*
X005442Y014608D03*
X005442Y014606D03*
X005442Y014601D03*
X005442Y014599D03*
X005442Y014594D03*
X005442Y014592D03*
X005442Y014589D03*
X005442Y014584D03*
D184*
X005442Y014587D03*
X005442Y014596D03*
X005442Y014604D03*
X005442Y014613D03*
X005442Y014620D03*
X005442Y014630D03*
X005442Y014656D03*
X005442Y014664D03*
X005442Y014673D03*
X005442Y014680D03*
X005754Y015324D03*
X005442Y015616D03*
X005442Y015624D03*
X005442Y015633D03*
X005442Y015640D03*
X005442Y015667D03*
X005442Y015676D03*
X005442Y015684D03*
X005442Y015693D03*
X005442Y015700D03*
X005442Y015710D03*
X006448Y015693D03*
X006448Y015684D03*
X006448Y015676D03*
X006448Y015667D03*
X006448Y015640D03*
X006448Y015633D03*
X006448Y015624D03*
X006448Y015616D03*
X007074Y015616D03*
X007074Y015624D03*
X007074Y015684D03*
X007074Y015693D03*
X007074Y015700D03*
X007074Y015710D03*
X007074Y014690D03*
X007074Y014680D03*
X007074Y014613D03*
X007074Y014604D03*
X007074Y014596D03*
X007074Y014587D03*
X006448Y014604D03*
X006448Y014613D03*
X006448Y014620D03*
X006448Y014630D03*
X006448Y014656D03*
X006448Y014664D03*
X006448Y014673D03*
X006448Y014680D03*
D185*
X006451Y014692D03*
X006451Y014695D03*
X006451Y014697D03*
X006451Y014702D03*
X006451Y014601D03*
X006451Y014599D03*
X006451Y014594D03*
X006451Y014592D03*
X006451Y014589D03*
X006058Y014719D03*
X006058Y014721D03*
X006451Y015597D03*
X006451Y015602D03*
X006451Y015604D03*
X006451Y015609D03*
X006451Y015612D03*
X006451Y015614D03*
X006451Y015696D03*
X006451Y015698D03*
X006451Y015703D03*
X006451Y015705D03*
X006451Y015708D03*
X006451Y015712D03*
X006451Y015715D03*
D186*
X006451Y015710D03*
X006451Y015700D03*
X006451Y015607D03*
X006451Y015600D03*
X006451Y014700D03*
X006451Y014690D03*
X006451Y014596D03*
X006058Y014716D03*
D187*
X006074Y014671D03*
X006074Y014668D03*
X006074Y014666D03*
X006074Y014661D03*
X006074Y014659D03*
X006074Y014654D03*
X006074Y014652D03*
X006074Y014649D03*
X006074Y014644D03*
X006074Y014642D03*
X006074Y014637D03*
X006074Y014635D03*
X006074Y014632D03*
X006074Y014628D03*
X006074Y014625D03*
X006074Y014623D03*
X006074Y014618D03*
X006074Y014616D03*
X006074Y015631D03*
X006074Y015636D03*
X006074Y015638D03*
X006074Y015643D03*
X006074Y015645D03*
X006074Y015648D03*
X006074Y015652D03*
X006074Y015655D03*
X006074Y015657D03*
X006074Y015662D03*
X006074Y015664D03*
X006074Y015669D03*
X006074Y015672D03*
X006074Y015674D03*
X006074Y015679D03*
X006074Y015681D03*
D188*
X006444Y015662D03*
X006444Y015657D03*
X006444Y015655D03*
X006444Y015652D03*
X006470Y015578D03*
X006470Y015576D03*
X006470Y015729D03*
X006470Y015732D03*
X006470Y015734D03*
X007078Y015681D03*
X007078Y015679D03*
X007078Y015674D03*
X007078Y015672D03*
X007078Y015669D03*
X007078Y015664D03*
X007078Y015662D03*
X007078Y015657D03*
X007078Y015655D03*
X007078Y015652D03*
X007078Y015648D03*
X007078Y015645D03*
X007078Y015643D03*
X007078Y015638D03*
X007078Y015636D03*
X007078Y015631D03*
X007078Y014671D03*
X007078Y014668D03*
X007078Y014666D03*
X007078Y014661D03*
X007078Y014659D03*
X007078Y014654D03*
X007078Y014652D03*
X007078Y014649D03*
X007078Y014644D03*
X007078Y014642D03*
X007078Y014637D03*
X007078Y014635D03*
X007078Y014632D03*
X007078Y014628D03*
X007078Y014625D03*
X007078Y014623D03*
X007078Y014618D03*
X007078Y014616D03*
X006478Y014726D03*
X006478Y014728D03*
X006444Y014654D03*
X006444Y014652D03*
X006444Y014649D03*
X006444Y014644D03*
X006444Y014642D03*
X006444Y014637D03*
X005472Y014726D03*
X005472Y014728D03*
X005438Y014654D03*
X005438Y014652D03*
X005438Y014649D03*
X005438Y014644D03*
X005438Y014642D03*
X005438Y014637D03*
X005465Y015576D03*
X005465Y015578D03*
X005438Y015652D03*
X005438Y015655D03*
X005438Y015657D03*
X005438Y015662D03*
X005438Y015717D03*
X005438Y015722D03*
D189*
X006074Y015676D03*
X006074Y015667D03*
X006074Y015660D03*
X006074Y015650D03*
X006074Y015640D03*
X006074Y015633D03*
X006074Y014673D03*
X006074Y014664D03*
X006074Y014656D03*
X006074Y014647D03*
X006074Y014640D03*
X006074Y014630D03*
X006074Y014620D03*
D190*
X006444Y014640D03*
X006444Y014647D03*
X006478Y014724D03*
X007078Y014673D03*
X007078Y014664D03*
X007078Y014656D03*
X007078Y014647D03*
X007078Y014640D03*
X007078Y014630D03*
X007078Y014620D03*
X006470Y015580D03*
X006444Y015650D03*
X006444Y015660D03*
X007078Y015660D03*
X007078Y015667D03*
X007078Y015676D03*
X007078Y015650D03*
X007078Y015640D03*
X007078Y015633D03*
X005465Y015580D03*
X005438Y015650D03*
X005438Y015660D03*
X005438Y015720D03*
X005472Y014724D03*
X005438Y014647D03*
X005438Y014640D03*
D191*
X007070Y014697D03*
X007070Y014702D03*
X007070Y014704D03*
X007070Y015592D03*
X007070Y015595D03*
X007070Y015597D03*
X007070Y015602D03*
X007070Y015604D03*
D192*
X007070Y015607D03*
X007070Y015600D03*
X007070Y015590D03*
X007070Y014707D03*
X007070Y014700D03*
D193*
X007068Y014709D03*
X007068Y014712D03*
X007068Y014714D03*
X007068Y015583D03*
X007068Y015585D03*
X007068Y015588D03*
X005448Y015592D03*
X005448Y015595D03*
X005448Y014714D03*
X005448Y014712D03*
X005448Y014709D03*
X005448Y014704D03*
D194*
X005448Y014707D03*
X005448Y015590D03*
D195*
X005431Y015727D03*
X006038Y014724D03*
D196*
X007040Y014724D03*
X007040Y015573D03*
D197*
X007040Y015571D03*
X007040Y014728D03*
X007040Y014726D03*
D198*
X006014Y014731D03*
X006014Y015566D03*
X006014Y015568D03*
D199*
X006014Y015564D03*
X006014Y014733D03*
D200*
X005538Y014757D03*
X005538Y014762D03*
X005512Y014738D03*
X005512Y014736D03*
X006764Y016003D03*
X006764Y016005D03*
X006764Y016008D03*
D201*
X005754Y014995D03*
X005754Y014992D03*
X005994Y014738D03*
X005994Y014736D03*
X006980Y014757D03*
X006980Y014762D03*
D202*
X005538Y014760D03*
X005512Y014740D03*
D203*
X005754Y014990D03*
X005994Y014740D03*
X006980Y014760D03*
D204*
X007001Y014740D03*
X006768Y014990D03*
X005534Y014750D03*
X005534Y015547D03*
D205*
X005525Y015556D03*
X005971Y014760D03*
X006545Y014750D03*
X006545Y015547D03*
X006538Y015760D03*
D206*
X006511Y015568D03*
X006511Y015566D03*
X005765Y015996D03*
X005765Y015998D03*
X005551Y015535D03*
X005551Y015532D03*
X006965Y014774D03*
X006965Y014772D03*
X006965Y014769D03*
D207*
X006768Y015316D03*
X005568Y014776D03*
D208*
X005568Y014779D03*
X005568Y014781D03*
X006768Y015319D03*
X006768Y015321D03*
D209*
X005755Y015513D03*
X005755Y015520D03*
X005755Y014784D03*
D210*
X006768Y014784D03*
X006768Y015520D03*
D211*
X006761Y015434D03*
X006761Y015432D03*
X006761Y015429D03*
X005755Y015429D03*
X005755Y015432D03*
X005755Y015434D03*
X005755Y015511D03*
X005755Y015516D03*
X005755Y015518D03*
X005755Y014788D03*
X005755Y014786D03*
D212*
X006768Y014786D03*
X006768Y014788D03*
X006768Y015516D03*
X006768Y015518D03*
D213*
X006764Y015511D03*
X006764Y015508D03*
X006764Y015506D03*
X006764Y014868D03*
X006764Y014865D03*
X006764Y014863D03*
X006764Y014791D03*
X005759Y014863D03*
X005759Y014865D03*
X005759Y014868D03*
X005752Y014791D03*
X005752Y015506D03*
X005752Y015508D03*
D214*
X005752Y015504D03*
X005752Y014793D03*
X006764Y014793D03*
X006764Y015504D03*
X006764Y015513D03*
D215*
X006761Y015448D03*
X006761Y015446D03*
X006761Y015441D03*
X006761Y015439D03*
X006761Y014858D03*
X006761Y014856D03*
X005755Y014856D03*
X005755Y014858D03*
X005755Y014798D03*
X005755Y014796D03*
X005755Y015439D03*
X005755Y015441D03*
X005755Y015499D03*
X005755Y015501D03*
D216*
X006768Y015501D03*
X006768Y015499D03*
X006768Y014798D03*
X006768Y014796D03*
D217*
X006761Y014860D03*
X006761Y015436D03*
X006761Y015444D03*
X005755Y015436D03*
X005755Y015496D03*
X005755Y014860D03*
X005755Y014800D03*
D218*
X006768Y014800D03*
X006768Y015496D03*
D219*
X006764Y015494D03*
X006764Y015492D03*
X006764Y015489D03*
X006764Y014851D03*
X006764Y014815D03*
X006764Y014812D03*
X006764Y014808D03*
X006764Y014805D03*
X006764Y014803D03*
X005752Y014803D03*
X005752Y014805D03*
X005752Y014808D03*
X005752Y015489D03*
X005752Y015492D03*
X005752Y015494D03*
D220*
X005755Y015487D03*
X005755Y015453D03*
X005755Y014820D03*
X005755Y014810D03*
X006768Y014820D03*
X006761Y015453D03*
X006768Y015487D03*
D221*
X006764Y014853D03*
X006764Y014810D03*
D222*
X006768Y014817D03*
X006768Y014822D03*
X006761Y015451D03*
X006768Y015484D03*
X005755Y015484D03*
X005755Y015451D03*
X005755Y014822D03*
X005755Y014817D03*
X005755Y014815D03*
X005755Y014812D03*
D223*
X005752Y014824D03*
X005752Y015477D03*
X005752Y015482D03*
X006764Y015482D03*
X006764Y015477D03*
X006764Y015475D03*
X006764Y015472D03*
X006764Y014848D03*
X006764Y014846D03*
X006764Y014824D03*
D224*
X006764Y014827D03*
X006764Y014844D03*
X006764Y015470D03*
X006764Y015480D03*
X005752Y015480D03*
X005752Y014827D03*
D225*
X005754Y014829D03*
X005754Y014832D03*
X005754Y014834D03*
X005754Y014839D03*
X005754Y014841D03*
X005754Y015456D03*
X005754Y015458D03*
X005754Y015463D03*
X005754Y015465D03*
X005754Y015468D03*
X005754Y015472D03*
X005754Y015475D03*
X006762Y015468D03*
X006762Y015465D03*
X006762Y015463D03*
X006762Y015458D03*
X006762Y015456D03*
X006762Y014841D03*
X006762Y014839D03*
X006767Y014834D03*
X006767Y014832D03*
X006767Y014829D03*
D226*
X006762Y014836D03*
X006762Y015460D03*
X005754Y015460D03*
X005754Y015470D03*
X005754Y014836D03*
D227*
X005758Y014844D03*
D228*
X005758Y014846D03*
X005758Y014848D03*
D229*
X005759Y014851D03*
X005759Y015446D03*
X005759Y015448D03*
D230*
X005759Y015444D03*
X005759Y014853D03*
D231*
X005758Y014870D03*
X005758Y015427D03*
D232*
X006764Y014870D03*
D233*
X005758Y014872D03*
X005758Y014875D03*
X005758Y015424D03*
D234*
X006764Y014875D03*
X006764Y014872D03*
D235*
X005758Y014877D03*
X005758Y014882D03*
X005758Y014884D03*
D236*
X005754Y015417D03*
X005754Y015422D03*
X006762Y015422D03*
X006762Y015424D03*
X006762Y015417D03*
X006762Y014882D03*
X006762Y014877D03*
D237*
X005758Y014880D03*
X005758Y014887D03*
D238*
X005754Y015420D03*
X006762Y015420D03*
X006762Y015427D03*
X006762Y014880D03*
D239*
X006764Y014884D03*
D240*
X006764Y014887D03*
D241*
X005758Y014889D03*
X005758Y014892D03*
X005758Y014894D03*
D242*
X006764Y014894D03*
X006764Y014892D03*
X006764Y014889D03*
D243*
X006764Y014904D03*
X005759Y014904D03*
X005759Y014896D03*
X005759Y015400D03*
D244*
X006761Y015400D03*
X006761Y014896D03*
D245*
X006764Y014906D03*
X006764Y014908D03*
X005759Y014908D03*
X005759Y014906D03*
X005759Y014901D03*
X005759Y014899D03*
X005759Y015396D03*
X005759Y015398D03*
D246*
X005755Y015403D03*
X005755Y015405D03*
X005755Y015408D03*
X006761Y015408D03*
X006761Y015405D03*
X006761Y015403D03*
X006761Y015398D03*
X006761Y015396D03*
X006761Y014901D03*
X006761Y014899D03*
D247*
X005758Y014911D03*
D248*
X006764Y014911D03*
D249*
X005758Y014913D03*
D250*
X006764Y014913D03*
D251*
X006763Y014916D03*
X006763Y014918D03*
X006763Y014923D03*
X006763Y014925D03*
X006763Y014928D03*
X006763Y015331D03*
X005758Y015331D03*
X005758Y015379D03*
X005758Y015381D03*
X005758Y014928D03*
X005758Y014925D03*
X005758Y014923D03*
X005758Y014918D03*
X005758Y014916D03*
D252*
X005758Y014920D03*
X005758Y015333D03*
X005758Y015376D03*
X006763Y015333D03*
X006763Y014920D03*
D253*
X005758Y014930D03*
X005758Y015340D03*
D254*
X006764Y015340D03*
X006764Y014930D03*
D255*
X005758Y014932D03*
X005758Y014935D03*
X005758Y015336D03*
X005758Y015338D03*
D256*
X006764Y015338D03*
X006764Y015336D03*
X006764Y014935D03*
X006764Y014932D03*
D257*
X005759Y014937D03*
X005759Y014942D03*
X005759Y014944D03*
X005759Y014949D03*
X005759Y014952D03*
X005759Y014954D03*
X005759Y015343D03*
X005759Y015345D03*
X005759Y015348D03*
X005759Y015352D03*
X005759Y015355D03*
X005759Y015357D03*
X005759Y015362D03*
D258*
X006764Y014954D03*
X006764Y014952D03*
X006764Y014949D03*
X006764Y014944D03*
X006764Y014942D03*
X006764Y014937D03*
D259*
X005759Y014940D03*
X005759Y014947D03*
X005759Y015350D03*
X005759Y015360D03*
D260*
X006764Y014947D03*
X006764Y014940D03*
D261*
X006761Y014956D03*
X006761Y015350D03*
X006761Y015360D03*
X006761Y015367D03*
X005755Y015367D03*
X005755Y014956D03*
D262*
X005755Y014959D03*
X005755Y014961D03*
X005755Y015364D03*
X006761Y015364D03*
X006761Y015362D03*
X006761Y015357D03*
X006761Y015355D03*
X006761Y015352D03*
X006761Y015348D03*
X006761Y015345D03*
X006761Y015343D03*
X006761Y014961D03*
X006761Y014959D03*
D263*
X005754Y014964D03*
D264*
X006761Y014964D03*
D265*
X005754Y014966D03*
X005754Y014968D03*
X005754Y015369D03*
X005754Y015372D03*
X005754Y015374D03*
D266*
X006761Y015374D03*
X006761Y015372D03*
X006761Y015369D03*
X006761Y014968D03*
X006761Y014966D03*
D267*
X005754Y014971D03*
X005754Y015386D03*
X005754Y015388D03*
D268*
X006761Y015388D03*
X006761Y015386D03*
X006761Y015381D03*
X006761Y015379D03*
X006761Y014971D03*
D269*
X005754Y014973D03*
X005754Y015384D03*
D270*
X006761Y015384D03*
X006761Y015376D03*
X006761Y014973D03*
D271*
X005752Y014976D03*
X005752Y014978D03*
D272*
X006044Y014978D03*
X006044Y014976D03*
X006044Y015319D03*
X006044Y015321D03*
X006764Y015074D03*
X006764Y015072D03*
X006764Y015069D03*
X006764Y015064D03*
X006764Y015062D03*
X006764Y015057D03*
X006764Y016063D03*
X006764Y016065D03*
X006764Y016068D03*
X006764Y016072D03*
X006764Y016075D03*
X006764Y016077D03*
X006764Y016082D03*
D273*
X006042Y015734D03*
X006042Y015732D03*
X006042Y015729D03*
X006767Y014978D03*
X006767Y014976D03*
D274*
X007051Y014976D03*
X007051Y014978D03*
X007051Y015319D03*
X007051Y015321D03*
D275*
X005752Y014980D03*
D276*
X006044Y014980D03*
X006044Y015316D03*
X006764Y015067D03*
X006764Y015060D03*
X006764Y016070D03*
X006764Y016080D03*
D277*
X006767Y014980D03*
D278*
X007051Y014980D03*
X007051Y015316D03*
D279*
X005465Y014990D03*
D280*
X006048Y014990D03*
X006048Y015307D03*
D281*
X005465Y014995D03*
X005465Y014992D03*
D282*
X006048Y014992D03*
X006048Y014995D03*
X006048Y015304D03*
D283*
X005758Y015148D03*
X005758Y015146D03*
X005465Y015002D03*
X005465Y014997D03*
X005465Y015304D03*
X005758Y016149D03*
X005758Y016152D03*
X005758Y016154D03*
D284*
X005444Y015741D03*
X005444Y015739D03*
X005752Y015002D03*
X005752Y014997D03*
X006764Y014997D03*
X006764Y015002D03*
D285*
X006764Y015146D03*
X006764Y015148D03*
X006472Y015002D03*
X006472Y014997D03*
X006472Y015304D03*
X007064Y015756D03*
X007064Y015758D03*
X006764Y016149D03*
X006764Y016152D03*
X006764Y016154D03*
X006472Y016008D03*
X006472Y016005D03*
X006472Y016003D03*
X006052Y016003D03*
X006052Y016005D03*
X006052Y016008D03*
D286*
X007055Y015302D03*
X007055Y015297D03*
X007055Y015002D03*
X007055Y014997D03*
D287*
X005758Y015144D03*
X005465Y015000D03*
X005465Y015307D03*
D288*
X005752Y015000D03*
X005444Y015736D03*
X006764Y015000D03*
D289*
X006764Y015144D03*
X006472Y015000D03*
X006472Y015307D03*
X007064Y015760D03*
D290*
X007055Y015300D03*
X007055Y015000D03*
D291*
X006470Y015297D03*
X006470Y015302D03*
X006470Y016012D03*
X006470Y016015D03*
X006050Y016015D03*
X006050Y016012D03*
X005446Y015768D03*
X005446Y015765D03*
X005446Y015763D03*
X005465Y015302D03*
X005465Y015297D03*
X005465Y015004D03*
D292*
X007055Y015004D03*
D293*
X006470Y015300D03*
X006470Y016010D03*
X006050Y016010D03*
X005465Y015300D03*
X005465Y015007D03*
D294*
X006052Y015007D03*
X006052Y015290D03*
D295*
X007055Y015007D03*
D296*
X007081Y015772D03*
X007081Y015775D03*
X005461Y015295D03*
X005461Y015292D03*
X005461Y015014D03*
X005461Y015012D03*
X005461Y015009D03*
D297*
X005759Y015009D03*
X005759Y015012D03*
X005759Y015014D03*
X005459Y015746D03*
X005459Y015748D03*
D298*
X006468Y016017D03*
X006468Y016022D03*
X006468Y015295D03*
X006468Y015292D03*
X006468Y015014D03*
X006468Y015012D03*
X006468Y015009D03*
D299*
X006764Y015009D03*
X006764Y015012D03*
X006764Y015014D03*
X006764Y016024D03*
D300*
X006055Y016027D03*
X005462Y015016D03*
D301*
X006468Y015016D03*
X006468Y016027D03*
D302*
X006764Y016036D03*
X006764Y016044D03*
X007057Y015744D03*
X006764Y015273D03*
X006764Y015040D03*
X006764Y015033D03*
X006764Y015024D03*
X006764Y015016D03*
D303*
X007057Y015016D03*
X007057Y015280D03*
X007084Y015780D03*
D304*
X006055Y016024D03*
X005462Y015288D03*
X005462Y015285D03*
X005462Y015283D03*
X005462Y015021D03*
X005462Y015019D03*
D305*
X006468Y015019D03*
X006468Y015021D03*
X006468Y015283D03*
X006468Y015285D03*
X006468Y015288D03*
X006468Y016024D03*
D306*
X006764Y016029D03*
X006764Y016032D03*
X006764Y016034D03*
X006764Y016039D03*
X006764Y016041D03*
X006764Y016046D03*
X006764Y016048D03*
X007057Y015748D03*
X007057Y015746D03*
X006764Y015271D03*
X006764Y015038D03*
X006764Y015036D03*
X006764Y015031D03*
X006764Y015028D03*
X006764Y015026D03*
X006764Y015021D03*
X006764Y015019D03*
D307*
X007057Y015019D03*
X007057Y015021D03*
X007057Y015276D03*
X007057Y015278D03*
X007084Y015777D03*
X007084Y015782D03*
D308*
X005424Y015787D03*
X005458Y015024D03*
D309*
X006464Y015024D03*
X006464Y015280D03*
D310*
X006058Y016029D03*
X006058Y016032D03*
X006058Y016034D03*
X005424Y015784D03*
X005458Y015028D03*
X005458Y015026D03*
D311*
X006464Y015026D03*
X006464Y015028D03*
X006464Y015276D03*
X006464Y015278D03*
X006464Y016029D03*
X006464Y016032D03*
X006464Y016034D03*
D312*
X006058Y016039D03*
X006058Y016041D03*
X005458Y015271D03*
X005458Y015031D03*
D313*
X006464Y015031D03*
X006464Y015271D03*
X006464Y016039D03*
X006464Y016041D03*
D314*
X006058Y016036D03*
X005458Y015273D03*
X005458Y015033D03*
D315*
X006464Y015033D03*
X006464Y015273D03*
X006464Y016036D03*
D316*
X006461Y015264D03*
X006461Y015040D03*
X005455Y015040D03*
D317*
X005455Y015043D03*
X005455Y015045D03*
X005455Y015048D03*
X005455Y015259D03*
X005455Y015261D03*
X006461Y015261D03*
X006461Y015259D03*
X006461Y015048D03*
X006461Y015045D03*
X006461Y015043D03*
X006461Y016051D03*
D318*
X006461Y016053D03*
X006461Y015256D03*
X005455Y015256D03*
D319*
X005459Y015264D03*
D320*
X005459Y015266D03*
X005459Y015268D03*
D321*
X006054Y015276D03*
X006054Y015278D03*
D322*
X006054Y015280D03*
D323*
X005461Y015290D03*
X007081Y015770D03*
D324*
X006761Y015290D03*
X005755Y015290D03*
X005755Y016027D03*
D325*
X006468Y016020D03*
X006468Y015290D03*
D326*
X007057Y015290D03*
D327*
X006761Y015292D03*
X006761Y015295D03*
X005755Y015295D03*
X005755Y015292D03*
X005755Y016024D03*
D328*
X007057Y015295D03*
X007057Y015292D03*
D329*
X006763Y015297D03*
X006763Y015302D03*
X007070Y015739D03*
X007070Y015741D03*
X006770Y016017D03*
X006770Y016022D03*
X005750Y016022D03*
X005750Y016017D03*
X005750Y015302D03*
X005750Y015297D03*
D330*
X005750Y015300D03*
X005750Y016020D03*
X006770Y016020D03*
X007070Y015736D03*
X006763Y015300D03*
D331*
X006768Y015304D03*
X005988Y015751D03*
X005748Y016012D03*
X005748Y016015D03*
D332*
X005748Y016010D03*
X005988Y015753D03*
X006768Y015307D03*
D333*
X006864Y015324D03*
D334*
X006864Y015326D03*
X006864Y015328D03*
D335*
X006761Y015391D03*
X005755Y015391D03*
D336*
X005755Y015393D03*
X006761Y015393D03*
D337*
X005754Y015410D03*
D338*
X006761Y015410D03*
D339*
X005754Y015412D03*
X005754Y015415D03*
D340*
X006761Y015415D03*
X006761Y015412D03*
D341*
X006511Y015564D03*
X005765Y016000D03*
X005551Y015530D03*
D342*
X006035Y015571D03*
D343*
X006035Y015573D03*
D344*
X007057Y015576D03*
X007057Y015578D03*
D345*
X007057Y015580D03*
D346*
X007087Y015727D03*
D347*
X005459Y015744D03*
D348*
X005459Y015751D03*
D349*
X005459Y015753D03*
D350*
X005441Y015770D03*
X006055Y016020D03*
D351*
X006055Y016022D03*
X006055Y016017D03*
X005441Y015775D03*
X005441Y015772D03*
D352*
X005771Y015991D03*
X005951Y015784D03*
D353*
X005951Y015787D03*
X005771Y015993D03*
D354*
X005894Y015804D03*
D355*
X005894Y015806D03*
X005894Y015808D03*
D356*
X006641Y015864D03*
D357*
X006641Y015866D03*
X006641Y015868D03*
D358*
X005888Y015897D03*
X005888Y015902D03*
D359*
X005888Y015900D03*
D360*
X005888Y015909D03*
X005888Y015912D03*
X005888Y015914D03*
D361*
X006635Y015914D03*
X006635Y015912D03*
X006635Y015909D03*
D362*
X005891Y015916D03*
D363*
X006631Y015916D03*
D364*
X005891Y015919D03*
X005891Y015921D03*
D365*
X006644Y015984D03*
D366*
X006644Y015986D03*
X006644Y015988D03*
D367*
X006748Y015991D03*
D368*
X006748Y015993D03*
D369*
X006048Y015996D03*
X006048Y015998D03*
D370*
X006048Y016000D03*
D371*
X006764Y016027D03*
D372*
X006061Y016044D03*
D373*
X006464Y016044D03*
D374*
X006061Y016046D03*
X006061Y016048D03*
D375*
X006464Y016048D03*
X006464Y016046D03*
M02*
