G75*
%MOIN*%
%OFA0B0*%
%FSLAX24Y24*%
%IPPOS*%
%LPD*%
%AMOC8*
5,1,8,0,0,1.08239X$1,22.5*
%
%ADD10C,0.0000*%
%ADD11R,0.0400X0.0450*%
%ADD12R,0.0220X0.0780*%
%ADD13C,0.0079*%
%ADD14R,0.0512X0.0355*%
%ADD15R,0.0355X0.0512*%
%ADD16C,0.0787*%
%ADD17C,0.0860*%
%ADD18R,0.0220X0.0500*%
%ADD19R,0.0669X0.0276*%
%ADD20R,0.0394X0.0551*%
%ADD21R,0.0210X0.0500*%
%ADD22R,0.0500X0.0210*%
%ADD23C,0.0660*%
%ADD24C,0.0700*%
%ADD25R,0.0327X0.0248*%
%ADD26R,0.0276X0.0394*%
%ADD27C,0.0768*%
%ADD28C,0.0100*%
%ADD29OC8,0.0480*%
%ADD30R,0.0800X0.0800*%
%ADD31C,0.0800*%
%ADD32R,0.0236X0.0866*%
%ADD33R,0.1102X0.1102*%
%ADD34C,0.0560*%
%ADD35C,0.0160*%
%ADD36C,0.0200*%
%ADD37C,0.0140*%
%ADD38C,0.0356*%
%ADD39C,0.0310*%
%ADD40C,0.0180*%
%ADD41C,0.0250*%
%ADD42C,0.0240*%
%ADD43C,0.0500*%
%ADD44C,0.0120*%
%ADD45C,0.0760*%
%ADD46C,0.0320*%
%ADD47C,0.0317*%
D10*
X004460Y000900D02*
X004460Y017270D01*
X004462Y017324D01*
X004468Y017377D01*
X004477Y017429D01*
X004490Y017481D01*
X004507Y017532D01*
X004528Y017582D01*
X004552Y017629D01*
X004579Y017675D01*
X004610Y017719D01*
X004643Y017761D01*
X004680Y017800D01*
X004719Y017837D01*
X004761Y017870D01*
X004805Y017901D01*
X004851Y017928D01*
X004898Y017952D01*
X004948Y017973D01*
X004999Y017990D01*
X005051Y018003D01*
X005103Y018012D01*
X005156Y018018D01*
X005210Y018020D01*
X021202Y018020D01*
X021251Y018026D01*
X021300Y018028D01*
X021349Y018026D01*
X021398Y018021D01*
X021446Y018012D01*
X021494Y017999D01*
X021541Y017983D01*
X021586Y017964D01*
X021629Y017941D01*
X021671Y017915D01*
X021711Y017886D01*
X021748Y017854D01*
X021783Y017819D01*
X021815Y017782D01*
X021845Y017742D01*
X021871Y017701D01*
X021894Y017657D01*
X021914Y017612D01*
X021930Y017566D01*
X021943Y017518D01*
X021952Y017470D01*
X021952Y000900D01*
X021950Y000846D01*
X021944Y000793D01*
X021935Y000741D01*
X021922Y000689D01*
X021905Y000638D01*
X021884Y000588D01*
X021860Y000541D01*
X021833Y000495D01*
X021802Y000451D01*
X021769Y000409D01*
X021732Y000370D01*
X021693Y000333D01*
X021651Y000300D01*
X021607Y000269D01*
X021561Y000242D01*
X021514Y000218D01*
X021464Y000197D01*
X021413Y000180D01*
X021361Y000167D01*
X021309Y000158D01*
X021256Y000152D01*
X021202Y000150D01*
X005210Y000150D01*
X005156Y000152D01*
X005103Y000158D01*
X005051Y000167D01*
X004999Y000180D01*
X004948Y000197D01*
X004898Y000218D01*
X004851Y000242D01*
X004805Y000269D01*
X004761Y000300D01*
X004719Y000333D01*
X004680Y000370D01*
X004643Y000409D01*
X004610Y000451D01*
X004579Y000495D01*
X004552Y000541D01*
X004528Y000588D01*
X004507Y000638D01*
X004490Y000689D01*
X004477Y000741D01*
X004468Y000793D01*
X004462Y000846D01*
X004460Y000900D01*
D11*
X020530Y009360D03*
X021230Y009360D03*
X020880Y008560D03*
D12*
X008410Y009170D03*
X007910Y009170D03*
X007410Y009170D03*
X006910Y009170D03*
X006910Y007230D03*
X007410Y007230D03*
X007910Y007230D03*
X008410Y007230D03*
D13*
X010037Y009088D02*
X010037Y009324D01*
X010037Y009088D02*
X009603Y009088D01*
X009603Y009324D01*
X010037Y009324D01*
X010037Y009166D02*
X009603Y009166D01*
X009603Y009244D02*
X010037Y009244D01*
X010037Y009322D02*
X009603Y009322D01*
X010037Y009876D02*
X010037Y010112D01*
X010037Y009876D02*
X009603Y009876D01*
X009603Y010112D01*
X010037Y010112D01*
X010037Y009954D02*
X009603Y009954D01*
X009603Y010032D02*
X010037Y010032D01*
X010037Y010110D02*
X009603Y010110D01*
X008921Y009713D02*
X008685Y009713D01*
X008685Y010147D01*
X008921Y010147D01*
X008921Y009713D01*
X008921Y009791D02*
X008685Y009791D01*
X008685Y009869D02*
X008921Y009869D01*
X008921Y009947D02*
X008685Y009947D01*
X008685Y010025D02*
X008921Y010025D01*
X008921Y010103D02*
X008685Y010103D01*
X008134Y009713D02*
X007898Y009713D01*
X007898Y010147D01*
X008134Y010147D01*
X008134Y009713D01*
X008134Y009791D02*
X007898Y009791D01*
X007898Y009869D02*
X008134Y009869D01*
X008134Y009947D02*
X007898Y009947D01*
X007898Y010025D02*
X008134Y010025D01*
X008134Y010103D02*
X007898Y010103D01*
X012643Y010076D02*
X012643Y010312D01*
X013077Y010312D01*
X013077Y010076D01*
X012643Y010076D01*
X012643Y010154D02*
X013077Y010154D01*
X013077Y010232D02*
X012643Y010232D01*
X012643Y010310D02*
X013077Y010310D01*
X013648Y009883D02*
X013884Y009883D01*
X013648Y009883D02*
X013648Y010317D01*
X013884Y010317D01*
X013884Y009883D01*
X013884Y009961D02*
X013648Y009961D01*
X013648Y010039D02*
X013884Y010039D01*
X013884Y010117D02*
X013648Y010117D01*
X013648Y010195D02*
X013884Y010195D01*
X013884Y010273D02*
X013648Y010273D01*
X014435Y009883D02*
X014671Y009883D01*
X014435Y009883D02*
X014435Y010317D01*
X014671Y010317D01*
X014671Y009883D01*
X014671Y009961D02*
X014435Y009961D01*
X014435Y010039D02*
X014671Y010039D01*
X014671Y010117D02*
X014435Y010117D01*
X014435Y010195D02*
X014671Y010195D01*
X014671Y010273D02*
X014435Y010273D01*
X014415Y009487D02*
X014651Y009487D01*
X014651Y009053D01*
X014415Y009053D01*
X014415Y009487D01*
X014415Y009131D02*
X014651Y009131D01*
X014651Y009209D02*
X014415Y009209D01*
X014415Y009287D02*
X014651Y009287D01*
X014651Y009365D02*
X014415Y009365D01*
X014415Y009443D02*
X014651Y009443D01*
X015427Y009462D02*
X015427Y009226D01*
X014993Y009226D01*
X014993Y009462D01*
X015427Y009462D01*
X015427Y009304D02*
X014993Y009304D01*
X014993Y009382D02*
X015427Y009382D01*
X015427Y009460D02*
X014993Y009460D01*
X015427Y008674D02*
X015427Y008438D01*
X014993Y008438D01*
X014993Y008674D01*
X015427Y008674D01*
X015427Y008516D02*
X014993Y008516D01*
X014993Y008594D02*
X015427Y008594D01*
X015427Y008672D02*
X014993Y008672D01*
X013473Y008662D02*
X013473Y008426D01*
X013473Y008662D02*
X013907Y008662D01*
X013907Y008426D01*
X013473Y008426D01*
X013473Y008504D02*
X013907Y008504D01*
X013907Y008582D02*
X013473Y008582D01*
X013473Y008660D02*
X013907Y008660D01*
X013864Y009487D02*
X013628Y009487D01*
X013864Y009487D02*
X013864Y009053D01*
X013628Y009053D01*
X013628Y009487D01*
X013628Y009131D02*
X013864Y009131D01*
X013864Y009209D02*
X013628Y009209D01*
X013628Y009287D02*
X013864Y009287D01*
X013864Y009365D02*
X013628Y009365D01*
X013628Y009443D02*
X013864Y009443D01*
X012643Y009524D02*
X012643Y009288D01*
X012643Y009524D02*
X013077Y009524D01*
X013077Y009288D01*
X012643Y009288D01*
X012643Y009366D02*
X013077Y009366D01*
X013077Y009444D02*
X012643Y009444D01*
X012643Y009522D02*
X013077Y009522D01*
X013473Y007874D02*
X013473Y007638D01*
X013473Y007874D02*
X013907Y007874D01*
X013907Y007638D01*
X013473Y007638D01*
X013473Y007716D02*
X013907Y007716D01*
X013907Y007794D02*
X013473Y007794D01*
X013473Y007872D02*
X013907Y007872D01*
X017093Y008658D02*
X017093Y008894D01*
X017527Y008894D01*
X017527Y008658D01*
X017093Y008658D01*
X017093Y008736D02*
X017527Y008736D01*
X017527Y008814D02*
X017093Y008814D01*
X017093Y008892D02*
X017527Y008892D01*
X017093Y009446D02*
X017093Y009682D01*
X017527Y009682D01*
X017527Y009446D01*
X017093Y009446D01*
X017093Y009524D02*
X017527Y009524D01*
X017527Y009602D02*
X017093Y009602D01*
X017093Y009680D02*
X017527Y009680D01*
X015071Y011667D02*
X014835Y011667D01*
X015071Y011667D02*
X015071Y011233D01*
X014835Y011233D01*
X014835Y011667D01*
X014835Y011311D02*
X015071Y011311D01*
X015071Y011389D02*
X014835Y011389D01*
X014835Y011467D02*
X015071Y011467D01*
X015071Y011545D02*
X014835Y011545D01*
X014835Y011623D02*
X015071Y011623D01*
X014284Y011667D02*
X014048Y011667D01*
X014284Y011667D02*
X014284Y011233D01*
X014048Y011233D01*
X014048Y011667D01*
X014048Y011311D02*
X014284Y011311D01*
X014284Y011389D02*
X014048Y011389D01*
X014048Y011467D02*
X014284Y011467D01*
X014284Y011545D02*
X014048Y011545D01*
X014048Y011623D02*
X014284Y011623D01*
X016248Y015117D02*
X016484Y015117D01*
X016484Y014683D01*
X016248Y014683D01*
X016248Y015117D01*
X016248Y014761D02*
X016484Y014761D01*
X016484Y014839D02*
X016248Y014839D01*
X016248Y014917D02*
X016484Y014917D01*
X016484Y014995D02*
X016248Y014995D01*
X016248Y015073D02*
X016484Y015073D01*
X017035Y015117D02*
X017271Y015117D01*
X017271Y014683D01*
X017035Y014683D01*
X017035Y015117D01*
X017035Y014761D02*
X017271Y014761D01*
X017271Y014839D02*
X017035Y014839D01*
X017035Y014917D02*
X017271Y014917D01*
X017271Y014995D02*
X017035Y014995D01*
X017035Y015073D02*
X017271Y015073D01*
X015431Y015363D02*
X015195Y015363D01*
X015195Y015797D01*
X015431Y015797D01*
X015431Y015363D01*
X015431Y015441D02*
X015195Y015441D01*
X015195Y015519D02*
X015431Y015519D01*
X015431Y015597D02*
X015195Y015597D01*
X015195Y015675D02*
X015431Y015675D01*
X015431Y015753D02*
X015195Y015753D01*
X014644Y015363D02*
X014408Y015363D01*
X014408Y015797D01*
X014644Y015797D01*
X014644Y015363D01*
X014644Y015441D02*
X014408Y015441D01*
X014408Y015519D02*
X014644Y015519D01*
X014644Y015597D02*
X014408Y015597D01*
X014408Y015675D02*
X014644Y015675D01*
X014644Y015753D02*
X014408Y015753D01*
X013871Y015383D02*
X013635Y015383D01*
X013635Y015817D01*
X013871Y015817D01*
X013871Y015383D01*
X013871Y015461D02*
X013635Y015461D01*
X013635Y015539D02*
X013871Y015539D01*
X013871Y015617D02*
X013635Y015617D01*
X013635Y015695D02*
X013871Y015695D01*
X013871Y015773D02*
X013635Y015773D01*
X013084Y015383D02*
X012848Y015383D01*
X012848Y015817D01*
X013084Y015817D01*
X013084Y015383D01*
X013084Y015461D02*
X012848Y015461D01*
X012848Y015539D02*
X013084Y015539D01*
X013084Y015617D02*
X012848Y015617D01*
X012848Y015695D02*
X013084Y015695D01*
X013084Y015773D02*
X012848Y015773D01*
X020338Y012753D02*
X020574Y012753D01*
X020338Y012753D02*
X020338Y013187D01*
X020574Y013187D01*
X020574Y012753D01*
X020574Y012831D02*
X020338Y012831D01*
X020338Y012909D02*
X020574Y012909D01*
X020574Y012987D02*
X020338Y012987D01*
X020338Y013065D02*
X020574Y013065D01*
X020574Y013143D02*
X020338Y013143D01*
X021125Y012753D02*
X021361Y012753D01*
X021125Y012753D02*
X021125Y013187D01*
X021361Y013187D01*
X021361Y012753D01*
X021361Y012831D02*
X021125Y012831D01*
X021125Y012909D02*
X021361Y012909D01*
X021361Y012987D02*
X021125Y012987D01*
X021125Y013065D02*
X021361Y013065D01*
X021361Y013143D02*
X021125Y013143D01*
X021397Y012412D02*
X021397Y012176D01*
X020963Y012176D01*
X020963Y012412D01*
X021397Y012412D01*
X021397Y012254D02*
X020963Y012254D01*
X020963Y012332D02*
X021397Y012332D01*
X021397Y012410D02*
X020963Y012410D01*
X021397Y011624D02*
X021397Y011388D01*
X020963Y011388D01*
X020963Y011624D01*
X021397Y011624D01*
X021397Y011466D02*
X020963Y011466D01*
X020963Y011544D02*
X021397Y011544D01*
X021397Y011622D02*
X020963Y011622D01*
X021135Y009833D02*
X021371Y009833D01*
X021135Y009833D02*
X021135Y010267D01*
X021371Y010267D01*
X021371Y009833D01*
X021371Y009911D02*
X021135Y009911D01*
X021135Y009989D02*
X021371Y009989D01*
X021371Y010067D02*
X021135Y010067D01*
X021135Y010145D02*
X021371Y010145D01*
X021371Y010223D02*
X021135Y010223D01*
X020584Y009833D02*
X020348Y009833D01*
X020348Y010267D01*
X020584Y010267D01*
X020584Y009833D01*
X020584Y009911D02*
X020348Y009911D01*
X020348Y009989D02*
X020584Y009989D01*
X020584Y010067D02*
X020348Y010067D01*
X020348Y010145D02*
X020584Y010145D01*
X020584Y010223D02*
X020348Y010223D01*
D14*
X018060Y009532D03*
X018060Y008745D03*
X018060Y008344D03*
X018060Y007556D03*
X016260Y007736D03*
X016260Y008524D03*
X014520Y008524D03*
X014520Y007736D03*
X010670Y009196D03*
X010670Y009984D03*
X007260Y009906D03*
X007260Y010694D03*
X015840Y016386D03*
X015840Y017174D03*
X017860Y015744D03*
X017860Y014956D03*
X019860Y014856D03*
X019860Y015644D03*
X019990Y016656D03*
X019990Y017444D03*
X019050Y017484D03*
X019050Y016696D03*
X018060Y016686D03*
X018060Y017474D03*
D15*
X017183Y015710D03*
X016396Y015710D03*
X020466Y010950D03*
X021253Y010950D03*
X021053Y007950D03*
X020266Y007950D03*
X009803Y008750D03*
X009016Y008750D03*
D16*
X014728Y016637D03*
X020791Y016637D03*
D17*
X018744Y005063D03*
X016775Y005063D03*
D18*
X012190Y009120D03*
X011430Y009120D03*
X011430Y010080D03*
X011810Y010080D03*
X012190Y010080D03*
D19*
X020851Y013939D03*
X020851Y014411D03*
X020851Y014884D03*
D20*
X017384Y016517D03*
X016635Y016517D03*
X017010Y017383D03*
D21*
X016922Y013875D03*
X017237Y013875D03*
X017552Y013875D03*
X017867Y013875D03*
X018182Y013875D03*
X018497Y013875D03*
X018812Y013875D03*
X019127Y013875D03*
X019127Y010495D03*
X018812Y010495D03*
X018497Y010495D03*
X018182Y010495D03*
X017867Y010495D03*
X017552Y010495D03*
X017237Y010495D03*
X016922Y010495D03*
D22*
X016334Y011083D03*
X016334Y011398D03*
X016334Y011713D03*
X016334Y012028D03*
X016334Y012343D03*
X016334Y012658D03*
X016334Y012973D03*
X016334Y013288D03*
X019714Y013288D03*
X019714Y012973D03*
X019714Y012658D03*
X019714Y012343D03*
X019714Y012028D03*
X019714Y011713D03*
X019714Y011398D03*
X019714Y011083D03*
D23*
X016444Y003050D03*
X014475Y003050D03*
D24*
X014480Y001100D03*
X016480Y001100D03*
D25*
X012860Y008097D03*
X012860Y009003D03*
D26*
X005604Y009248D03*
X005230Y009248D03*
X004855Y009248D03*
X004855Y010192D03*
X005230Y010192D03*
X005604Y010192D03*
D27*
X005200Y011100D03*
X008200Y011100D03*
X010050Y011100D03*
X013050Y011100D03*
X010050Y007100D03*
X008200Y005100D03*
X010050Y004100D03*
X005200Y004100D03*
X005200Y007100D03*
D28*
X004860Y007144D02*
X007460Y007144D01*
X007460Y007242D02*
X004860Y007242D01*
X004860Y007341D02*
X007460Y007341D01*
X007460Y007439D02*
X004860Y007439D01*
X004860Y007538D02*
X007460Y007538D01*
X007460Y007550D02*
X004860Y007550D01*
X004860Y006350D01*
X006260Y006350D01*
X006660Y006750D01*
X007460Y006750D01*
X007460Y007550D01*
X007860Y007550D02*
X010460Y007550D01*
X010460Y006550D01*
X009260Y006550D01*
X008860Y006850D01*
X007860Y006850D01*
X007860Y007550D01*
X007860Y007538D02*
X010460Y007538D01*
X010460Y007439D02*
X007860Y007439D01*
X007860Y007341D02*
X010460Y007341D01*
X010460Y007242D02*
X007860Y007242D01*
X007860Y007144D02*
X010460Y007144D01*
X010460Y007045D02*
X007860Y007045D01*
X007860Y006947D02*
X010460Y006947D01*
X010460Y006848D02*
X008862Y006848D01*
X008993Y006750D02*
X010460Y006750D01*
X010460Y006651D02*
X009125Y006651D01*
X009256Y006553D02*
X010460Y006553D01*
X008460Y005450D02*
X008460Y001350D01*
X007510Y001350D01*
X007510Y002550D01*
X007560Y002550D01*
X007560Y005450D01*
X008460Y005450D01*
X008460Y005371D02*
X007560Y005371D01*
X007560Y005272D02*
X008460Y005272D01*
X008460Y005174D02*
X007560Y005174D01*
X007560Y005075D02*
X008460Y005075D01*
X008460Y004977D02*
X007560Y004977D01*
X007560Y004878D02*
X008460Y004878D01*
X008460Y004780D02*
X007560Y004780D01*
X007560Y004681D02*
X008460Y004681D01*
X008460Y004583D02*
X007560Y004583D01*
X007560Y004484D02*
X008460Y004484D01*
X008460Y004386D02*
X007560Y004386D01*
X007560Y004287D02*
X008460Y004287D01*
X008460Y004189D02*
X007560Y004189D01*
X007560Y004090D02*
X008460Y004090D01*
X008460Y003992D02*
X007560Y003992D01*
X007560Y003893D02*
X008460Y003893D01*
X008460Y003795D02*
X007560Y003795D01*
X007560Y003696D02*
X008460Y003696D01*
X008460Y003598D02*
X007560Y003598D01*
X007560Y003499D02*
X008460Y003499D01*
X008460Y003401D02*
X007560Y003401D01*
X007560Y003302D02*
X008460Y003302D01*
X008460Y003204D02*
X007560Y003204D01*
X007560Y003105D02*
X008460Y003105D01*
X008460Y003007D02*
X007560Y003007D01*
X007560Y002908D02*
X008460Y002908D01*
X008460Y002810D02*
X007560Y002810D01*
X007560Y002711D02*
X008460Y002711D01*
X008460Y002613D02*
X007560Y002613D01*
X007510Y002514D02*
X008460Y002514D01*
X008460Y002416D02*
X007510Y002416D01*
X007510Y002317D02*
X008460Y002317D01*
X008460Y002219D02*
X007510Y002219D01*
X007510Y002120D02*
X008460Y002120D01*
X008460Y002022D02*
X007510Y002022D01*
X007510Y001923D02*
X008460Y001923D01*
X008460Y001825D02*
X007510Y001825D01*
X007510Y001726D02*
X008460Y001726D01*
X008460Y001628D02*
X007510Y001628D01*
X007510Y001529D02*
X008460Y001529D01*
X008460Y001431D02*
X007510Y001431D01*
X006210Y001431D02*
X004710Y001431D01*
X004710Y001350D02*
X004710Y004550D01*
X005860Y004550D01*
X005860Y002550D01*
X006210Y002550D01*
X006210Y001350D01*
X004710Y001350D01*
X004710Y001529D02*
X006210Y001529D01*
X006210Y001628D02*
X004710Y001628D01*
X004710Y001726D02*
X006210Y001726D01*
X006210Y001825D02*
X004710Y001825D01*
X004710Y001923D02*
X006210Y001923D01*
X006210Y002022D02*
X004710Y002022D01*
X004710Y002120D02*
X006210Y002120D01*
X006210Y002219D02*
X004710Y002219D01*
X004710Y002317D02*
X006210Y002317D01*
X006210Y002416D02*
X004710Y002416D01*
X004710Y002514D02*
X006210Y002514D01*
X005860Y002613D02*
X004710Y002613D01*
X004710Y002711D02*
X005860Y002711D01*
X005860Y002810D02*
X004710Y002810D01*
X004710Y002908D02*
X005860Y002908D01*
X005860Y003007D02*
X004710Y003007D01*
X004710Y003105D02*
X005860Y003105D01*
X005860Y003204D02*
X004710Y003204D01*
X004710Y003302D02*
X005860Y003302D01*
X005860Y003401D02*
X004710Y003401D01*
X004710Y003499D02*
X005860Y003499D01*
X005860Y003598D02*
X004710Y003598D01*
X004710Y003696D02*
X005860Y003696D01*
X005860Y003795D02*
X004710Y003795D01*
X004710Y003893D02*
X005860Y003893D01*
X005860Y003992D02*
X004710Y003992D01*
X004710Y004090D02*
X005860Y004090D01*
X005860Y004189D02*
X004710Y004189D01*
X004710Y004287D02*
X005860Y004287D01*
X005860Y004386D02*
X004710Y004386D01*
X004710Y004484D02*
X005860Y004484D01*
X006265Y006356D02*
X004860Y006356D01*
X004860Y006454D02*
X006364Y006454D01*
X006462Y006553D02*
X004860Y006553D01*
X004860Y006651D02*
X006561Y006651D01*
X006659Y006750D02*
X004860Y006750D01*
X004860Y006848D02*
X007460Y006848D01*
X007460Y006947D02*
X004860Y006947D01*
X004860Y007045D02*
X007460Y007045D01*
X005760Y008850D02*
X005350Y008850D01*
X005230Y008970D01*
X005230Y009248D01*
X004855Y009248D02*
X004855Y008954D01*
X004860Y008950D01*
X005010Y009594D02*
X004710Y009594D01*
X004710Y009846D01*
X004837Y009846D01*
X004837Y010174D01*
X004874Y010174D01*
X004874Y009846D01*
X005010Y009846D01*
X005010Y009594D01*
X005010Y009606D02*
X004710Y009606D01*
X004710Y009705D02*
X005010Y009705D01*
X005010Y009803D02*
X004710Y009803D01*
X004837Y009902D02*
X004874Y009902D01*
X004874Y010000D02*
X004837Y010000D01*
X004837Y010099D02*
X004874Y010099D01*
X004874Y010211D02*
X004837Y010211D01*
X004837Y010539D01*
X004710Y010539D01*
X004710Y010888D01*
X004747Y010798D01*
X004897Y010647D01*
X005010Y010601D01*
X005010Y010539D01*
X004874Y010539D01*
X004874Y010211D01*
X004874Y010296D02*
X004837Y010296D01*
X004837Y010394D02*
X004874Y010394D01*
X004874Y010493D02*
X004837Y010493D01*
X004710Y010591D02*
X005010Y010591D01*
X004855Y010690D02*
X004710Y010690D01*
X004710Y010788D02*
X004756Y010788D01*
X004710Y010887D02*
X004710Y010887D01*
X004710Y011312D02*
X004710Y011942D01*
X004716Y011935D01*
X004874Y011870D01*
X005010Y011870D01*
X005010Y011599D01*
X004897Y011553D01*
X004747Y011402D01*
X004710Y011312D01*
X004710Y011379D02*
X004737Y011379D01*
X004710Y011478D02*
X004822Y011478D01*
X004710Y011576D02*
X004954Y011576D01*
X005010Y011675D02*
X004710Y011675D01*
X004710Y011773D02*
X005010Y011773D01*
X004870Y011872D02*
X004710Y011872D01*
X004710Y012658D02*
X004710Y017270D01*
X004716Y017348D01*
X004764Y017497D01*
X004856Y017624D01*
X004983Y017716D01*
X005131Y017764D01*
X005210Y017770D01*
X010476Y017770D01*
X010156Y017450D01*
X009910Y017450D01*
X009910Y017571D01*
X009880Y017600D01*
X005039Y017600D01*
X005010Y017571D01*
X005010Y017338D01*
X004966Y017295D01*
X004966Y016729D01*
X005010Y016686D01*
X005010Y016551D01*
X004966Y016508D01*
X004966Y015942D01*
X005010Y015899D01*
X005010Y015764D01*
X004966Y015720D01*
X004966Y015155D01*
X005010Y015111D01*
X005010Y014189D01*
X005006Y014185D01*
X004980Y014140D01*
X004966Y014089D01*
X004966Y013913D01*
X005010Y013913D01*
X005010Y013813D01*
X004966Y013813D01*
X004966Y013636D01*
X004980Y013585D01*
X005006Y013540D01*
X005010Y013536D01*
X005010Y013401D01*
X004966Y013358D01*
X004966Y012792D01*
X005010Y012749D01*
X005010Y012730D01*
X004874Y012730D01*
X004716Y012665D01*
X004710Y012658D01*
X004710Y012660D02*
X004711Y012660D01*
X004710Y012758D02*
X005001Y012758D01*
X004966Y012857D02*
X004710Y012857D01*
X004710Y012955D02*
X004966Y012955D01*
X004966Y013054D02*
X004710Y013054D01*
X004710Y013152D02*
X004966Y013152D01*
X004966Y013251D02*
X004710Y013251D01*
X004710Y013349D02*
X004966Y013349D01*
X005010Y013448D02*
X004710Y013448D01*
X004710Y013546D02*
X005003Y013546D01*
X004966Y013645D02*
X004710Y013645D01*
X004710Y013743D02*
X004966Y013743D01*
X005010Y013842D02*
X004710Y013842D01*
X004710Y013940D02*
X004966Y013940D01*
X004966Y014039D02*
X004710Y014039D01*
X004710Y014137D02*
X004979Y014137D01*
X005010Y014236D02*
X004710Y014236D01*
X004710Y014334D02*
X005010Y014334D01*
X005010Y014433D02*
X004710Y014433D01*
X004710Y014531D02*
X005010Y014531D01*
X005010Y014630D02*
X004710Y014630D01*
X004710Y014728D02*
X005010Y014728D01*
X005010Y014827D02*
X004710Y014827D01*
X004710Y014925D02*
X005010Y014925D01*
X005010Y015024D02*
X004710Y015024D01*
X004710Y015122D02*
X004999Y015122D01*
X004966Y015221D02*
X004710Y015221D01*
X004710Y015319D02*
X004966Y015319D01*
X004966Y015418D02*
X004710Y015418D01*
X004710Y015516D02*
X004966Y015516D01*
X004966Y015615D02*
X004710Y015615D01*
X004710Y015713D02*
X004966Y015713D01*
X005010Y015812D02*
X004710Y015812D01*
X004710Y015910D02*
X004998Y015910D01*
X004966Y016009D02*
X004710Y016009D01*
X004710Y016107D02*
X004966Y016107D01*
X004966Y016206D02*
X004710Y016206D01*
X004710Y016304D02*
X004966Y016304D01*
X004966Y016403D02*
X004710Y016403D01*
X004710Y016501D02*
X004966Y016501D01*
X005010Y016600D02*
X004710Y016600D01*
X004710Y016698D02*
X004998Y016698D01*
X004966Y016797D02*
X004710Y016797D01*
X004710Y016895D02*
X004966Y016895D01*
X004966Y016994D02*
X004710Y016994D01*
X004710Y017092D02*
X004966Y017092D01*
X004966Y017191D02*
X004710Y017191D01*
X004711Y017289D02*
X004966Y017289D01*
X005010Y017388D02*
X004728Y017388D01*
X004760Y017486D02*
X005010Y017486D01*
X005023Y017585D02*
X004828Y017585D01*
X004938Y017683D02*
X010389Y017683D01*
X010291Y017585D02*
X009896Y017585D01*
X009910Y017486D02*
X010192Y017486D01*
X009610Y016800D02*
X009660Y016750D01*
X010460Y015950D01*
X011160Y015250D01*
X011460Y014950D01*
X012660Y014950D01*
X012960Y015250D01*
X012966Y015256D01*
X012966Y015600D01*
X012510Y015700D02*
X012110Y015700D01*
X011810Y016000D01*
X011810Y016224D01*
X011809Y016225D01*
X011466Y016425D02*
X012152Y016425D01*
X012152Y016025D01*
X011466Y016025D01*
X011466Y016425D01*
X011466Y016124D02*
X012152Y016124D01*
X012152Y016223D02*
X011466Y016223D01*
X011466Y016322D02*
X012152Y016322D01*
X012152Y016421D02*
X011466Y016421D01*
X011060Y016250D02*
X011060Y016700D01*
X011410Y017150D01*
X011447Y017012D01*
X011809Y017012D01*
X011466Y017212D02*
X012152Y017212D01*
X012152Y016812D01*
X011466Y016812D01*
X011466Y017212D01*
X011466Y016911D02*
X012152Y016911D01*
X012152Y017010D02*
X011466Y017010D01*
X011466Y017109D02*
X012152Y017109D01*
X012152Y017208D02*
X011466Y017208D01*
X011060Y016250D02*
X011060Y015700D01*
X011560Y015250D01*
X012510Y015250D01*
X012710Y014600D02*
X010960Y014600D01*
X010360Y015200D01*
X010360Y015600D01*
X010360Y015700D01*
X009685Y016375D01*
X006085Y016375D01*
X005885Y016375D01*
X005860Y016350D01*
X005635Y016350D01*
X005510Y016225D01*
X005167Y016425D02*
X005853Y016425D01*
X005853Y016025D01*
X005167Y016025D01*
X005167Y016425D01*
X005167Y016124D02*
X005853Y016124D01*
X005853Y016223D02*
X005167Y016223D01*
X005167Y016322D02*
X005853Y016322D01*
X005853Y016421D02*
X005167Y016421D01*
X005167Y017212D02*
X005853Y017212D01*
X005853Y016812D01*
X005167Y016812D01*
X005167Y017212D01*
X005167Y016911D02*
X005853Y016911D01*
X005853Y017010D02*
X005167Y017010D01*
X005167Y017109D02*
X005853Y017109D01*
X005853Y017208D02*
X005167Y017208D01*
X005510Y017012D02*
X005722Y017012D01*
X005747Y017012D01*
X005960Y016800D01*
X009610Y016800D01*
X009685Y016375D02*
X009710Y016350D01*
X009610Y015900D02*
X009960Y015550D01*
X009910Y015500D01*
X009910Y015150D01*
X010710Y014350D01*
X012610Y014350D01*
X012760Y014200D01*
X013960Y014200D01*
X013910Y014250D01*
X013910Y014574D01*
X014410Y014574D02*
X014410Y014400D01*
X014460Y014350D01*
X014510Y014000D02*
X014360Y013850D01*
X014360Y012950D01*
X014410Y012900D01*
X014410Y012526D01*
X014410Y011897D01*
X014336Y011720D02*
X014166Y011450D01*
X013820Y011590D02*
X013460Y011950D01*
X007260Y011950D01*
X006060Y010750D01*
X005610Y010750D01*
X005310Y010450D01*
X005310Y010272D01*
X005230Y010192D01*
X005604Y010192D02*
X005652Y010192D01*
X005760Y010300D01*
X006060Y010350D02*
X006060Y009150D01*
X005760Y008850D01*
X006060Y010350D02*
X007410Y011700D01*
X013410Y011700D01*
X013600Y011510D01*
X013600Y010810D01*
X013860Y010550D01*
X015460Y010550D01*
X015710Y010300D01*
X016726Y010300D01*
X016922Y010495D01*
X016560Y010700D02*
X016260Y010700D01*
X016560Y010700D02*
X017110Y011200D01*
X017110Y013400D01*
X016922Y013588D01*
X016922Y013875D01*
X016513Y013696D02*
X016463Y013746D01*
X016460Y014300D01*
X016060Y014250D02*
X016060Y013550D01*
X016322Y013288D01*
X016334Y013288D01*
X016334Y012973D02*
X015982Y012973D01*
X015942Y012973D01*
X015820Y012950D01*
X015830Y012580D02*
X016067Y012658D01*
X016334Y012658D01*
X016341Y012350D02*
X016334Y012343D01*
X016341Y012350D02*
X016610Y012350D01*
X016810Y012550D01*
X016810Y013400D01*
X016513Y013696D01*
X017237Y013875D02*
X017237Y014173D01*
X016410Y014750D01*
X016410Y014906D01*
X016366Y014900D01*
X016360Y014894D01*
X016003Y014894D01*
X015760Y014650D01*
X015760Y013900D01*
X015560Y013700D01*
X014690Y013700D01*
X014860Y014000D02*
X014510Y014000D01*
X014860Y014000D02*
X014910Y014050D01*
X014910Y014574D01*
X014433Y014574D02*
X014410Y014574D01*
X015006Y015425D02*
X014833Y015598D01*
X014833Y015875D01*
X014722Y015986D01*
X014329Y015986D01*
X014218Y015875D01*
X014218Y015830D01*
X014061Y015830D01*
X014061Y015895D01*
X013950Y016006D01*
X013910Y016006D01*
X013910Y016746D01*
X014163Y017000D01*
X014322Y017000D01*
X014313Y016992D01*
X014263Y016922D01*
X014224Y016846D01*
X014198Y016765D01*
X014185Y016687D01*
X014678Y016687D01*
X014678Y016587D01*
X014778Y016587D01*
X014778Y016095D01*
X014855Y016107D01*
X015473Y016107D01*
X015464Y016117D02*
X015492Y016089D01*
X015526Y016069D01*
X015564Y016059D01*
X015801Y016059D01*
X015801Y016348D01*
X015434Y016348D01*
X015434Y016189D01*
X015444Y016151D01*
X015464Y016117D01*
X015434Y016206D02*
X015059Y016206D01*
X015082Y016223D02*
X015143Y016283D01*
X015193Y016352D01*
X015232Y016429D01*
X015258Y016510D01*
X015271Y016587D01*
X014778Y016587D01*
X014778Y016687D01*
X015271Y016687D01*
X015258Y016765D01*
X015232Y016846D01*
X015193Y016922D01*
X015143Y016992D01*
X015134Y017000D01*
X015434Y017000D01*
X015434Y016934D01*
X015521Y016846D01*
X016110Y016846D01*
X016289Y016667D01*
X016289Y016370D01*
X016260Y016300D01*
X016260Y016116D01*
X016215Y016116D01*
X016215Y016117D01*
X016235Y016151D01*
X016245Y016189D01*
X016245Y016348D01*
X015878Y016348D01*
X015878Y016425D01*
X015801Y016425D01*
X015801Y016714D01*
X015564Y016714D01*
X015526Y016704D01*
X015492Y016684D01*
X015464Y016656D01*
X015444Y016622D01*
X015434Y016584D01*
X015434Y016425D01*
X015801Y016425D01*
X015801Y016348D01*
X015878Y016348D01*
X015878Y016059D01*
X016099Y016059D01*
X016068Y016028D01*
X016068Y015392D01*
X016156Y015304D01*
X016167Y015304D01*
X016058Y015195D01*
X016058Y015094D01*
X015920Y015094D01*
X015678Y014851D01*
X015678Y015069D01*
X015605Y015142D01*
X015665Y015167D01*
X015743Y015244D01*
X015785Y015345D01*
X015785Y015455D01*
X015743Y015556D01*
X015665Y015633D01*
X015621Y015652D01*
X015621Y015875D01*
X015510Y015986D01*
X015117Y015986D01*
X015006Y015875D01*
X015006Y015425D01*
X015006Y015516D02*
X014915Y015516D01*
X014833Y015615D02*
X015006Y015615D01*
X015006Y015713D02*
X014833Y015713D01*
X014833Y015812D02*
X015006Y015812D01*
X015041Y015910D02*
X014798Y015910D01*
X014778Y016107D02*
X014678Y016107D01*
X014678Y016095D02*
X014678Y016587D01*
X014185Y016587D01*
X014198Y016510D01*
X014224Y016429D01*
X014263Y016352D01*
X014313Y016283D01*
X014374Y016223D01*
X014443Y016172D01*
X014519Y016134D01*
X014601Y016107D01*
X013910Y016107D01*
X013910Y016009D02*
X016068Y016009D01*
X016068Y015910D02*
X015586Y015910D01*
X015621Y015812D02*
X016068Y015812D01*
X016068Y015713D02*
X015621Y015713D01*
X015684Y015615D02*
X016068Y015615D01*
X016068Y015516D02*
X015759Y015516D01*
X015785Y015418D02*
X016068Y015418D01*
X016141Y015319D02*
X015774Y015319D01*
X015719Y015221D02*
X016084Y015221D01*
X016058Y015122D02*
X015624Y015122D01*
X015678Y015024D02*
X015850Y015024D01*
X015752Y014925D02*
X015678Y014925D01*
X015510Y015400D02*
X015313Y015446D01*
X015313Y015580D01*
X015013Y016172D02*
X014937Y016134D01*
X014855Y016107D01*
X014778Y016206D02*
X014678Y016206D01*
X014678Y016304D02*
X014778Y016304D01*
X014778Y016403D02*
X014678Y016403D01*
X014678Y016501D02*
X014778Y016501D01*
X014778Y016600D02*
X015438Y016600D01*
X015434Y016501D02*
X015255Y016501D01*
X015219Y016403D02*
X015801Y016403D01*
X015878Y016403D02*
X016289Y016403D01*
X016245Y016425D02*
X016245Y016584D01*
X016235Y016622D01*
X016215Y016656D01*
X016188Y016684D01*
X016153Y016704D01*
X016115Y016714D01*
X015878Y016714D01*
X015878Y016425D01*
X016245Y016425D01*
X016245Y016501D02*
X016289Y016501D01*
X016289Y016600D02*
X016241Y016600D01*
X016258Y016698D02*
X016163Y016698D01*
X016159Y016797D02*
X015248Y016797D01*
X015269Y016698D02*
X015516Y016698D01*
X015473Y016895D02*
X015207Y016895D01*
X015141Y016994D02*
X015434Y016994D01*
X015801Y016698D02*
X015878Y016698D01*
X015878Y016600D02*
X015801Y016600D01*
X015801Y016501D02*
X015878Y016501D01*
X015878Y016304D02*
X015801Y016304D01*
X015801Y016206D02*
X015878Y016206D01*
X015878Y016107D02*
X015801Y016107D01*
X015434Y016304D02*
X015158Y016304D01*
X015082Y016223D02*
X015013Y016172D01*
X014678Y016095D02*
X014601Y016107D01*
X014397Y016206D02*
X013910Y016206D01*
X013910Y016304D02*
X014298Y016304D01*
X014237Y016403D02*
X013910Y016403D01*
X013910Y016501D02*
X014201Y016501D01*
X014187Y016698D02*
X013910Y016698D01*
X013910Y016600D02*
X014678Y016600D01*
X014208Y016797D02*
X013960Y016797D01*
X014058Y016895D02*
X014249Y016895D01*
X014315Y016994D02*
X014157Y016994D01*
X013844Y017388D02*
X013476Y017388D01*
X013574Y017289D02*
X013745Y017289D01*
X013660Y017204D02*
X013121Y017742D01*
X013093Y017770D01*
X016712Y017770D01*
X016663Y017721D01*
X016663Y017045D01*
X016751Y016957D01*
X017268Y016957D01*
X017356Y017045D01*
X017356Y017133D01*
X018019Y017133D01*
X018038Y017141D01*
X018166Y017014D01*
X018098Y017014D01*
X018098Y016725D01*
X018021Y016725D01*
X018021Y017014D01*
X017784Y017014D01*
X017746Y017004D01*
X017712Y016984D01*
X017684Y016956D01*
X017664Y016922D01*
X017663Y016918D01*
X017638Y016932D01*
X017600Y016943D01*
X017432Y016943D01*
X017432Y016565D01*
X017335Y016565D01*
X017335Y016469D01*
X017037Y016469D01*
X017037Y016222D01*
X017047Y016183D01*
X017067Y016149D01*
X017095Y016121D01*
X017104Y016116D01*
X016986Y016116D01*
X016948Y016106D01*
X016914Y016086D01*
X016886Y016058D01*
X016866Y016024D01*
X016856Y015986D01*
X016856Y015749D01*
X017144Y015749D01*
X017144Y015671D01*
X016856Y015671D01*
X016856Y015604D01*
X016738Y015722D01*
X016760Y015774D01*
X016760Y016091D01*
X016894Y016091D01*
X016982Y016179D01*
X016982Y016855D01*
X016894Y016943D01*
X016721Y016943D01*
X016321Y017342D01*
X016251Y017412D01*
X016244Y017415D01*
X016158Y017501D01*
X015521Y017501D01*
X015520Y017500D01*
X014010Y017500D01*
X013918Y017462D01*
X013660Y017204D01*
X013377Y017486D02*
X013976Y017486D01*
X013279Y017585D02*
X016663Y017585D01*
X016663Y017683D02*
X013180Y017683D01*
X014046Y015910D02*
X014253Y015910D01*
X012760Y014550D02*
X012710Y014600D01*
X012527Y014150D02*
X012560Y014117D01*
X012677Y014000D01*
X013008Y014000D01*
X012870Y013862D01*
X012870Y013538D01*
X013098Y013310D01*
X013421Y013310D01*
X013611Y013500D01*
X013871Y013500D01*
X013904Y013467D01*
X014005Y013425D01*
X014114Y013425D01*
X014160Y013444D01*
X014160Y013040D01*
X014156Y013037D01*
X014148Y013052D01*
X014120Y013079D01*
X014086Y013099D01*
X014047Y013109D01*
X013919Y013109D01*
X013919Y012535D01*
X014141Y012535D01*
X014141Y012517D01*
X013919Y012517D01*
X013919Y012535D01*
X013900Y012535D01*
X013900Y012517D01*
X013641Y012517D01*
X013641Y012074D01*
X013650Y012043D01*
X013542Y012150D01*
X009910Y012150D01*
X009910Y014867D01*
X010627Y014150D01*
X011271Y014150D01*
X011266Y014145D01*
X011266Y013580D01*
X011358Y013488D01*
X011266Y013395D01*
X011266Y012830D01*
X011383Y012713D01*
X012236Y012713D01*
X012354Y012830D01*
X012354Y013395D01*
X012261Y013488D01*
X012354Y013580D01*
X012354Y014145D01*
X012349Y014150D01*
X012527Y014150D01*
X012540Y014137D02*
X012354Y014137D01*
X012354Y014039D02*
X012638Y014039D01*
X012560Y014117D02*
X012560Y014117D01*
X012354Y013940D02*
X012948Y013940D01*
X012870Y013842D02*
X012354Y013842D01*
X012354Y013743D02*
X012870Y013743D01*
X012870Y013645D02*
X012354Y013645D01*
X012320Y013546D02*
X012870Y013546D01*
X012960Y013448D02*
X012302Y013448D01*
X012354Y013349D02*
X013059Y013349D01*
X013460Y013349D02*
X014160Y013349D01*
X014160Y013251D02*
X012354Y013251D01*
X012354Y013152D02*
X014160Y013152D01*
X014146Y013054D02*
X014160Y013054D01*
X013919Y013054D02*
X013900Y013054D01*
X013900Y013109D02*
X013772Y013109D01*
X013734Y013099D01*
X013699Y013079D01*
X013671Y013052D01*
X013652Y013017D01*
X013641Y012979D01*
X013641Y012870D01*
X013421Y013090D01*
X013290Y013090D01*
X013290Y012730D01*
X013230Y012730D01*
X013230Y013090D01*
X013098Y013090D01*
X012870Y012862D01*
X012870Y012730D01*
X013230Y012730D01*
X013230Y012670D01*
X013290Y012670D01*
X013290Y012310D01*
X013421Y012310D01*
X013646Y012535D01*
X013900Y012535D01*
X013900Y013109D01*
X013900Y012955D02*
X013919Y012955D01*
X013919Y012857D02*
X013900Y012857D01*
X013900Y012758D02*
X013919Y012758D01*
X013919Y012660D02*
X013900Y012660D01*
X013900Y012561D02*
X013919Y012561D01*
X013919Y012517D02*
X013919Y011943D01*
X014047Y011943D01*
X014086Y011954D01*
X014120Y011973D01*
X014148Y012001D01*
X014156Y012016D01*
X014210Y011963D01*
X014210Y011897D01*
X014209Y011894D01*
X014185Y011856D01*
X013969Y011856D01*
X013903Y011789D01*
X013741Y011952D01*
X013772Y011943D01*
X013900Y011943D01*
X013900Y012517D01*
X013919Y012517D01*
X013919Y012463D02*
X013900Y012463D01*
X013900Y012364D02*
X013919Y012364D01*
X013919Y012266D02*
X013900Y012266D01*
X013900Y012167D02*
X013919Y012167D01*
X013919Y012069D02*
X013900Y012069D01*
X013900Y011970D02*
X013919Y011970D01*
X013821Y011872D02*
X014195Y011872D01*
X014337Y011720D02*
X014355Y011741D01*
X014372Y011764D01*
X014385Y011789D01*
X014396Y011814D01*
X014404Y011841D01*
X014408Y011869D01*
X014410Y011897D01*
X014203Y011970D02*
X014114Y011970D01*
X013820Y011590D02*
X013820Y010940D01*
X014010Y010750D01*
X015860Y010750D01*
X016110Y011000D01*
X016110Y011100D01*
X016317Y011100D01*
X016334Y011083D01*
X016334Y011398D02*
X016162Y011398D01*
X015710Y011100D01*
X015760Y011400D02*
X015410Y011400D01*
X015760Y011400D02*
X016072Y011713D01*
X016334Y011713D01*
X016334Y012028D02*
X016732Y012028D01*
X016860Y011900D01*
X016860Y011400D01*
X017310Y011379D02*
X017785Y011379D01*
X017785Y011345D02*
X017826Y011244D01*
X017904Y011167D01*
X018005Y011125D01*
X018114Y011125D01*
X018135Y011133D01*
X018135Y011045D01*
X018176Y010944D01*
X018225Y010895D01*
X018015Y010895D01*
X018010Y010890D01*
X017991Y010895D01*
X017869Y010895D01*
X017869Y010498D01*
X017864Y010498D01*
X017864Y010895D01*
X017742Y010895D01*
X017724Y010890D01*
X017719Y010895D01*
X017072Y010895D01*
X017187Y011000D01*
X017192Y011000D01*
X017248Y011055D01*
X017305Y011108D01*
X017306Y011113D01*
X017310Y011117D01*
X017310Y011195D01*
X017313Y011273D01*
X017310Y011277D01*
X017310Y013475D01*
X017404Y013475D01*
X017409Y013480D01*
X017427Y013475D01*
X017549Y013475D01*
X017549Y013873D01*
X017554Y013873D01*
X017554Y013475D01*
X017640Y013475D01*
X017640Y013422D01*
X017676Y013334D01*
X017736Y013274D01*
X017804Y013207D01*
X017892Y013170D01*
X018607Y013170D01*
X018631Y013180D01*
X019154Y013180D01*
X019164Y013170D01*
X019314Y013170D01*
X019314Y012543D01*
X019235Y012543D01*
X019235Y012555D01*
X019193Y012656D01*
X019115Y012733D01*
X019014Y012775D01*
X018905Y012775D01*
X018804Y012733D01*
X018726Y012656D01*
X018685Y012555D01*
X018685Y012445D01*
X018726Y012344D01*
X018804Y012267D01*
X018905Y012225D01*
X018952Y012225D01*
X019034Y012143D01*
X019314Y012143D01*
X019314Y011913D01*
X019184Y011913D01*
X018409Y012217D01*
X018393Y012256D01*
X018315Y012333D01*
X018214Y012375D01*
X018105Y012375D01*
X018004Y012333D01*
X017926Y012256D01*
X017885Y012155D01*
X017885Y012045D01*
X017926Y011944D01*
X018004Y011867D01*
X018105Y011825D01*
X018214Y011825D01*
X018262Y011845D01*
X018764Y011648D01*
X018180Y011648D01*
X018114Y011675D01*
X018005Y011675D01*
X017904Y011633D01*
X017826Y011556D01*
X017785Y011455D01*
X017785Y011345D01*
X017811Y011281D02*
X017310Y011281D01*
X017310Y011182D02*
X017889Y011182D01*
X018135Y011084D02*
X017279Y011084D01*
X017170Y010985D02*
X018159Y010985D01*
X018410Y011100D02*
X018510Y011200D01*
X019310Y011200D01*
X019427Y011083D01*
X019714Y011083D01*
X019507Y011448D02*
X018107Y011448D01*
X018060Y011400D01*
X017847Y011576D02*
X017310Y011576D01*
X017310Y011478D02*
X017794Y011478D01*
X018004Y011675D02*
X017310Y011675D01*
X017310Y011773D02*
X018445Y011773D01*
X018697Y011675D02*
X018115Y011675D01*
X017999Y011872D02*
X017310Y011872D01*
X017310Y011970D02*
X017916Y011970D01*
X017885Y012069D02*
X017310Y012069D01*
X017310Y012167D02*
X017890Y012167D01*
X017936Y012266D02*
X017310Y012266D01*
X017310Y012364D02*
X018078Y012364D01*
X018241Y012364D02*
X018718Y012364D01*
X018685Y012463D02*
X017310Y012463D01*
X017310Y012561D02*
X018687Y012561D01*
X018730Y012660D02*
X017310Y012660D01*
X017310Y012758D02*
X018864Y012758D01*
X019055Y012758D02*
X019314Y012758D01*
X019314Y012660D02*
X019189Y012660D01*
X019232Y012561D02*
X019314Y012561D01*
X019117Y012343D02*
X018960Y012500D01*
X019117Y012343D02*
X019714Y012343D01*
X019314Y012069D02*
X018788Y012069D01*
X018807Y012266D02*
X018383Y012266D01*
X018536Y012167D02*
X019010Y012167D01*
X019039Y011970D02*
X019314Y011970D01*
X019147Y011713D02*
X018160Y012100D01*
X017310Y012857D02*
X019314Y012857D01*
X019314Y012955D02*
X017310Y012955D01*
X017310Y013054D02*
X019314Y013054D01*
X019314Y013152D02*
X017310Y013152D01*
X017310Y013251D02*
X017760Y013251D01*
X017670Y013349D02*
X017310Y013349D01*
X017310Y013448D02*
X017640Y013448D01*
X017554Y013546D02*
X017549Y013546D01*
X017549Y013645D02*
X017554Y013645D01*
X017549Y013743D02*
X017554Y013743D01*
X017549Y013842D02*
X017554Y013842D01*
X017554Y013878D02*
X017549Y013878D01*
X017549Y014275D01*
X017427Y014275D01*
X017422Y014274D01*
X017419Y014289D01*
X017366Y014327D01*
X017320Y014373D01*
X017300Y014373D01*
X017126Y014494D01*
X017350Y014494D01*
X017461Y014605D01*
X017461Y014668D01*
X017499Y014671D01*
X017541Y014629D01*
X017635Y014629D01*
X017637Y014561D01*
X017637Y014275D01*
X017554Y014275D01*
X017554Y013878D01*
X017549Y013940D02*
X017554Y013940D01*
X017549Y014039D02*
X017554Y014039D01*
X017549Y014137D02*
X017554Y014137D01*
X017549Y014236D02*
X017554Y014236D01*
X017637Y014334D02*
X017358Y014334D01*
X017214Y014433D02*
X017637Y014433D01*
X017637Y014531D02*
X017387Y014531D01*
X017461Y014630D02*
X017541Y014630D01*
X017457Y015199D02*
X017352Y015304D01*
X017380Y015304D01*
X017419Y015314D01*
X017453Y015334D01*
X017481Y015362D01*
X017500Y015396D01*
X017511Y015434D01*
X017511Y015447D01*
X017512Y015446D01*
X017546Y015426D01*
X017584Y015416D01*
X017821Y015416D01*
X017821Y015705D01*
X017898Y015705D01*
X017898Y015416D01*
X018135Y015416D01*
X018173Y015426D01*
X018208Y015446D01*
X018235Y015474D01*
X018255Y015508D01*
X018265Y015546D01*
X018265Y015705D01*
X017898Y015705D01*
X017898Y015782D01*
X018265Y015782D01*
X018265Y015941D01*
X018255Y015979D01*
X018235Y016013D01*
X018208Y016041D01*
X018173Y016061D01*
X018135Y016071D01*
X017898Y016071D01*
X017898Y015782D01*
X017821Y015782D01*
X017821Y015705D01*
X017454Y015705D01*
X017454Y015671D01*
X017222Y015671D01*
X017222Y015749D01*
X017511Y015749D01*
X017511Y015782D01*
X017821Y015782D01*
X017821Y016071D01*
X017584Y016071D01*
X017546Y016061D01*
X017512Y016041D01*
X017498Y016028D01*
X017481Y016058D01*
X017453Y016086D01*
X017443Y016091D01*
X017600Y016091D01*
X017638Y016102D01*
X017672Y016121D01*
X017700Y016149D01*
X017720Y016183D01*
X017730Y016222D01*
X017730Y016378D01*
X017746Y016369D01*
X017784Y016359D01*
X018021Y016359D01*
X018021Y016648D01*
X018098Y016648D01*
X018098Y016725D01*
X018455Y016725D01*
X018625Y016555D01*
X018625Y016555D01*
X018644Y016536D01*
X018644Y016457D01*
X018731Y016369D01*
X019368Y016369D01*
X019445Y016446D01*
X019584Y016446D01*
X019584Y016417D01*
X019671Y016329D01*
X020308Y016329D01*
X020324Y016345D01*
X020330Y016329D01*
X020483Y016176D01*
X020683Y016094D01*
X020752Y016094D01*
X020752Y015171D01*
X020454Y015171D01*
X020366Y015083D01*
X020366Y014890D01*
X020265Y014789D01*
X020265Y015096D01*
X020178Y015184D01*
X019541Y015184D01*
X019488Y015130D01*
X019488Y015165D01*
X019438Y015286D01*
X019345Y015378D01*
X019225Y015428D01*
X019094Y015428D01*
X019055Y015412D01*
X019017Y015450D01*
X018402Y015450D01*
X018285Y015333D01*
X018285Y014867D01*
X018318Y014834D01*
X018265Y014781D01*
X018265Y015196D01*
X018178Y015284D01*
X017541Y015284D01*
X017457Y015199D01*
X017478Y015221D02*
X017435Y015221D01*
X017427Y015319D02*
X018285Y015319D01*
X018285Y015221D02*
X018241Y015221D01*
X018265Y015122D02*
X018285Y015122D01*
X018285Y015024D02*
X018265Y015024D01*
X018265Y014925D02*
X018285Y014925D01*
X018265Y014827D02*
X018311Y014827D01*
X018485Y014950D02*
X018485Y015250D01*
X018935Y015250D01*
X018935Y014950D01*
X018485Y014950D01*
X018485Y015049D02*
X018935Y015049D01*
X018935Y015148D02*
X018485Y015148D01*
X018485Y015247D02*
X018935Y015247D01*
X018961Y015450D02*
X018760Y015450D01*
X018760Y015750D01*
X018760Y015850D01*
X019135Y015850D01*
X019135Y015976D01*
X019121Y016027D01*
X019095Y016073D01*
X019057Y016110D01*
X019012Y016136D01*
X018961Y016150D01*
X018760Y016150D01*
X018760Y015850D01*
X018660Y015850D01*
X018660Y016150D01*
X018458Y016150D01*
X018407Y016136D01*
X018362Y016110D01*
X018324Y016073D01*
X018298Y016027D01*
X018285Y015976D01*
X018285Y015850D01*
X018660Y015850D01*
X018660Y015750D01*
X018760Y015750D01*
X019135Y015750D01*
X019135Y015624D01*
X019121Y015573D01*
X019095Y015527D01*
X019057Y015490D01*
X019012Y015464D01*
X018961Y015450D01*
X019050Y015418D02*
X019069Y015418D01*
X019083Y015516D02*
X019454Y015516D01*
X019454Y015446D02*
X019464Y015408D01*
X019484Y015374D01*
X019512Y015346D01*
X019546Y015326D01*
X019584Y015316D01*
X019821Y015316D01*
X019821Y015605D01*
X019898Y015605D01*
X019898Y015316D01*
X020135Y015316D01*
X020173Y015326D01*
X020208Y015346D01*
X020235Y015374D01*
X020255Y015408D01*
X020265Y015446D01*
X020265Y015605D01*
X019898Y015605D01*
X019898Y015682D01*
X020265Y015682D01*
X020265Y015841D01*
X020255Y015879D01*
X020235Y015913D01*
X020208Y015941D01*
X020173Y015961D01*
X020135Y015971D01*
X019898Y015971D01*
X019898Y015682D01*
X019821Y015682D01*
X019821Y015605D01*
X019454Y015605D01*
X019454Y015446D01*
X019461Y015418D02*
X019250Y015418D01*
X019404Y015319D02*
X019573Y015319D01*
X019465Y015221D02*
X020752Y015221D01*
X020752Y015319D02*
X020146Y015319D01*
X020258Y015418D02*
X020752Y015418D01*
X020660Y015418D02*
X021702Y015418D01*
X021702Y015350D02*
X020660Y015350D01*
X020660Y016147D01*
X020691Y016134D01*
X020891Y016134D01*
X021076Y016210D01*
X021218Y016352D01*
X021295Y016537D01*
X021295Y016738D01*
X021218Y016923D01*
X021076Y017064D01*
X020891Y017141D01*
X020691Y017141D01*
X020660Y017128D01*
X020660Y017770D01*
X021171Y017770D01*
X021191Y017765D01*
X021221Y017770D01*
X021251Y017770D01*
X021261Y017774D01*
X021319Y017777D01*
X021474Y017740D01*
X021602Y017645D01*
X021685Y017509D01*
X021702Y017443D01*
X021702Y015350D01*
X021702Y015516D02*
X020660Y015516D01*
X020752Y015516D02*
X020265Y015516D01*
X020265Y015713D02*
X020752Y015713D01*
X020660Y015713D02*
X021702Y015713D01*
X021702Y015615D02*
X020660Y015615D01*
X020752Y015615D02*
X019898Y015615D01*
X019821Y015615D02*
X019132Y015615D01*
X019135Y015713D02*
X019454Y015713D01*
X019454Y015682D02*
X019454Y015841D01*
X019464Y015879D01*
X019484Y015913D01*
X019512Y015941D01*
X019546Y015961D01*
X019584Y015971D01*
X019821Y015971D01*
X019821Y015682D01*
X019454Y015682D01*
X019454Y015812D02*
X018760Y015812D01*
X018485Y015950D02*
X018485Y015650D01*
X018485Y015950D02*
X018935Y015950D01*
X018935Y015650D01*
X018485Y015650D01*
X018485Y015749D02*
X018935Y015749D01*
X018935Y015848D02*
X018485Y015848D01*
X018485Y015947D02*
X018935Y015947D01*
X018760Y015910D02*
X018660Y015910D01*
X018660Y015812D02*
X018265Y015812D01*
X018285Y015750D02*
X018285Y015624D01*
X018298Y015573D01*
X018324Y015527D01*
X018362Y015490D01*
X018407Y015464D01*
X018458Y015450D01*
X018660Y015450D01*
X018660Y015750D01*
X018285Y015750D01*
X018285Y015713D02*
X017898Y015713D01*
X017821Y015713D02*
X017222Y015713D01*
X017144Y015713D02*
X016746Y015713D01*
X016760Y015812D02*
X016856Y015812D01*
X016856Y015910D02*
X016760Y015910D01*
X016760Y016009D02*
X016862Y016009D01*
X016910Y016107D02*
X016953Y016107D01*
X016982Y016206D02*
X017041Y016206D01*
X017037Y016304D02*
X016982Y016304D01*
X016982Y016403D02*
X017037Y016403D01*
X016982Y016501D02*
X017335Y016501D01*
X017335Y016565D02*
X017037Y016565D01*
X017037Y016812D01*
X017047Y016850D01*
X017067Y016885D01*
X017095Y016913D01*
X017129Y016932D01*
X017167Y016943D01*
X017335Y016943D01*
X017335Y016565D01*
X017335Y016600D02*
X017432Y016600D01*
X017432Y016698D02*
X017335Y016698D01*
X017335Y016797D02*
X017432Y016797D01*
X017432Y016895D02*
X017335Y016895D01*
X017305Y016994D02*
X017728Y016994D01*
X018021Y016994D02*
X018098Y016994D01*
X018088Y017092D02*
X017356Y017092D01*
X017077Y016895D02*
X016942Y016895D01*
X016982Y016797D02*
X017037Y016797D01*
X017037Y016698D02*
X016982Y016698D01*
X016982Y016600D02*
X017037Y016600D01*
X016714Y016994D02*
X016670Y016994D01*
X016663Y017092D02*
X016571Y017092D01*
X016663Y017191D02*
X016473Y017191D01*
X016374Y017289D02*
X016663Y017289D01*
X016663Y017388D02*
X016276Y017388D01*
X016173Y017486D02*
X016663Y017486D01*
X016261Y016304D02*
X016245Y016304D01*
X016245Y016206D02*
X016260Y016206D01*
X016845Y015615D02*
X016856Y015615D01*
X017506Y015418D02*
X017579Y015418D01*
X017821Y015418D02*
X017898Y015418D01*
X017898Y015516D02*
X017821Y015516D01*
X017821Y015615D02*
X017898Y015615D01*
X017898Y015812D02*
X017821Y015812D01*
X017821Y015910D02*
X017898Y015910D01*
X017898Y016009D02*
X017821Y016009D01*
X017648Y016107D02*
X018359Y016107D01*
X018293Y016009D02*
X018238Y016009D01*
X018265Y015910D02*
X018285Y015910D01*
X018265Y015615D02*
X018287Y015615D01*
X018257Y015516D02*
X018336Y015516D01*
X018369Y015418D02*
X018140Y015418D01*
X018660Y015516D02*
X018760Y015516D01*
X018760Y015615D02*
X018660Y015615D01*
X018660Y015713D02*
X018760Y015713D01*
X018760Y016009D02*
X018660Y016009D01*
X018660Y016107D02*
X018760Y016107D01*
X019060Y016107D02*
X020651Y016107D01*
X020660Y016107D02*
X021702Y016107D01*
X021702Y016009D02*
X020660Y016009D01*
X020752Y016009D02*
X019126Y016009D01*
X019135Y015910D02*
X019482Y015910D01*
X019821Y015910D02*
X019898Y015910D01*
X019898Y015812D02*
X019821Y015812D01*
X019821Y015713D02*
X019898Y015713D01*
X019898Y015516D02*
X019821Y015516D01*
X019821Y015418D02*
X019898Y015418D01*
X019898Y015319D02*
X019821Y015319D01*
X020239Y015122D02*
X020405Y015122D01*
X020366Y015024D02*
X020265Y015024D01*
X020265Y014925D02*
X020366Y014925D01*
X020303Y014827D02*
X020265Y014827D01*
X020610Y014850D02*
X020835Y014850D01*
X020851Y014884D01*
X020610Y014850D02*
X020060Y014300D01*
X019010Y014300D01*
X018812Y014152D01*
X018812Y013875D01*
X019127Y013875D02*
X019185Y013875D01*
X019360Y014050D01*
X020310Y014050D01*
X020510Y013850D01*
X020890Y013850D01*
X020851Y013939D01*
X020752Y015812D02*
X020265Y015812D01*
X020237Y015910D02*
X020752Y015910D01*
X020660Y015910D02*
X021702Y015910D01*
X021702Y015812D02*
X020660Y015812D01*
X020454Y016206D02*
X017726Y016206D01*
X017730Y016304D02*
X020355Y016304D01*
X020338Y016953D02*
X020308Y016984D01*
X019671Y016984D01*
X019634Y016946D01*
X019445Y016946D01*
X019368Y017024D01*
X018863Y017024D01*
X018465Y017421D01*
X018465Y017713D01*
X018409Y017770D01*
X018690Y017770D01*
X018674Y017753D01*
X018654Y017719D01*
X018644Y017681D01*
X018644Y017522D01*
X019011Y017522D01*
X019011Y017445D01*
X019088Y017445D01*
X019088Y017156D01*
X019325Y017156D01*
X019363Y017166D01*
X019398Y017186D01*
X019425Y017214D01*
X019445Y017248D01*
X019455Y017286D01*
X019455Y017445D01*
X019088Y017445D01*
X019088Y017522D01*
X019455Y017522D01*
X019455Y017681D01*
X019445Y017719D01*
X019425Y017753D01*
X019409Y017770D01*
X019710Y017770D01*
X019676Y017761D01*
X019642Y017741D01*
X019614Y017713D01*
X019594Y017679D01*
X019584Y017641D01*
X019584Y017482D01*
X019951Y017482D01*
X019951Y017405D01*
X020028Y017405D01*
X020028Y017116D01*
X020265Y017116D01*
X020303Y017126D01*
X020338Y017146D01*
X020365Y017174D01*
X020385Y017208D01*
X020395Y017246D01*
X020395Y017405D01*
X020028Y017405D01*
X020028Y017482D01*
X020395Y017482D01*
X020395Y017641D01*
X020385Y017679D01*
X020365Y017713D01*
X020338Y017741D01*
X020303Y017761D01*
X020269Y017770D01*
X020752Y017770D01*
X020752Y017181D01*
X020683Y017181D01*
X020483Y017098D01*
X020338Y016953D01*
X020378Y016994D02*
X019398Y016994D01*
X019402Y017191D02*
X019604Y017191D01*
X019614Y017174D02*
X019642Y017146D01*
X019676Y017126D01*
X019714Y017116D01*
X019951Y017116D01*
X019951Y017405D01*
X019584Y017405D01*
X019584Y017246D01*
X019594Y017208D01*
X019614Y017174D01*
X019584Y017289D02*
X019455Y017289D01*
X019455Y017388D02*
X019584Y017388D01*
X019584Y017486D02*
X019088Y017486D01*
X019011Y017486D02*
X018465Y017486D01*
X018465Y017585D02*
X018644Y017585D01*
X018644Y017683D02*
X018465Y017683D01*
X018499Y017388D02*
X018644Y017388D01*
X018644Y017445D02*
X018644Y017286D01*
X018654Y017248D01*
X018674Y017214D01*
X018702Y017186D01*
X018736Y017166D01*
X018774Y017156D01*
X019011Y017156D01*
X019011Y017445D01*
X018644Y017445D01*
X018644Y017289D02*
X018598Y017289D01*
X018696Y017191D02*
X018697Y017191D01*
X018795Y017092D02*
X020477Y017092D01*
X020375Y017191D02*
X020752Y017191D01*
X020660Y017191D02*
X021702Y017191D01*
X021702Y017289D02*
X020660Y017289D01*
X020752Y017289D02*
X020395Y017289D01*
X020395Y017388D02*
X020752Y017388D01*
X020660Y017388D02*
X021702Y017388D01*
X021691Y017486D02*
X020660Y017486D01*
X020752Y017486D02*
X020395Y017486D01*
X020395Y017585D02*
X020752Y017585D01*
X020660Y017585D02*
X021639Y017585D01*
X021551Y017683D02*
X020660Y017683D01*
X020752Y017683D02*
X020383Y017683D01*
X020028Y017388D02*
X019951Y017388D01*
X019951Y017289D02*
X020028Y017289D01*
X020028Y017191D02*
X019951Y017191D01*
X019584Y017585D02*
X019455Y017585D01*
X019455Y017683D02*
X019596Y017683D01*
X019088Y017388D02*
X019011Y017388D01*
X019011Y017289D02*
X019088Y017289D01*
X019088Y017191D02*
X019011Y017191D01*
X018482Y016698D02*
X018098Y016698D01*
X018098Y016648D02*
X018465Y016648D01*
X018465Y016489D01*
X018455Y016451D01*
X018435Y016417D01*
X018408Y016389D01*
X018373Y016369D01*
X018335Y016359D01*
X018098Y016359D01*
X018098Y016648D01*
X018098Y016600D02*
X018021Y016600D01*
X018021Y016501D02*
X018098Y016501D01*
X018098Y016403D02*
X018021Y016403D01*
X018421Y016403D02*
X018698Y016403D01*
X018644Y016501D02*
X018465Y016501D01*
X018465Y016600D02*
X018580Y016600D01*
X018098Y016797D02*
X018021Y016797D01*
X018021Y016895D02*
X018098Y016895D01*
X019401Y016403D02*
X019598Y016403D01*
X021065Y016206D02*
X021702Y016206D01*
X021702Y016304D02*
X021170Y016304D01*
X021239Y016403D02*
X021702Y016403D01*
X021702Y016501D02*
X021280Y016501D01*
X021295Y016600D02*
X021702Y016600D01*
X021702Y016698D02*
X021295Y016698D01*
X021270Y016797D02*
X021702Y016797D01*
X021702Y016895D02*
X021229Y016895D01*
X021147Y016994D02*
X021702Y016994D01*
X021702Y017092D02*
X021010Y017092D01*
X015410Y012526D02*
X015410Y012200D01*
X014853Y011644D01*
X014953Y011450D01*
X014860Y011444D01*
X014860Y011050D01*
X014286Y010184D02*
X014033Y010197D01*
X014038Y010197D01*
X014033Y010197D02*
X014033Y009822D01*
X013946Y009734D01*
X013586Y009734D01*
X013498Y009822D01*
X013498Y009910D01*
X012875Y009910D01*
X012860Y009925D01*
X012825Y009890D01*
X012410Y009890D01*
X012410Y009784D01*
X012345Y009720D01*
X012034Y009720D01*
X012028Y009726D01*
X012012Y009710D01*
X011977Y009690D01*
X011939Y009680D01*
X011815Y009680D01*
X011815Y010075D01*
X011805Y010075D01*
X011805Y009680D01*
X011680Y009680D01*
X011642Y009690D01*
X011607Y009710D01*
X011591Y009726D01*
X011585Y009720D01*
X011274Y009720D01*
X011210Y009784D01*
X011210Y009794D01*
X011035Y009794D01*
X011035Y009761D01*
X010971Y009696D01*
X010368Y009696D01*
X010304Y009761D01*
X010304Y009804D01*
X010175Y009804D01*
X010098Y009726D01*
X010060Y009726D01*
X010060Y009514D01*
X010061Y009514D01*
X010109Y009501D01*
X010152Y009476D01*
X010188Y009441D01*
X010213Y009398D01*
X010225Y009349D01*
X010225Y009235D01*
X010060Y009235D01*
X010060Y009178D01*
X010225Y009178D01*
X010225Y009063D01*
X010213Y009015D01*
X010188Y008972D01*
X010152Y008937D01*
X010131Y008924D01*
X010131Y008789D01*
X010060Y008789D01*
X010060Y008750D01*
X011210Y008750D01*
X011215Y008763D01*
X011243Y008791D01*
X011210Y008824D01*
X011210Y009416D01*
X011274Y009480D01*
X011585Y009480D01*
X011650Y009416D01*
X011650Y009197D01*
X011670Y009177D01*
X011670Y008797D01*
X011704Y008763D01*
X011709Y008750D01*
X012660Y008750D01*
X013245Y008165D01*
X013558Y008024D01*
X013968Y008024D01*
X014045Y007946D01*
X014154Y007946D01*
X014154Y007959D01*
X014218Y008024D01*
X014821Y008024D01*
X014885Y007959D01*
X014885Y007926D01*
X015894Y007926D01*
X015894Y007959D01*
X015958Y008024D01*
X016460Y008024D01*
X016460Y008196D01*
X016298Y008196D01*
X016298Y008485D01*
X016221Y008485D01*
X016221Y008196D01*
X015984Y008196D01*
X015946Y008206D01*
X015912Y008226D01*
X015884Y008254D01*
X015864Y008288D01*
X015854Y008326D01*
X015580Y008326D01*
X015578Y008322D02*
X015603Y008365D01*
X015615Y008413D01*
X015615Y008528D01*
X015238Y008528D01*
X015238Y008585D01*
X015181Y008585D01*
X015181Y008864D01*
X014968Y008864D01*
X014920Y008851D01*
X014877Y008826D01*
X014870Y008819D01*
X014868Y008821D01*
X014833Y008841D01*
X014795Y008851D01*
X014558Y008851D01*
X014558Y008562D01*
X014925Y008562D01*
X014925Y008585D01*
X015181Y008585D01*
X015181Y008528D01*
X014804Y008528D01*
X014804Y008485D01*
X014558Y008485D01*
X014558Y008196D01*
X014795Y008196D01*
X014833Y008206D01*
X014868Y008226D01*
X014895Y008254D01*
X014905Y008270D01*
X014920Y008262D01*
X014968Y008249D01*
X015181Y008249D01*
X015181Y008528D01*
X015238Y008528D01*
X015238Y008249D01*
X015451Y008249D01*
X015499Y008262D01*
X015542Y008287D01*
X015578Y008322D01*
X015615Y008424D02*
X015854Y008424D01*
X015854Y008485D02*
X015854Y008326D01*
X015911Y008227D02*
X014868Y008227D01*
X014885Y007932D02*
X015894Y007932D01*
X016221Y008227D02*
X016298Y008227D01*
X016298Y008326D02*
X016221Y008326D01*
X016221Y008424D02*
X016298Y008424D01*
X016221Y008485D02*
X015854Y008485D01*
X015854Y008562D02*
X016221Y008562D01*
X016221Y008485D01*
X016221Y008523D02*
X015615Y008523D01*
X015615Y008585D02*
X015238Y008585D01*
X015238Y008864D01*
X015451Y008864D01*
X015499Y008851D01*
X015542Y008826D01*
X015578Y008791D01*
X015603Y008748D01*
X015615Y008699D01*
X015615Y008585D01*
X015615Y008621D02*
X015854Y008621D01*
X015854Y008562D02*
X015854Y008721D01*
X015864Y008759D01*
X015884Y008793D01*
X015912Y008821D01*
X015946Y008841D01*
X015984Y008851D01*
X016110Y008851D01*
X016110Y009077D01*
X014960Y010150D01*
X014821Y010157D01*
X014821Y009822D01*
X014743Y009744D01*
X014743Y009606D01*
X014926Y009606D01*
X014931Y009611D02*
X014870Y009550D01*
X014799Y009550D01*
X014743Y009606D01*
X014743Y009705D02*
X015437Y009705D01*
X015488Y009611D02*
X015575Y009524D01*
X015575Y009164D01*
X015488Y009076D01*
X014931Y009076D01*
X014877Y009130D01*
X014801Y009130D01*
X014801Y008992D01*
X014713Y008904D01*
X014353Y008904D01*
X014266Y008992D01*
X014266Y009548D01*
X014353Y009636D01*
X014363Y009636D01*
X014363Y009744D01*
X014286Y009822D01*
X014286Y010184D01*
X014286Y010099D02*
X014033Y010099D01*
X014033Y010000D02*
X014286Y010000D01*
X014286Y009902D02*
X014033Y009902D01*
X014015Y009803D02*
X014304Y009803D01*
X014363Y009705D02*
X012002Y009705D01*
X011815Y009705D02*
X011805Y009705D01*
X011805Y009803D02*
X011815Y009803D01*
X011805Y009902D02*
X011815Y009902D01*
X011805Y010000D02*
X011815Y010000D01*
X011617Y009705D02*
X010979Y009705D01*
X010945Y009524D02*
X010708Y009524D01*
X010708Y009235D01*
X010631Y009235D01*
X010631Y009524D01*
X010394Y009524D01*
X010356Y009514D01*
X010322Y009494D01*
X010294Y009466D01*
X010274Y009432D01*
X010264Y009394D01*
X010264Y009235D01*
X010631Y009235D01*
X010631Y009158D01*
X010264Y009158D01*
X010264Y008999D01*
X010274Y008961D01*
X010294Y008927D01*
X010322Y008899D01*
X010356Y008879D01*
X010394Y008869D01*
X010631Y008869D01*
X010631Y009158D01*
X010708Y009158D01*
X010708Y009235D01*
X011075Y009235D01*
X011075Y009394D01*
X011065Y009432D01*
X011045Y009466D01*
X011018Y009494D01*
X010983Y009514D01*
X010945Y009524D01*
X010994Y009508D02*
X012494Y009508D01*
X012494Y009586D02*
X012494Y009310D01*
X012410Y009310D01*
X012410Y009416D01*
X012345Y009480D01*
X012034Y009480D01*
X011970Y009416D01*
X011970Y008824D01*
X012034Y008760D01*
X012345Y008760D01*
X012410Y008824D01*
X012410Y008930D01*
X012586Y008930D01*
X012586Y008833D01*
X012651Y008769D01*
X013010Y008769D01*
X013010Y008667D01*
X013007Y008664D01*
X013010Y008647D01*
X013010Y008629D01*
X013011Y008628D01*
X013009Y008624D01*
X013014Y008611D01*
X013016Y008597D01*
X013022Y008593D01*
X013021Y008586D01*
X013029Y008575D01*
X013035Y008562D01*
X013041Y008559D01*
X013042Y008552D01*
X013053Y008544D01*
X013062Y008532D01*
X013069Y008532D01*
X013071Y008525D01*
X013084Y008520D01*
X013096Y008511D01*
X013102Y008512D01*
X013107Y008507D01*
X013121Y008505D01*
X013134Y008499D01*
X013138Y008501D01*
X013139Y008500D01*
X013156Y008500D01*
X013174Y008498D01*
X013176Y008500D01*
X013284Y008500D01*
X013284Y008401D01*
X013297Y008352D01*
X013321Y008309D01*
X013357Y008274D01*
X013400Y008249D01*
X013448Y008236D01*
X013661Y008236D01*
X013661Y008500D01*
X013718Y008500D01*
X013718Y008236D01*
X013931Y008236D01*
X013979Y008249D01*
X014022Y008274D01*
X014058Y008309D01*
X014083Y008352D01*
X014095Y008401D01*
X014095Y008515D01*
X013979Y008515D01*
X013985Y008520D01*
X013998Y008525D01*
X014000Y008532D01*
X014007Y008532D01*
X014016Y008544D01*
X014027Y008552D01*
X014028Y008559D01*
X014034Y008562D01*
X014039Y008572D01*
X014095Y008572D01*
X014095Y008687D01*
X014083Y008735D01*
X014060Y008775D01*
X014060Y009483D01*
X014062Y009486D01*
X014060Y009503D01*
X014060Y009521D01*
X014059Y009522D01*
X014060Y009526D01*
X014055Y009539D01*
X014053Y009553D01*
X014047Y009557D01*
X014048Y009564D01*
X014040Y009575D01*
X014034Y009588D01*
X014028Y009591D01*
X014027Y009598D01*
X014016Y009606D01*
X014323Y009606D01*
X014266Y009508D02*
X014060Y009508D01*
X014060Y009409D02*
X014266Y009409D01*
X014266Y009311D02*
X014060Y009311D01*
X014060Y009212D02*
X014266Y009212D01*
X014266Y009114D02*
X014060Y009114D01*
X014060Y009015D02*
X014266Y009015D01*
X014341Y008917D02*
X014060Y008917D01*
X014060Y008818D02*
X014168Y008818D01*
X014172Y008821D02*
X014144Y008793D01*
X014124Y008759D01*
X014114Y008721D01*
X014114Y008562D01*
X014481Y008562D01*
X014481Y008485D01*
X014558Y008485D01*
X014558Y008562D01*
X014481Y008562D01*
X014481Y008851D01*
X014244Y008851D01*
X014206Y008841D01*
X014172Y008821D01*
X014114Y008720D02*
X014087Y008720D01*
X014095Y008621D02*
X014114Y008621D01*
X014114Y008485D02*
X014114Y008326D01*
X014067Y008326D01*
X014114Y008326D02*
X014124Y008288D01*
X014144Y008254D01*
X014172Y008226D01*
X014206Y008206D01*
X014244Y008196D01*
X014481Y008196D01*
X014481Y008485D01*
X014114Y008485D01*
X014114Y008424D02*
X014095Y008424D01*
X013991Y008523D02*
X014481Y008523D01*
X014558Y008523D02*
X014804Y008523D01*
X014558Y008621D02*
X014481Y008621D01*
X014481Y008720D02*
X014558Y008720D01*
X014558Y008818D02*
X014481Y008818D01*
X014726Y008917D02*
X016110Y008917D01*
X016110Y009015D02*
X014801Y009015D01*
X014801Y009114D02*
X014894Y009114D01*
X015181Y008818D02*
X015238Y008818D01*
X015238Y008720D02*
X015181Y008720D01*
X015181Y008621D02*
X015238Y008621D01*
X015238Y008523D02*
X015181Y008523D01*
X015181Y008424D02*
X015238Y008424D01*
X015238Y008326D02*
X015181Y008326D01*
X015610Y008720D02*
X015854Y008720D01*
X015908Y008818D02*
X015550Y008818D01*
X015525Y009114D02*
X016070Y009114D01*
X015964Y009212D02*
X015575Y009212D01*
X015575Y009311D02*
X015859Y009311D01*
X015753Y009409D02*
X015575Y009409D01*
X015575Y009508D02*
X015648Y009508D01*
X015542Y009606D02*
X015493Y009606D01*
X015488Y009611D02*
X014931Y009611D01*
X014802Y009803D02*
X015331Y009803D01*
X015226Y009902D02*
X014821Y009902D01*
X014821Y010000D02*
X015120Y010000D01*
X015015Y010099D02*
X014821Y010099D01*
X014016Y009606D02*
X014007Y009618D01*
X014000Y009618D01*
X013998Y009625D01*
X013985Y009630D01*
X013974Y009639D01*
X013967Y009638D01*
X013962Y009643D01*
X013948Y009645D01*
X013935Y009651D01*
X013931Y009649D01*
X013930Y009650D01*
X013913Y009650D01*
X013896Y009652D01*
X013893Y009650D01*
X013176Y009650D01*
X013174Y009652D01*
X013161Y009651D01*
X013138Y009674D01*
X012581Y009674D01*
X012494Y009586D01*
X012513Y009606D02*
X010060Y009606D01*
X010060Y009705D02*
X010360Y009705D01*
X010304Y009803D02*
X010175Y009803D01*
X010084Y009508D02*
X010345Y009508D01*
X010268Y009409D02*
X010206Y009409D01*
X010225Y009311D02*
X010264Y009311D01*
X010264Y009114D02*
X010225Y009114D01*
X010212Y009015D02*
X010264Y009015D01*
X010304Y008917D02*
X010131Y008917D01*
X010131Y008818D02*
X011216Y008818D01*
X011210Y008917D02*
X011035Y008917D01*
X011045Y008927D02*
X011065Y008961D01*
X011075Y008999D01*
X011075Y009158D01*
X010708Y009158D01*
X010708Y008869D01*
X010945Y008869D01*
X010983Y008879D01*
X011018Y008899D01*
X011045Y008927D01*
X011075Y009015D02*
X011210Y009015D01*
X011210Y009114D02*
X011075Y009114D01*
X011210Y009212D02*
X010708Y009212D01*
X010631Y009212D02*
X010060Y009212D01*
X010631Y009114D02*
X010708Y009114D01*
X010708Y009015D02*
X010631Y009015D01*
X010631Y008917D02*
X010708Y008917D01*
X010708Y009311D02*
X010631Y009311D01*
X010631Y009409D02*
X010708Y009409D01*
X010708Y009508D02*
X010631Y009508D01*
X011071Y009409D02*
X011210Y009409D01*
X011210Y009311D02*
X011075Y009311D01*
X011650Y009311D02*
X011970Y009311D01*
X011970Y009409D02*
X011650Y009409D01*
X011650Y009212D02*
X011970Y009212D01*
X011970Y009114D02*
X011670Y009114D01*
X011670Y009015D02*
X011970Y009015D01*
X011970Y008917D02*
X011670Y008917D01*
X011670Y008818D02*
X011976Y008818D01*
X012403Y008818D02*
X012601Y008818D01*
X012586Y008917D02*
X012410Y008917D01*
X012690Y008720D02*
X013010Y008720D01*
X013010Y008621D02*
X012788Y008621D01*
X012887Y008523D02*
X013078Y008523D01*
X012985Y008424D02*
X013284Y008424D01*
X013312Y008326D02*
X013084Y008326D01*
X013182Y008227D02*
X014171Y008227D01*
X014481Y008227D02*
X014558Y008227D01*
X014558Y008326D02*
X014481Y008326D01*
X014481Y008424D02*
X014558Y008424D01*
X013718Y008424D02*
X013661Y008424D01*
X013661Y008326D02*
X013718Y008326D01*
X013325Y008129D02*
X016460Y008129D01*
X016460Y008030D02*
X013544Y008030D01*
X012494Y009311D02*
X012410Y009311D01*
X012410Y009409D02*
X012494Y009409D01*
X012410Y009803D02*
X013517Y009803D01*
X013498Y009902D02*
X012836Y009902D01*
X013624Y012069D02*
X013643Y012069D01*
X013641Y012167D02*
X009910Y012167D01*
X009910Y012266D02*
X013641Y012266D01*
X013641Y012364D02*
X013475Y012364D01*
X013574Y012463D02*
X013641Y012463D01*
X013290Y012463D02*
X013230Y012463D01*
X013230Y012561D02*
X013290Y012561D01*
X013290Y012660D02*
X013230Y012660D01*
X013230Y012670D02*
X013230Y012310D01*
X013098Y012310D01*
X012870Y012538D01*
X012870Y012670D01*
X013230Y012670D01*
X013230Y012758D02*
X013290Y012758D01*
X013290Y012857D02*
X013230Y012857D01*
X013230Y012955D02*
X013290Y012955D01*
X013290Y013054D02*
X013230Y013054D01*
X013062Y013054D02*
X012354Y013054D01*
X012354Y012955D02*
X012963Y012955D01*
X012870Y012857D02*
X012354Y012857D01*
X012282Y012758D02*
X012870Y012758D01*
X012870Y012660D02*
X009910Y012660D01*
X009910Y012758D02*
X011338Y012758D01*
X011266Y012857D02*
X009910Y012857D01*
X009910Y012955D02*
X011266Y012955D01*
X011266Y013054D02*
X009910Y013054D01*
X009910Y013152D02*
X011266Y013152D01*
X011266Y013251D02*
X009910Y013251D01*
X009910Y013349D02*
X011266Y013349D01*
X011318Y013448D02*
X009910Y013448D01*
X009910Y013546D02*
X011300Y013546D01*
X011266Y013645D02*
X009910Y013645D01*
X009910Y013743D02*
X011266Y013743D01*
X011266Y013842D02*
X009910Y013842D01*
X009910Y013940D02*
X011266Y013940D01*
X011266Y014039D02*
X009910Y014039D01*
X009910Y014137D02*
X011266Y014137D01*
X011467Y014063D02*
X012153Y014063D01*
X012153Y013663D01*
X011467Y013663D01*
X011467Y014063D01*
X011467Y013762D02*
X012153Y013762D01*
X012153Y013861D02*
X011467Y013861D01*
X011467Y013960D02*
X012153Y013960D01*
X012153Y014059D02*
X011467Y014059D01*
X010541Y014236D02*
X009910Y014236D01*
X009910Y014334D02*
X010443Y014334D01*
X010344Y014433D02*
X009910Y014433D01*
X009910Y014531D02*
X010246Y014531D01*
X010147Y014630D02*
X009910Y014630D01*
X009910Y014728D02*
X010049Y014728D01*
X009950Y014827D02*
X009910Y014827D01*
X009610Y015900D02*
X006410Y015900D01*
X006260Y015750D01*
X005947Y015437D01*
X005510Y015437D01*
X005167Y015637D02*
X005853Y015637D01*
X005853Y015237D01*
X005167Y015237D01*
X005167Y015637D01*
X005167Y015336D02*
X005853Y015336D01*
X005853Y015435D02*
X005167Y015435D01*
X005167Y015534D02*
X005853Y015534D01*
X005853Y015633D02*
X005167Y015633D01*
X005167Y014063D02*
X005853Y014063D01*
X005853Y013663D01*
X005167Y013663D01*
X005167Y014063D01*
X005167Y013762D02*
X005853Y013762D01*
X005853Y013861D02*
X005167Y013861D01*
X005167Y013960D02*
X005853Y013960D01*
X005853Y014059D02*
X005167Y014059D01*
X005167Y013275D02*
X005853Y013275D01*
X005853Y012875D01*
X005167Y012875D01*
X005167Y013275D01*
X005167Y012974D02*
X005853Y012974D01*
X005853Y013073D02*
X005167Y013073D01*
X005167Y013172D02*
X005853Y013172D01*
X005853Y013271D02*
X005167Y013271D01*
X005167Y012488D02*
X005853Y012488D01*
X005853Y012088D01*
X005167Y012088D01*
X005167Y012488D01*
X005167Y012187D02*
X005853Y012187D01*
X005853Y012286D02*
X005167Y012286D01*
X005167Y012385D02*
X005853Y012385D01*
X005853Y012484D02*
X005167Y012484D01*
X009910Y012463D02*
X012945Y012463D01*
X012870Y012561D02*
X009910Y012561D01*
X009910Y012364D02*
X013044Y012364D01*
X013230Y012364D02*
X013290Y012364D01*
X013556Y012955D02*
X013641Y012955D01*
X013673Y013054D02*
X013458Y013054D01*
X013559Y013448D02*
X013950Y013448D01*
X014060Y013700D02*
X013260Y013700D01*
X012153Y013313D02*
X011467Y013313D01*
X012153Y013313D02*
X012153Y012913D01*
X011467Y012913D01*
X011467Y013313D01*
X011467Y013012D02*
X012153Y013012D01*
X012153Y013111D02*
X011467Y013111D01*
X011467Y013210D02*
X012153Y013210D01*
X012153Y013309D02*
X011467Y013309D01*
X014936Y012750D02*
X014910Y012526D01*
X014936Y012750D02*
X014960Y012900D01*
X017864Y010887D02*
X017869Y010887D01*
X017864Y010788D02*
X017869Y010788D01*
X017864Y010690D02*
X017869Y010690D01*
X017864Y010591D02*
X017869Y010591D01*
X017869Y010493D02*
X017869Y010095D01*
X017952Y010095D01*
X017952Y009860D01*
X017782Y009860D01*
X017782Y010095D01*
X017864Y010095D01*
X017864Y010493D01*
X017869Y010493D01*
X017864Y010493D01*
X017864Y010394D02*
X017869Y010394D01*
X017864Y010296D02*
X017869Y010296D01*
X017864Y010197D02*
X017869Y010197D01*
X017864Y010099D02*
X017869Y010099D01*
X017952Y010000D02*
X017782Y010000D01*
X017782Y009902D02*
X017952Y009902D01*
X017322Y009902D02*
X016546Y009902D01*
X016531Y010000D02*
X017322Y010000D01*
X017322Y010095D02*
X017322Y009901D01*
X017292Y009871D01*
X017015Y009871D01*
X016904Y009760D01*
X016904Y009367D01*
X017015Y009256D01*
X017604Y009256D01*
X017654Y009305D01*
X017654Y009293D01*
X017741Y009205D01*
X018062Y009205D01*
X018194Y009072D01*
X018098Y009072D01*
X018098Y008784D01*
X018021Y008784D01*
X018021Y009072D01*
X017784Y009072D01*
X017746Y009062D01*
X017712Y009042D01*
X017684Y009014D01*
X017680Y009008D01*
X017604Y009084D01*
X017015Y009084D01*
X016904Y008973D01*
X016904Y008750D01*
X016710Y008750D01*
X016710Y008754D01*
X016710Y008771D01*
X016707Y008774D01*
X016517Y010100D01*
X016644Y010100D01*
X016750Y010100D01*
X016755Y010095D01*
X017322Y010095D01*
X016946Y009803D02*
X016560Y009803D01*
X016574Y009705D02*
X016904Y009705D01*
X016904Y009606D02*
X016588Y009606D01*
X016602Y009508D02*
X016904Y009508D01*
X016904Y009409D02*
X016616Y009409D01*
X016630Y009311D02*
X016960Y009311D01*
X016946Y009015D02*
X016672Y009015D01*
X016658Y009114D02*
X018153Y009114D01*
X018098Y009015D02*
X018021Y009015D01*
X018021Y008917D02*
X018098Y008917D01*
X018098Y008818D02*
X018021Y008818D01*
X017684Y009015D02*
X017673Y009015D01*
X017734Y009212D02*
X016644Y009212D01*
X016686Y008917D02*
X016904Y008917D01*
X016904Y008818D02*
X016700Y008818D01*
X016751Y010099D02*
X016517Y010099D01*
X018410Y011100D02*
X018427Y011083D01*
X019110Y010890D02*
X019124Y010755D01*
X019127Y010495D01*
X019490Y010510D02*
X020046Y010510D01*
X020466Y010050D01*
X019760Y009875D02*
X019460Y009875D01*
X019760Y009875D02*
X019760Y009425D01*
X019460Y009425D01*
X019460Y009875D01*
X019460Y009524D02*
X019760Y009524D01*
X019760Y009623D02*
X019460Y009623D01*
X019460Y009722D02*
X019760Y009722D01*
X019760Y009821D02*
X019460Y009821D01*
X019060Y009875D02*
X018760Y009875D01*
X019060Y009875D02*
X019060Y009425D01*
X018760Y009425D01*
X018760Y009875D01*
X018760Y009524D02*
X019060Y009524D01*
X019060Y009623D02*
X018760Y009623D01*
X018760Y009722D02*
X019060Y009722D01*
X019060Y009821D02*
X018760Y009821D01*
X018753Y008631D02*
X019053Y008631D01*
X018753Y008631D02*
X018753Y009081D01*
X019053Y009081D01*
X019053Y008631D01*
X019053Y008730D02*
X018753Y008730D01*
X018753Y008829D02*
X019053Y008829D01*
X019053Y008928D02*
X018753Y008928D01*
X018753Y009027D02*
X019053Y009027D01*
X019453Y008631D02*
X019753Y008631D01*
X019453Y008631D02*
X019453Y009081D01*
X019753Y009081D01*
X019753Y008631D01*
X019753Y008730D02*
X019453Y008730D01*
X019453Y008829D02*
X019753Y008829D01*
X019753Y008928D02*
X019453Y008928D01*
X019453Y009027D02*
X019753Y009027D01*
X019760Y008275D02*
X019460Y008275D01*
X019760Y008275D02*
X019760Y007825D01*
X019460Y007825D01*
X019460Y008275D01*
X019460Y007924D02*
X019760Y007924D01*
X019760Y008023D02*
X019460Y008023D01*
X019460Y008122D02*
X019760Y008122D01*
X019760Y008221D02*
X019460Y008221D01*
X019060Y008275D02*
X018760Y008275D01*
X019060Y008275D02*
X019060Y007825D01*
X018760Y007825D01*
X018760Y008275D01*
X018760Y007924D02*
X019060Y007924D01*
X019060Y008023D02*
X018760Y008023D01*
X018760Y008122D02*
X019060Y008122D01*
X019060Y008221D02*
X018760Y008221D01*
X019147Y011713D02*
X019714Y011713D01*
X010860Y004550D02*
X010860Y001350D01*
X009660Y001350D01*
X009660Y004550D01*
X010860Y004550D01*
X010860Y004484D02*
X009660Y004484D01*
X009660Y004386D02*
X010860Y004386D01*
X010860Y004287D02*
X009660Y004287D01*
X009660Y004189D02*
X010860Y004189D01*
X010860Y004090D02*
X009660Y004090D01*
X009660Y003992D02*
X010860Y003992D01*
X010860Y003893D02*
X009660Y003893D01*
X009660Y003795D02*
X010860Y003795D01*
X010860Y003696D02*
X009660Y003696D01*
X009660Y003598D02*
X010860Y003598D01*
X010860Y003499D02*
X009660Y003499D01*
X009660Y003401D02*
X010860Y003401D01*
X010860Y003302D02*
X009660Y003302D01*
X009660Y003204D02*
X010860Y003204D01*
X010860Y003105D02*
X009660Y003105D01*
X009660Y003007D02*
X010860Y003007D01*
X010860Y002908D02*
X009660Y002908D01*
X009660Y002810D02*
X010860Y002810D01*
X010860Y002711D02*
X009660Y002711D01*
X009660Y002613D02*
X010860Y002613D01*
X010860Y002514D02*
X009660Y002514D01*
X009660Y002416D02*
X010860Y002416D01*
X010860Y002317D02*
X009660Y002317D01*
X009660Y002219D02*
X010860Y002219D01*
X010860Y002120D02*
X009660Y002120D01*
X009660Y002022D02*
X010860Y002022D01*
X010860Y001923D02*
X009660Y001923D01*
X009660Y001825D02*
X010860Y001825D01*
X010860Y001726D02*
X009660Y001726D01*
X009660Y001628D02*
X010860Y001628D01*
X010860Y001529D02*
X009660Y001529D01*
X009660Y001431D02*
X010860Y001431D01*
D29*
X013260Y012700D03*
X013260Y013700D03*
X013260Y014700D03*
D30*
X012510Y001900D03*
X007860Y001900D03*
X018610Y001950D03*
D31*
X020610Y001950D03*
X010510Y001900D03*
X005860Y001900D03*
D32*
X013910Y012526D03*
X014410Y012526D03*
X014910Y012526D03*
X015410Y012526D03*
X015410Y014574D03*
X014910Y014574D03*
X014410Y014574D03*
X013910Y014574D03*
D33*
X013418Y005000D03*
X015701Y005000D03*
D34*
X004960Y012300D03*
D35*
X006810Y010350D02*
X007153Y010694D01*
X007260Y010694D01*
X007366Y010694D01*
X007560Y010450D01*
X009160Y010450D01*
X008908Y009994D02*
X009820Y009994D01*
X010660Y009994D01*
X010670Y009984D01*
X011333Y009984D01*
X011430Y010080D01*
X012190Y010080D02*
X012746Y010080D01*
X012860Y010194D01*
X012953Y010100D01*
X013766Y010100D01*
X014553Y010100D02*
X014553Y009340D01*
X014533Y009270D01*
X013746Y009270D02*
X013680Y009270D01*
X013630Y009320D01*
X012860Y009406D02*
X012860Y009003D01*
X012642Y009120D01*
X012190Y009120D01*
X011886Y008542D02*
X011518Y008542D01*
X011460Y008600D01*
X011886Y008542D02*
X012060Y008368D01*
X012060Y007950D01*
X013010Y007000D01*
X019110Y007000D01*
X019610Y007500D01*
X019610Y008050D01*
X018910Y008050D02*
X018560Y008050D01*
X018116Y007556D01*
X018060Y007556D01*
X017260Y007950D02*
X017260Y008685D01*
X017260Y008726D02*
X017310Y008776D01*
X017289Y008756D01*
X017277Y008741D01*
X017268Y008723D01*
X017262Y008705D01*
X017260Y008685D01*
X017260Y007950D02*
X017075Y007766D01*
X017004Y007736D02*
X016260Y007736D01*
X014520Y007736D01*
X014500Y007756D01*
X013690Y007756D01*
X013043Y008047D01*
X012860Y008097D01*
X009820Y008789D02*
X009820Y009206D01*
X009805Y009221D01*
X009734Y009250D02*
X009560Y009250D01*
X009310Y009500D01*
X009734Y009250D02*
X009754Y009248D01*
X009772Y009242D01*
X009790Y009233D01*
X009805Y009221D01*
X009820Y008789D02*
X009819Y008778D01*
X009816Y008768D01*
X009811Y008758D01*
X009804Y008749D01*
X009016Y008750D02*
X009016Y008952D01*
X008987Y009023D02*
X008860Y009150D01*
X008987Y009023D02*
X008999Y009008D01*
X009008Y008990D01*
X009014Y008972D01*
X009016Y008952D01*
X008837Y009965D02*
X008852Y009977D01*
X008870Y009986D01*
X008888Y009992D01*
X008908Y009994D01*
X008838Y009964D02*
X008803Y009930D01*
X006890Y009320D02*
X006860Y009400D01*
X006810Y009550D01*
X006810Y010350D01*
X005660Y009550D02*
X005660Y009304D01*
X005604Y009248D01*
X005660Y009550D02*
X005460Y009750D01*
X005210Y009750D01*
X005060Y009750D01*
X004855Y009954D01*
X004855Y010192D01*
X006890Y009320D02*
X006890Y009170D01*
X013260Y012700D02*
X013386Y012526D01*
X013910Y012526D01*
X013260Y014700D02*
X013310Y014906D01*
X013753Y015600D01*
X014506Y015600D01*
X014526Y015580D01*
X014910Y015196D01*
X014910Y014574D01*
X015410Y014574D01*
X017867Y014563D02*
X017867Y013875D01*
X018160Y013897D02*
X018182Y013875D01*
X018160Y013897D02*
X018160Y014350D01*
X018660Y014850D01*
X018710Y014850D01*
X018710Y015100D01*
X018960Y014550D02*
X019303Y014550D01*
X019860Y014856D01*
X018960Y014550D02*
X018497Y014187D01*
X018497Y013875D01*
X018560Y013410D02*
X019250Y013410D01*
X019260Y013400D01*
X019610Y013750D02*
X020160Y013750D01*
X020410Y013500D01*
X020660Y013500D01*
X020860Y013300D01*
X020860Y012700D01*
X020660Y012550D01*
X020310Y012200D01*
X020310Y011356D01*
X020466Y010950D01*
X020466Y010837D01*
X021253Y010050D01*
X020530Y009986D02*
X020466Y010050D01*
X020530Y009986D02*
X020530Y009360D01*
X020820Y008950D02*
X021230Y009360D01*
X020820Y008950D02*
X019810Y008950D01*
X019772Y008912D01*
X019610Y008912D01*
X019603Y008856D01*
X019610Y008912D02*
X019610Y009650D01*
X019660Y009800D01*
X018910Y009650D02*
X018812Y009848D01*
X018812Y010495D01*
X018182Y010495D02*
X018182Y009654D01*
X018060Y009532D01*
X018686Y008906D01*
X018903Y008856D01*
X017552Y009806D02*
X017310Y009564D01*
X017552Y009806D02*
X017552Y010495D01*
X020466Y010950D02*
X020460Y011006D01*
X021180Y012294D02*
X021243Y012357D01*
X021243Y012970D01*
X020456Y012970D02*
X020403Y012973D01*
X019714Y012973D01*
X017867Y014563D02*
X017860Y014956D01*
X017969Y017383D02*
X018060Y017474D01*
X017075Y007765D02*
X017060Y007753D01*
X017042Y007744D01*
X017024Y007738D01*
X017004Y007736D01*
X018460Y005350D02*
X020960Y005350D01*
X020960Y001550D01*
X020060Y001550D01*
X020060Y004150D01*
X018460Y004150D01*
X018460Y005350D01*
X018460Y005222D02*
X020960Y005222D01*
X020960Y005064D02*
X018460Y005064D01*
X018460Y004905D02*
X020960Y004905D01*
X020960Y004747D02*
X018460Y004747D01*
X018460Y004588D02*
X020960Y004588D01*
X020960Y004430D02*
X018460Y004430D01*
X018460Y004271D02*
X020960Y004271D01*
X020960Y004113D02*
X020060Y004113D01*
X020060Y003954D02*
X020960Y003954D01*
X020960Y003796D02*
X020060Y003796D01*
X020060Y003637D02*
X020960Y003637D01*
X020960Y003479D02*
X020060Y003479D01*
X020060Y003320D02*
X020960Y003320D01*
X020960Y003162D02*
X020060Y003162D01*
X020060Y003003D02*
X020960Y003003D01*
X020960Y002845D02*
X020060Y002845D01*
X020060Y002686D02*
X020960Y002686D01*
X020960Y002528D02*
X020060Y002528D01*
X020060Y002369D02*
X020960Y002369D01*
X020960Y002211D02*
X020060Y002211D01*
X020060Y002052D02*
X020960Y002052D01*
X020960Y001894D02*
X020060Y001894D01*
X020060Y001735D02*
X020960Y001735D01*
X020960Y001577D02*
X020060Y001577D01*
X018960Y001577D02*
X017874Y001577D01*
X017860Y001550D02*
X018260Y002300D01*
X018960Y002300D01*
X018960Y000750D01*
X016210Y000750D01*
X016210Y001550D01*
X017860Y001550D01*
X017958Y001735D02*
X018960Y001735D01*
X018960Y001894D02*
X018043Y001894D01*
X018127Y002052D02*
X018960Y002052D01*
X018960Y002211D02*
X018212Y002211D01*
X018960Y001418D02*
X016210Y001418D01*
X016210Y001260D02*
X018960Y001260D01*
X018960Y001101D02*
X016210Y001101D01*
X016210Y000943D02*
X018960Y000943D01*
X018960Y000784D02*
X016210Y000784D01*
X014710Y000784D02*
X014176Y000784D01*
X014260Y000700D02*
X013560Y001400D01*
X012210Y001400D01*
X012210Y002350D01*
X013160Y002350D01*
X013610Y002800D01*
X013760Y003300D01*
X014710Y003300D01*
X014710Y000700D01*
X014260Y000700D01*
X014017Y000943D02*
X014710Y000943D01*
X014710Y001101D02*
X013859Y001101D01*
X013700Y001260D02*
X014710Y001260D01*
X014710Y001418D02*
X012210Y001418D01*
X012210Y001577D02*
X014710Y001577D01*
X014710Y001735D02*
X012210Y001735D01*
X012210Y001894D02*
X014710Y001894D01*
X014710Y002052D02*
X012210Y002052D01*
X012210Y002211D02*
X014710Y002211D01*
X014710Y002369D02*
X013179Y002369D01*
X013337Y002528D02*
X014710Y002528D01*
X014710Y002686D02*
X013496Y002686D01*
X013623Y002845D02*
X014710Y002845D01*
X014710Y003003D02*
X013670Y003003D01*
X013718Y003162D02*
X014710Y003162D01*
D36*
X011460Y008600D02*
X011460Y009090D01*
X011430Y009120D01*
X011660Y009600D02*
X011073Y009600D01*
X010670Y009196D01*
X011660Y009600D02*
X011810Y009750D01*
X013460Y009150D02*
X013630Y009320D01*
X014553Y009340D02*
X015106Y009340D01*
X015210Y009344D01*
X020880Y008560D02*
X020890Y008600D01*
X021360Y008600D01*
X021650Y008890D01*
X021650Y011540D01*
X021253Y011144D01*
X021253Y010950D01*
X021180Y011506D02*
X021416Y011506D01*
X021650Y011740D01*
X021650Y011540D01*
X021650Y011740D02*
X021650Y014400D01*
X020912Y014400D01*
X020851Y014411D01*
X021650Y014400D02*
X021650Y015260D01*
X020966Y015644D01*
X020903Y015644D01*
X021510Y016250D01*
X021510Y017100D01*
X021260Y017350D01*
X020060Y017350D01*
X020010Y017400D01*
X019950Y016696D02*
X019990Y016656D01*
X019950Y016696D01*
X018837Y016696D01*
X018060Y017474D01*
X017969Y017383D02*
X017010Y017383D01*
X016635Y016674D02*
X016110Y017200D01*
X015866Y017200D01*
X015840Y017174D01*
X015763Y017250D01*
X014060Y017250D01*
X013660Y016850D01*
X012910Y017600D01*
X010660Y017600D01*
X010260Y017200D01*
X009560Y017200D01*
X013660Y016850D02*
X013660Y015694D01*
X013753Y015600D01*
X016396Y015710D02*
X016510Y015824D01*
X016510Y016250D01*
X016660Y016400D01*
X016660Y016550D01*
X016635Y016526D01*
X016635Y016517D01*
X016635Y016674D01*
X016396Y015710D02*
X017153Y014953D01*
X017153Y014900D01*
X017966Y014950D01*
X017860Y014956D01*
X019860Y015644D02*
X020903Y015644D01*
X020791Y016637D02*
X020732Y016696D01*
X019950Y016696D01*
X019050Y016696D02*
X018837Y016696D01*
X021253Y010163D02*
X021253Y010050D01*
X021253Y009634D01*
X021230Y009360D01*
X008860Y009150D02*
X008460Y009150D01*
X008440Y009170D01*
X008410Y009170D01*
X008430Y009150D02*
X008460Y009150D01*
X007910Y009170D02*
X007910Y009736D01*
X008016Y009930D01*
X007410Y009550D02*
X007260Y009950D01*
X007160Y009994D01*
X007260Y009906D01*
X007410Y009550D02*
X007410Y009170D01*
X006910Y009170D02*
X006890Y009170D01*
X005785Y013075D02*
X005510Y013075D01*
X005785Y013075D02*
X005860Y013150D01*
D37*
X019260Y013400D02*
X019610Y013750D01*
D38*
X019160Y015100D03*
X013460Y009150D03*
X011460Y008600D03*
X008860Y009150D03*
X005860Y013150D03*
D39*
X009560Y017200D03*
D40*
X017867Y013875D02*
X017880Y013875D01*
X017880Y013570D01*
X017880Y013470D01*
X017940Y013410D01*
X018560Y013410D01*
X018497Y013473D01*
X018497Y013875D01*
D41*
X018360Y012950D03*
X017960Y012950D03*
X018760Y012950D03*
X019160Y012950D03*
X018960Y012500D03*
X018160Y012100D03*
X018060Y011400D03*
X018410Y011100D03*
X019110Y010890D03*
X019490Y010510D03*
X017060Y010000D03*
X016660Y010000D03*
X016260Y010700D03*
X015710Y011100D03*
X015410Y011400D03*
X014860Y011050D03*
X015830Y012580D03*
X015820Y012950D03*
X014960Y012900D03*
X014690Y013700D03*
X014060Y013700D03*
X013960Y014200D03*
X014433Y014574D03*
X015510Y015400D03*
X016060Y014250D03*
X016460Y014300D03*
X016860Y011400D03*
X012760Y014550D03*
X012960Y015250D03*
X012510Y015250D03*
X012510Y015700D03*
X011410Y017150D03*
X010060Y017690D03*
X009460Y017690D03*
X008860Y017690D03*
X008260Y017690D03*
X007660Y017690D03*
X007060Y017690D03*
X006460Y017690D03*
X005860Y017690D03*
X005260Y017690D03*
X004860Y017090D03*
X004860Y016490D03*
X004860Y015890D03*
X004860Y015290D03*
X004860Y014690D03*
X004860Y014040D03*
X004860Y013590D03*
X004860Y012890D03*
X004860Y011740D03*
X005260Y011740D03*
X005660Y011740D03*
X006060Y011740D03*
X005760Y010300D03*
X005210Y009750D03*
X004860Y008950D03*
X009960Y013540D03*
X009960Y013940D03*
X010360Y013940D03*
X010360Y013540D03*
X009960Y015550D03*
X010360Y015600D03*
X013860Y017690D03*
X014460Y017690D03*
X015060Y017690D03*
X015660Y017690D03*
X016260Y017690D03*
X020460Y017690D03*
X021060Y017690D03*
X021460Y017290D03*
X021460Y016690D03*
D42*
X018060Y008745D02*
X018060Y008344D01*
X019610Y008050D02*
X020266Y007950D01*
X020880Y008124D02*
X020880Y008560D01*
X020880Y008124D02*
X021053Y007950D01*
D43*
X018660Y004700D02*
X017250Y003332D01*
X016554Y003050D02*
X016444Y003050D01*
X016554Y003050D02*
X016613Y003052D01*
X016672Y003057D01*
X016731Y003066D01*
X016789Y003078D01*
X016846Y003094D01*
X016902Y003113D01*
X016957Y003135D01*
X017011Y003160D01*
X017062Y003189D01*
X017113Y003221D01*
X017161Y003255D01*
X017207Y003292D01*
X017250Y003332D01*
X005510Y012288D02*
X004972Y012288D01*
X004960Y012300D01*
X005010Y013850D02*
X005022Y013863D01*
X005510Y013863D01*
D44*
X019507Y011448D02*
X019714Y011398D01*
D45*
X016775Y005063D02*
X016775Y005000D01*
X015701Y005000D01*
X013460Y005000D02*
X013460Y002350D01*
X013418Y005000D02*
X013460Y005000D01*
D46*
X018710Y015100D02*
X019160Y015100D01*
D47*
X015810Y008350D03*
X018560Y008050D03*
X009310Y009500D03*
X009160Y010450D03*
M02*
