G75*
%MOIN*%
%OFA0B0*%
%FSLAX24Y24*%
%IPPOS*%
%LPD*%
%AMOC8*
5,1,8,0,0,1.08239X$1,22.5*
%
%ADD10C,0.0000*%
%ADD11R,0.0400X0.0450*%
%ADD12R,0.0220X0.0780*%
%ADD13C,0.0079*%
%ADD14R,0.0512X0.0355*%
%ADD15R,0.0355X0.0512*%
%ADD16C,0.0787*%
%ADD17C,0.0860*%
%ADD18R,0.0220X0.0500*%
%ADD19R,0.0669X0.0276*%
%ADD20R,0.0394X0.0551*%
%ADD21R,0.0210X0.0500*%
%ADD22R,0.0500X0.0210*%
%ADD23C,0.0660*%
%ADD24C,0.0700*%
%ADD25R,0.0327X0.0248*%
%ADD26R,0.0276X0.0394*%
%ADD27C,0.0768*%
%ADD28C,0.0100*%
%ADD29OC8,0.0480*%
%ADD30R,0.0800X0.0800*%
%ADD31C,0.0800*%
%ADD32R,0.0236X0.0866*%
%ADD33R,0.1102X0.1102*%
%ADD34C,0.0560*%
D10*
X004460Y000900D02*
X004460Y017270D01*
X004462Y017324D01*
X004468Y017377D01*
X004477Y017429D01*
X004490Y017481D01*
X004507Y017532D01*
X004528Y017582D01*
X004552Y017629D01*
X004579Y017675D01*
X004610Y017719D01*
X004643Y017761D01*
X004680Y017800D01*
X004719Y017837D01*
X004761Y017870D01*
X004805Y017901D01*
X004851Y017928D01*
X004898Y017952D01*
X004948Y017973D01*
X004999Y017990D01*
X005051Y018003D01*
X005103Y018012D01*
X005156Y018018D01*
X005210Y018020D01*
X021202Y018020D01*
X021251Y018026D01*
X021300Y018028D01*
X021349Y018026D01*
X021398Y018021D01*
X021446Y018012D01*
X021494Y017999D01*
X021541Y017983D01*
X021586Y017964D01*
X021629Y017941D01*
X021671Y017915D01*
X021711Y017886D01*
X021748Y017854D01*
X021783Y017819D01*
X021815Y017782D01*
X021845Y017742D01*
X021871Y017701D01*
X021894Y017657D01*
X021914Y017612D01*
X021930Y017566D01*
X021943Y017518D01*
X021952Y017470D01*
X021952Y000900D01*
X021950Y000846D01*
X021944Y000793D01*
X021935Y000741D01*
X021922Y000689D01*
X021905Y000638D01*
X021884Y000588D01*
X021860Y000541D01*
X021833Y000495D01*
X021802Y000451D01*
X021769Y000409D01*
X021732Y000370D01*
X021693Y000333D01*
X021651Y000300D01*
X021607Y000269D01*
X021561Y000242D01*
X021514Y000218D01*
X021464Y000197D01*
X021413Y000180D01*
X021361Y000167D01*
X021309Y000158D01*
X021256Y000152D01*
X021202Y000150D01*
X005210Y000150D01*
X005156Y000152D01*
X005103Y000158D01*
X005051Y000167D01*
X004999Y000180D01*
X004948Y000197D01*
X004898Y000218D01*
X004851Y000242D01*
X004805Y000269D01*
X004761Y000300D01*
X004719Y000333D01*
X004680Y000370D01*
X004643Y000409D01*
X004610Y000451D01*
X004579Y000495D01*
X004552Y000541D01*
X004528Y000588D01*
X004507Y000638D01*
X004490Y000689D01*
X004477Y000741D01*
X004468Y000793D01*
X004462Y000846D01*
X004460Y000900D01*
D11*
X020530Y009360D03*
X021230Y009360D03*
X020880Y008560D03*
D12*
X008410Y009170D03*
X007910Y009170D03*
X007410Y009170D03*
X006910Y009170D03*
X006910Y007230D03*
X007410Y007230D03*
X007910Y007230D03*
X008410Y007230D03*
D13*
X010037Y009088D02*
X010037Y009324D01*
X010037Y009088D02*
X009603Y009088D01*
X009603Y009324D01*
X010037Y009324D01*
X010037Y009166D02*
X009603Y009166D01*
X009603Y009244D02*
X010037Y009244D01*
X010037Y009322D02*
X009603Y009322D01*
X010037Y009876D02*
X010037Y010112D01*
X010037Y009876D02*
X009603Y009876D01*
X009603Y010112D01*
X010037Y010112D01*
X010037Y009954D02*
X009603Y009954D01*
X009603Y010032D02*
X010037Y010032D01*
X010037Y010110D02*
X009603Y010110D01*
X008921Y009713D02*
X008685Y009713D01*
X008685Y010147D01*
X008921Y010147D01*
X008921Y009713D01*
X008921Y009791D02*
X008685Y009791D01*
X008685Y009869D02*
X008921Y009869D01*
X008921Y009947D02*
X008685Y009947D01*
X008685Y010025D02*
X008921Y010025D01*
X008921Y010103D02*
X008685Y010103D01*
X008134Y009713D02*
X007898Y009713D01*
X007898Y010147D01*
X008134Y010147D01*
X008134Y009713D01*
X008134Y009791D02*
X007898Y009791D01*
X007898Y009869D02*
X008134Y009869D01*
X008134Y009947D02*
X007898Y009947D01*
X007898Y010025D02*
X008134Y010025D01*
X008134Y010103D02*
X007898Y010103D01*
X012643Y010076D02*
X012643Y010312D01*
X013077Y010312D01*
X013077Y010076D01*
X012643Y010076D01*
X012643Y010154D02*
X013077Y010154D01*
X013077Y010232D02*
X012643Y010232D01*
X012643Y010310D02*
X013077Y010310D01*
X013648Y009883D02*
X013884Y009883D01*
X013648Y009883D02*
X013648Y010317D01*
X013884Y010317D01*
X013884Y009883D01*
X013884Y009961D02*
X013648Y009961D01*
X013648Y010039D02*
X013884Y010039D01*
X013884Y010117D02*
X013648Y010117D01*
X013648Y010195D02*
X013884Y010195D01*
X013884Y010273D02*
X013648Y010273D01*
X014435Y009883D02*
X014671Y009883D01*
X014435Y009883D02*
X014435Y010317D01*
X014671Y010317D01*
X014671Y009883D01*
X014671Y009961D02*
X014435Y009961D01*
X014435Y010039D02*
X014671Y010039D01*
X014671Y010117D02*
X014435Y010117D01*
X014435Y010195D02*
X014671Y010195D01*
X014671Y010273D02*
X014435Y010273D01*
X014415Y009487D02*
X014651Y009487D01*
X014651Y009053D01*
X014415Y009053D01*
X014415Y009487D01*
X014415Y009131D02*
X014651Y009131D01*
X014651Y009209D02*
X014415Y009209D01*
X014415Y009287D02*
X014651Y009287D01*
X014651Y009365D02*
X014415Y009365D01*
X014415Y009443D02*
X014651Y009443D01*
X015427Y009462D02*
X015427Y009226D01*
X014993Y009226D01*
X014993Y009462D01*
X015427Y009462D01*
X015427Y009304D02*
X014993Y009304D01*
X014993Y009382D02*
X015427Y009382D01*
X015427Y009460D02*
X014993Y009460D01*
X015427Y008674D02*
X015427Y008438D01*
X014993Y008438D01*
X014993Y008674D01*
X015427Y008674D01*
X015427Y008516D02*
X014993Y008516D01*
X014993Y008594D02*
X015427Y008594D01*
X015427Y008672D02*
X014993Y008672D01*
X013473Y008662D02*
X013473Y008426D01*
X013473Y008662D02*
X013907Y008662D01*
X013907Y008426D01*
X013473Y008426D01*
X013473Y008504D02*
X013907Y008504D01*
X013907Y008582D02*
X013473Y008582D01*
X013473Y008660D02*
X013907Y008660D01*
X013864Y009487D02*
X013628Y009487D01*
X013864Y009487D02*
X013864Y009053D01*
X013628Y009053D01*
X013628Y009487D01*
X013628Y009131D02*
X013864Y009131D01*
X013864Y009209D02*
X013628Y009209D01*
X013628Y009287D02*
X013864Y009287D01*
X013864Y009365D02*
X013628Y009365D01*
X013628Y009443D02*
X013864Y009443D01*
X012643Y009524D02*
X012643Y009288D01*
X012643Y009524D02*
X013077Y009524D01*
X013077Y009288D01*
X012643Y009288D01*
X012643Y009366D02*
X013077Y009366D01*
X013077Y009444D02*
X012643Y009444D01*
X012643Y009522D02*
X013077Y009522D01*
X013473Y007874D02*
X013473Y007638D01*
X013473Y007874D02*
X013907Y007874D01*
X013907Y007638D01*
X013473Y007638D01*
X013473Y007716D02*
X013907Y007716D01*
X013907Y007794D02*
X013473Y007794D01*
X013473Y007872D02*
X013907Y007872D01*
X017093Y008658D02*
X017093Y008894D01*
X017527Y008894D01*
X017527Y008658D01*
X017093Y008658D01*
X017093Y008736D02*
X017527Y008736D01*
X017527Y008814D02*
X017093Y008814D01*
X017093Y008892D02*
X017527Y008892D01*
X017093Y009446D02*
X017093Y009682D01*
X017527Y009682D01*
X017527Y009446D01*
X017093Y009446D01*
X017093Y009524D02*
X017527Y009524D01*
X017527Y009602D02*
X017093Y009602D01*
X017093Y009680D02*
X017527Y009680D01*
X015071Y011667D02*
X014835Y011667D01*
X015071Y011667D02*
X015071Y011233D01*
X014835Y011233D01*
X014835Y011667D01*
X014835Y011311D02*
X015071Y011311D01*
X015071Y011389D02*
X014835Y011389D01*
X014835Y011467D02*
X015071Y011467D01*
X015071Y011545D02*
X014835Y011545D01*
X014835Y011623D02*
X015071Y011623D01*
X014284Y011667D02*
X014048Y011667D01*
X014284Y011667D02*
X014284Y011233D01*
X014048Y011233D01*
X014048Y011667D01*
X014048Y011311D02*
X014284Y011311D01*
X014284Y011389D02*
X014048Y011389D01*
X014048Y011467D02*
X014284Y011467D01*
X014284Y011545D02*
X014048Y011545D01*
X014048Y011623D02*
X014284Y011623D01*
X016248Y015117D02*
X016484Y015117D01*
X016484Y014683D01*
X016248Y014683D01*
X016248Y015117D01*
X016248Y014761D02*
X016484Y014761D01*
X016484Y014839D02*
X016248Y014839D01*
X016248Y014917D02*
X016484Y014917D01*
X016484Y014995D02*
X016248Y014995D01*
X016248Y015073D02*
X016484Y015073D01*
X017035Y015117D02*
X017271Y015117D01*
X017271Y014683D01*
X017035Y014683D01*
X017035Y015117D01*
X017035Y014761D02*
X017271Y014761D01*
X017271Y014839D02*
X017035Y014839D01*
X017035Y014917D02*
X017271Y014917D01*
X017271Y014995D02*
X017035Y014995D01*
X017035Y015073D02*
X017271Y015073D01*
X015431Y015363D02*
X015195Y015363D01*
X015195Y015797D01*
X015431Y015797D01*
X015431Y015363D01*
X015431Y015441D02*
X015195Y015441D01*
X015195Y015519D02*
X015431Y015519D01*
X015431Y015597D02*
X015195Y015597D01*
X015195Y015675D02*
X015431Y015675D01*
X015431Y015753D02*
X015195Y015753D01*
X014644Y015363D02*
X014408Y015363D01*
X014408Y015797D01*
X014644Y015797D01*
X014644Y015363D01*
X014644Y015441D02*
X014408Y015441D01*
X014408Y015519D02*
X014644Y015519D01*
X014644Y015597D02*
X014408Y015597D01*
X014408Y015675D02*
X014644Y015675D01*
X014644Y015753D02*
X014408Y015753D01*
X013871Y015383D02*
X013635Y015383D01*
X013635Y015817D01*
X013871Y015817D01*
X013871Y015383D01*
X013871Y015461D02*
X013635Y015461D01*
X013635Y015539D02*
X013871Y015539D01*
X013871Y015617D02*
X013635Y015617D01*
X013635Y015695D02*
X013871Y015695D01*
X013871Y015773D02*
X013635Y015773D01*
X013084Y015383D02*
X012848Y015383D01*
X012848Y015817D01*
X013084Y015817D01*
X013084Y015383D01*
X013084Y015461D02*
X012848Y015461D01*
X012848Y015539D02*
X013084Y015539D01*
X013084Y015617D02*
X012848Y015617D01*
X012848Y015695D02*
X013084Y015695D01*
X013084Y015773D02*
X012848Y015773D01*
X020338Y012753D02*
X020574Y012753D01*
X020338Y012753D02*
X020338Y013187D01*
X020574Y013187D01*
X020574Y012753D01*
X020574Y012831D02*
X020338Y012831D01*
X020338Y012909D02*
X020574Y012909D01*
X020574Y012987D02*
X020338Y012987D01*
X020338Y013065D02*
X020574Y013065D01*
X020574Y013143D02*
X020338Y013143D01*
X021125Y012753D02*
X021361Y012753D01*
X021125Y012753D02*
X021125Y013187D01*
X021361Y013187D01*
X021361Y012753D01*
X021361Y012831D02*
X021125Y012831D01*
X021125Y012909D02*
X021361Y012909D01*
X021361Y012987D02*
X021125Y012987D01*
X021125Y013065D02*
X021361Y013065D01*
X021361Y013143D02*
X021125Y013143D01*
X021397Y012412D02*
X021397Y012176D01*
X020963Y012176D01*
X020963Y012412D01*
X021397Y012412D01*
X021397Y012254D02*
X020963Y012254D01*
X020963Y012332D02*
X021397Y012332D01*
X021397Y012410D02*
X020963Y012410D01*
X021397Y011624D02*
X021397Y011388D01*
X020963Y011388D01*
X020963Y011624D01*
X021397Y011624D01*
X021397Y011466D02*
X020963Y011466D01*
X020963Y011544D02*
X021397Y011544D01*
X021397Y011622D02*
X020963Y011622D01*
X021135Y009833D02*
X021371Y009833D01*
X021135Y009833D02*
X021135Y010267D01*
X021371Y010267D01*
X021371Y009833D01*
X021371Y009911D02*
X021135Y009911D01*
X021135Y009989D02*
X021371Y009989D01*
X021371Y010067D02*
X021135Y010067D01*
X021135Y010145D02*
X021371Y010145D01*
X021371Y010223D02*
X021135Y010223D01*
X020584Y009833D02*
X020348Y009833D01*
X020348Y010267D01*
X020584Y010267D01*
X020584Y009833D01*
X020584Y009911D02*
X020348Y009911D01*
X020348Y009989D02*
X020584Y009989D01*
X020584Y010067D02*
X020348Y010067D01*
X020348Y010145D02*
X020584Y010145D01*
X020584Y010223D02*
X020348Y010223D01*
D14*
X018060Y009532D03*
X018060Y008745D03*
X018060Y008344D03*
X018060Y007556D03*
X016260Y007736D03*
X016260Y008524D03*
X014520Y008524D03*
X014520Y007736D03*
X010670Y009196D03*
X010670Y009984D03*
X007260Y009906D03*
X007260Y010694D03*
X015840Y016386D03*
X015840Y017174D03*
X017860Y015744D03*
X017860Y014956D03*
X019860Y014856D03*
X019860Y015644D03*
X019990Y016656D03*
X019990Y017444D03*
X019050Y017484D03*
X019050Y016696D03*
X018060Y016686D03*
X018060Y017474D03*
D15*
X017183Y015710D03*
X016396Y015710D03*
X020466Y010950D03*
X021253Y010950D03*
X021053Y007950D03*
X020266Y007950D03*
X009803Y008750D03*
X009016Y008750D03*
D16*
X014728Y016637D03*
X020791Y016637D03*
D17*
X018744Y005063D03*
X016775Y005063D03*
D18*
X012190Y009120D03*
X011430Y009120D03*
X011430Y010080D03*
X011810Y010080D03*
X012190Y010080D03*
D19*
X020851Y013939D03*
X020851Y014411D03*
X020851Y014884D03*
D20*
X017384Y016517D03*
X016635Y016517D03*
X017010Y017383D03*
D21*
X016922Y013875D03*
X017237Y013875D03*
X017552Y013875D03*
X017867Y013875D03*
X018182Y013875D03*
X018497Y013875D03*
X018812Y013875D03*
X019127Y013875D03*
X019127Y010495D03*
X018812Y010495D03*
X018497Y010495D03*
X018182Y010495D03*
X017867Y010495D03*
X017552Y010495D03*
X017237Y010495D03*
X016922Y010495D03*
D22*
X016334Y011083D03*
X016334Y011398D03*
X016334Y011713D03*
X016334Y012028D03*
X016334Y012343D03*
X016334Y012658D03*
X016334Y012973D03*
X016334Y013288D03*
X019714Y013288D03*
X019714Y012973D03*
X019714Y012658D03*
X019714Y012343D03*
X019714Y012028D03*
X019714Y011713D03*
X019714Y011398D03*
X019714Y011083D03*
D23*
X016444Y003050D03*
X014475Y003050D03*
D24*
X014480Y001100D03*
X016480Y001100D03*
D25*
X012860Y008097D03*
X012860Y009003D03*
D26*
X005604Y009248D03*
X005230Y009248D03*
X004855Y009248D03*
X004855Y010192D03*
X005230Y010192D03*
X005604Y010192D03*
D27*
X005200Y011100D03*
X008200Y011100D03*
X010050Y011100D03*
X013050Y011100D03*
X010050Y007100D03*
X008200Y005100D03*
X010050Y004100D03*
X005200Y004100D03*
X005200Y007100D03*
D28*
X005167Y012488D02*
X005853Y012488D01*
X005853Y012088D01*
X005167Y012088D01*
X005167Y012488D01*
X005167Y012187D02*
X005853Y012187D01*
X005853Y012286D02*
X005167Y012286D01*
X005167Y012385D02*
X005853Y012385D01*
X005853Y012484D02*
X005167Y012484D01*
X005167Y013275D02*
X005853Y013275D01*
X005853Y012875D01*
X005167Y012875D01*
X005167Y013275D01*
X005167Y012974D02*
X005853Y012974D01*
X005853Y013073D02*
X005167Y013073D01*
X005167Y013172D02*
X005853Y013172D01*
X005853Y013271D02*
X005167Y013271D01*
X005167Y014063D02*
X005853Y014063D01*
X005853Y013663D01*
X005167Y013663D01*
X005167Y014063D01*
X005167Y013762D02*
X005853Y013762D01*
X005853Y013861D02*
X005167Y013861D01*
X005167Y013960D02*
X005853Y013960D01*
X005853Y014059D02*
X005167Y014059D01*
X005167Y015637D02*
X005853Y015637D01*
X005853Y015237D01*
X005167Y015237D01*
X005167Y015637D01*
X005167Y015336D02*
X005853Y015336D01*
X005853Y015435D02*
X005167Y015435D01*
X005167Y015534D02*
X005853Y015534D01*
X005853Y015633D02*
X005167Y015633D01*
X005167Y016425D02*
X005853Y016425D01*
X005853Y016025D01*
X005167Y016025D01*
X005167Y016425D01*
X005167Y016124D02*
X005853Y016124D01*
X005853Y016223D02*
X005167Y016223D01*
X005167Y016322D02*
X005853Y016322D01*
X005853Y016421D02*
X005167Y016421D01*
X005167Y017212D02*
X005853Y017212D01*
X005853Y016812D01*
X005167Y016812D01*
X005167Y017212D01*
X005167Y016911D02*
X005853Y016911D01*
X005853Y017010D02*
X005167Y017010D01*
X005167Y017109D02*
X005853Y017109D01*
X005853Y017208D02*
X005167Y017208D01*
X011466Y017212D02*
X012152Y017212D01*
X012152Y016812D01*
X011466Y016812D01*
X011466Y017212D01*
X011466Y016911D02*
X012152Y016911D01*
X012152Y017010D02*
X011466Y017010D01*
X011466Y017109D02*
X012152Y017109D01*
X012152Y017208D02*
X011466Y017208D01*
X011466Y016425D02*
X012152Y016425D01*
X012152Y016025D01*
X011466Y016025D01*
X011466Y016425D01*
X011466Y016124D02*
X012152Y016124D01*
X012152Y016223D02*
X011466Y016223D01*
X011466Y016322D02*
X012152Y016322D01*
X012152Y016421D02*
X011466Y016421D01*
X011467Y014063D02*
X012153Y014063D01*
X012153Y013663D01*
X011467Y013663D01*
X011467Y014063D01*
X011467Y013762D02*
X012153Y013762D01*
X012153Y013861D02*
X011467Y013861D01*
X011467Y013960D02*
X012153Y013960D01*
X012153Y014059D02*
X011467Y014059D01*
X011467Y013313D02*
X012153Y013313D01*
X012153Y012913D01*
X011467Y012913D01*
X011467Y013313D01*
X011467Y013012D02*
X012153Y013012D01*
X012153Y013111D02*
X011467Y013111D01*
X011467Y013210D02*
X012153Y013210D01*
X012153Y013309D02*
X011467Y013309D01*
X018485Y014950D02*
X018485Y015250D01*
X018935Y015250D01*
X018935Y014950D01*
X018485Y014950D01*
X018485Y015049D02*
X018935Y015049D01*
X018935Y015148D02*
X018485Y015148D01*
X018485Y015247D02*
X018935Y015247D01*
X018485Y015650D02*
X018485Y015950D01*
X018935Y015950D01*
X018935Y015650D01*
X018485Y015650D01*
X018485Y015749D02*
X018935Y015749D01*
X018935Y015848D02*
X018485Y015848D01*
X018485Y015947D02*
X018935Y015947D01*
X019060Y009875D02*
X018760Y009875D01*
X019060Y009875D02*
X019060Y009425D01*
X018760Y009425D01*
X018760Y009875D01*
X018760Y009524D02*
X019060Y009524D01*
X019060Y009623D02*
X018760Y009623D01*
X018760Y009722D02*
X019060Y009722D01*
X019060Y009821D02*
X018760Y009821D01*
X019460Y009875D02*
X019760Y009875D01*
X019760Y009425D01*
X019460Y009425D01*
X019460Y009875D01*
X019460Y009524D02*
X019760Y009524D01*
X019760Y009623D02*
X019460Y009623D01*
X019460Y009722D02*
X019760Y009722D01*
X019760Y009821D02*
X019460Y009821D01*
X019453Y008631D02*
X019753Y008631D01*
X019453Y008631D02*
X019453Y009081D01*
X019753Y009081D01*
X019753Y008631D01*
X019753Y008730D02*
X019453Y008730D01*
X019453Y008829D02*
X019753Y008829D01*
X019753Y008928D02*
X019453Y008928D01*
X019453Y009027D02*
X019753Y009027D01*
X019053Y008631D02*
X018753Y008631D01*
X018753Y009081D01*
X019053Y009081D01*
X019053Y008631D01*
X019053Y008730D02*
X018753Y008730D01*
X018753Y008829D02*
X019053Y008829D01*
X019053Y008928D02*
X018753Y008928D01*
X018753Y009027D02*
X019053Y009027D01*
X019060Y008275D02*
X018760Y008275D01*
X019060Y008275D02*
X019060Y007825D01*
X018760Y007825D01*
X018760Y008275D01*
X018760Y007924D02*
X019060Y007924D01*
X019060Y008023D02*
X018760Y008023D01*
X018760Y008122D02*
X019060Y008122D01*
X019060Y008221D02*
X018760Y008221D01*
X019460Y008275D02*
X019760Y008275D01*
X019760Y007825D01*
X019460Y007825D01*
X019460Y008275D01*
X019460Y007924D02*
X019760Y007924D01*
X019760Y008023D02*
X019460Y008023D01*
X019460Y008122D02*
X019760Y008122D01*
X019760Y008221D02*
X019460Y008221D01*
D29*
X013260Y012700D03*
X013260Y013700D03*
X013260Y014700D03*
D30*
X012510Y001900D03*
X007860Y001900D03*
X018610Y001950D03*
D31*
X020610Y001950D03*
X010510Y001900D03*
X005860Y001900D03*
D32*
X013910Y012526D03*
X014410Y012526D03*
X014910Y012526D03*
X015410Y012526D03*
X015410Y014574D03*
X014910Y014574D03*
X014410Y014574D03*
X013910Y014574D03*
D33*
X013418Y005000D03*
X015701Y005000D03*
D34*
X004960Y012300D03*
M02*
