G75*
%MOIN*%
%OFA0B0*%
%FSLAX24Y24*%
%IPPOS*%
%LPD*%
%AMOC8*
5,1,8,0,0,1.08239X$1,22.5*
%
%ADD10C,0.0000*%
%ADD11C,0.0787*%
%ADD12C,0.0860*%
%ADD13R,0.0512X0.0355*%
%ADD14C,0.0660*%
%ADD15C,0.0700*%
%ADD16C,0.0768*%
%ADD17OC8,0.0480*%
%ADD18R,0.0800X0.0800*%
%ADD19C,0.0800*%
%ADD20R,0.0236X0.0610*%
%ADD21R,0.0472X0.0709*%
%ADD22R,0.0355X0.0512*%
%ADD23R,0.0394X0.0394*%
%ADD24C,0.0560*%
%ADD25C,0.0160*%
%ADD26C,0.0356*%
%ADD27C,0.0200*%
%ADD28C,0.0310*%
%ADD29C,0.0250*%
%ADD30C,0.0450*%
%ADD31C,0.0100*%
%ADD32C,0.0317*%
%ADD33C,0.0180*%
%ADD34C,0.0080*%
D10*
X004460Y000900D02*
X004460Y017270D01*
X004462Y017324D01*
X004468Y017377D01*
X004477Y017429D01*
X004490Y017481D01*
X004507Y017532D01*
X004528Y017582D01*
X004552Y017629D01*
X004579Y017675D01*
X004610Y017719D01*
X004643Y017761D01*
X004680Y017800D01*
X004719Y017837D01*
X004761Y017870D01*
X004805Y017901D01*
X004851Y017928D01*
X004898Y017952D01*
X004948Y017973D01*
X004999Y017990D01*
X005051Y018003D01*
X005103Y018012D01*
X005156Y018018D01*
X005210Y018020D01*
X021202Y018020D01*
X021251Y018026D01*
X021300Y018028D01*
X021349Y018026D01*
X021398Y018021D01*
X021446Y018012D01*
X021494Y017999D01*
X021541Y017983D01*
X021586Y017964D01*
X021629Y017941D01*
X021671Y017915D01*
X021711Y017886D01*
X021748Y017854D01*
X021783Y017819D01*
X021815Y017782D01*
X021845Y017742D01*
X021871Y017701D01*
X021894Y017657D01*
X021914Y017612D01*
X021930Y017566D01*
X021943Y017518D01*
X021952Y017470D01*
X021952Y000900D01*
X021950Y000846D01*
X021944Y000793D01*
X021935Y000741D01*
X021922Y000689D01*
X021905Y000638D01*
X021884Y000588D01*
X021860Y000541D01*
X021833Y000495D01*
X021802Y000451D01*
X021769Y000409D01*
X021732Y000370D01*
X021693Y000333D01*
X021651Y000300D01*
X021607Y000269D01*
X021561Y000242D01*
X021514Y000218D01*
X021464Y000197D01*
X021413Y000180D01*
X021361Y000167D01*
X021309Y000158D01*
X021256Y000152D01*
X021202Y000150D01*
X005210Y000150D01*
X005156Y000152D01*
X005103Y000158D01*
X005051Y000167D01*
X004999Y000180D01*
X004948Y000197D01*
X004898Y000218D01*
X004851Y000242D01*
X004805Y000269D01*
X004761Y000300D01*
X004719Y000333D01*
X004680Y000370D01*
X004643Y000409D01*
X004610Y000451D01*
X004579Y000495D01*
X004552Y000541D01*
X004528Y000588D01*
X004507Y000638D01*
X004490Y000689D01*
X004477Y000741D01*
X004468Y000793D01*
X004462Y000846D01*
X004460Y000900D01*
D11*
X014728Y016637D03*
X020791Y016637D03*
D12*
X018744Y005063D03*
X016775Y005063D03*
D13*
X007740Y014476D03*
X007740Y015264D03*
D14*
X014475Y003050D03*
X016444Y003050D03*
D15*
X016480Y001100D03*
X014480Y001100D03*
D16*
X010050Y004100D03*
X008200Y005100D03*
X010050Y007100D03*
X010050Y011100D03*
X008200Y011100D03*
X005200Y011100D03*
X005200Y007100D03*
X005200Y004100D03*
X013050Y011100D03*
D17*
X013260Y012700D03*
X013260Y013700D03*
X013260Y014700D03*
D18*
X012510Y001900D03*
X007860Y001900D03*
X018610Y001950D03*
D19*
X020610Y001950D03*
X010510Y001900D03*
X005860Y001900D03*
D20*
X009572Y012900D03*
X009966Y012900D03*
X010360Y012900D03*
X010753Y012900D03*
X011147Y012900D03*
X011278Y014750D03*
X010884Y014750D03*
X010491Y014750D03*
X010097Y014750D03*
X009703Y014750D03*
X009310Y014750D03*
X009310Y016400D03*
X009703Y016400D03*
X010097Y016400D03*
X010491Y016400D03*
X010884Y016400D03*
X011278Y016400D03*
D21*
X011790Y015524D03*
X011790Y013874D03*
X011659Y012024D03*
X009060Y012024D03*
X008798Y013874D03*
X008798Y015524D03*
D22*
X012716Y016300D03*
X013503Y016300D03*
D23*
X013497Y016935D03*
X013497Y017565D03*
X011922Y017565D03*
X011922Y016935D03*
D24*
X004960Y012300D03*
D25*
X005369Y012513D02*
X008704Y012513D01*
X008750Y012558D02*
X008644Y012453D01*
X008644Y011896D01*
X008611Y011910D01*
X007058Y011910D01*
X006962Y011870D01*
X006442Y011350D01*
X005706Y011350D01*
X005678Y011419D01*
X005519Y011578D01*
X005312Y011664D01*
X005087Y011664D01*
X004880Y011578D01*
X004740Y011437D01*
X004740Y011893D01*
X004868Y011840D01*
X005051Y011840D01*
X005220Y011910D01*
X005349Y012039D01*
X005420Y012208D01*
X005420Y012391D01*
X005349Y012561D01*
X005220Y012690D01*
X005051Y012760D01*
X004868Y012760D01*
X004740Y012707D01*
X004740Y017270D01*
X004745Y017344D01*
X004791Y017483D01*
X004877Y017602D01*
X004996Y017689D01*
X005136Y017734D01*
X005210Y017740D01*
X011545Y017740D01*
X011545Y017583D01*
X011904Y017583D01*
X011904Y017547D01*
X011545Y017547D01*
X011545Y017424D01*
X011470Y017455D01*
X011349Y017455D01*
X011237Y017409D01*
X011208Y017380D01*
X010464Y017380D01*
X010014Y016930D01*
X009969Y016885D01*
X009904Y016885D01*
X009892Y016872D01*
X009891Y016873D01*
X009845Y016885D01*
X009703Y016885D01*
X009675Y016885D01*
X009749Y016916D01*
X009844Y017010D01*
X009895Y017133D01*
X009895Y017267D01*
X009844Y017390D01*
X009749Y017484D01*
X009626Y017535D01*
X009493Y017535D01*
X009370Y017484D01*
X009276Y017390D01*
X009256Y017342D01*
X009151Y017237D01*
X009072Y017159D01*
X009030Y017056D01*
X009030Y016798D01*
X009011Y016780D01*
X009011Y016058D01*
X008487Y016058D01*
X008381Y015953D01*
X008381Y015095D01*
X008447Y015030D01*
X008167Y015030D01*
X008175Y015063D01*
X008175Y015255D01*
X007748Y015255D01*
X007748Y014906D01*
X007773Y014906D01*
X007701Y014834D01*
X007409Y014834D01*
X007405Y014830D01*
X006804Y014830D01*
X006701Y014787D01*
X005622Y013709D01*
X005580Y013606D01*
X005580Y013376D01*
X005556Y013353D01*
X005501Y013221D01*
X005501Y013079D01*
X005556Y012947D01*
X005657Y012846D01*
X005788Y012792D01*
X005931Y012792D01*
X006062Y012846D01*
X006163Y012947D01*
X006218Y013079D01*
X006218Y013221D01*
X006163Y013353D01*
X006140Y013376D01*
X006140Y013434D01*
X006975Y014270D01*
X007304Y014270D01*
X007304Y014224D01*
X007409Y014119D01*
X008070Y014119D01*
X008175Y014224D01*
X008175Y014470D01*
X009011Y014470D01*
X009011Y014408D01*
X008487Y014408D01*
X008381Y014303D01*
X008381Y013445D01*
X008487Y013340D01*
X009108Y013340D01*
X009141Y013372D01*
X009151Y013363D01*
X009199Y013343D01*
X009274Y013268D01*
X009274Y012558D01*
X008750Y012558D01*
X008644Y012355D02*
X005420Y012355D01*
X005414Y012196D02*
X008644Y012196D01*
X008644Y012038D02*
X005348Y012038D01*
X005145Y011879D02*
X006983Y011879D01*
X006812Y011721D02*
X004740Y011721D01*
X004740Y011879D02*
X004774Y011879D01*
X004740Y011562D02*
X004864Y011562D01*
X005200Y011100D02*
X004860Y010760D01*
X004860Y008950D01*
X005760Y010300D02*
X007110Y011650D01*
X008560Y011650D01*
X008710Y011500D01*
X009510Y011500D01*
X009760Y011750D01*
X010260Y011750D01*
X011060Y010950D01*
X012900Y010950D01*
X013050Y011100D01*
X012560Y010650D02*
X012660Y010550D01*
X014960Y010550D01*
X015860Y009650D01*
X018860Y009650D01*
X018560Y009350D01*
X018560Y008050D01*
X018689Y007330D02*
X018685Y007318D01*
X018678Y007308D01*
X018668Y007300D01*
X018860Y009650D02*
X019960Y009650D01*
X020260Y009950D01*
X020260Y013650D01*
X019610Y014300D01*
X018560Y014300D01*
X018160Y014700D01*
X018160Y015850D01*
X018660Y016350D01*
X020360Y016350D01*
X020504Y016350D01*
X020791Y016637D01*
X020993Y016100D02*
X021116Y016151D01*
X021277Y016312D01*
X021365Y016523D01*
X021365Y016752D01*
X021277Y016962D01*
X021116Y017124D01*
X020905Y017211D01*
X020677Y017211D01*
X020466Y017124D01*
X020305Y016962D01*
X020217Y016752D01*
X020217Y016610D01*
X018608Y016610D01*
X018512Y016570D01*
X018012Y016070D01*
X017939Y015997D01*
X017900Y015902D01*
X017900Y014648D01*
X017939Y014553D01*
X018012Y014480D01*
X018260Y014232D01*
X018260Y014150D01*
X018660Y013750D01*
X019460Y013750D01*
X020000Y013030D01*
X020000Y010058D01*
X019852Y009910D01*
X016108Y009910D01*
X015839Y010220D01*
X018264Y010220D01*
X018464Y010020D01*
X019705Y010020D01*
X019840Y010155D01*
X019990Y010305D01*
X019990Y010995D01*
X019855Y011130D01*
X019190Y011795D01*
X019190Y012299D01*
X019218Y012327D01*
X019265Y012439D01*
X019265Y012561D01*
X019218Y012673D01*
X019132Y012759D01*
X019020Y012805D01*
X018899Y012805D01*
X018787Y012759D01*
X018701Y012673D01*
X018655Y012561D01*
X018655Y012439D01*
X018701Y012327D01*
X018730Y012299D01*
X018730Y011805D01*
X018605Y011930D01*
X018419Y011930D01*
X018465Y012039D01*
X018465Y012161D01*
X018418Y012273D01*
X018332Y012359D01*
X018220Y012405D01*
X018130Y012405D01*
X017840Y012695D01*
X017765Y012770D01*
X017740Y012795D01*
X017740Y013545D01*
X017605Y013680D01*
X017155Y014130D01*
X016719Y014130D01*
X016765Y014239D01*
X016765Y014361D01*
X016718Y014473D01*
X016632Y014559D01*
X016520Y014605D01*
X016480Y014605D01*
X015794Y015290D01*
X015815Y015339D01*
X015815Y015461D01*
X015768Y015573D01*
X015682Y015659D01*
X015570Y015705D01*
X015530Y015705D01*
X015155Y016080D01*
X014869Y016080D01*
X014948Y016106D01*
X015029Y016147D01*
X015102Y016200D01*
X015166Y016264D01*
X015219Y016337D01*
X015260Y016417D01*
X015288Y016503D01*
X015302Y016592D01*
X015302Y016609D01*
X014756Y016609D01*
X014756Y016666D01*
X014700Y016666D01*
X014700Y017211D01*
X014683Y017211D01*
X014594Y017197D01*
X014508Y017169D01*
X014427Y017128D01*
X014354Y017075D01*
X014290Y017011D01*
X014237Y016938D01*
X014196Y016858D01*
X014168Y016772D01*
X014154Y016683D01*
X014154Y016666D01*
X014700Y016666D01*
X014700Y016609D01*
X014154Y016609D01*
X014154Y016592D01*
X014168Y016503D01*
X014196Y016417D01*
X014237Y016337D01*
X014290Y016264D01*
X014354Y016200D01*
X014427Y016147D01*
X014508Y016106D01*
X014587Y016080D01*
X014055Y016080D01*
X013861Y016274D01*
X013861Y016630D01*
X013851Y016641D01*
X013874Y016664D01*
X013874Y017206D01*
X013830Y017250D01*
X013838Y017258D01*
X013861Y017299D01*
X013874Y017344D01*
X013874Y017547D01*
X013515Y017547D01*
X013515Y017583D01*
X013874Y017583D01*
X013874Y017740D01*
X021168Y017740D01*
X021189Y017735D01*
X021223Y017740D01*
X021257Y017740D01*
X021268Y017745D01*
X021318Y017747D01*
X021461Y017712D01*
X021580Y017625D01*
X021657Y017499D01*
X021672Y017440D01*
X021672Y016100D01*
X020993Y016100D01*
X021123Y016159D02*
X021672Y016159D01*
X021672Y016317D02*
X021279Y016317D01*
X021345Y016476D02*
X021672Y016476D01*
X021672Y016634D02*
X021365Y016634D01*
X021348Y016793D02*
X021672Y016793D01*
X021672Y016951D02*
X021282Y016951D01*
X021130Y017110D02*
X021672Y017110D01*
X021672Y017268D02*
X013844Y017268D01*
X013874Y017110D02*
X014402Y017110D01*
X014247Y016951D02*
X013874Y016951D01*
X013874Y016793D02*
X014175Y016793D01*
X014177Y016476D02*
X013861Y016476D01*
X013857Y016634D02*
X014700Y016634D01*
X014756Y016634D02*
X020217Y016634D01*
X020234Y016793D02*
X015281Y016793D01*
X015288Y016772D02*
X015260Y016858D01*
X015219Y016938D01*
X015166Y017011D01*
X015102Y017075D01*
X015029Y017128D01*
X014948Y017169D01*
X014862Y017197D01*
X014773Y017211D01*
X014756Y017211D01*
X014756Y016666D01*
X015302Y016666D01*
X015302Y016683D01*
X015288Y016772D01*
X015209Y016951D02*
X020300Y016951D01*
X020452Y017110D02*
X015054Y017110D01*
X014756Y017110D02*
X014700Y017110D01*
X014700Y016951D02*
X014756Y016951D01*
X014756Y016793D02*
X014700Y016793D01*
X014252Y016317D02*
X013861Y016317D01*
X013976Y016159D02*
X014411Y016159D01*
X015045Y016159D02*
X018100Y016159D01*
X018012Y016070D02*
X018012Y016070D01*
X017942Y016000D02*
X015235Y016000D01*
X015393Y015842D02*
X017900Y015842D01*
X017900Y015683D02*
X015623Y015683D01*
X015788Y015525D02*
X017900Y015525D01*
X017900Y015366D02*
X015815Y015366D01*
X015877Y015208D02*
X017900Y015208D01*
X017900Y015049D02*
X016036Y015049D01*
X016194Y014891D02*
X017900Y014891D01*
X017900Y014732D02*
X016353Y014732D01*
X016596Y014574D02*
X017930Y014574D01*
X018077Y014415D02*
X016742Y014415D01*
X016765Y014257D02*
X018235Y014257D01*
X018311Y014098D02*
X017187Y014098D01*
X017345Y013940D02*
X018470Y013940D01*
X018628Y013781D02*
X017504Y013781D01*
X017662Y013623D02*
X019555Y013623D01*
X019674Y013464D02*
X017740Y013464D01*
X017740Y013306D02*
X019793Y013306D01*
X019912Y013147D02*
X017740Y013147D01*
X017740Y012989D02*
X020000Y012989D01*
X020000Y012830D02*
X017740Y012830D01*
X017863Y012672D02*
X018700Y012672D01*
X018655Y012513D02*
X018022Y012513D01*
X018336Y012355D02*
X018690Y012355D01*
X018730Y012196D02*
X018450Y012196D01*
X018464Y012038D02*
X018730Y012038D01*
X018730Y011879D02*
X018656Y011879D01*
X019190Y011879D02*
X020000Y011879D01*
X020000Y011721D02*
X019264Y011721D01*
X019423Y011562D02*
X020000Y011562D01*
X020000Y011404D02*
X019581Y011404D01*
X019740Y011245D02*
X020000Y011245D01*
X020000Y011087D02*
X019898Y011087D01*
X019990Y010928D02*
X020000Y010928D01*
X019990Y010770D02*
X020000Y010770D01*
X019990Y010611D02*
X020000Y010611D01*
X019990Y010453D02*
X020000Y010453D01*
X020000Y010294D02*
X019979Y010294D01*
X020000Y010136D02*
X019820Y010136D01*
X019919Y009977D02*
X016049Y009977D01*
X015912Y010136D02*
X018349Y010136D01*
X019190Y012038D02*
X020000Y012038D01*
X020000Y012196D02*
X019190Y012196D01*
X019229Y012355D02*
X020000Y012355D01*
X020000Y012513D02*
X019265Y012513D01*
X019219Y012672D02*
X020000Y012672D01*
X019210Y015100D02*
X019160Y015100D01*
X018259Y016317D02*
X015204Y016317D01*
X015279Y016476D02*
X018417Y016476D01*
X021266Y017744D02*
X021334Y017744D01*
X021604Y017585D02*
X013874Y017585D01*
X013874Y017427D02*
X021672Y017427D01*
X013478Y017547D02*
X013120Y017547D01*
X013120Y017344D01*
X013132Y017299D01*
X013156Y017258D01*
X013164Y017250D01*
X013120Y017206D01*
X013120Y017165D01*
X012299Y017165D01*
X012299Y017206D01*
X012255Y017250D01*
X012263Y017258D01*
X012287Y017299D01*
X012299Y017344D01*
X012299Y017547D01*
X011941Y017547D01*
X011941Y017583D01*
X012299Y017583D01*
X012299Y017740D01*
X013120Y017740D01*
X013120Y017583D01*
X013478Y017583D01*
X013478Y017547D01*
X013120Y017585D02*
X012299Y017585D01*
X012299Y017427D02*
X013120Y017427D01*
X013150Y017268D02*
X012269Y017268D01*
X011545Y017427D02*
X011539Y017427D01*
X011545Y017585D02*
X004865Y017585D01*
X004772Y017427D02*
X009312Y017427D01*
X009182Y017268D02*
X004740Y017268D01*
X004740Y017110D02*
X009052Y017110D01*
X009030Y016951D02*
X004740Y016951D01*
X004740Y016793D02*
X009024Y016793D01*
X009011Y016634D02*
X004740Y016634D01*
X004740Y016476D02*
X009011Y016476D01*
X009011Y016317D02*
X004740Y016317D01*
X004740Y016159D02*
X009011Y016159D01*
X008429Y016000D02*
X004740Y016000D01*
X004740Y015842D02*
X008381Y015842D01*
X008381Y015683D02*
X004740Y015683D01*
X004740Y015525D02*
X007324Y015525D01*
X007316Y015511D02*
X007304Y015465D01*
X007304Y015272D01*
X007731Y015272D01*
X007731Y015255D01*
X007748Y015255D01*
X007748Y015272D01*
X008175Y015272D01*
X008175Y015465D01*
X008163Y015511D01*
X008139Y015552D01*
X008106Y015585D01*
X008065Y015609D01*
X008019Y015621D01*
X007748Y015621D01*
X007748Y015272D01*
X007731Y015272D01*
X007731Y015621D01*
X007460Y015621D01*
X007414Y015609D01*
X007373Y015585D01*
X007340Y015552D01*
X007316Y015511D01*
X007304Y015366D02*
X004740Y015366D01*
X004740Y015208D02*
X007304Y015208D01*
X007304Y015255D02*
X007304Y015063D01*
X007316Y015017D01*
X007340Y014976D01*
X007373Y014942D01*
X007414Y014918D01*
X007460Y014906D01*
X007731Y014906D01*
X007731Y015255D01*
X007304Y015255D01*
X007307Y015049D02*
X004740Y015049D01*
X004740Y014891D02*
X007758Y014891D01*
X007748Y015049D02*
X007731Y015049D01*
X007731Y015208D02*
X007748Y015208D01*
X007731Y015366D02*
X007748Y015366D01*
X007731Y015525D02*
X007748Y015525D01*
X008155Y015525D02*
X008381Y015525D01*
X008381Y015366D02*
X008175Y015366D01*
X008175Y015208D02*
X008381Y015208D01*
X008428Y015049D02*
X008172Y015049D01*
X008175Y014415D02*
X009011Y014415D01*
X008381Y014257D02*
X008175Y014257D01*
X008381Y014098D02*
X006804Y014098D01*
X006962Y014257D02*
X007304Y014257D01*
X006645Y013940D02*
X008381Y013940D01*
X008381Y013781D02*
X006487Y013781D01*
X006328Y013623D02*
X008381Y013623D01*
X008381Y013464D02*
X006170Y013464D01*
X006183Y013306D02*
X009236Y013306D01*
X009274Y013147D02*
X006218Y013147D01*
X006180Y012989D02*
X009274Y012989D01*
X009274Y012830D02*
X006023Y012830D01*
X005696Y012830D02*
X004740Y012830D01*
X004740Y012989D02*
X005539Y012989D01*
X005501Y013147D02*
X004740Y013147D01*
X004740Y013306D02*
X005536Y013306D01*
X005580Y013464D02*
X004740Y013464D01*
X004740Y013623D02*
X005586Y013623D01*
X005695Y013781D02*
X004740Y013781D01*
X004740Y013940D02*
X005853Y013940D01*
X006012Y014098D02*
X004740Y014098D01*
X004740Y014257D02*
X006170Y014257D01*
X006329Y014415D02*
X004740Y014415D01*
X004740Y014574D02*
X006487Y014574D01*
X006646Y014732D02*
X004740Y014732D01*
X005239Y012672D02*
X009274Y012672D01*
X009477Y012415D02*
X009477Y011835D01*
X009612Y011970D01*
X009708Y012010D01*
X010124Y012010D01*
X010080Y012055D01*
X010080Y012415D01*
X009966Y012415D01*
X009966Y012900D01*
X009966Y012900D01*
X009966Y013385D01*
X010108Y013385D01*
X010153Y013373D01*
X010154Y013372D01*
X010167Y013385D01*
X010552Y013385D01*
X010556Y013381D01*
X010561Y013385D01*
X010946Y013385D01*
X010950Y013381D01*
X010954Y013385D01*
X011049Y013385D01*
X010654Y013780D01*
X010654Y014265D01*
X010298Y014265D01*
X010285Y014278D01*
X010285Y014277D01*
X010239Y014265D01*
X010097Y014265D01*
X010097Y014750D01*
X010097Y014750D01*
X010097Y015235D01*
X010239Y015235D01*
X010285Y015223D01*
X010285Y015222D01*
X010290Y015227D01*
X010290Y015291D01*
X010295Y015297D01*
X010187Y015341D01*
X010185Y015344D01*
X010132Y015291D01*
X010020Y015245D01*
X009899Y015245D01*
X009787Y015291D01*
X009701Y015377D01*
X009655Y015489D01*
X009655Y015611D01*
X009701Y015723D01*
X009740Y015761D01*
X009740Y015805D01*
X009745Y015811D01*
X009746Y015819D01*
X009812Y015878D01*
X009851Y015916D01*
X009845Y015915D01*
X009703Y015915D01*
X009703Y016400D01*
X009703Y016400D01*
X009703Y016885D01*
X009703Y016400D01*
X009703Y016400D01*
X009703Y015994D01*
X009660Y015950D01*
X009660Y014794D01*
X009703Y014750D01*
X009703Y015235D01*
X009590Y015235D01*
X009590Y015915D01*
X009703Y015915D01*
X009703Y016400D01*
X009703Y016476D02*
X009703Y016476D01*
X009703Y016634D02*
X009703Y016634D01*
X009703Y016793D02*
X009703Y016793D01*
X009784Y016951D02*
X010035Y016951D01*
X009885Y017110D02*
X010194Y017110D01*
X010352Y017268D02*
X009894Y017268D01*
X009807Y017427D02*
X011280Y017427D01*
X009703Y016317D02*
X009703Y016317D01*
X009703Y016159D02*
X009703Y016159D01*
X009703Y016000D02*
X009703Y016000D01*
X009771Y015842D02*
X009590Y015842D01*
X009590Y015683D02*
X009684Y015683D01*
X009655Y015525D02*
X009590Y015525D01*
X009590Y015366D02*
X009712Y015366D01*
X009703Y015235D02*
X009703Y014750D01*
X009703Y014750D01*
X009703Y014750D01*
X009703Y014265D01*
X009590Y014265D01*
X009590Y013688D01*
X009757Y013520D01*
X009830Y013447D01*
X009856Y013385D01*
X009966Y013385D01*
X009966Y012900D01*
X009966Y012900D01*
X009966Y012415D01*
X009824Y012415D01*
X009778Y012427D01*
X009777Y012428D01*
X009765Y012415D01*
X009477Y012415D01*
X009477Y012355D02*
X010080Y012355D01*
X010080Y012196D02*
X009477Y012196D01*
X009477Y012038D02*
X010097Y012038D01*
X009966Y012513D02*
X009966Y012513D01*
X009966Y012672D02*
X009966Y012672D01*
X009966Y012830D02*
X009966Y012830D01*
X009966Y012989D02*
X009966Y012989D01*
X009966Y013147D02*
X009966Y013147D01*
X009966Y013306D02*
X009966Y013306D01*
X009813Y013464D02*
X010970Y013464D01*
X010812Y013623D02*
X009655Y013623D01*
X009590Y013781D02*
X010654Y013781D01*
X010654Y013940D02*
X009590Y013940D01*
X009590Y014098D02*
X010654Y014098D01*
X010654Y014257D02*
X009590Y014257D01*
X009703Y014265D02*
X009845Y014265D01*
X009891Y014277D01*
X009900Y014282D01*
X009909Y014277D01*
X009955Y014265D01*
X010097Y014265D01*
X010097Y014750D01*
X010097Y014750D01*
X010097Y015235D01*
X009955Y015235D01*
X009909Y015223D01*
X009900Y015218D01*
X009891Y015223D01*
X009845Y015235D01*
X009703Y015235D01*
X009703Y015208D02*
X009703Y015208D01*
X009703Y015049D02*
X009703Y015049D01*
X009703Y014891D02*
X009703Y014891D01*
X009703Y014750D02*
X010097Y014750D01*
X009799Y014750D01*
X009703Y014750D01*
X009703Y014265D01*
X009703Y014415D02*
X009703Y014415D01*
X009703Y014574D02*
X009703Y014574D01*
X009703Y014732D02*
X009703Y014732D01*
X009703Y014750D02*
X009703Y014750D01*
X010097Y014750D02*
X010097Y014750D01*
X010097Y014732D02*
X010097Y014732D01*
X010097Y014574D02*
X010097Y014574D01*
X010097Y014415D02*
X010097Y014415D01*
X010097Y014891D02*
X010097Y014891D01*
X010097Y015049D02*
X010097Y015049D01*
X010097Y015208D02*
X010097Y015208D01*
X009310Y013600D02*
X009610Y013300D01*
X009610Y012937D01*
X009572Y012900D01*
X009572Y012987D01*
X009521Y011879D02*
X009477Y011879D01*
X010050Y011100D02*
X010410Y011100D01*
X010860Y010650D01*
X012560Y010650D01*
X013460Y009150D02*
X013460Y008950D01*
X013260Y008750D01*
X012560Y008450D01*
X011460Y008600D02*
X009260Y008600D01*
X008860Y009150D01*
X009310Y009500D02*
X009189Y009621D01*
X009160Y009691D02*
X009160Y010450D01*
X010050Y011100D02*
X008200Y011100D01*
X006654Y011562D02*
X005535Y011562D01*
X005684Y011404D02*
X006495Y011404D01*
X009160Y009691D02*
X009162Y009671D01*
X009168Y009653D01*
X009177Y009635D01*
X009189Y009620D01*
X012763Y012672D02*
X012840Y012672D01*
X012840Y012700D02*
X012840Y012595D01*
X012585Y012850D01*
X012607Y012850D01*
X012678Y012836D01*
X012699Y012850D01*
X012840Y012850D01*
X012840Y012700D01*
X013260Y012700D01*
X013260Y012700D01*
X012840Y012700D01*
X012840Y012830D02*
X012605Y012830D01*
D26*
X013460Y009150D03*
X011460Y008600D03*
X008860Y009150D03*
X005860Y013150D03*
X019160Y015100D03*
D27*
X012560Y008450D02*
X012488Y008460D01*
X011460Y008600D01*
X005860Y013150D02*
X005860Y013550D01*
X006860Y014550D01*
X007666Y014550D01*
X007740Y014476D01*
X008013Y014750D01*
X009310Y014750D01*
X009310Y013600D01*
X009310Y014750D02*
X009310Y016400D01*
X009310Y017000D01*
X009510Y017200D01*
X009560Y017200D01*
X007863Y014600D02*
X007740Y014476D01*
D28*
X009560Y017200D03*
D29*
X009460Y017690D03*
X010060Y017690D03*
X008860Y017690D03*
X008260Y017690D03*
X007660Y017690D03*
X007060Y017690D03*
X006460Y017690D03*
X005860Y017690D03*
X005260Y017690D03*
X004860Y017090D03*
X004860Y016490D03*
X004860Y015890D03*
X004860Y015290D03*
X004860Y014690D03*
X004860Y014040D03*
X004860Y013590D03*
X004860Y012890D03*
X004860Y011740D03*
X005260Y011740D03*
X005660Y011740D03*
X006060Y011740D03*
X005760Y010300D03*
X005210Y009750D03*
X004860Y008950D03*
X009960Y013540D03*
X009960Y013940D03*
X010360Y013940D03*
X010360Y013540D03*
X012510Y015250D03*
X012960Y015250D03*
X012510Y015700D03*
X012760Y014550D03*
X013960Y014200D03*
X014433Y014574D03*
X014690Y013700D03*
X014060Y013700D03*
X014960Y012900D03*
X015820Y012950D03*
X015830Y012580D03*
X015410Y011400D03*
X015710Y011100D03*
X016260Y010700D03*
X016660Y010000D03*
X017060Y010000D03*
X018410Y011100D03*
X018060Y011400D03*
X018160Y012100D03*
X018360Y012950D03*
X017960Y012950D03*
X018760Y012950D03*
X019160Y012950D03*
X018960Y012500D03*
X019110Y010890D03*
X019490Y010510D03*
X016860Y011400D03*
X014860Y011050D03*
X016060Y014250D03*
X016460Y014300D03*
X015510Y015400D03*
X015660Y017690D03*
X015060Y017690D03*
X014460Y017690D03*
X013860Y017690D03*
X016260Y017690D03*
X020460Y017690D03*
X021060Y017690D03*
X021460Y017290D03*
X021460Y016690D03*
X011410Y017150D03*
X010360Y015600D03*
X009960Y015550D03*
D30*
X011460Y017590D02*
X013860Y017590D01*
D31*
X013497Y016935D02*
X013503Y016929D01*
X013503Y016300D01*
X013510Y016300D01*
X013960Y015850D01*
X015060Y015850D01*
X015510Y015400D01*
X015510Y015250D01*
X016460Y014300D01*
X016410Y014350D01*
X016060Y014250D02*
X014710Y015600D01*
X012860Y015600D01*
X012710Y015700D01*
X012510Y015700D01*
X012510Y015250D02*
X012460Y015200D01*
X012460Y013900D01*
X012510Y013850D01*
X012810Y013550D01*
X013060Y013300D01*
X013410Y013300D01*
X013860Y013300D01*
X014260Y012900D01*
X014960Y012900D01*
X014960Y012950D01*
X015230Y013220D01*
X016270Y013220D01*
X016660Y012850D01*
X016660Y012300D01*
X016710Y012250D01*
X017260Y011700D01*
X017860Y011100D01*
X018410Y011100D01*
X018060Y011400D02*
X017460Y012000D01*
X017010Y012450D01*
X017010Y013100D01*
X016660Y013450D01*
X016060Y013450D01*
X015660Y013450D01*
X015060Y014050D01*
X015010Y014050D01*
X014060Y014050D01*
X013960Y014150D01*
X013960Y014200D01*
X013760Y014550D02*
X014357Y014550D01*
X014433Y014574D01*
X014836Y014574D01*
X015740Y013670D01*
X016260Y013670D01*
X016940Y013670D01*
X017260Y013350D01*
X017260Y012550D01*
X017460Y012350D01*
X018110Y011700D01*
X018510Y011700D01*
X019110Y011100D01*
X019110Y010890D01*
X019360Y010500D02*
X018660Y010500D01*
X018360Y010800D01*
X017110Y010800D01*
X016810Y011100D01*
X015710Y011100D01*
X015810Y011400D02*
X015160Y012050D01*
X013810Y012050D01*
X012310Y012050D01*
X012060Y012300D01*
X012060Y012650D01*
X011872Y012837D01*
X011210Y012837D01*
X011147Y012900D01*
X010760Y012894D02*
X010753Y012900D01*
X010760Y012894D02*
X010760Y012100D01*
X011360Y011500D01*
X012030Y011500D01*
X012360Y011830D01*
X014960Y011830D01*
X015260Y011550D01*
X015410Y011400D01*
X015810Y011400D02*
X016860Y011400D01*
X016260Y010700D02*
X015610Y010700D01*
X014960Y011350D01*
X014710Y011600D01*
X012510Y011600D01*
X012110Y011200D01*
X011260Y011200D01*
X011235Y011225D01*
X010310Y012150D01*
X010310Y012850D01*
X010360Y012900D01*
X010884Y013875D02*
X011510Y013250D01*
X011860Y013250D01*
X012660Y012450D01*
X012810Y012300D01*
X012860Y012250D01*
X013860Y012250D01*
X013910Y012300D01*
X015210Y012300D01*
X015550Y012300D01*
X015830Y012580D01*
X015820Y012950D02*
X015320Y012600D01*
X013960Y012600D01*
X013490Y013080D01*
X012630Y013080D01*
X012580Y013090D01*
X012550Y013110D01*
X012580Y013090D01*
X012570Y013090D01*
X012550Y013110D01*
X012210Y013450D01*
X012210Y014400D01*
X011860Y014750D01*
X011278Y014750D01*
X010884Y014750D02*
X010884Y013875D01*
X010491Y014750D02*
X010510Y014769D01*
X010360Y015600D02*
X010910Y015600D01*
X011210Y015900D01*
X011210Y016250D01*
X011278Y016319D01*
X011278Y016400D01*
X010910Y016375D02*
X010884Y016400D01*
X010910Y016375D02*
X010910Y016000D01*
X010810Y015900D01*
X010160Y015900D01*
X009970Y015710D01*
X009960Y015550D01*
X010097Y016400D02*
X010110Y016413D01*
X010110Y016700D01*
X010560Y017150D01*
X011410Y017150D01*
X011837Y016850D02*
X011922Y016935D01*
X013497Y016935D01*
X011837Y016850D02*
X010610Y016850D01*
X010491Y016731D01*
X010491Y016400D01*
X012760Y014550D02*
X013010Y014300D01*
X013510Y014300D01*
X013760Y014550D01*
X014060Y013700D02*
X014690Y013700D01*
X015871Y013911D02*
X015932Y013900D01*
X016110Y013900D01*
X016560Y013900D01*
X017060Y013900D01*
X017510Y013450D01*
X017510Y012700D01*
X017535Y012675D01*
X017610Y012600D01*
X018110Y012100D01*
X018160Y012100D01*
X018960Y011700D02*
X019760Y010900D01*
X019760Y010400D01*
X019610Y010250D01*
X018560Y010250D01*
X018360Y010450D01*
X015460Y010450D01*
X014860Y011050D01*
X013860Y012050D02*
X013810Y012050D01*
X013860Y012050D01*
X015871Y013911D02*
X014460Y015350D01*
X013060Y015350D01*
X012960Y015250D01*
X008060Y011950D02*
X007000Y011950D01*
X005260Y010210D01*
X005260Y009800D01*
X005210Y009750D01*
X005760Y010300D02*
X005810Y010300D01*
X018960Y011700D02*
X018960Y012500D01*
X019360Y010500D02*
X019490Y010510D01*
D32*
X018560Y008050D03*
X015810Y008350D03*
X009310Y009500D03*
X009160Y010450D03*
D33*
X015810Y008350D02*
X016360Y008350D01*
X017410Y007300D01*
X018668Y007300D01*
X018689Y007329D02*
X019660Y008300D01*
X020660Y009300D01*
X020660Y011950D01*
X021460Y012750D01*
X021460Y015150D01*
X021260Y015350D01*
X019460Y015350D01*
X019210Y015100D01*
D34*
X012716Y016300D02*
X011810Y016300D01*
X011410Y015900D01*
X011410Y015650D01*
X011060Y015300D01*
X010610Y015300D01*
X010510Y015200D01*
X010510Y014769D01*
M02*
