G04 (created by PCBNEW (2013-07-07 BZR 4022)-stable) date 11/9/2013 7:35:54 PM*
%MOIN*%
G04 Gerber Fmt 3.4, Leading zero omitted, Abs format*
%FSLAX34Y34*%
G01*
G70*
G90*
G04 APERTURE LIST*
%ADD10C,0.006*%
%ADD11R,0.0373701X0.151543*%
%ADD12R,0.0255906X0.0255906*%
%ADD13R,0.0806772X0.0491811*%
%ADD14R,0.0531181X0.0629606*%
%ADD15R,0.0610236X0.00984252*%
%ADD16R,0.108976X0.135748*%
%ADD17R,0.0137795X0.0531496*%
%ADD18R,0.0748031X0.0590551*%
%ADD19R,0.0551181X0.0590551*%
%ADD20R,0.0188661X0.0759528*%
%ADD21R,0.023622X0.0397638*%
%ADD22R,0.0531X0.0118*%
%ADD23R,0.0708346X0.0413071*%
%ADD24R,0.0413071X0.0708346*%
G04 APERTURE END LIST*
G54D10*
G54D11*
X17000Y13456D03*
X17000Y10543D03*
X16000Y13456D03*
X16000Y10543D03*
X15000Y13456D03*
X15000Y10543D03*
X14000Y13456D03*
X14000Y10543D03*
X13000Y13456D03*
X13000Y10543D03*
X34000Y30793D03*
X34000Y33706D03*
X35000Y30793D03*
X35000Y33706D03*
X36000Y30793D03*
X36000Y33706D03*
X37000Y30793D03*
X37000Y33706D03*
X38000Y30793D03*
X38000Y33706D03*
G54D12*
X33500Y6974D03*
X33500Y7525D03*
X33500Y8224D03*
X33500Y8775D03*
G54D13*
X34208Y13346D03*
X37791Y11653D03*
X34208Y11653D03*
X37791Y13346D03*
X34208Y20346D03*
X37791Y18653D03*
X34208Y18653D03*
X37791Y20346D03*
X34208Y27346D03*
X37791Y25653D03*
X34208Y25653D03*
X37791Y27346D03*
G54D12*
X9474Y28750D03*
X10025Y28750D03*
G54D14*
X32000Y10600D03*
X32000Y9399D03*
G54D10*
G36*
X5647Y31945D02*
X5869Y32073D01*
X5996Y31851D01*
X5775Y31723D01*
X5647Y31945D01*
X5647Y31945D01*
G37*
G36*
X5923Y31468D02*
X6144Y31596D01*
X6272Y31374D01*
X6050Y31246D01*
X5923Y31468D01*
X5923Y31468D01*
G37*
G36*
X1426Y25800D02*
X1554Y26022D01*
X1776Y25894D01*
X1648Y25673D01*
X1426Y25800D01*
X1426Y25800D01*
G37*
G36*
X1903Y25525D02*
X2031Y25746D01*
X2253Y25619D01*
X2125Y25397D01*
X1903Y25525D01*
X1903Y25525D01*
G37*
G54D12*
X37474Y14250D03*
X38025Y14250D03*
X35025Y9000D03*
X34474Y9000D03*
X34500Y9974D03*
X34500Y10525D03*
X33750Y10525D03*
X33750Y9974D03*
X37525Y9000D03*
X36974Y9000D03*
X35724Y9000D03*
X36275Y9000D03*
X36000Y9974D03*
X36000Y10525D03*
X974Y18500D03*
X1525Y18500D03*
X33474Y16750D03*
X34025Y16750D03*
X38750Y16775D03*
X38750Y16224D03*
X39500Y16775D03*
X39500Y16224D03*
X10025Y29500D03*
X9474Y29500D03*
X11474Y23250D03*
X12025Y23250D03*
X8000Y22525D03*
X8000Y21974D03*
X18000Y21974D03*
X18000Y22525D03*
X37474Y28250D03*
X38025Y28250D03*
X37474Y21250D03*
X38025Y21250D03*
X36750Y9974D03*
X36750Y10525D03*
X17000Y20724D03*
X17000Y21275D03*
X13000Y21275D03*
X13000Y20724D03*
X15275Y23000D03*
X14724Y23000D03*
X12000Y22525D03*
X12000Y21974D03*
X17000Y17525D03*
X17000Y16974D03*
X13000Y17525D03*
X13000Y16974D03*
X22000Y22525D03*
X22000Y21974D03*
X20275Y14750D03*
X19724Y14750D03*
X20275Y17250D03*
X19724Y17250D03*
G54D10*
G36*
X19800Y34573D02*
X20022Y34445D01*
X19894Y34223D01*
X19673Y34351D01*
X19800Y34573D01*
X19800Y34573D01*
G37*
G36*
X19525Y34096D02*
X19746Y33968D01*
X19619Y33746D01*
X19397Y33874D01*
X19525Y34096D01*
X19525Y34096D01*
G37*
G54D12*
X29025Y23500D03*
X28474Y23500D03*
G54D10*
G36*
X25945Y30352D02*
X26073Y30130D01*
X25851Y30003D01*
X25723Y30224D01*
X25945Y30352D01*
X25945Y30352D01*
G37*
G36*
X25468Y30076D02*
X25596Y29855D01*
X25374Y29727D01*
X25246Y29949D01*
X25468Y30076D01*
X25468Y30076D01*
G37*
G54D12*
X12500Y35025D03*
X12500Y34474D03*
G54D10*
G36*
X24352Y9854D02*
X24130Y9726D01*
X24003Y9948D01*
X24224Y10076D01*
X24352Y9854D01*
X24352Y9854D01*
G37*
G36*
X24076Y10331D02*
X23855Y10203D01*
X23727Y10425D01*
X23949Y10553D01*
X24076Y10331D01*
X24076Y10331D01*
G37*
G36*
X10199Y7426D02*
X9977Y7554D01*
X10105Y7776D01*
X10326Y7648D01*
X10199Y7426D01*
X10199Y7426D01*
G37*
G36*
X10474Y7903D02*
X10253Y8031D01*
X10380Y8253D01*
X10602Y8125D01*
X10474Y7903D01*
X10474Y7903D01*
G37*
G54D12*
X17500Y6974D03*
X17500Y7525D03*
G54D10*
G36*
X4054Y11647D02*
X3926Y11869D01*
X4148Y11996D01*
X4276Y11775D01*
X4054Y11647D01*
X4054Y11647D01*
G37*
G36*
X4531Y11923D02*
X4403Y12144D01*
X4625Y12272D01*
X4753Y12050D01*
X4531Y11923D01*
X4531Y11923D01*
G37*
G36*
X28573Y16199D02*
X28445Y15977D01*
X28223Y16105D01*
X28351Y16326D01*
X28573Y16199D01*
X28573Y16199D01*
G37*
G36*
X28096Y16474D02*
X27968Y16253D01*
X27746Y16380D01*
X27874Y16602D01*
X28096Y16474D01*
X28096Y16474D01*
G37*
G54D12*
X38750Y8775D03*
X38750Y8224D03*
X39500Y8775D03*
X39500Y8224D03*
X15275Y23750D03*
X14724Y23750D03*
G54D15*
X11102Y21895D03*
X11102Y22151D03*
X11102Y21639D03*
X11102Y21383D03*
X11102Y21127D03*
X11102Y20872D03*
X11102Y20616D03*
X11102Y20360D03*
X8897Y19848D03*
X8897Y20104D03*
X8897Y20360D03*
X8897Y20616D03*
X8897Y22151D03*
X8897Y21895D03*
X8897Y21639D03*
X8897Y21383D03*
X8897Y21127D03*
X8897Y20872D03*
G54D16*
X10000Y21000D03*
G54D15*
X11102Y20104D03*
X11102Y19848D03*
X16102Y16895D03*
X16102Y17151D03*
X16102Y16639D03*
X16102Y16383D03*
X16102Y16127D03*
X16102Y15872D03*
X16102Y15616D03*
X16102Y15360D03*
X13897Y14848D03*
X13897Y15104D03*
X13897Y15360D03*
X13897Y15616D03*
X13897Y17151D03*
X13897Y16895D03*
X13897Y16639D03*
X13897Y16383D03*
X13897Y16127D03*
X13897Y15872D03*
G54D16*
X15000Y16000D03*
G54D15*
X16102Y15104D03*
X16102Y14848D03*
X21102Y21895D03*
X21102Y22151D03*
X21102Y21639D03*
X21102Y21383D03*
X21102Y21127D03*
X21102Y20872D03*
X21102Y20616D03*
X21102Y20360D03*
X18897Y19848D03*
X18897Y20104D03*
X18897Y20360D03*
X18897Y20616D03*
X18897Y22151D03*
X18897Y21895D03*
X18897Y21639D03*
X18897Y21383D03*
X18897Y21127D03*
X18897Y20872D03*
G54D16*
X20000Y21000D03*
G54D15*
X21102Y20104D03*
X21102Y19848D03*
G54D17*
X35488Y7852D03*
X35744Y7852D03*
X36000Y7852D03*
X36255Y7852D03*
X36511Y7852D03*
G54D18*
X34523Y6730D03*
X37476Y6730D03*
G54D19*
X36452Y6730D03*
X35547Y6730D03*
G54D20*
X8750Y24155D03*
X9250Y24155D03*
X9750Y24155D03*
X10250Y24155D03*
X10750Y24155D03*
X11250Y24155D03*
X11750Y24155D03*
X12250Y24155D03*
X12750Y24155D03*
X13250Y24155D03*
X13250Y27844D03*
X12750Y27844D03*
X12250Y27844D03*
X11750Y27844D03*
X11250Y27844D03*
X10750Y27844D03*
X10250Y27844D03*
X9750Y27844D03*
X9250Y27844D03*
X8750Y27844D03*
G54D21*
X19625Y15566D03*
X20000Y15566D03*
X20374Y15566D03*
X20374Y16433D03*
X19625Y16433D03*
G54D22*
X34868Y16896D03*
X34868Y16640D03*
X34868Y16384D03*
X34868Y16128D03*
X34868Y15872D03*
X34868Y15616D03*
X34868Y15360D03*
X34868Y15104D03*
X37132Y15104D03*
X37132Y15360D03*
X37132Y15616D03*
X37132Y15872D03*
X37132Y16128D03*
X37132Y16384D03*
X37132Y16640D03*
X37132Y16896D03*
G54D23*
X748Y19500D03*
X748Y20500D03*
G54D10*
G36*
X2108Y15524D02*
X2315Y15167D01*
X1701Y14813D01*
X1495Y15170D01*
X2108Y15524D01*
X2108Y15524D01*
G37*
G36*
X2608Y14664D02*
X2815Y14307D01*
X2201Y13953D01*
X1995Y14310D01*
X2608Y14664D01*
X2608Y14664D01*
G37*
G36*
X3108Y13794D02*
X3315Y13437D01*
X2701Y13083D01*
X2495Y13440D01*
X3108Y13794D01*
X3108Y13794D01*
G37*
G36*
X3608Y12934D02*
X3815Y12577D01*
X3201Y12223D01*
X2995Y12580D01*
X3608Y12934D01*
X3608Y12934D01*
G37*
G36*
X6577Y9815D02*
X6934Y9608D01*
X6580Y8995D01*
X6223Y9201D01*
X6577Y9815D01*
X6577Y9815D01*
G37*
G36*
X7437Y9315D02*
X7794Y9108D01*
X7440Y8495D01*
X7083Y8701D01*
X7437Y9315D01*
X7437Y9315D01*
G37*
G36*
X8307Y8815D02*
X8664Y8608D01*
X8310Y7995D01*
X7953Y8201D01*
X8307Y8815D01*
X8307Y8815D01*
G37*
G54D23*
X748Y21500D03*
X748Y22500D03*
G54D10*
G36*
X2315Y26832D02*
X2108Y26475D01*
X1495Y26829D01*
X1701Y27186D01*
X2315Y26832D01*
X2315Y26832D01*
G37*
G36*
X2815Y27692D02*
X2608Y27335D01*
X1995Y27689D01*
X2201Y28046D01*
X2815Y27692D01*
X2815Y27692D01*
G37*
G36*
X3815Y29422D02*
X3608Y29065D01*
X2995Y29419D01*
X3201Y29776D01*
X3815Y29422D01*
X3815Y29422D01*
G37*
G36*
X6934Y32391D02*
X6577Y32184D01*
X6223Y32798D01*
X6580Y33004D01*
X6934Y32391D01*
X6934Y32391D01*
G37*
G36*
X7794Y32891D02*
X7437Y32684D01*
X7083Y33298D01*
X7440Y33504D01*
X7794Y32891D01*
X7794Y32891D01*
G37*
G36*
X8664Y33391D02*
X8307Y33184D01*
X7953Y33798D01*
X8310Y34004D01*
X8664Y33391D01*
X8664Y33391D01*
G37*
G36*
X9524Y33891D02*
X9167Y33684D01*
X8813Y34298D01*
X9170Y34504D01*
X9524Y33891D01*
X9524Y33891D01*
G37*
G36*
X3315Y28562D02*
X3108Y28205D01*
X2495Y28559D01*
X2701Y28916D01*
X3315Y28562D01*
X3315Y28562D01*
G37*
G36*
X22562Y32684D02*
X22205Y32891D01*
X22559Y33504D01*
X22916Y33298D01*
X22562Y32684D01*
X22562Y32684D01*
G37*
G36*
X21692Y33184D02*
X21335Y33391D01*
X21689Y34004D01*
X22046Y33798D01*
X21692Y33184D01*
X21692Y33184D01*
G37*
G36*
X20832Y33684D02*
X20475Y33891D01*
X20829Y34504D01*
X21186Y34298D01*
X20832Y33684D01*
X20832Y33684D01*
G37*
G54D24*
X16500Y35251D03*
X15500Y35251D03*
X14500Y35251D03*
X13500Y35251D03*
G54D10*
G36*
X23422Y32184D02*
X23065Y32391D01*
X23419Y33004D01*
X23776Y32798D01*
X23422Y32184D01*
X23422Y32184D01*
G37*
G36*
X26391Y29065D02*
X26184Y29422D01*
X26798Y29776D01*
X27004Y29419D01*
X26391Y29065D01*
X26391Y29065D01*
G37*
G36*
X26891Y28205D02*
X26684Y28562D01*
X27298Y28916D01*
X27504Y28559D01*
X26891Y28205D01*
X26891Y28205D01*
G37*
G36*
X27391Y27335D02*
X27184Y27692D01*
X27798Y28046D01*
X28004Y27689D01*
X27391Y27335D01*
X27391Y27335D01*
G37*
G36*
X27891Y26475D02*
X27684Y26832D01*
X28298Y27186D01*
X28504Y26829D01*
X27891Y26475D01*
X27891Y26475D01*
G37*
G54D23*
X29251Y22500D03*
G54D10*
G36*
X20475Y8108D02*
X20832Y8315D01*
X21186Y7701D01*
X20829Y7495D01*
X20475Y8108D01*
X20475Y8108D01*
G37*
G54D23*
X29251Y20500D03*
X29251Y19500D03*
G54D10*
G36*
X27684Y15167D02*
X27891Y15524D01*
X28504Y15170D01*
X28298Y14813D01*
X27684Y15167D01*
X27684Y15167D01*
G37*
G36*
X27184Y14307D02*
X27391Y14664D01*
X28004Y14310D01*
X27798Y13953D01*
X27184Y14307D01*
X27184Y14307D01*
G37*
G36*
X26684Y13437D02*
X26891Y13794D01*
X27504Y13440D01*
X27298Y13083D01*
X26684Y13437D01*
X26684Y13437D01*
G37*
G36*
X26184Y12577D02*
X26391Y12934D01*
X27004Y12580D01*
X26798Y12223D01*
X26184Y12577D01*
X26184Y12577D01*
G37*
G36*
X23065Y9608D02*
X23422Y9815D01*
X23776Y9201D01*
X23419Y8995D01*
X23065Y9608D01*
X23065Y9608D01*
G37*
G36*
X22205Y9108D02*
X22562Y9315D01*
X22916Y8701D01*
X22559Y8495D01*
X22205Y9108D01*
X22205Y9108D01*
G37*
G36*
X21335Y8608D02*
X21692Y8815D01*
X22046Y8201D01*
X21689Y7995D01*
X21335Y8608D01*
X21335Y8608D01*
G37*
G54D24*
X16500Y6748D03*
X15500Y6748D03*
X14500Y6748D03*
X13500Y6748D03*
G54D10*
G36*
X9167Y8315D02*
X9524Y8108D01*
X9170Y7495D01*
X8813Y7701D01*
X9167Y8315D01*
X9167Y8315D01*
G37*
G54D23*
X29251Y21500D03*
G54D15*
X16102Y21895D03*
X16102Y22151D03*
X16102Y21639D03*
X16102Y21383D03*
X16102Y21127D03*
X16102Y20872D03*
X16102Y20616D03*
X16102Y20360D03*
X13897Y19848D03*
X13897Y20104D03*
X13897Y20360D03*
X13897Y20616D03*
X13897Y22151D03*
X13897Y21895D03*
X13897Y21639D03*
X13897Y21383D03*
X13897Y21127D03*
X13897Y20872D03*
X16102Y20104D03*
X16102Y19848D03*
M02*
