G04 (created by PCBNEW (2013-07-07 BZR 4022)-stable) date 11/9/2013 7:35:54 PM*
%MOIN*%
G04 Gerber Fmt 3.4, Leading zero omitted, Abs format*
%FSLAX34Y34*%
G01*
G70*
G90*
G04 APERTURE LIST*
%ADD10C,0.006*%
%ADD11C,0.005*%
G04 APERTURE END LIST*
G54D10*
G54D11*
X41000Y36000D02*
X41000Y37000D01*
X40000Y37000D02*
X32000Y37000D01*
X40000Y36000D02*
X40000Y37000D01*
X32000Y36000D02*
X40000Y36000D01*
X32000Y37000D02*
X32000Y36000D01*
X31000Y37000D02*
X31000Y36000D01*
X15500Y37000D02*
X31000Y37000D01*
X15500Y36000D02*
X15500Y37000D01*
X14500Y37000D02*
X14500Y36000D01*
X0Y37000D02*
X14500Y37000D01*
X0Y42000D02*
X0Y37000D01*
X41000Y42000D02*
X0Y42000D01*
X41000Y37000D02*
X41000Y42000D01*
X15500Y5000D02*
X15500Y6000D01*
X31000Y5000D02*
X15500Y5000D01*
X40000Y5000D02*
X32000Y5000D01*
X41000Y4500D02*
X41000Y6000D01*
X40000Y6000D02*
X40000Y5000D01*
X32000Y6000D02*
X40000Y6000D01*
X32000Y6000D02*
X32000Y5000D01*
X31000Y6000D02*
X31000Y5000D01*
X41000Y0D02*
X41000Y4500D01*
X0Y0D02*
X41000Y0D01*
X0Y5000D02*
X0Y0D01*
X14500Y5000D02*
X14500Y6000D01*
X0Y5000D02*
X14500Y5000D01*
X0Y21500D02*
X0Y20500D01*
X30000Y21500D02*
G75*
G03X15500Y36000I-14500J0D01*
G74*
G01*
X15500Y6000D02*
G75*
G03X30000Y20500I0J14500D01*
G74*
G01*
X14500Y36000D02*
G75*
G03X0Y21500I0J-14500D01*
G74*
G01*
X0Y20500D02*
G75*
G03X14500Y6000I14500J0D01*
G74*
G01*
X30000Y21500D02*
X31000Y21500D01*
X31000Y21500D02*
X31000Y36000D01*
X31000Y6000D02*
X31000Y20500D01*
X31000Y20500D02*
X30000Y20500D01*
X41000Y36000D02*
X41000Y6000D01*
M02*
