G04 #@! TF.FileFunction,Legend,Bot*
%FSLAX46Y46*%
G04 Gerber Fmt 4.6, Leading zero omitted, Abs format (unit mm)*
G04 Created by KiCad (PCBNEW (2016-08-13 BZR 7029, Git cc2b358)-product) date 08/14/16 16:23:59*
%MOMM*%
%LPD*%
G01*
G04 APERTURE LIST*
%ADD10C,0.100000*%
%ADD11C,0.150000*%
%ADD12C,0.180000*%
%ADD13C,0.080000*%
%ADD14R,1.270000X1.270000*%
%ADD15R,1.290000X3.070000*%
%ADD16R,0.720000X1.320000*%
G04 APERTURE END LIST*
D10*
D11*
X151890476Y-86750000D02*
X151966666Y-86721428D01*
X152080952Y-86721428D01*
X152195238Y-86750000D01*
X152271428Y-86807142D01*
X152309523Y-86864285D01*
X152347619Y-86978571D01*
X152347619Y-87064285D01*
X152309523Y-87178571D01*
X152271428Y-87235714D01*
X152195238Y-87292857D01*
X152080952Y-87321428D01*
X152004761Y-87321428D01*
X151890476Y-87292857D01*
X151852380Y-87264285D01*
X151852380Y-87064285D01*
X152004761Y-87064285D01*
X149759523Y-87321428D02*
X149759523Y-86721428D01*
X149569047Y-86721428D01*
X149454761Y-86750000D01*
X149378571Y-86807142D01*
X149340476Y-86864285D01*
X149302380Y-86978571D01*
X149302380Y-87064285D01*
X149340476Y-87178571D01*
X149378571Y-87235714D01*
X149454761Y-87292857D01*
X149569047Y-87321428D01*
X149759523Y-87321428D01*
X147266666Y-86721428D02*
X147000000Y-87321428D01*
X146733333Y-86721428D01*
D12*
X143992857Y-80638095D02*
X144030952Y-80752380D01*
X144069047Y-80790476D01*
X144145238Y-80828571D01*
X144259523Y-80828571D01*
X144335714Y-80790476D01*
X144373809Y-80752380D01*
X144411904Y-80676190D01*
X144411904Y-80371428D01*
X143611904Y-80371428D01*
X143611904Y-80638095D01*
X143650000Y-80714285D01*
X143688095Y-80752380D01*
X143764285Y-80790476D01*
X143840476Y-80790476D01*
X143916666Y-80752380D01*
X143954761Y-80714285D01*
X143992857Y-80638095D01*
X143992857Y-80371428D01*
X144411904Y-81514285D02*
X143992857Y-81514285D01*
X143916666Y-81476190D01*
X143878571Y-81400000D01*
X143878571Y-81247619D01*
X143916666Y-81171428D01*
X144373809Y-81514285D02*
X144411904Y-81438095D01*
X144411904Y-81247619D01*
X144373809Y-81171428D01*
X144297619Y-81133333D01*
X144221428Y-81133333D01*
X144145238Y-81171428D01*
X144107142Y-81247619D01*
X144107142Y-81438095D01*
X144069047Y-81514285D01*
X144373809Y-82238095D02*
X144411904Y-82161904D01*
X144411904Y-82009523D01*
X144373809Y-81933333D01*
X144335714Y-81895238D01*
X144259523Y-81857142D01*
X144030952Y-81857142D01*
X143954761Y-81895238D01*
X143916666Y-81933333D01*
X143878571Y-82009523D01*
X143878571Y-82161904D01*
X143916666Y-82238095D01*
X144411904Y-82580952D02*
X143611904Y-82580952D01*
X144107142Y-82657142D02*
X144411904Y-82885714D01*
X143878571Y-82885714D02*
X144183333Y-82580952D01*
X143878571Y-83228571D02*
X144678571Y-83228571D01*
X143916666Y-83228571D02*
X143878571Y-83304761D01*
X143878571Y-83457142D01*
X143916666Y-83533333D01*
X143954761Y-83571428D01*
X144030952Y-83609523D01*
X144259523Y-83609523D01*
X144335714Y-83571428D01*
X144373809Y-83533333D01*
X144411904Y-83457142D01*
X144411904Y-83304761D01*
X144373809Y-83228571D01*
X144411904Y-84295238D02*
X143992857Y-84295238D01*
X143916666Y-84257142D01*
X143878571Y-84180952D01*
X143878571Y-84028571D01*
X143916666Y-83952380D01*
X144373809Y-84295238D02*
X144411904Y-84219047D01*
X144411904Y-84028571D01*
X144373809Y-83952380D01*
X144297619Y-83914285D01*
X144221428Y-83914285D01*
X144145238Y-83952380D01*
X144107142Y-84028571D01*
X144107142Y-84219047D01*
X144069047Y-84295238D01*
X144373809Y-85019047D02*
X144411904Y-84942857D01*
X144411904Y-84790476D01*
X144373809Y-84714285D01*
X144335714Y-84676190D01*
X144259523Y-84638095D01*
X144030952Y-84638095D01*
X143954761Y-84676190D01*
X143916666Y-84714285D01*
X143878571Y-84790476D01*
X143878571Y-84942857D01*
X143916666Y-85019047D01*
X144411904Y-85361904D02*
X143611904Y-85361904D01*
X144107142Y-85438095D02*
X144411904Y-85666666D01*
X143878571Y-85666666D02*
X144183333Y-85361904D01*
X143211904Y-80359523D02*
X142411904Y-80359523D01*
X142411904Y-80550000D01*
X142450000Y-80664285D01*
X142526190Y-80740476D01*
X142602380Y-80778571D01*
X142754761Y-80816666D01*
X142869047Y-80816666D01*
X143021428Y-80778571D01*
X143097619Y-80740476D01*
X143173809Y-80664285D01*
X143211904Y-80550000D01*
X143211904Y-80359523D01*
X143211904Y-81159523D02*
X142411904Y-81159523D01*
X142792857Y-81159523D02*
X142792857Y-81616666D01*
X143211904Y-81616666D02*
X142411904Y-81616666D01*
X142411904Y-81883333D02*
X142411904Y-82340476D01*
X143211904Y-82111904D02*
X142411904Y-82111904D01*
X142907142Y-82607142D02*
X142907142Y-83216666D01*
X142488095Y-83559523D02*
X142450000Y-83597619D01*
X142411904Y-83673809D01*
X142411904Y-83864285D01*
X142450000Y-83940476D01*
X142488095Y-83978571D01*
X142564285Y-84016666D01*
X142640476Y-84016666D01*
X142754761Y-83978571D01*
X143211904Y-83521428D01*
X143211904Y-84016666D01*
X142488095Y-84321428D02*
X142450000Y-84359523D01*
X142411904Y-84435714D01*
X142411904Y-84626190D01*
X142450000Y-84702380D01*
X142488095Y-84740476D01*
X142564285Y-84778571D01*
X142640476Y-84778571D01*
X142754761Y-84740476D01*
X143211904Y-84283333D01*
X143211904Y-84778571D01*
X155388095Y-81478571D02*
X155350000Y-81516666D01*
X155311904Y-81592857D01*
X155311904Y-81783333D01*
X155350000Y-81859523D01*
X155388095Y-81897619D01*
X155464285Y-81935714D01*
X155540476Y-81935714D01*
X155654761Y-81897619D01*
X156111904Y-81440476D01*
X156111904Y-81935714D01*
X155311904Y-82430952D02*
X155311904Y-82507142D01*
X155350000Y-82583333D01*
X155388095Y-82621428D01*
X155464285Y-82659523D01*
X155616666Y-82697619D01*
X155807142Y-82697619D01*
X155959523Y-82659523D01*
X156035714Y-82621428D01*
X156073809Y-82583333D01*
X156111904Y-82507142D01*
X156111904Y-82430952D01*
X156073809Y-82354761D01*
X156035714Y-82316666D01*
X155959523Y-82278571D01*
X155807142Y-82240476D01*
X155616666Y-82240476D01*
X155464285Y-82278571D01*
X155388095Y-82316666D01*
X155350000Y-82354761D01*
X155311904Y-82430952D01*
X156111904Y-83459523D02*
X156111904Y-83002380D01*
X156111904Y-83230952D02*
X155311904Y-83230952D01*
X155426190Y-83154761D01*
X155502380Y-83078571D01*
X155540476Y-83002380D01*
X155311904Y-84145238D02*
X155311904Y-83992857D01*
X155350000Y-83916666D01*
X155388095Y-83878571D01*
X155502380Y-83802380D01*
X155654761Y-83764285D01*
X155959523Y-83764285D01*
X156035714Y-83802380D01*
X156073809Y-83840476D01*
X156111904Y-83916666D01*
X156111904Y-84069047D01*
X156073809Y-84145238D01*
X156035714Y-84183333D01*
X155959523Y-84221428D01*
X155769047Y-84221428D01*
X155692857Y-84183333D01*
X155654761Y-84145238D01*
X155616666Y-84069047D01*
X155616666Y-83916666D01*
X155654761Y-83840476D01*
X155692857Y-83802380D01*
X155769047Y-83764285D01*
X154733333Y-80438095D02*
X154733333Y-80819047D01*
X154961904Y-80361904D02*
X154161904Y-80628571D01*
X154961904Y-80895238D01*
X154885714Y-81161904D02*
X154923809Y-81200000D01*
X154961904Y-81161904D01*
X154923809Y-81123809D01*
X154885714Y-81161904D01*
X154961904Y-81161904D01*
X154200000Y-81961904D02*
X154161904Y-81885714D01*
X154161904Y-81771428D01*
X154200000Y-81657142D01*
X154276190Y-81580952D01*
X154352380Y-81542857D01*
X154504761Y-81504761D01*
X154619047Y-81504761D01*
X154771428Y-81542857D01*
X154847619Y-81580952D01*
X154923809Y-81657142D01*
X154961904Y-81771428D01*
X154961904Y-81847619D01*
X154923809Y-81961904D01*
X154885714Y-82000000D01*
X154619047Y-82000000D01*
X154619047Y-81847619D01*
X154961904Y-82342857D02*
X154428571Y-82342857D01*
X154161904Y-82342857D02*
X154200000Y-82304761D01*
X154238095Y-82342857D01*
X154200000Y-82380952D01*
X154161904Y-82342857D01*
X154238095Y-82342857D01*
X154961904Y-82838095D02*
X154923809Y-82761904D01*
X154847619Y-82723809D01*
X154161904Y-82723809D01*
X154961904Y-83257142D02*
X154923809Y-83180952D01*
X154847619Y-83142857D01*
X154161904Y-83142857D01*
X154961904Y-83904761D02*
X154542857Y-83904761D01*
X154466666Y-83866666D01*
X154428571Y-83790476D01*
X154428571Y-83638095D01*
X154466666Y-83561904D01*
X154923809Y-83904761D02*
X154961904Y-83828571D01*
X154961904Y-83638095D01*
X154923809Y-83561904D01*
X154847619Y-83523809D01*
X154771428Y-83523809D01*
X154695238Y-83561904D01*
X154657142Y-83638095D01*
X154657142Y-83828571D01*
X154619047Y-83904761D01*
X154961904Y-84285714D02*
X154428571Y-84285714D01*
X154580952Y-84285714D02*
X154504761Y-84323809D01*
X154466666Y-84361904D01*
X154428571Y-84438095D01*
X154428571Y-84514285D01*
X154961904Y-85123809D02*
X154161904Y-85123809D01*
X154923809Y-85123809D02*
X154961904Y-85047619D01*
X154961904Y-84895238D01*
X154923809Y-84819047D01*
X154885714Y-84780952D01*
X154809523Y-84742857D01*
X154580952Y-84742857D01*
X154504761Y-84780952D01*
X154466666Y-84819047D01*
X154428571Y-84895238D01*
X154428571Y-85047619D01*
X154466666Y-85123809D01*
D13*
X147040690Y-80474380D02*
X147040690Y-80188666D01*
X147040690Y-80331523D02*
X146540690Y-80331523D01*
X146612119Y-80283904D01*
X146659738Y-80236285D01*
X146683547Y-80188666D01*
X146540690Y-80783904D02*
X146540690Y-80831523D01*
X146564500Y-80879142D01*
X146588309Y-80902952D01*
X146635928Y-80926761D01*
X146731166Y-80950571D01*
X146850214Y-80950571D01*
X146945452Y-80926761D01*
X146993071Y-80902952D01*
X147016880Y-80879142D01*
X147040690Y-80831523D01*
X147040690Y-80783904D01*
X147016880Y-80736285D01*
X146993071Y-80712476D01*
X146945452Y-80688666D01*
X146850214Y-80664857D01*
X146731166Y-80664857D01*
X146635928Y-80688666D01*
X146588309Y-80712476D01*
X146564500Y-80736285D01*
X146540690Y-80783904D01*
X147040690Y-81164857D02*
X146540690Y-81164857D01*
X146850214Y-81212476D02*
X147040690Y-81355333D01*
X146707357Y-81355333D02*
X146897833Y-81164857D01*
%LPC*%
D14*
X145598500Y-82169000D03*
X148098500Y-82169000D03*
X153098500Y-82169000D03*
D15*
X149542500Y-81977500D03*
X147002500Y-85027500D03*
X152082500Y-85027500D03*
D16*
X145864500Y-80772000D03*
X147764500Y-80772000D03*
M02*
