G04 #@! TF.FileFunction,Legend,Top*
%FSLAX46Y46*%
G04 Gerber Fmt 4.6, Leading zero omitted, Abs format (unit mm)*
G04 Created by KiCad (PCBNEW (2016-08-13 BZR 7029, Git cc2b358)-product) date 08/14/16 16:23:59*
%MOMM*%
%LPD*%
G01*
G04 APERTURE LIST*
%ADD10C,0.100000*%
%ADD11C,0.150000*%
%ADD12C,0.200000*%
%ADD13C,0.080000*%
%ADD14R,1.270000X1.270000*%
G04 APERTURE END LIST*
D10*
D11*
X153166666Y-83633333D02*
X153266666Y-83666666D01*
X153433333Y-83666666D01*
X153500000Y-83633333D01*
X153533333Y-83600000D01*
X153566666Y-83533333D01*
X153566666Y-83466666D01*
X153533333Y-83400000D01*
X153500000Y-83366666D01*
X153433333Y-83333333D01*
X153300000Y-83300000D01*
X153233333Y-83266666D01*
X153200000Y-83233333D01*
X153166666Y-83166666D01*
X153166666Y-83100000D01*
X153200000Y-83033333D01*
X153233333Y-83000000D01*
X153300000Y-82966666D01*
X153466666Y-82966666D01*
X153566666Y-83000000D01*
X154133333Y-83633333D02*
X154066666Y-83666666D01*
X153933333Y-83666666D01*
X153866666Y-83633333D01*
X153833333Y-83566666D01*
X153833333Y-83300000D01*
X153866666Y-83233333D01*
X153933333Y-83200000D01*
X154066666Y-83200000D01*
X154133333Y-83233333D01*
X154166666Y-83300000D01*
X154166666Y-83366666D01*
X153833333Y-83433333D01*
X154466666Y-83200000D02*
X154466666Y-83666666D01*
X154466666Y-83266666D02*
X154500000Y-83233333D01*
X154566666Y-83200000D01*
X154666666Y-83200000D01*
X154733333Y-83233333D01*
X154766666Y-83300000D01*
X154766666Y-83666666D01*
X155066666Y-83633333D02*
X155133333Y-83666666D01*
X155266666Y-83666666D01*
X155333333Y-83633333D01*
X155366666Y-83566666D01*
X155366666Y-83533333D01*
X155333333Y-83466666D01*
X155266666Y-83433333D01*
X155166666Y-83433333D01*
X155100000Y-83400000D01*
X155066666Y-83333333D01*
X155066666Y-83300000D01*
X155100000Y-83233333D01*
X155166666Y-83200000D01*
X155266666Y-83200000D01*
X155333333Y-83233333D01*
X155766666Y-83666666D02*
X155700000Y-83633333D01*
X155666666Y-83600000D01*
X155633333Y-83533333D01*
X155633333Y-83333333D01*
X155666666Y-83266666D01*
X155700000Y-83233333D01*
X155766666Y-83200000D01*
X155866666Y-83200000D01*
X155933333Y-83233333D01*
X155966666Y-83266666D01*
X156000000Y-83333333D01*
X156000000Y-83533333D01*
X155966666Y-83600000D01*
X155933333Y-83633333D01*
X155866666Y-83666666D01*
X155766666Y-83666666D01*
X156300000Y-83666666D02*
X156300000Y-83200000D01*
X156300000Y-83333333D02*
X156333333Y-83266666D01*
X156366666Y-83233333D01*
X156433333Y-83200000D01*
X156500000Y-83200000D01*
X142133333Y-83466666D02*
X142466666Y-83466666D01*
X142066666Y-83666666D02*
X142300000Y-82966666D01*
X142533333Y-83666666D01*
X143066666Y-83200000D02*
X143066666Y-83766666D01*
X143033333Y-83833333D01*
X143000000Y-83866666D01*
X142933333Y-83900000D01*
X142833333Y-83900000D01*
X142766666Y-83866666D01*
X143066666Y-83633333D02*
X143000000Y-83666666D01*
X142866666Y-83666666D01*
X142800000Y-83633333D01*
X142766666Y-83600000D01*
X142733333Y-83533333D01*
X142733333Y-83333333D01*
X142766666Y-83266666D01*
X142800000Y-83233333D01*
X142866666Y-83200000D01*
X143000000Y-83200000D01*
X143066666Y-83233333D01*
X143700000Y-83666666D02*
X143700000Y-83300000D01*
X143666666Y-83233333D01*
X143600000Y-83200000D01*
X143466666Y-83200000D01*
X143400000Y-83233333D01*
X143700000Y-83633333D02*
X143633333Y-83666666D01*
X143466666Y-83666666D01*
X143400000Y-83633333D01*
X143366666Y-83566666D01*
X143366666Y-83500000D01*
X143400000Y-83433333D01*
X143466666Y-83400000D01*
X143633333Y-83400000D01*
X143700000Y-83366666D01*
X144033333Y-83666666D02*
X144033333Y-83200000D01*
X144033333Y-82966666D02*
X144000000Y-83000000D01*
X144033333Y-83033333D01*
X144066666Y-83000000D01*
X144033333Y-82966666D01*
X144033333Y-83033333D01*
X144366666Y-83200000D02*
X144366666Y-83666666D01*
X144366666Y-83266666D02*
X144400000Y-83233333D01*
X144466666Y-83200000D01*
X144566666Y-83200000D01*
X144633333Y-83233333D01*
X144666666Y-83300000D01*
X144666666Y-83666666D01*
X144966666Y-83633333D02*
X145033333Y-83666666D01*
X145166666Y-83666666D01*
X145233333Y-83633333D01*
X145266666Y-83566666D01*
X145266666Y-83533333D01*
X145233333Y-83466666D01*
X145166666Y-83433333D01*
X145066666Y-83433333D01*
X145000000Y-83400000D01*
X144966666Y-83333333D01*
X144966666Y-83300000D01*
X145000000Y-83233333D01*
X145066666Y-83200000D01*
X145166666Y-83200000D01*
X145233333Y-83233333D01*
X145466666Y-83200000D02*
X145733333Y-83200000D01*
X145566666Y-82966666D02*
X145566666Y-83566666D01*
X145600000Y-83633333D01*
X145666666Y-83666666D01*
X145733333Y-83666666D01*
D12*
X142452380Y-80152380D02*
X142909523Y-80152380D01*
X142680952Y-81152380D02*
X142680952Y-80152380D01*
X143176190Y-81152380D02*
X143176190Y-80152380D01*
X143519047Y-81152380D02*
X143519047Y-80628571D01*
X143480952Y-80533333D01*
X143404761Y-80485714D01*
X143290476Y-80485714D01*
X143214285Y-80533333D01*
X143176190Y-80580952D01*
X143900000Y-81152380D02*
X143900000Y-80485714D01*
X143900000Y-80152380D02*
X143861904Y-80200000D01*
X143900000Y-80247619D01*
X143938095Y-80200000D01*
X143900000Y-80152380D01*
X143900000Y-80247619D01*
X144242857Y-81104761D02*
X144319047Y-81152380D01*
X144471428Y-81152380D01*
X144547619Y-81104761D01*
X144585714Y-81009523D01*
X144585714Y-80961904D01*
X144547619Y-80866666D01*
X144471428Y-80819047D01*
X144357142Y-80819047D01*
X144280952Y-80771428D01*
X144242857Y-80676190D01*
X144242857Y-80628571D01*
X144280952Y-80533333D01*
X144357142Y-80485714D01*
X144471428Y-80485714D01*
X144547619Y-80533333D01*
X145500000Y-81104761D02*
X145614285Y-81152380D01*
X145804761Y-81152380D01*
X145880952Y-81104761D01*
X145919047Y-81057142D01*
X145957142Y-80961904D01*
X145957142Y-80866666D01*
X145919047Y-80771428D01*
X145880952Y-80723809D01*
X145804761Y-80676190D01*
X145652380Y-80628571D01*
X145576190Y-80580952D01*
X145538095Y-80533333D01*
X145500000Y-80438095D01*
X145500000Y-80342857D01*
X145538095Y-80247619D01*
X145576190Y-80200000D01*
X145652380Y-80152380D01*
X145842857Y-80152380D01*
X145957142Y-80200000D01*
X146300000Y-81152380D02*
X146300000Y-80485714D01*
X146300000Y-80152380D02*
X146261904Y-80200000D01*
X146300000Y-80247619D01*
X146338095Y-80200000D01*
X146300000Y-80152380D01*
X146300000Y-80247619D01*
X147023809Y-81152380D02*
X147023809Y-80152380D01*
X147023809Y-81104761D02*
X146947619Y-81152380D01*
X146795238Y-81152380D01*
X146719047Y-81104761D01*
X146680952Y-81057142D01*
X146642857Y-80961904D01*
X146642857Y-80676190D01*
X146680952Y-80580952D01*
X146719047Y-80533333D01*
X146795238Y-80485714D01*
X146947619Y-80485714D01*
X147023809Y-80533333D01*
X147709523Y-81104761D02*
X147633333Y-81152380D01*
X147480952Y-81152380D01*
X147404761Y-81104761D01*
X147366666Y-81009523D01*
X147366666Y-80628571D01*
X147404761Y-80533333D01*
X147480952Y-80485714D01*
X147633333Y-80485714D01*
X147709523Y-80533333D01*
X147747619Y-80628571D01*
X147747619Y-80723809D01*
X147366666Y-80819047D01*
X148585714Y-80152380D02*
X149042857Y-80152380D01*
X148814285Y-81152380D02*
X148814285Y-80152380D01*
X149423809Y-81152380D02*
X149347619Y-81104761D01*
X149309523Y-81057142D01*
X149271428Y-80961904D01*
X149271428Y-80676190D01*
X149309523Y-80580952D01*
X149347619Y-80533333D01*
X149423809Y-80485714D01*
X149538095Y-80485714D01*
X149614285Y-80533333D01*
X149652380Y-80580952D01*
X149690476Y-80676190D01*
X149690476Y-80961904D01*
X149652380Y-81057142D01*
X149614285Y-81104761D01*
X149538095Y-81152380D01*
X149423809Y-81152380D01*
X150909523Y-80628571D02*
X151023809Y-80676190D01*
X151061904Y-80723809D01*
X151100000Y-80819047D01*
X151100000Y-80961904D01*
X151061904Y-81057142D01*
X151023809Y-81104761D01*
X150947619Y-81152380D01*
X150642857Y-81152380D01*
X150642857Y-80152380D01*
X150909523Y-80152380D01*
X150985714Y-80200000D01*
X151023809Y-80247619D01*
X151061904Y-80342857D01*
X151061904Y-80438095D01*
X151023809Y-80533333D01*
X150985714Y-80580952D01*
X150909523Y-80628571D01*
X150642857Y-80628571D01*
X151747619Y-81104761D02*
X151671428Y-81152380D01*
X151519047Y-81152380D01*
X151442857Y-81104761D01*
X151404761Y-81009523D01*
X151404761Y-80628571D01*
X151442857Y-80533333D01*
X151519047Y-80485714D01*
X151671428Y-80485714D01*
X151747619Y-80533333D01*
X151785714Y-80628571D01*
X151785714Y-80723809D01*
X151404761Y-80819047D01*
X152738095Y-81152380D02*
X152738095Y-80152380D01*
X152738095Y-80628571D02*
X153195238Y-80628571D01*
X153195238Y-81152380D02*
X153195238Y-80152380D01*
X153576190Y-81152380D02*
X153576190Y-80485714D01*
X153576190Y-80152380D02*
X153538095Y-80200000D01*
X153576190Y-80247619D01*
X153614285Y-80200000D01*
X153576190Y-80152380D01*
X153576190Y-80247619D01*
X154300000Y-81152380D02*
X154300000Y-80152380D01*
X154300000Y-81104761D02*
X154223809Y-81152380D01*
X154071428Y-81152380D01*
X153995238Y-81104761D01*
X153957142Y-81057142D01*
X153919047Y-80961904D01*
X153919047Y-80676190D01*
X153957142Y-80580952D01*
X153995238Y-80533333D01*
X154071428Y-80485714D01*
X154223809Y-80485714D01*
X154300000Y-80533333D01*
X155023809Y-81152380D02*
X155023809Y-80152380D01*
X155023809Y-81104761D02*
X154947619Y-81152380D01*
X154795238Y-81152380D01*
X154719047Y-81104761D01*
X154680952Y-81057142D01*
X154642857Y-80961904D01*
X154642857Y-80676190D01*
X154680952Y-80580952D01*
X154719047Y-80533333D01*
X154795238Y-80485714D01*
X154947619Y-80485714D01*
X155023809Y-80533333D01*
X155709523Y-81104761D02*
X155633333Y-81152380D01*
X155480952Y-81152380D01*
X155404761Y-81104761D01*
X155366666Y-81009523D01*
X155366666Y-80628571D01*
X155404761Y-80533333D01*
X155480952Y-80485714D01*
X155633333Y-80485714D01*
X155709523Y-80533333D01*
X155747619Y-80628571D01*
X155747619Y-80723809D01*
X155366666Y-80819047D01*
X156090476Y-80485714D02*
X156090476Y-81152380D01*
X156090476Y-80580952D02*
X156128571Y-80533333D01*
X156204761Y-80485714D01*
X156319047Y-80485714D01*
X156395238Y-80533333D01*
X156433333Y-80628571D01*
X156433333Y-81152380D01*
D13*
X150023500Y-83659000D02*
X150023500Y-87509000D01*
X148673500Y-83659000D02*
X150023500Y-83659000D01*
X148673500Y-87509000D02*
X148673500Y-83659000D01*
X156998500Y-81389000D02*
X141698500Y-81389000D01*
D11*
X141698500Y-79809000D02*
X156998500Y-79809000D01*
X141698500Y-87509000D02*
X141698500Y-79809000D01*
X156998500Y-87509000D02*
X141698500Y-87509000D01*
X156998500Y-79809000D02*
X156998500Y-87509000D01*
D13*
X152593500Y-83659000D02*
X152593500Y-87509000D01*
X151243500Y-83659000D02*
X152593500Y-83659000D01*
X151243500Y-87509000D02*
X151243500Y-83659000D01*
X146103500Y-83659000D02*
X147453500Y-83659000D01*
X147453500Y-83659000D02*
X147453500Y-87509000D01*
X146103500Y-87509000D02*
X146103500Y-83659000D01*
%LPC*%
D14*
X145598500Y-82169000D03*
X148098500Y-82169000D03*
X153098500Y-82169000D03*
M02*
