G75*
%MOIN*%
%OFA0B0*%
%FSLAX24Y24*%
%IPPOS*%
%LPD*%
%AMOC8*
5,1,8,0,0,1.08239X$1,22.5*
%
%ADD10C,0.0100*%
%ADD11C,0.0120*%
%ADD12C,0.0070*%
%ADD13C,0.0050*%
%ADD14C,0.0130*%
%ADD15C,0.0060*%
%ADD16C,0.0080*%
%ADD17C,0.0110*%
%ADD18C,0.0190*%
%ADD19C,0.0000*%
%ADD20C,0.0040*%
%ADD21R,0.0118X0.0059*%
%ADD22R,0.0118X0.0118*%
%ADD23C,0.0030*%
%ADD24C,0.0028*%
%ADD25R,0.0276X0.0118*%
%ADD26C,0.0020*%
%ADD27C,0.0087*%
%ADD28R,0.0620X0.0240*%
D10*
X008844Y009700D02*
X034056Y009700D01*
X034095Y009702D01*
X034133Y009708D01*
X034170Y009717D01*
X034207Y009730D01*
X034242Y009747D01*
X034275Y009766D01*
X034306Y009789D01*
X034335Y009815D01*
X034361Y009844D01*
X034384Y009875D01*
X034403Y009908D01*
X034420Y009943D01*
X034433Y009980D01*
X034442Y010017D01*
X034448Y010055D01*
X034450Y010094D01*
X034450Y010700D01*
X035450Y011700D01*
X035450Y024600D01*
X034450Y025600D01*
X034450Y030100D01*
X033850Y030700D01*
X008844Y030700D01*
X008805Y030698D01*
X008767Y030692D01*
X008730Y030683D01*
X008693Y030670D01*
X008658Y030653D01*
X008625Y030634D01*
X008594Y030611D01*
X008565Y030585D01*
X008539Y030556D01*
X008516Y030525D01*
X008497Y030492D01*
X008480Y030457D01*
X008467Y030420D01*
X008458Y030383D01*
X008452Y030345D01*
X008450Y030306D01*
X008450Y010094D01*
X008452Y010055D01*
X008458Y010017D01*
X008467Y009980D01*
X008480Y009943D01*
X008497Y009908D01*
X008516Y009875D01*
X008539Y009844D01*
X008565Y009815D01*
X008594Y009789D01*
X008625Y009766D01*
X008658Y009747D01*
X008693Y009730D01*
X008730Y009717D01*
X008767Y009708D01*
X008805Y009702D01*
X008844Y009700D01*
X028400Y012150D02*
X028400Y012524D01*
X028587Y012710D01*
X028774Y012524D01*
X028774Y012150D01*
X029008Y012150D02*
X029008Y012710D01*
X029381Y012150D01*
X029381Y012710D01*
X029615Y012524D02*
X029615Y012150D01*
X029615Y012430D02*
X029989Y012430D01*
X029989Y012524D02*
X029989Y012150D01*
X030223Y012150D02*
X030223Y012710D01*
X029989Y012524D02*
X029802Y012710D01*
X029615Y012524D01*
X030223Y012150D02*
X030597Y012150D01*
X030831Y012243D02*
X030831Y012617D01*
X030924Y012710D01*
X031111Y012710D01*
X031205Y012617D01*
X031205Y012243D01*
X031111Y012150D01*
X030924Y012150D01*
X030831Y012243D01*
X031439Y012243D02*
X031439Y012617D01*
X031532Y012710D01*
X031719Y012710D01*
X031812Y012617D01*
X031812Y012430D02*
X031625Y012430D01*
X031812Y012430D02*
X031812Y012243D01*
X031719Y012150D01*
X031532Y012150D01*
X031439Y012243D01*
X032654Y012150D02*
X032841Y012150D01*
X032747Y012150D02*
X032747Y012710D01*
X032654Y012710D02*
X032841Y012710D01*
X033059Y012710D02*
X033433Y012150D01*
X033433Y012710D01*
X033059Y012710D02*
X033059Y012150D01*
X028774Y012430D02*
X028400Y012430D01*
X028554Y022350D02*
X028427Y022477D01*
X028427Y022730D01*
X028554Y022857D01*
X028807Y022857D01*
X028934Y022730D01*
X028934Y022477D01*
X028807Y022350D01*
X028554Y022350D01*
X028142Y022350D02*
X028142Y022730D01*
X028015Y022857D01*
X027635Y022857D01*
X027635Y022350D01*
X027361Y022350D02*
X027107Y022350D01*
X027234Y022350D02*
X027234Y022857D01*
X027107Y022857D01*
X027234Y023111D02*
X027234Y023237D01*
X026822Y022857D02*
X026822Y022350D01*
X026442Y022350D01*
X026315Y022477D01*
X026315Y022857D01*
X026030Y022857D02*
X025650Y022857D01*
X025523Y022730D01*
X025523Y022477D01*
X025650Y022350D01*
X026030Y022350D01*
X026030Y023111D01*
X025244Y022857D02*
X025117Y022857D01*
X024863Y022604D01*
X024863Y022857D02*
X024863Y022350D01*
X024579Y022350D02*
X024579Y022730D01*
X024452Y022857D01*
X024198Y022857D01*
X024198Y022604D02*
X024579Y022604D01*
X024579Y022350D02*
X024198Y022350D01*
X024072Y022477D01*
X024198Y022604D01*
X023802Y022477D02*
X023802Y022350D01*
X023676Y022350D01*
X023676Y022477D01*
X023802Y022477D01*
X023391Y022477D02*
X023264Y022350D01*
X023137Y022477D01*
X023011Y022350D01*
X022884Y022477D01*
X022884Y022857D01*
X022599Y022857D02*
X022599Y022477D01*
X022472Y022350D01*
X022345Y022477D01*
X022219Y022350D01*
X022092Y022477D01*
X022092Y022857D01*
X021807Y022857D02*
X021807Y022477D01*
X021680Y022350D01*
X021554Y022477D01*
X021427Y022350D01*
X021300Y022477D01*
X021300Y022857D01*
X023391Y022857D02*
X023391Y022477D01*
X029219Y022477D02*
X029219Y022350D01*
X029346Y022350D01*
X029346Y022477D01*
X029219Y022477D01*
X029615Y022477D02*
X029741Y022350D01*
X030122Y022350D01*
X030407Y022477D02*
X030533Y022350D01*
X030914Y022350D01*
X030407Y022477D02*
X030407Y022730D01*
X030533Y022857D01*
X030914Y022857D01*
X030122Y022857D02*
X029741Y022857D01*
X029615Y022730D01*
X029615Y022477D01*
X027529Y027236D02*
X027155Y027236D01*
X027155Y027796D01*
X026921Y027610D02*
X026921Y027236D01*
X026921Y027516D02*
X026548Y027516D01*
X026548Y027610D02*
X026735Y027796D01*
X026921Y027610D01*
X026548Y027610D02*
X026548Y027236D01*
X026127Y027236D02*
X026127Y027796D01*
X025940Y027796D02*
X026314Y027796D01*
X025722Y027796D02*
X025535Y027796D01*
X025628Y027796D02*
X025628Y027236D01*
X025535Y027236D02*
X025722Y027236D01*
X025301Y027329D02*
X025301Y027516D01*
X025114Y027516D01*
X024927Y027703D02*
X024927Y027329D01*
X025021Y027236D01*
X025207Y027236D01*
X025301Y027329D01*
X025301Y027703D02*
X025207Y027796D01*
X025021Y027796D01*
X024927Y027703D01*
X024709Y027796D02*
X024522Y027796D01*
X024615Y027796D02*
X024615Y027236D01*
X024522Y027236D02*
X024709Y027236D01*
X024288Y027329D02*
X024288Y027703D01*
X024195Y027796D01*
X023914Y027796D01*
X023914Y027236D01*
X024195Y027236D01*
X024288Y027329D01*
X017050Y028900D02*
X017052Y028920D01*
X017058Y028938D01*
X017067Y028956D01*
X017079Y028971D01*
X017094Y028983D01*
X017112Y028992D01*
X017130Y028998D01*
X017150Y029000D01*
X017170Y028998D01*
X017188Y028992D01*
X017206Y028983D01*
X017221Y028971D01*
X017233Y028956D01*
X017242Y028938D01*
X017248Y028920D01*
X017250Y028900D01*
X017248Y028880D01*
X017242Y028862D01*
X017233Y028844D01*
X017221Y028829D01*
X017206Y028817D01*
X017188Y028808D01*
X017170Y028802D01*
X017150Y028800D01*
X017130Y028802D01*
X017112Y028808D01*
X017094Y028817D01*
X017079Y028829D01*
X017067Y028844D01*
X017058Y028862D01*
X017052Y028880D01*
X017050Y028900D01*
X012155Y027023D02*
X012155Y022377D01*
X005954Y022377D01*
X005954Y027023D01*
X012155Y027023D01*
D11*
X019950Y027900D02*
X020400Y027450D01*
X023600Y027450D01*
X027800Y027450D02*
X031000Y027450D01*
X031450Y027900D01*
X032100Y027850D02*
X032450Y028200D01*
X032800Y027850D01*
X032100Y027850D01*
X032250Y027900D02*
X032450Y028100D01*
X032650Y027900D01*
X032350Y027900D01*
X032500Y028000D01*
X033150Y028200D02*
X033500Y027850D01*
X033850Y028200D01*
X033150Y028200D01*
X033300Y028150D02*
X033700Y028150D01*
X033500Y027950D01*
X033350Y028100D01*
X033550Y028100D01*
X033500Y028050D02*
X033500Y028000D01*
D12*
X033593Y028519D02*
X033266Y028846D01*
X033593Y028846D01*
X033675Y028765D01*
X033675Y028601D01*
X033593Y028519D01*
X033266Y028519D01*
X033185Y028601D01*
X033185Y028765D01*
X033266Y028846D01*
X032675Y028846D02*
X032675Y028519D01*
X032675Y028683D02*
X032185Y028683D01*
X032348Y028519D01*
X031675Y028519D02*
X031348Y028846D01*
X031266Y028846D01*
X031185Y028765D01*
X031185Y028601D01*
X031266Y028519D01*
X031675Y028519D02*
X031675Y028846D01*
X030675Y028765D02*
X030675Y028601D01*
X030593Y028519D01*
X030430Y028683D02*
X030430Y028765D01*
X030512Y028846D01*
X030593Y028846D01*
X030675Y028765D01*
X030430Y028765D02*
X030348Y028846D01*
X030266Y028846D01*
X030185Y028765D01*
X030185Y028601D01*
X030266Y028519D01*
X029675Y028765D02*
X029185Y028765D01*
X029430Y028519D01*
X029430Y028846D01*
X028675Y028765D02*
X028675Y028601D01*
X028593Y028519D01*
X028430Y028519D02*
X028348Y028683D01*
X028348Y028765D01*
X028430Y028846D01*
X028593Y028846D01*
X028675Y028765D01*
X028430Y028519D02*
X028185Y028519D01*
X028185Y028846D01*
X027675Y028765D02*
X027593Y028846D01*
X027512Y028846D01*
X027430Y028765D01*
X027430Y028519D01*
X027593Y028519D01*
X027675Y028601D01*
X027675Y028765D01*
X027430Y028519D02*
X027266Y028683D01*
X027185Y028846D01*
X026675Y028519D02*
X026593Y028519D01*
X026266Y028846D01*
X026185Y028846D01*
X026185Y028519D01*
X025075Y028601D02*
X024993Y028519D01*
X024912Y028519D01*
X024830Y028601D01*
X024830Y028765D01*
X024912Y028846D01*
X024993Y028846D01*
X025075Y028765D01*
X025075Y028601D01*
X024830Y028601D02*
X024748Y028519D01*
X024666Y028519D01*
X024585Y028601D01*
X024585Y028765D01*
X024666Y028846D01*
X024748Y028846D01*
X024830Y028765D01*
X024075Y028765D02*
X023993Y028846D01*
X023666Y028846D01*
X023585Y028765D01*
X023585Y028601D01*
X023666Y028519D01*
X023748Y028519D01*
X023830Y028601D01*
X023830Y028846D01*
X024075Y028765D02*
X024075Y028601D01*
X023993Y028519D01*
X023075Y028601D02*
X022993Y028519D01*
X022666Y028846D01*
X022993Y028846D01*
X023075Y028765D01*
X023075Y028601D01*
X022993Y028519D02*
X022666Y028519D01*
X022585Y028601D01*
X022585Y028765D01*
X022666Y028846D01*
X022075Y028846D02*
X022075Y028519D01*
X022075Y028683D02*
X021585Y028683D01*
X021748Y028519D01*
X022075Y028331D02*
X022075Y028004D01*
X022075Y028167D02*
X021585Y028167D01*
X021748Y028004D01*
X021075Y028004D02*
X021075Y028331D01*
X021075Y028167D02*
X020585Y028167D01*
X020748Y028004D01*
X020075Y028004D02*
X020075Y028331D01*
X020075Y028167D02*
X019585Y028167D01*
X019748Y028004D01*
X019666Y028519D02*
X019585Y028601D01*
X019585Y028765D01*
X019666Y028846D01*
X019748Y028846D01*
X019830Y028765D01*
X019912Y028846D01*
X019993Y028846D01*
X020075Y028765D01*
X020075Y028601D01*
X019993Y028519D01*
X019830Y028683D02*
X019830Y028765D01*
X020585Y028765D02*
X020666Y028846D01*
X020748Y028846D01*
X021075Y028519D01*
X021075Y028846D01*
X020585Y028765D02*
X020585Y028601D01*
X020666Y028519D01*
X022585Y028167D02*
X022748Y028004D01*
X022585Y028167D02*
X023075Y028167D01*
X023075Y028004D02*
X023075Y028331D01*
X035409Y030045D02*
X035409Y030535D01*
X035654Y030535D01*
X035736Y030454D01*
X035736Y030290D01*
X035654Y030208D01*
X035409Y030208D01*
X035925Y030208D02*
X036088Y030372D01*
X036170Y030372D01*
X036354Y030290D02*
X036354Y030127D01*
X036436Y030045D01*
X036599Y030045D01*
X036681Y030127D01*
X036681Y030290D01*
X036599Y030372D01*
X036436Y030372D01*
X036354Y030290D01*
X036314Y029875D02*
X036314Y029385D01*
X036641Y029385D01*
X036829Y029385D02*
X036993Y029385D01*
X036911Y029385D02*
X036911Y029712D01*
X036829Y029712D01*
X036911Y029875D02*
X036911Y029957D01*
X037033Y030045D02*
X036952Y030127D01*
X036952Y030454D01*
X036870Y030372D02*
X037033Y030372D01*
X037214Y030290D02*
X037214Y030127D01*
X037295Y030045D01*
X037459Y030045D01*
X037541Y030127D01*
X037541Y030290D01*
X037459Y030372D01*
X037295Y030372D01*
X037214Y030290D01*
X037729Y030372D02*
X037893Y030372D01*
X037811Y030454D02*
X037811Y030127D01*
X037893Y030045D01*
X037770Y029957D02*
X037770Y029875D01*
X037770Y029712D02*
X037770Y029385D01*
X037689Y029385D02*
X037852Y029385D01*
X038114Y029467D02*
X038196Y029385D01*
X038114Y029467D02*
X038114Y029794D01*
X038032Y029712D02*
X038196Y029712D01*
X038237Y029882D02*
X038318Y029882D01*
X038400Y029963D01*
X038400Y030372D01*
X038589Y030372D02*
X038589Y029882D01*
X038589Y030045D02*
X038834Y030045D01*
X038916Y030127D01*
X038916Y030290D01*
X038834Y030372D01*
X038589Y030372D01*
X038400Y030045D02*
X038155Y030045D01*
X038073Y030127D01*
X038073Y030372D01*
X037770Y029712D02*
X037689Y029712D01*
X037500Y029630D02*
X037500Y029385D01*
X037337Y029385D02*
X037337Y029630D01*
X037418Y029712D01*
X037500Y029630D01*
X037337Y029630D02*
X037255Y029712D01*
X037173Y029712D01*
X037173Y029385D01*
X038376Y029467D02*
X038376Y029630D01*
X038458Y029712D01*
X038621Y029712D01*
X038703Y029630D01*
X038703Y029548D01*
X038376Y029548D01*
X038376Y029467D02*
X038458Y029385D01*
X038621Y029385D01*
X038892Y029467D02*
X038892Y029630D01*
X038974Y029712D01*
X039219Y029712D01*
X039219Y029875D02*
X039219Y029385D01*
X038974Y029385D01*
X038892Y029467D01*
X039186Y030045D02*
X039104Y030127D01*
X039104Y030290D01*
X039186Y030372D01*
X039350Y030372D01*
X039431Y030290D01*
X039431Y030208D01*
X039104Y030208D01*
X039186Y030045D02*
X039350Y030045D01*
X040561Y030073D02*
X040561Y030563D01*
X040888Y030563D01*
X040725Y030318D02*
X040561Y030318D01*
X040561Y030073D02*
X040888Y030073D01*
X041077Y030154D02*
X041159Y030073D01*
X041404Y030073D01*
X041404Y030563D01*
X041404Y030399D02*
X041159Y030399D01*
X041077Y030318D01*
X041077Y030154D01*
X041592Y030073D02*
X041756Y030073D01*
X041674Y030073D02*
X041674Y030399D01*
X041592Y030399D01*
X041674Y030563D02*
X041674Y030645D01*
X041936Y030399D02*
X042100Y030399D01*
X042018Y030481D02*
X042018Y030154D01*
X042100Y030073D01*
X042280Y030073D02*
X042443Y030073D01*
X042362Y030073D02*
X042362Y030399D01*
X042280Y030399D01*
X042362Y030563D02*
X042362Y030645D01*
X042624Y030318D02*
X042624Y030154D01*
X042705Y030073D01*
X042869Y030073D01*
X042951Y030154D01*
X042951Y030318D01*
X042869Y030399D01*
X042705Y030399D01*
X042624Y030318D01*
X043139Y030399D02*
X043385Y030399D01*
X043466Y030318D01*
X043466Y030073D01*
X043139Y030073D02*
X043139Y030399D01*
X035925Y030372D02*
X035925Y030045D01*
X027121Y011925D02*
X027121Y011435D01*
X026794Y011925D01*
X026794Y011435D01*
X026614Y011435D02*
X026451Y011435D01*
X026532Y011435D02*
X026532Y011925D01*
X026451Y011925D02*
X026614Y011925D01*
X026262Y011925D02*
X026262Y011598D01*
X026098Y011435D01*
X025935Y011598D01*
X025935Y011925D01*
X025597Y011838D02*
X025597Y011512D01*
X025515Y011430D01*
X025270Y011430D01*
X025270Y011920D01*
X025515Y011920D01*
X025597Y011838D01*
X025081Y011920D02*
X025081Y011430D01*
X024754Y011920D01*
X024754Y011430D01*
X024565Y011512D02*
X024565Y011675D01*
X024402Y011675D01*
X024565Y011512D02*
X024484Y011430D01*
X024320Y011430D01*
X024238Y011512D01*
X024238Y011838D01*
X024320Y011920D01*
X024484Y011920D01*
X024565Y011838D01*
X023878Y011925D02*
X023878Y011598D01*
X023714Y011435D01*
X023551Y011598D01*
X023551Y011925D01*
X023362Y011925D02*
X023035Y011925D01*
X023035Y011680D01*
X023198Y011762D01*
X023280Y011762D01*
X023362Y011680D01*
X023362Y011517D01*
X023280Y011435D01*
X023117Y011435D01*
X023035Y011517D01*
D13*
X023995Y012395D02*
X023995Y012845D01*
X024220Y012845D01*
X024295Y012770D01*
X024295Y012620D01*
X024220Y012545D01*
X023995Y012545D01*
X024455Y012470D02*
X024530Y012395D01*
X024681Y012395D01*
X024756Y012470D01*
X024756Y012770D01*
X024681Y012845D01*
X024530Y012845D01*
X024455Y012770D01*
X024455Y012470D01*
X024916Y012395D02*
X025066Y012545D01*
X025216Y012395D01*
X025216Y012845D01*
X025376Y012845D02*
X025376Y012395D01*
X025676Y012395D01*
X025837Y012395D02*
X025837Y012845D01*
X026062Y012845D01*
X026137Y012770D01*
X026137Y012620D01*
X026062Y012545D01*
X025837Y012545D01*
X025987Y012545D02*
X026137Y012395D01*
X025526Y012620D02*
X025376Y012620D01*
X025376Y012845D02*
X025676Y012845D01*
X024916Y012845D02*
X024916Y012395D01*
X028156Y011663D02*
X028272Y011780D01*
X028389Y011663D01*
X028389Y011430D01*
X028524Y011488D02*
X028757Y011722D01*
X028757Y011488D01*
X028699Y011430D01*
X028582Y011430D01*
X028524Y011488D01*
X028524Y011722D01*
X028582Y011780D01*
X028699Y011780D01*
X028757Y011722D01*
X028389Y011605D02*
X028156Y011605D01*
X028156Y011663D02*
X028156Y011430D01*
X029156Y011430D02*
X029156Y011663D01*
X029272Y011780D01*
X029389Y011663D01*
X029389Y011430D01*
X029524Y011430D02*
X029757Y011430D01*
X029641Y011430D02*
X029641Y011780D01*
X029524Y011663D01*
X029389Y011605D02*
X029156Y011605D01*
X030156Y011605D02*
X030389Y011605D01*
X030389Y011663D02*
X030389Y011430D01*
X030524Y011430D02*
X030757Y011663D01*
X030757Y011722D01*
X030699Y011780D01*
X030582Y011780D01*
X030524Y011722D01*
X030389Y011663D02*
X030272Y011780D01*
X030156Y011663D01*
X030156Y011430D01*
X030524Y011430D02*
X030757Y011430D01*
X031156Y011430D02*
X031156Y011663D01*
X031272Y011780D01*
X031389Y011663D01*
X031389Y011430D01*
X031524Y011488D02*
X031582Y011430D01*
X031699Y011430D01*
X031757Y011488D01*
X031757Y011547D01*
X031699Y011605D01*
X031641Y011605D01*
X031699Y011605D02*
X031757Y011663D01*
X031757Y011722D01*
X031699Y011780D01*
X031582Y011780D01*
X031524Y011722D01*
X031389Y011605D02*
X031156Y011605D01*
X032156Y011605D02*
X032389Y011605D01*
X032389Y011663D02*
X032389Y011430D01*
X032524Y011605D02*
X032699Y011780D01*
X032699Y011430D01*
X032757Y011605D02*
X032524Y011605D01*
X032389Y011663D02*
X032272Y011780D01*
X032156Y011663D01*
X032156Y011430D01*
X033156Y011430D02*
X033156Y011663D01*
X033272Y011780D01*
X033389Y011663D01*
X033389Y011430D01*
X033524Y011488D02*
X033582Y011430D01*
X033699Y011430D01*
X033757Y011488D01*
X033757Y011605D01*
X033699Y011663D01*
X033641Y011663D01*
X033524Y011605D01*
X033524Y011780D01*
X033757Y011780D01*
X033389Y011605D02*
X033156Y011605D01*
X032950Y019290D02*
X032950Y019440D01*
X032950Y019365D02*
X032500Y019365D01*
X032500Y019290D02*
X032500Y019440D01*
X032575Y019596D02*
X032875Y019596D01*
X032950Y019672D01*
X032950Y019822D01*
X032875Y019897D01*
X032875Y020057D02*
X032950Y020132D01*
X032950Y020282D01*
X032875Y020357D01*
X032800Y020357D01*
X032725Y020282D01*
X032725Y020132D01*
X032650Y020057D01*
X032575Y020057D01*
X032500Y020132D01*
X032500Y020282D01*
X032575Y020357D01*
X032500Y020517D02*
X032500Y020742D01*
X032575Y020818D01*
X032725Y020818D01*
X032800Y020742D01*
X032800Y020517D01*
X032950Y020517D02*
X032500Y020517D01*
X032575Y019897D02*
X032500Y019822D01*
X032500Y019672D01*
X032575Y019596D01*
X020568Y020925D02*
X020568Y021195D01*
X020388Y021195D02*
X020388Y020925D01*
X020273Y020925D02*
X020093Y020925D01*
X020093Y021195D01*
X020273Y021195D01*
X020388Y021195D02*
X020568Y020925D01*
X020183Y021060D02*
X020093Y021060D01*
X019978Y021060D02*
X019798Y021060D01*
X019684Y021195D02*
X019504Y021195D01*
X019594Y021195D02*
X019594Y020925D01*
X019389Y020925D02*
X019209Y020925D01*
X019209Y021195D01*
X019389Y021195D01*
X019299Y021060D02*
X019209Y021060D01*
X019094Y021015D02*
X019094Y020970D01*
X019049Y020925D01*
X018959Y020925D01*
X018914Y020970D01*
X018959Y021060D02*
X019049Y021060D01*
X019094Y021015D01*
X019094Y021150D02*
X019049Y021195D01*
X018959Y021195D01*
X018914Y021150D01*
X018914Y021105D01*
X018959Y021060D01*
X018800Y020925D02*
X018620Y020925D01*
X018620Y021195D01*
X018800Y021195D01*
X018710Y021060D02*
X018620Y021060D01*
X018505Y021060D02*
X018505Y021150D01*
X018460Y021195D01*
X018325Y021195D01*
X018325Y020925D01*
X018325Y021015D02*
X018460Y021015D01*
X018505Y021060D01*
X018415Y021015D02*
X018505Y020925D01*
X017284Y022366D02*
X015441Y022366D01*
X015316Y022491D01*
X015316Y024334D01*
X017284Y024334D01*
X017284Y022366D01*
X015546Y022720D02*
X015548Y022742D01*
X015553Y022762D01*
X015563Y022782D01*
X015575Y022800D01*
X015590Y022815D01*
X015608Y022827D01*
X015628Y022837D01*
X015648Y022842D01*
X015670Y022844D01*
X015692Y022842D01*
X015712Y022837D01*
X015732Y022827D01*
X015750Y022815D01*
X015765Y022800D01*
X015777Y022782D01*
X015787Y022762D01*
X015792Y022742D01*
X015794Y022720D01*
X015792Y022698D01*
X015787Y022678D01*
X015777Y022658D01*
X015765Y022640D01*
X015750Y022625D01*
X015732Y022613D01*
X015712Y022603D01*
X015692Y022598D01*
X015670Y022596D01*
X015648Y022598D01*
X015628Y022603D01*
X015608Y022613D01*
X015590Y022625D01*
X015575Y022640D01*
X015563Y022658D01*
X015553Y022678D01*
X015548Y022698D01*
X015546Y022720D01*
X011962Y027450D02*
X010978Y027450D01*
X011344Y028284D02*
X010556Y028284D01*
X010556Y028363D01*
X009828Y028363D01*
X009828Y028953D01*
X009730Y028953D01*
X009730Y029347D01*
X009828Y029347D01*
X009828Y029937D01*
X010556Y029937D01*
X010556Y029859D01*
X011344Y029859D01*
X011344Y029937D01*
X012072Y029937D01*
X012072Y028363D01*
X011344Y028363D01*
X011344Y028441D01*
X010556Y028441D01*
X010556Y028363D01*
X011344Y028363D02*
X011344Y028284D01*
X010478Y029150D02*
X010480Y029193D01*
X010486Y029235D01*
X010496Y029277D01*
X010509Y029318D01*
X010526Y029358D01*
X010547Y029395D01*
X010571Y029431D01*
X010598Y029464D01*
X010628Y029495D01*
X010661Y029523D01*
X010696Y029548D01*
X010733Y029569D01*
X010772Y029587D01*
X010812Y029601D01*
X010854Y029612D01*
X010896Y029619D01*
X010939Y029622D01*
X010982Y029621D01*
X011025Y029616D01*
X011067Y029607D01*
X011108Y029595D01*
X011148Y029579D01*
X011186Y029559D01*
X011222Y029536D01*
X011256Y029509D01*
X011288Y029480D01*
X011316Y029448D01*
X011342Y029413D01*
X011364Y029377D01*
X011383Y029338D01*
X011398Y029298D01*
X011410Y029257D01*
X011418Y029214D01*
X011422Y029171D01*
X011422Y029129D01*
X011418Y029086D01*
X011410Y029043D01*
X011398Y029002D01*
X011383Y028962D01*
X011364Y028923D01*
X011342Y028887D01*
X011316Y028852D01*
X011288Y028820D01*
X011256Y028791D01*
X011222Y028764D01*
X011186Y028741D01*
X011148Y028721D01*
X011108Y028705D01*
X011067Y028693D01*
X011025Y028684D01*
X010982Y028679D01*
X010939Y028678D01*
X010896Y028681D01*
X010854Y028688D01*
X010812Y028699D01*
X010772Y028713D01*
X010733Y028731D01*
X010696Y028752D01*
X010661Y028777D01*
X010628Y028805D01*
X010598Y028836D01*
X010571Y028869D01*
X010547Y028905D01*
X010526Y028942D01*
X010509Y028982D01*
X010496Y029023D01*
X010486Y029065D01*
X010480Y029107D01*
X010478Y029150D01*
X010359Y029150D02*
X010361Y029198D01*
X010367Y029246D01*
X010377Y029293D01*
X010390Y029339D01*
X010408Y029384D01*
X010428Y029428D01*
X010453Y029470D01*
X010481Y029509D01*
X010511Y029546D01*
X010545Y029580D01*
X010582Y029612D01*
X010620Y029641D01*
X010661Y029666D01*
X010704Y029688D01*
X010749Y029706D01*
X010795Y029720D01*
X010842Y029731D01*
X010890Y029738D01*
X010938Y029741D01*
X010986Y029740D01*
X011034Y029735D01*
X011082Y029726D01*
X011128Y029714D01*
X011173Y029697D01*
X011217Y029677D01*
X011259Y029654D01*
X011299Y029627D01*
X011337Y029597D01*
X011372Y029564D01*
X011404Y029528D01*
X011434Y029490D01*
X011460Y029449D01*
X011482Y029406D01*
X011502Y029362D01*
X011517Y029317D01*
X011529Y029270D01*
X011537Y029222D01*
X011541Y029174D01*
X011541Y029126D01*
X011537Y029078D01*
X011529Y029030D01*
X011517Y028983D01*
X011502Y028938D01*
X011482Y028894D01*
X011460Y028851D01*
X011434Y028810D01*
X011404Y028772D01*
X011372Y028736D01*
X011337Y028703D01*
X011299Y028673D01*
X011259Y028646D01*
X011217Y028623D01*
X011173Y028603D01*
X011128Y028586D01*
X011082Y028574D01*
X011034Y028565D01*
X010986Y028560D01*
X010938Y028559D01*
X010890Y028562D01*
X010842Y028569D01*
X010795Y028580D01*
X010749Y028594D01*
X010704Y028612D01*
X010661Y028634D01*
X010620Y028659D01*
X010582Y028688D01*
X010545Y028720D01*
X010511Y028754D01*
X010481Y028791D01*
X010453Y028830D01*
X010428Y028872D01*
X010408Y028916D01*
X010390Y028961D01*
X010377Y029007D01*
X010367Y029054D01*
X010361Y029102D01*
X010359Y029150D01*
X010556Y029937D02*
X010556Y030016D01*
X011344Y030016D01*
X011344Y029937D01*
X008132Y030025D02*
X007999Y030025D01*
X008065Y030025D02*
X008065Y030292D01*
X007999Y030292D01*
X007851Y030292D02*
X007584Y030025D01*
X007851Y030025D01*
X007851Y030292D02*
X007584Y030292D01*
X007437Y030225D02*
X007437Y030025D01*
X007437Y030225D02*
X007370Y030292D01*
X007170Y030292D01*
X007170Y030025D01*
X007023Y030025D02*
X006822Y030025D01*
X006756Y030092D01*
X006822Y030158D01*
X007023Y030158D01*
X007023Y030225D02*
X007023Y030025D01*
X007023Y030225D02*
X006956Y030292D01*
X006822Y030292D01*
X006608Y030292D02*
X006542Y030225D01*
X006341Y030225D01*
X006201Y030092D02*
X006201Y030025D01*
X006134Y030025D01*
X006134Y030092D01*
X006201Y030092D01*
X006341Y030025D02*
X006542Y030025D01*
X006608Y030092D01*
X006608Y030158D01*
X006542Y030225D01*
X006608Y030292D02*
X006608Y030359D01*
X006542Y030425D01*
X006341Y030425D01*
X006341Y030025D01*
X006240Y029742D02*
X006240Y029675D01*
X006240Y029542D02*
X006240Y029275D01*
X006173Y029275D02*
X006307Y029275D01*
X006449Y029342D02*
X006449Y029475D01*
X006516Y029542D01*
X006650Y029542D01*
X006716Y029475D01*
X006716Y029408D01*
X006449Y029408D01*
X006449Y029342D02*
X006516Y029275D01*
X006650Y029275D01*
X006726Y029075D02*
X006859Y029075D01*
X006792Y029075D02*
X006792Y028675D01*
X006726Y028675D02*
X006859Y028675D01*
X007002Y028742D02*
X007069Y028675D01*
X007269Y028675D01*
X007269Y028608D02*
X007269Y028942D01*
X007069Y028942D01*
X007002Y028875D01*
X007002Y028742D01*
X007135Y028542D02*
X007202Y028542D01*
X007269Y028608D01*
X007207Y028492D02*
X007207Y028425D01*
X007207Y028292D02*
X007207Y028025D01*
X007140Y028025D02*
X007274Y028025D01*
X007416Y028025D02*
X007416Y028292D01*
X007616Y028292D01*
X007683Y028225D01*
X007683Y028025D01*
X007831Y028092D02*
X007831Y028225D01*
X007897Y028292D01*
X008031Y028292D01*
X008098Y028225D01*
X008098Y028092D01*
X008031Y028025D01*
X007897Y028025D01*
X007831Y028092D01*
X007621Y027842D02*
X007621Y027775D01*
X007621Y027642D02*
X007621Y027375D01*
X007554Y027375D02*
X007688Y027375D01*
X007831Y027375D02*
X008031Y027375D01*
X008098Y027442D01*
X008031Y027508D01*
X007897Y027508D01*
X007831Y027575D01*
X007897Y027642D01*
X008098Y027642D01*
X007621Y027642D02*
X007554Y027642D01*
X007345Y027775D02*
X007345Y027375D01*
X007278Y027375D02*
X007412Y027375D01*
X007135Y027375D02*
X007002Y027375D01*
X007069Y027375D02*
X007069Y027775D01*
X007002Y027775D01*
X006854Y027575D02*
X006854Y027508D01*
X006588Y027508D01*
X006588Y027442D02*
X006588Y027575D01*
X006654Y027642D01*
X006788Y027642D01*
X006854Y027575D01*
X006788Y027375D02*
X006654Y027375D01*
X006588Y027442D01*
X006440Y027375D02*
X006440Y027775D01*
X006307Y027642D01*
X006173Y027775D01*
X006173Y027375D01*
X006033Y027375D02*
X005966Y027375D01*
X005966Y027442D01*
X006033Y027442D01*
X006033Y027375D01*
X005819Y027442D02*
X005819Y027709D01*
X005752Y027775D01*
X005552Y027775D01*
X005552Y027375D01*
X005752Y027375D01*
X005819Y027442D01*
X005690Y028025D02*
X005690Y028425D01*
X005823Y028292D01*
X005957Y028425D01*
X005957Y028025D01*
X006104Y028092D02*
X006171Y028158D01*
X006371Y028158D01*
X006371Y028225D02*
X006371Y028025D01*
X006171Y028025D01*
X006104Y028092D01*
X006171Y028292D02*
X006304Y028292D01*
X006371Y028225D01*
X006519Y028158D02*
X006652Y028292D01*
X006719Y028292D01*
X006864Y028292D02*
X006997Y028292D01*
X006931Y028359D02*
X006931Y028092D01*
X006997Y028025D01*
X007140Y028292D02*
X007207Y028292D01*
X007483Y028675D02*
X007416Y028742D01*
X007416Y028875D01*
X007483Y028942D01*
X007616Y028942D01*
X007683Y028875D01*
X007683Y028742D01*
X007616Y028675D01*
X007483Y028675D01*
X007831Y028742D02*
X007831Y028875D01*
X007897Y028942D01*
X008031Y028942D01*
X008098Y028875D01*
X008098Y028808D01*
X007831Y028808D01*
X007831Y028742D02*
X007897Y028675D01*
X008031Y028675D01*
X008031Y029275D02*
X008098Y029342D01*
X008031Y029408D01*
X007897Y029408D01*
X007831Y029475D01*
X007897Y029542D01*
X008098Y029542D01*
X008031Y029275D02*
X007831Y029275D01*
X007683Y029408D02*
X007416Y029408D01*
X007416Y029342D02*
X007416Y029475D01*
X007483Y029542D01*
X007616Y029542D01*
X007683Y029475D01*
X007683Y029408D01*
X007616Y029275D02*
X007483Y029275D01*
X007416Y029342D01*
X007273Y029275D02*
X007140Y029275D01*
X007207Y029275D02*
X007207Y029675D01*
X007140Y029675D01*
X006931Y029675D02*
X006931Y029275D01*
X006997Y029275D02*
X006864Y029275D01*
X006864Y029675D02*
X006931Y029675D01*
X006240Y029542D02*
X006173Y029542D01*
X006030Y029542D02*
X005897Y029542D01*
X005964Y029609D02*
X005964Y029342D01*
X006030Y029275D01*
X006104Y029075D02*
X006371Y029075D01*
X006238Y029075D02*
X006238Y028675D01*
X006519Y028675D02*
X006585Y028675D01*
X006585Y028742D01*
X006519Y028742D01*
X006519Y028675D01*
X006519Y028292D02*
X006519Y028025D01*
X005549Y028025D02*
X005483Y028025D01*
X005483Y028092D01*
X005549Y028092D01*
X005549Y028025D01*
X005335Y028092D02*
X005335Y028225D01*
X005202Y028225D01*
X005335Y028092D02*
X005268Y028025D01*
X005135Y028025D01*
X005068Y028092D01*
X005068Y028359D01*
X005135Y028425D01*
X005268Y028425D01*
X005335Y028359D01*
X005404Y029275D02*
X005204Y029275D01*
X005137Y029342D01*
X005204Y029408D01*
X005404Y029408D01*
X005404Y029475D02*
X005404Y029275D01*
X005552Y029275D02*
X005552Y029542D01*
X005685Y029542D02*
X005752Y029542D01*
X005685Y029542D02*
X005552Y029408D01*
X005404Y029475D02*
X005338Y029542D01*
X005204Y029542D01*
X004990Y029542D02*
X004990Y029275D01*
X004790Y029275D01*
X004723Y029342D01*
X004723Y029542D01*
X004576Y029609D02*
X004509Y029675D01*
X004375Y029675D01*
X004309Y029609D01*
X004309Y029342D01*
X004375Y029275D01*
X004509Y029275D01*
X004576Y029342D01*
X004168Y029342D02*
X004168Y029275D01*
X004101Y029275D01*
X004101Y029342D01*
X004168Y029342D01*
X003954Y029342D02*
X003954Y029609D01*
X003887Y029675D01*
X003687Y029675D01*
X003687Y029275D01*
X003887Y029275D01*
X003954Y029342D01*
X005720Y030025D02*
X005720Y030425D01*
X005853Y030292D01*
X005987Y030425D01*
X005987Y030025D01*
X008065Y030425D02*
X008065Y030492D01*
X007345Y027775D02*
X007278Y027775D01*
X007740Y014540D02*
X007740Y011000D01*
X010800Y011000D01*
X009110Y011010D02*
X009110Y014540D01*
X007740Y014540D01*
X009110Y014540D02*
X013050Y014540D01*
X013050Y014000D01*
X013050Y011875D02*
X013050Y011000D01*
X012925Y011000D01*
D14*
X024515Y024765D02*
X024515Y025412D01*
X024839Y025736D01*
X025162Y025412D01*
X025162Y024765D01*
X025528Y024765D02*
X025528Y025412D01*
X025528Y025089D02*
X025851Y025412D01*
X026013Y025412D01*
X026372Y025250D02*
X026534Y025412D01*
X027019Y025412D01*
X027019Y025736D02*
X027019Y024765D01*
X026534Y024765D01*
X026372Y024927D01*
X026372Y025250D01*
X027385Y025412D02*
X027385Y024927D01*
X027547Y024765D01*
X028032Y024765D01*
X028032Y025412D01*
X028398Y025412D02*
X028559Y025412D01*
X028559Y024765D01*
X028398Y024765D02*
X028721Y024765D01*
X029073Y024765D02*
X029073Y025412D01*
X029558Y025412D01*
X029720Y025250D01*
X029720Y024765D01*
X030086Y024927D02*
X030248Y024765D01*
X030571Y024765D01*
X030733Y024927D01*
X030733Y025250D01*
X030571Y025412D01*
X030248Y025412D01*
X030086Y025250D01*
X030086Y024927D01*
X028559Y025736D02*
X028559Y025898D01*
X025162Y025250D02*
X024515Y025250D01*
D15*
X024580Y026680D02*
X024580Y027060D01*
X024707Y027060D01*
X024850Y026934D02*
X025040Y026934D01*
X025104Y026934D01*
X025104Y026807D02*
X024850Y026807D01*
X024913Y026680D02*
X024913Y027060D01*
X025040Y027060D02*
X025040Y026680D01*
X025255Y026807D02*
X025509Y026807D01*
X025509Y026934D02*
X025255Y026934D01*
X025660Y027060D02*
X025851Y027060D01*
X025914Y026997D01*
X025914Y026870D01*
X025851Y026807D01*
X025660Y026807D01*
X025660Y026680D02*
X025660Y027060D01*
X026066Y027060D02*
X026066Y026680D01*
X026192Y026807D01*
X026319Y026680D01*
X026319Y027060D01*
X026471Y027060D02*
X026471Y026680D01*
X026724Y026680D02*
X026724Y027060D01*
X026597Y026934D01*
X026471Y027060D01*
X026876Y027060D02*
X027003Y027060D01*
X027003Y026680D01*
X026876Y026680D01*
X024707Y026680D02*
X024580Y026680D01*
X023070Y027643D02*
X022690Y027643D01*
X022690Y027770D02*
X023070Y027770D01*
X022943Y027834D02*
X022943Y027580D01*
X022816Y027580D02*
X022816Y027770D01*
X022816Y027834D01*
X023640Y028143D02*
X024020Y028143D01*
X024020Y028270D02*
X023640Y028270D01*
X023766Y028270D02*
X023766Y028334D01*
X023766Y028270D02*
X023766Y028080D01*
X023893Y028080D02*
X023893Y028334D01*
X024100Y029200D02*
X023600Y029200D01*
X023350Y029450D01*
X023350Y029950D01*
X023600Y030200D01*
X024100Y030200D01*
X024350Y029950D01*
X024600Y030200D01*
X025100Y030200D01*
X025350Y029950D01*
X025350Y029450D01*
X025100Y029200D01*
X024600Y029200D01*
X024350Y029450D01*
X024100Y029200D01*
X024350Y029450D02*
X024350Y029950D01*
X023350Y029950D02*
X023100Y030200D01*
X022600Y030200D01*
X022350Y029950D01*
X022100Y030200D01*
X021600Y030200D01*
X021350Y029950D01*
X021100Y030200D01*
X020600Y030200D01*
X020350Y029950D01*
X020350Y029450D01*
X020600Y029200D01*
X021100Y029200D01*
X021350Y029450D01*
X021350Y029950D01*
X021350Y029450D02*
X021600Y029200D01*
X022100Y029200D01*
X022350Y029450D01*
X022350Y029950D01*
X022350Y029450D02*
X022600Y029200D01*
X023100Y029200D01*
X023350Y029450D01*
X021943Y027834D02*
X021943Y027580D01*
X021816Y027580D02*
X021816Y027770D01*
X021816Y027834D01*
X021690Y027770D02*
X022070Y027770D01*
X022070Y027643D02*
X021690Y027643D01*
X020100Y029200D02*
X019600Y029200D01*
X019350Y029450D01*
X019100Y029200D01*
X018600Y029200D01*
X018350Y029450D01*
X018100Y029200D01*
X017600Y029200D01*
X017350Y029450D01*
X017350Y029950D01*
X017600Y030200D01*
X018100Y030200D01*
X018350Y029950D01*
X018600Y030200D01*
X019100Y030200D01*
X019350Y029950D01*
X019600Y030200D01*
X020100Y030200D01*
X020350Y029950D01*
X019350Y029950D02*
X019350Y029450D01*
X019004Y028893D02*
X018670Y028893D01*
X018587Y028810D01*
X018587Y028560D01*
X019087Y028560D01*
X019087Y028810D01*
X019004Y028893D01*
X018350Y029450D02*
X018350Y029950D01*
X017350Y029950D02*
X017100Y030200D01*
X016600Y030200D01*
X016350Y029950D01*
X016100Y030200D01*
X015600Y030200D01*
X015350Y029950D01*
X015350Y029450D01*
X015600Y029200D01*
X016100Y029200D01*
X016350Y029450D01*
X016350Y029950D01*
X016350Y029450D02*
X016600Y029200D01*
X017100Y029200D01*
X017350Y029450D01*
X017541Y028903D02*
X017541Y028570D01*
X018042Y028570D01*
X018042Y028388D02*
X018042Y028054D01*
X017541Y028054D01*
X017541Y028388D01*
X017792Y028221D02*
X017792Y028054D01*
X017792Y027872D02*
X017875Y027788D01*
X017875Y027538D01*
X018042Y027538D02*
X017541Y027538D01*
X017541Y027788D01*
X017625Y027872D01*
X017792Y027872D01*
X017875Y027705D02*
X018042Y027872D01*
X018587Y027778D02*
X018587Y027612D01*
X018670Y027528D01*
X019004Y027528D01*
X019087Y027612D01*
X019087Y027778D01*
X019004Y027862D01*
X018837Y027862D01*
X018837Y027695D01*
X018670Y027862D02*
X018587Y027778D01*
X018587Y028044D02*
X019087Y028378D01*
X018587Y028378D01*
X018587Y028044D02*
X019087Y028044D01*
X018042Y027356D02*
X017708Y027356D01*
X017541Y027189D01*
X017708Y027023D01*
X018042Y027023D01*
X017792Y027023D02*
X017792Y027356D01*
X017150Y027150D02*
X016900Y026900D01*
X015400Y026900D01*
X015150Y026650D01*
X015150Y026150D01*
X015400Y025900D01*
X016900Y025900D01*
X017150Y026150D01*
X017150Y026650D01*
X016900Y026900D01*
X016400Y026900D01*
X016150Y027150D01*
X016150Y028650D01*
X015900Y028900D01*
X015400Y028900D01*
X015150Y028650D01*
X014900Y028900D01*
X014400Y028900D01*
X014150Y028650D01*
X014150Y027150D01*
X014400Y026900D01*
X014900Y026900D01*
X015150Y027150D01*
X015150Y028650D01*
X016150Y028650D02*
X016400Y028900D01*
X016900Y028900D01*
X017150Y028650D01*
X017150Y027150D01*
X016150Y027150D02*
X015900Y026900D01*
X015400Y026900D01*
X015150Y027150D01*
X015400Y025900D02*
X015150Y025650D01*
X015150Y025150D01*
X015400Y024900D01*
X016900Y024900D01*
X017150Y025150D01*
X017150Y025650D01*
X016900Y025900D01*
X017792Y028570D02*
X017792Y028736D01*
X020100Y029200D02*
X020350Y029450D01*
X017208Y030908D02*
X017125Y030825D01*
X017208Y030908D02*
X017208Y031075D01*
X017125Y031158D01*
X017041Y031158D01*
X016958Y031075D01*
X016958Y030908D01*
X016875Y030825D01*
X016791Y030825D01*
X016708Y030908D01*
X016708Y031075D01*
X016791Y031158D01*
X016708Y031340D02*
X016708Y031591D01*
X016791Y031674D01*
X017125Y031674D01*
X017208Y031591D01*
X017208Y031340D01*
X016708Y031340D01*
X016108Y031474D02*
X016108Y031641D01*
X016025Y031724D01*
X016108Y031906D02*
X016108Y032240D01*
X016108Y031906D02*
X015608Y031906D01*
X015691Y031724D02*
X015608Y031641D01*
X015608Y031474D01*
X015691Y031390D01*
X016025Y031390D01*
X016108Y031474D01*
X016025Y031208D02*
X016108Y031125D01*
X016108Y030958D01*
X016025Y030875D01*
X015858Y030958D02*
X015858Y031125D01*
X015941Y031208D01*
X016025Y031208D01*
X015858Y030958D02*
X015775Y030875D01*
X015691Y030875D01*
X015608Y030958D01*
X015608Y031125D01*
X015691Y031208D01*
X016708Y032023D02*
X016875Y032190D01*
X017208Y032190D01*
X016958Y032190D02*
X016958Y031856D01*
X016875Y031856D02*
X016708Y032023D01*
X016875Y031856D02*
X017208Y031856D01*
X025950Y029950D02*
X025950Y029450D01*
X026200Y029200D01*
X026700Y029200D01*
X026950Y029450D01*
X026950Y029950D01*
X026700Y030200D01*
X026200Y030200D01*
X025950Y029950D01*
X026950Y029950D02*
X027200Y030200D01*
X027700Y030200D01*
X027950Y029950D01*
X028200Y030200D01*
X028700Y030200D01*
X028950Y029950D01*
X029200Y030200D01*
X029700Y030200D01*
X029950Y029950D01*
X030200Y030200D01*
X030700Y030200D01*
X030950Y029950D01*
X031200Y030200D01*
X031700Y030200D01*
X031950Y029950D01*
X032200Y030200D01*
X032700Y030200D01*
X032950Y029950D01*
X033200Y030200D01*
X033700Y030200D01*
X033950Y029950D01*
X033950Y029450D01*
X033700Y029200D01*
X033200Y029200D01*
X032950Y029450D01*
X032700Y029200D01*
X032200Y029200D01*
X031950Y029450D01*
X031950Y029950D01*
X032950Y029950D02*
X032950Y029450D01*
X031950Y029450D02*
X031700Y029200D01*
X031200Y029200D01*
X030950Y029450D01*
X030700Y029200D01*
X030200Y029200D01*
X029950Y029450D01*
X029700Y029200D01*
X029200Y029200D01*
X028950Y029450D01*
X028950Y029950D01*
X029950Y029950D02*
X029950Y029450D01*
X028950Y029450D02*
X028700Y029200D01*
X028200Y029200D01*
X027950Y029450D01*
X027700Y029200D01*
X027200Y029200D01*
X026950Y029450D01*
X027950Y029450D02*
X027950Y029950D01*
X027543Y028334D02*
X027543Y028080D01*
X027416Y028080D02*
X027416Y028270D01*
X027416Y028334D01*
X027290Y028270D02*
X027670Y028270D01*
X027670Y028143D02*
X027290Y028143D01*
X028240Y028143D02*
X028620Y028143D01*
X028620Y028270D02*
X028240Y028270D01*
X028366Y028270D02*
X028366Y028334D01*
X028366Y028270D02*
X028366Y028080D01*
X028493Y028080D02*
X028493Y028334D01*
X030240Y028270D02*
X030620Y028270D01*
X030620Y028143D02*
X030240Y028143D01*
X030366Y028080D02*
X030366Y028270D01*
X030366Y028334D01*
X030493Y028334D02*
X030493Y028080D01*
X032218Y027684D02*
X032718Y027350D01*
X032718Y027684D02*
X032218Y027350D01*
X032218Y027168D02*
X032218Y026835D01*
X032218Y027002D02*
X032718Y027002D01*
X033220Y027080D02*
X033303Y027164D01*
X033470Y027164D01*
X033553Y027080D01*
X033553Y026830D01*
X033553Y026997D02*
X033720Y027164D01*
X033720Y027346D02*
X033220Y027679D01*
X033220Y027346D02*
X033720Y027679D01*
X033220Y027080D02*
X033220Y026830D01*
X033720Y026830D01*
X030950Y029450D02*
X030950Y029950D01*
X033250Y022200D02*
X034750Y022200D01*
X035000Y021950D01*
X035000Y021450D01*
X034750Y021200D01*
X033250Y021200D01*
X033000Y020950D01*
X033000Y020450D01*
X033250Y020200D01*
X033000Y019950D01*
X033000Y019450D01*
X033250Y019200D01*
X034750Y019200D01*
X035000Y019450D01*
X035000Y019950D01*
X034750Y020200D01*
X033250Y020200D01*
X034750Y020200D02*
X035000Y020450D01*
X035000Y020950D01*
X034750Y021200D01*
X033250Y021200D02*
X033000Y021450D01*
X033000Y021950D01*
X033250Y022200D01*
X034000Y017250D02*
X019400Y017250D01*
X019400Y015050D01*
X034000Y015050D01*
X034000Y015900D01*
X033970Y015902D01*
X033940Y015907D01*
X033911Y015916D01*
X033884Y015929D01*
X033858Y015944D01*
X033834Y015963D01*
X033813Y015984D01*
X033794Y016008D01*
X033779Y016034D01*
X033766Y016061D01*
X033757Y016090D01*
X033752Y016120D01*
X033750Y016150D01*
X033752Y016180D01*
X033757Y016210D01*
X033766Y016239D01*
X033779Y016266D01*
X033794Y016292D01*
X033813Y016316D01*
X033834Y016337D01*
X033858Y016356D01*
X033884Y016371D01*
X033911Y016384D01*
X033940Y016393D01*
X033970Y016398D01*
X034000Y016400D01*
X034000Y017250D01*
X033700Y011200D02*
X033200Y011200D01*
X032950Y010950D01*
X032950Y010450D01*
X033200Y010200D01*
X033700Y010200D01*
X033950Y010450D01*
X033950Y010950D01*
X033700Y011200D01*
X032950Y010950D02*
X032700Y011200D01*
X032200Y011200D01*
X031950Y010950D01*
X031950Y010450D01*
X032200Y010200D01*
X032700Y010200D01*
X032950Y010450D01*
X031950Y010450D02*
X031700Y010200D01*
X031200Y010200D01*
X030950Y010450D01*
X030700Y010200D01*
X030200Y010200D01*
X029950Y010450D01*
X029700Y010200D01*
X029200Y010200D01*
X028950Y010450D01*
X028700Y010200D01*
X028200Y010200D01*
X027950Y010450D01*
X027950Y010950D01*
X028200Y011200D01*
X028700Y011200D01*
X028950Y010950D01*
X029200Y011200D01*
X029700Y011200D01*
X029950Y010950D01*
X029950Y010450D01*
X029950Y010950D02*
X030200Y011200D01*
X030700Y011200D01*
X030950Y010950D01*
X031200Y011200D01*
X031700Y011200D01*
X031950Y010950D01*
X030950Y010950D02*
X030950Y010450D01*
X028950Y010450D02*
X028950Y010950D01*
X026950Y010950D02*
X026950Y010450D01*
X026700Y010200D01*
X026200Y010200D01*
X025950Y010450D01*
X025700Y010200D01*
X025200Y010200D01*
X024950Y010450D01*
X024700Y010200D01*
X024200Y010200D01*
X023950Y010450D01*
X023700Y010200D01*
X023200Y010200D01*
X022950Y010450D01*
X022700Y010200D01*
X022200Y010200D01*
X021950Y010450D01*
X021700Y010200D01*
X021200Y010200D01*
X020950Y010450D01*
X020700Y010200D01*
X020200Y010200D01*
X019950Y010450D01*
X019700Y010200D01*
X019200Y010200D01*
X018950Y010450D01*
X018950Y010950D01*
X019200Y011200D01*
X019700Y011200D01*
X019950Y010950D01*
X020200Y011200D01*
X020700Y011200D01*
X020950Y010950D01*
X020950Y010450D01*
X020950Y010950D02*
X021200Y011200D01*
X021700Y011200D01*
X021950Y010950D01*
X022200Y011200D01*
X022700Y011200D01*
X022950Y010950D01*
X023200Y011200D01*
X023700Y011200D01*
X023950Y010950D01*
X023950Y010450D01*
X023950Y010950D02*
X024200Y011200D01*
X024700Y011200D01*
X024950Y010950D01*
X025200Y011200D01*
X025700Y011200D01*
X025950Y010950D01*
X026200Y011200D01*
X026700Y011200D01*
X026950Y010950D01*
X025950Y010950D02*
X025950Y010450D01*
X024950Y010450D02*
X024950Y010950D01*
X022950Y010950D02*
X022950Y010450D01*
X021950Y010450D02*
X021950Y010950D01*
X022203Y011430D02*
X022120Y011513D01*
X022120Y011680D01*
X022203Y011764D01*
X022286Y011764D01*
X022370Y011680D01*
X022453Y011764D01*
X022537Y011764D01*
X022620Y011680D01*
X022620Y011513D01*
X022537Y011430D01*
X022370Y011597D02*
X022370Y011680D01*
X022453Y011946D02*
X022120Y011946D01*
X022453Y011946D02*
X022620Y012112D01*
X022453Y012279D01*
X022120Y012279D01*
X022203Y012461D02*
X022120Y012545D01*
X022120Y012711D01*
X022203Y012795D01*
X022286Y012795D01*
X022370Y012711D01*
X022453Y012795D01*
X022537Y012795D01*
X022620Y012711D01*
X022620Y012545D01*
X022537Y012461D01*
X022370Y012628D02*
X022370Y012711D01*
X021520Y012761D02*
X021520Y012595D01*
X021437Y012511D01*
X021270Y012595D02*
X021270Y012761D01*
X021353Y012845D01*
X021437Y012845D01*
X021520Y012761D01*
X021520Y013027D02*
X021520Y013361D01*
X021270Y013194D02*
X021270Y013027D01*
X021103Y012845D02*
X021020Y012761D01*
X021020Y012595D01*
X021103Y012511D01*
X021186Y012511D01*
X021270Y012595D01*
X021520Y012329D02*
X021520Y011996D01*
X021020Y011996D01*
X021020Y012329D01*
X021270Y012162D02*
X021270Y011996D01*
X021270Y011814D02*
X021353Y011730D01*
X021353Y011480D01*
X021353Y011647D02*
X021520Y011814D01*
X021270Y011814D02*
X021103Y011814D01*
X021020Y011730D01*
X021020Y011480D01*
X021520Y011480D01*
X020670Y011480D02*
X020670Y011647D01*
X020670Y011563D02*
X020170Y011563D01*
X020170Y011480D02*
X020170Y011647D01*
X020253Y011824D02*
X020587Y011824D01*
X020670Y011907D01*
X020670Y012074D01*
X020587Y012157D01*
X020253Y012157D01*
X020170Y012074D01*
X020170Y011907D01*
X020253Y011824D01*
X020170Y012339D02*
X020170Y012590D01*
X020253Y012673D01*
X020420Y012673D01*
X020503Y012590D01*
X020503Y012339D01*
X020670Y012339D02*
X020170Y012339D01*
X020503Y012506D02*
X020670Y012673D01*
X020670Y012855D02*
X020170Y012855D01*
X020170Y013189D01*
X020170Y013371D02*
X020170Y013704D01*
X020420Y013537D02*
X020420Y013371D01*
X020670Y013371D02*
X020170Y013371D01*
X020420Y013022D02*
X020420Y012855D01*
X020670Y012855D02*
X020670Y013189D01*
X021020Y013027D02*
X021520Y013027D01*
X021020Y013027D02*
X021020Y013361D01*
X021020Y013543D02*
X021020Y013876D01*
X021020Y013709D02*
X021520Y013709D01*
X017419Y015140D02*
X017419Y015177D01*
X017419Y015140D02*
X016781Y015140D01*
X016781Y015177D01*
X016781Y015494D02*
X016781Y015531D01*
X016781Y015869D02*
X016781Y015906D01*
X016781Y016223D02*
X016781Y016260D01*
X017419Y016260D01*
X017419Y016223D01*
X017419Y015906D02*
X017419Y015494D01*
X016462Y017060D02*
X015439Y017060D01*
X015419Y017062D01*
X015399Y017066D01*
X015381Y017074D01*
X015364Y017084D01*
X015348Y017097D01*
X015335Y017113D01*
X015325Y017130D01*
X015317Y017148D01*
X015313Y017168D01*
X015311Y017188D01*
X015311Y017226D01*
X015311Y017406D02*
X015311Y017482D01*
X015311Y017662D02*
X015311Y017738D01*
X015311Y017918D02*
X015311Y017994D01*
X015311Y018174D02*
X015311Y018211D01*
X015313Y018231D01*
X015317Y018251D01*
X015325Y018269D01*
X015335Y018286D01*
X015348Y018302D01*
X015364Y018315D01*
X015381Y018325D01*
X015399Y018333D01*
X015419Y018337D01*
X015439Y018339D01*
X016462Y018339D01*
X016482Y018337D01*
X016502Y018333D01*
X016520Y018325D01*
X016537Y018315D01*
X016553Y018302D01*
X016566Y018286D01*
X016576Y018269D01*
X016584Y018251D01*
X016588Y018231D01*
X016590Y018211D01*
X016590Y018174D01*
X016590Y017994D02*
X016590Y017918D01*
X016590Y017738D02*
X016590Y017662D01*
X016590Y017482D02*
X016590Y017406D01*
X016590Y017226D02*
X016590Y017172D01*
X016590Y017188D02*
X016588Y017168D01*
X016584Y017148D01*
X016576Y017130D01*
X016566Y017113D01*
X016553Y017097D01*
X016537Y017084D01*
X016520Y017074D01*
X016502Y017066D01*
X016482Y017062D01*
X016462Y017060D01*
X017250Y019100D02*
X014550Y019100D01*
X014491Y019102D01*
X014433Y019108D01*
X014374Y019117D01*
X014317Y019131D01*
X014261Y019148D01*
X014206Y019169D01*
X014152Y019193D01*
X014100Y019221D01*
X014050Y019252D01*
X014002Y019286D01*
X013957Y019323D01*
X013914Y019364D01*
X013873Y019407D01*
X013836Y019452D01*
X013802Y019500D01*
X013771Y019550D01*
X013743Y019602D01*
X013719Y019656D01*
X013698Y019711D01*
X013681Y019767D01*
X013667Y019824D01*
X013658Y019883D01*
X013652Y019941D01*
X013650Y020000D01*
X013652Y020059D01*
X013658Y020117D01*
X013667Y020176D01*
X013681Y020233D01*
X013698Y020289D01*
X013719Y020344D01*
X013743Y020398D01*
X013771Y020450D01*
X013802Y020500D01*
X013836Y020548D01*
X013873Y020593D01*
X013914Y020636D01*
X013957Y020677D01*
X014002Y020714D01*
X014050Y020748D01*
X014100Y020779D01*
X014152Y020807D01*
X014206Y020831D01*
X014261Y020852D01*
X014317Y020869D01*
X014374Y020883D01*
X014433Y020892D01*
X014491Y020898D01*
X014550Y020900D01*
X017250Y020900D01*
X017309Y020898D01*
X017367Y020892D01*
X017426Y020883D01*
X017483Y020869D01*
X017539Y020852D01*
X017594Y020831D01*
X017648Y020807D01*
X017700Y020779D01*
X017750Y020748D01*
X017798Y020714D01*
X017843Y020677D01*
X017886Y020636D01*
X017927Y020593D01*
X017964Y020548D01*
X017998Y020500D01*
X018029Y020450D01*
X018057Y020398D01*
X018081Y020344D01*
X018102Y020289D01*
X018119Y020233D01*
X018133Y020176D01*
X018142Y020117D01*
X018148Y020059D01*
X018150Y020000D01*
X018148Y019941D01*
X018142Y019883D01*
X018133Y019824D01*
X018119Y019767D01*
X018102Y019711D01*
X018081Y019656D01*
X018057Y019602D01*
X018029Y019550D01*
X017998Y019500D01*
X017964Y019452D01*
X017927Y019407D01*
X017886Y019364D01*
X017843Y019323D01*
X017798Y019286D01*
X017750Y019252D01*
X017700Y019221D01*
X017648Y019193D01*
X017594Y019169D01*
X017539Y019148D01*
X017483Y019131D01*
X017426Y019117D01*
X017367Y019108D01*
X017309Y019102D01*
X017250Y019100D01*
X018800Y020150D02*
X018800Y020750D01*
X018802Y020767D01*
X018806Y020784D01*
X018813Y020800D01*
X018823Y020814D01*
X018836Y020827D01*
X018850Y020837D01*
X018866Y020844D01*
X018883Y020848D01*
X018900Y020850D01*
X020000Y020850D01*
X020017Y020848D01*
X020034Y020844D01*
X020050Y020837D01*
X020064Y020827D01*
X020077Y020814D01*
X020087Y020800D01*
X020094Y020784D01*
X020098Y020767D01*
X020100Y020750D01*
X020100Y020150D01*
X020098Y020133D01*
X020094Y020116D01*
X020087Y020100D01*
X020077Y020086D01*
X020064Y020073D01*
X020050Y020063D01*
X020034Y020056D01*
X020017Y020052D01*
X020000Y020050D01*
X018900Y020050D01*
X018883Y020052D01*
X018866Y020056D01*
X018850Y020063D01*
X018836Y020073D01*
X018823Y020086D01*
X018813Y020100D01*
X018806Y020116D01*
X018802Y020133D01*
X018800Y020150D01*
X011800Y020710D02*
X011800Y019570D01*
X011500Y019570D01*
X011500Y020710D01*
X011800Y020710D01*
X019950Y010950D02*
X019950Y010450D01*
D16*
X017277Y010800D02*
X016874Y010406D01*
X016874Y011194D01*
X017277Y010800D01*
X012200Y015260D02*
X010800Y015260D01*
X010800Y017840D01*
X012200Y017840D01*
X012200Y015260D01*
X017659Y023030D02*
X017659Y023510D01*
X017899Y023510D01*
X017979Y023430D01*
X017979Y023270D01*
X017899Y023190D01*
X017659Y023190D01*
X017819Y023190D02*
X017979Y023030D01*
X018174Y023030D02*
X018495Y023510D01*
X018174Y023510D02*
X018495Y023030D01*
X018395Y023980D02*
X018074Y024460D01*
X017879Y024460D02*
X017559Y024460D01*
X017719Y024460D02*
X017719Y023980D01*
X018074Y023980D02*
X018395Y024460D01*
X018395Y026080D02*
X018074Y026080D01*
X018074Y026560D01*
X013797Y028097D02*
X013600Y027703D01*
X013403Y028097D01*
X013797Y028097D01*
X030740Y025810D02*
X030954Y025810D01*
X030847Y025810D02*
X030847Y025490D01*
X031108Y025490D02*
X031108Y025810D01*
X031215Y025704D01*
X031322Y025810D01*
X031322Y025490D01*
X032490Y024290D02*
X032490Y023970D01*
X032570Y023890D01*
X032730Y023890D01*
X032810Y023970D01*
X032810Y024290D01*
X032730Y024370D01*
X032570Y024370D01*
X032490Y024290D01*
X033006Y024370D02*
X033326Y023890D01*
X033326Y024370D01*
X033006Y024370D02*
X033006Y023890D01*
X032743Y021949D02*
X032743Y021529D01*
X032603Y021529D02*
X032883Y021529D01*
X032603Y021809D02*
X032743Y021949D01*
X031850Y020897D02*
X031653Y020503D01*
X032047Y020503D01*
X031850Y020897D01*
D17*
X024001Y031155D02*
X024001Y031746D01*
X023607Y031746D02*
X024001Y031155D01*
X023607Y031155D02*
X023607Y031746D01*
X023375Y031746D02*
X023178Y031746D01*
X023276Y031746D02*
X023276Y031155D01*
X023178Y031155D02*
X023375Y031155D01*
X022282Y031155D02*
X021889Y031155D01*
X021889Y031746D01*
X022282Y031746D01*
X022085Y031450D02*
X021889Y031450D01*
X021638Y031253D02*
X021638Y031647D01*
X021539Y031746D01*
X021244Y031746D01*
X021244Y031155D01*
X021539Y031155D01*
X021638Y031253D01*
X020993Y031155D02*
X020993Y031549D01*
X020796Y031746D01*
X020600Y031549D01*
X020600Y031155D01*
X020349Y031155D02*
X020349Y031746D01*
X020152Y031549D01*
X019955Y031746D01*
X019955Y031155D01*
X020600Y031450D02*
X020993Y031450D01*
X024455Y031205D02*
X024652Y031205D01*
X024553Y031205D02*
X024553Y031796D01*
X024455Y031796D02*
X024652Y031796D01*
X024885Y031796D02*
X025278Y031796D01*
X025082Y031796D02*
X025082Y031205D01*
X025529Y031205D02*
X025529Y031599D01*
X025726Y031796D01*
X025923Y031599D01*
X025923Y031205D01*
X026174Y031205D02*
X026567Y031205D01*
X026174Y031205D02*
X026174Y031796D01*
X025923Y031500D02*
X025529Y031500D01*
X026818Y031697D02*
X027015Y031500D01*
X027015Y031205D01*
X027015Y031500D02*
X027212Y031697D01*
X027212Y031796D01*
X026818Y031796D02*
X026818Y031697D01*
D18*
X027024Y024356D02*
X026847Y024179D01*
X026847Y023472D01*
X027024Y023295D01*
X027377Y023295D01*
X027554Y023472D01*
X027554Y024179D01*
X027377Y024356D01*
X027024Y024356D01*
X026403Y024356D02*
X026403Y023295D01*
X025696Y024356D01*
X025696Y023295D01*
X025252Y023472D02*
X025252Y024356D01*
X024545Y024356D02*
X024545Y023472D01*
X024722Y023295D01*
X025075Y023295D01*
X025252Y023472D01*
D19*
X033820Y023700D02*
X033822Y023750D01*
X033828Y023800D01*
X033838Y023849D01*
X033852Y023897D01*
X033869Y023944D01*
X033890Y023989D01*
X033915Y024033D01*
X033943Y024074D01*
X033975Y024113D01*
X034009Y024150D01*
X034046Y024184D01*
X034086Y024214D01*
X034128Y024241D01*
X034172Y024265D01*
X034218Y024286D01*
X034265Y024302D01*
X034313Y024315D01*
X034363Y024324D01*
X034412Y024329D01*
X034463Y024330D01*
X034513Y024327D01*
X034562Y024320D01*
X034611Y024309D01*
X034659Y024294D01*
X034705Y024276D01*
X034750Y024254D01*
X034793Y024228D01*
X034834Y024199D01*
X034873Y024167D01*
X034909Y024132D01*
X034941Y024094D01*
X034971Y024054D01*
X034998Y024011D01*
X035021Y023967D01*
X035040Y023921D01*
X035056Y023873D01*
X035068Y023824D01*
X035076Y023775D01*
X035080Y023725D01*
X035080Y023675D01*
X035076Y023625D01*
X035068Y023576D01*
X035056Y023527D01*
X035040Y023479D01*
X035021Y023433D01*
X034998Y023389D01*
X034971Y023346D01*
X034941Y023306D01*
X034909Y023268D01*
X034873Y023233D01*
X034834Y023201D01*
X034793Y023172D01*
X034750Y023146D01*
X034705Y023124D01*
X034659Y023106D01*
X034611Y023091D01*
X034562Y023080D01*
X034513Y023073D01*
X034463Y023070D01*
X034412Y023071D01*
X034363Y023076D01*
X034313Y023085D01*
X034265Y023098D01*
X034218Y023114D01*
X034172Y023135D01*
X034128Y023159D01*
X034086Y023186D01*
X034046Y023216D01*
X034009Y023250D01*
X033975Y023287D01*
X033943Y023326D01*
X033915Y023367D01*
X033890Y023411D01*
X033869Y023456D01*
X033852Y023503D01*
X033838Y023551D01*
X033828Y023600D01*
X033822Y023650D01*
X033820Y023700D01*
X013820Y029700D02*
X013822Y029750D01*
X013828Y029800D01*
X013838Y029849D01*
X013852Y029897D01*
X013869Y029944D01*
X013890Y029989D01*
X013915Y030033D01*
X013943Y030074D01*
X013975Y030113D01*
X014009Y030150D01*
X014046Y030184D01*
X014086Y030214D01*
X014128Y030241D01*
X014172Y030265D01*
X014218Y030286D01*
X014265Y030302D01*
X014313Y030315D01*
X014363Y030324D01*
X014412Y030329D01*
X014463Y030330D01*
X014513Y030327D01*
X014562Y030320D01*
X014611Y030309D01*
X014659Y030294D01*
X014705Y030276D01*
X014750Y030254D01*
X014793Y030228D01*
X014834Y030199D01*
X014873Y030167D01*
X014909Y030132D01*
X014941Y030094D01*
X014971Y030054D01*
X014998Y030011D01*
X015021Y029967D01*
X015040Y029921D01*
X015056Y029873D01*
X015068Y029824D01*
X015076Y029775D01*
X015080Y029725D01*
X015080Y029675D01*
X015076Y029625D01*
X015068Y029576D01*
X015056Y029527D01*
X015040Y029479D01*
X015021Y029433D01*
X014998Y029389D01*
X014971Y029346D01*
X014941Y029306D01*
X014909Y029268D01*
X014873Y029233D01*
X014834Y029201D01*
X014793Y029172D01*
X014750Y029146D01*
X014705Y029124D01*
X014659Y029106D01*
X014611Y029091D01*
X014562Y029080D01*
X014513Y029073D01*
X014463Y029070D01*
X014412Y029071D01*
X014363Y029076D01*
X014313Y029085D01*
X014265Y029098D01*
X014218Y029114D01*
X014172Y029135D01*
X014128Y029159D01*
X014086Y029186D01*
X014046Y029216D01*
X014009Y029250D01*
X013975Y029287D01*
X013943Y029326D01*
X013915Y029367D01*
X013890Y029411D01*
X013869Y029456D01*
X013852Y029503D01*
X013838Y029551D01*
X013828Y029600D01*
X013822Y029650D01*
X013820Y029700D01*
X033820Y012700D02*
X033822Y012750D01*
X033828Y012800D01*
X033838Y012849D01*
X033852Y012897D01*
X033869Y012944D01*
X033890Y012989D01*
X033915Y013033D01*
X033943Y013074D01*
X033975Y013113D01*
X034009Y013150D01*
X034046Y013184D01*
X034086Y013214D01*
X034128Y013241D01*
X034172Y013265D01*
X034218Y013286D01*
X034265Y013302D01*
X034313Y013315D01*
X034363Y013324D01*
X034412Y013329D01*
X034463Y013330D01*
X034513Y013327D01*
X034562Y013320D01*
X034611Y013309D01*
X034659Y013294D01*
X034705Y013276D01*
X034750Y013254D01*
X034793Y013228D01*
X034834Y013199D01*
X034873Y013167D01*
X034909Y013132D01*
X034941Y013094D01*
X034971Y013054D01*
X034998Y013011D01*
X035021Y012967D01*
X035040Y012921D01*
X035056Y012873D01*
X035068Y012824D01*
X035076Y012775D01*
X035080Y012725D01*
X035080Y012675D01*
X035076Y012625D01*
X035068Y012576D01*
X035056Y012527D01*
X035040Y012479D01*
X035021Y012433D01*
X034998Y012389D01*
X034971Y012346D01*
X034941Y012306D01*
X034909Y012268D01*
X034873Y012233D01*
X034834Y012201D01*
X034793Y012172D01*
X034750Y012146D01*
X034705Y012124D01*
X034659Y012106D01*
X034611Y012091D01*
X034562Y012080D01*
X034513Y012073D01*
X034463Y012070D01*
X034412Y012071D01*
X034363Y012076D01*
X034313Y012085D01*
X034265Y012098D01*
X034218Y012114D01*
X034172Y012135D01*
X034128Y012159D01*
X034086Y012186D01*
X034046Y012216D01*
X034009Y012250D01*
X033975Y012287D01*
X033943Y012326D01*
X033915Y012367D01*
X033890Y012411D01*
X033869Y012456D01*
X033852Y012503D01*
X033838Y012551D01*
X033828Y012600D01*
X033822Y012650D01*
X033820Y012700D01*
X013320Y010700D02*
X013322Y010750D01*
X013328Y010800D01*
X013338Y010849D01*
X013352Y010897D01*
X013369Y010944D01*
X013390Y010989D01*
X013415Y011033D01*
X013443Y011074D01*
X013475Y011113D01*
X013509Y011150D01*
X013546Y011184D01*
X013586Y011214D01*
X013628Y011241D01*
X013672Y011265D01*
X013718Y011286D01*
X013765Y011302D01*
X013813Y011315D01*
X013863Y011324D01*
X013912Y011329D01*
X013963Y011330D01*
X014013Y011327D01*
X014062Y011320D01*
X014111Y011309D01*
X014159Y011294D01*
X014205Y011276D01*
X014250Y011254D01*
X014293Y011228D01*
X014334Y011199D01*
X014373Y011167D01*
X014409Y011132D01*
X014441Y011094D01*
X014471Y011054D01*
X014498Y011011D01*
X014521Y010967D01*
X014540Y010921D01*
X014556Y010873D01*
X014568Y010824D01*
X014576Y010775D01*
X014580Y010725D01*
X014580Y010675D01*
X014576Y010625D01*
X014568Y010576D01*
X014556Y010527D01*
X014540Y010479D01*
X014521Y010433D01*
X014498Y010389D01*
X014471Y010346D01*
X014441Y010306D01*
X014409Y010268D01*
X014373Y010233D01*
X014334Y010201D01*
X014293Y010172D01*
X014250Y010146D01*
X014205Y010124D01*
X014159Y010106D01*
X014111Y010091D01*
X014062Y010080D01*
X014013Y010073D01*
X013963Y010070D01*
X013912Y010071D01*
X013863Y010076D01*
X013813Y010085D01*
X013765Y010098D01*
X013718Y010114D01*
X013672Y010135D01*
X013628Y010159D01*
X013586Y010186D01*
X013546Y010216D01*
X013509Y010250D01*
X013475Y010287D01*
X013443Y010326D01*
X013415Y010367D01*
X013390Y010411D01*
X013369Y010456D01*
X013352Y010503D01*
X013338Y010551D01*
X013328Y010600D01*
X013322Y010650D01*
X013320Y010700D01*
D20*
X014420Y012020D02*
X014420Y013910D01*
X015090Y014580D01*
X015326Y014580D01*
X016074Y014580D02*
X016310Y014580D01*
X016980Y013910D01*
X016980Y012020D01*
X016074Y012020D01*
X016060Y011550D02*
X017840Y011550D01*
X018126Y012020D02*
X017220Y012020D01*
X017220Y013910D01*
X017890Y014580D01*
X018126Y014580D01*
X018874Y014580D02*
X019110Y014580D01*
X019780Y013910D01*
X019780Y012020D01*
X018874Y012020D01*
X018874Y012139D02*
X018938Y012161D01*
X019001Y012188D01*
X019063Y012218D01*
X019122Y012251D01*
X019180Y012287D01*
X019236Y012327D01*
X019289Y012370D01*
X019340Y012415D01*
X019388Y012463D01*
X019433Y012514D01*
X019476Y012568D01*
X019515Y012624D01*
X019552Y012681D01*
X019585Y012741D01*
X019614Y012803D01*
X019640Y012866D01*
X019663Y012930D01*
X019682Y012996D01*
X019697Y013063D01*
X019708Y013130D01*
X019716Y013198D01*
X019720Y013266D01*
X019720Y013334D01*
X019716Y013402D01*
X019708Y013470D01*
X019697Y013537D01*
X019682Y013604D01*
X019663Y013670D01*
X019640Y013734D01*
X019614Y013797D01*
X019585Y013859D01*
X019552Y013919D01*
X019515Y013976D01*
X019476Y014032D01*
X019433Y014086D01*
X019388Y014137D01*
X019340Y014185D01*
X019289Y014230D01*
X019236Y014273D01*
X019180Y014313D01*
X019122Y014349D01*
X019063Y014382D01*
X019001Y014412D01*
X018938Y014439D01*
X018874Y014461D01*
X018126Y014461D02*
X018062Y014439D01*
X017999Y014412D01*
X017937Y014382D01*
X017878Y014349D01*
X017820Y014313D01*
X017764Y014273D01*
X017711Y014230D01*
X017660Y014185D01*
X017612Y014137D01*
X017567Y014086D01*
X017524Y014032D01*
X017485Y013976D01*
X017448Y013919D01*
X017415Y013859D01*
X017386Y013797D01*
X017360Y013734D01*
X017337Y013670D01*
X017318Y013604D01*
X017303Y013537D01*
X017292Y013470D01*
X017284Y013402D01*
X017280Y013334D01*
X017280Y013266D01*
X017284Y013198D01*
X017292Y013130D01*
X017303Y013063D01*
X017318Y012996D01*
X017337Y012930D01*
X017360Y012866D01*
X017386Y012803D01*
X017415Y012741D01*
X017448Y012681D01*
X017485Y012624D01*
X017524Y012568D01*
X017567Y012514D01*
X017612Y012463D01*
X017660Y012415D01*
X017711Y012370D01*
X017764Y012327D01*
X017820Y012287D01*
X017878Y012251D01*
X017937Y012218D01*
X017999Y012188D01*
X018062Y012161D01*
X018126Y012139D01*
X015326Y012139D02*
X015262Y012161D01*
X015199Y012188D01*
X015137Y012218D01*
X015078Y012251D01*
X015020Y012287D01*
X014964Y012327D01*
X014911Y012370D01*
X014860Y012415D01*
X014812Y012463D01*
X014767Y012514D01*
X014724Y012568D01*
X014685Y012624D01*
X014648Y012681D01*
X014615Y012741D01*
X014586Y012803D01*
X014560Y012866D01*
X014537Y012930D01*
X014518Y012996D01*
X014503Y013063D01*
X014492Y013130D01*
X014484Y013198D01*
X014480Y013266D01*
X014480Y013334D01*
X014484Y013402D01*
X014492Y013470D01*
X014503Y013537D01*
X014518Y013604D01*
X014537Y013670D01*
X014560Y013734D01*
X014586Y013797D01*
X014615Y013859D01*
X014648Y013919D01*
X014685Y013976D01*
X014724Y014032D01*
X014767Y014086D01*
X014812Y014137D01*
X014860Y014185D01*
X014911Y014230D01*
X014964Y014273D01*
X015020Y014313D01*
X015078Y014349D01*
X015137Y014382D01*
X015199Y014412D01*
X015262Y014439D01*
X015326Y014461D01*
X016074Y014461D02*
X016138Y014439D01*
X016201Y014412D01*
X016263Y014382D01*
X016322Y014349D01*
X016380Y014313D01*
X016436Y014273D01*
X016489Y014230D01*
X016540Y014185D01*
X016588Y014137D01*
X016633Y014086D01*
X016676Y014032D01*
X016715Y013976D01*
X016752Y013919D01*
X016785Y013859D01*
X016814Y013797D01*
X016840Y013734D01*
X016863Y013670D01*
X016882Y013604D01*
X016897Y013537D01*
X016908Y013470D01*
X016916Y013402D01*
X016920Y013334D01*
X016920Y013266D01*
X016916Y013198D01*
X016908Y013130D01*
X016897Y013063D01*
X016882Y012996D01*
X016863Y012930D01*
X016840Y012866D01*
X016814Y012803D01*
X016785Y012741D01*
X016752Y012681D01*
X016715Y012624D01*
X016676Y012568D01*
X016633Y012514D01*
X016588Y012463D01*
X016540Y012415D01*
X016489Y012370D01*
X016436Y012327D01*
X016380Y012287D01*
X016322Y012251D01*
X016263Y012218D01*
X016201Y012188D01*
X016138Y012161D01*
X016074Y012139D01*
X015326Y012020D02*
X014420Y012020D01*
X016060Y010050D02*
X017840Y010050D01*
X013180Y015211D02*
X013180Y015398D01*
X013180Y015304D02*
X012900Y015304D01*
X012993Y015211D01*
X012950Y016062D02*
X012903Y016109D01*
X012903Y016202D01*
X012950Y016249D01*
X012997Y016249D01*
X013184Y016062D01*
X013184Y016249D01*
X013133Y016972D02*
X013180Y017019D01*
X013180Y017112D01*
X013133Y017159D01*
X013087Y017159D01*
X013040Y017112D01*
X013040Y017065D01*
X013040Y017112D02*
X012993Y017159D01*
X012946Y017159D01*
X012900Y017112D01*
X012900Y017019D01*
X012946Y016972D01*
X010480Y017460D02*
X010200Y017460D01*
X010340Y017320D01*
X010340Y017507D01*
X010249Y027698D02*
X010556Y027698D01*
X010710Y027775D02*
X010786Y027698D01*
X010940Y027698D01*
X011017Y027775D01*
X011017Y027852D01*
X010940Y027929D01*
X010786Y027929D01*
X010710Y028005D01*
X010710Y028082D01*
X010786Y028159D01*
X010940Y028159D01*
X011017Y028082D01*
X011170Y028159D02*
X011170Y027698D01*
X011477Y027698D01*
X011324Y027929D02*
X011170Y027929D01*
X011170Y028159D02*
X011477Y028159D01*
X011630Y028159D02*
X011937Y028159D01*
X011784Y028159D02*
X011784Y027698D01*
X010556Y028159D02*
X010249Y028159D01*
X010249Y027698D01*
X010096Y027698D02*
X009942Y027852D01*
X010019Y027852D02*
X009789Y027852D01*
X009789Y027698D02*
X009789Y028159D01*
X010019Y028159D01*
X010096Y028082D01*
X010096Y027929D01*
X010019Y027852D01*
X010249Y027929D02*
X010403Y027929D01*
D21*
X019509Y026536D03*
X019509Y026064D03*
X019391Y024336D03*
X019391Y023864D03*
X019391Y023436D03*
X019391Y022964D03*
X031509Y023864D03*
X031509Y024336D03*
D22*
X031509Y024100D03*
X019391Y024100D03*
X019391Y023200D03*
X019509Y026300D03*
D23*
X015498Y022338D02*
X015498Y022145D01*
X015498Y022241D02*
X015207Y022241D01*
X015304Y022145D01*
D24*
X011844Y027204D02*
X011056Y027204D01*
X011056Y027696D02*
X011844Y027696D01*
D25*
X011450Y027450D03*
D26*
X014550Y020700D02*
X017250Y020700D01*
X017301Y020698D01*
X017352Y020693D01*
X017402Y020683D01*
X017452Y020670D01*
X017500Y020654D01*
X017547Y020634D01*
X017593Y020610D01*
X017636Y020584D01*
X017678Y020554D01*
X017717Y020521D01*
X017754Y020486D01*
X017788Y020448D01*
X017819Y020407D01*
X017848Y020365D01*
X017873Y020320D01*
X017894Y020274D01*
X017913Y020226D01*
X017927Y020177D01*
X017938Y020127D01*
X017946Y020077D01*
X017950Y020026D01*
X017950Y019974D01*
X017946Y019923D01*
X017938Y019873D01*
X017927Y019823D01*
X017913Y019774D01*
X017894Y019726D01*
X017873Y019680D01*
X017848Y019635D01*
X017819Y019593D01*
X017788Y019552D01*
X017754Y019514D01*
X017717Y019479D01*
X017678Y019446D01*
X017636Y019416D01*
X017593Y019390D01*
X017547Y019366D01*
X017500Y019346D01*
X017452Y019330D01*
X017402Y019317D01*
X017352Y019307D01*
X017301Y019302D01*
X017250Y019300D01*
X014550Y019300D01*
X014499Y019302D01*
X014448Y019307D01*
X014398Y019317D01*
X014348Y019330D01*
X014300Y019346D01*
X014253Y019366D01*
X014207Y019390D01*
X014164Y019416D01*
X014122Y019446D01*
X014083Y019479D01*
X014046Y019514D01*
X014012Y019552D01*
X013981Y019593D01*
X013952Y019635D01*
X013927Y019680D01*
X013906Y019726D01*
X013887Y019774D01*
X013873Y019823D01*
X013862Y019873D01*
X013854Y019923D01*
X013850Y019974D01*
X013850Y020026D01*
X013854Y020077D01*
X013862Y020127D01*
X013873Y020177D01*
X013887Y020226D01*
X013906Y020274D01*
X013927Y020320D01*
X013952Y020365D01*
X013981Y020407D01*
X014012Y020448D01*
X014046Y020486D01*
X014083Y020521D01*
X014122Y020554D01*
X014164Y020584D01*
X014207Y020610D01*
X014253Y020634D01*
X014300Y020654D01*
X014348Y020670D01*
X014398Y020683D01*
X014448Y020693D01*
X014499Y020698D01*
X014550Y020700D01*
X016064Y017328D02*
X016066Y017355D01*
X016072Y017382D01*
X016081Y017408D01*
X016094Y017432D01*
X016110Y017455D01*
X016129Y017474D01*
X016151Y017491D01*
X016175Y017505D01*
X016200Y017515D01*
X016227Y017522D01*
X016254Y017525D01*
X016282Y017524D01*
X016309Y017519D01*
X016335Y017511D01*
X016359Y017499D01*
X016382Y017483D01*
X016403Y017465D01*
X016420Y017444D01*
X016435Y017420D01*
X016446Y017395D01*
X016454Y017369D01*
X016458Y017342D01*
X016458Y017314D01*
X016454Y017287D01*
X016446Y017261D01*
X016435Y017236D01*
X016420Y017212D01*
X016403Y017191D01*
X016382Y017173D01*
X016360Y017157D01*
X016335Y017145D01*
X016309Y017137D01*
X016282Y017132D01*
X016254Y017131D01*
X016227Y017134D01*
X016200Y017141D01*
X016175Y017151D01*
X016151Y017165D01*
X016129Y017182D01*
X016110Y017201D01*
X016094Y017224D01*
X016081Y017248D01*
X016072Y017274D01*
X016066Y017301D01*
X016064Y017328D01*
D27*
X024070Y019185D02*
X024070Y019815D01*
X025330Y019815D02*
X025330Y019185D01*
D28*
X031850Y020920D03*
X013600Y027680D03*
M02*
