<?xml version="1.0" encoding="UTF-8"?>
<svg xmlns="http://www.w3.org/2000/svg" xmlns:xlink="http://www.w3.org/1999/xlink" width="198pt" height="118pt" viewBox="0 0 198 118" version="1.1">
<g id="surface2244">
<path style=" stroke:none;fill-rule:evenodd;fill:rgb(45.882353%,94.901961%,40.392157%);fill-opacity:1;" d="M 9 112.601562 L 45 112.601562 L 45 76.601562 L 9 76.601562 Z M 9 112.601562 "/>
<path style=" stroke:none;fill-rule:evenodd;fill:rgb(45.882353%,94.901961%,40.392157%);fill-opacity:1;" d="M 9 40.601562 L 45 40.601562 L 45 4.601562 L 9 4.601562 Z M 9 40.601562 "/>
<path style=" stroke:none;fill-rule:evenodd;fill:rgb(45.882353%,94.901961%,40.392157%);fill-opacity:1;" d="M 81 112.601562 L 117 112.601562 L 117 76.601562 L 81 76.601562 Z M 81 112.601562 "/>
<path style=" stroke:none;fill-rule:evenodd;fill:rgb(45.882353%,94.901961%,40.392157%);fill-opacity:1;" d="M 81 40.601562 L 117 40.601562 L 117 4.601562 L 81 4.601562 Z M 81 40.601562 "/>
<path style=" stroke:none;fill-rule:evenodd;fill:rgb(45.882353%,94.901961%,40.392157%);fill-opacity:1;" d="M 153 112.601562 L 189 112.601562 L 189 76.601562 L 153 76.601562 Z M 153 112.601562 "/>
<path style=" stroke:none;fill-rule:evenodd;fill:rgb(45.882353%,94.901961%,40.392157%);fill-opacity:1;" d="M 153 40.601562 L 189 40.601562 L 189 4.601562 L 153 4.601562 Z M 153 40.601562 "/>
</g>
</svg>
