G04 (created by PCBNEW (2013-07-07 BZR 4022)-stable) date 11/9/2013 7:35:54 PM*
%MOIN*%
G04 Gerber Fmt 3.4, Leading zero omitted, Abs format*
%FSLAX34Y34*%
G01*
G70*
G90*
G04 APERTURE LIST*
%ADD10C,0.006*%
%ADD11C,0.104425*%
%ADD12R,0.0453701X0.159543*%
%ADD13C,0.021*%
%ADD14C,0.147732*%
%ADD15R,0.0335591X0.0335591*%
%ADD16R,0.0886772X0.0571811*%
%ADD17R,0.0611181X0.0709606*%
%ADD18C,0.407575*%
%ADD19R,0.104425X0.206787*%
%ADD20R,0.0729291X0.0729291*%
%ADD21C,0.0729291*%
%ADD22R,0.0685039X0.0173228*%
%ADD23R,0.109134X0.135906*%
%ADD24R,0.023622X0.0629921*%
%ADD25R,0.0984252X0.0826772*%
%ADD26R,0.0787402X0.0826772*%
%ADD27R,0.0268661X0.0839528*%
%ADD28R,0.0334646X0.0496063*%
%ADD29R,0.0611X0.0198*%
%ADD30R,0.0788346X0.0493071*%
%ADD31R,0.0493071X0.0788346*%
%ADD32C,0.131*%
%ADD33C,0.11811*%
G04 APERTURE END LIST*
G54D10*
G54D11*
X40250Y6750D03*
X31750Y6750D03*
X40250Y35250D03*
X31750Y35250D03*
G54D12*
X17000Y13456D03*
X17000Y10543D03*
X16000Y13456D03*
X16000Y10543D03*
X15000Y13456D03*
X15000Y10543D03*
X14000Y13456D03*
X14000Y10543D03*
X13000Y13456D03*
X13000Y10543D03*
X34000Y30793D03*
X34000Y33706D03*
X35000Y30793D03*
X35000Y33706D03*
X36000Y30793D03*
X36000Y33706D03*
X37000Y30793D03*
X37000Y33706D03*
X38000Y30793D03*
X38000Y33706D03*
G54D13*
X30500Y21200D03*
X30500Y20800D03*
G54D14*
X6250Y29750D03*
G54D15*
X33500Y6974D03*
X33500Y7525D03*
X33500Y8224D03*
X33500Y8775D03*
G54D16*
X34208Y13346D03*
X37791Y11653D03*
X34208Y11653D03*
X37791Y13346D03*
X34208Y20346D03*
X37791Y18653D03*
X34208Y18653D03*
X37791Y20346D03*
X34208Y27346D03*
X37791Y25653D03*
X34208Y25653D03*
X37791Y27346D03*
G54D15*
X9474Y28750D03*
X10025Y28750D03*
G54D14*
X23750Y12250D03*
X6250Y12250D03*
X23750Y29750D03*
G54D17*
X32000Y10600D03*
X32000Y9399D03*
G54D18*
X18250Y26000D03*
G54D19*
X15238Y26000D03*
X21261Y26000D03*
G54D10*
G36*
X5592Y31960D02*
X5883Y32127D01*
X6051Y31837D01*
X5760Y31669D01*
X5592Y31960D01*
X5592Y31960D01*
G37*
G36*
X5868Y31482D02*
X6159Y31650D01*
X6327Y31359D01*
X6036Y31192D01*
X5868Y31482D01*
X5868Y31482D01*
G37*
G36*
X1372Y25786D02*
X1539Y26077D01*
X1830Y25909D01*
X1662Y25618D01*
X1372Y25786D01*
X1372Y25786D01*
G37*
G36*
X1849Y25510D02*
X2017Y25801D01*
X2307Y25633D01*
X2140Y25342D01*
X1849Y25510D01*
X1849Y25510D01*
G37*
G54D15*
X37474Y14250D03*
X38025Y14250D03*
X35025Y9000D03*
X34474Y9000D03*
X34500Y9974D03*
X34500Y10525D03*
X33750Y10525D03*
X33750Y9974D03*
X37525Y9000D03*
X36974Y9000D03*
X35724Y9000D03*
X36275Y9000D03*
X36000Y9974D03*
X36000Y10525D03*
X974Y18500D03*
X1525Y18500D03*
X33474Y16750D03*
X34025Y16750D03*
X38750Y16775D03*
X38750Y16224D03*
X39500Y16775D03*
X39500Y16224D03*
X10025Y29500D03*
X9474Y29500D03*
X11474Y23250D03*
X12025Y23250D03*
X8000Y22525D03*
X8000Y21974D03*
X18000Y21974D03*
X18000Y22525D03*
X37474Y28250D03*
X38025Y28250D03*
X37474Y21250D03*
X38025Y21250D03*
X36750Y9974D03*
X36750Y10525D03*
X17000Y20724D03*
X17000Y21275D03*
X13000Y21275D03*
X13000Y20724D03*
X15275Y23000D03*
X14724Y23000D03*
X12000Y22525D03*
X12000Y21974D03*
X17000Y17525D03*
X17000Y16974D03*
X13000Y17525D03*
X13000Y16974D03*
X22000Y22525D03*
X22000Y21974D03*
X20275Y14750D03*
X19724Y14750D03*
X20275Y17250D03*
X19724Y17250D03*
G54D10*
G36*
X19786Y34627D02*
X20077Y34460D01*
X19909Y34169D01*
X19618Y34337D01*
X19786Y34627D01*
X19786Y34627D01*
G37*
G36*
X19510Y34150D02*
X19801Y33982D01*
X19633Y33692D01*
X19342Y33859D01*
X19510Y34150D01*
X19510Y34150D01*
G37*
G54D15*
X29025Y23500D03*
X28474Y23500D03*
G54D10*
G36*
X25960Y30407D02*
X26127Y30116D01*
X25837Y29948D01*
X25669Y30239D01*
X25960Y30407D01*
X25960Y30407D01*
G37*
G36*
X25482Y30131D02*
X25650Y29840D01*
X25359Y29672D01*
X25192Y29963D01*
X25482Y30131D01*
X25482Y30131D01*
G37*
G54D15*
X12500Y35025D03*
X12500Y34474D03*
G54D10*
G36*
X24407Y9839D02*
X24116Y9672D01*
X23948Y9962D01*
X24239Y10130D01*
X24407Y9839D01*
X24407Y9839D01*
G37*
G36*
X24131Y10317D02*
X23840Y10149D01*
X23672Y10440D01*
X23963Y10607D01*
X24131Y10317D01*
X24131Y10317D01*
G37*
G36*
X10213Y7372D02*
X9922Y7539D01*
X10090Y7830D01*
X10381Y7662D01*
X10213Y7372D01*
X10213Y7372D01*
G37*
G36*
X10489Y7849D02*
X10198Y8017D01*
X10366Y8307D01*
X10657Y8140D01*
X10489Y7849D01*
X10489Y7849D01*
G37*
G54D15*
X17500Y6974D03*
X17500Y7525D03*
G54D10*
G36*
X4039Y11592D02*
X3872Y11883D01*
X4162Y12051D01*
X4330Y11760D01*
X4039Y11592D01*
X4039Y11592D01*
G37*
G36*
X4517Y11868D02*
X4349Y12159D01*
X4640Y12327D01*
X4807Y12036D01*
X4517Y11868D01*
X4517Y11868D01*
G37*
G36*
X28627Y16213D02*
X28460Y15922D01*
X28169Y16090D01*
X28337Y16381D01*
X28627Y16213D01*
X28627Y16213D01*
G37*
G36*
X28150Y16489D02*
X27982Y16198D01*
X27692Y16366D01*
X27859Y16657D01*
X28150Y16489D01*
X28150Y16489D01*
G37*
G54D15*
X38750Y8775D03*
X38750Y8224D03*
X39500Y8775D03*
X39500Y8224D03*
X15275Y23750D03*
X14724Y23750D03*
G54D20*
X9500Y17000D03*
G54D21*
X10500Y17000D03*
X9500Y16000D03*
X10500Y16000D03*
X9500Y15000D03*
X10500Y15000D03*
G54D22*
X11102Y21895D03*
X11102Y22151D03*
X11102Y21639D03*
X11102Y21383D03*
X11102Y21127D03*
X11102Y20872D03*
X11102Y20616D03*
X11102Y20360D03*
X8897Y19848D03*
X8897Y20104D03*
X8897Y20360D03*
X8897Y20616D03*
X8897Y22151D03*
X8897Y21895D03*
X8897Y21639D03*
X8897Y21383D03*
X8897Y21127D03*
X8897Y20872D03*
G54D23*
X10000Y21000D03*
G54D22*
X11102Y20104D03*
X11102Y19848D03*
X16102Y16895D03*
X16102Y17151D03*
X16102Y16639D03*
X16102Y16383D03*
X16102Y16127D03*
X16102Y15872D03*
X16102Y15616D03*
X16102Y15360D03*
X13897Y14848D03*
X13897Y15104D03*
X13897Y15360D03*
X13897Y15616D03*
X13897Y17151D03*
X13897Y16895D03*
X13897Y16639D03*
X13897Y16383D03*
X13897Y16127D03*
X13897Y15872D03*
G54D23*
X15000Y16000D03*
G54D22*
X16102Y15104D03*
X16102Y14848D03*
X21102Y21895D03*
X21102Y22151D03*
X21102Y21639D03*
X21102Y21383D03*
X21102Y21127D03*
X21102Y20872D03*
X21102Y20616D03*
X21102Y20360D03*
X18897Y19848D03*
X18897Y20104D03*
X18897Y20360D03*
X18897Y20616D03*
X18897Y22151D03*
X18897Y21895D03*
X18897Y21639D03*
X18897Y21383D03*
X18897Y21127D03*
X18897Y20872D03*
G54D23*
X20000Y21000D03*
G54D22*
X21102Y20104D03*
X21102Y19848D03*
G54D24*
X35488Y7852D03*
X35744Y7852D03*
X36000Y7852D03*
X36255Y7852D03*
X36511Y7852D03*
G54D25*
X34523Y6730D03*
X37476Y6730D03*
G54D26*
X36452Y6730D03*
X35547Y6730D03*
G54D27*
X8750Y24155D03*
X9250Y24155D03*
X9750Y24155D03*
X10250Y24155D03*
X10750Y24155D03*
X11250Y24155D03*
X11750Y24155D03*
X12250Y24155D03*
X12750Y24155D03*
X13250Y24155D03*
X13250Y27844D03*
X12750Y27844D03*
X12250Y27844D03*
X11750Y27844D03*
X11250Y27844D03*
X10750Y27844D03*
X10250Y27844D03*
X9750Y27844D03*
X9250Y27844D03*
X8750Y27844D03*
G54D28*
X19625Y15566D03*
X20000Y15566D03*
X20374Y15566D03*
X20374Y16433D03*
X19625Y16433D03*
G54D29*
X34868Y16896D03*
X34868Y16640D03*
X34868Y16384D03*
X34868Y16128D03*
X34868Y15872D03*
X34868Y15616D03*
X34868Y15360D03*
X34868Y15104D03*
X37132Y15104D03*
X37132Y15360D03*
X37132Y15616D03*
X37132Y15872D03*
X37132Y16128D03*
X37132Y16384D03*
X37132Y16640D03*
X37132Y16896D03*
G54D30*
X748Y19500D03*
X748Y20500D03*
G54D10*
G36*
X2123Y15579D02*
X2369Y15152D01*
X1687Y14758D01*
X1440Y15185D01*
X2123Y15579D01*
X2123Y15579D01*
G37*
G36*
X2623Y14719D02*
X2869Y14292D01*
X2187Y13898D01*
X1940Y14325D01*
X2623Y14719D01*
X2623Y14719D01*
G37*
G36*
X3123Y13849D02*
X3369Y13422D01*
X2687Y13028D01*
X2440Y13455D01*
X3123Y13849D01*
X3123Y13849D01*
G37*
G36*
X3623Y12989D02*
X3869Y12562D01*
X3187Y12168D01*
X2940Y12595D01*
X3623Y12989D01*
X3623Y12989D01*
G37*
G36*
X6562Y9869D02*
X6989Y9623D01*
X6595Y8940D01*
X6168Y9187D01*
X6562Y9869D01*
X6562Y9869D01*
G37*
G36*
X7422Y9369D02*
X7849Y9123D01*
X7455Y8440D01*
X7028Y8687D01*
X7422Y9369D01*
X7422Y9369D01*
G37*
G36*
X8292Y8869D02*
X8719Y8623D01*
X8325Y7940D01*
X7898Y8187D01*
X8292Y8869D01*
X8292Y8869D01*
G37*
G54D30*
X748Y21500D03*
X748Y22500D03*
G54D10*
G36*
X2369Y26847D02*
X2123Y26420D01*
X1440Y26814D01*
X1687Y27241D01*
X2369Y26847D01*
X2369Y26847D01*
G37*
G36*
X2869Y27707D02*
X2623Y27280D01*
X1940Y27674D01*
X2187Y28101D01*
X2869Y27707D01*
X2869Y27707D01*
G37*
G36*
X3869Y29437D02*
X3623Y29010D01*
X2940Y29404D01*
X3187Y29831D01*
X3869Y29437D01*
X3869Y29437D01*
G37*
G36*
X6989Y32376D02*
X6562Y32130D01*
X6168Y32812D01*
X6595Y33059D01*
X6989Y32376D01*
X6989Y32376D01*
G37*
G36*
X7849Y32876D02*
X7422Y32630D01*
X7028Y33312D01*
X7455Y33559D01*
X7849Y32876D01*
X7849Y32876D01*
G37*
G36*
X8719Y33376D02*
X8292Y33130D01*
X7898Y33812D01*
X8325Y34059D01*
X8719Y33376D01*
X8719Y33376D01*
G37*
G36*
X9579Y33876D02*
X9152Y33630D01*
X8758Y34312D01*
X9185Y34559D01*
X9579Y33876D01*
X9579Y33876D01*
G37*
G36*
X3369Y28577D02*
X3123Y28150D01*
X2440Y28544D01*
X2687Y28971D01*
X3369Y28577D01*
X3369Y28577D01*
G37*
G36*
X22577Y32630D02*
X22150Y32876D01*
X22544Y33559D01*
X22971Y33312D01*
X22577Y32630D01*
X22577Y32630D01*
G37*
G36*
X21707Y33130D02*
X21280Y33376D01*
X21674Y34059D01*
X22101Y33812D01*
X21707Y33130D01*
X21707Y33130D01*
G37*
G36*
X20847Y33630D02*
X20420Y33876D01*
X20814Y34559D01*
X21241Y34312D01*
X20847Y33630D01*
X20847Y33630D01*
G37*
G54D31*
X16500Y35251D03*
X15500Y35251D03*
X14500Y35251D03*
X13500Y35251D03*
G54D10*
G36*
X23437Y32130D02*
X23010Y32376D01*
X23404Y33059D01*
X23831Y32812D01*
X23437Y32130D01*
X23437Y32130D01*
G37*
G36*
X26376Y29010D02*
X26130Y29437D01*
X26812Y29831D01*
X27059Y29404D01*
X26376Y29010D01*
X26376Y29010D01*
G37*
G36*
X26876Y28150D02*
X26630Y28577D01*
X27312Y28971D01*
X27559Y28544D01*
X26876Y28150D01*
X26876Y28150D01*
G37*
G36*
X27376Y27280D02*
X27130Y27707D01*
X27812Y28101D01*
X28059Y27674D01*
X27376Y27280D01*
X27376Y27280D01*
G37*
G36*
X27876Y26420D02*
X27630Y26847D01*
X28312Y27241D01*
X28559Y26814D01*
X27876Y26420D01*
X27876Y26420D01*
G37*
G54D30*
X29251Y22500D03*
G54D10*
G36*
X20420Y8123D02*
X20847Y8369D01*
X21241Y7687D01*
X20814Y7440D01*
X20420Y8123D01*
X20420Y8123D01*
G37*
G54D30*
X29251Y20500D03*
X29251Y19500D03*
G54D10*
G36*
X27630Y15152D02*
X27876Y15579D01*
X28559Y15185D01*
X28312Y14758D01*
X27630Y15152D01*
X27630Y15152D01*
G37*
G36*
X27130Y14292D02*
X27376Y14719D01*
X28059Y14325D01*
X27812Y13898D01*
X27130Y14292D01*
X27130Y14292D01*
G37*
G36*
X26630Y13422D02*
X26876Y13849D01*
X27559Y13455D01*
X27312Y13028D01*
X26630Y13422D01*
X26630Y13422D01*
G37*
G36*
X26130Y12562D02*
X26376Y12989D01*
X27059Y12595D01*
X26812Y12168D01*
X26130Y12562D01*
X26130Y12562D01*
G37*
G36*
X23010Y9623D02*
X23437Y9869D01*
X23831Y9187D01*
X23404Y8940D01*
X23010Y9623D01*
X23010Y9623D01*
G37*
G36*
X22150Y9123D02*
X22577Y9369D01*
X22971Y8687D01*
X22544Y8440D01*
X22150Y9123D01*
X22150Y9123D01*
G37*
G36*
X21280Y8623D02*
X21707Y8869D01*
X22101Y8187D01*
X21674Y7940D01*
X21280Y8623D01*
X21280Y8623D01*
G37*
G54D31*
X16500Y6748D03*
X15500Y6748D03*
X14500Y6748D03*
X13500Y6748D03*
G54D10*
G36*
X9152Y8369D02*
X9579Y8123D01*
X9185Y7440D01*
X8758Y7687D01*
X9152Y8369D01*
X9152Y8369D01*
G37*
G54D30*
X29251Y21500D03*
G54D22*
X16102Y21895D03*
X16102Y22151D03*
X16102Y21639D03*
X16102Y21383D03*
X16102Y21127D03*
X16102Y20872D03*
X16102Y20616D03*
X16102Y20360D03*
X13897Y19848D03*
X13897Y20104D03*
X13897Y20360D03*
X13897Y20616D03*
X13897Y22151D03*
X13897Y21895D03*
X13897Y21639D03*
X13897Y21383D03*
X13897Y21127D03*
X13897Y20872D03*
X16102Y20104D03*
X16102Y19848D03*
G54D13*
X14750Y5500D03*
X15250Y5500D03*
X31250Y5500D03*
X31750Y5500D03*
X40250Y5500D03*
X40750Y5500D03*
X40750Y36500D03*
X40250Y36500D03*
X31250Y36500D03*
X31750Y36500D03*
X14750Y36500D03*
X15250Y36500D03*
G54D32*
X2500Y39500D03*
X38500Y39500D03*
X38500Y2500D03*
X2500Y2500D03*
G54D33*
X8000Y14000D03*
X7500Y26000D03*
X27500Y25000D03*
X5000Y39500D03*
X5000Y2500D03*
X36000Y2500D03*
X40000Y26500D03*
X40000Y12500D03*
X33000Y19500D03*
M02*
