G04 Layer: TopLayer*
G04 EasyEDA v6.4.14, 2021-02-14T20:16:45--6:00*
G04 3ef1d50388904a57a4b5af65bebc29e0,e05df005bebf47b3926371a58d7fbf19,10*
G04 Gerber Generator version 0.2*
G04 Scale: 100 percent, Rotated: No, Reflected: No *
G04 Dimensions in millimeters *
G04 leading zeros omitted , absolute positions ,4 integer and 5 decimal *
%FSLAX45Y45*%
%MOMM*%

%ADD11C,0.5700*%
%ADD12C,0.6000*%
%ADD13C,0.6100*%
%ADD15C,1.4986*%
%ADD17C,1.6510*%
%ADD18R,1.6510X1.6510*%
%ADD19R,2.5000X2.5000*%
%ADD20C,1.7780*%
%ADD21C,1.5240*%
%ADD22C,1.6000*%
%ADD23C,1.8000*%
%ADD25C,1.2000*%
%ADD26C,3.0000*%

%LPD*%
G36*
X35814Y25654D02*
G01*
X31902Y26416D01*
X28651Y28600D01*
X26416Y31902D01*
X25654Y35814D01*
X25654Y9964166D01*
X26416Y9968077D01*
X28651Y9971328D01*
X31902Y9973564D01*
X35814Y9974326D01*
X5964174Y9974326D01*
X5968085Y9973564D01*
X5971387Y9971328D01*
X5973572Y9968077D01*
X5974334Y9964166D01*
X5974334Y6858914D01*
X5973521Y6854952D01*
X5971235Y6851599D01*
X5967831Y6849465D01*
X5963818Y6848754D01*
X5959906Y6849719D01*
X5955436Y6851802D01*
X5945987Y6854342D01*
X5936234Y6855206D01*
X5926480Y6854342D01*
X5917031Y6851802D01*
X5908192Y6847687D01*
X5900166Y6842048D01*
X5893257Y6835140D01*
X5887618Y6827113D01*
X5883503Y6818274D01*
X5880963Y6808825D01*
X5880100Y6799072D01*
X5880963Y6789318D01*
X5882081Y6783831D01*
X5882081Y3338118D01*
X5881166Y3333902D01*
X5878525Y3330397D01*
X5874664Y3328365D01*
X5870346Y3328111D01*
X5866282Y3329686D01*
X5854192Y3337763D01*
X5841492Y3344011D01*
X5828080Y3348583D01*
X5814212Y3351326D01*
X5800090Y3352292D01*
X5785967Y3351326D01*
X5772099Y3348583D01*
X5758688Y3344011D01*
X5745988Y3337763D01*
X5734253Y3329889D01*
X5723585Y3320592D01*
X5714288Y3309924D01*
X5706414Y3298190D01*
X5700166Y3285490D01*
X5695594Y3272078D01*
X5692851Y3258210D01*
X5691886Y3244088D01*
X5692851Y3229965D01*
X5695594Y3216097D01*
X5700166Y3202686D01*
X5706414Y3189986D01*
X5714288Y3178251D01*
X5723585Y3167583D01*
X5734253Y3158236D01*
X5745988Y3150412D01*
X5758688Y3144164D01*
X5772099Y3139592D01*
X5785967Y3136849D01*
X5800090Y3135884D01*
X5814212Y3136849D01*
X5828080Y3139592D01*
X5841492Y3144164D01*
X5854192Y3150412D01*
X5866282Y3158490D01*
X5870346Y3160064D01*
X5874664Y3159810D01*
X5878525Y3157778D01*
X5881166Y3154273D01*
X5882081Y3150057D01*
X5882081Y3084118D01*
X5881166Y3079902D01*
X5878525Y3076397D01*
X5874664Y3074365D01*
X5870346Y3074111D01*
X5866282Y3075686D01*
X5854192Y3083763D01*
X5841492Y3090011D01*
X5828080Y3094583D01*
X5814212Y3097326D01*
X5800090Y3098292D01*
X5785967Y3097326D01*
X5772099Y3094583D01*
X5758688Y3090011D01*
X5745988Y3083763D01*
X5734253Y3075889D01*
X5723585Y3066592D01*
X5714288Y3055924D01*
X5706414Y3044190D01*
X5700166Y3031490D01*
X5695594Y3018078D01*
X5692851Y3004210D01*
X5691886Y2990088D01*
X5692851Y2975965D01*
X5695594Y2962097D01*
X5700166Y2948686D01*
X5706414Y2935986D01*
X5708751Y2932480D01*
X5710326Y2928518D01*
X5710174Y2924251D01*
X5708243Y2920492D01*
X5704992Y2917799D01*
X5700877Y2916682D01*
X5696712Y2917342D01*
X5693156Y2919628D01*
X5331206Y3281578D01*
X5328970Y3284880D01*
X5328208Y3288741D01*
X5328208Y4935728D01*
X5328970Y4939639D01*
X5331206Y4942890D01*
X5334457Y4945126D01*
X5338368Y4945888D01*
X5342229Y4945126D01*
X5345531Y4942941D01*
X5462066Y4826508D01*
X5463997Y4823815D01*
X5464962Y4820615D01*
X5464860Y4817313D01*
X5464098Y4813554D01*
X5463184Y4799990D01*
X5464098Y4786426D01*
X5466791Y4773066D01*
X5471261Y4760214D01*
X5477408Y4748072D01*
X5485079Y4736846D01*
X5494223Y4726787D01*
X5508802Y4714646D01*
X5510428Y4711700D01*
X5510987Y4708347D01*
X5510987Y4541520D01*
X5510479Y4538421D01*
X5509056Y4535576D01*
X5506872Y4533341D01*
X5499252Y4527753D01*
X5489498Y4518304D01*
X5481066Y4507585D01*
X5474106Y4495901D01*
X5468823Y4483404D01*
X5465216Y4470247D01*
X5463387Y4456785D01*
X5463387Y4443171D01*
X5465216Y4429709D01*
X5468823Y4416552D01*
X5474106Y4404055D01*
X5481066Y4392371D01*
X5489498Y4381652D01*
X5499252Y4372203D01*
X5506872Y4366615D01*
X5509056Y4364380D01*
X5510479Y4361535D01*
X5510987Y4358436D01*
X5510987Y4185107D01*
X5511190Y4180179D01*
X5511800Y4175506D01*
X5512816Y4170883D01*
X5514238Y4166362D01*
X5516067Y4162044D01*
X5518251Y4157827D01*
X5520791Y4153865D01*
X5523687Y4150106D01*
X5526989Y4146448D01*
X5596991Y4076446D01*
X5598820Y4073956D01*
X5599836Y4071010D01*
X5599887Y4067911D01*
X5598363Y4056786D01*
X5598363Y4043172D01*
X5600192Y4029710D01*
X5603798Y4016552D01*
X5609082Y4004056D01*
X5616041Y3992372D01*
X5624474Y3981653D01*
X5634228Y3972204D01*
X5645200Y3964127D01*
X5657138Y3957624D01*
X5669838Y3952697D01*
X5683046Y3949547D01*
X5696610Y3948226D01*
X5710174Y3948684D01*
X5723585Y3950919D01*
X5736590Y3954932D01*
X5748934Y3960672D01*
X5760415Y3967987D01*
X5770778Y3976776D01*
X5779922Y3986885D01*
X5787593Y3998061D01*
X5793740Y4010202D01*
X5798210Y4023055D01*
X5800902Y4036415D01*
X5801817Y4049979D01*
X5800902Y4063542D01*
X5798210Y4076903D01*
X5793740Y4089755D01*
X5787593Y4101896D01*
X5779922Y4113072D01*
X5770778Y4123182D01*
X5760415Y4131970D01*
X5748934Y4139285D01*
X5736590Y4145026D01*
X5723585Y4149039D01*
X5710174Y4151274D01*
X5696610Y4151731D01*
X5679643Y4150156D01*
X5676341Y4151122D01*
X5673547Y4153103D01*
X5622290Y4204360D01*
X5620054Y4207662D01*
X5619292Y4211523D01*
X5619292Y4358538D01*
X5619851Y4361840D01*
X5621477Y4364837D01*
X5635802Y4376775D01*
X5644896Y4386884D01*
X5652617Y4398060D01*
X5658764Y4410202D01*
X5663234Y4423054D01*
X5665927Y4436414D01*
X5666841Y4449978D01*
X5665927Y4463542D01*
X5663234Y4476902D01*
X5658764Y4489754D01*
X5652617Y4501896D01*
X5644896Y4513072D01*
X5635802Y4523181D01*
X5621477Y4535119D01*
X5619851Y4538116D01*
X5619292Y4541418D01*
X5619292Y4708652D01*
X5619800Y4711750D01*
X5621223Y4714595D01*
X5623407Y4716830D01*
X5630722Y4722215D01*
X5640527Y4731664D01*
X5648960Y4742332D01*
X5655868Y4754067D01*
X5661202Y4766564D01*
X5664809Y4779721D01*
X5666587Y4793183D01*
X5666587Y4806797D01*
X5664809Y4820259D01*
X5661202Y4833366D01*
X5655868Y4845913D01*
X5648960Y4857597D01*
X5640527Y4868265D01*
X5630722Y4877765D01*
X5619800Y4885791D01*
X5607862Y4892344D01*
X5595162Y4897221D01*
X5581954Y4900371D01*
X5568391Y4901742D01*
X5554827Y4901285D01*
X5547715Y4900117D01*
X5544464Y4900066D01*
X5541416Y4901031D01*
X5538825Y4902911D01*
X5361178Y5080406D01*
X5358942Y5083708D01*
X5358180Y5087620D01*
X5358180Y5553964D01*
X5358739Y5557266D01*
X5360263Y5560161D01*
X5362702Y5562447D01*
X5368290Y5566156D01*
X5378704Y5575300D01*
X5387797Y5585663D01*
X5395468Y5597144D01*
X5401614Y5609539D01*
X5406034Y5622645D01*
X5408726Y5636209D01*
X5409641Y5649976D01*
X5408726Y5663742D01*
X5406034Y5677306D01*
X5401614Y5690412D01*
X5395468Y5702808D01*
X5387797Y5714288D01*
X5378704Y5724652D01*
X5368290Y5733796D01*
X5356809Y5741466D01*
X5344414Y5747562D01*
X5331358Y5752033D01*
X5317794Y5754725D01*
X5303977Y5755589D01*
X5290210Y5754725D01*
X5276646Y5752033D01*
X5263591Y5747562D01*
X5251196Y5741466D01*
X5239715Y5733796D01*
X5229301Y5724652D01*
X5220208Y5714288D01*
X5212537Y5702808D01*
X5206390Y5690412D01*
X5201970Y5677306D01*
X5199278Y5663742D01*
X5198364Y5649976D01*
X5199278Y5636209D01*
X5201970Y5622645D01*
X5206390Y5609539D01*
X5212537Y5597144D01*
X5220208Y5585663D01*
X5229301Y5575300D01*
X5239715Y5566156D01*
X5245354Y5562396D01*
X5247792Y5560110D01*
X5249316Y5557215D01*
X5249875Y5553964D01*
X5249875Y5109260D01*
X5249113Y5105400D01*
X5246878Y5102098D01*
X5243626Y5099913D01*
X5239715Y5099100D01*
X5235803Y5099913D01*
X5232552Y5102098D01*
X4806188Y5528411D01*
X4803851Y5532069D01*
X4803241Y5536387D01*
X4804511Y5540552D01*
X4807407Y5543804D01*
X4811420Y5545582D01*
X4823358Y5547969D01*
X4836414Y5552389D01*
X4848809Y5558485D01*
X4860290Y5566156D01*
X4870704Y5575300D01*
X4879797Y5585663D01*
X4887468Y5597144D01*
X4893614Y5609539D01*
X4898034Y5622645D01*
X4900726Y5636209D01*
X4901641Y5649976D01*
X4900726Y5663742D01*
X4898034Y5677306D01*
X4893614Y5690412D01*
X4887468Y5702808D01*
X4879797Y5714288D01*
X4870704Y5724652D01*
X4860290Y5733796D01*
X4854702Y5737504D01*
X4852263Y5739790D01*
X4850739Y5742686D01*
X4850180Y5745988D01*
X4850180Y6153962D01*
X4850739Y6157264D01*
X4852263Y6160160D01*
X4854702Y6162446D01*
X4860290Y6166154D01*
X4870704Y6175298D01*
X4879797Y6185662D01*
X4887468Y6197142D01*
X4893614Y6209538D01*
X4898034Y6222644D01*
X4900726Y6236208D01*
X4901641Y6249974D01*
X4900726Y6263792D01*
X4899406Y6270345D01*
X4899304Y6273647D01*
X4900269Y6276797D01*
X4902200Y6279489D01*
X5424728Y6802018D01*
X5428030Y6805675D01*
X5430926Y6809435D01*
X5433466Y6813397D01*
X5435650Y6817614D01*
X5437479Y6821931D01*
X5438902Y6826453D01*
X5439918Y6831075D01*
X5440527Y6835749D01*
X5440730Y6840677D01*
X5440730Y7389164D01*
X5441594Y7393228D01*
X5443931Y7396581D01*
X5447487Y7398766D01*
X5451551Y7399324D01*
X5455564Y7398207D01*
X5458764Y7395616D01*
X5469483Y7382459D01*
X5471769Y7380020D01*
X5483758Y7368387D01*
X5486298Y7366152D01*
X5502249Y7354062D01*
X5516575Y7345476D01*
X5519521Y7343902D01*
X5534710Y7336942D01*
X5537860Y7335723D01*
X5553710Y7330592D01*
X5556961Y7329728D01*
X5573369Y7326426D01*
X5576671Y7325918D01*
X5593283Y7324496D01*
X5596686Y7324394D01*
X5616702Y7325156D01*
X5633212Y7327544D01*
X5636514Y7328204D01*
X5652668Y7332472D01*
X5655868Y7333488D01*
X5671413Y7339533D01*
X5674461Y7340955D01*
X5689244Y7348728D01*
X5692140Y7350455D01*
X5705906Y7359903D01*
X5708548Y7361936D01*
X5721197Y7372858D01*
X5734862Y7387539D01*
X5736996Y7390130D01*
X5746800Y7403642D01*
X5748629Y7406436D01*
X5756859Y7421016D01*
X5758332Y7424013D01*
X5764834Y7439406D01*
X5765952Y7442555D01*
X5770676Y7458557D01*
X5771438Y7461859D01*
X5774283Y7478268D01*
X5774639Y7481620D01*
X5775604Y7498283D01*
X5775604Y7501686D01*
X5774639Y7518349D01*
X5774283Y7521651D01*
X5771438Y7538110D01*
X5770676Y7541412D01*
X5765952Y7557414D01*
X5764834Y7560564D01*
X5758332Y7575956D01*
X5756859Y7578953D01*
X5748629Y7593482D01*
X5746800Y7596327D01*
X5736996Y7609840D01*
X5734862Y7612430D01*
X5723585Y7624724D01*
X5721197Y7627061D01*
X5708548Y7638034D01*
X5705906Y7640066D01*
X5692140Y7649464D01*
X5689244Y7651242D01*
X5674461Y7659014D01*
X5671413Y7660386D01*
X5655868Y7666481D01*
X5652668Y7667498D01*
X5636514Y7671765D01*
X5633212Y7672425D01*
X5616702Y7674813D01*
X5596686Y7675575D01*
X5593283Y7675473D01*
X5576671Y7674051D01*
X5573369Y7673543D01*
X5556961Y7670241D01*
X5553710Y7669377D01*
X5537860Y7664246D01*
X5534710Y7663027D01*
X5519521Y7656068D01*
X5516575Y7654493D01*
X5502249Y7645857D01*
X5499506Y7643977D01*
X5486298Y7633766D01*
X5483758Y7631582D01*
X5471769Y7619949D01*
X5469483Y7617459D01*
X5458764Y7604353D01*
X5455564Y7601762D01*
X5451551Y7600645D01*
X5447487Y7601203D01*
X5443931Y7603337D01*
X5441594Y7606741D01*
X5440730Y7610754D01*
X5440730Y7656372D01*
X5440527Y7661300D01*
X5439918Y7665974D01*
X5438902Y7670596D01*
X5437479Y7675118D01*
X5435650Y7679436D01*
X5433466Y7683652D01*
X5430926Y7687614D01*
X5428030Y7691374D01*
X5424728Y7695031D01*
X5400294Y7719466D01*
X5398058Y7722768D01*
X5397296Y7726629D01*
X5397296Y8311235D01*
X5398058Y8315096D01*
X5400243Y8318398D01*
X5403138Y8321294D01*
X5406440Y8323478D01*
X5410352Y8324291D01*
X5504789Y8324291D01*
X5518912Y8325205D01*
X5532424Y8327898D01*
X5545531Y8332317D01*
X5557926Y8338464D01*
X5569407Y8346135D01*
X5579821Y8355228D01*
X5588914Y8365642D01*
X5596585Y8377123D01*
X5602681Y8389518D01*
X5607151Y8402574D01*
X5609844Y8416137D01*
X5610758Y8429904D01*
X5609844Y8443722D01*
X5607151Y8457285D01*
X5602681Y8470341D01*
X5596585Y8482736D01*
X5588914Y8494217D01*
X5579821Y8504631D01*
X5569407Y8513724D01*
X5557926Y8521395D01*
X5545531Y8527491D01*
X5532424Y8531961D01*
X5518912Y8534654D01*
X5504789Y8535568D01*
X5499404Y8535568D01*
X5495493Y8536330D01*
X5492242Y8538565D01*
X5490006Y8541867D01*
X5489244Y8545728D01*
X5489244Y9454134D01*
X5490006Y9457994D01*
X5492242Y9461296D01*
X5495493Y9463481D01*
X5499404Y9464294D01*
X5504789Y9464294D01*
X5518912Y9465208D01*
X5532424Y9467900D01*
X5545531Y9472320D01*
X5557926Y9478467D01*
X5569407Y9486138D01*
X5579821Y9495231D01*
X5588914Y9505645D01*
X5596585Y9517126D01*
X5602681Y9529521D01*
X5607151Y9542576D01*
X5609844Y9556140D01*
X5610758Y9569907D01*
X5609844Y9583724D01*
X5607151Y9597288D01*
X5602681Y9610344D01*
X5596585Y9622739D01*
X5588914Y9634220D01*
X5579821Y9644634D01*
X5569407Y9653727D01*
X5557926Y9661398D01*
X5545531Y9667494D01*
X5532424Y9671964D01*
X5518912Y9674656D01*
X5504789Y9675571D01*
X5365445Y9675571D01*
X5351322Y9674656D01*
X5337759Y9671964D01*
X5324703Y9667494D01*
X5312308Y9661398D01*
X5300776Y9653727D01*
X5290413Y9644634D01*
X5281320Y9634220D01*
X5273649Y9622739D01*
X5267502Y9610344D01*
X5263083Y9597288D01*
X5260390Y9583724D01*
X5259476Y9569907D01*
X5260390Y9556140D01*
X5263083Y9542576D01*
X5267502Y9529521D01*
X5273649Y9517126D01*
X5281320Y9505645D01*
X5290413Y9495231D01*
X5300776Y9486138D01*
X5312308Y9478467D01*
X5324703Y9472320D01*
X5337759Y9467900D01*
X5351322Y9465208D01*
X5365445Y9464294D01*
X5370779Y9464294D01*
X5374690Y9463481D01*
X5377942Y9461296D01*
X5380177Y9457994D01*
X5380939Y9454134D01*
X5380939Y8545728D01*
X5380177Y8541867D01*
X5377942Y8538565D01*
X5374690Y8536330D01*
X5370779Y8535568D01*
X5365445Y8535568D01*
X5351322Y8534654D01*
X5337759Y8531961D01*
X5324703Y8527491D01*
X5312308Y8521395D01*
X5300776Y8513724D01*
X5290413Y8504631D01*
X5281320Y8494217D01*
X5273649Y8482736D01*
X5267502Y8470341D01*
X5263083Y8457285D01*
X5260390Y8443722D01*
X5259476Y8429904D01*
X5260390Y8416137D01*
X5263083Y8402574D01*
X5267502Y8389518D01*
X5273649Y8377123D01*
X5281320Y8365642D01*
X5288026Y8357920D01*
X5289804Y8355126D01*
X5290566Y8351875D01*
X5289194Y8342426D01*
X5288991Y8337600D01*
X5288991Y7764322D01*
X5288229Y7760411D01*
X5285994Y7757159D01*
X5282742Y7754924D01*
X5278831Y7754162D01*
X5245303Y7754162D01*
X5242102Y7754670D01*
X5239207Y7756194D01*
X5236972Y7758582D01*
X5233822Y7763103D01*
X5224729Y7773212D01*
X5214315Y7782001D01*
X5202834Y7789316D01*
X5190490Y7795056D01*
X5177536Y7799070D01*
X5164124Y7801305D01*
X5150510Y7801762D01*
X5136997Y7800441D01*
X5123738Y7797292D01*
X5111038Y7792364D01*
X5099100Y7785862D01*
X5088178Y7777784D01*
X5078374Y7768336D01*
X5069941Y7757617D01*
X5063032Y7745933D01*
X5057698Y7733436D01*
X5054142Y7720279D01*
X5052314Y7706817D01*
X5052314Y7693202D01*
X5054142Y7679740D01*
X5057698Y7666583D01*
X5063032Y7654086D01*
X5069941Y7642402D01*
X5078374Y7631684D01*
X5088178Y7622235D01*
X5099100Y7614158D01*
X5111038Y7607655D01*
X5123738Y7602728D01*
X5136997Y7599578D01*
X5150510Y7598257D01*
X5164124Y7598714D01*
X5177536Y7600950D01*
X5190490Y7604963D01*
X5202834Y7610703D01*
X5214315Y7618018D01*
X5224729Y7626807D01*
X5233822Y7636916D01*
X5236972Y7641437D01*
X5239207Y7643825D01*
X5242102Y7645349D01*
X5245303Y7645857D01*
X5316524Y7645857D01*
X5320385Y7645095D01*
X5323687Y7642859D01*
X5329428Y7637119D01*
X5331663Y7633817D01*
X5332425Y7629956D01*
X5332425Y7083094D01*
X5331561Y7078980D01*
X5329123Y7075627D01*
X5325516Y7073493D01*
X5321401Y7072985D01*
X5317388Y7074153D01*
X5310632Y7077862D01*
X5299202Y7082129D01*
X5287264Y7084720D01*
X5275072Y7085584D01*
X5262880Y7084720D01*
X5250942Y7082129D01*
X5239461Y7077862D01*
X5228742Y7072020D01*
X5218988Y7064705D01*
X5210352Y7056069D01*
X5208117Y7053122D01*
X5205374Y7050582D01*
X5201869Y7049211D01*
X5198110Y7049211D01*
X5194604Y7050582D01*
X5191861Y7053122D01*
X5189677Y7056069D01*
X5181041Y7064705D01*
X5171236Y7072020D01*
X5160518Y7077862D01*
X5149088Y7082129D01*
X5137150Y7084720D01*
X5124958Y7085584D01*
X5112766Y7084720D01*
X5100828Y7082129D01*
X5089347Y7077862D01*
X5078628Y7072020D01*
X5068874Y7064705D01*
X5060238Y7056069D01*
X5052923Y7046264D01*
X5047030Y7035546D01*
X5042763Y7024116D01*
X5040172Y7012178D01*
X5039309Y6999986D01*
X5040172Y6987794D01*
X5042763Y6975856D01*
X5047030Y6964425D01*
X5052923Y6953707D01*
X5060238Y6943902D01*
X5068874Y6935266D01*
X5078628Y6927951D01*
X5089347Y6922109D01*
X5100828Y6917842D01*
X5112766Y6915200D01*
X5124958Y6914337D01*
X5137150Y6915200D01*
X5149088Y6917842D01*
X5160518Y6922109D01*
X5171236Y6927951D01*
X5181041Y6935266D01*
X5189677Y6943902D01*
X5191861Y6946849D01*
X5194604Y6949389D01*
X5198110Y6950760D01*
X5201869Y6950760D01*
X5205374Y6949389D01*
X5208117Y6946849D01*
X5210352Y6943902D01*
X5218988Y6935266D01*
X5228742Y6927951D01*
X5239461Y6922109D01*
X5250942Y6917842D01*
X5262880Y6915200D01*
X5275072Y6914337D01*
X5287264Y6915200D01*
X5299202Y6917842D01*
X5310632Y6922109D01*
X5317388Y6925767D01*
X5321401Y6926986D01*
X5325516Y6926478D01*
X5329123Y6924344D01*
X5331561Y6920941D01*
X5332425Y6916877D01*
X5332425Y6867093D01*
X5331663Y6863232D01*
X5329428Y6859930D01*
X4825695Y6356146D01*
X4823002Y6354216D01*
X4819802Y6353251D01*
X4816500Y6353352D01*
X4809794Y6354724D01*
X4795977Y6355588D01*
X4782210Y6354724D01*
X4768646Y6352032D01*
X4755591Y6347561D01*
X4743196Y6341465D01*
X4732883Y6334556D01*
X4728819Y6332982D01*
X4724501Y6333236D01*
X4720640Y6335318D01*
X4717999Y6338773D01*
X4717084Y6343040D01*
X4717084Y7436408D01*
X4717846Y7440269D01*
X4720082Y7443571D01*
X4873396Y7596886D01*
X4876190Y7598867D01*
X4879492Y7599832D01*
X4896510Y7598257D01*
X4910124Y7598714D01*
X4917389Y7599934D01*
X4920589Y7599934D01*
X4923637Y7598968D01*
X4926279Y7597089D01*
X4960874Y7562443D01*
X4963109Y7559141D01*
X4963871Y7555280D01*
X4963871Y7183628D01*
X4962753Y7178141D01*
X4961890Y7168388D01*
X4962753Y7158634D01*
X4965293Y7149185D01*
X4969408Y7140346D01*
X4975047Y7132320D01*
X4981956Y7125411D01*
X4989982Y7119772D01*
X4998821Y7115657D01*
X5008270Y7113117D01*
X5018024Y7112253D01*
X5027777Y7113117D01*
X5037226Y7115657D01*
X5046065Y7119772D01*
X5054092Y7125411D01*
X5061000Y7132320D01*
X5066639Y7140346D01*
X5070754Y7149185D01*
X5073294Y7158634D01*
X5074158Y7168388D01*
X5073294Y7178141D01*
X5072176Y7183628D01*
X5072176Y7581696D01*
X5071973Y7586624D01*
X5071364Y7591298D01*
X5070348Y7595920D01*
X5068925Y7600442D01*
X5067096Y7604759D01*
X5064912Y7608976D01*
X5062372Y7612938D01*
X5059476Y7616698D01*
X5056174Y7620355D01*
X5002885Y7673644D01*
X5000955Y7676337D01*
X4999990Y7679537D01*
X5000091Y7682839D01*
X5000853Y7686446D01*
X5001768Y7700009D01*
X5000853Y7713573D01*
X4998110Y7726934D01*
X4993640Y7739786D01*
X4987544Y7751927D01*
X4979822Y7763103D01*
X4970729Y7773212D01*
X4960315Y7782001D01*
X4948834Y7789316D01*
X4936490Y7795056D01*
X4923536Y7799070D01*
X4910124Y7801305D01*
X4896510Y7801762D01*
X4882997Y7800441D01*
X4869738Y7797292D01*
X4857038Y7792364D01*
X4845100Y7785862D01*
X4834178Y7777784D01*
X4824374Y7768336D01*
X4815941Y7757617D01*
X4809032Y7745933D01*
X4803698Y7733436D01*
X4800142Y7720279D01*
X4798314Y7706817D01*
X4798314Y7693202D01*
X4799787Y7682128D01*
X4799736Y7679029D01*
X4798771Y7676083D01*
X4796891Y7673594D01*
X4624781Y7501483D01*
X4621479Y7497825D01*
X4618583Y7494066D01*
X4616043Y7490104D01*
X4613859Y7485888D01*
X4612030Y7481570D01*
X4610608Y7477048D01*
X4609592Y7472425D01*
X4608982Y7467752D01*
X4608779Y7462824D01*
X4608779Y6509816D01*
X4608017Y6505956D01*
X4605782Y6502654D01*
X4602530Y6500469D01*
X4598619Y6499656D01*
X4594707Y6500469D01*
X4591456Y6502654D01*
X4339844Y6754266D01*
X4337608Y6757568D01*
X4336846Y6761429D01*
X4336846Y7285532D01*
X4336643Y7290511D01*
X4336034Y7295134D01*
X4334967Y7299807D01*
X4333595Y7304227D01*
X4331766Y7308646D01*
X4329582Y7312812D01*
X4327042Y7316825D01*
X4324197Y7320534D01*
X4320794Y7324191D01*
X4122165Y7522616D01*
X4119930Y7525918D01*
X4119168Y7530693D01*
X4119727Y7534046D01*
X4121404Y7536992D01*
X4125518Y7540294D01*
X4129532Y7544308D01*
X4132630Y7549184D01*
X4134510Y7554569D01*
X4135221Y7560868D01*
X4135221Y7839100D01*
X4134510Y7845348D01*
X4132630Y7850784D01*
X4129532Y7855610D01*
X4125518Y7859674D01*
X4120642Y7862722D01*
X4115257Y7864652D01*
X4108958Y7865313D01*
X4021226Y7865313D01*
X4014978Y7864652D01*
X4009542Y7862722D01*
X4004716Y7859674D01*
X4000652Y7855610D01*
X3997604Y7850784D01*
X3996436Y7847431D01*
X3994556Y7844180D01*
X3991559Y7841792D01*
X3987952Y7840675D01*
X3984193Y7840980D01*
X3974185Y7843672D01*
X3964432Y7844536D01*
X3954678Y7843672D01*
X3945229Y7841132D01*
X3942638Y7839913D01*
X3938676Y7838948D01*
X3934663Y7839608D01*
X3931259Y7841792D01*
X3928973Y7845145D01*
X3928160Y7849108D01*
X3928160Y8112302D01*
X3928922Y8116163D01*
X3931158Y8119465D01*
X4132986Y8321294D01*
X4136237Y8323478D01*
X4140149Y8324291D01*
X4234789Y8324291D01*
X4248912Y8325205D01*
X4262424Y8327898D01*
X4275531Y8332317D01*
X4287926Y8338464D01*
X4299407Y8346135D01*
X4309821Y8355228D01*
X4318914Y8365642D01*
X4326585Y8377123D01*
X4332681Y8389518D01*
X4337151Y8402574D01*
X4339844Y8416137D01*
X4340758Y8429904D01*
X4339844Y8443722D01*
X4337151Y8457285D01*
X4332681Y8470341D01*
X4326585Y8482736D01*
X4318914Y8494217D01*
X4309821Y8504631D01*
X4299407Y8513724D01*
X4287926Y8521395D01*
X4275531Y8527491D01*
X4262424Y8531961D01*
X4248912Y8534654D01*
X4234789Y8535568D01*
X4229404Y8535568D01*
X4225493Y8536330D01*
X4222242Y8538565D01*
X4220006Y8541867D01*
X4219244Y8545728D01*
X4219244Y9454134D01*
X4220006Y9457994D01*
X4222242Y9461296D01*
X4225493Y9463481D01*
X4229404Y9464294D01*
X4234789Y9464294D01*
X4248912Y9465208D01*
X4262424Y9467900D01*
X4275531Y9472320D01*
X4287926Y9478467D01*
X4299407Y9486138D01*
X4309821Y9495231D01*
X4318914Y9505645D01*
X4326585Y9517126D01*
X4332681Y9529521D01*
X4337151Y9542576D01*
X4339844Y9556140D01*
X4340758Y9569907D01*
X4339844Y9583724D01*
X4337151Y9597288D01*
X4332681Y9610344D01*
X4326585Y9622739D01*
X4318914Y9634220D01*
X4309821Y9644634D01*
X4299407Y9653727D01*
X4287926Y9661398D01*
X4275531Y9667494D01*
X4262424Y9671964D01*
X4248912Y9674656D01*
X4234789Y9675571D01*
X4095445Y9675571D01*
X4081322Y9674656D01*
X4067759Y9671964D01*
X4054703Y9667494D01*
X4042308Y9661398D01*
X4030776Y9653727D01*
X4020413Y9644634D01*
X4011320Y9634220D01*
X4003649Y9622739D01*
X3997502Y9610344D01*
X3993083Y9597288D01*
X3990390Y9583724D01*
X3989476Y9569907D01*
X3990390Y9556140D01*
X3993083Y9542576D01*
X3997502Y9529521D01*
X4003649Y9517126D01*
X4011320Y9505645D01*
X4020413Y9495231D01*
X4030776Y9486138D01*
X4042308Y9478467D01*
X4054703Y9472320D01*
X4067759Y9467900D01*
X4081322Y9465208D01*
X4095445Y9464294D01*
X4100779Y9464294D01*
X4104690Y9463481D01*
X4107942Y9461296D01*
X4110177Y9457994D01*
X4110939Y9454134D01*
X4110939Y8545728D01*
X4110177Y8541867D01*
X4107942Y8538565D01*
X4104690Y8536330D01*
X4100779Y8535568D01*
X4095445Y8535568D01*
X4081322Y8534654D01*
X4067759Y8531961D01*
X4054703Y8527491D01*
X4042308Y8521395D01*
X4030776Y8513724D01*
X4020413Y8504631D01*
X4011320Y8494217D01*
X4003649Y8482736D01*
X3997502Y8470341D01*
X3993083Y8457285D01*
X3990390Y8443722D01*
X3989476Y8429904D01*
X3990390Y8416137D01*
X3993083Y8402574D01*
X3997502Y8389518D01*
X4003598Y8377123D01*
X4011828Y8364880D01*
X4013250Y8361730D01*
X4013504Y8358276D01*
X4012539Y8354923D01*
X4010558Y8352078D01*
X3835857Y8177377D01*
X3832555Y8173720D01*
X3829659Y8169960D01*
X3827119Y8165998D01*
X3824935Y8161781D01*
X3823106Y8157464D01*
X3821684Y8152942D01*
X3820668Y8148320D01*
X3820058Y8143646D01*
X3819855Y8138718D01*
X3819855Y7858302D01*
X3818940Y7854035D01*
X3816299Y7850581D01*
X3812489Y7848498D01*
X3808171Y7848244D01*
X3804107Y7849768D01*
X3801110Y7852867D01*
X3799332Y7855610D01*
X3795318Y7859674D01*
X3790442Y7862722D01*
X3785057Y7864652D01*
X3778758Y7865313D01*
X3691026Y7865313D01*
X3684778Y7864652D01*
X3679342Y7862722D01*
X3674516Y7859674D01*
X3670452Y7855610D01*
X3667404Y7850784D01*
X3665524Y7845348D01*
X3664813Y7839100D01*
X3664813Y7560868D01*
X3665524Y7554569D01*
X3667404Y7549184D01*
X3670452Y7544308D01*
X3674516Y7540294D01*
X3679342Y7537246D01*
X3684778Y7535316D01*
X3691026Y7534605D01*
X3778758Y7534605D01*
X3785057Y7535316D01*
X3790442Y7537246D01*
X3795318Y7540294D01*
X3799332Y7544308D01*
X3801110Y7547102D01*
X3804107Y7550200D01*
X3808171Y7551724D01*
X3812489Y7551420D01*
X3816299Y7549388D01*
X3818940Y7545933D01*
X3819855Y7541666D01*
X3819855Y6727240D01*
X3819093Y6723380D01*
X3816858Y6720078D01*
X3813606Y6717893D01*
X3809695Y6717080D01*
X3805783Y6717893D01*
X3802532Y6720078D01*
X2946501Y7576058D01*
X2944317Y7579359D01*
X2943555Y7583220D01*
X2944266Y7587081D01*
X2946450Y7590383D01*
X2949702Y7592618D01*
X2953562Y7593431D01*
X2957423Y7592720D01*
X2964281Y7590028D01*
X2978353Y7586370D01*
X2992729Y7584592D01*
X3007258Y7584592D01*
X3021685Y7586370D01*
X3035757Y7590028D01*
X3049219Y7595362D01*
X3061970Y7602321D01*
X3073704Y7610906D01*
X3084271Y7620812D01*
X3093567Y7631988D01*
X3101340Y7644282D01*
X3107537Y7657388D01*
X3112008Y7671206D01*
X3114700Y7685481D01*
X3115614Y7699959D01*
X3114700Y7714488D01*
X3111957Y7729067D01*
X3111855Y7732369D01*
X3112820Y7735519D01*
X3114751Y7738160D01*
X3129737Y7753146D01*
X3133547Y7755534D01*
X3137966Y7756093D01*
X3142234Y7754620D01*
X3145434Y7751521D01*
X3147009Y7747304D01*
X3146602Y7742834D01*
X3141980Y7728712D01*
X3139287Y7714488D01*
X3138373Y7699959D01*
X3139287Y7685481D01*
X3141980Y7671206D01*
X3146501Y7657388D01*
X3152648Y7644282D01*
X3160471Y7631988D01*
X3169716Y7620812D01*
X3180283Y7610906D01*
X3192018Y7602321D01*
X3204768Y7595362D01*
X3218281Y7590028D01*
X3232353Y7586370D01*
X3246729Y7584592D01*
X3261258Y7584592D01*
X3275685Y7586370D01*
X3289757Y7590028D01*
X3303219Y7595362D01*
X3315970Y7602321D01*
X3327704Y7610906D01*
X3338271Y7620812D01*
X3347567Y7631988D01*
X3355340Y7644282D01*
X3361537Y7657388D01*
X3366008Y7671206D01*
X3368700Y7685481D01*
X3369614Y7699959D01*
X3368700Y7714488D01*
X3366008Y7728712D01*
X3361537Y7742529D01*
X3355340Y7755686D01*
X3347567Y7767929D01*
X3338271Y7779156D01*
X3327704Y7789062D01*
X3315970Y7797596D01*
X3303219Y7804607D01*
X3289757Y7809941D01*
X3275685Y7813548D01*
X3261258Y7815376D01*
X3246729Y7815376D01*
X3232353Y7813548D01*
X3218281Y7809941D01*
X3211322Y7807198D01*
X3207461Y7806486D01*
X3203600Y7807299D01*
X3200349Y7809534D01*
X3198164Y7812836D01*
X3197453Y7816697D01*
X3198215Y7820558D01*
X3200400Y7823860D01*
X3235756Y7859166D01*
X3239058Y7862824D01*
X3241954Y7866583D01*
X3244494Y7870545D01*
X3246678Y7874762D01*
X3248507Y7879080D01*
X3249930Y7883601D01*
X3250946Y7888224D01*
X3251555Y7892897D01*
X3251758Y7897825D01*
X3251758Y9429038D01*
X3251555Y9433966D01*
X3250946Y9438640D01*
X3249930Y9443262D01*
X3248507Y9447784D01*
X3246678Y9452102D01*
X3244494Y9456318D01*
X3241954Y9460280D01*
X3239160Y9463989D01*
X3232962Y9470440D01*
X3231184Y9473133D01*
X3230270Y9476232D01*
X3230372Y9479432D01*
X3231743Y9486188D01*
X3232607Y9499955D01*
X3231743Y9513773D01*
X3229051Y9527336D01*
X3224580Y9540392D01*
X3218484Y9552787D01*
X3210814Y9564268D01*
X3201670Y9574682D01*
X3191306Y9583775D01*
X3179826Y9591446D01*
X3167430Y9597593D01*
X3154324Y9602012D01*
X3140811Y9604705D01*
X3126994Y9605619D01*
X3113227Y9604705D01*
X3099663Y9602012D01*
X3086557Y9597593D01*
X3074162Y9591446D01*
X3062681Y9583775D01*
X3052318Y9574682D01*
X3043174Y9564268D01*
X3035503Y9552787D01*
X3029407Y9540392D01*
X3024987Y9527336D01*
X3022295Y9513773D01*
X3021380Y9499955D01*
X3022295Y9486188D01*
X3024987Y9472625D01*
X3029407Y9459569D01*
X3035503Y9447174D01*
X3043174Y9435693D01*
X3052318Y9425279D01*
X3062681Y9416186D01*
X3074162Y9408515D01*
X3086557Y9402368D01*
X3099663Y9397949D01*
X3113227Y9395256D01*
X3126994Y9394342D01*
X3132632Y9394698D01*
X3136696Y9394139D01*
X3140252Y9392005D01*
X3142589Y9388602D01*
X3143453Y9384588D01*
X3143453Y9129166D01*
X3142691Y9125254D01*
X3140456Y9121952D01*
X3137103Y9119768D01*
X3133191Y9119006D01*
X3129280Y9119819D01*
X3126028Y9122105D01*
X3121050Y9127185D01*
X3108553Y9138005D01*
X3105912Y9140088D01*
X3092094Y9149486D01*
X3089249Y9151213D01*
X3074466Y9159036D01*
X3071418Y9160408D01*
X3055874Y9166453D01*
X3052673Y9167520D01*
X3036519Y9171736D01*
X3033217Y9172397D01*
X3016707Y9174784D01*
X3013354Y9175089D01*
X2996641Y9175546D01*
X2993288Y9175445D01*
X2976676Y9174022D01*
X2973324Y9173565D01*
X2953715Y9169400D01*
X2937865Y9164218D01*
X2934716Y9162999D01*
X2919526Y9156090D01*
X2916580Y9154515D01*
X2902254Y9145879D01*
X2899511Y9144000D01*
X2886252Y9133789D01*
X2883712Y9131604D01*
X2871774Y9119971D01*
X2869488Y9117482D01*
X2858922Y9104579D01*
X2856941Y9101836D01*
X2847898Y9087815D01*
X2846273Y9084868D01*
X2838907Y9069882D01*
X2837586Y9066784D01*
X2831998Y9051086D01*
X2831033Y9047835D01*
X2826664Y9028277D01*
X2824784Y9011666D01*
X2824581Y9008313D01*
X2824581Y8991650D01*
X2824784Y8988298D01*
X2826664Y8971686D01*
X2831033Y8952128D01*
X2831998Y8948877D01*
X2837586Y8933180D01*
X2838907Y8930081D01*
X2846273Y8915095D01*
X2847898Y8912148D01*
X2856941Y8898128D01*
X2858922Y8895384D01*
X2869488Y8882481D01*
X2871774Y8879992D01*
X2883712Y8868359D01*
X2886252Y8866174D01*
X2899511Y8855964D01*
X2902254Y8854084D01*
X2916580Y8845448D01*
X2919526Y8843873D01*
X2934716Y8836964D01*
X2937865Y8835745D01*
X2953715Y8830564D01*
X2956966Y8829700D01*
X2973324Y8826398D01*
X2976676Y8825941D01*
X2993288Y8824518D01*
X2996641Y8824417D01*
X3013354Y8824874D01*
X3016707Y8825179D01*
X3033217Y8827566D01*
X3036519Y8828227D01*
X3052673Y8832443D01*
X3055874Y8833510D01*
X3071418Y8839555D01*
X3074466Y8840927D01*
X3089249Y8848750D01*
X3092094Y8850477D01*
X3105912Y8859875D01*
X3108553Y8861958D01*
X3121050Y8872778D01*
X3126028Y8877858D01*
X3129280Y8880094D01*
X3133191Y8880906D01*
X3137103Y8880195D01*
X3140456Y8878011D01*
X3142691Y8874658D01*
X3143453Y8870746D01*
X3143453Y7924241D01*
X3142691Y7920380D01*
X3140456Y7917078D01*
X3037941Y7814513D01*
X3035096Y7812531D01*
X3031693Y7811617D01*
X3028238Y7811871D01*
X3021685Y7813548D01*
X3007258Y7815376D01*
X2992729Y7815376D01*
X2978353Y7813548D01*
X2964281Y7809941D01*
X2950768Y7804607D01*
X2938018Y7797596D01*
X2926283Y7789062D01*
X2915716Y7779156D01*
X2906471Y7767929D01*
X2898648Y7755686D01*
X2892501Y7742529D01*
X2887980Y7728712D01*
X2885287Y7714488D01*
X2884373Y7699959D01*
X2885287Y7685481D01*
X2887980Y7671206D01*
X2892552Y7657185D01*
X2892958Y7652766D01*
X2891434Y7648549D01*
X2888183Y7645400D01*
X2883966Y7643977D01*
X2879496Y7644485D01*
X2875686Y7646873D01*
X2860751Y7661859D01*
X2858820Y7664500D01*
X2857855Y7667650D01*
X2857957Y7670952D01*
X2860700Y7685481D01*
X2861614Y7699959D01*
X2860700Y7714488D01*
X2858008Y7728712D01*
X2853537Y7742529D01*
X2847340Y7755686D01*
X2839567Y7767929D01*
X2830271Y7779156D01*
X2819704Y7789062D01*
X2807970Y7797596D01*
X2795219Y7804607D01*
X2781757Y7809941D01*
X2767685Y7813548D01*
X2753258Y7815376D01*
X2738729Y7815376D01*
X2724353Y7813548D01*
X2710281Y7809941D01*
X2696768Y7804607D01*
X2684018Y7797596D01*
X2672283Y7789062D01*
X2661716Y7779156D01*
X2652471Y7767929D01*
X2644648Y7755686D01*
X2638501Y7742529D01*
X2633980Y7728712D01*
X2631287Y7714488D01*
X2630373Y7699959D01*
X2631287Y7685481D01*
X2633980Y7671206D01*
X2638501Y7657388D01*
X2644648Y7644282D01*
X2652471Y7631988D01*
X2661716Y7620812D01*
X2672283Y7610906D01*
X2684018Y7602321D01*
X2696768Y7595362D01*
X2710281Y7590028D01*
X2724353Y7586370D01*
X2738729Y7584592D01*
X2753258Y7584592D01*
X2767685Y7586370D01*
X2774289Y7588097D01*
X2777744Y7588351D01*
X2781147Y7587437D01*
X2783992Y7585456D01*
X3730244Y6639153D01*
X3732479Y6635851D01*
X3733241Y6631990D01*
X3733241Y5019090D01*
X3732479Y5015230D01*
X3730244Y5011928D01*
X3726992Y5009743D01*
X3723081Y5008930D01*
X3719169Y5009743D01*
X3715918Y5011928D01*
X3697732Y5030114D01*
X3695496Y5033416D01*
X3694734Y5037277D01*
X3694734Y6441236D01*
X3694531Y6446164D01*
X3693922Y6450838D01*
X3692906Y6455460D01*
X3691483Y6459982D01*
X3689654Y6464300D01*
X3687470Y6468516D01*
X3684930Y6472478D01*
X3682034Y6476238D01*
X3678732Y6479895D01*
X3346297Y6812330D01*
X3342640Y6815632D01*
X3338880Y6818528D01*
X3334918Y6821068D01*
X3330701Y6823252D01*
X3326384Y6825081D01*
X3321862Y6826503D01*
X3317240Y6827520D01*
X3312566Y6828129D01*
X3307638Y6828332D01*
X3240024Y6828332D01*
X3234537Y6829450D01*
X3224784Y6830314D01*
X3215030Y6829450D01*
X3205581Y6826910D01*
X3196742Y6822795D01*
X3188716Y6817156D01*
X3181807Y6810248D01*
X3176168Y6802221D01*
X3172053Y6793382D01*
X3169513Y6783933D01*
X3168650Y6774180D01*
X3169513Y6764426D01*
X3172053Y6754977D01*
X3176168Y6746138D01*
X3182162Y6737603D01*
X3183686Y6734200D01*
X3183890Y6730492D01*
X3182721Y6726936D01*
X3170123Y6712966D01*
X3162452Y6701790D01*
X3156305Y6689648D01*
X3151835Y6676796D01*
X3149142Y6663436D01*
X3148228Y6649872D01*
X3149142Y6636308D01*
X3149854Y6632702D01*
X3150006Y6629349D01*
X3149041Y6626148D01*
X3147110Y6623456D01*
X3026613Y6502958D01*
X3023768Y6500977D01*
X3020466Y6500063D01*
X3003448Y6501638D01*
X2989834Y6501180D01*
X2976422Y6498945D01*
X2963418Y6494881D01*
X2951124Y6489192D01*
X2939643Y6481876D01*
X2929229Y6473088D01*
X2920136Y6462979D01*
X2912414Y6451752D01*
X2906268Y6439611D01*
X2901848Y6426758D01*
X2899105Y6413449D01*
X2898190Y6399885D01*
X2899105Y6386322D01*
X2901848Y6372961D01*
X2906268Y6360109D01*
X2912414Y6347968D01*
X2920136Y6336792D01*
X2929229Y6326682D01*
X2939643Y6317894D01*
X2951124Y6310579D01*
X2963418Y6304838D01*
X2976422Y6300825D01*
X2989834Y6298539D01*
X3003448Y6298082D01*
X3016961Y6299454D01*
X3030220Y6302603D01*
X3042920Y6307531D01*
X3054858Y6314033D01*
X3065780Y6322110D01*
X3075584Y6331559D01*
X3084017Y6342227D01*
X3090926Y6353962D01*
X3096260Y6366459D01*
X3099816Y6379616D01*
X3101644Y6393078D01*
X3101644Y6406692D01*
X3100171Y6417716D01*
X3100222Y6420815D01*
X3101238Y6423761D01*
X3103067Y6426250D01*
X3223768Y6546951D01*
X3226358Y6548831D01*
X3229406Y6549796D01*
X3232607Y6549796D01*
X3239871Y6548577D01*
X3253435Y6548120D01*
X3266998Y6549491D01*
X3280206Y6552641D01*
X3292906Y6557518D01*
X3304844Y6564071D01*
X3315817Y6572097D01*
X3325571Y6581597D01*
X3334004Y6592265D01*
X3340963Y6603949D01*
X3346246Y6616496D01*
X3349853Y6629603D01*
X3350209Y6632143D01*
X3351733Y6636359D01*
X3354984Y6639458D01*
X3359200Y6640931D01*
X3363671Y6640372D01*
X3367430Y6637985D01*
X3583432Y6421983D01*
X3585667Y6418681D01*
X3586429Y6414820D01*
X3586429Y5010861D01*
X3586632Y5005933D01*
X3587242Y5001260D01*
X3588258Y4996637D01*
X3589680Y4992116D01*
X3591509Y4987798D01*
X3593693Y4983581D01*
X3596233Y4979619D01*
X3599129Y4975860D01*
X3602431Y4972202D01*
X3936847Y4637836D01*
X3939184Y4634128D01*
X3939794Y4629759D01*
X3938473Y4625543D01*
X3935476Y4622292D01*
X3931920Y4619802D01*
X3925011Y4612894D01*
X3919372Y4604867D01*
X3915257Y4596028D01*
X3912717Y4586579D01*
X3911854Y4576826D01*
X3912717Y4567072D01*
X3913835Y4561586D01*
X3913835Y3298393D01*
X3914038Y3293465D01*
X3914648Y3288792D01*
X3915664Y3284169D01*
X3917086Y3279648D01*
X3918915Y3275329D01*
X3921099Y3271113D01*
X3923639Y3267151D01*
X3926535Y3263392D01*
X3929837Y3259734D01*
X4167733Y3021838D01*
X4169664Y3019145D01*
X4170629Y3015996D01*
X4170527Y3012694D01*
X4168851Y3004210D01*
X4167886Y2990088D01*
X4168851Y2975965D01*
X4171594Y2962097D01*
X4176166Y2948686D01*
X4182414Y2935986D01*
X4190237Y2924251D01*
X4199585Y2913583D01*
X4210253Y2904236D01*
X4221988Y2896412D01*
X4234688Y2890164D01*
X4248099Y2885592D01*
X4261967Y2882849D01*
X4276090Y2881884D01*
X4290212Y2882849D01*
X4304080Y2885592D01*
X4317492Y2890164D01*
X4330192Y2896412D01*
X4341926Y2904236D01*
X4352594Y2913583D01*
X4361942Y2924251D01*
X4369765Y2935986D01*
X4376013Y2948686D01*
X4380585Y2962097D01*
X4383328Y2975965D01*
X4384294Y2990088D01*
X4383328Y3004210D01*
X4380585Y3018078D01*
X4376013Y3031490D01*
X4369765Y3044190D01*
X4361942Y3055924D01*
X4352594Y3066592D01*
X4341926Y3075889D01*
X4330192Y3083763D01*
X4317492Y3090011D01*
X4304080Y3094583D01*
X4290212Y3097326D01*
X4276090Y3098292D01*
X4261967Y3097326D01*
X4253484Y3095650D01*
X4250182Y3095548D01*
X4247032Y3096514D01*
X4244340Y3098444D01*
X4205630Y3137154D01*
X4203344Y3140710D01*
X4202684Y3144875D01*
X4203801Y3148990D01*
X4206494Y3152241D01*
X4210253Y3154172D01*
X4214520Y3154324D01*
X4218482Y3152749D01*
X4221988Y3150412D01*
X4234688Y3144164D01*
X4248099Y3139592D01*
X4261967Y3136849D01*
X4276090Y3135884D01*
X4290212Y3136849D01*
X4304080Y3139592D01*
X4317492Y3144164D01*
X4330192Y3150412D01*
X4341926Y3158236D01*
X4352594Y3167583D01*
X4361942Y3178251D01*
X4369765Y3189986D01*
X4376013Y3202686D01*
X4380585Y3216097D01*
X4383328Y3229965D01*
X4384294Y3244088D01*
X4383328Y3258210D01*
X4380585Y3272078D01*
X4376013Y3285490D01*
X4369765Y3298190D01*
X4361942Y3309924D01*
X4352594Y3320592D01*
X4341926Y3329889D01*
X4334764Y3334715D01*
X4332325Y3337001D01*
X4330801Y3339896D01*
X4330242Y3343148D01*
X4330242Y3899458D01*
X4331004Y3903319D01*
X4333240Y3906621D01*
X4373473Y3946855D01*
X4376267Y3948887D01*
X4379569Y3949801D01*
X4396587Y3948226D01*
X4410202Y3948684D01*
X4423613Y3950919D01*
X4436618Y3954932D01*
X4448962Y3960672D01*
X4460392Y3967987D01*
X4470806Y3976776D01*
X4479899Y3986885D01*
X4487621Y3998061D01*
X4493768Y4010202D01*
X4498187Y4023055D01*
X4500930Y4036415D01*
X4501743Y4049064D01*
X4502759Y4052773D01*
X4505045Y4055872D01*
X4508347Y4057904D01*
X4512157Y4058513D01*
X4515916Y4057700D01*
X4519066Y4055567D01*
X4542536Y4032097D01*
X4544771Y4028795D01*
X4545533Y4024934D01*
X4545533Y2666695D01*
X4545736Y2661767D01*
X4546346Y2657094D01*
X4547362Y2652471D01*
X4548784Y2647950D01*
X4550613Y2643632D01*
X4552797Y2639415D01*
X4555337Y2635453D01*
X4558233Y2631694D01*
X4561535Y2628036D01*
X5691733Y1497838D01*
X5693664Y1495145D01*
X5694629Y1491996D01*
X5694527Y1488694D01*
X5692851Y1480210D01*
X5691886Y1466088D01*
X5692851Y1451965D01*
X5695594Y1438097D01*
X5700166Y1424686D01*
X5706414Y1411986D01*
X5714288Y1400251D01*
X5723585Y1389583D01*
X5734253Y1380236D01*
X5745988Y1372412D01*
X5758688Y1366164D01*
X5772099Y1361592D01*
X5785967Y1358849D01*
X5800090Y1357884D01*
X5814212Y1358849D01*
X5828080Y1361592D01*
X5841492Y1366164D01*
X5854192Y1372412D01*
X5865926Y1380236D01*
X5876594Y1389583D01*
X5885942Y1400251D01*
X5893765Y1411986D01*
X5900013Y1424686D01*
X5904585Y1438097D01*
X5907328Y1451965D01*
X5908294Y1466088D01*
X5907328Y1480210D01*
X5904585Y1494078D01*
X5900013Y1507490D01*
X5893765Y1520190D01*
X5885942Y1531924D01*
X5876594Y1542592D01*
X5865926Y1551889D01*
X5854192Y1559763D01*
X5841492Y1566011D01*
X5828080Y1570583D01*
X5814212Y1573326D01*
X5800090Y1574292D01*
X5785967Y1573326D01*
X5777484Y1571650D01*
X5774182Y1571548D01*
X5771032Y1572514D01*
X5768340Y1574444D01*
X5729630Y1613154D01*
X5727344Y1616710D01*
X5726684Y1620875D01*
X5727801Y1624990D01*
X5730494Y1628241D01*
X5734253Y1630172D01*
X5738520Y1630324D01*
X5742482Y1628749D01*
X5745988Y1626412D01*
X5758688Y1620164D01*
X5772099Y1615592D01*
X5785967Y1612849D01*
X5800090Y1611884D01*
X5814212Y1612849D01*
X5828080Y1615592D01*
X5841492Y1620164D01*
X5854192Y1626412D01*
X5865926Y1634236D01*
X5876594Y1643583D01*
X5885942Y1654251D01*
X5893765Y1665986D01*
X5900013Y1678686D01*
X5904585Y1692097D01*
X5907328Y1705965D01*
X5908294Y1720088D01*
X5907328Y1734210D01*
X5905652Y1742693D01*
X5905550Y1745996D01*
X5906516Y1749145D01*
X5908446Y1751838D01*
X5957011Y1800402D01*
X5960313Y1802638D01*
X5964174Y1803400D01*
X5968085Y1802638D01*
X5971387Y1800402D01*
X5973572Y1797100D01*
X5974334Y1793239D01*
X5974334Y35814D01*
X5973572Y31902D01*
X5971387Y28600D01*
X5968085Y26416D01*
X5964174Y25654D01*
X1853844Y25654D01*
X1849628Y26568D01*
X1846173Y29108D01*
X1844090Y32867D01*
X1843735Y37134D01*
X1847443Y47091D01*
X1848154Y53390D01*
X1848154Y302209D01*
X1847443Y308508D01*
X1845513Y313893D01*
X1842465Y318770D01*
X1838452Y322783D01*
X1833575Y325831D01*
X1828190Y327761D01*
X1821891Y328472D01*
X1573072Y328472D01*
X1566773Y327761D01*
X1561388Y325831D01*
X1556512Y322783D01*
X1552498Y318770D01*
X1549450Y313893D01*
X1547520Y308508D01*
X1546809Y302209D01*
X1546809Y53390D01*
X1547520Y47091D01*
X1551228Y37134D01*
X1550873Y32867D01*
X1548790Y29108D01*
X1545336Y26568D01*
X1541119Y25654D01*
X482244Y25654D01*
X478028Y26568D01*
X474573Y29108D01*
X472490Y32867D01*
X472135Y37134D01*
X475843Y47091D01*
X476554Y53390D01*
X476554Y302209D01*
X475843Y308508D01*
X473913Y313893D01*
X470865Y318770D01*
X466851Y322783D01*
X461975Y325831D01*
X456590Y327761D01*
X450291Y328472D01*
X201472Y328472D01*
X195173Y327761D01*
X189788Y325831D01*
X184912Y322783D01*
X180898Y318770D01*
X177850Y313893D01*
X175920Y308508D01*
X175209Y302209D01*
X175209Y53390D01*
X175920Y47091D01*
X179628Y37134D01*
X179273Y32867D01*
X177190Y29108D01*
X173736Y26568D01*
X169519Y25654D01*
G37*

%LPC*%
G36*
X2996641Y74422D02*
G01*
X3013354Y74879D01*
X3016707Y75184D01*
X3033217Y77520D01*
X3052673Y82448D01*
X3055874Y83515D01*
X3071418Y89560D01*
X3074466Y90932D01*
X3089249Y98755D01*
X3092094Y100482D01*
X3105912Y109880D01*
X3108553Y111963D01*
X3121152Y122885D01*
X3123590Y125222D01*
X3134868Y137515D01*
X3137001Y140106D01*
X3146806Y153619D01*
X3148634Y156464D01*
X3158337Y173990D01*
X3164840Y189382D01*
X3165957Y192532D01*
X3170631Y208584D01*
X3171393Y211836D01*
X3174238Y228295D01*
X3174644Y231648D01*
X3175609Y248310D01*
X3175609Y251663D01*
X3174644Y268325D01*
X3174238Y271678D01*
X3171393Y288137D01*
X3170631Y291388D01*
X3165957Y307390D01*
X3164840Y310591D01*
X3158337Y325932D01*
X3156813Y328980D01*
X3148634Y343509D01*
X3146806Y346303D01*
X3137001Y359816D01*
X3134868Y362458D01*
X3123590Y374751D01*
X3121152Y377088D01*
X3108553Y388010D01*
X3105912Y390042D01*
X3092094Y399491D01*
X3089249Y401218D01*
X3074466Y408990D01*
X3071418Y410413D01*
X3055874Y416458D01*
X3052673Y417525D01*
X3036519Y421741D01*
X3033217Y422401D01*
X3016707Y424789D01*
X3013354Y425094D01*
X2996641Y425551D01*
X2993288Y425450D01*
X2976676Y424027D01*
X2973324Y423570D01*
X2953715Y419404D01*
X2937865Y414223D01*
X2934716Y413004D01*
X2919526Y406044D01*
X2916580Y404520D01*
X2902254Y395884D01*
X2899511Y394004D01*
X2883712Y381609D01*
X2871774Y369976D01*
X2869488Y367487D01*
X2858922Y354533D01*
X2856941Y351840D01*
X2846273Y334873D01*
X2838907Y319887D01*
X2837586Y316788D01*
X2831998Y301040D01*
X2831033Y297840D01*
X2826664Y278282D01*
X2824784Y261670D01*
X2824581Y258317D01*
X2824581Y241655D01*
X2824784Y238252D01*
X2826664Y221691D01*
X2831033Y202133D01*
X2831998Y198882D01*
X2837586Y183184D01*
X2838907Y180086D01*
X2846273Y165100D01*
X2847949Y162153D01*
X2856941Y148132D01*
X2858922Y145389D01*
X2869488Y132486D01*
X2871774Y129997D01*
X2883712Y118364D01*
X2899511Y105968D01*
X2902254Y104089D01*
X2916580Y95453D01*
X2919526Y93878D01*
X2934716Y86969D01*
X2937865Y85750D01*
X2953715Y80568D01*
X2956966Y79705D01*
X2973324Y76403D01*
X2976676Y75946D01*
X2993288Y74523D01*
G37*
G36*
X4276090Y341884D02*
G01*
X4290212Y342849D01*
X4304080Y345592D01*
X4317492Y350164D01*
X4330192Y356412D01*
X4341926Y364236D01*
X4352594Y373583D01*
X4361942Y384251D01*
X4369765Y395986D01*
X4376013Y408686D01*
X4380585Y422097D01*
X4383328Y435965D01*
X4384294Y450088D01*
X4383328Y464210D01*
X4380585Y478078D01*
X4376013Y491490D01*
X4369765Y504190D01*
X4361942Y515924D01*
X4352594Y526592D01*
X4341926Y535889D01*
X4330192Y543763D01*
X4317492Y550011D01*
X4304080Y554583D01*
X4290212Y557326D01*
X4276090Y558292D01*
X4261967Y557326D01*
X4248099Y554583D01*
X4234688Y550011D01*
X4221988Y543763D01*
X4210253Y535889D01*
X4199585Y526592D01*
X4190237Y515924D01*
X4182414Y504190D01*
X4176166Y491490D01*
X4171594Y478078D01*
X4168851Y464210D01*
X4167886Y450088D01*
X4168851Y435965D01*
X4171594Y422097D01*
X4176166Y408686D01*
X4182414Y395986D01*
X4190237Y384251D01*
X4199585Y373583D01*
X4210253Y364236D01*
X4221988Y356412D01*
X4234688Y350164D01*
X4248099Y345592D01*
X4261967Y342849D01*
G37*
G36*
X5718098Y341884D02*
G01*
X5882081Y341884D01*
X5888329Y342595D01*
X5893765Y344474D01*
X5898591Y347522D01*
X5902655Y351586D01*
X5905703Y356412D01*
X5907582Y361848D01*
X5908294Y368096D01*
X5908294Y532079D01*
X5907582Y538327D01*
X5905703Y543763D01*
X5902655Y548589D01*
X5898591Y552653D01*
X5893765Y555701D01*
X5888329Y557580D01*
X5882081Y558292D01*
X5718098Y558292D01*
X5711850Y557580D01*
X5706414Y555701D01*
X5701588Y552653D01*
X5697524Y548589D01*
X5694476Y543763D01*
X5692597Y538327D01*
X5691886Y532079D01*
X5691886Y368096D01*
X5692597Y361848D01*
X5694476Y356412D01*
X5697524Y351586D01*
X5701588Y347522D01*
X5706414Y344474D01*
X5711850Y342595D01*
G37*
G36*
X4276090Y595884D02*
G01*
X4290212Y596849D01*
X4304080Y599592D01*
X4317492Y604164D01*
X4330192Y610412D01*
X4341926Y618236D01*
X4352594Y627583D01*
X4361942Y638251D01*
X4369765Y649986D01*
X4376013Y662686D01*
X4380585Y676097D01*
X4383328Y689965D01*
X4384294Y704088D01*
X4383328Y718210D01*
X4380585Y732078D01*
X4376013Y745490D01*
X4369765Y758190D01*
X4361942Y769924D01*
X4352594Y780592D01*
X4341926Y789889D01*
X4330192Y797763D01*
X4317492Y804011D01*
X4304080Y808583D01*
X4290212Y811326D01*
X4276090Y812292D01*
X4261967Y811326D01*
X4248099Y808583D01*
X4234688Y804011D01*
X4221988Y797763D01*
X4210253Y789889D01*
X4199585Y780592D01*
X4190237Y769924D01*
X4182414Y758190D01*
X4176166Y745490D01*
X4171594Y732078D01*
X4168851Y718210D01*
X4167886Y704088D01*
X4168851Y689965D01*
X4171594Y676097D01*
X4176166Y662686D01*
X4182414Y649986D01*
X4190237Y638251D01*
X4199585Y627583D01*
X4210253Y618236D01*
X4221988Y610412D01*
X4234688Y604164D01*
X4248099Y599592D01*
X4261967Y596849D01*
G37*
G36*
X5800090Y595884D02*
G01*
X5814212Y596849D01*
X5828080Y599592D01*
X5841492Y604164D01*
X5854192Y610412D01*
X5865926Y618236D01*
X5876594Y627583D01*
X5885942Y638251D01*
X5893765Y649986D01*
X5900013Y662686D01*
X5904585Y676097D01*
X5907328Y689965D01*
X5908294Y704088D01*
X5907328Y718210D01*
X5904585Y732078D01*
X5900013Y745490D01*
X5893765Y758190D01*
X5885942Y769924D01*
X5876594Y780592D01*
X5865926Y789889D01*
X5854192Y797763D01*
X5841492Y804011D01*
X5828080Y808583D01*
X5814212Y811326D01*
X5800090Y812292D01*
X5785967Y811326D01*
X5772099Y808583D01*
X5758688Y804011D01*
X5745988Y797763D01*
X5734253Y789889D01*
X5723585Y780592D01*
X5714288Y769924D01*
X5706414Y758190D01*
X5700166Y745490D01*
X5695594Y732078D01*
X5692851Y718210D01*
X5691886Y704088D01*
X5692851Y689965D01*
X5695594Y676097D01*
X5700166Y662686D01*
X5706414Y649986D01*
X5714288Y638251D01*
X5723585Y627583D01*
X5734253Y618236D01*
X5745988Y610412D01*
X5758688Y604164D01*
X5772099Y599592D01*
X5785967Y596849D01*
G37*
G36*
X2406853Y617067D02*
G01*
X2526334Y617067D01*
X2544368Y617982D01*
X2561945Y620674D01*
X2579166Y625144D01*
X2595880Y631342D01*
X2611831Y639165D01*
X2626918Y648563D01*
X2640990Y659485D01*
X2653893Y671728D01*
X2665476Y685241D01*
X2675636Y699820D01*
X2684272Y715365D01*
X2691282Y731723D01*
X2696616Y748690D01*
X2700223Y766114D01*
X2702001Y783844D01*
X2702001Y801624D01*
X2700223Y819353D01*
X2696616Y836777D01*
X2691282Y853744D01*
X2684272Y870102D01*
X2675636Y885647D01*
X2665476Y900226D01*
X2653893Y913739D01*
X2651658Y915873D01*
X2649372Y919175D01*
X2648508Y923086D01*
X2649220Y926998D01*
X2651404Y930351D01*
X2654706Y932586D01*
X2658668Y933399D01*
X2807919Y933399D01*
X2811881Y932586D01*
X2815183Y930351D01*
X2817368Y926998D01*
X2818079Y923086D01*
X2817215Y919175D01*
X2814929Y915873D01*
X2812694Y913739D01*
X2801112Y900226D01*
X2790952Y885647D01*
X2782316Y870102D01*
X2775305Y853744D01*
X2769971Y836777D01*
X2766364Y819353D01*
X2764586Y801624D01*
X2764586Y783844D01*
X2766364Y766114D01*
X2769971Y748690D01*
X2775305Y731723D01*
X2782316Y715365D01*
X2790952Y699820D01*
X2801112Y685241D01*
X2812694Y671728D01*
X2825597Y659485D01*
X2839669Y648563D01*
X2854756Y639165D01*
X2870708Y631342D01*
X2887421Y625144D01*
X2904642Y620674D01*
X2922219Y617982D01*
X2940253Y617067D01*
X3059734Y617067D01*
X3077768Y617982D01*
X3095345Y620674D01*
X3112566Y625144D01*
X3129280Y631342D01*
X3145231Y639165D01*
X3160318Y648563D01*
X3174390Y659485D01*
X3187293Y671728D01*
X3198876Y685241D01*
X3209036Y699820D01*
X3217672Y715365D01*
X3224682Y731723D01*
X3230016Y748690D01*
X3233623Y766114D01*
X3235401Y783844D01*
X3235401Y801624D01*
X3233623Y819353D01*
X3230016Y836777D01*
X3224682Y853744D01*
X3217672Y870102D01*
X3209036Y885647D01*
X3198876Y900226D01*
X3187293Y913739D01*
X3185058Y915873D01*
X3182772Y919175D01*
X3181908Y923086D01*
X3182620Y926998D01*
X3184804Y930351D01*
X3188106Y932586D01*
X3192068Y933399D01*
X3311956Y933399D01*
X3315817Y932637D01*
X3319119Y930402D01*
X3334664Y914857D01*
X3336798Y911758D01*
X3337661Y908050D01*
X3337102Y904341D01*
X3334512Y900226D01*
X3324351Y885647D01*
X3315715Y870102D01*
X3308705Y853744D01*
X3303371Y836777D01*
X3299764Y819353D01*
X3297986Y801624D01*
X3297986Y783844D01*
X3299764Y766114D01*
X3303371Y748690D01*
X3308705Y731723D01*
X3315715Y715365D01*
X3324351Y699820D01*
X3334512Y685241D01*
X3346094Y671728D01*
X3358997Y659485D01*
X3373069Y648563D01*
X3388156Y639165D01*
X3404108Y631342D01*
X3420821Y625144D01*
X3438042Y620674D01*
X3455619Y617982D01*
X3473653Y617067D01*
X3593134Y617067D01*
X3611168Y617982D01*
X3628745Y620674D01*
X3645966Y625144D01*
X3662679Y631342D01*
X3678631Y639165D01*
X3693718Y648563D01*
X3707790Y659485D01*
X3720693Y671728D01*
X3732276Y685241D01*
X3742436Y699820D01*
X3751072Y715365D01*
X3758082Y731723D01*
X3763416Y748690D01*
X3767023Y766114D01*
X3768801Y783844D01*
X3768801Y801624D01*
X3767023Y819353D01*
X3763416Y836777D01*
X3758082Y853744D01*
X3751072Y870102D01*
X3742436Y885647D01*
X3732276Y900226D01*
X3720693Y913739D01*
X3707790Y925982D01*
X3693718Y936904D01*
X3678631Y946302D01*
X3662679Y954125D01*
X3645966Y960323D01*
X3628745Y964793D01*
X3611168Y967486D01*
X3593134Y968400D01*
X3473653Y968400D01*
X3455619Y967486D01*
X3443020Y965555D01*
X3439871Y965555D01*
X3436874Y966520D01*
X3434334Y968400D01*
X3424174Y978560D01*
X3421989Y981811D01*
X3421176Y985723D01*
X3421989Y989634D01*
X3424174Y992886D01*
X3427476Y995121D01*
X3431336Y995883D01*
X3668826Y995883D01*
X3673754Y996086D01*
X3678428Y996696D01*
X3683050Y997712D01*
X3687572Y999134D01*
X3691890Y1000963D01*
X3696106Y1003147D01*
X3700068Y1005687D01*
X3703828Y1008583D01*
X3707485Y1011885D01*
X3841292Y1145692D01*
X3844594Y1149350D01*
X3847490Y1153109D01*
X3850030Y1157071D01*
X3852214Y1161288D01*
X3854043Y1165606D01*
X3855465Y1170127D01*
X3856482Y1174750D01*
X3857091Y1179423D01*
X3857294Y1184351D01*
X3857294Y1437182D01*
X3857091Y1442110D01*
X3856482Y1446784D01*
X3855465Y1451406D01*
X3854043Y1455928D01*
X3852214Y1460246D01*
X3850030Y1464462D01*
X3847490Y1468424D01*
X3844594Y1472184D01*
X3841292Y1475841D01*
X3732123Y1585010D01*
X3729990Y1588109D01*
X3729126Y1591818D01*
X3729685Y1595526D01*
X3732276Y1599641D01*
X3742436Y1614220D01*
X3751072Y1629765D01*
X3758082Y1646123D01*
X3763416Y1663090D01*
X3767023Y1680514D01*
X3768801Y1698243D01*
X3768801Y1716024D01*
X3767023Y1733753D01*
X3763416Y1751177D01*
X3758082Y1768144D01*
X3751072Y1784502D01*
X3742436Y1800047D01*
X3732276Y1814626D01*
X3720693Y1828139D01*
X3707790Y1840382D01*
X3693718Y1851304D01*
X3678631Y1860702D01*
X3662679Y1868525D01*
X3645966Y1874723D01*
X3628745Y1879193D01*
X3611168Y1881886D01*
X3593134Y1882800D01*
X3473653Y1882800D01*
X3455619Y1881886D01*
X3438042Y1879193D01*
X3420821Y1874723D01*
X3404108Y1868525D01*
X3388156Y1860702D01*
X3373069Y1851304D01*
X3358997Y1840382D01*
X3346094Y1828139D01*
X3343046Y1824583D01*
X3339795Y1822094D01*
X3335832Y1821078D01*
X3331819Y1821688D01*
X3328314Y1823821D01*
X3325977Y1827174D01*
X3325164Y1831187D01*
X3325164Y3130092D01*
X3324961Y3135020D01*
X3324351Y3139694D01*
X3323336Y3144316D01*
X3321913Y3148838D01*
X3320084Y3153156D01*
X3317900Y3157372D01*
X3315360Y3161334D01*
X3312464Y3165094D01*
X3309162Y3168751D01*
X2903982Y3573932D01*
X2901746Y3577234D01*
X2900984Y3581095D01*
X2900984Y4684064D01*
X2900781Y4688992D01*
X2900172Y4693666D01*
X2899156Y4698288D01*
X2897733Y4702810D01*
X2895904Y4707128D01*
X2893720Y4711344D01*
X2891180Y4715306D01*
X2888284Y4719066D01*
X2884982Y4722723D01*
X2426716Y5180990D01*
X2424480Y5184292D01*
X2423718Y5188153D01*
X2423718Y5253939D01*
X2424480Y5257800D01*
X2426716Y5261102D01*
X2429967Y5263286D01*
X2433878Y5264099D01*
X2437790Y5263286D01*
X2441041Y5261102D01*
X2949194Y4752949D01*
X2951429Y4749647D01*
X2952191Y4745786D01*
X2952191Y3778707D01*
X2952394Y3773779D01*
X2953004Y3769106D01*
X2954020Y3764483D01*
X2955442Y3759962D01*
X2957271Y3755644D01*
X2959455Y3751427D01*
X2961995Y3747465D01*
X2964891Y3743706D01*
X2968193Y3740048D01*
X3446424Y3261817D01*
X3450082Y3258515D01*
X3453739Y3255670D01*
X3459124Y3252368D01*
X3462020Y3249676D01*
X3463696Y3246120D01*
X3463848Y3242157D01*
X3462477Y3238449D01*
X3459835Y3235553D01*
X3449269Y3227730D01*
X3439464Y3218281D01*
X3431032Y3207613D01*
X3424123Y3195929D01*
X3418789Y3183382D01*
X3415182Y3170275D01*
X3413404Y3156762D01*
X3413404Y3143199D01*
X3415182Y3129686D01*
X3418789Y3116580D01*
X3424123Y3104032D01*
X3431032Y3092348D01*
X3439464Y3081680D01*
X3449269Y3072231D01*
X3460191Y3064154D01*
X3472129Y3057601D01*
X3484829Y3052724D01*
X3498037Y3049574D01*
X3511600Y3048203D01*
X3525164Y3048660D01*
X3538626Y3050946D01*
X3551580Y3054959D01*
X3563924Y3060700D01*
X3575405Y3068015D01*
X3585768Y3076803D01*
X3594912Y3086862D01*
X3602634Y3098088D01*
X3608730Y3110230D01*
X3613200Y3123082D01*
X3613912Y3126486D01*
X3615639Y3130448D01*
X3618890Y3133344D01*
X3623056Y3134563D01*
X3627374Y3134004D01*
X3631031Y3131616D01*
X4048760Y2714091D01*
X4050995Y2710789D01*
X4051757Y2706878D01*
X4051757Y2398471D01*
X4051960Y2393543D01*
X4052570Y2388870D01*
X4053586Y2384247D01*
X4055008Y2379726D01*
X4056837Y2375408D01*
X4059021Y2371191D01*
X4061561Y2367229D01*
X4064457Y2363470D01*
X4067759Y2359812D01*
X4167733Y2259838D01*
X4169664Y2257145D01*
X4170629Y2253996D01*
X4170527Y2250694D01*
X4168851Y2242210D01*
X4167886Y2228088D01*
X4168851Y2213965D01*
X4171594Y2200097D01*
X4176166Y2186686D01*
X4182414Y2173986D01*
X4190237Y2162251D01*
X4199585Y2151583D01*
X4210253Y2142236D01*
X4221988Y2134412D01*
X4234688Y2128164D01*
X4248099Y2123592D01*
X4261967Y2120849D01*
X4276090Y2119884D01*
X4290212Y2120849D01*
X4304080Y2123592D01*
X4317492Y2128164D01*
X4330192Y2134412D01*
X4341926Y2142236D01*
X4352594Y2151583D01*
X4361942Y2162251D01*
X4369765Y2173986D01*
X4376013Y2186686D01*
X4380585Y2200097D01*
X4383328Y2213965D01*
X4384294Y2228088D01*
X4383328Y2242210D01*
X4380585Y2256078D01*
X4376013Y2269490D01*
X4369765Y2282190D01*
X4361942Y2293924D01*
X4352594Y2304592D01*
X4341926Y2313889D01*
X4330192Y2321763D01*
X4317492Y2328011D01*
X4304080Y2332583D01*
X4290212Y2335326D01*
X4276090Y2336292D01*
X4261967Y2335326D01*
X4253484Y2333650D01*
X4250182Y2333548D01*
X4247032Y2334514D01*
X4244340Y2336444D01*
X4205630Y2375154D01*
X4203344Y2378710D01*
X4202684Y2382875D01*
X4203801Y2386990D01*
X4206494Y2390241D01*
X4210253Y2392172D01*
X4214520Y2392324D01*
X4218482Y2390749D01*
X4221988Y2388412D01*
X4234688Y2382164D01*
X4248099Y2377592D01*
X4261967Y2374849D01*
X4276090Y2373884D01*
X4290212Y2374849D01*
X4304080Y2377592D01*
X4317492Y2382164D01*
X4330192Y2388412D01*
X4341926Y2396236D01*
X4352594Y2405583D01*
X4361942Y2416251D01*
X4369765Y2427986D01*
X4376013Y2440686D01*
X4380585Y2454097D01*
X4383328Y2467965D01*
X4384294Y2482088D01*
X4383328Y2496210D01*
X4380585Y2510078D01*
X4376013Y2523490D01*
X4369765Y2536190D01*
X4361942Y2547924D01*
X4352594Y2558592D01*
X4341926Y2567889D01*
X4330192Y2575763D01*
X4317492Y2582011D01*
X4304080Y2586583D01*
X4290212Y2589326D01*
X4276090Y2590292D01*
X4261967Y2589326D01*
X4248099Y2586583D01*
X4234688Y2582011D01*
X4221988Y2575763D01*
X4210253Y2567889D01*
X4199585Y2558592D01*
X4190237Y2547924D01*
X4182414Y2536190D01*
X4179315Y2529941D01*
X4176522Y2526487D01*
X4172407Y2524556D01*
X4167936Y2524556D01*
X4163872Y2526538D01*
X4161078Y2530043D01*
X4160062Y2534462D01*
X4160062Y2683713D01*
X4161078Y2688132D01*
X4163872Y2691638D01*
X4167936Y2693619D01*
X4172407Y2693619D01*
X4176522Y2691688D01*
X4179315Y2688234D01*
X4182414Y2681986D01*
X4190237Y2670251D01*
X4199585Y2659583D01*
X4210253Y2650236D01*
X4221988Y2642412D01*
X4234688Y2636164D01*
X4248099Y2631592D01*
X4261967Y2628849D01*
X4276090Y2627884D01*
X4290212Y2628849D01*
X4304080Y2631592D01*
X4317492Y2636164D01*
X4330192Y2642412D01*
X4341926Y2650236D01*
X4352594Y2659583D01*
X4361942Y2670251D01*
X4369765Y2681986D01*
X4376013Y2694686D01*
X4380585Y2708097D01*
X4383328Y2721965D01*
X4384294Y2736088D01*
X4383328Y2750210D01*
X4380585Y2764078D01*
X4376013Y2777490D01*
X4369765Y2790190D01*
X4361942Y2801924D01*
X4352594Y2812592D01*
X4341926Y2821889D01*
X4330192Y2829763D01*
X4317492Y2836011D01*
X4304080Y2840583D01*
X4290212Y2843326D01*
X4276090Y2844292D01*
X4261967Y2843326D01*
X4248099Y2840583D01*
X4234688Y2836011D01*
X4221988Y2829763D01*
X4210253Y2821889D01*
X4199585Y2812592D01*
X4190237Y2801924D01*
X4182414Y2790190D01*
X4176166Y2777490D01*
X4171543Y2763774D01*
X4170019Y2760065D01*
X4167174Y2757271D01*
X4163466Y2755798D01*
X4159453Y2755849D01*
X4155795Y2757424D01*
X4153001Y2760319D01*
X4150258Y2764637D01*
X4147362Y2768346D01*
X4144060Y2772003D01*
X3577691Y3338118D01*
X3574034Y3341420D01*
X3567734Y3345942D01*
X3564788Y3348786D01*
X3563213Y3352495D01*
X3563213Y3356559D01*
X3564788Y3360267D01*
X3567734Y3363112D01*
X3575405Y3367989D01*
X3585768Y3376777D01*
X3594912Y3386886D01*
X3602634Y3398062D01*
X3606393Y3405530D01*
X3559454Y3405530D01*
X3559454Y3363468D01*
X3558540Y3359251D01*
X3556000Y3355797D01*
X3552240Y3353714D01*
X3547973Y3353358D01*
X3543960Y3353917D01*
X3539032Y3354120D01*
X3511499Y3354120D01*
X3507638Y3354882D01*
X3504336Y3357118D01*
X3473500Y3387902D01*
X3471316Y3391204D01*
X3470554Y3395116D01*
X3470554Y3405530D01*
X3460089Y3405530D01*
X3456228Y3406292D01*
X3452926Y3408527D01*
X3063494Y3797960D01*
X3061258Y3801262D01*
X3060496Y3805123D01*
X3060496Y4772202D01*
X3060293Y4777130D01*
X3059684Y4781804D01*
X3058668Y4786426D01*
X3057245Y4790948D01*
X3055416Y4795266D01*
X3053232Y4799482D01*
X3050692Y4803444D01*
X3047796Y4807204D01*
X3044494Y4810861D01*
X2576626Y5278729D01*
X2574391Y5282031D01*
X2573629Y5285892D01*
X2573629Y5298643D01*
X2560929Y5298643D01*
X2557018Y5299405D01*
X2553716Y5301589D01*
X2500122Y5355234D01*
X2497886Y5358536D01*
X2497124Y5362397D01*
X2497124Y5470956D01*
X2496921Y5475884D01*
X2496312Y5480558D01*
X2495296Y5485180D01*
X2493873Y5489702D01*
X2492044Y5494020D01*
X2489860Y5498236D01*
X2487320Y5502198D01*
X2484424Y5505958D01*
X2481122Y5509615D01*
X2471521Y5519166D01*
X2465120Y5528056D01*
X2458212Y5534964D01*
X2450185Y5540603D01*
X2441346Y5544718D01*
X2431897Y5547258D01*
X2422144Y5548122D01*
X2412390Y5547258D01*
X2402941Y5544718D01*
X2394102Y5540603D01*
X2386076Y5534964D01*
X2379167Y5528056D01*
X2373528Y5520029D01*
X2370429Y5513374D01*
X2368143Y5510276D01*
X2364892Y5508193D01*
X2361082Y5507532D01*
X2357272Y5508345D01*
X2353310Y5511241D01*
X2351074Y5514543D01*
X2350312Y5518454D01*
X2350312Y7394752D01*
X2350109Y7399629D01*
X2349500Y7404353D01*
X2348484Y7408925D01*
X2347061Y7413498D01*
X2345232Y7417816D01*
X2343048Y7422032D01*
X2340508Y7425994D01*
X2337612Y7429753D01*
X2334310Y7433411D01*
X2250490Y7517282D01*
X2248306Y7520584D01*
X2247544Y7524445D01*
X2248306Y7528356D01*
X2250490Y7531658D01*
X2253792Y7533843D01*
X2257704Y7534605D01*
X2308961Y7534605D01*
X2315260Y7535316D01*
X2320645Y7537246D01*
X2325522Y7540294D01*
X2329535Y7544308D01*
X2332583Y7549184D01*
X2334514Y7554569D01*
X2335225Y7560868D01*
X2335225Y7839100D01*
X2334514Y7845348D01*
X2332583Y7850784D01*
X2329535Y7855610D01*
X2325522Y7859674D01*
X2320645Y7862722D01*
X2315260Y7864652D01*
X2308961Y7865313D01*
X2221230Y7865313D01*
X2214981Y7864652D01*
X2209546Y7862722D01*
X2204720Y7859674D01*
X2200656Y7855610D01*
X2197608Y7850784D01*
X2195677Y7845348D01*
X2195017Y7839100D01*
X2195017Y7597394D01*
X2194204Y7593482D01*
X2192020Y7590180D01*
X2188718Y7587996D01*
X2184857Y7587234D01*
X2180945Y7587996D01*
X2177643Y7590180D01*
X2083562Y7684414D01*
X2081326Y7687716D01*
X2080564Y7691577D01*
X2080564Y8238286D01*
X2080361Y8243214D01*
X2079752Y8247888D01*
X2078736Y8252510D01*
X2077313Y8257031D01*
X2075484Y8261350D01*
X2073300Y8265566D01*
X2070760Y8269528D01*
X2067864Y8273288D01*
X2064562Y8276945D01*
X1989429Y8352028D01*
X1987448Y8354872D01*
X1986534Y8358225D01*
X1986788Y8361730D01*
X1988210Y8364880D01*
X1996389Y8377123D01*
X2002485Y8389518D01*
X2006955Y8402574D01*
X2009648Y8416137D01*
X2010562Y8429904D01*
X2009648Y8443722D01*
X2006955Y8457285D01*
X2002485Y8470341D01*
X1996389Y8482736D01*
X1988718Y8494217D01*
X1979625Y8504631D01*
X1969211Y8513724D01*
X1957730Y8521395D01*
X1945335Y8527491D01*
X1932228Y8531961D01*
X1918716Y8534654D01*
X1904593Y8535568D01*
X1899208Y8535568D01*
X1895297Y8536330D01*
X1892046Y8538565D01*
X1889810Y8541867D01*
X1889048Y8545728D01*
X1889048Y9454134D01*
X1889810Y9457994D01*
X1892046Y9461296D01*
X1895297Y9463481D01*
X1899208Y9464294D01*
X1904593Y9464294D01*
X1918716Y9465208D01*
X1932228Y9467900D01*
X1945335Y9472320D01*
X1957730Y9478467D01*
X1969211Y9486138D01*
X1979625Y9495231D01*
X1988718Y9505645D01*
X1996389Y9517126D01*
X2002485Y9529521D01*
X2006955Y9542576D01*
X2009648Y9556140D01*
X2010562Y9569907D01*
X2009648Y9583724D01*
X2006955Y9597288D01*
X2002485Y9610344D01*
X1996389Y9622739D01*
X1988718Y9634220D01*
X1979625Y9644634D01*
X1969211Y9653727D01*
X1957730Y9661398D01*
X1945335Y9667494D01*
X1932228Y9671964D01*
X1918716Y9674656D01*
X1904593Y9675571D01*
X1765249Y9675571D01*
X1751126Y9674656D01*
X1737563Y9671964D01*
X1724507Y9667494D01*
X1712112Y9661398D01*
X1700580Y9653727D01*
X1690217Y9644634D01*
X1681124Y9634220D01*
X1673453Y9622739D01*
X1667306Y9610344D01*
X1662887Y9597288D01*
X1660194Y9583724D01*
X1659280Y9569907D01*
X1660194Y9556140D01*
X1662887Y9542576D01*
X1667306Y9529521D01*
X1673453Y9517126D01*
X1681124Y9505645D01*
X1690217Y9495231D01*
X1700580Y9486138D01*
X1712112Y9478467D01*
X1724507Y9472320D01*
X1737563Y9467900D01*
X1751126Y9465208D01*
X1765249Y9464294D01*
X1770583Y9464294D01*
X1774494Y9463481D01*
X1777746Y9461296D01*
X1779981Y9457994D01*
X1780743Y9454134D01*
X1780743Y8545728D01*
X1779981Y8541867D01*
X1777746Y8538565D01*
X1774494Y8536330D01*
X1770583Y8535568D01*
X1765249Y8535568D01*
X1751126Y8534654D01*
X1737563Y8531961D01*
X1724507Y8527491D01*
X1712112Y8521395D01*
X1700580Y8513724D01*
X1690217Y8504631D01*
X1681124Y8494217D01*
X1673453Y8482736D01*
X1667306Y8470341D01*
X1662887Y8457285D01*
X1660194Y8443722D01*
X1659280Y8429904D01*
X1660194Y8416137D01*
X1662887Y8402574D01*
X1667306Y8389518D01*
X1673453Y8377123D01*
X1681124Y8365642D01*
X1690217Y8355228D01*
X1700580Y8346135D01*
X1712112Y8338464D01*
X1724507Y8332317D01*
X1737563Y8327898D01*
X1751126Y8325205D01*
X1765249Y8324291D01*
X1859838Y8324291D01*
X1863750Y8323478D01*
X1867001Y8321294D01*
X1969262Y8219033D01*
X1971497Y8215731D01*
X1972259Y8211870D01*
X1972259Y7875473D01*
X1971497Y7871612D01*
X1969262Y7868310D01*
X1966010Y7866125D01*
X1962099Y7865313D01*
X1891030Y7865313D01*
X1884781Y7864652D01*
X1879346Y7862722D01*
X1874520Y7859674D01*
X1870456Y7855610D01*
X1867407Y7850784D01*
X1865477Y7845348D01*
X1864817Y7839100D01*
X1864817Y7560868D01*
X1865477Y7554569D01*
X1867407Y7549184D01*
X1870456Y7544308D01*
X1874520Y7540294D01*
X1878584Y7537043D01*
X1880260Y7534046D01*
X1880819Y7530693D01*
X1880819Y7503363D01*
X1881022Y7498486D01*
X1881632Y7493762D01*
X1882648Y7489190D01*
X1884070Y7484618D01*
X1885899Y7480300D01*
X1888083Y7476083D01*
X1890623Y7472121D01*
X1893519Y7468362D01*
X1896821Y7464755D01*
X2096770Y7264501D01*
X2099005Y7261250D01*
X2099767Y7257338D01*
X2099767Y5895949D01*
X2099208Y5892698D01*
X2097684Y5889752D01*
X2095246Y5887516D01*
X2089708Y5883808D01*
X2079294Y5874664D01*
X2070201Y5864301D01*
X2062530Y5852820D01*
X2056434Y5840425D01*
X2051964Y5827318D01*
X2049272Y5813755D01*
X2048357Y5799988D01*
X2049272Y5786170D01*
X2051964Y5772658D01*
X2056434Y5759551D01*
X2062530Y5747156D01*
X2070201Y5735675D01*
X2079294Y5725312D01*
X2089708Y5716168D01*
X2095246Y5712460D01*
X2097684Y5710224D01*
X2099208Y5707278D01*
X2099767Y5704027D01*
X2099767Y5493969D01*
X2099970Y5489041D01*
X2100580Y5484368D01*
X2101596Y5479745D01*
X2103018Y5475224D01*
X2104847Y5470906D01*
X2107031Y5466689D01*
X2109571Y5462727D01*
X2112467Y5458968D01*
X2115769Y5455310D01*
X2148941Y5422188D01*
X2151075Y5418988D01*
X2151888Y5415229D01*
X2151227Y5411419D01*
X2149246Y5408117D01*
X2146147Y5405831D01*
X2142388Y5404866D01*
X2140204Y5404713D01*
X2126640Y5402021D01*
X2113584Y5397550D01*
X2101189Y5391454D01*
X2089708Y5383784D01*
X2079294Y5374690D01*
X2070201Y5364276D01*
X2062530Y5352796D01*
X2056434Y5340400D01*
X2051964Y5327294D01*
X2049272Y5313781D01*
X2048357Y5299964D01*
X2049272Y5286197D01*
X2051964Y5272633D01*
X2056434Y5259578D01*
X2062530Y5247182D01*
X2070201Y5235651D01*
X2079294Y5225288D01*
X2089708Y5216194D01*
X2101189Y5208524D01*
X2113584Y5202377D01*
X2126640Y5197957D01*
X2140204Y5195265D01*
X2154021Y5194350D01*
X2167788Y5195265D01*
X2181352Y5197957D01*
X2194407Y5202377D01*
X2206802Y5208524D01*
X2213254Y5212791D01*
X2217318Y5214366D01*
X2221636Y5214112D01*
X2225497Y5212080D01*
X2228138Y5208625D01*
X2229053Y5204358D01*
X2229053Y4186123D01*
X2229256Y4181195D01*
X2229866Y4176522D01*
X2230882Y4171899D01*
X2232304Y4167378D01*
X2234133Y4163060D01*
X2236317Y4158843D01*
X2238857Y4154881D01*
X2241753Y4151122D01*
X2245055Y4147464D01*
X2336292Y4056278D01*
X2338222Y4053586D01*
X2339187Y4050436D01*
X2339086Y4047185D01*
X2336444Y4033418D01*
X2335530Y4019042D01*
X2336444Y4004665D01*
X2339086Y3990898D01*
X2339187Y3987647D01*
X2338222Y3984498D01*
X2336292Y3981805D01*
X2314905Y3960469D01*
X2311603Y3956812D01*
X2308707Y3953052D01*
X2306167Y3949090D01*
X2303983Y3944874D01*
X2302154Y3940556D01*
X2300732Y3936034D01*
X2299716Y3931412D01*
X2299106Y3926738D01*
X2298903Y3921810D01*
X2298903Y3282137D01*
X2299106Y3277260D01*
X2299716Y3272536D01*
X2300732Y3267964D01*
X2302154Y3263392D01*
X2303983Y3259124D01*
X2306167Y3254857D01*
X2308656Y3250946D01*
X2311603Y3247136D01*
X2314905Y3243529D01*
X2382012Y3176270D01*
X2383840Y3173780D01*
X2384806Y3170834D01*
X2384856Y3167735D01*
X2383383Y3156762D01*
X2383383Y3143199D01*
X2385212Y3129686D01*
X2388819Y3116580D01*
X2394102Y3104032D01*
X2401062Y3092348D01*
X2409494Y3081680D01*
X2419248Y3072231D01*
X2430221Y3064154D01*
X2442108Y3057601D01*
X2454808Y3052724D01*
X2468067Y3049574D01*
X2481580Y3048203D01*
X2495194Y3048660D01*
X2508605Y3050946D01*
X2521610Y3054959D01*
X2533954Y3060700D01*
X2545384Y3068015D01*
X2556103Y3077108D01*
X2559405Y3079546D01*
X2563368Y3080461D01*
X2567432Y3079750D01*
X2570835Y3077514D01*
X2785008Y2863342D01*
X2787142Y2860090D01*
X2787954Y2856331D01*
X2787294Y2852521D01*
X2785262Y2849219D01*
X2782112Y2846933D01*
X2772816Y2842615D01*
X2764790Y2836976D01*
X2757881Y2830068D01*
X2752242Y2822041D01*
X2748127Y2813202D01*
X2745587Y2803753D01*
X2744724Y2794000D01*
X2745282Y2787904D01*
X2744724Y2783535D01*
X2742336Y2779826D01*
X2442311Y2479802D01*
X2438908Y2477516D01*
X2434945Y2476804D01*
X2430983Y2477668D01*
X2427681Y2480056D01*
X2425547Y2483510D01*
X2424988Y2487523D01*
X2425598Y2498293D01*
X2425598Y2501646D01*
X2424633Y2518308D01*
X2424277Y2521661D01*
X2421432Y2538120D01*
X2420670Y2541371D01*
X2415946Y2557424D01*
X2414828Y2560574D01*
X2408326Y2575966D01*
X2406853Y2578963D01*
X2398623Y2593492D01*
X2396794Y2596337D01*
X2386990Y2609850D01*
X2384856Y2612440D01*
X2373579Y2624734D01*
X2371191Y2627071D01*
X2355900Y2640076D01*
X2342134Y2649474D01*
X2339238Y2651201D01*
X2324455Y2659024D01*
X2321407Y2660396D01*
X2305862Y2666441D01*
X2302662Y2667508D01*
X2283206Y2672435D01*
X2266696Y2674772D01*
X2263343Y2675077D01*
X2246680Y2675534D01*
X2243328Y2675432D01*
X2226665Y2674010D01*
X2223363Y2673553D01*
X2207006Y2670251D01*
X2203754Y2669387D01*
X2187854Y2664206D01*
X2184704Y2662986D01*
X2169566Y2656078D01*
X2166569Y2654503D01*
X2152294Y2645867D01*
X2149500Y2643987D01*
X2136292Y2633776D01*
X2133752Y2631592D01*
X2121763Y2619959D01*
X2119477Y2617470D01*
X2108911Y2604566D01*
X2106930Y2601823D01*
X2097938Y2587802D01*
X2096262Y2584856D01*
X2088896Y2569870D01*
X2087575Y2566771D01*
X2081987Y2551074D01*
X2081022Y2547823D01*
X2077262Y2531567D01*
X2076704Y2528265D01*
X2074773Y2511704D01*
X2074570Y2508300D01*
X2074570Y2491638D01*
X2074773Y2488285D01*
X2076704Y2471674D01*
X2077262Y2468372D01*
X2081022Y2452116D01*
X2081987Y2448915D01*
X2087575Y2433167D01*
X2088896Y2430068D01*
X2096262Y2415082D01*
X2106930Y2398115D01*
X2108911Y2395423D01*
X2119477Y2382469D01*
X2121763Y2380030D01*
X2133752Y2368397D01*
X2136292Y2366162D01*
X2149500Y2356002D01*
X2152294Y2354072D01*
X2166569Y2345436D01*
X2184704Y2336952D01*
X2187854Y2335733D01*
X2203754Y2330602D01*
X2207006Y2329738D01*
X2223363Y2326386D01*
X2226665Y2325928D01*
X2243328Y2324506D01*
X2246680Y2324404D01*
X2262581Y2324862D01*
X2266543Y2324201D01*
X2269896Y2322017D01*
X2272182Y2318715D01*
X2273046Y2314803D01*
X2272284Y2310841D01*
X2270048Y2307539D01*
X2162759Y2200249D01*
X2159457Y2196592D01*
X2156561Y2192832D01*
X2154021Y2188870D01*
X2151837Y2184654D01*
X2150008Y2180336D01*
X2148586Y2175814D01*
X2147570Y2171192D01*
X2146960Y2166518D01*
X2146757Y2161590D01*
X2146757Y1515821D01*
X2146960Y1510893D01*
X2147570Y1506220D01*
X2148586Y1501597D01*
X2150008Y1497076D01*
X2151837Y1492758D01*
X2154021Y1488541D01*
X2156561Y1484579D01*
X2159457Y1480820D01*
X2162759Y1477162D01*
X2267864Y1372057D01*
X2269998Y1368958D01*
X2270861Y1365250D01*
X2270302Y1361541D01*
X2267712Y1357426D01*
X2257552Y1342847D01*
X2248916Y1327302D01*
X2241905Y1310944D01*
X2236571Y1293977D01*
X2232964Y1276553D01*
X2231186Y1258824D01*
X2231186Y1241145D01*
X2230424Y1237284D01*
X2228189Y1233982D01*
X2224887Y1231798D01*
X2221026Y1230985D01*
X2217115Y1231798D01*
X2213813Y1233982D01*
X1957070Y1490624D01*
X1954834Y1493926D01*
X1954072Y1497838D01*
X1954072Y6217005D01*
X1954631Y6220358D01*
X1956257Y6223355D01*
X1958797Y6225590D01*
X1967992Y6231432D01*
X1979168Y6240678D01*
X1989074Y6251244D01*
X1997659Y6263030D01*
X2004618Y6275730D01*
X2009952Y6289243D01*
X2013610Y6303314D01*
X2015388Y6317691D01*
X2015388Y6332220D01*
X2013610Y6346647D01*
X2009952Y6360718D01*
X2004618Y6374231D01*
X1997659Y6386931D01*
X1989074Y6398666D01*
X1979168Y6409283D01*
X1967992Y6418529D01*
X1955698Y6426301D01*
X1942592Y6432499D01*
X1928774Y6436969D01*
X1914499Y6439712D01*
X1900021Y6440627D01*
X1885492Y6439712D01*
X1871268Y6436969D01*
X1857451Y6432499D01*
X1844293Y6426301D01*
X1832051Y6418529D01*
X1820824Y6409283D01*
X1810918Y6398666D01*
X1802384Y6386931D01*
X1795373Y6374231D01*
X1790039Y6360718D01*
X1786432Y6346647D01*
X1784604Y6332220D01*
X1784604Y6317691D01*
X1786432Y6303314D01*
X1790039Y6289243D01*
X1795373Y6275730D01*
X1802384Y6263030D01*
X1810918Y6251244D01*
X1820824Y6240678D01*
X1832051Y6231432D01*
X1841042Y6225692D01*
X1843582Y6223457D01*
X1845208Y6220460D01*
X1845767Y6217107D01*
X1845767Y2621889D01*
X1845056Y2618130D01*
X1842973Y2614879D01*
X1839823Y2612644D01*
X1836064Y2611780D01*
X1832254Y2612339D01*
X1828190Y2613761D01*
X1821891Y2614472D01*
X1761794Y2614472D01*
X1757883Y2615234D01*
X1754632Y2617419D01*
X1752396Y2620721D01*
X1751634Y2624632D01*
X1751634Y2872790D01*
X1751431Y2877718D01*
X1750822Y2882392D01*
X1749806Y2887014D01*
X1748383Y2891536D01*
X1746554Y2895854D01*
X1744370Y2900070D01*
X1741830Y2904032D01*
X1738934Y2907792D01*
X1735632Y2911449D01*
X1652930Y2994152D01*
X1651050Y2996742D01*
X1650034Y2999790D01*
X1650085Y3003042D01*
X1651304Y3010408D01*
X1651762Y3023971D01*
X1650390Y3037535D01*
X1647240Y3050743D01*
X1642364Y3063443D01*
X1635810Y3075381D01*
X1627784Y3086303D01*
X1618284Y3096107D01*
X1607616Y3104540D01*
X1595932Y3111449D01*
X1583385Y3116783D01*
X1570278Y3120390D01*
X1556816Y3122168D01*
X1543202Y3122168D01*
X1529740Y3120390D01*
X1516583Y3116783D01*
X1504086Y3111449D01*
X1492351Y3104540D01*
X1481683Y3096107D01*
X1472234Y3086303D01*
X1464157Y3075381D01*
X1457604Y3063443D01*
X1452727Y3050743D01*
X1449578Y3037535D01*
X1448206Y3023971D01*
X1448663Y3010408D01*
X1450949Y2996946D01*
X1454962Y2983992D01*
X1460703Y2971647D01*
X1468018Y2960166D01*
X1476806Y2949803D01*
X1486865Y2940659D01*
X1498092Y2932938D01*
X1510233Y2926842D01*
X1523085Y2922371D01*
X1536446Y2919628D01*
X1550009Y2918764D01*
X1563573Y2919628D01*
X1567078Y2920390D01*
X1570431Y2920492D01*
X1573580Y2919526D01*
X1576273Y2917596D01*
X1640332Y2853537D01*
X1642567Y2850235D01*
X1643329Y2846374D01*
X1643329Y2624632D01*
X1642567Y2620721D01*
X1640332Y2617419D01*
X1637080Y2615234D01*
X1633169Y2614472D01*
X1573072Y2614472D01*
X1566773Y2613761D01*
X1561388Y2611831D01*
X1556512Y2608783D01*
X1552244Y2604566D01*
X1548993Y2602331D01*
X1545082Y2601569D01*
X1541170Y2602331D01*
X1537919Y2604566D01*
X1533652Y2608783D01*
X1528775Y2611831D01*
X1523390Y2613761D01*
X1517091Y2614472D01*
X1268272Y2614472D01*
X1261973Y2613761D01*
X1256588Y2611831D01*
X1251712Y2608783D01*
X1247698Y2604770D01*
X1244650Y2599893D01*
X1242720Y2594508D01*
X1242009Y2588209D01*
X1242009Y2339390D01*
X1242720Y2333091D01*
X1244650Y2327706D01*
X1247698Y2322830D01*
X1251712Y2318816D01*
X1256588Y2315768D01*
X1261973Y2313838D01*
X1268272Y2313127D01*
X1517091Y2313127D01*
X1523390Y2313838D01*
X1528775Y2315768D01*
X1533652Y2318816D01*
X1537919Y2323033D01*
X1541170Y2325268D01*
X1545082Y2326030D01*
X1548993Y2325268D01*
X1552244Y2323033D01*
X1556512Y2318816D01*
X1561388Y2315768D01*
X1566773Y2313838D01*
X1573072Y2313127D01*
X1821891Y2313127D01*
X1828190Y2313838D01*
X1832254Y2315260D01*
X1836064Y2315819D01*
X1839823Y2314956D01*
X1842973Y2312720D01*
X1845056Y2309469D01*
X1845767Y2305710D01*
X1845767Y1471371D01*
X1845970Y1466443D01*
X1846580Y1461770D01*
X1847646Y1457147D01*
X1849018Y1452626D01*
X1850847Y1448257D01*
X1853031Y1444091D01*
X1855571Y1440078D01*
X1858467Y1436370D01*
X1861820Y1432712D01*
X2329484Y965250D01*
X2331618Y962101D01*
X2332431Y958342D01*
X2331821Y954532D01*
X2329840Y951280D01*
X2326792Y948944D01*
X2321356Y946302D01*
X2306269Y936904D01*
X2292197Y925982D01*
X2279294Y913739D01*
X2267712Y900226D01*
X2257552Y885647D01*
X2248916Y870102D01*
X2241905Y853744D01*
X2236571Y836777D01*
X2232964Y819353D01*
X2231186Y801624D01*
X2231186Y783844D01*
X2232964Y766114D01*
X2236571Y748690D01*
X2241905Y731723D01*
X2248916Y715365D01*
X2257552Y699820D01*
X2267712Y685241D01*
X2279294Y671728D01*
X2292197Y659485D01*
X2306269Y648563D01*
X2321356Y639165D01*
X2337308Y631342D01*
X2354021Y625144D01*
X2371242Y620674D01*
X2388819Y617982D01*
G37*
G36*
X5800090Y849884D02*
G01*
X5814212Y850849D01*
X5828080Y853592D01*
X5841492Y858164D01*
X5854192Y864412D01*
X5865926Y872236D01*
X5876594Y881583D01*
X5885942Y892251D01*
X5893765Y903986D01*
X5900013Y916686D01*
X5904585Y930097D01*
X5907328Y943965D01*
X5908294Y958087D01*
X5907328Y972210D01*
X5904585Y986078D01*
X5900013Y999490D01*
X5893765Y1012190D01*
X5885942Y1023924D01*
X5876594Y1034592D01*
X5865926Y1043889D01*
X5854192Y1051763D01*
X5841492Y1058011D01*
X5828080Y1062583D01*
X5814212Y1065326D01*
X5800090Y1066292D01*
X5785967Y1065326D01*
X5772099Y1062583D01*
X5758688Y1058011D01*
X5745988Y1051763D01*
X5734253Y1043889D01*
X5723585Y1034592D01*
X5714288Y1023924D01*
X5706414Y1012190D01*
X5700166Y999490D01*
X5695594Y986078D01*
X5692851Y972210D01*
X5691886Y958087D01*
X5692851Y943965D01*
X5695594Y930097D01*
X5700166Y916686D01*
X5706414Y903986D01*
X5714288Y892251D01*
X5723585Y881583D01*
X5734253Y872236D01*
X5745988Y864412D01*
X5758688Y858164D01*
X5772099Y853592D01*
X5785967Y850849D01*
G37*
G36*
X4276090Y849884D02*
G01*
X4290212Y850849D01*
X4304080Y853592D01*
X4317492Y858164D01*
X4330192Y864412D01*
X4341926Y872236D01*
X4352594Y881583D01*
X4361942Y892251D01*
X4369765Y903986D01*
X4376013Y916686D01*
X4380585Y930097D01*
X4383328Y943965D01*
X4384294Y958087D01*
X4383328Y972210D01*
X4380585Y986078D01*
X4376013Y999490D01*
X4369765Y1012190D01*
X4361942Y1023924D01*
X4352594Y1034592D01*
X4341926Y1043889D01*
X4330192Y1051763D01*
X4317492Y1058011D01*
X4304080Y1062583D01*
X4290212Y1065326D01*
X4276090Y1066292D01*
X4261967Y1065326D01*
X4248099Y1062583D01*
X4234688Y1058011D01*
X4221988Y1051763D01*
X4210253Y1043889D01*
X4199585Y1034592D01*
X4190237Y1023924D01*
X4182414Y1012190D01*
X4176166Y999490D01*
X4171594Y986078D01*
X4168851Y972210D01*
X4167886Y958087D01*
X4168851Y943965D01*
X4171594Y930097D01*
X4176166Y916686D01*
X4182414Y903986D01*
X4190237Y892251D01*
X4199585Y881583D01*
X4210253Y872236D01*
X4221988Y864412D01*
X4234688Y858164D01*
X4248099Y853592D01*
X4261967Y850849D01*
G37*
G36*
X5800090Y1103884D02*
G01*
X5814212Y1104849D01*
X5828080Y1107592D01*
X5841492Y1112164D01*
X5854192Y1118412D01*
X5865926Y1126236D01*
X5876594Y1135583D01*
X5885942Y1146251D01*
X5893765Y1157986D01*
X5900013Y1170686D01*
X5904585Y1184097D01*
X5907328Y1197965D01*
X5908294Y1212088D01*
X5907328Y1226210D01*
X5904585Y1240078D01*
X5900013Y1253490D01*
X5893765Y1266190D01*
X5885942Y1277924D01*
X5876594Y1288592D01*
X5865926Y1297889D01*
X5854192Y1305763D01*
X5841492Y1312011D01*
X5828080Y1316583D01*
X5814212Y1319326D01*
X5800090Y1320292D01*
X5785967Y1319326D01*
X5772099Y1316583D01*
X5758688Y1312011D01*
X5745988Y1305763D01*
X5734253Y1297889D01*
X5723585Y1288592D01*
X5714288Y1277924D01*
X5706414Y1266190D01*
X5700166Y1253490D01*
X5695594Y1240078D01*
X5692851Y1226210D01*
X5691886Y1212088D01*
X5692851Y1197965D01*
X5695594Y1184097D01*
X5700166Y1170686D01*
X5706414Y1157986D01*
X5714288Y1146251D01*
X5723585Y1135583D01*
X5734253Y1126236D01*
X5745988Y1118412D01*
X5758688Y1112164D01*
X5772099Y1107592D01*
X5785967Y1104849D01*
G37*
G36*
X4228490Y1115212D02*
G01*
X4228490Y1164437D01*
X4179214Y1164437D01*
X4182414Y1157986D01*
X4190237Y1146251D01*
X4199585Y1135583D01*
X4210253Y1126236D01*
X4221988Y1118412D01*
G37*
G36*
X4323740Y1115212D02*
G01*
X4330192Y1118412D01*
X4341926Y1126236D01*
X4352594Y1135583D01*
X4361942Y1146251D01*
X4369765Y1157986D01*
X4372965Y1164437D01*
X4323740Y1164437D01*
G37*
G36*
X4323740Y1259687D02*
G01*
X4372965Y1259687D01*
X4369765Y1266190D01*
X4361942Y1277924D01*
X4352594Y1288592D01*
X4341926Y1297889D01*
X4330192Y1305763D01*
X4323740Y1308963D01*
G37*
G36*
X4179214Y1259687D02*
G01*
X4228490Y1259687D01*
X4228490Y1308963D01*
X4221988Y1305763D01*
X4210253Y1297889D01*
X4199585Y1288592D01*
X4190237Y1277924D01*
X4182414Y1266190D01*
G37*
G36*
X4276090Y1357884D02*
G01*
X4290212Y1358849D01*
X4304080Y1361592D01*
X4317492Y1366164D01*
X4330192Y1372412D01*
X4341926Y1380236D01*
X4352594Y1389583D01*
X4361942Y1400251D01*
X4369765Y1411986D01*
X4376013Y1424686D01*
X4380585Y1438097D01*
X4383328Y1451965D01*
X4384294Y1466088D01*
X4383328Y1480210D01*
X4380585Y1494078D01*
X4376013Y1507490D01*
X4369765Y1520190D01*
X4361942Y1531924D01*
X4352594Y1542592D01*
X4341926Y1551889D01*
X4330192Y1559763D01*
X4317492Y1566011D01*
X4304080Y1570583D01*
X4290212Y1573326D01*
X4276090Y1574292D01*
X4261967Y1573326D01*
X4248099Y1570583D01*
X4234688Y1566011D01*
X4221988Y1559763D01*
X4210253Y1551889D01*
X4199585Y1542592D01*
X4190237Y1531924D01*
X4182414Y1520190D01*
X4176166Y1507490D01*
X4171594Y1494078D01*
X4168851Y1480210D01*
X4167886Y1466088D01*
X4168851Y1451965D01*
X4171594Y1438097D01*
X4176166Y1424686D01*
X4182414Y1411986D01*
X4190237Y1400251D01*
X4199585Y1389583D01*
X4210253Y1380236D01*
X4221988Y1372412D01*
X4234688Y1366164D01*
X4248099Y1361592D01*
X4261967Y1358849D01*
G37*
G36*
X4276090Y1611884D02*
G01*
X4290212Y1612849D01*
X4304080Y1615592D01*
X4317492Y1620164D01*
X4330192Y1626412D01*
X4341926Y1634236D01*
X4352594Y1643583D01*
X4361942Y1654251D01*
X4369765Y1665986D01*
X4376013Y1678686D01*
X4380585Y1692097D01*
X4383328Y1705965D01*
X4384294Y1720088D01*
X4383328Y1734210D01*
X4380585Y1748078D01*
X4376013Y1761489D01*
X4369765Y1774189D01*
X4361942Y1785924D01*
X4352594Y1796592D01*
X4341926Y1805889D01*
X4330192Y1813763D01*
X4317492Y1820011D01*
X4304080Y1824583D01*
X4290212Y1827326D01*
X4276090Y1828292D01*
X4261967Y1827326D01*
X4248099Y1824583D01*
X4234688Y1820011D01*
X4221988Y1813763D01*
X4210253Y1805889D01*
X4199585Y1796592D01*
X4190237Y1785924D01*
X4182414Y1774189D01*
X4176166Y1761489D01*
X4171594Y1748078D01*
X4168851Y1734210D01*
X4167886Y1720088D01*
X4168851Y1705965D01*
X4171594Y1692097D01*
X4176166Y1678686D01*
X4182414Y1665986D01*
X4190237Y1654251D01*
X4199585Y1643583D01*
X4210253Y1634236D01*
X4221988Y1626412D01*
X4234688Y1620164D01*
X4248099Y1615592D01*
X4261967Y1612849D01*
G37*
G36*
X4276090Y1865884D02*
G01*
X4290212Y1866849D01*
X4304080Y1869592D01*
X4317492Y1874164D01*
X4330192Y1880412D01*
X4341926Y1888236D01*
X4352594Y1897583D01*
X4361942Y1908251D01*
X4369765Y1919986D01*
X4376013Y1932686D01*
X4380585Y1946097D01*
X4383328Y1959965D01*
X4384294Y1974088D01*
X4383328Y1988210D01*
X4380585Y2002078D01*
X4376013Y2015489D01*
X4369765Y2028189D01*
X4361942Y2039924D01*
X4352594Y2050592D01*
X4341926Y2059889D01*
X4330192Y2067763D01*
X4317492Y2074011D01*
X4304080Y2078583D01*
X4290212Y2081326D01*
X4276090Y2082292D01*
X4261967Y2081326D01*
X4248099Y2078583D01*
X4234688Y2074011D01*
X4221988Y2067763D01*
X4210253Y2059889D01*
X4199585Y2050592D01*
X4190237Y2039924D01*
X4182414Y2028189D01*
X4176166Y2015489D01*
X4171594Y2002078D01*
X4168851Y1988210D01*
X4167886Y1974088D01*
X4168851Y1959965D01*
X4171594Y1946097D01*
X4176166Y1932686D01*
X4182414Y1919986D01*
X4190237Y1908251D01*
X4199585Y1897583D01*
X4210253Y1888236D01*
X4221988Y1880412D01*
X4234688Y1874164D01*
X4248099Y1869592D01*
X4261967Y1866849D01*
G37*
G36*
X201472Y2313127D02*
G01*
X450291Y2313127D01*
X456590Y2313838D01*
X461975Y2315768D01*
X466851Y2318816D01*
X471119Y2323033D01*
X474370Y2325268D01*
X478282Y2326030D01*
X482193Y2325268D01*
X485444Y2323033D01*
X489712Y2318816D01*
X494588Y2315768D01*
X499973Y2313838D01*
X506272Y2313127D01*
X755091Y2313127D01*
X761390Y2313838D01*
X766775Y2315768D01*
X771652Y2318816D01*
X775665Y2322830D01*
X778713Y2327706D01*
X780643Y2333091D01*
X781354Y2339390D01*
X781354Y2588209D01*
X780643Y2594508D01*
X778713Y2599893D01*
X775665Y2604770D01*
X771652Y2608783D01*
X766775Y2611831D01*
X761390Y2613761D01*
X755091Y2614472D01*
X506272Y2614472D01*
X499973Y2613761D01*
X494588Y2611831D01*
X489712Y2608783D01*
X485444Y2604566D01*
X482193Y2602331D01*
X478282Y2601569D01*
X474370Y2602331D01*
X471119Y2604566D01*
X466851Y2608783D01*
X461975Y2611831D01*
X456590Y2613761D01*
X450291Y2614472D01*
X390194Y2614472D01*
X386283Y2615234D01*
X383032Y2617419D01*
X380796Y2620721D01*
X380034Y2624632D01*
X380034Y2772206D01*
X380796Y2776067D01*
X383032Y2779369D01*
X523595Y2919984D01*
X526135Y2921812D01*
X529082Y2922778D01*
X532180Y2922879D01*
X543204Y2921355D01*
X556818Y2921355D01*
X570280Y2923184D01*
X583387Y2926791D01*
X595934Y2932074D01*
X607618Y2939034D01*
X618286Y2947466D01*
X627786Y2957220D01*
X635812Y2968193D01*
X642366Y2980131D01*
X647242Y2992831D01*
X650392Y3006039D01*
X651764Y3019602D01*
X651306Y3033166D01*
X649071Y3046577D01*
X645007Y3059582D01*
X639318Y3071926D01*
X632002Y3083407D01*
X623214Y3093770D01*
X613105Y3102914D01*
X601878Y3110585D01*
X589737Y3116732D01*
X576884Y3121202D01*
X563575Y3123895D01*
X550011Y3124809D01*
X536448Y3123895D01*
X523087Y3121202D01*
X510235Y3116732D01*
X498093Y3110585D01*
X486867Y3102914D01*
X476808Y3093770D01*
X468020Y3083407D01*
X460705Y3071926D01*
X454964Y3059582D01*
X450951Y3046577D01*
X448665Y3033166D01*
X448208Y3019602D01*
X449834Y3002534D01*
X448868Y2999232D01*
X446887Y2996438D01*
X287731Y2837281D01*
X284429Y2833624D01*
X281533Y2829864D01*
X278993Y2825902D01*
X276809Y2821686D01*
X274980Y2817368D01*
X273558Y2812846D01*
X272542Y2808224D01*
X271932Y2803550D01*
X271729Y2798622D01*
X271729Y2624632D01*
X270967Y2620721D01*
X268732Y2617419D01*
X265480Y2615234D01*
X261569Y2614472D01*
X201472Y2614472D01*
X195173Y2613761D01*
X189788Y2611831D01*
X184912Y2608783D01*
X180898Y2604770D01*
X177850Y2599893D01*
X175920Y2594508D01*
X175209Y2588209D01*
X175209Y2339390D01*
X175920Y2333091D01*
X177850Y2327706D01*
X180898Y2322830D01*
X184912Y2318816D01*
X189788Y2315768D01*
X195173Y2313838D01*
G37*
G36*
X3746652Y2324404D02*
G01*
X3763365Y2324862D01*
X3766718Y2325166D01*
X3783228Y2327554D01*
X3786530Y2328214D01*
X3802684Y2332482D01*
X3805885Y2333498D01*
X3821429Y2339543D01*
X3824478Y2340965D01*
X3839260Y2348738D01*
X3842105Y2350465D01*
X3858564Y2361946D01*
X3871163Y2372868D01*
X3873601Y2375204D01*
X3884879Y2387498D01*
X3887012Y2390140D01*
X3896817Y2403652D01*
X3898646Y2406446D01*
X3906824Y2420975D01*
X3908298Y2424023D01*
X3914800Y2439365D01*
X3915968Y2442565D01*
X3920642Y2458567D01*
X3921404Y2461869D01*
X3924249Y2478278D01*
X3924655Y2481630D01*
X3925620Y2498293D01*
X3925620Y2501646D01*
X3924655Y2518308D01*
X3924249Y2521661D01*
X3921404Y2538120D01*
X3920642Y2541371D01*
X3915968Y2557424D01*
X3908298Y2575966D01*
X3906824Y2578963D01*
X3898646Y2593492D01*
X3896817Y2596337D01*
X3887012Y2609850D01*
X3884879Y2612440D01*
X3873601Y2624734D01*
X3871163Y2627071D01*
X3858564Y2637993D01*
X3855872Y2640076D01*
X3842105Y2649474D01*
X3839260Y2651201D01*
X3824478Y2659024D01*
X3821429Y2660396D01*
X3805885Y2666441D01*
X3802684Y2667508D01*
X3783228Y2672435D01*
X3766718Y2674772D01*
X3763365Y2675077D01*
X3746652Y2675534D01*
X3743299Y2675432D01*
X3726687Y2674010D01*
X3723335Y2673553D01*
X3706977Y2670251D01*
X3703726Y2669387D01*
X3687876Y2664206D01*
X3684727Y2662986D01*
X3669537Y2656078D01*
X3666591Y2654503D01*
X3652265Y2645867D01*
X3649472Y2643987D01*
X3636264Y2633776D01*
X3633724Y2631592D01*
X3621786Y2619959D01*
X3619500Y2617470D01*
X3608933Y2604566D01*
X3606952Y2601823D01*
X3597910Y2587802D01*
X3596284Y2584856D01*
X3588918Y2569870D01*
X3587597Y2566771D01*
X3582009Y2551074D01*
X3581044Y2547823D01*
X3576675Y2528265D01*
X3574796Y2511704D01*
X3574592Y2508300D01*
X3574592Y2491638D01*
X3574796Y2488285D01*
X3576675Y2471674D01*
X3581044Y2452116D01*
X3582009Y2448915D01*
X3587597Y2433167D01*
X3588918Y2430068D01*
X3596284Y2415082D01*
X3597910Y2412187D01*
X3606952Y2398115D01*
X3608933Y2395423D01*
X3619500Y2382469D01*
X3633724Y2368397D01*
X3636264Y2366162D01*
X3649472Y2356002D01*
X3652265Y2354072D01*
X3666591Y2345436D01*
X3669537Y2343912D01*
X3684727Y2336952D01*
X3687876Y2335733D01*
X3703726Y2330602D01*
X3706977Y2329738D01*
X3723335Y2326386D01*
X3726687Y2325928D01*
X3743299Y2324506D01*
G37*
G36*
X1049985Y2921152D02*
G01*
X1063548Y2922066D01*
X1076909Y2924759D01*
X1089761Y2929229D01*
X1101902Y2935376D01*
X1113129Y2943047D01*
X1123188Y2952191D01*
X1131976Y2962554D01*
X1139291Y2974035D01*
X1145032Y2986379D01*
X1149045Y2999384D01*
X1151331Y3012795D01*
X1151788Y3026359D01*
X1150416Y3039922D01*
X1147267Y3053130D01*
X1142390Y3065830D01*
X1135837Y3077768D01*
X1127760Y3088741D01*
X1118311Y3098495D01*
X1107643Y3106928D01*
X1095908Y3113887D01*
X1083411Y3119170D01*
X1070305Y3122777D01*
X1056792Y3124606D01*
X1043178Y3124606D01*
X1029716Y3122777D01*
X1016609Y3119170D01*
X1004062Y3113887D01*
X992378Y3106928D01*
X981710Y3098495D01*
X972261Y3088741D01*
X964184Y3077768D01*
X957630Y3065830D01*
X952753Y3053130D01*
X949604Y3039922D01*
X948232Y3026359D01*
X948690Y3012795D01*
X950925Y2999384D01*
X954989Y2986379D01*
X960678Y2974035D01*
X967994Y2962554D01*
X976782Y2952191D01*
X986891Y2943047D01*
X998118Y2935376D01*
X1010259Y2929229D01*
X1023112Y2924759D01*
X1036421Y2922066D01*
G37*
G36*
X1049985Y3175152D02*
G01*
X1063548Y3176066D01*
X1076909Y3178759D01*
X1089761Y3183229D01*
X1101902Y3189376D01*
X1113129Y3197047D01*
X1123188Y3206191D01*
X1131976Y3216554D01*
X1139291Y3228035D01*
X1145032Y3240379D01*
X1149045Y3253384D01*
X1151331Y3266795D01*
X1151788Y3280359D01*
X1150416Y3293922D01*
X1147267Y3307130D01*
X1142390Y3319830D01*
X1135837Y3331768D01*
X1127760Y3342741D01*
X1118311Y3352495D01*
X1107643Y3360928D01*
X1095908Y3367887D01*
X1083411Y3373170D01*
X1070305Y3376777D01*
X1056792Y3378606D01*
X1043178Y3378606D01*
X1029716Y3376777D01*
X1016609Y3373170D01*
X1004062Y3367887D01*
X992378Y3360928D01*
X981710Y3352495D01*
X972261Y3342741D01*
X964184Y3331768D01*
X957630Y3319830D01*
X952753Y3307130D01*
X949604Y3293922D01*
X948232Y3280359D01*
X948690Y3266795D01*
X950925Y3253384D01*
X954989Y3240379D01*
X960678Y3228035D01*
X967994Y3216554D01*
X976782Y3206191D01*
X986891Y3197047D01*
X998118Y3189376D01*
X1010259Y3183229D01*
X1023112Y3178759D01*
X1036421Y3176066D01*
G37*
G36*
X1594459Y3183178D02*
G01*
X1601876Y3186938D01*
X1613103Y3194659D01*
X1623212Y3203803D01*
X1632000Y3214166D01*
X1639316Y3225647D01*
X1641398Y3230118D01*
X1594459Y3230118D01*
G37*
G36*
X1505559Y3183178D02*
G01*
X1505559Y3230118D01*
X1458620Y3230118D01*
X1460703Y3225647D01*
X1468018Y3214166D01*
X1476806Y3203803D01*
X1486865Y3194659D01*
X1498092Y3186938D01*
G37*
G36*
X594461Y3185464D02*
G01*
X595934Y3186074D01*
X607618Y3193034D01*
X618286Y3201466D01*
X627786Y3211220D01*
X635812Y3222193D01*
X641502Y3232505D01*
X594461Y3232505D01*
G37*
G36*
X505561Y3185464D02*
G01*
X505561Y3232505D01*
X458520Y3232505D01*
X464159Y3222193D01*
X472236Y3211220D01*
X481685Y3201466D01*
X492353Y3193034D01*
X504088Y3186074D01*
G37*
G36*
X1458518Y3319018D02*
G01*
X1505559Y3319018D01*
X1505559Y3366109D01*
X1504086Y3365449D01*
X1492351Y3358540D01*
X1481683Y3350107D01*
X1472234Y3340303D01*
X1464157Y3329381D01*
G37*
G36*
X1594459Y3319018D02*
G01*
X1641500Y3319018D01*
X1635810Y3329381D01*
X1627784Y3340303D01*
X1618284Y3350107D01*
X1607616Y3358540D01*
X1595932Y3365449D01*
X1594459Y3366109D01*
G37*
G36*
X458622Y3321405D02*
G01*
X505561Y3321405D01*
X505561Y3368344D01*
X498093Y3364585D01*
X486867Y3356914D01*
X476808Y3347770D01*
X468020Y3337407D01*
X460705Y3325926D01*
G37*
G36*
X594461Y3321405D02*
G01*
X641400Y3321405D01*
X639318Y3325926D01*
X632002Y3337407D01*
X623214Y3347770D01*
X613105Y3356914D01*
X601878Y3364585D01*
X594461Y3368344D01*
G37*
G36*
X3559454Y3494430D02*
G01*
X3606393Y3494430D01*
X3602634Y3501898D01*
X3594912Y3513074D01*
X3585768Y3523183D01*
X3575405Y3531971D01*
X3563924Y3539286D01*
X3559454Y3541369D01*
G37*
G36*
X3423462Y3494430D02*
G01*
X3470554Y3494430D01*
X3470554Y3541471D01*
X3460191Y3535832D01*
X3449269Y3527755D01*
X3439464Y3518306D01*
X3431032Y3507587D01*
X3424123Y3495903D01*
G37*
G36*
X396646Y3574389D02*
G01*
X416712Y3575151D01*
X433222Y3577539D01*
X436524Y3578199D01*
X452678Y3582466D01*
X455879Y3583482D01*
X471424Y3589528D01*
X474472Y3590950D01*
X489254Y3598722D01*
X505917Y3609898D01*
X508558Y3611930D01*
X521157Y3622903D01*
X523595Y3625240D01*
X534873Y3637534D01*
X537006Y3640124D01*
X546811Y3653637D01*
X548640Y3656482D01*
X558342Y3674008D01*
X565962Y3692550D01*
X570636Y3708552D01*
X571398Y3711854D01*
X574243Y3728313D01*
X574649Y3731615D01*
X575614Y3748278D01*
X575614Y3751681D01*
X574649Y3768344D01*
X574243Y3771646D01*
X571398Y3788105D01*
X570636Y3791407D01*
X565962Y3807409D01*
X558342Y3825951D01*
X548640Y3843477D01*
X546811Y3846322D01*
X537006Y3859834D01*
X534873Y3862425D01*
X523595Y3874719D01*
X521157Y3877056D01*
X508558Y3888028D01*
X505917Y3890060D01*
X489254Y3901236D01*
X474472Y3909009D01*
X471424Y3910431D01*
X455879Y3916476D01*
X452678Y3917492D01*
X436524Y3921760D01*
X433222Y3922420D01*
X416712Y3924808D01*
X396646Y3925570D01*
X393293Y3925468D01*
X376682Y3924046D01*
X373329Y3923537D01*
X356971Y3920236D01*
X353720Y3919372D01*
X337870Y3914241D01*
X334721Y3913022D01*
X319532Y3906062D01*
X316585Y3904487D01*
X302260Y3895902D01*
X286258Y3883812D01*
X283718Y3881577D01*
X271780Y3869944D01*
X269494Y3867454D01*
X258927Y3854551D01*
X256946Y3851808D01*
X247904Y3837787D01*
X246278Y3834841D01*
X238912Y3819906D01*
X237591Y3816807D01*
X232003Y3801059D01*
X231038Y3797858D01*
X227279Y3781602D01*
X226669Y3778250D01*
X224790Y3761689D01*
X224586Y3758336D01*
X224586Y3741623D01*
X224790Y3738270D01*
X226669Y3721709D01*
X227279Y3718356D01*
X231038Y3702100D01*
X232003Y3698900D01*
X237591Y3683152D01*
X238912Y3680053D01*
X246278Y3665118D01*
X247904Y3662172D01*
X256946Y3648151D01*
X258927Y3645408D01*
X269494Y3632504D01*
X271780Y3630015D01*
X283718Y3618382D01*
X286258Y3616147D01*
X302260Y3604056D01*
X316585Y3595471D01*
X319532Y3593896D01*
X334721Y3586937D01*
X337870Y3585718D01*
X353720Y3580587D01*
X356971Y3579723D01*
X373329Y3576421D01*
X376682Y3575913D01*
X393293Y3574491D01*
G37*
G36*
X5596991Y3574389D02*
G01*
X5616702Y3575151D01*
X5633212Y3577539D01*
X5636514Y3578199D01*
X5652668Y3582466D01*
X5655868Y3583482D01*
X5671413Y3589528D01*
X5674461Y3590950D01*
X5689244Y3598722D01*
X5692140Y3600450D01*
X5705906Y3609898D01*
X5708548Y3611930D01*
X5721197Y3622903D01*
X5723585Y3625240D01*
X5734862Y3637534D01*
X5736996Y3640124D01*
X5746800Y3653637D01*
X5748629Y3656482D01*
X5756859Y3671011D01*
X5758332Y3674008D01*
X5764834Y3689400D01*
X5765952Y3692550D01*
X5770676Y3708552D01*
X5771438Y3711854D01*
X5774283Y3728313D01*
X5774639Y3731615D01*
X5775604Y3748278D01*
X5775604Y3751681D01*
X5774639Y3768344D01*
X5774283Y3771646D01*
X5771438Y3788105D01*
X5770676Y3791407D01*
X5765952Y3807409D01*
X5764834Y3810558D01*
X5758332Y3825951D01*
X5756859Y3828948D01*
X5748629Y3843477D01*
X5746800Y3846322D01*
X5736996Y3859834D01*
X5734862Y3862425D01*
X5723585Y3874719D01*
X5721197Y3877056D01*
X5708548Y3888028D01*
X5705906Y3890060D01*
X5692140Y3899509D01*
X5689244Y3901236D01*
X5674461Y3909009D01*
X5671413Y3910431D01*
X5655868Y3916476D01*
X5652668Y3917492D01*
X5636514Y3921760D01*
X5633212Y3922420D01*
X5616702Y3924808D01*
X5596686Y3925570D01*
X5593283Y3925468D01*
X5576671Y3924046D01*
X5573318Y3923537D01*
X5556961Y3920236D01*
X5553710Y3919372D01*
X5537860Y3914241D01*
X5534710Y3913022D01*
X5519521Y3906062D01*
X5516575Y3904487D01*
X5502249Y3895902D01*
X5486298Y3883812D01*
X5483758Y3881577D01*
X5471769Y3869944D01*
X5469483Y3867454D01*
X5458917Y3854551D01*
X5456936Y3851859D01*
X5447944Y3837787D01*
X5446268Y3834841D01*
X5438902Y3819906D01*
X5437581Y3816807D01*
X5431993Y3801059D01*
X5431028Y3797858D01*
X5427268Y3781602D01*
X5426659Y3778250D01*
X5424779Y3761689D01*
X5424576Y3758336D01*
X5424576Y3741623D01*
X5424779Y3738270D01*
X5426659Y3721709D01*
X5427268Y3718356D01*
X5431028Y3702100D01*
X5431993Y3698900D01*
X5437581Y3683152D01*
X5438902Y3680053D01*
X5446268Y3665118D01*
X5447944Y3662172D01*
X5456936Y3648100D01*
X5458917Y3645408D01*
X5469483Y3632504D01*
X5471769Y3630015D01*
X5483758Y3618382D01*
X5486298Y3616147D01*
X5502249Y3604056D01*
X5516575Y3595471D01*
X5519521Y3593896D01*
X5534710Y3586937D01*
X5537860Y3585718D01*
X5553710Y3580587D01*
X5556961Y3579723D01*
X5573318Y3576421D01*
X5576671Y3575913D01*
X5592978Y3574542D01*
G37*
G36*
X3542690Y3904742D02*
G01*
X3557117Y3904742D01*
X3571341Y3906520D01*
X3585311Y3910126D01*
X3598672Y3915410D01*
X3611270Y3922318D01*
X3622903Y3930802D01*
X3633419Y3940657D01*
X3642563Y3951732D01*
X3650284Y3963873D01*
X3656380Y3976878D01*
X3660851Y3990543D01*
X3663543Y4004665D01*
X3664458Y4019042D01*
X3663543Y4033418D01*
X3660851Y4047540D01*
X3656380Y4061206D01*
X3650284Y4074210D01*
X3642563Y4086351D01*
X3633419Y4097426D01*
X3622903Y4107281D01*
X3611270Y4115765D01*
X3598672Y4122674D01*
X3585311Y4127957D01*
X3571341Y4131564D01*
X3557117Y4133342D01*
X3542690Y4133342D01*
X3528466Y4131564D01*
X3514496Y4127957D01*
X3501136Y4122674D01*
X3488537Y4115765D01*
X3476904Y4107281D01*
X3471672Y4102404D01*
X3468420Y4100322D01*
X3464560Y4099661D01*
X3460800Y4100474D01*
X3457549Y4102608D01*
X3375863Y4184345D01*
X3373831Y4187240D01*
X3372916Y4190644D01*
X3373221Y4194149D01*
X3374745Y4199890D01*
X3375609Y4209542D01*
X3374745Y4219194D01*
X3372256Y4228541D01*
X3368141Y4237329D01*
X3362604Y4245305D01*
X3355746Y4252163D01*
X3347821Y4257700D01*
X3339033Y4261815D01*
X3336747Y4262424D01*
X3333038Y4264304D01*
X3330397Y4267504D01*
X3329228Y4271467D01*
X3329787Y4275582D01*
X3331921Y4279138D01*
X3335324Y4281525D01*
X3339388Y4282389D01*
X3425240Y4282389D01*
X3429000Y4281678D01*
X3432200Y4279646D01*
X3434435Y4276547D01*
X3435400Y4272889D01*
X3436264Y4258665D01*
X3438956Y4244543D01*
X3443427Y4230878D01*
X3449523Y4217873D01*
X3457244Y4205732D01*
X3466388Y4194657D01*
X3476904Y4184802D01*
X3488537Y4176318D01*
X3501136Y4169410D01*
X3514496Y4164126D01*
X3528466Y4160520D01*
X3542690Y4158742D01*
X3557117Y4158742D01*
X3571341Y4160520D01*
X3585311Y4164126D01*
X3598672Y4169410D01*
X3611270Y4176318D01*
X3622903Y4184802D01*
X3633419Y4194657D01*
X3642563Y4205732D01*
X3650284Y4217873D01*
X3656380Y4230878D01*
X3660851Y4244543D01*
X3663543Y4258665D01*
X3664458Y4273042D01*
X3663543Y4287418D01*
X3660851Y4301540D01*
X3656380Y4315206D01*
X3650284Y4328210D01*
X3642563Y4340352D01*
X3633419Y4351426D01*
X3622903Y4361281D01*
X3611270Y4369765D01*
X3609340Y4370832D01*
X3606546Y4373067D01*
X3604717Y4376166D01*
X3604056Y4379722D01*
X3604056Y4420362D01*
X3604717Y4423918D01*
X3606546Y4427016D01*
X3609340Y4429252D01*
X3611270Y4430318D01*
X3622903Y4438802D01*
X3633419Y4448657D01*
X3642563Y4459732D01*
X3650284Y4471873D01*
X3656380Y4484878D01*
X3660851Y4498543D01*
X3663543Y4512665D01*
X3664458Y4527042D01*
X3663543Y4541418D01*
X3660851Y4555540D01*
X3656380Y4569206D01*
X3650284Y4582210D01*
X3642563Y4594352D01*
X3633419Y4605426D01*
X3622903Y4615281D01*
X3611270Y4623765D01*
X3598672Y4630674D01*
X3585311Y4635957D01*
X3571341Y4639564D01*
X3557117Y4641342D01*
X3542690Y4641342D01*
X3528466Y4639564D01*
X3514496Y4635957D01*
X3501136Y4630674D01*
X3488537Y4623765D01*
X3476904Y4615281D01*
X3466388Y4605426D01*
X3457244Y4594352D01*
X3449523Y4582210D01*
X3443427Y4569206D01*
X3438956Y4555540D01*
X3436264Y4541418D01*
X3435350Y4527042D01*
X3436264Y4512665D01*
X3438956Y4498543D01*
X3443427Y4484878D01*
X3449523Y4471873D01*
X3457244Y4459732D01*
X3466388Y4448657D01*
X3476904Y4438802D01*
X3488537Y4430318D01*
X3490468Y4429252D01*
X3493262Y4427016D01*
X3495090Y4423918D01*
X3495751Y4420362D01*
X3495751Y4400854D01*
X3494989Y4396943D01*
X3492754Y4393692D01*
X3489502Y4391456D01*
X3485591Y4390694D01*
X3339388Y4390694D01*
X3335324Y4391558D01*
X3331921Y4393946D01*
X3329787Y4397502D01*
X3329228Y4401616D01*
X3330397Y4405579D01*
X3333038Y4408779D01*
X3336747Y4410659D01*
X3339033Y4411268D01*
X3347821Y4415383D01*
X3355746Y4420920D01*
X3362604Y4427778D01*
X3368141Y4435754D01*
X3372256Y4444542D01*
X3374745Y4453890D01*
X3375609Y4463542D01*
X3374745Y4473194D01*
X3372256Y4482541D01*
X3368141Y4491329D01*
X3362604Y4499305D01*
X3355746Y4506163D01*
X3347821Y4511700D01*
X3339033Y4515815D01*
X3333699Y4517237D01*
X3329787Y4519269D01*
X3327095Y4522724D01*
X3326180Y4527042D01*
X3327095Y4531360D01*
X3329787Y4534814D01*
X3333699Y4536846D01*
X3339033Y4538268D01*
X3347821Y4542383D01*
X3355746Y4547920D01*
X3362604Y4554778D01*
X3368141Y4562754D01*
X3372256Y4571542D01*
X3374745Y4580890D01*
X3375609Y4590542D01*
X3374745Y4600194D01*
X3373221Y4605934D01*
X3372916Y4609439D01*
X3373831Y4612843D01*
X3375863Y4615738D01*
X3457549Y4697476D01*
X3460800Y4699609D01*
X3464560Y4700422D01*
X3468420Y4699762D01*
X3471672Y4697679D01*
X3476904Y4692802D01*
X3488537Y4684318D01*
X3501136Y4677410D01*
X3514496Y4672126D01*
X3528466Y4668520D01*
X3542690Y4666742D01*
X3557117Y4666742D01*
X3571341Y4668520D01*
X3585311Y4672126D01*
X3598672Y4677410D01*
X3611270Y4684318D01*
X3622903Y4692802D01*
X3633419Y4702657D01*
X3642563Y4713732D01*
X3650284Y4725873D01*
X3656380Y4738878D01*
X3660851Y4752543D01*
X3663543Y4766665D01*
X3664458Y4781042D01*
X3663543Y4795418D01*
X3660851Y4809540D01*
X3656380Y4823206D01*
X3650284Y4836210D01*
X3642563Y4848352D01*
X3633419Y4859426D01*
X3622903Y4869281D01*
X3611270Y4877765D01*
X3598672Y4884674D01*
X3585311Y4889957D01*
X3571341Y4893564D01*
X3557117Y4895342D01*
X3542690Y4895342D01*
X3528466Y4893564D01*
X3522573Y4892040D01*
X3519068Y4891735D01*
X3515715Y4892700D01*
X3512820Y4894681D01*
X3432048Y4975504D01*
X3429812Y4978806D01*
X3429050Y4982667D01*
X3429050Y5242001D01*
X3429711Y5245506D01*
X3431540Y5248605D01*
X3434334Y5250891D01*
X3436975Y5252364D01*
X3448710Y5260898D01*
X3459276Y5270804D01*
X3468573Y5282031D01*
X3476345Y5294274D01*
X3482543Y5307431D01*
X3487013Y5321198D01*
X3489706Y5335473D01*
X3490620Y5350002D01*
X3489706Y5364480D01*
X3487013Y5378754D01*
X3482543Y5392521D01*
X3476345Y5405678D01*
X3468573Y5417921D01*
X3459276Y5429148D01*
X3448710Y5439054D01*
X3436975Y5447588D01*
X3424224Y5454599D01*
X3410762Y5459933D01*
X3396691Y5463540D01*
X3382264Y5465368D01*
X3367735Y5465368D01*
X3353358Y5463540D01*
X3339287Y5459933D01*
X3325774Y5454599D01*
X3313023Y5447588D01*
X3301288Y5439054D01*
X3290722Y5429148D01*
X3281476Y5417921D01*
X3273653Y5405678D01*
X3267506Y5392521D01*
X3262985Y5378754D01*
X3260293Y5364480D01*
X3259378Y5350002D01*
X3260293Y5335473D01*
X3262985Y5321198D01*
X3267506Y5307431D01*
X3273653Y5294274D01*
X3281476Y5282031D01*
X3290722Y5270804D01*
X3301288Y5260898D01*
X3313023Y5252364D01*
X3315462Y5250992D01*
X3318256Y5248757D01*
X3320084Y5245658D01*
X3320745Y5242102D01*
X3320745Y4956251D01*
X3320948Y4951323D01*
X3321558Y4946650D01*
X3322574Y4942027D01*
X3323996Y4937506D01*
X3325825Y4933188D01*
X3328009Y4928971D01*
X3330549Y4925009D01*
X3333445Y4921250D01*
X3336747Y4917592D01*
X3423462Y4830876D01*
X3425647Y4827625D01*
X3426460Y4823714D01*
X3425647Y4819802D01*
X3423462Y4816551D01*
X3256127Y4649165D01*
X3252825Y4646980D01*
X3248914Y4646218D01*
X3228441Y4646218D01*
X3218332Y4645304D01*
X3208985Y4642815D01*
X3200196Y4638700D01*
X3192221Y4633163D01*
X3185414Y4626305D01*
X3179826Y4618329D01*
X3175711Y4609541D01*
X3173222Y4600194D01*
X3172358Y4590542D01*
X3173222Y4580890D01*
X3175711Y4571542D01*
X3179826Y4562754D01*
X3185414Y4554778D01*
X3192221Y4547920D01*
X3200196Y4542383D01*
X3208985Y4538268D01*
X3214268Y4536846D01*
X3218180Y4534814D01*
X3220872Y4531360D01*
X3221837Y4527042D01*
X3220872Y4522724D01*
X3218180Y4519269D01*
X3214268Y4517237D01*
X3208985Y4515815D01*
X3200196Y4511700D01*
X3192221Y4506163D01*
X3185414Y4499305D01*
X3179826Y4491329D01*
X3175711Y4482541D01*
X3173222Y4473194D01*
X3172358Y4463542D01*
X3173222Y4453890D01*
X3175711Y4444542D01*
X3179826Y4435754D01*
X3185414Y4427778D01*
X3192221Y4420920D01*
X3200196Y4415383D01*
X3208985Y4411268D01*
X3212388Y4410354D01*
X3216300Y4408322D01*
X3218942Y4404868D01*
X3219907Y4399534D01*
X3218942Y4395216D01*
X3216300Y4391761D01*
X3212388Y4389729D01*
X3208985Y4388815D01*
X3200196Y4384700D01*
X3192221Y4379163D01*
X3185414Y4372305D01*
X3179826Y4364329D01*
X3175711Y4355541D01*
X3173222Y4346194D01*
X3172358Y4336542D01*
X3173222Y4326890D01*
X3175711Y4317542D01*
X3179826Y4308754D01*
X3185414Y4300778D01*
X3192221Y4293920D01*
X3200196Y4288383D01*
X3208985Y4284268D01*
X3214268Y4282846D01*
X3218180Y4280814D01*
X3220872Y4277360D01*
X3221837Y4273042D01*
X3220872Y4268724D01*
X3218180Y4265269D01*
X3214268Y4263237D01*
X3208985Y4261815D01*
X3200196Y4257700D01*
X3192221Y4252163D01*
X3185414Y4245305D01*
X3179826Y4237329D01*
X3175711Y4228541D01*
X3173222Y4219194D01*
X3172358Y4209542D01*
X3173222Y4199890D01*
X3175711Y4190542D01*
X3179826Y4181754D01*
X3185414Y4173778D01*
X3192221Y4166920D01*
X3200196Y4161383D01*
X3208985Y4157268D01*
X3218332Y4154779D01*
X3228441Y4153865D01*
X3248914Y4153865D01*
X3252825Y4153103D01*
X3256127Y4150918D01*
X3426104Y3980891D01*
X3429762Y3977589D01*
X3433521Y3974693D01*
X3437483Y3972153D01*
X3443478Y3969359D01*
X3446373Y3967734D01*
X3448558Y3965244D01*
X3457244Y3951732D01*
X3466388Y3940657D01*
X3476904Y3930802D01*
X3488537Y3922318D01*
X3501136Y3915410D01*
X3514496Y3910126D01*
X3528466Y3906520D01*
G37*
G36*
X153416Y3948226D02*
G01*
X166928Y3949547D01*
X180187Y3952697D01*
X192887Y3957624D01*
X204825Y3964127D01*
X215747Y3972204D01*
X225552Y3981653D01*
X233984Y3992372D01*
X240893Y4004056D01*
X246227Y4016603D01*
X249783Y4029710D01*
X251612Y4043172D01*
X251612Y4056786D01*
X249783Y4070248D01*
X246227Y4083405D01*
X240893Y4095902D01*
X233984Y4107637D01*
X225552Y4118305D01*
X215747Y4127754D01*
X204825Y4135831D01*
X192887Y4142333D01*
X180187Y4147261D01*
X166928Y4150410D01*
X153416Y4151731D01*
X139801Y4151325D01*
X126390Y4149039D01*
X113436Y4145026D01*
X101092Y4139285D01*
X89611Y4131970D01*
X79197Y4123182D01*
X70104Y4113072D01*
X62382Y4101896D01*
X56235Y4089755D01*
X51816Y4076903D01*
X49072Y4063542D01*
X48158Y4049979D01*
X49072Y4036415D01*
X51816Y4023055D01*
X56235Y4010202D01*
X62382Y3998061D01*
X70104Y3986885D01*
X79197Y3976776D01*
X89611Y3967987D01*
X101092Y3960672D01*
X113436Y3954932D01*
X126390Y3950919D01*
X139801Y3948684D01*
G37*
G36*
X1453388Y3948226D02*
G01*
X1466951Y3949547D01*
X1480159Y3952697D01*
X1492859Y3957624D01*
X1504797Y3964127D01*
X1515770Y3972204D01*
X1525524Y3981653D01*
X1533956Y3992372D01*
X1540865Y4004056D01*
X1546199Y4016603D01*
X1549806Y4029710D01*
X1551584Y4043172D01*
X1551584Y4056786D01*
X1550111Y4067810D01*
X1550162Y4070908D01*
X1551178Y4073855D01*
X1553006Y4076344D01*
X1684070Y4207408D01*
X1687372Y4211066D01*
X1690268Y4214825D01*
X1692808Y4218787D01*
X1694992Y4223004D01*
X1696821Y4227322D01*
X1698243Y4231843D01*
X1699260Y4236466D01*
X1699869Y4241139D01*
X1700072Y4246067D01*
X1700072Y5203901D01*
X1700631Y5207152D01*
X1702155Y5210098D01*
X1704593Y5212334D01*
X1710283Y5216194D01*
X1720697Y5225288D01*
X1729790Y5235651D01*
X1737461Y5247182D01*
X1743608Y5259578D01*
X1748028Y5272633D01*
X1750720Y5286197D01*
X1751634Y5299964D01*
X1750720Y5313781D01*
X1748028Y5327294D01*
X1743608Y5340400D01*
X1737461Y5352796D01*
X1729790Y5364276D01*
X1720697Y5374690D01*
X1710283Y5383784D01*
X1698802Y5391454D01*
X1686407Y5397550D01*
X1673352Y5402021D01*
X1659788Y5404713D01*
X1646021Y5405628D01*
X1632204Y5404713D01*
X1618640Y5402021D01*
X1605584Y5397550D01*
X1593189Y5391454D01*
X1581708Y5383784D01*
X1571294Y5374690D01*
X1562201Y5364276D01*
X1554530Y5352796D01*
X1548434Y5340400D01*
X1543964Y5327294D01*
X1541272Y5313781D01*
X1540357Y5299964D01*
X1541272Y5286197D01*
X1543964Y5272633D01*
X1548434Y5259578D01*
X1554530Y5247182D01*
X1562201Y5235651D01*
X1571294Y5225288D01*
X1581708Y5216194D01*
X1587246Y5212486D01*
X1589684Y5210200D01*
X1591208Y5207304D01*
X1591767Y5204002D01*
X1591767Y4272483D01*
X1591005Y4268622D01*
X1588770Y4265320D01*
X1476552Y4153052D01*
X1473758Y4151071D01*
X1470456Y4150156D01*
X1453388Y4151731D01*
X1439824Y4151325D01*
X1426413Y4149039D01*
X1413408Y4145026D01*
X1401064Y4139285D01*
X1389583Y4131970D01*
X1379220Y4123182D01*
X1370076Y4113072D01*
X1362405Y4101896D01*
X1356258Y4089755D01*
X1351788Y4076903D01*
X1349095Y4063542D01*
X1348181Y4049979D01*
X1349095Y4036415D01*
X1351788Y4023055D01*
X1356258Y4010202D01*
X1362405Y3998061D01*
X1370076Y3986885D01*
X1379220Y3976776D01*
X1389583Y3967987D01*
X1401064Y3960672D01*
X1413408Y3954932D01*
X1426413Y3950919D01*
X1439824Y3948684D01*
G37*
G36*
X1453388Y4348226D02*
G01*
X1466951Y4349546D01*
X1480159Y4352747D01*
X1492859Y4357624D01*
X1504797Y4364126D01*
X1515770Y4372203D01*
X1525524Y4381652D01*
X1533956Y4392371D01*
X1540865Y4404055D01*
X1546199Y4416602D01*
X1549806Y4429709D01*
X1551584Y4443171D01*
X1551584Y4456785D01*
X1549806Y4470247D01*
X1546199Y4483404D01*
X1540865Y4495901D01*
X1533956Y4507636D01*
X1525524Y4518304D01*
X1515770Y4527753D01*
X1504797Y4535830D01*
X1492859Y4542332D01*
X1480159Y4547260D01*
X1466951Y4550410D01*
X1453388Y4551781D01*
X1439824Y4551324D01*
X1426413Y4549038D01*
X1413408Y4545025D01*
X1401064Y4539284D01*
X1389583Y4531969D01*
X1379220Y4523181D01*
X1370076Y4513072D01*
X1362405Y4501896D01*
X1356258Y4489754D01*
X1351788Y4476902D01*
X1349095Y4463542D01*
X1348181Y4449978D01*
X1349095Y4436414D01*
X1351788Y4423105D01*
X1356258Y4410252D01*
X1362405Y4398111D01*
X1370076Y4386884D01*
X1379220Y4376775D01*
X1389583Y4367987D01*
X1401064Y4360672D01*
X1413408Y4354931D01*
X1426413Y4350918D01*
X1439824Y4348683D01*
G37*
G36*
X153416Y4348226D02*
G01*
X166928Y4349546D01*
X180187Y4352747D01*
X192887Y4357624D01*
X204825Y4364126D01*
X215747Y4372203D01*
X225552Y4381652D01*
X233984Y4392371D01*
X240893Y4404055D01*
X246227Y4416602D01*
X249783Y4429709D01*
X251612Y4443171D01*
X251612Y4456785D01*
X250139Y4467860D01*
X250190Y4470958D01*
X251155Y4473905D01*
X253034Y4476394D01*
X569366Y4792726D01*
X572668Y4794961D01*
X576529Y4795723D01*
X1223670Y4795723D01*
X1226870Y4795215D01*
X1229766Y4793691D01*
X1232052Y4791303D01*
X1235100Y4786884D01*
X1244193Y4776774D01*
X1254607Y4767986D01*
X1266088Y4760671D01*
X1278382Y4754930D01*
X1291386Y4750917D01*
X1304798Y4748682D01*
X1318412Y4748225D01*
X1331925Y4749546D01*
X1345184Y4752695D01*
X1357884Y4757623D01*
X1369771Y4764125D01*
X1380744Y4772202D01*
X1390548Y4781651D01*
X1398930Y4792370D01*
X1405890Y4804054D01*
X1411173Y4816602D01*
X1414780Y4829708D01*
X1416608Y4843170D01*
X1416608Y4856784D01*
X1415135Y4867808D01*
X1415186Y4870907D01*
X1416151Y4873853D01*
X1418031Y4876342D01*
X1480870Y4939182D01*
X1484172Y4942840D01*
X1487068Y4946599D01*
X1489608Y4950561D01*
X1491792Y4954778D01*
X1493621Y4959096D01*
X1495044Y4963617D01*
X1496060Y4968240D01*
X1496669Y4972913D01*
X1496872Y4977841D01*
X1496872Y6591096D01*
X1497634Y6594957D01*
X1499870Y6598259D01*
X1861820Y6960260D01*
X1864512Y6962140D01*
X1867662Y6963105D01*
X1870913Y6963054D01*
X1885492Y6960260D01*
X1900021Y6959346D01*
X1914499Y6960260D01*
X1928774Y6963003D01*
X1942592Y6967474D01*
X1955698Y6973671D01*
X1967992Y6981444D01*
X1979168Y6990689D01*
X1989074Y7001256D01*
X1997659Y7013041D01*
X2004618Y7025741D01*
X2009952Y7039254D01*
X2013610Y7053325D01*
X2015388Y7067702D01*
X2015388Y7082231D01*
X2013610Y7096658D01*
X2009952Y7110730D01*
X2004618Y7124242D01*
X1997659Y7136942D01*
X1989074Y7148677D01*
X1979168Y7159294D01*
X1967992Y7168540D01*
X1955698Y7176312D01*
X1942592Y7182510D01*
X1928774Y7186980D01*
X1914499Y7189724D01*
X1900021Y7190638D01*
X1885492Y7189724D01*
X1871268Y7186980D01*
X1857451Y7182510D01*
X1844293Y7176312D01*
X1832051Y7168540D01*
X1820824Y7159294D01*
X1810918Y7148677D01*
X1802384Y7136942D01*
X1795373Y7124242D01*
X1790039Y7110730D01*
X1786432Y7096658D01*
X1784604Y7082231D01*
X1784604Y7067702D01*
X1786432Y7053325D01*
X1788109Y7046722D01*
X1788363Y7043267D01*
X1787448Y7039864D01*
X1785467Y7037019D01*
X1404569Y6656171D01*
X1401267Y6652514D01*
X1398371Y6648754D01*
X1395831Y6644792D01*
X1393647Y6640575D01*
X1391818Y6636258D01*
X1390396Y6631736D01*
X1389380Y6627114D01*
X1388770Y6622440D01*
X1388567Y6617512D01*
X1388567Y6342075D01*
X1387652Y6337909D01*
X1385062Y6334404D01*
X1381302Y6332372D01*
X1376984Y6332016D01*
X1372920Y6333540D01*
X1363929Y6339281D01*
X1351584Y6345021D01*
X1338630Y6349034D01*
X1325168Y6351320D01*
X1311605Y6351778D01*
X1298041Y6350406D01*
X1284833Y6347256D01*
X1272133Y6342329D01*
X1260195Y6335826D01*
X1249273Y6327749D01*
X1239469Y6318300D01*
X1231036Y6307632D01*
X1224127Y6295898D01*
X1218793Y6283401D01*
X1215186Y6270244D01*
X1213408Y6256782D01*
X1213408Y6243167D01*
X1215186Y6229705D01*
X1218793Y6216599D01*
X1224127Y6204051D01*
X1231036Y6192367D01*
X1239469Y6181648D01*
X1249273Y6172200D01*
X1260195Y6164122D01*
X1272133Y6157620D01*
X1284833Y6152743D01*
X1298041Y6149543D01*
X1311605Y6148222D01*
X1325168Y6148679D01*
X1338630Y6150914D01*
X1351584Y6154928D01*
X1363929Y6160668D01*
X1372920Y6166408D01*
X1376984Y6167932D01*
X1381302Y6167628D01*
X1385062Y6165545D01*
X1387652Y6162090D01*
X1388567Y6157874D01*
X1388567Y5699150D01*
X1387703Y5695035D01*
X1385214Y5691581D01*
X1381556Y5689498D01*
X1377340Y5689041D01*
X1373327Y5690362D01*
X1370177Y5693206D01*
X1368450Y5697067D01*
X1367231Y5702858D01*
X1365859Y5707380D01*
X1364030Y5711698D01*
X1361846Y5715914D01*
X1359306Y5719876D01*
X1356410Y5723636D01*
X1353108Y5727242D01*
X1157020Y5923584D01*
X1155192Y5926074D01*
X1154176Y5929020D01*
X1154125Y5932119D01*
X1155598Y5943193D01*
X1155598Y5956757D01*
X1153769Y5970270D01*
X1150213Y5983376D01*
X1144879Y5995924D01*
X1137970Y6007608D01*
X1129538Y6018276D01*
X1119733Y6027724D01*
X1108811Y6035802D01*
X1096873Y6042355D01*
X1084173Y6047232D01*
X1070914Y6050381D01*
X1057402Y6051753D01*
X1043787Y6051296D01*
X1030376Y6049060D01*
X1017422Y6044996D01*
X1005078Y6039256D01*
X993597Y6031941D01*
X983234Y6023203D01*
X974090Y6013094D01*
X966368Y6001867D01*
X960272Y5989726D01*
X955802Y5976874D01*
X953058Y5963564D01*
X952195Y5950000D01*
X953058Y5936386D01*
X955802Y5923076D01*
X960272Y5910224D01*
X966368Y5898083D01*
X974090Y5886856D01*
X983234Y5876798D01*
X993597Y5868009D01*
X1005078Y5860694D01*
X1017422Y5854954D01*
X1030376Y5850940D01*
X1043787Y5848654D01*
X1057402Y5848197D01*
X1074420Y5849823D01*
X1077722Y5848858D01*
X1080516Y5846876D01*
X1257808Y5669381D01*
X1260043Y5666079D01*
X1260805Y5662218D01*
X1260805Y5641390D01*
X1260297Y5638292D01*
X1258874Y5635447D01*
X1256690Y5633212D01*
X1249273Y5627725D01*
X1239469Y5618276D01*
X1231036Y5607608D01*
X1224127Y5595924D01*
X1218793Y5583377D01*
X1215186Y5570270D01*
X1213408Y5556758D01*
X1213408Y5543194D01*
X1215186Y5529681D01*
X1218793Y5516575D01*
X1224127Y5504027D01*
X1231036Y5492343D01*
X1239469Y5481675D01*
X1249273Y5472226D01*
X1256690Y5466740D01*
X1258874Y5464505D01*
X1260297Y5461711D01*
X1260805Y5458561D01*
X1260805Y5291480D01*
X1260246Y5288178D01*
X1258620Y5285181D01*
X1244193Y5273192D01*
X1235100Y5263083D01*
X1227378Y5251856D01*
X1221232Y5239715D01*
X1216761Y5226862D01*
X1214069Y5213553D01*
X1213154Y5199989D01*
X1214069Y5186426D01*
X1216761Y5173065D01*
X1221232Y5160213D01*
X1227378Y5148072D01*
X1235100Y5136845D01*
X1244193Y5126786D01*
X1254607Y5117998D01*
X1266037Y5110683D01*
X1278382Y5104942D01*
X1291386Y5100929D01*
X1304798Y5098643D01*
X1318412Y5098186D01*
X1331925Y5099558D01*
X1345184Y5102707D01*
X1357884Y5107584D01*
X1369771Y5114137D01*
X1372362Y5116068D01*
X1376426Y5117846D01*
X1380896Y5117744D01*
X1384858Y5115712D01*
X1387602Y5112207D01*
X1388567Y5107889D01*
X1388567Y5004257D01*
X1387805Y5000396D01*
X1385570Y4997094D01*
X1341577Y4953050D01*
X1338783Y4951069D01*
X1335481Y4950155D01*
X1318412Y4951730D01*
X1304798Y4951323D01*
X1291386Y4949037D01*
X1278382Y4945024D01*
X1266088Y4939284D01*
X1254607Y4931968D01*
X1244193Y4923180D01*
X1235100Y4913071D01*
X1231900Y4908448D01*
X1229614Y4906060D01*
X1226718Y4904536D01*
X1223518Y4904028D01*
X550113Y4904028D01*
X545185Y4903825D01*
X540512Y4903216D01*
X535889Y4902200D01*
X531368Y4900777D01*
X527050Y4898948D01*
X522833Y4896764D01*
X518871Y4894224D01*
X515112Y4891328D01*
X511454Y4888026D01*
X176530Y4553102D01*
X173736Y4551121D01*
X170434Y4550156D01*
X153416Y4551781D01*
X139801Y4551324D01*
X126390Y4549038D01*
X113436Y4545025D01*
X101092Y4539284D01*
X89611Y4531969D01*
X79197Y4523181D01*
X70104Y4513072D01*
X62382Y4501896D01*
X56235Y4489754D01*
X51816Y4476902D01*
X49072Y4463542D01*
X48158Y4449978D01*
X49072Y4436414D01*
X51816Y4423105D01*
X56235Y4410252D01*
X62382Y4398111D01*
X70104Y4386884D01*
X79197Y4376775D01*
X89611Y4367987D01*
X101092Y4360672D01*
X113436Y4354931D01*
X126390Y4350918D01*
X139801Y4348683D01*
G37*
G36*
X288391Y4748225D02*
G01*
X301955Y4749546D01*
X315163Y4752695D01*
X327863Y4757623D01*
X339801Y4764125D01*
X350723Y4772202D01*
X360527Y4781651D01*
X368960Y4792370D01*
X375869Y4804054D01*
X381203Y4816602D01*
X384810Y4829708D01*
X386588Y4843170D01*
X386588Y4856784D01*
X384810Y4870246D01*
X381203Y4883404D01*
X375869Y4895900D01*
X368960Y4907635D01*
X360527Y4918303D01*
X350723Y4927752D01*
X339801Y4935829D01*
X327863Y4942332D01*
X315163Y4947259D01*
X301955Y4950409D01*
X288391Y4951730D01*
X274828Y4951323D01*
X261416Y4949037D01*
X248412Y4945024D01*
X236067Y4939284D01*
X224586Y4931968D01*
X214223Y4923180D01*
X205079Y4913071D01*
X197408Y4901895D01*
X191262Y4889754D01*
X186791Y4876901D01*
X184099Y4863541D01*
X183184Y4849977D01*
X184099Y4836414D01*
X186791Y4823053D01*
X191262Y4810201D01*
X197408Y4798060D01*
X205079Y4786884D01*
X214223Y4776774D01*
X224586Y4767986D01*
X236067Y4760671D01*
X248412Y4754930D01*
X261416Y4750917D01*
X274828Y4748682D01*
G37*
G36*
X5561584Y4998212D02*
G01*
X5575198Y4998669D01*
X5588609Y5000904D01*
X5601614Y5004968D01*
X5613958Y5010658D01*
X5625388Y5017973D01*
X5635802Y5026761D01*
X5644896Y5036870D01*
X5652617Y5048097D01*
X5658764Y5060238D01*
X5663234Y5073091D01*
X5665927Y5086400D01*
X5666841Y5099964D01*
X5665927Y5113528D01*
X5663234Y5126888D01*
X5658764Y5139740D01*
X5652617Y5151882D01*
X5644896Y5163108D01*
X5635802Y5173167D01*
X5621477Y5185156D01*
X5619851Y5188102D01*
X5619292Y5191404D01*
X5619292Y5988862D01*
X5619089Y5993790D01*
X5618480Y5998464D01*
X5617413Y6003086D01*
X5616041Y6007557D01*
X5614212Y6011976D01*
X5612028Y6016142D01*
X5609488Y6020155D01*
X5606643Y6023864D01*
X5603240Y6027521D01*
X5410200Y6220409D01*
X5408269Y6223101D01*
X5407304Y6226251D01*
X5407406Y6229553D01*
X5408726Y6236208D01*
X5409641Y6249974D01*
X5408726Y6263792D01*
X5406034Y6277305D01*
X5401614Y6290411D01*
X5395468Y6302806D01*
X5387797Y6314287D01*
X5378704Y6324650D01*
X5368290Y6333794D01*
X5356809Y6341465D01*
X5344414Y6347561D01*
X5331358Y6352032D01*
X5317794Y6354724D01*
X5303977Y6355588D01*
X5290210Y6354724D01*
X5276646Y6352032D01*
X5263591Y6347561D01*
X5251196Y6341465D01*
X5239715Y6333794D01*
X5229301Y6324650D01*
X5220208Y6314287D01*
X5212537Y6302806D01*
X5206390Y6290411D01*
X5201970Y6277305D01*
X5199278Y6263792D01*
X5198364Y6249974D01*
X5199278Y6236208D01*
X5201970Y6222644D01*
X5206390Y6209538D01*
X5212537Y6197142D01*
X5220208Y6185662D01*
X5229301Y6175298D01*
X5239715Y6166154D01*
X5251196Y6158484D01*
X5263591Y6152388D01*
X5276646Y6147968D01*
X5290210Y6145276D01*
X5303977Y6144361D01*
X5317794Y6145276D01*
X5324449Y6146596D01*
X5327751Y6146698D01*
X5330952Y6145733D01*
X5333644Y6143802D01*
X5507990Y5969609D01*
X5510225Y5966307D01*
X5510987Y5962396D01*
X5510987Y5191506D01*
X5510479Y5188407D01*
X5509056Y5185562D01*
X5506872Y5183327D01*
X5499252Y5177739D01*
X5489498Y5168290D01*
X5481066Y5157622D01*
X5474106Y5145887D01*
X5468823Y5133390D01*
X5465216Y5120284D01*
X5463387Y5106771D01*
X5463387Y5093157D01*
X5465216Y5079695D01*
X5468823Y5066588D01*
X5474106Y5054041D01*
X5481066Y5042357D01*
X5489498Y5031689D01*
X5499252Y5022240D01*
X5510225Y5014163D01*
X5522112Y5007610D01*
X5534812Y5002733D01*
X5548071Y4999583D01*
G37*
G36*
X288391Y5098186D02*
G01*
X301955Y5099558D01*
X315163Y5102707D01*
X327863Y5107584D01*
X339801Y5114137D01*
X350723Y5122214D01*
X360527Y5131663D01*
X368960Y5142331D01*
X375869Y5154066D01*
X381203Y5166563D01*
X384810Y5179720D01*
X386588Y5193182D01*
X386588Y5206796D01*
X384810Y5220258D01*
X381203Y5233365D01*
X375869Y5245912D01*
X368960Y5257596D01*
X360527Y5268264D01*
X350723Y5277764D01*
X339801Y5285790D01*
X327863Y5292344D01*
X315163Y5297220D01*
X301955Y5300370D01*
X288391Y5301742D01*
X274828Y5301284D01*
X261416Y5299049D01*
X248412Y5294985D01*
X236067Y5289296D01*
X224586Y5281980D01*
X214223Y5273192D01*
X205079Y5263083D01*
X197358Y5251856D01*
X191262Y5239715D01*
X186791Y5226862D01*
X184099Y5213553D01*
X183184Y5199989D01*
X184099Y5186426D01*
X186791Y5173065D01*
X191262Y5160213D01*
X197358Y5148072D01*
X205079Y5136845D01*
X214223Y5126786D01*
X224586Y5117998D01*
X236067Y5110683D01*
X248412Y5104942D01*
X261416Y5100929D01*
X274828Y5098643D01*
G37*
G36*
X2676347Y5246522D02*
G01*
X2686964Y5252364D01*
X2698699Y5260898D01*
X2709265Y5270804D01*
X2718562Y5282031D01*
X2726334Y5294274D01*
X2728366Y5298643D01*
X2676347Y5298643D01*
G37*
G36*
X2676347Y5401310D02*
G01*
X2728366Y5401310D01*
X2726334Y5405678D01*
X2718562Y5417921D01*
X2709265Y5429148D01*
X2698699Y5439054D01*
X2686964Y5447588D01*
X2676347Y5453430D01*
G37*
G36*
X2521610Y5401310D02*
G01*
X2573629Y5401310D01*
X2573629Y5453430D01*
X2563012Y5447588D01*
X2551277Y5439054D01*
X2540711Y5429148D01*
X2531465Y5417921D01*
X2523642Y5405678D01*
G37*
G36*
X281584Y5448198D02*
G01*
X295198Y5448655D01*
X308610Y5450941D01*
X321614Y5454954D01*
X333959Y5460695D01*
X345389Y5468010D01*
X355803Y5476798D01*
X364896Y5486857D01*
X372618Y5498084D01*
X378764Y5510225D01*
X383235Y5523077D01*
X385927Y5536387D01*
X386842Y5550001D01*
X385927Y5563565D01*
X383235Y5576874D01*
X378764Y5589727D01*
X372618Y5601868D01*
X364896Y5613095D01*
X355803Y5623153D01*
X341325Y5635244D01*
X339699Y5638190D01*
X339140Y5641543D01*
X339140Y5662218D01*
X339902Y5666079D01*
X342138Y5669381D01*
X519785Y5847029D01*
X522376Y5848908D01*
X525424Y5849874D01*
X528624Y5849874D01*
X535787Y5848654D01*
X549402Y5848197D01*
X562914Y5849569D01*
X576173Y5852718D01*
X588873Y5857595D01*
X600811Y5864148D01*
X611733Y5872226D01*
X621538Y5881674D01*
X629970Y5892342D01*
X636879Y5904077D01*
X642213Y5916574D01*
X645769Y5929680D01*
X647598Y5943193D01*
X647598Y5956757D01*
X645769Y5970270D01*
X642213Y5983376D01*
X636879Y5995924D01*
X629970Y6007608D01*
X621538Y6018276D01*
X611733Y6027724D01*
X600811Y6035802D01*
X588873Y6042355D01*
X576173Y6047232D01*
X562914Y6050381D01*
X549402Y6051753D01*
X535787Y6051296D01*
X522376Y6049060D01*
X509422Y6044996D01*
X497078Y6039256D01*
X485597Y6031941D01*
X475234Y6023203D01*
X466090Y6013094D01*
X458368Y6001867D01*
X452272Y5989726D01*
X447801Y5976874D01*
X445058Y5963564D01*
X444195Y5950000D01*
X445058Y5936386D01*
X445820Y5932678D01*
X445973Y5929376D01*
X445008Y5926175D01*
X443077Y5923483D01*
X246837Y5727293D01*
X243535Y5723636D01*
X240639Y5719876D01*
X238099Y5715914D01*
X235915Y5711698D01*
X234086Y5707380D01*
X232664Y5702858D01*
X231648Y5698236D01*
X231038Y5693562D01*
X230835Y5688634D01*
X230835Y5641390D01*
X230327Y5638292D01*
X228904Y5635447D01*
X226720Y5633212D01*
X219252Y5627725D01*
X209499Y5618276D01*
X201066Y5607608D01*
X194106Y5595924D01*
X188823Y5583377D01*
X185216Y5570270D01*
X183388Y5556758D01*
X183388Y5543194D01*
X185216Y5529681D01*
X188823Y5516575D01*
X194106Y5504027D01*
X201066Y5492343D01*
X209499Y5481675D01*
X219252Y5472226D01*
X230225Y5464149D01*
X242112Y5457596D01*
X254812Y5452719D01*
X268071Y5449570D01*
G37*
G36*
X1646021Y5694324D02*
G01*
X1659788Y5695238D01*
X1673352Y5697931D01*
X1686407Y5702401D01*
X1698802Y5708497D01*
X1710283Y5716168D01*
X1720697Y5725312D01*
X1729790Y5735675D01*
X1737461Y5747156D01*
X1743608Y5759551D01*
X1748028Y5772658D01*
X1750720Y5786170D01*
X1751634Y5799988D01*
X1750720Y5813755D01*
X1748028Y5827318D01*
X1743608Y5840425D01*
X1737461Y5852820D01*
X1729790Y5864301D01*
X1720697Y5874664D01*
X1710283Y5883808D01*
X1698802Y5891479D01*
X1686407Y5897575D01*
X1673352Y5901994D01*
X1659788Y5904687D01*
X1646021Y5905601D01*
X1632204Y5904687D01*
X1618640Y5901994D01*
X1605584Y5897575D01*
X1593189Y5891479D01*
X1581708Y5883808D01*
X1571294Y5874664D01*
X1562201Y5864301D01*
X1554530Y5852820D01*
X1548434Y5840425D01*
X1543964Y5827318D01*
X1541272Y5813755D01*
X1540357Y5799988D01*
X1541272Y5786170D01*
X1543964Y5772658D01*
X1548434Y5759551D01*
X1554530Y5747156D01*
X1562201Y5735675D01*
X1571294Y5725312D01*
X1581708Y5716168D01*
X1593189Y5708497D01*
X1605584Y5702401D01*
X1618640Y5697931D01*
X1632204Y5695238D01*
G37*
G36*
X281584Y6148222D02*
G01*
X295198Y6148679D01*
X308610Y6150914D01*
X321614Y6154928D01*
X333959Y6160668D01*
X345389Y6167983D01*
X355803Y6176772D01*
X364896Y6186881D01*
X372618Y6198108D01*
X378764Y6210249D01*
X383235Y6223101D01*
X385927Y6236411D01*
X386842Y6249974D01*
X385927Y6263538D01*
X383235Y6276898D01*
X378764Y6289751D01*
X372618Y6301892D01*
X364896Y6313068D01*
X355803Y6323177D01*
X345389Y6331966D01*
X333959Y6339281D01*
X321614Y6345021D01*
X308610Y6349034D01*
X295198Y6351320D01*
X281584Y6351778D01*
X268071Y6350406D01*
X254812Y6347256D01*
X242112Y6342329D01*
X230225Y6335826D01*
X219252Y6327749D01*
X209499Y6318300D01*
X201066Y6307632D01*
X194106Y6295898D01*
X188823Y6283401D01*
X185216Y6270244D01*
X183388Y6256782D01*
X183388Y6243167D01*
X185216Y6229705D01*
X188823Y6216599D01*
X194106Y6204051D01*
X201066Y6192367D01*
X209499Y6181648D01*
X219252Y6172200D01*
X230225Y6164122D01*
X242112Y6157620D01*
X254812Y6152743D01*
X268071Y6149543D01*
G37*
G36*
X2753461Y6548120D02*
G01*
X2766974Y6549491D01*
X2780233Y6552641D01*
X2792933Y6557518D01*
X2804871Y6564071D01*
X2815793Y6572097D01*
X2825597Y6581597D01*
X2834030Y6592265D01*
X2840939Y6603949D01*
X2846273Y6616496D01*
X2849829Y6629603D01*
X2851658Y6643065D01*
X2851658Y6656679D01*
X2849829Y6670141D01*
X2846273Y6683298D01*
X2840939Y6695795D01*
X2834030Y6707530D01*
X2825597Y6718198D01*
X2815793Y6727647D01*
X2804871Y6735724D01*
X2792933Y6742226D01*
X2780233Y6747154D01*
X2766974Y6750303D01*
X2753461Y6751675D01*
X2739847Y6751218D01*
X2726436Y6748932D01*
X2713431Y6744919D01*
X2701137Y6739178D01*
X2689656Y6731863D01*
X2679242Y6723075D01*
X2670149Y6712966D01*
X2662428Y6701790D01*
X2656281Y6689648D01*
X2651861Y6676796D01*
X2649118Y6663436D01*
X2648204Y6649872D01*
X2649118Y6636308D01*
X2651861Y6622999D01*
X2656281Y6610146D01*
X2662428Y6598005D01*
X2670149Y6586778D01*
X2679242Y6576669D01*
X2689656Y6567881D01*
X2701137Y6560566D01*
X2713431Y6554876D01*
X2726436Y6550812D01*
X2739847Y6548577D01*
G37*
G36*
X724966Y6914337D02*
G01*
X737108Y6915200D01*
X749046Y6917842D01*
X760526Y6922109D01*
X771245Y6927951D01*
X780999Y6935266D01*
X789635Y6943902D01*
X791870Y6946849D01*
X794613Y6949389D01*
X798118Y6950760D01*
X801878Y6950760D01*
X805383Y6949389D01*
X808126Y6946849D01*
X810361Y6943902D01*
X818997Y6935266D01*
X828751Y6927951D01*
X839469Y6922109D01*
X850950Y6917842D01*
X862888Y6915200D01*
X875080Y6914337D01*
X887221Y6915200D01*
X899160Y6917842D01*
X910640Y6922109D01*
X921359Y6927951D01*
X931113Y6935266D01*
X939749Y6943902D01*
X947115Y6953707D01*
X952957Y6964425D01*
X957224Y6975856D01*
X959815Y6987794D01*
X960678Y6999986D01*
X959815Y7012178D01*
X957224Y7024116D01*
X952957Y7035546D01*
X947115Y7046264D01*
X939749Y7056069D01*
X931113Y7064705D01*
X921359Y7072020D01*
X910640Y7077862D01*
X899160Y7082129D01*
X887221Y7084720D01*
X875080Y7085584D01*
X862888Y7084720D01*
X850950Y7082129D01*
X839469Y7077862D01*
X828751Y7072020D01*
X818997Y7064705D01*
X810361Y7056069D01*
X808126Y7053122D01*
X805383Y7050582D01*
X801878Y7049211D01*
X798118Y7049211D01*
X794613Y7050582D01*
X791870Y7053122D01*
X789635Y7056069D01*
X780999Y7064705D01*
X771245Y7072020D01*
X760526Y7077862D01*
X749046Y7082129D01*
X737108Y7084720D01*
X724966Y7085584D01*
X712774Y7084720D01*
X700836Y7082129D01*
X689356Y7077862D01*
X678637Y7072020D01*
X668883Y7064705D01*
X660247Y7056069D01*
X652932Y7046264D01*
X647039Y7035546D01*
X642772Y7024116D01*
X640181Y7012178D01*
X639318Y6999986D01*
X640181Y6987794D01*
X642772Y6975856D01*
X647039Y6964425D01*
X652932Y6953707D01*
X660247Y6943902D01*
X668883Y6935266D01*
X678637Y6927951D01*
X689356Y6922109D01*
X700836Y6917842D01*
X712774Y6915200D01*
G37*
G36*
X1091184Y7037070D02*
G01*
X1100937Y7037933D01*
X1110386Y7040473D01*
X1119225Y7044588D01*
X1127252Y7050227D01*
X1134160Y7057136D01*
X1139799Y7065162D01*
X1143914Y7074001D01*
X1146454Y7083450D01*
X1147318Y7093203D01*
X1146454Y7102957D01*
X1145336Y7108444D01*
X1145336Y7326426D01*
X1145133Y7331354D01*
X1144524Y7336028D01*
X1143508Y7340650D01*
X1142085Y7345172D01*
X1140256Y7349490D01*
X1138072Y7353706D01*
X1135532Y7357668D01*
X1132636Y7361428D01*
X1129334Y7365085D01*
X762457Y7731963D01*
X760272Y7735214D01*
X759460Y7739125D01*
X760272Y7743037D01*
X762457Y7746288D01*
X765759Y7748524D01*
X769620Y7749286D01*
X774395Y7749286D01*
X780643Y7749997D01*
X786079Y7751876D01*
X790905Y7754924D01*
X794969Y7758988D01*
X798017Y7763814D01*
X799896Y7769250D01*
X800608Y7775498D01*
X800608Y7924241D01*
X799896Y7930489D01*
X798017Y7935925D01*
X794969Y7940751D01*
X790905Y7944815D01*
X786079Y7947863D01*
X780643Y7949742D01*
X774395Y7950453D01*
X625652Y7950453D01*
X619404Y7949742D01*
X613968Y7947863D01*
X609142Y7944815D01*
X605078Y7940751D01*
X602030Y7935925D01*
X600151Y7930489D01*
X599440Y7924241D01*
X599440Y7775498D01*
X600151Y7769250D01*
X602030Y7763814D01*
X605078Y7758988D01*
X609142Y7754924D01*
X613968Y7751876D01*
X619404Y7749997D01*
X625652Y7749286D01*
X635711Y7749286D01*
X639622Y7748524D01*
X642874Y7746288D01*
X645109Y7743037D01*
X645871Y7739125D01*
X645871Y7717993D01*
X646074Y7713065D01*
X646684Y7708392D01*
X647700Y7703769D01*
X649122Y7699248D01*
X650951Y7694930D01*
X653135Y7690713D01*
X655675Y7686751D01*
X658571Y7682992D01*
X661873Y7679334D01*
X1034034Y7307173D01*
X1036269Y7303871D01*
X1037031Y7300010D01*
X1037031Y7108444D01*
X1035913Y7102957D01*
X1035050Y7093203D01*
X1035913Y7083450D01*
X1038453Y7074001D01*
X1042568Y7065162D01*
X1048207Y7057136D01*
X1055116Y7050227D01*
X1063142Y7044588D01*
X1071981Y7040473D01*
X1081430Y7037933D01*
G37*
G36*
X397002Y7324394D02*
G01*
X416712Y7325156D01*
X433222Y7327544D01*
X436524Y7328204D01*
X452678Y7332472D01*
X455879Y7333488D01*
X471424Y7339533D01*
X474472Y7340955D01*
X489254Y7348728D01*
X492099Y7350455D01*
X505917Y7359903D01*
X508558Y7361936D01*
X521157Y7372858D01*
X523595Y7375245D01*
X534873Y7387539D01*
X537006Y7390130D01*
X546811Y7403642D01*
X548640Y7406436D01*
X558342Y7424013D01*
X565962Y7442555D01*
X570636Y7458557D01*
X571398Y7461859D01*
X574243Y7478268D01*
X574649Y7481620D01*
X575614Y7498283D01*
X575614Y7501686D01*
X574649Y7518349D01*
X574243Y7521651D01*
X571398Y7538110D01*
X570636Y7541412D01*
X565962Y7557414D01*
X558342Y7575956D01*
X548640Y7593482D01*
X546811Y7596327D01*
X537006Y7609840D01*
X534873Y7612430D01*
X523595Y7624724D01*
X521157Y7627061D01*
X508558Y7638034D01*
X505917Y7640066D01*
X489254Y7651242D01*
X474472Y7659014D01*
X471424Y7660386D01*
X455879Y7666481D01*
X452678Y7667498D01*
X436524Y7671765D01*
X433222Y7672425D01*
X416712Y7674813D01*
X396646Y7675575D01*
X393293Y7675473D01*
X376682Y7674051D01*
X373329Y7673543D01*
X356971Y7670241D01*
X353720Y7669377D01*
X337870Y7664246D01*
X334721Y7663027D01*
X319532Y7656068D01*
X316585Y7654493D01*
X302260Y7645857D01*
X299516Y7643977D01*
X286258Y7633766D01*
X283718Y7631582D01*
X271780Y7619949D01*
X269494Y7617459D01*
X258927Y7604556D01*
X256946Y7601813D01*
X247904Y7587792D01*
X246278Y7584846D01*
X238912Y7569860D01*
X237591Y7566761D01*
X232003Y7551064D01*
X231038Y7547813D01*
X226669Y7528255D01*
X224790Y7511694D01*
X224586Y7508341D01*
X224586Y7491628D01*
X224790Y7488275D01*
X226669Y7471714D01*
X227279Y7468362D01*
X231038Y7452106D01*
X232003Y7448905D01*
X237591Y7433157D01*
X238912Y7430058D01*
X246278Y7415072D01*
X247904Y7412177D01*
X256946Y7398105D01*
X258927Y7395413D01*
X269494Y7382459D01*
X283718Y7368387D01*
X286258Y7366152D01*
X302260Y7354062D01*
X316585Y7345476D01*
X319532Y7343902D01*
X334721Y7336942D01*
X337870Y7335723D01*
X353720Y7330592D01*
X356971Y7329728D01*
X373329Y7326426D01*
X376682Y7325918D01*
X392988Y7324547D01*
G37*
G36*
X4601464Y7608519D02*
G01*
X4601464Y7655559D01*
X4554423Y7655559D01*
X4555032Y7654086D01*
X4561941Y7642402D01*
X4570374Y7631684D01*
X4580178Y7622235D01*
X4591100Y7614158D01*
G37*
G36*
X4690364Y7608620D02*
G01*
X4694834Y7610703D01*
X4706315Y7618018D01*
X4716729Y7626807D01*
X4725822Y7636916D01*
X4733544Y7648092D01*
X4737303Y7655559D01*
X4690364Y7655559D01*
G37*
G36*
X4690364Y7744459D02*
G01*
X4737303Y7744459D01*
X4733544Y7751927D01*
X4725822Y7763103D01*
X4716729Y7773212D01*
X4706315Y7782001D01*
X4694834Y7789316D01*
X4690364Y7791399D01*
G37*
G36*
X4554423Y7744459D02*
G01*
X4601464Y7744459D01*
X4601464Y7791500D01*
X4591100Y7785862D01*
X4580178Y7777784D01*
X4570374Y7768336D01*
X4561941Y7757617D01*
X4555032Y7745933D01*
G37*
G36*
X1458671Y7749387D02*
G01*
X1472082Y7749794D01*
X1485341Y7752029D01*
X1498142Y7756042D01*
X1510334Y7761681D01*
X1521663Y7768894D01*
X1531924Y7777581D01*
X1540967Y7787538D01*
X1548536Y7798612D01*
X1554581Y7810601D01*
X1559001Y7823301D01*
X1561693Y7836458D01*
X1562608Y7849870D01*
X1561693Y7863281D01*
X1559001Y7876438D01*
X1554581Y7889138D01*
X1548536Y7901127D01*
X1540967Y7912201D01*
X1531924Y7922158D01*
X1521663Y7930845D01*
X1510334Y7938058D01*
X1498142Y7943697D01*
X1485341Y7947710D01*
X1472082Y7949946D01*
X1458671Y7950352D01*
X1445310Y7949031D01*
X1432255Y7945932D01*
X1419707Y7941106D01*
X1407922Y7934655D01*
X1397101Y7926679D01*
X1387449Y7917332D01*
X1379118Y7906766D01*
X1372260Y7895234D01*
X1367028Y7882839D01*
X1363472Y7869885D01*
X1361694Y7856575D01*
X1361694Y7843164D01*
X1363472Y7829854D01*
X1367028Y7816900D01*
X1372260Y7804505D01*
X1379118Y7792974D01*
X1387449Y7782407D01*
X1397101Y7773060D01*
X1407922Y7765084D01*
X1419707Y7758633D01*
X1432255Y7753807D01*
X1445310Y7750708D01*
G37*
G36*
X950671Y7749387D02*
G01*
X964082Y7749794D01*
X977341Y7752029D01*
X990142Y7756042D01*
X1002334Y7761681D01*
X1013663Y7768894D01*
X1023924Y7777581D01*
X1032967Y7787538D01*
X1040536Y7798612D01*
X1046581Y7810601D01*
X1051001Y7823301D01*
X1053693Y7836458D01*
X1054608Y7849870D01*
X1053693Y7863281D01*
X1051001Y7876438D01*
X1046581Y7889138D01*
X1040536Y7901127D01*
X1032967Y7912201D01*
X1023924Y7922158D01*
X1013663Y7930845D01*
X1002334Y7938058D01*
X990142Y7943697D01*
X977341Y7947710D01*
X964082Y7949946D01*
X950671Y7950352D01*
X937310Y7949031D01*
X924255Y7945932D01*
X911707Y7941106D01*
X899921Y7934655D01*
X889101Y7926679D01*
X879449Y7917332D01*
X871118Y7906766D01*
X864260Y7895234D01*
X859028Y7882839D01*
X855471Y7869885D01*
X853694Y7856575D01*
X853694Y7843164D01*
X855471Y7829854D01*
X859028Y7816900D01*
X864260Y7804505D01*
X871118Y7792974D01*
X879449Y7782407D01*
X889101Y7773060D01*
X899921Y7765084D01*
X911707Y7758633D01*
X924255Y7753807D01*
X937310Y7750708D01*
G37*
G36*
X1164234Y7759446D02*
G01*
X1164234Y7806029D01*
X1117600Y7806029D01*
X1118260Y7804505D01*
X1125118Y7792974D01*
X1133449Y7782407D01*
X1143101Y7773060D01*
X1153922Y7765084D01*
G37*
G36*
X1251864Y7759598D02*
G01*
X1256334Y7761681D01*
X1267663Y7768894D01*
X1277924Y7777581D01*
X1286967Y7787538D01*
X1294536Y7798612D01*
X1298295Y7806029D01*
X1251864Y7806029D01*
G37*
G36*
X1251864Y7893659D02*
G01*
X1298295Y7893659D01*
X1294536Y7901127D01*
X1286967Y7912201D01*
X1277924Y7922158D01*
X1267663Y7930845D01*
X1256334Y7938058D01*
X1251864Y7940141D01*
G37*
G36*
X1117600Y7893659D02*
G01*
X1164234Y7893659D01*
X1164234Y7940294D01*
X1153922Y7934655D01*
X1143101Y7926679D01*
X1133449Y7917332D01*
X1125118Y7906766D01*
X1118260Y7895234D01*
G37*
G36*
X2481580Y8298230D02*
G01*
X2495194Y8298637D01*
X2508605Y8300923D01*
X2521610Y8304936D01*
X2533954Y8310676D01*
X2545384Y8317992D01*
X2555798Y8326780D01*
X2564892Y8336889D01*
X2572613Y8348065D01*
X2578760Y8360206D01*
X2583230Y8373059D01*
X2585923Y8386419D01*
X2586837Y8399983D01*
X2585923Y8413546D01*
X2583230Y8426907D01*
X2578760Y8439759D01*
X2572613Y8451900D01*
X2564892Y8463076D01*
X2555798Y8473186D01*
X2545384Y8481974D01*
X2533954Y8489289D01*
X2521610Y8495030D01*
X2508605Y8499043D01*
X2495194Y8501278D01*
X2481580Y8501735D01*
X2468067Y8500414D01*
X2454808Y8497265D01*
X2442159Y8492337D01*
X2430221Y8485835D01*
X2419248Y8477758D01*
X2409494Y8468309D01*
X2401062Y8457590D01*
X2394102Y8445906D01*
X2388819Y8433358D01*
X2385212Y8420252D01*
X2383383Y8406790D01*
X2383383Y8393176D01*
X2385212Y8379714D01*
X2388819Y8366556D01*
X2394102Y8354059D01*
X2401062Y8342325D01*
X2409494Y8331657D01*
X2419248Y8322208D01*
X2430221Y8314131D01*
X2442159Y8307628D01*
X2454808Y8302701D01*
X2468067Y8299551D01*
G37*
G36*
X3511600Y8298230D02*
G01*
X3525215Y8298637D01*
X3538626Y8300923D01*
X3551580Y8304936D01*
X3563924Y8310676D01*
X3575405Y8317992D01*
X3585768Y8326780D01*
X3594912Y8336889D01*
X3602634Y8348065D01*
X3608730Y8360206D01*
X3613200Y8373059D01*
X3615944Y8386419D01*
X3616807Y8399983D01*
X3615944Y8413546D01*
X3613200Y8426907D01*
X3608730Y8439759D01*
X3602634Y8451900D01*
X3594912Y8463076D01*
X3585768Y8473186D01*
X3575405Y8481974D01*
X3563924Y8489289D01*
X3551580Y8495030D01*
X3538626Y8499043D01*
X3525215Y8501278D01*
X3511600Y8501735D01*
X3498037Y8500414D01*
X3484829Y8497265D01*
X3472129Y8492337D01*
X3460191Y8485835D01*
X3449269Y8477758D01*
X3439464Y8468309D01*
X3431032Y8457590D01*
X3424123Y8445906D01*
X3418789Y8433358D01*
X3415233Y8420252D01*
X3413404Y8406790D01*
X3413404Y8393176D01*
X3415233Y8379714D01*
X3418789Y8366556D01*
X3424123Y8354059D01*
X3431032Y8342325D01*
X3439464Y8331657D01*
X3449269Y8322208D01*
X3460191Y8314131D01*
X3472129Y8307628D01*
X3484829Y8302701D01*
X3498037Y8299551D01*
G37*
G36*
X4730445Y8324291D02*
G01*
X4869789Y8324291D01*
X4883912Y8325205D01*
X4897424Y8327898D01*
X4910531Y8332317D01*
X4922926Y8338464D01*
X4934407Y8346135D01*
X4944821Y8355228D01*
X4953914Y8365642D01*
X4961585Y8377123D01*
X4967681Y8389518D01*
X4972151Y8402574D01*
X4974844Y8416137D01*
X4975758Y8429904D01*
X4974844Y8443722D01*
X4972151Y8457285D01*
X4967681Y8470341D01*
X4961585Y8482736D01*
X4953914Y8494217D01*
X4944821Y8504631D01*
X4934407Y8513724D01*
X4922926Y8521395D01*
X4910531Y8527491D01*
X4897424Y8531961D01*
X4883912Y8534654D01*
X4869789Y8535568D01*
X4730445Y8535568D01*
X4716322Y8534654D01*
X4702759Y8531961D01*
X4689703Y8527491D01*
X4677308Y8521395D01*
X4665776Y8513724D01*
X4655413Y8504631D01*
X4646320Y8494217D01*
X4638649Y8482736D01*
X4632502Y8470341D01*
X4628083Y8457285D01*
X4625390Y8443722D01*
X4624476Y8429904D01*
X4625390Y8416137D01*
X4628083Y8402574D01*
X4632502Y8389518D01*
X4638649Y8377123D01*
X4646320Y8365642D01*
X4655413Y8355228D01*
X4665776Y8346135D01*
X4677308Y8338464D01*
X4689703Y8332317D01*
X4702759Y8327898D01*
X4716322Y8325205D01*
G37*
G36*
X1130249Y8324291D02*
G01*
X1269593Y8324291D01*
X1283716Y8325205D01*
X1297228Y8327898D01*
X1310335Y8332317D01*
X1322730Y8338464D01*
X1334211Y8346135D01*
X1344625Y8355228D01*
X1353718Y8365642D01*
X1361389Y8377123D01*
X1367485Y8389518D01*
X1371955Y8402574D01*
X1374648Y8416137D01*
X1375562Y8429904D01*
X1374648Y8443722D01*
X1371955Y8457285D01*
X1367485Y8470341D01*
X1361389Y8482736D01*
X1353718Y8494217D01*
X1344625Y8504631D01*
X1334211Y8513724D01*
X1322730Y8521395D01*
X1310335Y8527491D01*
X1297228Y8531961D01*
X1283716Y8534654D01*
X1269593Y8535568D01*
X1130249Y8535568D01*
X1116126Y8534654D01*
X1102563Y8531961D01*
X1089507Y8527491D01*
X1077112Y8521395D01*
X1065580Y8513724D01*
X1055217Y8504631D01*
X1046124Y8494217D01*
X1038453Y8482736D01*
X1032306Y8470341D01*
X1027887Y8457285D01*
X1025194Y8443722D01*
X1024280Y8429904D01*
X1025194Y8416137D01*
X1027887Y8402574D01*
X1032306Y8389518D01*
X1038453Y8377123D01*
X1046124Y8365642D01*
X1055217Y8355228D01*
X1065580Y8346135D01*
X1077112Y8338464D01*
X1089507Y8332317D01*
X1102563Y8327898D01*
X1116126Y8325205D01*
G37*
G36*
X495249Y8324291D02*
G01*
X634593Y8324291D01*
X648716Y8325205D01*
X662228Y8327898D01*
X675335Y8332317D01*
X687730Y8338464D01*
X699211Y8346135D01*
X709625Y8355228D01*
X718718Y8365642D01*
X726389Y8377123D01*
X732485Y8389518D01*
X736955Y8402574D01*
X739648Y8416137D01*
X740562Y8429904D01*
X739648Y8443722D01*
X736955Y8457285D01*
X732485Y8470341D01*
X726389Y8482736D01*
X718718Y8494217D01*
X709625Y8504631D01*
X699211Y8513724D01*
X687730Y8521395D01*
X675335Y8527491D01*
X662228Y8531961D01*
X648716Y8534654D01*
X634593Y8535568D01*
X629208Y8535568D01*
X625297Y8536330D01*
X622046Y8538565D01*
X619810Y8541867D01*
X619048Y8545728D01*
X619048Y9454134D01*
X619810Y9457994D01*
X622046Y9461296D01*
X625297Y9463481D01*
X629208Y9464294D01*
X634593Y9464294D01*
X648716Y9465208D01*
X662228Y9467900D01*
X675335Y9472320D01*
X687730Y9478467D01*
X699211Y9486138D01*
X709625Y9495231D01*
X718718Y9505645D01*
X726389Y9517126D01*
X732485Y9529521D01*
X736955Y9542576D01*
X739648Y9556140D01*
X740562Y9569907D01*
X739648Y9583724D01*
X736955Y9597288D01*
X732485Y9610344D01*
X726389Y9622739D01*
X718718Y9634220D01*
X709625Y9644634D01*
X699211Y9653727D01*
X687730Y9661398D01*
X675335Y9667494D01*
X662228Y9671964D01*
X648716Y9674656D01*
X634593Y9675571D01*
X495249Y9675571D01*
X481126Y9674656D01*
X467563Y9671964D01*
X454507Y9667494D01*
X442112Y9661398D01*
X430580Y9653727D01*
X420217Y9644634D01*
X411124Y9634220D01*
X403453Y9622739D01*
X397306Y9610344D01*
X392887Y9597288D01*
X390194Y9583724D01*
X389280Y9569907D01*
X390194Y9556140D01*
X392887Y9542576D01*
X397306Y9529521D01*
X403453Y9517126D01*
X411124Y9505645D01*
X420217Y9495231D01*
X430580Y9486138D01*
X442112Y9478467D01*
X454507Y9472320D01*
X467563Y9467900D01*
X481126Y9465208D01*
X495249Y9464294D01*
X500583Y9464294D01*
X504494Y9463481D01*
X507746Y9461296D01*
X509981Y9457994D01*
X510743Y9454134D01*
X510743Y8545728D01*
X509981Y8541867D01*
X507746Y8538565D01*
X504494Y8536330D01*
X500583Y8535568D01*
X495249Y8535568D01*
X481126Y8534654D01*
X467563Y8531961D01*
X454507Y8527491D01*
X442112Y8521395D01*
X430580Y8513724D01*
X420217Y8504631D01*
X411124Y8494217D01*
X403453Y8482736D01*
X397306Y8470341D01*
X392887Y8457285D01*
X390194Y8443722D01*
X389280Y8429904D01*
X390194Y8416137D01*
X392887Y8402574D01*
X397306Y8389518D01*
X403453Y8377123D01*
X411124Y8365642D01*
X420217Y8355228D01*
X430580Y8346135D01*
X442112Y8338464D01*
X454507Y8332317D01*
X467563Y8327898D01*
X481126Y8325205D01*
G37*
G36*
X2793593Y9394342D02*
G01*
X2952445Y9394342D01*
X2958693Y9395053D01*
X2964078Y9396933D01*
X2968955Y9399981D01*
X2973019Y9404045D01*
X2976067Y9408871D01*
X2977946Y9414306D01*
X2978658Y9420555D01*
X2978658Y9579406D01*
X2977946Y9585655D01*
X2976067Y9591090D01*
X2973019Y9595916D01*
X2968955Y9599980D01*
X2964078Y9603028D01*
X2958693Y9604908D01*
X2952445Y9605619D01*
X2793593Y9605619D01*
X2787294Y9604908D01*
X2781909Y9603028D01*
X2777032Y9599980D01*
X2772968Y9595916D01*
X2769920Y9591090D01*
X2768041Y9585655D01*
X2767330Y9579406D01*
X2767330Y9420555D01*
X2768041Y9414306D01*
X2769920Y9408871D01*
X2772968Y9404045D01*
X2777032Y9399981D01*
X2781909Y9396933D01*
X2787294Y9395053D01*
G37*
G36*
X4730445Y9464294D02*
G01*
X4869789Y9464294D01*
X4883912Y9465208D01*
X4897424Y9467900D01*
X4910531Y9472320D01*
X4922926Y9478467D01*
X4934407Y9486138D01*
X4944821Y9495231D01*
X4953914Y9505645D01*
X4961585Y9517126D01*
X4967681Y9529521D01*
X4972151Y9542576D01*
X4974844Y9556140D01*
X4975758Y9569907D01*
X4974844Y9583724D01*
X4972151Y9597288D01*
X4967681Y9610344D01*
X4961585Y9622739D01*
X4953914Y9634220D01*
X4944821Y9644634D01*
X4934407Y9653727D01*
X4922926Y9661398D01*
X4910531Y9667494D01*
X4897424Y9671964D01*
X4883912Y9674656D01*
X4869789Y9675571D01*
X4730445Y9675571D01*
X4716322Y9674656D01*
X4702759Y9671964D01*
X4689703Y9667494D01*
X4677308Y9661398D01*
X4665776Y9653727D01*
X4655413Y9644634D01*
X4646320Y9634220D01*
X4638649Y9622739D01*
X4632502Y9610344D01*
X4628083Y9597288D01*
X4625390Y9583724D01*
X4624476Y9569907D01*
X4625390Y9556140D01*
X4628083Y9542576D01*
X4632502Y9529521D01*
X4638649Y9517126D01*
X4646320Y9505645D01*
X4655413Y9495231D01*
X4665776Y9486138D01*
X4677308Y9478467D01*
X4689703Y9472320D01*
X4702759Y9467900D01*
X4716322Y9465208D01*
G37*
G36*
X1130249Y9464294D02*
G01*
X1269593Y9464294D01*
X1283716Y9465208D01*
X1297228Y9467900D01*
X1310335Y9472320D01*
X1322730Y9478467D01*
X1334211Y9486138D01*
X1344625Y9495231D01*
X1353718Y9505645D01*
X1361389Y9517126D01*
X1367485Y9529521D01*
X1371955Y9542576D01*
X1374648Y9556140D01*
X1375562Y9569907D01*
X1374648Y9583724D01*
X1371955Y9597288D01*
X1367485Y9610344D01*
X1361389Y9622739D01*
X1353718Y9634220D01*
X1344625Y9644634D01*
X1334211Y9653727D01*
X1322730Y9661398D01*
X1310335Y9667494D01*
X1297228Y9671964D01*
X1283716Y9674656D01*
X1269593Y9675571D01*
X1130249Y9675571D01*
X1116126Y9674656D01*
X1102563Y9671964D01*
X1089507Y9667494D01*
X1077112Y9661398D01*
X1065580Y9653727D01*
X1055217Y9644634D01*
X1046124Y9634220D01*
X1038453Y9622739D01*
X1032306Y9610344D01*
X1027887Y9597288D01*
X1025194Y9583724D01*
X1024280Y9569907D01*
X1025194Y9556140D01*
X1027887Y9542576D01*
X1032306Y9529521D01*
X1038453Y9517126D01*
X1046124Y9505645D01*
X1055217Y9495231D01*
X1065580Y9486138D01*
X1077112Y9478467D01*
X1089507Y9472320D01*
X1102563Y9467900D01*
X1116126Y9465208D01*
G37*

%LPD*%
D11*
X2745993Y7700030D02*
G01*
X3787393Y6658630D01*
X3787393Y4967752D01*
X5041645Y3713246D01*
X5041645Y2732552D01*
X5800090Y1974108D01*
X4065015Y7700030D02*
G01*
X4065015Y7503180D01*
X4065015Y7503180D02*
G01*
X4282693Y7285756D01*
X4282693Y6734830D01*
X4613909Y6403614D01*
X4613909Y5644154D01*
X5274056Y4984008D01*
X5274056Y3262142D01*
X5800090Y2736108D01*
X1834895Y9569978D02*
G01*
X1834895Y8430026D01*
X1834895Y8430026D02*
G01*
X2026411Y8238510D01*
X2026411Y7664978D01*
X2296159Y7394976D01*
X2296159Y5491754D01*
X2369565Y5418602D01*
X2369565Y5161554D01*
X2846831Y4684288D01*
X2846831Y3554496D01*
X3271011Y3130316D01*
X3271011Y1512336D01*
X3533393Y1249954D01*
X3533393Y1707154D02*
G01*
X3803141Y1437406D01*
X3803141Y1184168D01*
X3669029Y1050056D01*
X3384804Y1050056D01*
X3266693Y1168166D01*
X3266693Y1318788D01*
X3107181Y1478554D01*
X2695193Y1478554D01*
X2466593Y1707154D01*
X4400041Y4050050D02*
G01*
X4276090Y3926098D01*
X4276090Y3244108D01*
X150113Y4450100D02*
G01*
X549910Y4849896D01*
X1314957Y4849896D01*
X1314957Y4849896D02*
G01*
X1442720Y4977658D01*
X1442720Y6617736D01*
X1899920Y7074936D01*
X4534915Y5100086D02*
G01*
X4534915Y4800112D01*
X4534915Y5100086D02*
G01*
X4534915Y6010930D01*
X4100068Y6446032D01*
X3274059Y4590562D02*
G01*
X3507231Y4823734D01*
X3374897Y5350022D02*
G01*
X3374897Y4956068D01*
X3507231Y4823734D01*
X3507231Y4823734D02*
G01*
X3549904Y4781062D01*
X549910Y3022874D02*
G01*
X325881Y2798846D01*
X325881Y2463820D01*
X3124961Y2750078D02*
G01*
X3124961Y2810022D01*
X2484881Y3450102D01*
X2422143Y5492008D02*
G01*
X2442972Y5471180D01*
X2442972Y5335798D01*
X3006343Y4772426D01*
X3006343Y3778524D01*
X3484879Y3299988D01*
X3539236Y3299988D01*
X4105909Y2733568D01*
X4105909Y2398288D01*
X4276090Y2228108D01*
X2725927Y4336562D02*
G01*
X2513584Y4336562D01*
X2450084Y4273062D01*
X1054100Y5949970D02*
G01*
X1314957Y5688858D01*
X1314957Y5549920D01*
X1314957Y5549920D02*
G01*
X1314957Y5199908D01*
X2725927Y4590562D02*
G01*
X2535427Y4781062D01*
X2450084Y4781062D01*
X5565140Y5100086D02*
G01*
X5565140Y5989086D01*
X5304027Y6249944D01*
X3274059Y4209562D02*
G01*
X3464559Y4019062D01*
X3549904Y4019062D01*
X2725927Y4463562D02*
G01*
X2513584Y4463562D01*
X2450084Y4527062D01*
X2999993Y6399804D02*
G01*
X2999993Y6399804D01*
X3250184Y6649994D01*
X546100Y5949970D02*
G01*
X284987Y5688858D01*
X284987Y5549920D01*
X5700013Y4050050D02*
G01*
X5565140Y4184924D01*
X5565140Y4450100D01*
X5565140Y4450100D02*
G01*
X5565140Y4800112D01*
X5565140Y4800112D02*
G01*
X5304027Y5060970D01*
X5304027Y5649996D01*
X5800090Y2482108D02*
G01*
X5136134Y3146064D01*
X5136134Y4020078D01*
X3964431Y5191780D01*
X3964431Y7788422D01*
X3533393Y792754D02*
G01*
X3338575Y987572D01*
X2383790Y987572D01*
X1899920Y1471188D01*
X1899920Y6324874D01*
X3274059Y4463562D02*
G01*
X3274059Y4336562D01*
X3274059Y4336562D02*
G01*
X3486404Y4336562D01*
X3549904Y4273062D01*
X3549904Y4273062D02*
G01*
X3549904Y4527062D01*
X1091184Y7093224D02*
G01*
X1091184Y7326650D01*
X700023Y7717810D01*
X700023Y7849890D02*
G01*
X700023Y7717810D01*
X3224784Y6774200D02*
G01*
X3307841Y6774200D01*
X3640581Y6441460D01*
X3640581Y5010678D01*
X4599686Y4051574D01*
X4599686Y2666512D01*
X5800090Y1466108D01*
X5800090Y1720108D02*
G01*
X5936234Y1856252D01*
X5936234Y6799092D01*
X2974847Y2750078D02*
G01*
X2974847Y1732300D01*
X2999993Y1707154D01*
X3126993Y9499874D02*
G01*
X3197606Y9429262D01*
X3197606Y7897642D01*
X2999993Y7700030D01*
X4796027Y6249944D02*
G01*
X4796027Y5649996D01*
X2153920Y5800110D02*
G01*
X2153920Y7283978D01*
X1934972Y7503180D01*
X1934972Y7700030D02*
G01*
X1934972Y7503180D01*
X1645920Y5299984D02*
G01*
X1645920Y4245884D01*
X1450086Y4050050D01*
X1549907Y3020588D02*
G01*
X1697481Y2873014D01*
X1697481Y2463820D01*
X5343143Y7700030D02*
G01*
X5153913Y7700030D01*
X5435091Y8430026D02*
G01*
X5343143Y8337824D01*
X5343143Y7700030D01*
X5343143Y7700030D02*
G01*
X5386577Y7656596D01*
X5386577Y6840494D01*
X4796027Y6249944D01*
X5435091Y9569978D02*
G01*
X5435091Y8430026D01*
X564895Y9569978D02*
G01*
X564895Y8430026D01*
X2725927Y4209562D02*
G01*
X2535427Y4019062D01*
X2450084Y4019062D01*
X2450084Y4019062D02*
G01*
X2353056Y3922034D01*
X2353056Y3281954D01*
X2484881Y3149874D01*
X2450084Y4019062D02*
G01*
X2283206Y4185940D01*
X2283206Y5364500D01*
X2153920Y5493786D01*
X2153920Y5800110D01*
X2484881Y3149874D02*
G01*
X2575052Y3149874D01*
X2974847Y2750078D01*
X4645913Y7700030D02*
G01*
X4361688Y7415804D01*
X4361688Y6823222D01*
X1379473Y7392182D02*
G01*
X1208023Y7563632D01*
X1208023Y7849890D01*
X3515106Y3450102D02*
G01*
X3079750Y3885458D01*
X3079750Y4895362D01*
X2625090Y5350022D01*
X4165091Y9569978D02*
G01*
X4165091Y8430026D01*
X3874008Y5098308D02*
G01*
X3874008Y8138942D01*
X4165091Y8430026D01*
X2466593Y1249954D02*
G01*
X2200909Y1515638D01*
X2200909Y2161814D01*
X2800858Y2761762D01*
X2800858Y2794020D01*
X3967988Y4576846D02*
G01*
X3967988Y3298210D01*
X4276090Y2990108D01*
X4899913Y7700030D02*
G01*
X5018024Y7581920D01*
X5018024Y7168408D01*
X3515106Y3450102D02*
G01*
X3079750Y3885458D01*
X3079750Y4895362D01*
X2625090Y5350022D01*
X4165091Y9569978D02*
G01*
X4165091Y8430026D01*
X4899913Y7700030D02*
G01*
X4662931Y7463048D01*
X4662931Y4189496D01*
D12*
X3227984Y4209562D02*
G01*
X3319983Y4209562D01*
X3227984Y4336562D02*
G01*
X3319983Y4336562D01*
X3227984Y4463562D02*
G01*
X3319983Y4463562D01*
X3227984Y4590562D02*
G01*
X3319983Y4590562D01*
X2680004Y4209562D02*
G01*
X2772006Y4209562D01*
X2680004Y4336562D02*
G01*
X2772006Y4336562D01*
X2680004Y4463562D02*
G01*
X2772006Y4463562D01*
X2680004Y4590562D02*
G01*
X2772006Y4590562D01*
G36*
X4020649Y7839699D02*
G01*
X4109549Y7839699D01*
X4109549Y7560299D01*
X4020649Y7560299D01*
G37*
G36*
X3690449Y7839699D02*
G01*
X3779349Y7839699D01*
X3779349Y7560299D01*
X3690449Y7560299D01*
G37*
G36*
X2220650Y7839699D02*
G01*
X2309550Y7839699D01*
X2309550Y7560299D01*
X2220650Y7560299D01*
G37*
G36*
X1890450Y7839699D02*
G01*
X1979350Y7839699D01*
X1979350Y7560299D01*
X1890450Y7560299D01*
G37*
D15*
G01*
X1462023Y7849890D03*
G01*
X1208023Y7849890D03*
G01*
X954023Y7849890D03*
G36*
X625094Y7924820D02*
G01*
X774954Y7924820D01*
X774954Y7774960D01*
X625094Y7774960D01*
G37*
D17*
G01*
X5800090Y3244108D03*
G01*
X5800090Y2990108D03*
G01*
X5800090Y2736108D03*
G01*
X5800090Y2482108D03*
G01*
X5800090Y2228108D03*
G01*
X5800090Y1974108D03*
G01*
X5800090Y1720108D03*
G01*
X5800090Y1466108D03*
G01*
X5800090Y1212108D03*
G01*
X5800090Y958108D03*
G01*
X5800090Y704108D03*
D18*
G01*
X5800090Y450108D03*
D17*
G01*
X4276090Y450108D03*
G01*
X4276090Y704108D03*
G01*
X4276090Y958108D03*
G01*
X4276090Y1212108D03*
G01*
X4276090Y1466108D03*
G01*
X4276090Y1720108D03*
G01*
X4276090Y1974108D03*
G01*
X4276090Y2228108D03*
G01*
X4276090Y2482108D03*
G01*
X4276090Y2736108D03*
G01*
X4276090Y2990108D03*
G01*
X4276090Y3244108D03*
D19*
G01*
X325881Y177820D03*
G01*
X1697481Y177820D03*
G01*
X1697481Y2463820D03*
G01*
X325881Y2463820D03*
G01*
X630681Y2463820D03*
G01*
X1392681Y2463820D03*
D20*
G01*
X3549904Y4781062D03*
G01*
X3549904Y4527062D03*
G01*
X3549904Y4273062D03*
G01*
X3549904Y4019062D03*
G01*
X2450084Y4781062D03*
G01*
X2450084Y4527062D03*
G01*
X2450084Y4273062D03*
G01*
X2450084Y4019062D03*
D21*
G01*
X4645913Y7700030D03*
G01*
X4899913Y7700030D03*
G01*
X5153913Y7700030D03*
G01*
X3250056Y6649892D03*
G01*
X2750058Y6649892D03*
G01*
X3000044Y6399905D03*
G01*
X550011Y3023001D03*
G01*
X550011Y3277001D03*
G01*
X1050010Y3277001D03*
G01*
X1050010Y3023001D03*
G01*
X1550009Y3274588D03*
G01*
X1550009Y3020588D03*
D22*
G01*
X1645996Y5300009D03*
G01*
X2153996Y5300009D03*
G01*
X2153996Y5800008D03*
G01*
X1645996Y5800008D03*
G01*
X4796002Y5649996D03*
G01*
X5304002Y5649996D03*
G01*
X4099991Y6954006D03*
G01*
X4099991Y6446006D03*
G01*
X4796002Y6249995D03*
G01*
X5304002Y6249995D03*
D23*
G01*
X1899996Y7075012D03*
G01*
X1899996Y6325001D03*
G01*
X3374999Y5349996D03*
G01*
X2624988Y5349996D03*
D21*
G01*
X2484983Y8400003D03*
G01*
X3515004Y8400003D03*
G01*
X284987Y6249995D03*
G01*
X1315008Y6249995D03*
G01*
X1315008Y5200009D03*
G01*
X284987Y5200009D03*
G01*
X1315008Y4849997D03*
G01*
X284987Y4849997D03*
G01*
X5565013Y4800010D03*
G01*
X4534992Y4800010D03*
G01*
X4534992Y5100010D03*
G01*
X5565013Y5100010D03*
G01*
X4534992Y4449998D03*
G01*
X5565013Y4449998D03*
G01*
X284987Y5549996D03*
G01*
X1315008Y5549996D03*
G01*
X2484983Y3450000D03*
G01*
X3515004Y3450000D03*
G01*
X2484983Y3150001D03*
G01*
X3515004Y3150001D03*
D23*
G01*
X3253993Y7700004D03*
G01*
X2999993Y7700004D03*
G01*
X2745993Y7700004D03*
D21*
G01*
X1053998Y5949995D03*
G01*
X545998Y5949995D03*
G36*
X2792999Y9580001D02*
G01*
X2952998Y9580001D01*
X2952998Y9420001D01*
X2792999Y9420001D01*
G37*
D22*
G01*
X3126993Y9500001D03*
D21*
G01*
X150012Y4449998D03*
G01*
X1450009Y4449998D03*
G01*
X150012Y4049999D03*
G01*
X1450009Y4049999D03*
G01*
X5699988Y4049999D03*
G01*
X4399991Y4049999D03*
D25*
G01*
X875055Y7000006D03*
G01*
X724941Y7000006D03*
G01*
X2974949Y2750002D03*
G01*
X3125063Y2750002D03*
G01*
X5275046Y7000006D03*
G01*
X5124932Y7000006D03*
D13*
G01*
X2422143Y5492008D03*
G01*
X3964431Y7788422D03*
G01*
X3224784Y6774200D03*
G01*
X1091184Y7093224D03*
G01*
X5936234Y6799092D03*
G01*
X4361688Y6823222D03*
G01*
X1379473Y7392182D03*
G01*
X2800858Y2794020D03*
G01*
X3874008Y5098308D03*
G01*
X5018024Y7168408D03*
G01*
X3967988Y4576846D03*
D26*
X2526593Y792754D02*
G01*
X2406594Y792754D01*
X2526593Y1249954D02*
G01*
X2406594Y1249954D01*
X2526593Y1707154D02*
G01*
X2406594Y1707154D01*
X3059993Y792754D02*
G01*
X2939994Y792754D01*
X3059993Y1249954D02*
G01*
X2939994Y1249954D01*
X3059993Y1707154D02*
G01*
X2939994Y1707154D01*
X3593393Y792754D02*
G01*
X3473394Y792754D01*
X3593393Y1249954D02*
G01*
X3473394Y1249954D01*
X3593393Y1707154D02*
G01*
X3473394Y1707154D01*
D22*
X494921Y8429950D02*
G01*
X634921Y8429950D01*
X494921Y9569952D02*
G01*
X634921Y9569952D01*
X1129921Y8429950D02*
G01*
X1269921Y8429950D01*
X1129921Y9569952D02*
G01*
X1269921Y9569952D01*
X1764921Y8429950D02*
G01*
X1904921Y8429950D01*
X1764921Y9569952D02*
G01*
X1904921Y9569952D01*
X5505091Y9569927D02*
G01*
X5365092Y9569927D01*
X5505091Y8429924D02*
G01*
X5365092Y8429924D01*
X4870091Y9569927D02*
G01*
X4730092Y9569927D01*
X4870091Y8429924D02*
G01*
X4730092Y8429924D01*
X4235091Y9569927D02*
G01*
X4095092Y9569927D01*
X4235091Y8429924D02*
G01*
X4095092Y8429924D01*
M02*
