%
M48
M72
INCH,TZ
T01C0.0118
T02C0.0236
T03C0.0350
%
T01
X1743Y1155
X2143Y755
X2693Y505
X2693Y1205
X3043Y1605
X2543Y2865
X4293Y1605
X5343Y1605
X6443Y1605
X7793Y1605
X6923Y3905
X7083Y4585
X7063Y5075
X6993Y6025
X5973Y5415
X5063Y4475
X6083Y3865
X6433Y3975
X8073Y4115
X5943Y7075
X5443Y6955
X5043Y6955
X5083Y7435
X5143Y7945
X5233Y8455
X5563Y8345
X6083Y8655
X6433Y8245
X6663Y8675
X6793Y8355
X7093Y8155
X7673Y9695
X8013Y9805
X8093Y11235
X7803Y11635
X7963Y11955
X7953Y12475
X7673Y13395
X6853Y12865
X6443Y13055
X6335Y13755
X7153Y11345
X6773Y11265
X6593Y10745
X6443Y10245
X6073Y10635
X4753Y8465
X4273Y8455
X3663Y7935
X3492Y8445
X2713Y10035
X2443Y9825
X2343Y10315
X2343Y10785
X2343Y12505
X2343Y12895
X1603Y13375
X3693Y13305
X4150Y13755
X3893Y12635
X3903Y10835
X4273Y10855
X4473Y10655
X3841Y10253
X2493Y8175
X8243Y8255
T02
X6011Y12928
X4475Y12928
T03
X1743Y12755
X1743Y11755
X1743Y10755
X1743Y9755
X1743Y8755
X1743Y7755
X1743Y6755
X1743Y5755
X1743Y4755
X1743Y3755
X1743Y2755
X1743Y1755
X8743Y1755
X8743Y2755
X8743Y3755
X8743Y4755
X8743Y5755
X8743Y6755
X8743Y7755
X8743Y8755
X8743Y9755
X8743Y10755
X8743Y11755
X8743Y12755
M30
