G75*
G70*
%OFA0B0*%
%FSLAX24Y24*%
%IPPOS*%
%LPD*%
%AMOC8*
5,1,8,0,0,1.08239X$1,22.5*
%
%ADD10R,0.0513X0.0474*%
%ADD11R,0.0237X0.0611*%
%ADD12R,0.0671X0.0828*%
%ADD13C,0.0316*%
%ADD14C,0.0513*%
%ADD15R,0.0552X0.0552*%
%ADD16R,0.0552X0.0356*%
%ADD17R,0.0356X0.0552*%
%ADD18R,0.1025X0.0828*%
%ADD19R,0.0336X0.0572*%
%ADD20R,0.0474X0.0513*%
%ADD21R,0.0395X0.0395*%
%ADD22C,0.0010*%
%ADD23R,0.0513X0.0631*%
%ADD24R,0.0789X0.0493*%
%ADD25R,0.0493X0.0474*%
%ADD26R,0.0474X0.0671*%
%ADD27C,0.0770*%
%ADD28R,0.1130X0.0980*%
%ADD29R,0.0380X0.0580*%
D10*
X002958Y002255D03*
X003627Y002255D03*
X005808Y002255D03*
X006477Y002255D03*
X006558Y009805D03*
X007227Y009805D03*
X006293Y011520D03*
X006293Y012190D03*
X004193Y012190D03*
X004193Y011520D03*
X003927Y009805D03*
X003258Y009805D03*
D11*
X004731Y012702D03*
X004987Y012702D03*
X005243Y012702D03*
X005499Y012702D03*
X005755Y012702D03*
D12*
X005637Y013755D03*
X004849Y013751D03*
D13*
X004475Y012928D03*
X006011Y012928D03*
D14*
X006335Y013538D02*
X006335Y013972D01*
X004150Y013972D02*
X004150Y013538D01*
D15*
X002940Y009098D03*
X002940Y003389D03*
X007546Y003389D03*
X007546Y009098D03*
D16*
X007546Y008369D03*
X007546Y007897D03*
X007546Y007424D03*
X007546Y006952D03*
X007546Y006479D03*
X007546Y006007D03*
X007546Y005535D03*
X007546Y005062D03*
X007546Y004590D03*
X007546Y004117D03*
X002940Y004117D03*
X002940Y004590D03*
X002940Y005062D03*
X002940Y005535D03*
X002940Y006007D03*
X002940Y006479D03*
X002940Y006952D03*
X002940Y007424D03*
X002940Y007897D03*
X002940Y008369D03*
D17*
X003589Y009098D03*
X004062Y009098D03*
X004534Y009098D03*
X005007Y009098D03*
X005479Y009098D03*
X005951Y009098D03*
X006424Y009098D03*
X006896Y009098D03*
X006896Y003389D03*
X006424Y003389D03*
X005951Y003389D03*
X005479Y003389D03*
X005007Y003389D03*
X004534Y003389D03*
X004062Y003389D03*
X003589Y003389D03*
D18*
X004396Y004826D03*
X004396Y006243D03*
X004396Y007661D03*
X006089Y007661D03*
X006089Y006243D03*
X006089Y004826D03*
D19*
X006938Y010667D03*
X007548Y010667D03*
X007548Y012143D03*
X006938Y012143D03*
X003548Y012143D03*
X002938Y012143D03*
X002938Y010667D03*
X003548Y010667D03*
D20*
X003427Y012725D03*
X002758Y012725D03*
X004908Y009805D03*
X005577Y009805D03*
D21*
X007348Y013885D03*
X007938Y013885D03*
D22*
X008253Y013715D02*
X008483Y013665D01*
X008523Y013715D01*
X008483Y013765D01*
X008253Y013715D01*
X008272Y013711D02*
X008520Y013711D01*
X008519Y013719D02*
X008273Y013719D01*
X008312Y013728D02*
X008512Y013728D01*
X008506Y013736D02*
X008351Y013736D01*
X008390Y013745D02*
X008499Y013745D01*
X008492Y013753D02*
X008429Y013753D01*
X008469Y013762D02*
X008485Y013762D01*
X008532Y013796D02*
X008857Y013796D01*
X008862Y013804D02*
X008526Y013804D01*
X008521Y013813D02*
X008868Y013813D01*
X008874Y013821D02*
X008515Y013821D01*
X008510Y013830D02*
X008685Y013830D01*
X008693Y013825D02*
X008393Y014015D01*
X008583Y013715D01*
X008383Y013395D01*
X008693Y013595D01*
X009003Y013405D01*
X008803Y013715D01*
X009003Y014015D01*
X008693Y013825D01*
X008701Y013830D02*
X008879Y013830D01*
X008885Y013838D02*
X008715Y013838D01*
X008729Y013847D02*
X008891Y013847D01*
X008896Y013855D02*
X008742Y013855D01*
X008756Y013864D02*
X008902Y013864D01*
X008908Y013872D02*
X008770Y013872D01*
X008784Y013881D02*
X008913Y013881D01*
X008919Y013889D02*
X008798Y013889D01*
X008812Y013898D02*
X008925Y013898D01*
X008930Y013906D02*
X008826Y013906D01*
X008839Y013915D02*
X008936Y013915D01*
X008942Y013923D02*
X008853Y013923D01*
X008867Y013932D02*
X008947Y013932D01*
X008953Y013940D02*
X008881Y013940D01*
X008895Y013949D02*
X008959Y013949D01*
X008964Y013957D02*
X008909Y013957D01*
X008923Y013966D02*
X008970Y013966D01*
X008976Y013974D02*
X008937Y013974D01*
X008950Y013983D02*
X008981Y013983D01*
X008987Y013991D02*
X008964Y013991D01*
X008978Y014000D02*
X008993Y014000D01*
X008992Y014008D02*
X008998Y014008D01*
X008956Y013753D02*
X008896Y013753D01*
X008891Y013745D02*
X008995Y013745D01*
X009034Y013736D02*
X008886Y013736D01*
X008881Y013728D02*
X009074Y013728D01*
X009075Y013702D02*
X008880Y013702D01*
X008885Y013694D02*
X009036Y013694D01*
X008997Y013685D02*
X008891Y013685D01*
X008896Y013677D02*
X008957Y013677D01*
X008918Y013668D02*
X008901Y013668D01*
X008903Y013665D02*
X009133Y013715D01*
X008903Y013765D01*
X008873Y013715D01*
X008903Y013665D01*
X008875Y013711D02*
X009114Y013711D01*
X009113Y013719D02*
X008875Y013719D01*
X008901Y013762D02*
X008917Y013762D01*
X008851Y013787D02*
X008537Y013787D01*
X008542Y013779D02*
X008845Y013779D01*
X008840Y013770D02*
X008548Y013770D01*
X008553Y013762D02*
X008834Y013762D01*
X008828Y013753D02*
X008558Y013753D01*
X008564Y013745D02*
X008823Y013745D01*
X008817Y013736D02*
X008569Y013736D01*
X008575Y013728D02*
X008811Y013728D01*
X008806Y013719D02*
X008580Y013719D01*
X008580Y013711D02*
X008805Y013711D01*
X008811Y013702D02*
X008575Y013702D01*
X008570Y013694D02*
X008816Y013694D01*
X008822Y013685D02*
X008564Y013685D01*
X008559Y013677D02*
X008827Y013677D01*
X008833Y013668D02*
X008554Y013668D01*
X008548Y013660D02*
X008838Y013660D01*
X008844Y013651D02*
X008543Y013651D01*
X008538Y013643D02*
X008849Y013643D01*
X008855Y013634D02*
X008532Y013634D01*
X008527Y013626D02*
X008860Y013626D01*
X008866Y013617D02*
X008522Y013617D01*
X008516Y013609D02*
X008871Y013609D01*
X008877Y013600D02*
X008511Y013600D01*
X008506Y013592D02*
X008688Y013592D01*
X008698Y013592D02*
X008882Y013592D01*
X008888Y013583D02*
X008712Y013583D01*
X008726Y013575D02*
X008893Y013575D01*
X008899Y013566D02*
X008739Y013566D01*
X008753Y013558D02*
X008904Y013558D01*
X008910Y013549D02*
X008767Y013549D01*
X008781Y013541D02*
X008915Y013541D01*
X008921Y013532D02*
X008795Y013532D01*
X008809Y013524D02*
X008926Y013524D01*
X008932Y013515D02*
X008823Y013515D01*
X008837Y013507D02*
X008937Y013507D01*
X008943Y013498D02*
X008850Y013498D01*
X008864Y013490D02*
X008948Y013490D01*
X008954Y013481D02*
X008878Y013481D01*
X008892Y013473D02*
X008959Y013473D01*
X008964Y013464D02*
X008906Y013464D01*
X008920Y013456D02*
X008970Y013456D01*
X008975Y013447D02*
X008934Y013447D01*
X008948Y013439D02*
X008981Y013439D01*
X008986Y013430D02*
X008961Y013430D01*
X008975Y013422D02*
X008992Y013422D01*
X008989Y013413D02*
X008997Y013413D01*
X008734Y013464D02*
X008651Y013464D01*
X008653Y013456D02*
X008733Y013456D01*
X008731Y013447D02*
X008655Y013447D01*
X008657Y013439D02*
X008729Y013439D01*
X008727Y013430D02*
X008658Y013430D01*
X008660Y013422D02*
X008725Y013422D01*
X008724Y013413D02*
X008662Y013413D01*
X008664Y013405D02*
X008722Y013405D01*
X008720Y013396D02*
X008665Y013396D01*
X008667Y013388D02*
X008718Y013388D01*
X008717Y013379D02*
X008669Y013379D01*
X008671Y013371D02*
X008715Y013371D01*
X008713Y013362D02*
X008673Y013362D01*
X008674Y013354D02*
X008711Y013354D01*
X008710Y013345D02*
X008676Y013345D01*
X008678Y013337D02*
X008708Y013337D01*
X008706Y013328D02*
X008680Y013328D01*
X008681Y013320D02*
X008704Y013320D01*
X008702Y013311D02*
X008683Y013311D01*
X008685Y013303D02*
X008701Y013303D01*
X008699Y013294D02*
X008687Y013294D01*
X008688Y013286D02*
X008697Y013286D01*
X008695Y013277D02*
X008690Y013277D01*
X008692Y013269D02*
X008694Y013269D01*
X008693Y013265D02*
X008743Y013505D01*
X008693Y013535D01*
X008643Y013505D01*
X008693Y013265D01*
X008649Y013473D02*
X008736Y013473D01*
X008738Y013481D02*
X008648Y013481D01*
X008646Y013490D02*
X008740Y013490D01*
X008741Y013498D02*
X008644Y013498D01*
X008646Y013507D02*
X008740Y013507D01*
X008725Y013515D02*
X008660Y013515D01*
X008674Y013524D02*
X008711Y013524D01*
X008697Y013532D02*
X008688Y013532D01*
X008662Y013575D02*
X008495Y013575D01*
X008490Y013566D02*
X008648Y013566D01*
X008635Y013558D02*
X008485Y013558D01*
X008479Y013549D02*
X008622Y013549D01*
X008609Y013541D02*
X008474Y013541D01*
X008469Y013532D02*
X008596Y013532D01*
X008583Y013524D02*
X008463Y013524D01*
X008458Y013515D02*
X008569Y013515D01*
X008556Y013507D02*
X008453Y013507D01*
X008447Y013498D02*
X008543Y013498D01*
X008530Y013490D02*
X008442Y013490D01*
X008437Y013481D02*
X008517Y013481D01*
X008504Y013473D02*
X008431Y013473D01*
X008426Y013464D02*
X008490Y013464D01*
X008477Y013456D02*
X008421Y013456D01*
X008416Y013447D02*
X008464Y013447D01*
X008451Y013439D02*
X008410Y013439D01*
X008405Y013430D02*
X008438Y013430D01*
X008424Y013422D02*
X008400Y013422D01*
X008394Y013413D02*
X008411Y013413D01*
X008398Y013405D02*
X008389Y013405D01*
X008385Y013396D02*
X008384Y013396D01*
X008501Y013583D02*
X008675Y013583D01*
X008513Y013702D02*
X008311Y013702D01*
X008350Y013694D02*
X008506Y013694D01*
X008499Y013685D02*
X008389Y013685D01*
X008428Y013677D02*
X008492Y013677D01*
X008486Y013668D02*
X008467Y013668D01*
X008505Y013838D02*
X008672Y013838D01*
X008658Y013847D02*
X008499Y013847D01*
X008494Y013855D02*
X008645Y013855D01*
X008631Y013864D02*
X008489Y013864D01*
X008483Y013872D02*
X008618Y013872D01*
X008605Y013881D02*
X008478Y013881D01*
X008472Y013889D02*
X008591Y013889D01*
X008578Y013898D02*
X008467Y013898D01*
X008462Y013906D02*
X008564Y013906D01*
X008551Y013915D02*
X008456Y013915D01*
X008451Y013923D02*
X008537Y013923D01*
X008524Y013932D02*
X008445Y013932D01*
X008440Y013940D02*
X008511Y013940D01*
X008497Y013949D02*
X008435Y013949D01*
X008429Y013957D02*
X008484Y013957D01*
X008470Y013966D02*
X008424Y013966D01*
X008419Y013974D02*
X008457Y013974D01*
X008443Y013983D02*
X008413Y013983D01*
X008408Y013991D02*
X008430Y013991D01*
X008417Y014000D02*
X008402Y014000D01*
X008403Y014008D02*
X008397Y014008D01*
X008652Y013957D02*
X008734Y013957D01*
X008736Y013949D02*
X008650Y013949D01*
X008648Y013940D02*
X008738Y013940D01*
X008739Y013932D02*
X008646Y013932D01*
X008645Y013923D02*
X008741Y013923D01*
X008743Y013915D02*
X008693Y014155D01*
X008643Y013915D01*
X008743Y013915D01*
X008693Y013885D01*
X008643Y013915D01*
X008657Y013906D02*
X008728Y013906D01*
X008714Y013898D02*
X008671Y013898D01*
X008685Y013889D02*
X008700Y013889D01*
X008732Y013966D02*
X008653Y013966D01*
X008655Y013974D02*
X008730Y013974D01*
X008729Y013983D02*
X008657Y013983D01*
X008659Y013991D02*
X008727Y013991D01*
X008725Y014000D02*
X008660Y014000D01*
X008662Y014008D02*
X008723Y014008D01*
X008722Y014017D02*
X008664Y014017D01*
X008666Y014025D02*
X008720Y014025D01*
X008718Y014034D02*
X008668Y014034D01*
X008669Y014042D02*
X008716Y014042D01*
X008714Y014051D02*
X008671Y014051D01*
X008673Y014059D02*
X008713Y014059D01*
X008711Y014068D02*
X008675Y014068D01*
X008676Y014076D02*
X008709Y014076D01*
X008707Y014085D02*
X008678Y014085D01*
X008680Y014093D02*
X008706Y014093D01*
X008704Y014102D02*
X008682Y014102D01*
X008684Y014110D02*
X008702Y014110D01*
X008700Y014119D02*
X008685Y014119D01*
X008687Y014127D02*
X008699Y014127D01*
X008697Y014136D02*
X008689Y014136D01*
X008691Y014144D02*
X008695Y014144D01*
X008692Y014153D02*
X008693Y014153D01*
D23*
X005597Y011626D03*
X005597Y010484D03*
X004888Y010484D03*
X004888Y011626D03*
D24*
X007093Y002836D03*
X007093Y001674D03*
D25*
X006491Y002255D03*
D26*
X006808Y000655D03*
X003658Y000655D03*
D27*
X001743Y001755D03*
X001743Y002755D03*
X001743Y003755D03*
X001743Y004755D03*
X001743Y005755D03*
X001743Y006755D03*
X001743Y007755D03*
X001743Y008755D03*
X001743Y009755D03*
X001743Y010755D03*
X001743Y011755D03*
X001743Y012755D03*
X008743Y012755D03*
X008743Y011755D03*
X008743Y010755D03*
X008743Y009755D03*
X008743Y008755D03*
X008743Y007755D03*
X008743Y006755D03*
X008743Y005755D03*
X008743Y004755D03*
X008743Y003755D03*
X008743Y002755D03*
X008743Y001755D03*
D28*
X002443Y013655D03*
D29*
X003368Y013655D03*
M02*
