G75*
G70*
%OFA0B0*%
%FSLAX24Y24*%
%IPPOS*%
%LPD*%
%AMOC8*
5,1,8,0,0,1.08239X$1,22.5*
%
%ADD10C,0.0080*%
%ADD11C,0.0000*%
D10*
X001243Y001255D02*
X002243Y000255D01*
X008243Y000255D01*
X009243Y001255D01*
X009243Y014255D01*
X001243Y014255D01*
X001243Y001255D01*
D11*
X004357Y012928D02*
X004359Y012949D01*
X004365Y012969D01*
X004374Y012989D01*
X004386Y013006D01*
X004401Y013020D01*
X004419Y013032D01*
X004439Y013040D01*
X004459Y013045D01*
X004480Y013046D01*
X004501Y013043D01*
X004521Y013037D01*
X004540Y013026D01*
X004557Y013013D01*
X004570Y012997D01*
X004581Y012979D01*
X004589Y012959D01*
X004593Y012939D01*
X004593Y012917D01*
X004589Y012897D01*
X004581Y012877D01*
X004570Y012859D01*
X004557Y012843D01*
X004540Y012830D01*
X004521Y012819D01*
X004501Y012813D01*
X004480Y012810D01*
X004459Y012811D01*
X004439Y012816D01*
X004419Y012824D01*
X004401Y012836D01*
X004386Y012850D01*
X004374Y012867D01*
X004365Y012887D01*
X004359Y012907D01*
X004357Y012928D01*
X004257Y013617D02*
X004257Y013893D01*
X004256Y013893D02*
X004255Y013910D01*
X004250Y013927D01*
X004243Y013942D01*
X004233Y013956D01*
X004221Y013968D01*
X004207Y013978D01*
X004192Y013985D01*
X004175Y013990D01*
X004158Y013991D01*
X004140Y013989D01*
X004123Y013985D01*
X004107Y013977D01*
X004092Y013967D01*
X004080Y013955D01*
X004070Y013940D01*
X004062Y013924D01*
X004058Y013907D01*
X004056Y013889D01*
X004056Y013621D01*
X004058Y013603D01*
X004062Y013586D01*
X004070Y013570D01*
X004080Y013555D01*
X004092Y013543D01*
X004107Y013533D01*
X004123Y013525D01*
X004140Y013521D01*
X004158Y013519D01*
X004175Y013520D01*
X004192Y013525D01*
X004207Y013532D01*
X004221Y013542D01*
X004233Y013554D01*
X004243Y013568D01*
X004250Y013583D01*
X004255Y013600D01*
X004256Y013617D01*
X005893Y012928D02*
X005895Y012949D01*
X005901Y012969D01*
X005910Y012989D01*
X005922Y013006D01*
X005937Y013020D01*
X005955Y013032D01*
X005975Y013040D01*
X005995Y013045D01*
X006016Y013046D01*
X006037Y013043D01*
X006057Y013037D01*
X006076Y013026D01*
X006093Y013013D01*
X006106Y012997D01*
X006117Y012979D01*
X006125Y012959D01*
X006129Y012939D01*
X006129Y012917D01*
X006125Y012897D01*
X006117Y012877D01*
X006106Y012859D01*
X006093Y012843D01*
X006076Y012830D01*
X006057Y012819D01*
X006037Y012813D01*
X006016Y012810D01*
X005995Y012811D01*
X005975Y012816D01*
X005955Y012824D01*
X005937Y012836D01*
X005922Y012850D01*
X005910Y012867D01*
X005901Y012887D01*
X005895Y012907D01*
X005893Y012928D01*
X006235Y013621D02*
X006235Y013889D01*
X006237Y013907D01*
X006241Y013924D01*
X006249Y013940D01*
X006259Y013955D01*
X006271Y013967D01*
X006286Y013977D01*
X006302Y013985D01*
X006319Y013989D01*
X006337Y013991D01*
X006354Y013990D01*
X006371Y013985D01*
X006386Y013978D01*
X006400Y013968D01*
X006412Y013956D01*
X006422Y013942D01*
X006429Y013927D01*
X006434Y013910D01*
X006435Y013893D01*
X006436Y013893D02*
X006436Y013617D01*
X006435Y013617D02*
X006434Y013600D01*
X006429Y013583D01*
X006422Y013568D01*
X006412Y013554D01*
X006400Y013542D01*
X006386Y013532D01*
X006371Y013525D01*
X006354Y013520D01*
X006337Y013519D01*
X006319Y013521D01*
X006302Y013525D01*
X006286Y013533D01*
X006271Y013543D01*
X006259Y013555D01*
X006249Y013570D01*
X006241Y013586D01*
X006237Y013603D01*
X006235Y013621D01*
M02*
