G75*
G70*
%OFA0B0*%
%FSLAX24Y24*%
%IPPOS*%
%LPD*%
%AMOC8*
5,1,8,0,0,1.08239X$1,22.5*
%
%ADD10R,0.0433X0.0748*%
%ADD11R,0.0394X0.0433*%
%ADD12R,0.0079X0.0394*%
%ADD13R,0.0394X0.0079*%
%ADD14R,0.0433X0.0394*%
%ADD15R,0.0220X0.0590*%
%ADD16R,0.0118X0.0390*%
%ADD17R,0.0748X0.0433*%
%ADD18R,0.0500X0.0750*%
%ADD19R,0.1500X0.0750*%
%ADD20R,0.0236X0.0315*%
%ADD21R,0.0197X0.0315*%
%ADD22R,0.0551X0.0630*%
%ADD23R,0.0177X0.0118*%
D10*
X003040Y003877D03*
X003946Y003877D03*
X003946Y005333D03*
X003040Y005333D03*
D11*
X003043Y002420D03*
X003043Y003090D03*
X003693Y003090D03*
X003693Y002420D03*
X004343Y002420D03*
X004343Y003090D03*
X004993Y003090D03*
X004993Y002420D03*
X005643Y002420D03*
X005643Y003090D03*
X003243Y006120D03*
X003243Y006790D03*
X003427Y010455D03*
X003427Y011105D03*
X002758Y011105D03*
X002758Y010455D03*
X002858Y013805D03*
X002227Y013805D03*
X001558Y013805D03*
X003527Y013805D03*
X007793Y008590D03*
X007793Y007920D03*
D12*
G36*
X007372Y008908D02*
X007427Y008853D01*
X007150Y008576D01*
X007095Y008631D01*
X007372Y008908D01*
G37*
G36*
X007233Y009047D02*
X007288Y008992D01*
X007011Y008715D01*
X006956Y008770D01*
X007233Y009047D01*
G37*
G36*
X007094Y009187D02*
X007149Y009132D01*
X006872Y008855D01*
X006817Y008910D01*
X007094Y009187D01*
G37*
G36*
X006955Y009326D02*
X007010Y009271D01*
X006733Y008994D01*
X006678Y009049D01*
X006955Y009326D01*
G37*
G36*
X006815Y009465D02*
X006870Y009410D01*
X006593Y009133D01*
X006538Y009188D01*
X006815Y009465D01*
G37*
G36*
X006676Y009604D02*
X006731Y009549D01*
X006454Y009272D01*
X006399Y009327D01*
X006676Y009604D01*
G37*
G36*
X006537Y009743D02*
X006592Y009688D01*
X006315Y009411D01*
X006260Y009466D01*
X006537Y009743D01*
G37*
G36*
X006398Y009883D02*
X006453Y009828D01*
X006176Y009551D01*
X006121Y009606D01*
X006398Y009883D01*
G37*
G36*
X006259Y010022D02*
X006314Y009967D01*
X006037Y009690D01*
X005982Y009745D01*
X006259Y010022D01*
G37*
G36*
X006119Y010161D02*
X006174Y010106D01*
X005897Y009829D01*
X005842Y009884D01*
X006119Y010161D01*
G37*
G36*
X005980Y010300D02*
X006035Y010245D01*
X005758Y009968D01*
X005703Y010023D01*
X005980Y010300D01*
G37*
G36*
X005841Y010439D02*
X005896Y010384D01*
X005619Y010107D01*
X005564Y010162D01*
X005841Y010439D01*
G37*
G36*
X003892Y007377D02*
X003947Y007322D01*
X003670Y007045D01*
X003615Y007100D01*
X003892Y007377D01*
G37*
G36*
X004031Y007238D02*
X004086Y007183D01*
X003809Y006906D01*
X003754Y006961D01*
X004031Y007238D01*
G37*
G36*
X004171Y007099D02*
X004226Y007044D01*
X003949Y006767D01*
X003894Y006822D01*
X004171Y007099D01*
G37*
G36*
X004310Y006959D02*
X004365Y006904D01*
X004088Y006627D01*
X004033Y006682D01*
X004310Y006959D01*
G37*
G36*
X004449Y006820D02*
X004504Y006765D01*
X004227Y006488D01*
X004172Y006543D01*
X004449Y006820D01*
G37*
G36*
X004588Y006681D02*
X004643Y006626D01*
X004366Y006349D01*
X004311Y006404D01*
X004588Y006681D01*
G37*
G36*
X004727Y006542D02*
X004782Y006487D01*
X004505Y006210D01*
X004450Y006265D01*
X004727Y006542D01*
G37*
G36*
X004867Y006403D02*
X004922Y006348D01*
X004645Y006071D01*
X004590Y006126D01*
X004867Y006403D01*
G37*
G36*
X003753Y007516D02*
X003808Y007461D01*
X003531Y007184D01*
X003476Y007239D01*
X003753Y007516D01*
G37*
G36*
X003614Y007655D02*
X003669Y007600D01*
X003392Y007323D01*
X003337Y007378D01*
X003614Y007655D01*
G37*
G36*
X003475Y007795D02*
X003530Y007740D01*
X003253Y007463D01*
X003198Y007518D01*
X003475Y007795D01*
G37*
G36*
X003335Y007934D02*
X003390Y007879D01*
X003113Y007602D01*
X003058Y007657D01*
X003335Y007934D01*
G37*
D13*
G36*
X003113Y008908D02*
X003390Y008631D01*
X003335Y008576D01*
X003058Y008853D01*
X003113Y008908D01*
G37*
G36*
X003253Y009047D02*
X003530Y008770D01*
X003475Y008715D01*
X003198Y008992D01*
X003253Y009047D01*
G37*
G36*
X003392Y009187D02*
X003669Y008910D01*
X003614Y008855D01*
X003337Y009132D01*
X003392Y009187D01*
G37*
G36*
X003531Y009326D02*
X003808Y009049D01*
X003753Y008994D01*
X003476Y009271D01*
X003531Y009326D01*
G37*
G36*
X003670Y009465D02*
X003947Y009188D01*
X003892Y009133D01*
X003615Y009410D01*
X003670Y009465D01*
G37*
G36*
X003809Y009604D02*
X004086Y009327D01*
X004031Y009272D01*
X003754Y009549D01*
X003809Y009604D01*
G37*
G36*
X003949Y009743D02*
X004226Y009466D01*
X004171Y009411D01*
X003894Y009688D01*
X003949Y009743D01*
G37*
G36*
X004088Y009883D02*
X004365Y009606D01*
X004310Y009551D01*
X004033Y009828D01*
X004088Y009883D01*
G37*
G36*
X004227Y010022D02*
X004504Y009745D01*
X004449Y009690D01*
X004172Y009967D01*
X004227Y010022D01*
G37*
G36*
X004366Y010161D02*
X004643Y009884D01*
X004588Y009829D01*
X004311Y010106D01*
X004366Y010161D01*
G37*
G36*
X004505Y010300D02*
X004782Y010023D01*
X004727Y009968D01*
X004450Y010245D01*
X004505Y010300D01*
G37*
G36*
X004645Y010439D02*
X004922Y010162D01*
X004867Y010107D01*
X004590Y010384D01*
X004645Y010439D01*
G37*
G36*
X006593Y007377D02*
X006870Y007100D01*
X006815Y007045D01*
X006538Y007322D01*
X006593Y007377D01*
G37*
G36*
X006454Y007238D02*
X006731Y006961D01*
X006676Y006906D01*
X006399Y007183D01*
X006454Y007238D01*
G37*
G36*
X006315Y007099D02*
X006592Y006822D01*
X006537Y006767D01*
X006260Y007044D01*
X006315Y007099D01*
G37*
G36*
X006176Y006959D02*
X006453Y006682D01*
X006398Y006627D01*
X006121Y006904D01*
X006176Y006959D01*
G37*
G36*
X006037Y006820D02*
X006314Y006543D01*
X006259Y006488D01*
X005982Y006765D01*
X006037Y006820D01*
G37*
G36*
X005897Y006681D02*
X006174Y006404D01*
X006119Y006349D01*
X005842Y006626D01*
X005897Y006681D01*
G37*
G36*
X005758Y006542D02*
X006035Y006265D01*
X005980Y006210D01*
X005703Y006487D01*
X005758Y006542D01*
G37*
G36*
X005619Y006403D02*
X005896Y006126D01*
X005841Y006071D01*
X005564Y006348D01*
X005619Y006403D01*
G37*
G36*
X006733Y007516D02*
X007010Y007239D01*
X006955Y007184D01*
X006678Y007461D01*
X006733Y007516D01*
G37*
G36*
X006872Y007655D02*
X007149Y007378D01*
X007094Y007323D01*
X006817Y007600D01*
X006872Y007655D01*
G37*
G36*
X007011Y007795D02*
X007288Y007518D01*
X007233Y007463D01*
X006956Y007740D01*
X007011Y007795D01*
G37*
G36*
X007150Y007934D02*
X007427Y007657D01*
X007372Y007602D01*
X007095Y007879D01*
X007150Y007934D01*
G37*
D14*
X005577Y005705D03*
X004908Y005705D03*
X005643Y004590D03*
X005643Y003920D03*
X005577Y010735D03*
X004908Y010735D03*
X003427Y011805D03*
X002758Y011805D03*
X006858Y012425D03*
X007308Y012955D03*
X007527Y012425D03*
X007977Y012955D03*
D15*
X007793Y005545D03*
X007293Y005545D03*
X006793Y005545D03*
X006293Y005545D03*
X006293Y002665D03*
X006793Y002665D03*
X007293Y002665D03*
X007793Y002665D03*
D16*
X003349Y012490D03*
X003093Y012490D03*
X002837Y012490D03*
X002837Y013124D03*
X003093Y013124D03*
X003349Y013124D03*
D17*
X004793Y004947D03*
X004793Y003963D03*
D18*
X005243Y011435D03*
X006153Y011435D03*
X004333Y011435D03*
D19*
X005243Y013875D03*
D20*
X006991Y010780D03*
X006991Y010190D03*
X007995Y010190D03*
X007995Y010780D03*
D21*
X007650Y010780D03*
X007335Y010780D03*
X007335Y010190D03*
X007650Y010190D03*
D22*
X007142Y013755D03*
X008244Y013755D03*
D23*
X007413Y011952D03*
X007413Y011755D03*
X007413Y011558D03*
X006881Y011558D03*
X006881Y011952D03*
M02*
