G75*
%MOIN*%
%OFA0B0*%
%FSLAX24Y24*%
%IPPOS*%
%LPD*%
%AMOC8*
5,1,8,0,0,1.08239X$1,22.5*
%
%ADD10C,0.0080*%
%ADD11C,0.0079*%
%ADD12R,0.0900X0.0900*%
%ADD13OC8,0.0740*%
%ADD14R,0.0394X0.0433*%
%ADD15R,0.0315X0.0315*%
%ADD16R,0.0217X0.0472*%
%ADD17R,0.0433X0.0394*%
%ADD18C,0.0100*%
%ADD19R,0.0433X0.0748*%
%ADD20R,0.0630X0.0551*%
%ADD21R,0.0551X0.0827*%
%ADD22C,0.0660*%
%ADD23R,0.1260X0.1260*%
%ADD24R,0.1969X0.1181*%
%ADD25R,0.0500X0.1000*%
%ADD26R,0.0748X0.0551*%
%ADD27R,0.0551X0.0709*%
%ADD28R,0.0591X0.0276*%
%ADD29R,0.0551X0.0394*%
%ADD30R,0.1181X0.0394*%
%ADD31R,0.0157X0.0531*%
%ADD32R,0.0709X0.0748*%
%ADD33C,0.0502*%
%ADD34R,0.0886X0.0886*%
%ADD35R,0.1000X0.2000*%
%ADD36R,0.1181X0.0591*%
%ADD37C,0.0000*%
%ADD38C,0.0394*%
%ADD39C,0.0100*%
%ADD40C,0.0317*%
%ADD41C,0.0356*%
%ADD42C,0.0160*%
%ADD43R,0.0356X0.0356*%
D10*
X001687Y016424D02*
X039679Y016424D01*
D11*
X002967Y001023D02*
X002990Y001086D01*
X003010Y001151D01*
X003026Y001217D01*
X003039Y001283D01*
X003047Y001350D01*
X003052Y001417D01*
X003053Y001485D01*
X003050Y001552D01*
X003043Y001620D01*
X003032Y001686D01*
X003018Y001752D01*
X003000Y001818D01*
X002978Y001881D01*
X002952Y001944D01*
X002923Y002005D01*
X002891Y002064D01*
X002855Y002122D01*
X002816Y002177D01*
X002774Y002230D01*
X002728Y002280D01*
X002681Y002328D01*
X002630Y002373D01*
X002577Y002414D01*
X002522Y002453D01*
X002464Y002489D01*
X002405Y002521D01*
X002344Y002550D01*
X002281Y002575D01*
X002217Y002597D01*
X002152Y002615D01*
X002086Y002629D01*
X002019Y002640D01*
X001952Y002646D01*
X001884Y002649D01*
X001817Y002648D01*
X001749Y002643D01*
X001682Y002634D01*
X001687Y002645D02*
X001687Y016424D01*
X012120Y003038D02*
X019203Y004382D01*
X019211Y004376D02*
X019221Y004443D01*
X019236Y004509D01*
X019254Y004575D01*
X019276Y004639D01*
X019302Y004701D01*
X019331Y004763D01*
X019363Y004822D01*
X019399Y004879D01*
X019438Y004935D01*
X019481Y004988D01*
X019526Y005038D01*
X019574Y005086D01*
X019624Y005131D01*
X019678Y005173D01*
X019733Y005212D01*
X019791Y005247D01*
X019850Y005280D01*
X019911Y005309D01*
X019974Y005334D01*
X020038Y005355D01*
X020104Y005373D01*
X020170Y005387D01*
X020237Y005398D01*
X020304Y005404D01*
X020372Y005407D01*
X020440Y005406D01*
X020507Y005401D01*
X020574Y005392D01*
X020641Y005379D01*
X020707Y005362D01*
X020771Y005342D01*
X020835Y005318D01*
X020896Y005290D01*
X020957Y005259D01*
X021015Y005225D01*
X021071Y005187D01*
X021125Y005146D01*
X021177Y005102D01*
X021226Y005055D01*
X021272Y005006D01*
X021315Y004954D01*
X021355Y004899D01*
X021392Y004843D01*
X021426Y004784D01*
X021456Y004723D01*
X021483Y004661D01*
X021507Y004597D01*
X021526Y004533D01*
X021542Y004467D01*
X021554Y004400D01*
X021562Y004333D01*
X021603Y004382D02*
X028656Y003038D01*
X028656Y001070D01*
X037711Y001070D01*
X037784Y001088D02*
X037763Y001152D01*
X037747Y001216D01*
X037734Y001282D01*
X037724Y001348D01*
X037719Y001414D01*
X037717Y001481D01*
X037719Y001547D01*
X037725Y001614D01*
X037734Y001680D01*
X037747Y001745D01*
X037764Y001809D01*
X037785Y001873D01*
X037809Y001935D01*
X037837Y001996D01*
X037867Y002055D01*
X037902Y002112D01*
X037939Y002167D01*
X037980Y002220D01*
X038023Y002270D01*
X038069Y002318D01*
X038118Y002364D01*
X038169Y002406D01*
X038223Y002446D01*
X038279Y002482D01*
X038337Y002515D01*
X038396Y002545D01*
X038457Y002571D01*
X038520Y002594D01*
X038584Y002614D01*
X038649Y002629D01*
X038714Y002641D01*
X038780Y002650D01*
X038847Y002654D01*
X038913Y002655D01*
X038980Y002652D01*
X039046Y002645D01*
X039112Y002634D01*
X039089Y002645D02*
X039089Y010125D01*
X039679Y010125D01*
X039679Y016424D01*
X037805Y012782D02*
X037799Y012777D01*
X012120Y003038D02*
X012120Y001070D01*
X003065Y001070D01*
D12*
X021853Y009082D03*
D13*
X037006Y009542D03*
X038006Y009542D03*
X038006Y008542D03*
X037006Y008542D03*
X037006Y007542D03*
X038006Y007542D03*
D14*
X031441Y004336D03*
X031441Y003667D03*
X030619Y003667D03*
X030619Y004336D03*
X025612Y008235D03*
X025612Y008905D03*
X024762Y008905D03*
X024762Y008235D03*
X022790Y012251D03*
X021790Y012251D03*
X021790Y012920D03*
X022790Y012920D03*
X019990Y012920D03*
X018990Y012920D03*
X018190Y012920D03*
X018190Y012251D03*
X018990Y012251D03*
X019990Y012251D03*
X011453Y009117D03*
X010453Y009117D03*
X010453Y008448D03*
X011453Y008448D03*
X008703Y010948D03*
X007703Y010948D03*
X007703Y011617D03*
X008703Y011617D03*
X006203Y009117D03*
X006203Y008448D03*
X003703Y008448D03*
X002703Y008448D03*
X002703Y009117D03*
X003703Y009117D03*
X013078Y004967D03*
X013078Y004298D03*
D15*
X017990Y014590D03*
X018990Y014590D03*
X019990Y014590D03*
X019990Y015181D03*
X018990Y015181D03*
X017990Y015181D03*
X021790Y015181D03*
X022790Y015181D03*
X022790Y014590D03*
X021790Y014590D03*
D16*
X008077Y009294D03*
X007329Y009294D03*
X007329Y008271D03*
X007703Y008271D03*
X008077Y008271D03*
X005327Y008271D03*
X004953Y008271D03*
X004579Y008271D03*
X004579Y009294D03*
X005327Y009294D03*
D17*
X014118Y009657D03*
X014787Y009657D03*
X014787Y008863D03*
X014118Y008863D03*
X014118Y010521D03*
X014787Y010521D03*
X015268Y005082D03*
X015937Y005082D03*
X014437Y005057D03*
X013768Y005057D03*
X013768Y004232D03*
X014437Y004232D03*
X026881Y010147D03*
X027550Y010147D03*
G36*
X031075Y009939D02*
X031380Y009634D01*
X031101Y009355D01*
X030796Y009660D01*
X031075Y009939D01*
G37*
G36*
X031548Y009466D02*
X031853Y009161D01*
X031574Y008882D01*
X031269Y009187D01*
X031548Y009466D01*
G37*
G36*
X030701Y007181D02*
X031006Y007486D01*
X031285Y007207D01*
X030980Y006902D01*
X030701Y007181D01*
G37*
G36*
X030227Y006708D02*
X030532Y007013D01*
X030811Y006734D01*
X030506Y006429D01*
X030227Y006708D01*
G37*
D18*
X029877Y007044D02*
X029735Y007202D01*
X029877Y007044D02*
X029863Y007032D01*
X029721Y007190D01*
X029735Y007202D01*
X029774Y007131D02*
X029799Y007131D01*
X029881Y007334D02*
X030023Y007176D01*
X030009Y007164D01*
X029867Y007322D01*
X029881Y007334D01*
X029920Y007263D02*
X029945Y007263D01*
X030022Y007460D02*
X030164Y007302D01*
X030150Y007290D01*
X030008Y007448D01*
X030022Y007460D01*
X030061Y007389D02*
X030086Y007389D01*
X030168Y007592D02*
X030310Y007434D01*
X030296Y007422D01*
X030154Y007580D01*
X030168Y007592D01*
X030207Y007521D02*
X030232Y007521D01*
X030184Y007918D02*
X030342Y008060D01*
X030184Y007918D02*
X030172Y007932D01*
X030330Y008074D01*
X030342Y008060D01*
X030294Y008017D02*
X030267Y008017D01*
X030211Y008206D02*
X030053Y008064D01*
X030041Y008078D01*
X030199Y008220D01*
X030211Y008206D01*
X030163Y008163D02*
X030136Y008163D01*
X030085Y008346D02*
X029927Y008204D01*
X029915Y008218D01*
X030073Y008360D01*
X030085Y008346D01*
X030037Y008303D02*
X030010Y008303D01*
X029953Y008492D02*
X029795Y008350D01*
X029783Y008364D01*
X029941Y008506D01*
X029953Y008492D01*
X029905Y008449D02*
X029878Y008449D01*
X029827Y008632D02*
X029669Y008490D01*
X029657Y008504D01*
X029815Y008646D01*
X029827Y008632D01*
X029779Y008589D02*
X029752Y008589D01*
X029695Y008779D02*
X029537Y008637D01*
X029525Y008651D01*
X029683Y008793D01*
X029695Y008779D01*
X029647Y008736D02*
X029620Y008736D01*
X029551Y008939D02*
X029393Y008797D01*
X029551Y008939D02*
X029563Y008925D01*
X029405Y008783D01*
X029393Y008797D01*
X029488Y008882D02*
X029515Y008882D01*
X029425Y009079D02*
X029267Y008937D01*
X029425Y009079D02*
X029437Y009065D01*
X029279Y008923D01*
X029267Y008937D01*
X029362Y009022D02*
X029389Y009022D01*
X029293Y009225D02*
X029135Y009083D01*
X029293Y009225D02*
X029305Y009211D01*
X029147Y009069D01*
X029135Y009083D01*
X029230Y009168D02*
X029257Y009168D01*
X029167Y009365D02*
X029009Y009223D01*
X029167Y009365D02*
X029179Y009351D01*
X029021Y009209D01*
X029009Y009223D01*
X029104Y009308D02*
X029131Y009308D01*
X029036Y009512D02*
X028878Y009370D01*
X029036Y009512D02*
X029048Y009498D01*
X028890Y009356D01*
X028878Y009370D01*
X028973Y009455D02*
X029000Y009455D01*
X028552Y009386D02*
X028410Y009544D01*
X028552Y009386D02*
X028538Y009374D01*
X028396Y009532D01*
X028410Y009544D01*
X028449Y009473D02*
X028474Y009473D01*
X028264Y009413D02*
X028406Y009255D01*
X028392Y009243D01*
X028250Y009401D01*
X028264Y009413D01*
X028303Y009342D02*
X028328Y009342D01*
X028124Y009286D02*
X028266Y009128D01*
X028252Y009116D01*
X028110Y009274D01*
X028124Y009286D01*
X028163Y009215D02*
X028188Y009215D01*
X027977Y009155D02*
X028119Y008997D01*
X028105Y008985D01*
X027963Y009143D01*
X027977Y009155D01*
X028016Y009084D02*
X028041Y009084D01*
X027837Y009029D02*
X027979Y008871D01*
X027965Y008859D01*
X027823Y009017D01*
X027837Y009029D01*
X027876Y008958D02*
X027901Y008958D01*
X027691Y008897D02*
X027833Y008739D01*
X027819Y008727D01*
X027677Y008885D01*
X027691Y008897D01*
X027730Y008826D02*
X027755Y008826D01*
X027531Y008753D02*
X027673Y008595D01*
X027531Y008753D02*
X027545Y008765D01*
X027687Y008607D01*
X027673Y008595D01*
X027609Y008694D02*
X027584Y008694D01*
X027391Y008627D02*
X027533Y008469D01*
X027391Y008627D02*
X027405Y008639D01*
X027547Y008481D01*
X027533Y008469D01*
X027469Y008568D02*
X027444Y008568D01*
X027244Y008495D02*
X027386Y008337D01*
X027244Y008495D02*
X027258Y008507D01*
X027400Y008349D01*
X027386Y008337D01*
X027322Y008436D02*
X027297Y008436D01*
X027104Y008369D02*
X027246Y008211D01*
X027104Y008369D02*
X027118Y008381D01*
X027260Y008223D01*
X027246Y008211D01*
X027182Y008310D02*
X027157Y008310D01*
X026958Y008237D02*
X027100Y008079D01*
X026958Y008237D02*
X026972Y008249D01*
X027114Y008091D01*
X027100Y008079D01*
X027036Y008178D02*
X027011Y008178D01*
X027083Y007754D02*
X026925Y007612D01*
X027083Y007754D02*
X027095Y007740D01*
X026937Y007598D01*
X026925Y007612D01*
X027020Y007697D02*
X027047Y007697D01*
X027215Y007607D02*
X027057Y007465D01*
X027215Y007607D02*
X027227Y007593D01*
X027069Y007451D01*
X027057Y007465D01*
X027152Y007550D02*
X027179Y007550D01*
X027341Y007467D02*
X027183Y007325D01*
X027341Y007467D02*
X027353Y007453D01*
X027195Y007311D01*
X027183Y007325D01*
X027278Y007410D02*
X027305Y007410D01*
X027473Y007321D02*
X027315Y007179D01*
X027473Y007321D02*
X027485Y007307D01*
X027327Y007165D01*
X027315Y007179D01*
X027410Y007264D02*
X027437Y007264D01*
X027599Y007181D02*
X027441Y007039D01*
X027599Y007181D02*
X027611Y007167D01*
X027453Y007025D01*
X027441Y007039D01*
X027536Y007124D02*
X027563Y007124D01*
X027731Y007035D02*
X027573Y006893D01*
X027731Y007035D02*
X027743Y007021D01*
X027585Y006879D01*
X027573Y006893D01*
X027668Y006978D02*
X027695Y006978D01*
X027874Y006874D02*
X027716Y006732D01*
X027704Y006746D01*
X027862Y006888D01*
X027874Y006874D01*
X027826Y006831D02*
X027799Y006831D01*
X028001Y006734D02*
X027843Y006592D01*
X027831Y006606D01*
X027989Y006748D01*
X028001Y006734D01*
X027953Y006691D02*
X027926Y006691D01*
X028132Y006588D02*
X027974Y006446D01*
X027962Y006460D01*
X028120Y006602D01*
X028132Y006588D01*
X028084Y006545D02*
X028057Y006545D01*
X028258Y006448D02*
X028100Y006306D01*
X028088Y006320D01*
X028246Y006462D01*
X028258Y006448D01*
X028210Y006405D02*
X028183Y006405D01*
X028390Y006302D02*
X028232Y006160D01*
X028220Y006174D01*
X028378Y006316D01*
X028390Y006302D01*
X028342Y006259D02*
X028315Y006259D01*
X028716Y006285D02*
X028858Y006127D01*
X028716Y006285D02*
X028730Y006297D01*
X028872Y006139D01*
X028858Y006127D01*
X028794Y006226D02*
X028769Y006226D01*
X028862Y006417D02*
X029004Y006259D01*
X028862Y006417D02*
X028876Y006429D01*
X029018Y006271D01*
X029004Y006259D01*
X028940Y006358D02*
X028915Y006358D01*
X029002Y006543D02*
X029144Y006385D01*
X029002Y006543D02*
X029016Y006555D01*
X029158Y006397D01*
X029144Y006385D01*
X029080Y006484D02*
X029055Y006484D01*
X029148Y006675D02*
X029290Y006517D01*
X029148Y006675D02*
X029162Y006687D01*
X029304Y006529D01*
X029290Y006517D01*
X029226Y006616D02*
X029201Y006616D01*
X029289Y006801D02*
X029431Y006643D01*
X029289Y006801D02*
X029303Y006813D01*
X029445Y006655D01*
X029431Y006643D01*
X029367Y006742D02*
X029342Y006742D01*
X029435Y006932D02*
X029577Y006774D01*
X029435Y006932D02*
X029449Y006944D01*
X029591Y006786D01*
X029577Y006774D01*
X029513Y006873D02*
X029488Y006873D01*
X029595Y007076D02*
X029737Y006918D01*
X029723Y006906D01*
X029581Y007064D01*
X029595Y007076D01*
X029634Y007005D02*
X029659Y007005D01*
D19*
X025746Y009948D03*
X024841Y009948D03*
X024841Y011405D03*
X025746Y011405D03*
D20*
X009203Y009334D03*
X009203Y008231D03*
X006203Y010731D03*
X006203Y011834D03*
D21*
X005526Y006188D03*
X003754Y006188D03*
X003754Y002251D03*
X005526Y002251D03*
X035250Y002251D03*
X037022Y002251D03*
X037022Y006188D03*
X035250Y006188D03*
D22*
X029671Y011109D03*
X028687Y011109D03*
X027703Y011109D03*
X013026Y011109D03*
X012041Y011109D03*
X011057Y011109D03*
D23*
X010270Y013865D03*
X013813Y013865D03*
X026915Y013865D03*
X030459Y013865D03*
D24*
X022035Y010823D03*
X018741Y010823D03*
D25*
X025953Y004307D03*
X026953Y004132D03*
X027953Y004032D03*
D26*
X038783Y010690D03*
X039138Y015887D03*
D27*
X033626Y013682D03*
X033626Y011320D03*
D28*
X037484Y013643D03*
X037642Y014076D03*
X037642Y013210D03*
X037799Y012777D03*
X037642Y012344D03*
X037799Y011910D03*
X037642Y011477D03*
X037642Y011044D03*
D29*
X016886Y011406D03*
X016020Y011032D03*
X016886Y010658D03*
D30*
X003078Y012782D03*
X003078Y013782D03*
X003078Y014782D03*
D31*
X030506Y002695D03*
X030762Y002695D03*
X031018Y002695D03*
X031274Y002695D03*
X031530Y002695D03*
D32*
X031451Y001642D03*
X030585Y001642D03*
D33*
X030063Y002823D03*
X031972Y002823D03*
D34*
X032425Y001642D03*
X029610Y001642D03*
D35*
X007328Y015282D03*
X005828Y015282D03*
D36*
X008380Y005361D03*
X011136Y004692D03*
X008380Y002960D03*
X008380Y001542D03*
X011136Y001936D03*
D37*
X009522Y002094D02*
X009524Y002124D01*
X009530Y002154D01*
X009539Y002183D01*
X009552Y002210D01*
X009569Y002235D01*
X009588Y002258D01*
X009611Y002279D01*
X009636Y002296D01*
X009662Y002310D01*
X009691Y002320D01*
X009720Y002327D01*
X009750Y002330D01*
X009781Y002329D01*
X009811Y002324D01*
X009840Y002315D01*
X009867Y002303D01*
X009893Y002288D01*
X009917Y002269D01*
X009938Y002247D01*
X009956Y002223D01*
X009971Y002196D01*
X009982Y002168D01*
X009990Y002139D01*
X009994Y002109D01*
X009994Y002079D01*
X009990Y002049D01*
X009982Y002020D01*
X009971Y001992D01*
X009956Y001965D01*
X009938Y001941D01*
X009917Y001919D01*
X009893Y001900D01*
X009867Y001885D01*
X009840Y001873D01*
X009811Y001864D01*
X009781Y001859D01*
X009750Y001858D01*
X009720Y001861D01*
X009691Y001868D01*
X009662Y001878D01*
X009636Y001892D01*
X009611Y001909D01*
X009588Y001930D01*
X009569Y001953D01*
X009552Y001978D01*
X009539Y002005D01*
X009530Y002034D01*
X009524Y002064D01*
X009522Y002094D01*
X009522Y004456D02*
X009524Y004486D01*
X009530Y004516D01*
X009539Y004545D01*
X009552Y004572D01*
X009569Y004597D01*
X009588Y004620D01*
X009611Y004641D01*
X009636Y004658D01*
X009662Y004672D01*
X009691Y004682D01*
X009720Y004689D01*
X009750Y004692D01*
X009781Y004691D01*
X009811Y004686D01*
X009840Y004677D01*
X009867Y004665D01*
X009893Y004650D01*
X009917Y004631D01*
X009938Y004609D01*
X009956Y004585D01*
X009971Y004558D01*
X009982Y004530D01*
X009990Y004501D01*
X009994Y004471D01*
X009994Y004441D01*
X009990Y004411D01*
X009982Y004382D01*
X009971Y004354D01*
X009956Y004327D01*
X009938Y004303D01*
X009917Y004281D01*
X009893Y004262D01*
X009867Y004247D01*
X009840Y004235D01*
X009811Y004226D01*
X009781Y004221D01*
X009750Y004220D01*
X009720Y004223D01*
X009691Y004230D01*
X009662Y004240D01*
X009636Y004254D01*
X009611Y004271D01*
X009588Y004292D01*
X009569Y004315D01*
X009552Y004340D01*
X009539Y004367D01*
X009530Y004396D01*
X009524Y004426D01*
X009522Y004456D01*
D38*
X002503Y015682D03*
X038303Y003382D03*
D39*
X037022Y005476D02*
X036203Y004657D01*
X035328Y004407D02*
X035328Y002329D01*
X035250Y002251D01*
X032526Y003548D02*
X032261Y003282D01*
X031703Y003282D01*
X031530Y003109D01*
X031530Y002695D01*
X031018Y002695D02*
X031018Y003244D01*
X031441Y003667D01*
X031441Y004336D02*
X031441Y004720D01*
X031603Y004882D01*
X031803Y004882D01*
X032603Y005682D01*
X032603Y006982D01*
X030703Y008882D01*
X030353Y008882D01*
X030218Y008748D01*
X029868Y008428D01*
X029742Y008568D02*
X030103Y008882D01*
X030403Y009182D01*
X030903Y009182D01*
X031003Y009082D01*
X031470Y009082D01*
X031561Y009174D01*
X031561Y009124D01*
X032003Y008682D01*
X030703Y008182D02*
X030703Y008082D01*
X031803Y006982D01*
X031803Y005982D01*
X031403Y005582D01*
X030503Y005582D01*
X030203Y005282D01*
X030203Y003382D01*
X030406Y003179D01*
X030506Y003179D01*
X030506Y002695D01*
X030762Y002695D02*
X030762Y003223D01*
X030703Y003282D01*
X030703Y003583D01*
X030619Y003667D01*
X030626Y003659D01*
X030619Y004336D02*
X030603Y004352D01*
X030603Y004882D01*
X030903Y005182D01*
X031703Y005182D01*
X032203Y005682D01*
X032203Y006982D01*
X030603Y008682D01*
X030403Y008682D01*
X030002Y008282D01*
X030000Y008282D01*
X030126Y008142D02*
X029803Y007882D01*
X029603Y007882D01*
X029228Y008257D01*
X029228Y008658D01*
X029478Y008861D01*
X029631Y009011D01*
X030853Y010182D01*
X031503Y010182D01*
X032303Y010982D01*
X031703Y011282D02*
X031403Y011282D01*
X029368Y009297D01*
X029220Y009147D01*
X029094Y009287D02*
X029258Y009437D01*
X029403Y009782D01*
X029003Y009482D02*
X029003Y010182D01*
X029103Y010282D01*
X029953Y010282D01*
X032453Y012782D01*
X035453Y012782D01*
X035953Y013157D02*
X037590Y013157D01*
X037642Y013210D01*
X037805Y012782D02*
X038328Y012782D01*
X038578Y013032D01*
X038578Y014032D01*
X038028Y014582D01*
X032503Y014582D01*
X031903Y013982D01*
X031903Y012782D01*
X030903Y011782D01*
X029703Y011782D01*
X029703Y011141D01*
X029671Y011109D01*
X029703Y011782D02*
X029303Y012182D01*
X027403Y012182D01*
X026303Y011082D01*
X026303Y012281D01*
X024915Y013668D01*
X023537Y013668D01*
X023341Y013865D01*
X023341Y015637D01*
X023095Y015882D01*
X020585Y015882D01*
X020590Y015877D01*
X020590Y012486D01*
X020290Y012186D01*
X020056Y012186D01*
X019990Y012251D01*
X019003Y012238D02*
X019003Y011882D01*
X018803Y011682D01*
X017603Y011682D01*
X017503Y011582D01*
X017503Y011082D01*
X017079Y010658D01*
X016886Y010658D01*
X016903Y010642D01*
X016903Y007682D01*
X016303Y007282D02*
X018494Y007282D01*
X022035Y010823D01*
X021840Y011682D02*
X021790Y011732D01*
X021790Y012251D01*
X021806Y011682D02*
X021840Y011682D01*
X023203Y011682D01*
X023403Y011482D01*
X023403Y010532D01*
X024303Y010782D02*
X024303Y009364D01*
X024762Y008905D01*
X024762Y008235D02*
X025612Y008235D01*
X025665Y008182D01*
X025853Y008182D01*
X026215Y007820D01*
X026215Y007795D01*
X025803Y007382D01*
X026053Y006882D02*
X024703Y006882D01*
X024103Y007482D01*
X021003Y007482D01*
X020503Y006982D01*
X012328Y006982D01*
X012328Y009782D01*
X012403Y010182D02*
X012678Y010182D01*
X012828Y010032D01*
X012828Y007407D01*
X011503Y007282D02*
X011503Y008398D01*
X011453Y008448D01*
X011903Y008448D01*
X012003Y008548D01*
X012003Y009482D01*
X011057Y010428D01*
X011057Y011109D01*
X010203Y010782D02*
X010203Y011582D01*
X010603Y011982D01*
X012003Y011982D01*
X012003Y014282D01*
X013603Y015882D01*
X020585Y015882D01*
X021090Y015186D02*
X021785Y015186D01*
X021790Y015181D01*
X021090Y015186D02*
X022790Y015181D01*
X022790Y014590D02*
X022790Y012920D01*
X021790Y012920D02*
X021790Y014590D01*
X019990Y014590D02*
X019990Y012920D01*
X018990Y012920D02*
X018990Y014590D01*
X019490Y014386D02*
X019490Y015186D01*
X018995Y015186D01*
X018990Y015181D01*
X019490Y015186D02*
X019985Y015186D01*
X019990Y015181D01*
X018503Y015382D02*
X018503Y013998D01*
X018490Y013986D01*
X018490Y014090D01*
X017990Y014590D01*
X017490Y014986D02*
X017690Y015186D01*
X017985Y015186D01*
X017990Y015181D01*
X018085Y015186D01*
X017890Y015186D01*
X017490Y014986D02*
X017490Y014086D01*
X018190Y013386D01*
X018190Y012920D01*
X018190Y012251D02*
X018075Y012186D01*
X017490Y012186D01*
X016886Y011599D02*
X016703Y011782D01*
X015728Y011782D01*
X015703Y011807D01*
X015103Y011782D02*
X016303Y012982D01*
X016303Y014682D01*
X017203Y015582D01*
X018303Y015582D01*
X018503Y015382D01*
X018990Y012251D02*
X019003Y012238D01*
X018741Y010823D02*
X018741Y009995D01*
X018953Y009782D01*
X016886Y011406D02*
X016886Y011599D01*
X016020Y011032D02*
X015703Y011349D01*
X014395Y011349D01*
X014078Y011032D01*
X014078Y010561D01*
X014118Y010521D01*
X014118Y009657D01*
X014118Y008863D01*
X014078Y009282D02*
X013703Y009282D01*
X013453Y009532D01*
X013453Y010657D01*
X013703Y010907D01*
X014078Y010907D01*
X014078Y010569D01*
X014070Y010569D01*
X014070Y010868D01*
X013882Y010868D01*
X013844Y010857D01*
X013809Y010838D01*
X013782Y010810D01*
X013762Y010775D01*
X013752Y010737D01*
X013752Y010569D01*
X014070Y010569D01*
X014070Y010472D01*
X014078Y010472D01*
X014078Y009706D01*
X014070Y009706D01*
X014070Y010004D01*
X013882Y010004D01*
X013844Y009994D01*
X013809Y009974D01*
X013782Y009946D01*
X013762Y009912D01*
X013752Y009874D01*
X013752Y009706D01*
X014070Y009706D01*
X014070Y009609D01*
X014078Y009609D01*
X014078Y009282D01*
X014070Y009311D02*
X014070Y009609D01*
X013752Y009609D01*
X013752Y009441D01*
X013762Y009403D01*
X013782Y009369D01*
X013809Y009341D01*
X013844Y009321D01*
X013882Y009311D01*
X014070Y009311D01*
X014070Y009345D02*
X014078Y009345D01*
X014070Y009443D02*
X014078Y009443D01*
X014070Y009542D02*
X014078Y009542D01*
X014070Y009640D02*
X013453Y009640D01*
X013453Y009542D02*
X013752Y009542D01*
X013752Y009443D02*
X013542Y009443D01*
X013641Y009345D02*
X013806Y009345D01*
X013752Y009739D02*
X013453Y009739D01*
X013453Y009837D02*
X013752Y009837D01*
X013775Y009936D02*
X013453Y009936D01*
X013453Y010034D02*
X014078Y010034D01*
X014070Y009936D02*
X014078Y009936D01*
X014070Y009837D02*
X014078Y009837D01*
X014070Y009739D02*
X014078Y009739D01*
X014078Y010133D02*
X013453Y010133D01*
X013453Y010231D02*
X013782Y010231D01*
X013782Y010232D02*
X013809Y010204D01*
X013844Y010184D01*
X013882Y010174D01*
X014070Y010174D01*
X014070Y010472D01*
X013752Y010472D01*
X013752Y010304D01*
X013762Y010266D01*
X013782Y010232D01*
X013752Y010330D02*
X013453Y010330D01*
X013453Y010428D02*
X013752Y010428D01*
X013752Y010625D02*
X013453Y010625D01*
X013453Y010527D02*
X014070Y010527D01*
X014070Y010625D02*
X014078Y010625D01*
X014070Y010724D02*
X014078Y010724D01*
X014070Y010822D02*
X014078Y010822D01*
X013794Y010822D02*
X013617Y010822D01*
X013519Y010724D02*
X013752Y010724D01*
X014070Y010428D02*
X014078Y010428D01*
X014070Y010330D02*
X014078Y010330D01*
X014070Y010231D02*
X014078Y010231D01*
X014828Y010231D02*
X014836Y010231D01*
X014836Y010174D02*
X015024Y010174D01*
X015062Y010184D01*
X015096Y010204D01*
X015124Y010232D01*
X015144Y010266D01*
X015154Y010304D01*
X015154Y010472D01*
X014836Y010472D01*
X014836Y010569D01*
X015154Y010569D01*
X015154Y010737D01*
X015144Y010775D01*
X015124Y010810D01*
X015096Y010838D01*
X015062Y010857D01*
X015024Y010868D01*
X014836Y010868D01*
X014836Y010569D01*
X014828Y010569D01*
X014828Y010907D01*
X015453Y010907D01*
X015453Y010657D01*
X015828Y010532D01*
X015828Y009532D01*
X015578Y009282D01*
X014828Y009282D01*
X014828Y009609D01*
X014836Y009609D01*
X014836Y009706D01*
X015154Y009706D01*
X015154Y009874D01*
X015144Y009912D01*
X015124Y009946D01*
X015096Y009974D01*
X015062Y009994D01*
X015024Y010004D01*
X014836Y010004D01*
X014836Y009706D01*
X014828Y009706D01*
X014828Y010472D01*
X014836Y010472D01*
X014836Y010174D01*
X014828Y010133D02*
X015828Y010133D01*
X015828Y010231D02*
X015123Y010231D01*
X015154Y010330D02*
X015828Y010330D01*
X015828Y010428D02*
X015154Y010428D01*
X015154Y010625D02*
X015550Y010625D01*
X015453Y010724D02*
X015154Y010724D01*
X015112Y010822D02*
X015453Y010822D01*
X015828Y010527D02*
X014836Y010527D01*
X014787Y010521D02*
X014787Y009657D01*
X014836Y009640D02*
X015828Y009640D01*
X015828Y009542D02*
X015154Y009542D01*
X015154Y009609D02*
X014836Y009609D01*
X014836Y009311D01*
X015024Y009311D01*
X015062Y009321D01*
X015096Y009341D01*
X015124Y009369D01*
X015144Y009403D01*
X015154Y009441D01*
X015154Y009609D01*
X015154Y009739D02*
X015828Y009739D01*
X015828Y009837D02*
X015154Y009837D01*
X015130Y009936D02*
X015828Y009936D01*
X015828Y010034D02*
X014828Y010034D01*
X014828Y009936D02*
X014836Y009936D01*
X014828Y009837D02*
X014836Y009837D01*
X014828Y009739D02*
X014836Y009739D01*
X014828Y009542D02*
X014836Y009542D01*
X014828Y009443D02*
X014836Y009443D01*
X014828Y009345D02*
X014836Y009345D01*
X015100Y009345D02*
X015640Y009345D01*
X015738Y009443D02*
X015154Y009443D01*
X014787Y008863D02*
X014787Y008798D01*
X016303Y007282D01*
X017203Y005782D02*
X017852Y006432D01*
X027393Y006432D01*
X027771Y006810D01*
X027789Y006810D01*
X027901Y006670D02*
X027916Y006670D01*
X027902Y006670D01*
X027414Y006182D01*
X018403Y006182D01*
X017303Y005082D01*
X015937Y005082D01*
X015268Y005082D02*
X014935Y004750D01*
X015003Y004682D01*
X015003Y004482D01*
X014935Y004750D02*
X014437Y004252D01*
X014437Y004232D01*
X013768Y004232D02*
X013703Y004298D01*
X013078Y004298D01*
X013062Y004282D01*
X012703Y004282D01*
X011136Y002716D01*
X011136Y001936D01*
X010742Y001542D01*
X008380Y001542D01*
X008144Y001636D01*
X008090Y001582D01*
X007753Y001582D01*
X007003Y002332D01*
X007003Y002682D01*
X007985Y001700D02*
X008144Y001636D01*
X008380Y002960D02*
X008403Y002982D01*
X010303Y002982D01*
X011403Y004082D01*
X011136Y004692D02*
X011276Y004832D01*
X011853Y004832D01*
X011987Y004967D01*
X013078Y004967D01*
X013168Y005057D01*
X013768Y005057D01*
X014437Y005057D02*
X014503Y005123D01*
X014503Y005382D01*
X014903Y005782D01*
X017203Y005782D01*
X016903Y006282D02*
X012103Y006282D01*
X011181Y005361D01*
X008380Y005361D01*
X008603Y006182D02*
X008703Y006182D01*
X009203Y006682D01*
X020803Y006682D01*
X021303Y007182D01*
X022003Y007182D01*
X023803Y008582D02*
X023803Y011982D01*
X023796Y012186D01*
X022806Y012186D01*
X022790Y012251D01*
X024303Y010782D02*
X024753Y011232D01*
X025403Y010582D01*
X026003Y010582D01*
X026203Y010382D01*
X026203Y009582D01*
X027303Y009582D01*
X027651Y009234D01*
X027901Y008944D01*
X028041Y009070D02*
X028191Y008894D01*
X028303Y008782D01*
X028303Y008182D01*
X028003Y007882D01*
X027217Y007882D01*
X027010Y007676D01*
X026996Y007676D01*
X026803Y007482D01*
X026553Y007482D01*
X026215Y007820D01*
X026871Y008364D02*
X026603Y008582D01*
X026871Y008364D02*
X027036Y008164D01*
X027353Y007682D02*
X028053Y007682D01*
X028253Y007482D01*
X028503Y007482D01*
X028503Y007503D01*
X028303Y006982D01*
X028603Y006682D01*
X028603Y006412D01*
X028794Y006212D01*
X028940Y006344D02*
X029103Y006181D01*
X029103Y006082D01*
X028703Y005682D01*
X028303Y005682D01*
X028003Y005682D01*
X027903Y005582D01*
X028103Y005882D02*
X028303Y005682D01*
X028103Y005882D02*
X028103Y005982D01*
X028205Y006135D01*
X028305Y006238D01*
X028173Y006384D02*
X027672Y005882D01*
X023303Y005882D01*
X022403Y004982D02*
X021603Y005782D01*
X018903Y005782D01*
X018603Y005482D01*
X018403Y005482D01*
X022403Y004982D02*
X025603Y004982D01*
X025803Y005182D01*
X028603Y005182D01*
X029503Y006082D01*
X029503Y006282D01*
X029426Y006359D01*
X029226Y006602D01*
X029367Y006719D02*
X029703Y006382D01*
X029703Y005982D01*
X028703Y004982D01*
X026203Y004982D01*
X026003Y004782D01*
X026003Y004082D01*
X025953Y004307D01*
X026903Y004082D02*
X026953Y004132D01*
X026903Y004082D02*
X026903Y004582D01*
X027103Y004782D01*
X028803Y004782D01*
X029903Y005882D01*
X029903Y006482D01*
X029726Y006659D01*
X029513Y006859D01*
X029367Y006728D02*
X029367Y006719D01*
X029080Y006470D02*
X028830Y006755D01*
X028603Y006982D01*
X028692Y007096D01*
X029003Y007407D01*
X029003Y008782D01*
X028716Y008982D01*
X028720Y011094D01*
X028687Y011109D01*
X028303Y010182D02*
X028003Y010182D01*
X028003Y010178D01*
X027581Y010178D01*
X027550Y010147D01*
X027603Y009782D02*
X026903Y009782D01*
X026903Y010125D01*
X026881Y010147D01*
X026804Y010081D01*
X026804Y010281D01*
X026303Y010782D01*
X026303Y011082D01*
X024841Y011320D02*
X024753Y011232D01*
X024841Y011320D02*
X024841Y011405D01*
X025746Y009948D02*
X025746Y009038D01*
X025612Y008905D01*
X025640Y008932D01*
X026003Y008932D01*
X026403Y009332D01*
X026403Y009382D01*
X027184Y009382D01*
X027755Y008812D01*
X027609Y008680D02*
X027509Y008777D01*
X027303Y008982D01*
X027203Y008982D01*
X027103Y008882D01*
X027469Y008554D02*
X027669Y008317D01*
X027703Y008282D01*
X027903Y008282D01*
X027353Y007682D02*
X027142Y007529D01*
X027268Y007389D02*
X027168Y007298D01*
X026953Y007082D01*
X026603Y007082D01*
X026803Y006682D02*
X026253Y006682D01*
X026053Y006882D01*
X026803Y006682D02*
X027113Y006993D01*
X027400Y007243D01*
X028503Y007503D02*
X028503Y008886D01*
X028188Y009201D01*
X028184Y009201D01*
X027603Y009782D01*
X028003Y009782D02*
X028028Y009658D01*
X028328Y009328D01*
X028003Y009782D02*
X028003Y010178D01*
X028963Y009434D02*
X029003Y009482D01*
X029352Y009001D02*
X029621Y009251D01*
X031003Y010582D01*
X031203Y010582D01*
X031303Y010682D01*
X031703Y011282D02*
X032603Y012182D01*
X036728Y012182D01*
X036828Y012282D01*
X037581Y012282D01*
X037642Y012344D01*
X037703Y012282D01*
X038578Y012282D01*
X038325Y011910D02*
X038578Y011657D01*
X038578Y010690D01*
X037217Y010690D01*
X037006Y010479D01*
X036703Y010782D01*
X037006Y010479D02*
X037006Y009542D01*
X037003Y009545D01*
X037003Y010182D01*
X035953Y010782D02*
X035953Y008832D01*
X036203Y008582D01*
X036966Y008582D01*
X037006Y008542D01*
X035453Y007782D02*
X036453Y006782D01*
X037246Y006782D01*
X038006Y007542D01*
X037022Y006188D02*
X037022Y005476D01*
X035328Y004407D02*
X034703Y005032D01*
X034703Y006407D01*
X034328Y006782D01*
X034328Y007282D01*
X033728Y007882D01*
X033303Y007882D01*
X034803Y007182D02*
X034978Y006982D01*
X034803Y007182D02*
X034803Y011082D01*
X035453Y011282D02*
X035703Y011282D01*
X035828Y011407D01*
X037572Y011407D01*
X037642Y011477D01*
X037799Y011910D02*
X038325Y011910D01*
X038578Y010690D02*
X038783Y010690D01*
X035453Y011282D02*
X035453Y007782D01*
X031403Y006682D02*
X031203Y006882D01*
X031203Y006984D01*
X030993Y007194D01*
X030993Y007193D01*
X030993Y007194D02*
X030981Y007182D01*
X030303Y007182D01*
X030260Y007175D01*
X030086Y007375D01*
X029945Y007249D02*
X029945Y007240D01*
X030303Y006882D01*
X030358Y006882D01*
X030519Y006721D01*
X030203Y006382D02*
X030203Y005882D01*
X028703Y004382D01*
X028003Y004382D01*
X027903Y004282D01*
X027953Y004032D01*
X030619Y004336D02*
X030628Y004345D01*
X030203Y006382D02*
X029859Y006776D01*
X029659Y006991D01*
X029703Y007482D02*
X029403Y007482D01*
X029703Y007482D02*
X029903Y007682D01*
X030056Y007682D01*
X030232Y007507D01*
X030126Y008142D02*
X030443Y008442D01*
X030703Y008182D01*
X029935Y009015D02*
X029610Y008715D01*
X029935Y009015D02*
X030703Y009782D01*
X030953Y009782D01*
X031088Y009647D01*
X028173Y006384D02*
X028073Y006303D01*
X034828Y013582D02*
X035228Y013982D01*
X035903Y013982D01*
X036243Y013643D01*
X037484Y013643D01*
X037903Y015682D02*
X038107Y015887D01*
X039138Y015887D01*
X032303Y015082D02*
X024787Y015082D01*
X023990Y014286D01*
X014836Y010822D02*
X014828Y010822D01*
X014828Y010724D02*
X014836Y010724D01*
X014828Y010625D02*
X014836Y010625D01*
X014828Y010428D02*
X014836Y010428D01*
X014828Y010330D02*
X014836Y010330D01*
X013026Y011109D02*
X013003Y011132D01*
X013003Y011582D01*
X012603Y011982D01*
X012003Y011982D01*
X012041Y011109D02*
X012041Y010544D01*
X012403Y010182D01*
X011453Y009532D02*
X010203Y010782D01*
X009303Y010982D02*
X010503Y009782D01*
X011453Y009532D02*
X011453Y009117D01*
X010503Y008398D02*
X010453Y008448D01*
X010503Y008398D02*
X010503Y007282D01*
X011503Y007282D01*
X010503Y007282D02*
X009203Y007282D01*
X009203Y008231D01*
X008503Y008782D02*
X008103Y008782D01*
X008103Y008297D01*
X008077Y008271D01*
X007703Y008271D02*
X007703Y007282D01*
X009203Y007282D01*
X007703Y007282D02*
X006203Y007282D01*
X005003Y007282D01*
X003703Y007282D01*
X003703Y008448D01*
X002703Y008448D01*
X003703Y009117D02*
X003703Y010282D01*
X004703Y010282D01*
X004703Y010982D01*
X004703Y010282D02*
X005303Y010282D01*
X005303Y009318D01*
X005327Y009294D01*
X004579Y009294D02*
X004579Y009758D01*
X004503Y009782D01*
X005703Y010682D02*
X005752Y010731D01*
X005953Y010731D01*
X006203Y010731D01*
X005703Y010682D02*
X005703Y008282D01*
X005691Y008271D01*
X005327Y008271D01*
X005003Y008221D02*
X004953Y008271D01*
X005003Y008221D02*
X005003Y007282D01*
X004303Y007782D02*
X004579Y008058D01*
X004579Y008271D01*
X006203Y008448D02*
X006203Y007282D01*
X006403Y006182D02*
X005526Y006188D01*
X002803Y004382D02*
X003754Y003431D01*
X003754Y002251D01*
X008380Y002960D02*
X008445Y003182D01*
X010742Y001700D02*
X011136Y001936D01*
X007329Y008271D02*
X007329Y008756D01*
X007303Y008782D01*
X007003Y008782D01*
X006803Y008982D01*
X006803Y010082D01*
X007003Y010282D01*
X006203Y009782D02*
X006203Y009117D01*
X007303Y008782D02*
X008103Y008782D01*
X008703Y010948D02*
X009103Y010982D01*
X009303Y010982D01*
X007703Y011617D02*
X007703Y012082D01*
X007903Y012282D01*
X006309Y012489D02*
X006309Y011940D01*
X006203Y011834D01*
X006303Y012482D02*
X005303Y012482D01*
X005203Y012582D01*
X006303Y012482D02*
X006309Y012489D01*
D40*
X005203Y012582D03*
X007903Y012282D03*
X007003Y010282D03*
X006203Y009782D03*
X004503Y009782D03*
X004703Y010982D03*
X008503Y008782D03*
X010503Y009782D03*
X012328Y009782D03*
X015578Y010157D03*
X015703Y011807D03*
X015103Y011782D03*
X018490Y013986D03*
X019490Y014386D03*
X021090Y015186D03*
X023990Y014286D03*
X023403Y010532D03*
X023803Y008582D03*
X022003Y007182D03*
X023303Y005882D03*
X025803Y007382D03*
X026603Y007082D03*
X027903Y008282D03*
X027103Y008882D03*
X026603Y008582D03*
X028503Y007482D03*
X029403Y007482D03*
X031403Y006682D03*
X033303Y007882D03*
X032003Y008682D03*
X029403Y009782D03*
X028303Y010182D03*
X031303Y010682D03*
X032303Y010982D03*
X034803Y011082D03*
X035453Y011282D03*
X035953Y010782D03*
X038578Y012282D03*
X035953Y013157D03*
X035453Y012782D03*
X034828Y013582D03*
X032303Y015082D03*
X037903Y015682D03*
X034978Y006982D03*
X032526Y003548D03*
X027903Y005582D03*
X018953Y009782D03*
X016903Y007682D03*
X016903Y006282D03*
X018403Y005482D03*
X015003Y004482D03*
X011403Y004082D03*
X008603Y006182D03*
X007703Y007282D03*
X006403Y006182D03*
X004303Y007782D03*
X002803Y004382D03*
X007003Y002682D03*
X012828Y007407D03*
D41*
X036203Y004657D03*
X036703Y010782D03*
D42*
X016020Y011032D02*
X015828Y011032D01*
X011453Y009117D02*
X010453Y009117D01*
X010236Y009334D01*
X009203Y009334D01*
X009203Y009782D01*
X008953Y010032D01*
X007453Y010032D01*
X007329Y009908D01*
X007329Y009294D01*
X006203Y010731D02*
X006254Y010782D01*
X006953Y010782D01*
X007203Y011032D01*
X007203Y012782D01*
X008453Y012782D01*
X008703Y012532D01*
X008703Y011617D01*
X008703Y010948D02*
X007703Y010948D01*
X006328Y011959D02*
X006203Y011834D01*
X006328Y011959D02*
X006328Y013032D01*
X007328Y014032D01*
X007328Y015282D01*
X005828Y015282D02*
X005828Y013907D01*
X005203Y013282D01*
X004453Y013282D01*
X004453Y011782D01*
X005203Y011032D01*
X005652Y011032D01*
X005953Y010731D01*
X004579Y009408D02*
X004579Y009294D01*
X003703Y009117D02*
X002703Y009117D01*
X004453Y013282D02*
X003953Y013782D01*
X003078Y013782D01*
X004203Y014282D02*
X004203Y014532D01*
X003953Y014782D01*
X003078Y014782D01*
D43*
X004203Y014282D03*
X017490Y012186D03*
M02*
