G75*
%MOIN*%
%OFA0B0*%
%FSLAX24Y24*%
%IPPOS*%
%LPD*%
%AMOC8*
5,1,8,0,0,1.08239X$1,22.5*
%
%ADD10C,0.0080*%
%ADD11C,0.0079*%
%ADD12R,0.0900X0.0900*%
%ADD13OC8,0.0780*%
%ADD14R,0.0434X0.0473*%
%ADD15R,0.0355X0.0355*%
%ADD16R,0.0257X0.0512*%
%ADD17R,0.0473X0.0434*%
%ADD18C,0.0134*%
%ADD19R,0.0473X0.0788*%
%ADD20R,0.0670X0.0591*%
%ADD21R,0.0591X0.0867*%
%ADD22C,0.0700*%
%ADD23R,0.1300X0.1300*%
%ADD24R,0.2009X0.1221*%
%ADD25R,0.0540X0.1040*%
%ADD26R,0.0788X0.0591*%
%ADD27R,0.0591X0.0749*%
%ADD28R,0.0631X0.0316*%
%ADD29R,0.0591X0.0434*%
%ADD30R,0.1221X0.0434*%
%ADD31R,0.0197X0.0571*%
%ADD32R,0.0749X0.0788*%
%ADD33C,0.0542*%
%ADD34R,0.0926X0.0926*%
%ADD35R,0.1040X0.2040*%
%ADD36R,0.1221X0.0631*%
%ADD37C,0.0000*%
%ADD38C,0.0512*%
%ADD39C,0.0050*%
D10*
X001687Y016424D02*
X039679Y016424D01*
D11*
X002967Y001023D02*
X002990Y001086D01*
X003010Y001151D01*
X003026Y001217D01*
X003039Y001283D01*
X003047Y001350D01*
X003052Y001417D01*
X003053Y001485D01*
X003050Y001552D01*
X003043Y001620D01*
X003032Y001686D01*
X003018Y001752D01*
X003000Y001818D01*
X002978Y001881D01*
X002952Y001944D01*
X002923Y002005D01*
X002891Y002064D01*
X002855Y002122D01*
X002816Y002177D01*
X002774Y002230D01*
X002728Y002280D01*
X002681Y002328D01*
X002630Y002373D01*
X002577Y002414D01*
X002522Y002453D01*
X002464Y002489D01*
X002405Y002521D01*
X002344Y002550D01*
X002281Y002575D01*
X002217Y002597D01*
X002152Y002615D01*
X002086Y002629D01*
X002019Y002640D01*
X001952Y002646D01*
X001884Y002649D01*
X001817Y002648D01*
X001749Y002643D01*
X001682Y002634D01*
X001687Y002645D02*
X001687Y016424D01*
X012120Y003038D02*
X019203Y004382D01*
X019211Y004376D02*
X019221Y004443D01*
X019236Y004509D01*
X019254Y004575D01*
X019276Y004639D01*
X019302Y004701D01*
X019331Y004763D01*
X019363Y004822D01*
X019399Y004879D01*
X019438Y004935D01*
X019481Y004988D01*
X019526Y005038D01*
X019574Y005086D01*
X019624Y005131D01*
X019678Y005173D01*
X019733Y005212D01*
X019791Y005247D01*
X019850Y005280D01*
X019911Y005309D01*
X019974Y005334D01*
X020038Y005355D01*
X020104Y005373D01*
X020170Y005387D01*
X020237Y005398D01*
X020304Y005404D01*
X020372Y005407D01*
X020440Y005406D01*
X020507Y005401D01*
X020574Y005392D01*
X020641Y005379D01*
X020707Y005362D01*
X020771Y005342D01*
X020835Y005318D01*
X020896Y005290D01*
X020957Y005259D01*
X021015Y005225D01*
X021071Y005187D01*
X021125Y005146D01*
X021177Y005102D01*
X021226Y005055D01*
X021272Y005006D01*
X021315Y004954D01*
X021355Y004899D01*
X021392Y004843D01*
X021426Y004784D01*
X021456Y004723D01*
X021483Y004661D01*
X021507Y004597D01*
X021526Y004533D01*
X021542Y004467D01*
X021554Y004400D01*
X021562Y004333D01*
X021603Y004382D02*
X028656Y003038D01*
X028656Y001070D01*
X037711Y001070D01*
X037784Y001088D02*
X037763Y001152D01*
X037747Y001216D01*
X037734Y001282D01*
X037724Y001348D01*
X037719Y001414D01*
X037717Y001481D01*
X037719Y001547D01*
X037725Y001614D01*
X037734Y001680D01*
X037747Y001745D01*
X037764Y001809D01*
X037785Y001873D01*
X037809Y001935D01*
X037837Y001996D01*
X037867Y002055D01*
X037902Y002112D01*
X037939Y002167D01*
X037980Y002220D01*
X038023Y002270D01*
X038069Y002318D01*
X038118Y002364D01*
X038169Y002406D01*
X038223Y002446D01*
X038279Y002482D01*
X038337Y002515D01*
X038396Y002545D01*
X038457Y002571D01*
X038520Y002594D01*
X038584Y002614D01*
X038649Y002629D01*
X038714Y002641D01*
X038780Y002650D01*
X038847Y002654D01*
X038913Y002655D01*
X038980Y002652D01*
X039046Y002645D01*
X039112Y002634D01*
X039089Y002645D02*
X039089Y010125D01*
X039679Y010125D01*
X039679Y016424D01*
X012120Y003038D02*
X012120Y001070D01*
X003065Y001070D01*
D12*
X021853Y009082D03*
D13*
X037006Y009542D03*
X038006Y009542D03*
X038006Y008542D03*
X037006Y008542D03*
X037006Y007542D03*
X038006Y007542D03*
D14*
X031441Y004336D03*
X031441Y003667D03*
X030619Y003667D03*
X030619Y004336D03*
X025612Y008235D03*
X025612Y008905D03*
X024762Y008905D03*
X024762Y008235D03*
X022790Y012251D03*
X021790Y012251D03*
X021790Y012920D03*
X022790Y012920D03*
X019990Y012920D03*
X018990Y012920D03*
X018190Y012920D03*
X018190Y012251D03*
X018990Y012251D03*
X019990Y012251D03*
X011453Y009117D03*
X010453Y009117D03*
X010453Y008448D03*
X011453Y008448D03*
X008703Y010948D03*
X007703Y010948D03*
X007703Y011617D03*
X008703Y011617D03*
X006203Y009117D03*
X006203Y008448D03*
X003703Y008448D03*
X002703Y008448D03*
X002703Y009117D03*
X003703Y009117D03*
X013078Y004967D03*
X013078Y004298D03*
D15*
X017990Y014590D03*
X018990Y014590D03*
X019990Y014590D03*
X019990Y015181D03*
X018990Y015181D03*
X017990Y015181D03*
X021790Y015181D03*
X022790Y015181D03*
X022790Y014590D03*
X021790Y014590D03*
D16*
X008077Y009294D03*
X007329Y009294D03*
X007329Y008271D03*
X007703Y008271D03*
X008077Y008271D03*
X005327Y008271D03*
X004953Y008271D03*
X004579Y008271D03*
X004579Y009294D03*
X005327Y009294D03*
D17*
X014118Y009657D03*
X014787Y009657D03*
X014787Y008863D03*
X014118Y008863D03*
X014118Y010521D03*
X014787Y010521D03*
X015268Y005082D03*
X015937Y005082D03*
X014437Y005057D03*
X013768Y005057D03*
X013768Y004232D03*
X014437Y004232D03*
X026881Y010147D03*
X027550Y010147D03*
G36*
X031075Y009967D02*
X031408Y009634D01*
X031101Y009327D01*
X030768Y009660D01*
X031075Y009967D01*
G37*
G36*
X031548Y009494D02*
X031881Y009161D01*
X031574Y008854D01*
X031241Y009187D01*
X031548Y009494D01*
G37*
G36*
X030673Y007181D02*
X031006Y007514D01*
X031313Y007207D01*
X030980Y006874D01*
X030673Y007181D01*
G37*
G36*
X030199Y006708D02*
X030532Y007041D01*
X030839Y006734D01*
X030506Y006401D01*
X030199Y006708D01*
G37*
D18*
X029881Y007044D02*
X029735Y007206D01*
X029881Y007044D02*
X029863Y007028D01*
X029717Y007190D01*
X029735Y007206D01*
X029743Y007161D02*
X029776Y007161D01*
X029881Y007338D02*
X030027Y007176D01*
X030009Y007160D01*
X029863Y007322D01*
X029881Y007338D01*
X029889Y007293D02*
X029922Y007293D01*
X030022Y007464D02*
X030168Y007302D01*
X030150Y007286D01*
X030004Y007448D01*
X030022Y007464D01*
X030030Y007419D02*
X030063Y007419D01*
X030168Y007596D02*
X030314Y007434D01*
X030296Y007418D01*
X030150Y007580D01*
X030168Y007596D01*
X030176Y007551D02*
X030209Y007551D01*
X030184Y007914D02*
X030346Y008060D01*
X030184Y007914D02*
X030168Y007932D01*
X030330Y008078D01*
X030346Y008060D01*
X030332Y008047D02*
X030296Y008047D01*
X030215Y008206D02*
X030053Y008060D01*
X030037Y008078D01*
X030199Y008224D01*
X030215Y008206D01*
X030201Y008193D02*
X030165Y008193D01*
X030089Y008346D02*
X029927Y008200D01*
X029911Y008218D01*
X030073Y008364D01*
X030089Y008346D01*
X030075Y008333D02*
X030039Y008333D01*
X029957Y008492D02*
X029795Y008346D01*
X029779Y008364D01*
X029941Y008510D01*
X029957Y008492D01*
X029943Y008479D02*
X029907Y008479D01*
X029831Y008632D02*
X029669Y008486D01*
X029653Y008504D01*
X029815Y008650D01*
X029831Y008632D01*
X029817Y008619D02*
X029781Y008619D01*
X029699Y008779D02*
X029537Y008633D01*
X029521Y008651D01*
X029683Y008797D01*
X029699Y008779D01*
X029685Y008766D02*
X029649Y008766D01*
X029551Y008943D02*
X029389Y008797D01*
X029551Y008943D02*
X029567Y008925D01*
X029405Y008779D01*
X029389Y008797D01*
X029517Y008912D02*
X029553Y008912D01*
X029425Y009083D02*
X029263Y008937D01*
X029425Y009083D02*
X029441Y009065D01*
X029279Y008919D01*
X029263Y008937D01*
X029391Y009052D02*
X029427Y009052D01*
X029293Y009229D02*
X029131Y009083D01*
X029293Y009229D02*
X029309Y009211D01*
X029147Y009065D01*
X029131Y009083D01*
X029259Y009198D02*
X029295Y009198D01*
X029167Y009369D02*
X029005Y009223D01*
X029167Y009369D02*
X029183Y009351D01*
X029021Y009205D01*
X029005Y009223D01*
X029133Y009338D02*
X029169Y009338D01*
X029036Y009516D02*
X028874Y009370D01*
X029036Y009516D02*
X029052Y009498D01*
X028890Y009352D01*
X028874Y009370D01*
X029002Y009485D02*
X029038Y009485D01*
X028556Y009386D02*
X028410Y009548D01*
X028556Y009386D02*
X028538Y009370D01*
X028392Y009532D01*
X028410Y009548D01*
X028418Y009503D02*
X028451Y009503D01*
X028264Y009417D02*
X028410Y009255D01*
X028392Y009239D01*
X028246Y009401D01*
X028264Y009417D01*
X028272Y009372D02*
X028305Y009372D01*
X028124Y009290D02*
X028270Y009128D01*
X028252Y009112D01*
X028106Y009274D01*
X028124Y009290D01*
X028132Y009245D02*
X028165Y009245D01*
X027977Y009159D02*
X028123Y008997D01*
X028105Y008981D01*
X027959Y009143D01*
X027977Y009159D01*
X027985Y009114D02*
X028018Y009114D01*
X027837Y009033D02*
X027983Y008871D01*
X027965Y008855D01*
X027819Y009017D01*
X027837Y009033D01*
X027845Y008988D02*
X027878Y008988D01*
X027691Y008901D02*
X027837Y008739D01*
X027819Y008723D01*
X027673Y008885D01*
X027691Y008901D01*
X027699Y008856D02*
X027732Y008856D01*
X027527Y008753D02*
X027673Y008591D01*
X027527Y008753D02*
X027545Y008769D01*
X027691Y008607D01*
X027673Y008591D01*
X027586Y008724D02*
X027553Y008724D01*
X027387Y008627D02*
X027533Y008465D01*
X027387Y008627D02*
X027405Y008643D01*
X027551Y008481D01*
X027533Y008465D01*
X027446Y008598D02*
X027413Y008598D01*
X027240Y008495D02*
X027386Y008333D01*
X027240Y008495D02*
X027258Y008511D01*
X027404Y008349D01*
X027386Y008333D01*
X027299Y008466D02*
X027266Y008466D01*
X027100Y008369D02*
X027246Y008207D01*
X027100Y008369D02*
X027118Y008385D01*
X027264Y008223D01*
X027246Y008207D01*
X027159Y008340D02*
X027126Y008340D01*
X026954Y008237D02*
X027100Y008075D01*
X026954Y008237D02*
X026972Y008253D01*
X027118Y008091D01*
X027100Y008075D01*
X027013Y008208D02*
X026980Y008208D01*
X027083Y007758D02*
X026921Y007612D01*
X027083Y007758D02*
X027099Y007740D01*
X026937Y007594D01*
X026921Y007612D01*
X027049Y007727D02*
X027085Y007727D01*
X027215Y007611D02*
X027053Y007465D01*
X027215Y007611D02*
X027231Y007593D01*
X027069Y007447D01*
X027053Y007465D01*
X027181Y007580D02*
X027217Y007580D01*
X027341Y007471D02*
X027179Y007325D01*
X027341Y007471D02*
X027357Y007453D01*
X027195Y007307D01*
X027179Y007325D01*
X027307Y007440D02*
X027343Y007440D01*
X027473Y007325D02*
X027311Y007179D01*
X027473Y007325D02*
X027489Y007307D01*
X027327Y007161D01*
X027311Y007179D01*
X027439Y007294D02*
X027475Y007294D01*
X027599Y007185D02*
X027437Y007039D01*
X027599Y007185D02*
X027615Y007167D01*
X027453Y007021D01*
X027437Y007039D01*
X027565Y007154D02*
X027601Y007154D01*
X027731Y007039D02*
X027569Y006893D01*
X027731Y007039D02*
X027747Y007021D01*
X027585Y006875D01*
X027569Y006893D01*
X027697Y007008D02*
X027733Y007008D01*
X027878Y006874D02*
X027716Y006728D01*
X027700Y006746D01*
X027862Y006892D01*
X027878Y006874D01*
X027864Y006861D02*
X027828Y006861D01*
X028005Y006734D02*
X027843Y006588D01*
X027827Y006606D01*
X027989Y006752D01*
X028005Y006734D01*
X027991Y006721D02*
X027955Y006721D01*
X028136Y006588D02*
X027974Y006442D01*
X027958Y006460D01*
X028120Y006606D01*
X028136Y006588D01*
X028122Y006575D02*
X028086Y006575D01*
X028262Y006448D02*
X028100Y006302D01*
X028084Y006320D01*
X028246Y006466D01*
X028262Y006448D01*
X028248Y006435D02*
X028212Y006435D01*
X028394Y006302D02*
X028232Y006156D01*
X028216Y006174D01*
X028378Y006320D01*
X028394Y006302D01*
X028380Y006289D02*
X028344Y006289D01*
X028712Y006285D02*
X028858Y006123D01*
X028712Y006285D02*
X028730Y006301D01*
X028876Y006139D01*
X028858Y006123D01*
X028771Y006256D02*
X028738Y006256D01*
X028858Y006417D02*
X029004Y006255D01*
X028858Y006417D02*
X028876Y006433D01*
X029022Y006271D01*
X029004Y006255D01*
X028917Y006388D02*
X028884Y006388D01*
X028998Y006543D02*
X029144Y006381D01*
X028998Y006543D02*
X029016Y006559D01*
X029162Y006397D01*
X029144Y006381D01*
X029057Y006514D02*
X029024Y006514D01*
X029144Y006675D02*
X029290Y006513D01*
X029144Y006675D02*
X029162Y006691D01*
X029308Y006529D01*
X029290Y006513D01*
X029203Y006646D02*
X029170Y006646D01*
X029285Y006801D02*
X029431Y006639D01*
X029285Y006801D02*
X029303Y006817D01*
X029449Y006655D01*
X029431Y006639D01*
X029344Y006772D02*
X029311Y006772D01*
X029431Y006932D02*
X029577Y006770D01*
X029431Y006932D02*
X029449Y006948D01*
X029595Y006786D01*
X029577Y006770D01*
X029490Y006903D02*
X029457Y006903D01*
X029595Y007080D02*
X029741Y006918D01*
X029723Y006902D01*
X029577Y007064D01*
X029595Y007080D01*
X029603Y007035D02*
X029636Y007035D01*
D19*
X025746Y009948D03*
X024841Y009948D03*
X024841Y011405D03*
X025746Y011405D03*
D20*
X009203Y009334D03*
X009203Y008231D03*
X006203Y010731D03*
X006203Y011834D03*
D21*
X005526Y006188D03*
X003754Y006188D03*
X003754Y002251D03*
X005526Y002251D03*
X035250Y002251D03*
X037022Y002251D03*
X037022Y006188D03*
X035250Y006188D03*
D22*
X029671Y011109D03*
X028687Y011109D03*
X027703Y011109D03*
X013026Y011109D03*
X012041Y011109D03*
X011057Y011109D03*
D23*
X010270Y013865D03*
X013813Y013865D03*
X026915Y013865D03*
X030459Y013865D03*
D24*
X022035Y010823D03*
X018741Y010823D03*
D25*
X025953Y004307D03*
X026953Y004132D03*
X027953Y004032D03*
D26*
X038783Y010690D03*
X039138Y015887D03*
D27*
X033626Y013682D03*
X033626Y011320D03*
D28*
X037484Y013643D03*
X037642Y014076D03*
X037642Y013210D03*
X037799Y012777D03*
X037642Y012344D03*
X037799Y011910D03*
X037642Y011477D03*
X037642Y011044D03*
D29*
X016886Y011406D03*
X016020Y011032D03*
X016886Y010658D03*
D30*
X003078Y012782D03*
X003078Y013782D03*
X003078Y014782D03*
D31*
X030506Y002695D03*
X030762Y002695D03*
X031018Y002695D03*
X031274Y002695D03*
X031530Y002695D03*
D32*
X031451Y001642D03*
X030585Y001642D03*
D33*
X030063Y002823D03*
X031972Y002823D03*
D34*
X032425Y001642D03*
X029610Y001642D03*
D35*
X007328Y015282D03*
X005828Y015282D03*
D36*
X008380Y005361D03*
X011136Y004692D03*
X008380Y002960D03*
X008380Y001542D03*
X011136Y001936D03*
D37*
X009522Y002094D02*
X009524Y002124D01*
X009530Y002154D01*
X009539Y002183D01*
X009552Y002210D01*
X009569Y002235D01*
X009588Y002258D01*
X009611Y002279D01*
X009636Y002296D01*
X009662Y002310D01*
X009691Y002320D01*
X009720Y002327D01*
X009750Y002330D01*
X009781Y002329D01*
X009811Y002324D01*
X009840Y002315D01*
X009867Y002303D01*
X009893Y002288D01*
X009917Y002269D01*
X009938Y002247D01*
X009956Y002223D01*
X009971Y002196D01*
X009982Y002168D01*
X009990Y002139D01*
X009994Y002109D01*
X009994Y002079D01*
X009990Y002049D01*
X009982Y002020D01*
X009971Y001992D01*
X009956Y001965D01*
X009938Y001941D01*
X009917Y001919D01*
X009893Y001900D01*
X009867Y001885D01*
X009840Y001873D01*
X009811Y001864D01*
X009781Y001859D01*
X009750Y001858D01*
X009720Y001861D01*
X009691Y001868D01*
X009662Y001878D01*
X009636Y001892D01*
X009611Y001909D01*
X009588Y001930D01*
X009569Y001953D01*
X009552Y001978D01*
X009539Y002005D01*
X009530Y002034D01*
X009524Y002064D01*
X009522Y002094D01*
X009522Y004456D02*
X009524Y004486D01*
X009530Y004516D01*
X009539Y004545D01*
X009552Y004572D01*
X009569Y004597D01*
X009588Y004620D01*
X009611Y004641D01*
X009636Y004658D01*
X009662Y004672D01*
X009691Y004682D01*
X009720Y004689D01*
X009750Y004692D01*
X009781Y004691D01*
X009811Y004686D01*
X009840Y004677D01*
X009867Y004665D01*
X009893Y004650D01*
X009917Y004631D01*
X009938Y004609D01*
X009956Y004585D01*
X009971Y004558D01*
X009982Y004530D01*
X009990Y004501D01*
X009994Y004471D01*
X009994Y004441D01*
X009990Y004411D01*
X009982Y004382D01*
X009971Y004354D01*
X009956Y004327D01*
X009938Y004303D01*
X009917Y004281D01*
X009893Y004262D01*
X009867Y004247D01*
X009840Y004235D01*
X009811Y004226D01*
X009781Y004221D01*
X009750Y004220D01*
X009720Y004223D01*
X009691Y004230D01*
X009662Y004240D01*
X009636Y004254D01*
X009611Y004271D01*
X009588Y004292D01*
X009569Y004315D01*
X009552Y004340D01*
X009539Y004367D01*
X009530Y004396D01*
X009524Y004426D01*
X009522Y004456D01*
D38*
X009758Y004456D03*
X009758Y002094D03*
D39*
X002700Y015342D02*
X002756Y015381D01*
X002804Y015429D01*
X002844Y015486D01*
X002873Y015548D01*
X002890Y015614D01*
X002896Y015682D01*
X002890Y015751D01*
X002873Y015817D01*
X002844Y015879D01*
X002804Y015936D01*
X002756Y015984D01*
X002700Y016023D01*
X002637Y016052D01*
X002571Y016070D01*
X002503Y016076D01*
X002434Y016070D01*
X002368Y016052D01*
X002306Y016023D01*
X002250Y015984D01*
X002201Y015936D01*
X002162Y015879D01*
X002133Y015817D01*
X002115Y015751D01*
X002109Y015682D01*
X002115Y015614D01*
X002133Y015548D01*
X002162Y015486D01*
X002201Y015429D01*
X002250Y015381D01*
X002306Y015342D01*
X002368Y015313D01*
X002434Y015295D01*
X002503Y015289D01*
X002571Y015295D01*
X002637Y015313D01*
X002700Y015342D01*
X002735Y015366D02*
X002271Y015366D01*
X002216Y015415D02*
X002789Y015415D01*
X002828Y015463D02*
X002178Y015463D01*
X002150Y015512D02*
X002856Y015512D01*
X002876Y015560D02*
X002130Y015560D01*
X002117Y015609D02*
X002889Y015609D01*
X002894Y015657D02*
X002111Y015657D01*
X002111Y015706D02*
X002894Y015706D01*
X002890Y015754D02*
X002116Y015754D01*
X002129Y015803D02*
X002877Y015803D01*
X002857Y015851D02*
X002149Y015851D01*
X002176Y015900D02*
X002830Y015900D01*
X002792Y015948D02*
X002214Y015948D01*
X002268Y015997D02*
X002738Y015997D01*
X002653Y016045D02*
X002352Y016045D01*
X002357Y015318D02*
X002648Y015318D01*
X037933Y003517D02*
X037915Y003451D01*
X037909Y003382D01*
X037915Y003314D01*
X037933Y003248D01*
X037962Y003186D01*
X038001Y003129D01*
X038050Y003081D01*
X038106Y003042D01*
X038168Y003013D01*
X038234Y002995D01*
X038303Y002989D01*
X038371Y002995D01*
X038437Y003013D01*
X038500Y003042D01*
X038556Y003081D01*
X038604Y003129D01*
X038644Y003186D01*
X038673Y003248D01*
X038690Y003314D01*
X038696Y003382D01*
X038690Y003451D01*
X038673Y003517D01*
X038644Y003579D01*
X038604Y003636D01*
X038556Y003684D01*
X038500Y003723D01*
X038437Y003752D01*
X038371Y003770D01*
X038303Y003776D01*
X038234Y003770D01*
X038168Y003752D01*
X038106Y003723D01*
X038050Y003684D01*
X038001Y003636D01*
X037962Y003579D01*
X037933Y003517D01*
X037940Y003532D02*
X038666Y003532D01*
X038682Y003483D02*
X037924Y003483D01*
X037914Y003435D02*
X038692Y003435D01*
X038696Y003386D02*
X037909Y003386D01*
X037913Y003338D02*
X038693Y003338D01*
X038684Y003289D02*
X037922Y003289D01*
X037936Y003241D02*
X038670Y003241D01*
X038647Y003192D02*
X037959Y003192D01*
X037991Y003144D02*
X038615Y003144D01*
X038570Y003095D02*
X038035Y003095D01*
X038098Y003047D02*
X038507Y003047D01*
X038385Y002998D02*
X038220Y002998D01*
X037963Y003580D02*
X038643Y003580D01*
X038609Y003629D02*
X037997Y003629D01*
X038043Y003677D02*
X038562Y003677D01*
X038494Y003726D02*
X038111Y003726D01*
X038284Y003774D02*
X038322Y003774D01*
M02*
