<?xml version="1.0" encoding="UTF-8"?>
<svg xmlns="http://www.w3.org/2000/svg" xmlns:xlink="http://www.w3.org/1999/xlink" width="147pt" height="59pt" viewBox="0 0 147 59" version="1.1">
<g id="surface10931">
<path style="fill:none;stroke-width:0.15;stroke-linecap:round;stroke-linejoin:miter;stroke:rgb(45.882353%,94.901961%,40.392157%);stroke-opacity:1;stroke-miterlimit:10;" d="M -0.749979 0.250023 C -0.851107 0.148895 -0.881381 -0.00317767 -0.826639 -0.135285 C -0.771897 -0.267392 -0.642991 -0.353547 -0.499979 -0.353547 C -0.357021 -0.353547 -0.22806 -0.267392 -0.173373 -0.135285 C -0.118631 -0.00317767 -0.148904 0.148895 -0.249979 0.250023 " transform="matrix(72,0,0,-72,73.541429,25.431364)"/>
<path style="fill:none;stroke-width:0.15;stroke-linecap:round;stroke-linejoin:miter;stroke:rgb(45.882353%,94.901961%,40.392157%);stroke-opacity:1;stroke-miterlimit:10;" d="M 0.750021 0.250023 C 0.851096 0.148895 0.881369 -0.00317767 0.826627 -0.135285 C 0.77194 -0.267392 0.642979 -0.353547 0.500021 -0.353547 C 0.357009 -0.353547 0.228103 -0.267392 0.173361 -0.135285 C 0.118619 -0.00317767 0.148893 0.148895 0.250021 0.250023 " transform="matrix(72,0,0,-72,73.541429,25.431364)"/>
</g>
</svg>
