<?xml version="1.0" encoding="UTF-8"?>
<svg xmlns="http://www.w3.org/2000/svg" xmlns:xlink="http://www.w3.org/1999/xlink" width="147pt" height="59pt" viewBox="0 0 147 59" version="1.1">
<g id="surface26239">
<path style="fill:none;stroke-width:0.15;stroke-linecap:round;stroke-linejoin:miter;stroke:rgb(92.54902%,76.078431%,94.901961%);stroke-opacity:1;stroke-miterlimit:10;" d="M -0.249979 -0.249993 C -0.148904 -0.148865 -0.118631 0.00320775 -0.173373 0.135315 C -0.22806 0.267422 -0.357021 0.353577 -0.499979 0.353577 C -0.642991 0.353577 -0.771897 0.267422 -0.826639 0.135315 C -0.881381 0.00320775 -0.851107 -0.148865 -0.749979 -0.249993 " transform="matrix(72,0,0,-72,73.541429,32.887208)"/>
<path style="fill:none;stroke-width:0.15;stroke-linecap:round;stroke-linejoin:miter;stroke:rgb(92.54902%,76.078431%,94.901961%);stroke-opacity:1;stroke-miterlimit:10;" d="M 0.250021 -0.249993 C 0.148893 -0.148865 0.118619 0.00320775 0.173361 0.135315 C 0.228103 0.267422 0.357009 0.353577 0.500021 0.353577 C 0.642979 0.353577 0.77194 0.267422 0.826627 0.135315 C 0.881369 0.00320775 0.851096 -0.148865 0.750021 -0.249993 " transform="matrix(72,0,0,-72,73.541429,32.887208)"/>
</g>
</svg>
