<?xml version="1.0" encoding="UTF-8"?>
<svg xmlns="http://www.w3.org/2000/svg" xmlns:xlink="http://www.w3.org/1999/xlink" width="138pt" height="67pt" viewBox="0 0 138 67" version="1.1">
<g id="surface18458">
<path style="fill:none;stroke-width:0.15;stroke-linecap:round;stroke-linejoin:miter;stroke:rgb(100%,77.254902%,20%);stroke-opacity:1;stroke-miterlimit:10;" d="M -0.750026 -0.25 C -0.648897 -0.351129 -0.496825 -0.381348 -0.364718 -0.32666 C -0.23261 -0.271919 -0.146456 -0.143012 -0.146456 -0.000000310697 C -0.146456 0.143012 -0.23261 0.271918 -0.364718 0.32666 C -0.496825 0.381347 -0.648897 0.351128 -0.750026 0.25 " transform="matrix(72,0,0,-72,65.712792,33.058571)"/>
<path style="fill:none;stroke-width:0.15;stroke-linecap:round;stroke-linejoin:miter;stroke:rgb(100%,77.254902%,20%);stroke-opacity:1;stroke-miterlimit:10;" d="M 0.249974 0.25 C 0.351103 0.351128 0.503175 0.381347 0.635282 0.32666 C 0.76739 0.271918 0.853544 0.143012 0.853544 -0.000000310697 C 0.853544 -0.143012 0.76739 -0.271919 0.635282 -0.32666 C 0.503175 -0.381348 0.351103 -0.351129 0.249974 -0.25 " transform="matrix(72,0,0,-72,65.712792,33.058571)"/>
</g>
</svg>
