G75*
G70*
%OFA0B0*%
%FSLAX24Y24*%
%IPPOS*%
%LPD*%
%AMOC8*
5,1,8,0,0,1.08239X$1,22.5*
%
%ADD10R,0.0433X0.0394*%
%ADD11R,0.0157X0.0531*%
%ADD12R,0.0591X0.0748*%
%ADD13R,0.0472X0.0472*%
%ADD14R,0.0472X0.0276*%
%ADD15R,0.0276X0.0472*%
%ADD16R,0.0945X0.0748*%
%ADD17R,0.0256X0.0492*%
%ADD18R,0.0394X0.0433*%
%ADD19R,0.0315X0.0315*%
%ADD20R,0.0433X0.0551*%
%ADD21R,0.0709X0.0413*%
%ADD22R,0.0413X0.0394*%
%ADD23R,0.0394X0.0591*%
%ADD24R,0.1050X0.0900*%
%ADD25R,0.0300X0.0500*%
D10*
X002958Y002255D03*
X003627Y002255D03*
X005808Y002255D03*
X006477Y002255D03*
X006558Y009805D03*
X007227Y009805D03*
X006293Y011520D03*
X006293Y012190D03*
X004193Y012190D03*
X004193Y011520D03*
X003927Y009805D03*
X003258Y009805D03*
D11*
X004731Y012702D03*
X004987Y012702D03*
X005243Y012702D03*
X005499Y012702D03*
X005755Y012702D03*
D12*
X005637Y013755D03*
X004849Y013751D03*
D13*
X002940Y009098D03*
X002940Y003389D03*
X007546Y003389D03*
X007546Y009098D03*
D14*
X007546Y008369D03*
X007546Y007897D03*
X007546Y007424D03*
X007546Y006952D03*
X007546Y006479D03*
X007546Y006007D03*
X007546Y005535D03*
X007546Y005062D03*
X007546Y004590D03*
X007546Y004117D03*
X002940Y004117D03*
X002940Y004590D03*
X002940Y005062D03*
X002940Y005535D03*
X002940Y006007D03*
X002940Y006479D03*
X002940Y006952D03*
X002940Y007424D03*
X002940Y007897D03*
X002940Y008369D03*
D15*
X003589Y009098D03*
X004062Y009098D03*
X004534Y009098D03*
X005007Y009098D03*
X005479Y009098D03*
X005951Y009098D03*
X006424Y009098D03*
X006896Y009098D03*
X006896Y003389D03*
X006424Y003389D03*
X005951Y003389D03*
X005479Y003389D03*
X005007Y003389D03*
X004534Y003389D03*
X004062Y003389D03*
X003589Y003389D03*
D16*
X004396Y004826D03*
X004396Y006243D03*
X004396Y007661D03*
X006089Y007661D03*
X006089Y006243D03*
X006089Y004826D03*
D17*
X006938Y010667D03*
X007548Y010667D03*
X007548Y012143D03*
X006938Y012143D03*
X003548Y012143D03*
X002938Y012143D03*
X002938Y010667D03*
X003548Y010667D03*
D18*
X003427Y012725D03*
X002758Y012725D03*
X004908Y009805D03*
X005577Y009805D03*
D19*
X007348Y013885D03*
X007938Y013885D03*
D20*
X005597Y011626D03*
X005597Y010484D03*
X004888Y010484D03*
X004888Y011626D03*
D21*
X007093Y002836D03*
X007093Y001674D03*
D22*
X006491Y002255D03*
D23*
X006808Y000655D03*
X003658Y000655D03*
D24*
X002443Y013655D03*
D25*
X003368Y013655D03*
M02*
