G75*
G70*
%OFA0B0*%
%FSLAX24Y24*%
%IPPOS*%
%LPD*%
%AMOC8*
5,1,8,0,0,1.08239X$1,22.5*
%
%ADD10R,0.0433X0.0748*%
%ADD11R,0.0394X0.0433*%
%ADD12C,0.0433*%
%ADD13R,0.0079X0.0394*%
%ADD14R,0.0394X0.0079*%
%ADD15R,0.0433X0.0394*%
%ADD16R,0.0220X0.0590*%
%ADD17R,0.0118X0.0390*%
%ADD18R,0.0748X0.0433*%
%ADD19R,0.0500X0.0750*%
%ADD20R,0.1500X0.0750*%
%ADD21R,0.0236X0.0315*%
%ADD22R,0.0197X0.0315*%
%ADD23R,0.0551X0.0630*%
%ADD24C,0.0690*%
%ADD25R,0.0177X0.0118*%
%ADD26C,0.0080*%
%ADD27C,0.0278*%
%ADD28C,0.0120*%
%ADD29C,0.0200*%
%ADD30C,0.0500*%
%ADD31C,0.0320*%
%ADD32C,0.0240*%
%ADD33C,0.0060*%
%ADD34C,0.0280*%
%ADD35C,0.0160*%
%ADD36C,0.0300*%
D10*
X003040Y003877D03*
X003946Y003877D03*
X003946Y005333D03*
X003040Y005333D03*
D11*
X003243Y006120D03*
X003243Y006790D03*
X003427Y010455D03*
X003427Y011105D03*
X002758Y011105D03*
X002758Y010455D03*
X002858Y013805D03*
X002227Y013805D03*
X001558Y013805D03*
X003527Y013805D03*
X007793Y008590D03*
X007793Y007920D03*
X005643Y003090D03*
X005643Y002420D03*
X004993Y002420D03*
X004993Y003090D03*
X004343Y003090D03*
X004343Y002420D03*
X003693Y002420D03*
X003693Y003090D03*
X003043Y003090D03*
X003043Y002420D03*
D12*
X004150Y013538D02*
X004150Y013972D01*
X006335Y013972D02*
X006335Y013538D01*
D13*
G36*
X005841Y010439D02*
X005896Y010384D01*
X005619Y010107D01*
X005564Y010162D01*
X005841Y010439D01*
G37*
G36*
X005980Y010300D02*
X006035Y010245D01*
X005758Y009968D01*
X005703Y010023D01*
X005980Y010300D01*
G37*
G36*
X006119Y010161D02*
X006174Y010106D01*
X005897Y009829D01*
X005842Y009884D01*
X006119Y010161D01*
G37*
G36*
X006259Y010022D02*
X006314Y009967D01*
X006037Y009690D01*
X005982Y009745D01*
X006259Y010022D01*
G37*
G36*
X006398Y009883D02*
X006453Y009828D01*
X006176Y009551D01*
X006121Y009606D01*
X006398Y009883D01*
G37*
G36*
X006537Y009743D02*
X006592Y009688D01*
X006315Y009411D01*
X006260Y009466D01*
X006537Y009743D01*
G37*
G36*
X006676Y009604D02*
X006731Y009549D01*
X006454Y009272D01*
X006399Y009327D01*
X006676Y009604D01*
G37*
G36*
X006815Y009465D02*
X006870Y009410D01*
X006593Y009133D01*
X006538Y009188D01*
X006815Y009465D01*
G37*
G36*
X006955Y009326D02*
X007010Y009271D01*
X006733Y008994D01*
X006678Y009049D01*
X006955Y009326D01*
G37*
G36*
X007094Y009187D02*
X007149Y009132D01*
X006872Y008855D01*
X006817Y008910D01*
X007094Y009187D01*
G37*
G36*
X007233Y009047D02*
X007288Y008992D01*
X007011Y008715D01*
X006956Y008770D01*
X007233Y009047D01*
G37*
G36*
X007372Y008908D02*
X007427Y008853D01*
X007150Y008576D01*
X007095Y008631D01*
X007372Y008908D01*
G37*
G36*
X004867Y006403D02*
X004922Y006348D01*
X004645Y006071D01*
X004590Y006126D01*
X004867Y006403D01*
G37*
G36*
X004727Y006542D02*
X004782Y006487D01*
X004505Y006210D01*
X004450Y006265D01*
X004727Y006542D01*
G37*
G36*
X004588Y006681D02*
X004643Y006626D01*
X004366Y006349D01*
X004311Y006404D01*
X004588Y006681D01*
G37*
G36*
X004449Y006820D02*
X004504Y006765D01*
X004227Y006488D01*
X004172Y006543D01*
X004449Y006820D01*
G37*
G36*
X004310Y006959D02*
X004365Y006904D01*
X004088Y006627D01*
X004033Y006682D01*
X004310Y006959D01*
G37*
G36*
X004171Y007099D02*
X004226Y007044D01*
X003949Y006767D01*
X003894Y006822D01*
X004171Y007099D01*
G37*
G36*
X004031Y007238D02*
X004086Y007183D01*
X003809Y006906D01*
X003754Y006961D01*
X004031Y007238D01*
G37*
G36*
X003892Y007377D02*
X003947Y007322D01*
X003670Y007045D01*
X003615Y007100D01*
X003892Y007377D01*
G37*
G36*
X003753Y007516D02*
X003808Y007461D01*
X003531Y007184D01*
X003476Y007239D01*
X003753Y007516D01*
G37*
G36*
X003614Y007655D02*
X003669Y007600D01*
X003392Y007323D01*
X003337Y007378D01*
X003614Y007655D01*
G37*
G36*
X003475Y007795D02*
X003530Y007740D01*
X003253Y007463D01*
X003198Y007518D01*
X003475Y007795D01*
G37*
G36*
X003335Y007934D02*
X003390Y007879D01*
X003113Y007602D01*
X003058Y007657D01*
X003335Y007934D01*
G37*
D14*
G36*
X003113Y008908D02*
X003390Y008631D01*
X003335Y008576D01*
X003058Y008853D01*
X003113Y008908D01*
G37*
G36*
X003253Y009047D02*
X003530Y008770D01*
X003475Y008715D01*
X003198Y008992D01*
X003253Y009047D01*
G37*
G36*
X003392Y009187D02*
X003669Y008910D01*
X003614Y008855D01*
X003337Y009132D01*
X003392Y009187D01*
G37*
G36*
X003531Y009326D02*
X003808Y009049D01*
X003753Y008994D01*
X003476Y009271D01*
X003531Y009326D01*
G37*
G36*
X003670Y009465D02*
X003947Y009188D01*
X003892Y009133D01*
X003615Y009410D01*
X003670Y009465D01*
G37*
G36*
X003809Y009604D02*
X004086Y009327D01*
X004031Y009272D01*
X003754Y009549D01*
X003809Y009604D01*
G37*
G36*
X003949Y009743D02*
X004226Y009466D01*
X004171Y009411D01*
X003894Y009688D01*
X003949Y009743D01*
G37*
G36*
X004088Y009883D02*
X004365Y009606D01*
X004310Y009551D01*
X004033Y009828D01*
X004088Y009883D01*
G37*
G36*
X004227Y010022D02*
X004504Y009745D01*
X004449Y009690D01*
X004172Y009967D01*
X004227Y010022D01*
G37*
G36*
X004366Y010161D02*
X004643Y009884D01*
X004588Y009829D01*
X004311Y010106D01*
X004366Y010161D01*
G37*
G36*
X004505Y010300D02*
X004782Y010023D01*
X004727Y009968D01*
X004450Y010245D01*
X004505Y010300D01*
G37*
G36*
X004645Y010439D02*
X004922Y010162D01*
X004867Y010107D01*
X004590Y010384D01*
X004645Y010439D01*
G37*
G36*
X006593Y007377D02*
X006870Y007100D01*
X006815Y007045D01*
X006538Y007322D01*
X006593Y007377D01*
G37*
G36*
X006454Y007238D02*
X006731Y006961D01*
X006676Y006906D01*
X006399Y007183D01*
X006454Y007238D01*
G37*
G36*
X006315Y007099D02*
X006592Y006822D01*
X006537Y006767D01*
X006260Y007044D01*
X006315Y007099D01*
G37*
G36*
X006176Y006959D02*
X006453Y006682D01*
X006398Y006627D01*
X006121Y006904D01*
X006176Y006959D01*
G37*
G36*
X006037Y006820D02*
X006314Y006543D01*
X006259Y006488D01*
X005982Y006765D01*
X006037Y006820D01*
G37*
G36*
X005897Y006681D02*
X006174Y006404D01*
X006119Y006349D01*
X005842Y006626D01*
X005897Y006681D01*
G37*
G36*
X005758Y006542D02*
X006035Y006265D01*
X005980Y006210D01*
X005703Y006487D01*
X005758Y006542D01*
G37*
G36*
X005619Y006403D02*
X005896Y006126D01*
X005841Y006071D01*
X005564Y006348D01*
X005619Y006403D01*
G37*
G36*
X006733Y007516D02*
X007010Y007239D01*
X006955Y007184D01*
X006678Y007461D01*
X006733Y007516D01*
G37*
G36*
X006872Y007655D02*
X007149Y007378D01*
X007094Y007323D01*
X006817Y007600D01*
X006872Y007655D01*
G37*
G36*
X007011Y007795D02*
X007288Y007518D01*
X007233Y007463D01*
X006956Y007740D01*
X007011Y007795D01*
G37*
G36*
X007150Y007934D02*
X007427Y007657D01*
X007372Y007602D01*
X007095Y007879D01*
X007150Y007934D01*
G37*
D15*
X005577Y005705D03*
X004908Y005705D03*
X005643Y004590D03*
X005643Y003920D03*
X005577Y010735D03*
X004908Y010735D03*
X003427Y011805D03*
X002758Y011805D03*
X006858Y012425D03*
X007308Y012955D03*
X007527Y012425D03*
X007977Y012955D03*
D16*
X007793Y005545D03*
X007293Y005545D03*
X006793Y005545D03*
X006293Y005545D03*
X006293Y002665D03*
X006793Y002665D03*
X007293Y002665D03*
X007793Y002665D03*
D17*
X003349Y012490D03*
X003093Y012490D03*
X002837Y012490D03*
X002837Y013124D03*
X003093Y013124D03*
X003349Y013124D03*
D18*
X004793Y004947D03*
X004793Y003963D03*
D19*
X005243Y011435D03*
X006153Y011435D03*
X004333Y011435D03*
D20*
X005243Y013875D03*
D21*
X006991Y010780D03*
X006991Y010190D03*
X007995Y010190D03*
X007995Y010780D03*
D22*
X007650Y010780D03*
X007335Y010780D03*
X007335Y010190D03*
X007650Y010190D03*
D23*
X007142Y013755D03*
X008244Y013755D03*
D24*
X008743Y012755D03*
X008743Y011755D03*
X008743Y010755D03*
X008743Y009755D03*
X008743Y008755D03*
X008743Y007755D03*
X008743Y006755D03*
X008743Y005755D03*
X008743Y004755D03*
X008743Y003755D03*
X008743Y002755D03*
X008743Y001755D03*
X001743Y001755D03*
X001743Y002755D03*
X001743Y003755D03*
X001743Y004755D03*
X001743Y005755D03*
X001743Y006755D03*
X001743Y007755D03*
X001743Y008755D03*
X001743Y009755D03*
X001743Y010755D03*
X001743Y011755D03*
X001743Y012755D03*
D25*
X006881Y011952D03*
X006881Y011558D03*
X007413Y011558D03*
X007413Y011755D03*
X007413Y011952D03*
D26*
X007960Y011952D01*
X007963Y011955D01*
X007783Y012115D02*
X007883Y012215D01*
X008403Y012215D01*
X008743Y012555D01*
X008743Y012755D01*
X008243Y011475D02*
X007983Y011475D01*
X007863Y011355D01*
X007616Y011355D01*
X007413Y011558D01*
X007413Y011755D02*
X007683Y011755D01*
X007803Y011635D01*
X008093Y011235D02*
X007995Y011137D01*
X007995Y010780D01*
X007650Y010780D02*
X007643Y010788D01*
X007643Y010995D01*
X007293Y011345D01*
X007153Y011345D01*
X007243Y011095D02*
X006943Y011095D01*
X006773Y011265D01*
X006783Y011255D01*
X006881Y011558D02*
X006606Y011558D01*
X006523Y011475D01*
X006523Y011035D01*
X006323Y010835D01*
X006323Y010515D01*
X006183Y010375D01*
X006183Y010169D01*
X006008Y009995D01*
X005793Y009779D01*
X005793Y009435D01*
X006083Y009145D01*
X006083Y008655D01*
X006353Y008555D02*
X006353Y009145D01*
X005963Y009535D01*
X005963Y009671D01*
X006148Y009856D01*
X006287Y009719D02*
X006603Y010035D01*
X006836Y010035D01*
X006991Y010190D01*
X007203Y009855D02*
X007335Y009988D01*
X007335Y010190D01*
X007283Y010137D01*
X007203Y009855D02*
X006703Y009855D01*
X006694Y009846D01*
X006694Y009845D01*
X006426Y009577D01*
X006565Y009438D02*
X006822Y009695D01*
X007303Y009695D01*
X007650Y010042D01*
X007650Y010190D01*
X007995Y010190D02*
X008168Y010190D01*
X008273Y010085D01*
X008273Y009105D01*
X008283Y009095D01*
X008403Y009095D01*
X008743Y008755D01*
X008223Y008875D02*
X008223Y008275D01*
X008243Y008255D01*
X008243Y008005D01*
X008158Y007920D01*
X007793Y007920D01*
X007261Y007768D02*
X007774Y007255D01*
X008243Y007255D01*
X008743Y007755D01*
X008743Y006755D02*
X007996Y006755D01*
X007122Y007629D01*
X006983Y007489D02*
X008717Y005755D01*
X008743Y005755D01*
X008243Y005555D02*
X008743Y005055D01*
X008743Y004755D01*
X008243Y004555D02*
X008743Y004055D01*
X008743Y003755D01*
X008743Y003015D02*
X008743Y002755D01*
X008743Y003015D02*
X007543Y004215D01*
X007543Y006094D01*
X006565Y007072D01*
X006426Y006933D02*
X006593Y006766D01*
X006593Y006055D01*
X006543Y006005D01*
X006543Y004905D01*
X006793Y004655D01*
X006793Y004405D01*
X008243Y002955D01*
X008243Y002525D01*
X008743Y002025D01*
X008743Y001755D01*
X008243Y004555D02*
X008243Y005255D01*
X008043Y005455D01*
X008043Y005873D01*
X006704Y007211D01*
X006844Y007350D02*
X008239Y005955D01*
X008243Y005955D01*
X008243Y005555D01*
X006203Y007475D02*
X006793Y008065D01*
X006793Y008355D01*
X006793Y008195D01*
X007093Y008155D02*
X007093Y008574D01*
X007261Y008742D01*
X007640Y008742D01*
X007793Y008590D01*
X007703Y008935D02*
X007583Y009055D01*
X007296Y009055D01*
X007122Y008881D01*
X007122Y008884D01*
X006983Y009021D02*
X007177Y009215D01*
X007663Y009215D01*
X007783Y009095D01*
X008283Y009095D01*
X008163Y008935D02*
X007703Y008935D01*
X007843Y009375D02*
X008013Y009545D01*
X008013Y009805D01*
X007843Y009375D02*
X007059Y009375D01*
X006844Y009160D01*
X006704Y009299D02*
X006940Y009535D01*
X007513Y009535D01*
X007673Y009695D01*
X008163Y008935D02*
X008223Y008875D01*
X008743Y009755D02*
X008743Y009955D01*
X008263Y010435D01*
X008263Y011015D01*
X008363Y011115D01*
X008363Y011355D01*
X008243Y011475D01*
X007783Y012115D02*
X007123Y012115D01*
X006960Y011952D01*
X006881Y011952D01*
X007243Y011095D02*
X007343Y010995D01*
X007343Y010788D01*
X007335Y010780D01*
X006991Y010780D02*
X006628Y010780D01*
X006593Y010745D01*
X005869Y010134D02*
X005623Y009888D01*
X005623Y009365D01*
X005823Y009165D01*
X005823Y008225D01*
X005703Y008105D01*
X005373Y008105D01*
X005283Y008195D01*
X004533Y008195D01*
X004273Y008455D01*
X004753Y008465D02*
X004823Y008535D01*
X004823Y009655D01*
X004683Y009795D01*
X004677Y009795D01*
X004477Y009995D01*
X004616Y010134D02*
X003916Y010835D01*
X003903Y010835D01*
X003973Y010515D02*
X003487Y010515D01*
X003427Y010455D01*
X003427Y011105D01*
X003973Y010515D02*
X004103Y010385D01*
X004103Y010091D01*
X004338Y009856D01*
X004199Y009717D02*
X003841Y010074D01*
X003841Y010253D01*
X003712Y009925D02*
X002943Y009925D01*
X001773Y008755D01*
X001743Y008755D01*
X002243Y008955D02*
X002243Y008525D01*
X001743Y008025D01*
X001743Y007755D01*
X002243Y007525D02*
X001743Y007025D01*
X001743Y006755D01*
X002243Y006255D02*
X001743Y005755D01*
X002233Y005515D02*
X001743Y005025D01*
X001743Y004755D01*
X002393Y004675D02*
X001743Y004025D01*
X001743Y003755D01*
X002233Y003515D02*
X001743Y003025D01*
X001743Y002755D01*
X002233Y002515D02*
X001743Y002025D01*
X001743Y001755D01*
X002233Y002515D02*
X002233Y003075D01*
X002513Y003355D01*
X002513Y004145D01*
X002713Y004345D01*
X002713Y005805D01*
X002883Y005975D01*
X002883Y007055D01*
X003093Y007265D01*
X003278Y007265D01*
X003503Y007489D01*
X003642Y007350D02*
X003967Y007675D01*
X006103Y007675D01*
X006443Y008015D01*
X006443Y008235D01*
X006433Y008245D01*
X006353Y008555D02*
X005743Y007945D01*
X005143Y007945D01*
X005083Y007435D02*
X004005Y007435D01*
X003781Y007211D01*
X003563Y006993D01*
X003563Y006465D01*
X003243Y006145D01*
X003243Y006120D01*
X003503Y005715D02*
X003723Y005935D01*
X003723Y006596D01*
X004060Y006933D01*
X004199Y006793D02*
X003893Y006487D01*
X003893Y005386D01*
X003946Y005333D01*
X003946Y004818D01*
X003503Y004375D01*
X003503Y003545D01*
X003693Y003355D01*
X003693Y003090D01*
X004293Y003140D02*
X004343Y003090D01*
X004293Y003140D02*
X004293Y003963D01*
X004793Y003963D01*
X005303Y003715D02*
X004993Y003405D01*
X004993Y003090D01*
X005303Y003715D02*
X005303Y004865D01*
X005221Y004947D01*
X004793Y004947D01*
X004695Y005045D01*
X004563Y005045D01*
X004523Y005085D01*
X004523Y005815D01*
X004223Y006115D01*
X004223Y006261D01*
X004477Y006515D01*
X004338Y006654D02*
X004053Y006369D01*
X004053Y006045D01*
X004293Y005805D01*
X004293Y003963D01*
X003503Y004825D02*
X003503Y005715D01*
X003503Y004825D02*
X003040Y004362D01*
X003040Y003877D01*
X003040Y003092D01*
X003043Y003090D01*
X003040Y003877D02*
X003043Y003879D01*
X002553Y004445D02*
X002553Y005875D01*
X002723Y006045D01*
X002723Y007125D01*
X003023Y007425D01*
X003160Y007425D01*
X003364Y007629D01*
X003224Y007768D02*
X003412Y007955D01*
X003643Y007955D01*
X003663Y007935D01*
X003523Y008135D02*
X003333Y008135D01*
X002723Y007525D01*
X002723Y007345D01*
X002563Y007185D01*
X002563Y006115D01*
X002393Y005945D01*
X002393Y004675D01*
X002553Y004445D02*
X002233Y004125D01*
X002233Y003515D01*
X002233Y005515D02*
X002233Y006015D01*
X002403Y006185D01*
X002403Y007245D01*
X002563Y007405D01*
X002563Y007615D01*
X002943Y007995D01*
X002943Y008905D01*
X003193Y009155D01*
X003368Y009155D01*
X003503Y009021D01*
X003638Y009160D02*
X003642Y009160D01*
X003447Y009355D01*
X003143Y009355D01*
X002773Y008985D01*
X002773Y008075D01*
X002403Y007705D01*
X002403Y007465D01*
X002243Y007305D01*
X002243Y006255D01*
X002243Y007525D02*
X002243Y008295D01*
X002403Y008455D01*
X002403Y008865D01*
X003093Y009555D01*
X003525Y009555D01*
X003781Y009299D01*
X003920Y009438D02*
X003614Y009745D01*
X003033Y009745D01*
X002243Y008955D01*
X003224Y008742D02*
X003492Y008475D01*
X003492Y008445D01*
X003543Y008705D02*
X003366Y008881D01*
X003364Y008881D01*
X003543Y008705D02*
X003633Y008705D01*
X003743Y008595D01*
X003743Y008355D01*
X003523Y008135D01*
X003642Y007350D02*
X003373Y007081D01*
X003373Y006920D01*
X003243Y006790D01*
X003920Y007072D02*
X004104Y007255D01*
X004193Y007255D01*
X004253Y007195D01*
X005263Y007195D01*
X005543Y007475D01*
X006203Y007475D01*
X006005Y007075D02*
X005943Y007075D01*
X006005Y007075D02*
X006287Y006793D01*
X006148Y006654D02*
X006017Y006785D01*
X005613Y006785D01*
X005443Y006955D01*
X005423Y006545D02*
X005243Y006545D01*
X005243Y006040D01*
X004908Y005705D01*
X004756Y006237D02*
X005064Y006545D01*
X005043Y006566D01*
X005043Y006955D01*
X005064Y006545D02*
X005243Y006545D01*
X005423Y006545D02*
X005730Y006238D01*
X005730Y006237D01*
X005869Y006376D02*
X006063Y006182D01*
X006063Y005705D01*
X005577Y005705D01*
X005973Y005415D02*
X006063Y005505D01*
X006063Y005705D01*
X006293Y005545D02*
X006293Y006231D01*
X006008Y006515D01*
X005563Y008345D02*
X005563Y009185D01*
X005453Y009295D01*
X005453Y009996D01*
X005730Y010273D01*
X006287Y009719D02*
X006287Y009717D01*
X004908Y010426D02*
X004908Y010735D01*
X004908Y010426D02*
X004756Y010273D01*
X004060Y009577D02*
X003712Y009925D01*
D27*
X001743Y001155D03*
X002143Y000755D03*
X002693Y000505D03*
X002693Y001205D03*
X003043Y001605D03*
X002543Y002865D03*
X004293Y001605D03*
X005343Y001605D03*
X006443Y001605D03*
X007793Y001605D03*
X006923Y003905D03*
X007083Y004585D03*
X007063Y005075D03*
X006993Y006025D03*
X005973Y005415D03*
X005063Y004475D03*
X006083Y003865D03*
X006433Y003975D03*
X008073Y004115D03*
X005943Y007075D03*
X005443Y006955D03*
X005043Y006955D03*
X005083Y007435D03*
X005143Y007945D03*
X005233Y008455D03*
X005563Y008345D03*
X006083Y008655D03*
X006433Y008245D03*
X006663Y008675D03*
X006793Y008355D03*
X007093Y008155D03*
X007673Y009695D03*
X008013Y009805D03*
X008093Y011235D03*
X007803Y011635D03*
X007963Y011955D03*
X007953Y012475D03*
X007673Y013395D03*
X006853Y012865D03*
X006443Y013055D03*
X007153Y011345D03*
X006773Y011265D03*
X006593Y010745D03*
X006443Y010245D03*
X006073Y010635D03*
X004753Y008465D03*
X004273Y008455D03*
X003663Y007935D03*
X003492Y008445D03*
X002713Y010035D03*
X002443Y009825D03*
X002343Y010315D03*
X002343Y010785D03*
X002343Y012505D03*
X002343Y012895D03*
X001603Y013375D03*
X003693Y013305D03*
X003893Y012635D03*
X003903Y010835D03*
X004273Y010855D03*
X004473Y010655D03*
X003841Y010253D03*
X002493Y008175D03*
X008243Y008255D03*
D28*
X006993Y006025D02*
X006793Y005825D01*
X006793Y005545D01*
X006293Y005545D02*
X006293Y004785D01*
X006097Y004590D01*
X005643Y004590D01*
X006433Y003975D02*
X007293Y003115D01*
X007293Y002665D01*
X007793Y002665D02*
X007793Y003035D01*
X006923Y003905D01*
X006093Y008655D02*
X006083Y008655D01*
X003903Y010835D02*
X003903Y011305D01*
X003743Y011465D01*
X003098Y011465D01*
X002758Y011805D01*
X003023Y012145D02*
X002483Y012145D01*
X002393Y012055D01*
X002393Y011205D01*
X002493Y011105D01*
X002758Y011105D01*
X002343Y010315D02*
X001903Y010755D01*
X001743Y010755D01*
X001743Y009755D02*
X002373Y009755D01*
X002443Y009825D01*
X003023Y012145D02*
X003093Y012215D01*
X003093Y012490D01*
X002837Y012490D02*
X002358Y012490D01*
X002352Y012491D01*
X002347Y012494D01*
X002344Y012499D01*
X002343Y012505D01*
X002343Y012895D02*
X002543Y013095D01*
X002808Y013095D01*
X002837Y013124D01*
X003093Y013124D02*
X003093Y013455D01*
X002858Y013690D01*
X002858Y013805D01*
X003093Y013124D02*
X003349Y013124D01*
X003349Y012490D02*
X003748Y012490D01*
X003893Y012635D01*
X005243Y013875D02*
X005243Y013905D01*
D29*
X002758Y010455D02*
X002673Y010455D01*
X002343Y010785D01*
X005643Y003920D02*
X005698Y003865D01*
X006083Y003865D01*
X006293Y003655D01*
X006293Y002665D01*
X006793Y002665D01*
X008073Y004115D02*
X007793Y004395D01*
X007793Y005545D01*
X007293Y005545D02*
X007293Y005305D01*
X007063Y005075D01*
X005643Y003920D02*
X005643Y003090D01*
D30*
X005243Y011435D02*
X005243Y013875D01*
X006335Y013755D02*
X004143Y013755D01*
X006335Y013755D02*
X007142Y013755D01*
D31*
X006853Y012865D02*
X006858Y012860D01*
X006858Y012425D01*
X006353Y012425D01*
X006153Y012225D01*
X006153Y011435D01*
X004908Y010735D02*
X004423Y010735D01*
X004423Y011455D01*
X004273Y011605D01*
X004273Y010855D01*
X004473Y010655D01*
X004273Y010855D02*
X004333Y010915D01*
X004333Y011435D01*
X004333Y011515D01*
X004043Y011805D01*
X003427Y011805D01*
X005243Y013875D02*
X005243Y013955D01*
X007977Y012955D02*
X008543Y012955D01*
X008743Y012755D01*
X008224Y013735D02*
X008244Y013755D01*
D32*
X008224Y013735D02*
X008013Y013735D01*
X007673Y013395D01*
X007308Y013030D01*
X007308Y012955D01*
X007577Y012475D02*
X007527Y012425D01*
X007577Y012475D02*
X007953Y012475D01*
X003693Y013305D02*
X003693Y013505D01*
X003527Y013670D01*
X003527Y013805D01*
X002543Y002865D02*
X002543Y002575D01*
X002697Y002420D01*
X003043Y002420D01*
X003693Y002420D01*
X004343Y002420D01*
X004993Y002420D01*
X005643Y002420D01*
D33*
X005813Y011055D02*
X004673Y011055D01*
X004673Y011847D01*
X004620Y011900D01*
X004301Y011900D01*
X004255Y011947D01*
X004184Y012017D01*
X004093Y012055D01*
X003718Y012055D01*
X003681Y012092D01*
X003243Y012092D01*
X003243Y012849D01*
X003252Y012839D01*
X003445Y012839D01*
X003498Y012892D01*
X003498Y013061D01*
X003499Y013062D01*
X003499Y013175D01*
X003598Y013076D01*
X003788Y013076D01*
X003922Y013210D01*
X003922Y013400D01*
X003903Y013419D01*
X003903Y013592D01*
X003814Y013680D01*
X003814Y014059D01*
X003762Y014112D01*
X003293Y014112D01*
X003243Y014061D01*
X003243Y014061D01*
X003243Y014145D01*
X007243Y014145D01*
X007243Y013262D01*
X007223Y013242D01*
X006580Y013242D01*
X006538Y013284D02*
X006348Y013284D01*
X006215Y013151D01*
X006191Y013171D01*
X006190Y013174D01*
X006181Y013179D01*
X006174Y013185D01*
X006171Y013185D01*
X006140Y013201D01*
X006138Y013204D01*
X006129Y013207D01*
X006121Y013211D01*
X006118Y013210D01*
X006085Y013221D01*
X006083Y013223D01*
X006073Y013224D01*
X006064Y013227D01*
X006061Y013225D01*
X006028Y013229D01*
X006027Y013230D01*
X006021Y013230D01*
X006020Y013231D01*
X006013Y013230D01*
X006005Y013231D01*
X006004Y013230D01*
X005998Y013230D01*
X005997Y013229D01*
X005964Y013225D01*
X005961Y013227D01*
X005952Y013224D01*
X005942Y013223D01*
X005940Y013221D01*
X005907Y013211D01*
X005903Y013212D01*
X005895Y013207D01*
X005886Y013204D01*
X005884Y013201D01*
X005853Y013185D01*
X005850Y013185D01*
X005843Y013179D01*
X005834Y013175D01*
X005834Y013172D01*
X005806Y013149D01*
X005803Y013149D01*
X005797Y013142D01*
X005790Y013136D01*
X005789Y013132D01*
X005767Y013105D01*
X005764Y013104D01*
X005760Y013096D01*
X005754Y013089D01*
X005754Y013085D01*
X005737Y013054D01*
X005734Y013053D01*
X005732Y013044D01*
X005727Y013035D01*
X005728Y013032D01*
X005718Y012999D01*
X005715Y012997D01*
X005715Y012987D01*
X005712Y012978D01*
X005713Y012975D01*
X005710Y012940D01*
X005708Y012938D01*
X005709Y012928D01*
X005708Y012919D01*
X005710Y012916D01*
X005713Y012881D01*
X005711Y012878D01*
X005714Y012869D01*
X005715Y012860D01*
X005717Y012858D01*
X005727Y012824D01*
X005726Y012821D01*
X005731Y012812D01*
X005733Y012803D01*
X005736Y012802D01*
X005753Y012770D01*
X005752Y012767D01*
X005758Y012760D01*
X005763Y012751D01*
X005766Y012750D01*
X005788Y012723D01*
X005789Y012720D01*
X005796Y012714D01*
X005802Y012706D01*
X005805Y012706D01*
X005833Y012684D01*
X005834Y012680D01*
X005842Y012676D01*
X005849Y012670D01*
X005853Y012670D01*
X005884Y012654D01*
X005886Y012651D01*
X005895Y012648D01*
X005903Y012644D01*
X005906Y012645D01*
X005940Y012635D01*
X005942Y012632D01*
X005952Y012632D01*
X005961Y012629D01*
X005964Y012630D01*
X005999Y012627D01*
X006001Y012625D01*
X006011Y012626D01*
X006020Y012626D01*
X006023Y012628D01*
X006057Y012632D01*
X006060Y012630D01*
X006069Y012633D01*
X006079Y012634D01*
X006081Y012637D01*
X006114Y012647D01*
X006117Y012646D01*
X006126Y012651D01*
X006135Y012653D01*
X006136Y012656D01*
X006167Y012673D01*
X006170Y012673D01*
X006177Y012679D01*
X006186Y012683D01*
X006187Y012686D01*
X006213Y012708D01*
X006217Y012709D01*
X006223Y012716D01*
X006230Y012722D01*
X006230Y012725D01*
X006253Y012752D01*
X006256Y012753D01*
X006260Y012761D01*
X006266Y012769D01*
X006266Y012772D01*
X006282Y012803D01*
X006285Y012804D01*
X006288Y012813D01*
X006293Y012822D01*
X006292Y012825D01*
X006302Y012858D01*
X006305Y012860D01*
X006306Y012868D01*
X006348Y012826D01*
X006538Y012826D01*
X006603Y012891D01*
X006603Y012891D01*
X006603Y012815D01*
X006608Y012802D01*
X006608Y012712D01*
X006604Y012712D01*
X006567Y012675D01*
X006303Y012675D01*
X006211Y012637D01*
X006141Y012567D01*
X005941Y012367D01*
X005903Y012275D01*
X005903Y012175D01*
X005903Y011900D01*
X005866Y011900D01*
X005813Y011847D01*
X005813Y011055D01*
X005813Y011078D02*
X004673Y011078D01*
X004673Y011136D02*
X005813Y011136D01*
X005813Y011195D02*
X004673Y011195D01*
X004673Y011253D02*
X005813Y011253D01*
X005813Y011312D02*
X004673Y011312D01*
X004673Y011370D02*
X005813Y011370D01*
X005813Y011429D02*
X004673Y011429D01*
X004673Y011487D02*
X005813Y011487D01*
X005813Y011546D02*
X004673Y011546D01*
X004673Y011604D02*
X005813Y011604D01*
X005813Y011663D02*
X004673Y011663D01*
X004673Y011721D02*
X005813Y011721D01*
X005813Y011780D02*
X004673Y011780D01*
X004673Y011838D02*
X005813Y011838D01*
X005862Y011897D02*
X004624Y011897D01*
X004246Y011955D02*
X005903Y011955D01*
X005903Y012014D02*
X004188Y012014D01*
X003939Y011555D02*
X003993Y011501D01*
X003993Y011055D01*
X003714Y011055D01*
X003714Y011359D01*
X003662Y011412D01*
X003243Y011412D01*
X003243Y011518D01*
X003681Y011518D01*
X003718Y011555D01*
X003939Y011555D01*
X003949Y011546D02*
X003709Y011546D01*
X003703Y011370D02*
X003993Y011370D01*
X003993Y011312D02*
X003714Y011312D01*
X003714Y011253D02*
X003993Y011253D01*
X003993Y011195D02*
X003714Y011195D01*
X003714Y011136D02*
X003993Y011136D01*
X003993Y011078D02*
X003714Y011078D01*
X003993Y011429D02*
X003243Y011429D01*
X003243Y011487D02*
X003993Y011487D01*
X003701Y012072D02*
X005903Y012072D01*
X005903Y012131D02*
X003243Y012131D01*
X003243Y012189D02*
X005903Y012189D01*
X005903Y012248D02*
X003243Y012248D01*
X003243Y012306D02*
X005916Y012306D01*
X005940Y012365D02*
X003243Y012365D01*
X003243Y012423D02*
X005997Y012423D01*
X006056Y012482D02*
X003243Y012482D01*
X003243Y012540D02*
X006114Y012540D01*
X006173Y012599D02*
X003243Y012599D01*
X003243Y012657D02*
X004342Y012657D01*
X004349Y012654D02*
X004350Y012651D01*
X004359Y012648D01*
X004368Y012644D01*
X004371Y012645D01*
X004405Y012635D01*
X004407Y012632D01*
X004416Y012632D01*
X004425Y012629D01*
X004428Y012630D01*
X004463Y012627D01*
X004466Y012625D01*
X004475Y012626D01*
X004485Y012626D01*
X004487Y012628D01*
X004522Y012632D01*
X004525Y012630D01*
X004534Y012633D01*
X004543Y012634D01*
X004546Y012637D01*
X004579Y012647D01*
X004582Y012646D01*
X004590Y012651D01*
X004599Y012653D01*
X004601Y012656D01*
X004631Y012673D01*
X004635Y012673D01*
X004642Y012679D01*
X004650Y012683D01*
X004651Y012686D01*
X004678Y012708D01*
X004681Y012709D01*
X004687Y012716D01*
X004695Y012722D01*
X004695Y012725D01*
X004717Y012752D01*
X004720Y012753D01*
X004725Y012761D01*
X004731Y012769D01*
X004730Y012772D01*
X004747Y012803D01*
X004750Y012804D01*
X004753Y012813D01*
X004757Y012822D01*
X004756Y012825D01*
X004767Y012858D01*
X004769Y012860D01*
X004770Y012869D01*
X004773Y012878D01*
X004772Y012881D01*
X004776Y012916D01*
X004778Y012918D01*
X004777Y012928D01*
X004778Y012937D01*
X004776Y012940D01*
X004773Y012975D01*
X004775Y012977D01*
X004772Y012987D01*
X004771Y012996D01*
X004769Y012998D01*
X004759Y013032D01*
X004760Y013035D01*
X004755Y013043D01*
X004753Y013052D01*
X004750Y013054D01*
X004734Y013085D01*
X004734Y013088D01*
X004728Y013095D01*
X004724Y013104D01*
X004721Y013105D01*
X004699Y013132D01*
X004698Y013135D01*
X004691Y013141D01*
X004685Y013149D01*
X004682Y013149D01*
X004655Y013171D01*
X004654Y013174D01*
X004646Y013179D01*
X004639Y013185D01*
X004635Y013185D01*
X004605Y013201D01*
X004603Y013204D01*
X004594Y013207D01*
X004586Y013211D01*
X004583Y013210D01*
X004549Y013221D01*
X004547Y013223D01*
X004538Y013224D01*
X004529Y013227D01*
X004526Y013225D01*
X004493Y013229D01*
X004491Y013230D01*
X004486Y013230D01*
X004485Y013231D01*
X004477Y013230D01*
X004470Y013231D01*
X004468Y013230D01*
X004463Y013230D01*
X004461Y013229D01*
X004428Y013225D01*
X004425Y013227D01*
X004416Y013224D01*
X004407Y013223D01*
X004405Y013221D01*
X004371Y013211D01*
X004368Y013212D01*
X004360Y013207D01*
X004351Y013204D01*
X004349Y013201D01*
X004318Y013185D01*
X004315Y013185D01*
X004307Y013179D01*
X004299Y013175D01*
X004298Y013172D01*
X004271Y013149D01*
X004268Y013149D01*
X004262Y013142D01*
X004254Y013136D01*
X004254Y013132D01*
X004232Y013105D01*
X004229Y013104D01*
X004224Y013096D01*
X004218Y013089D01*
X004218Y013085D01*
X004202Y013054D01*
X004199Y013053D01*
X004196Y013044D01*
X004192Y013035D01*
X004193Y013032D01*
X004183Y012999D01*
X004180Y012997D01*
X004179Y012987D01*
X004176Y012978D01*
X004178Y012975D01*
X004174Y012940D01*
X004172Y012938D01*
X004173Y012928D01*
X004172Y012919D01*
X004174Y012916D01*
X004177Y012881D01*
X004176Y012878D01*
X004178Y012869D01*
X004179Y012860D01*
X004182Y012858D01*
X004192Y012824D01*
X004191Y012821D01*
X004195Y012812D01*
X004198Y012803D01*
X004201Y012802D01*
X004217Y012770D01*
X004217Y012767D01*
X004223Y012760D01*
X004227Y012751D01*
X004230Y012750D01*
X004253Y012723D01*
X004253Y012720D01*
X004261Y012714D01*
X004266Y012706D01*
X004270Y012706D01*
X004297Y012684D01*
X004298Y012680D01*
X004307Y012676D01*
X004314Y012670D01*
X004317Y012670D01*
X004349Y012654D01*
X004258Y012716D02*
X003243Y012716D01*
X003243Y012774D02*
X004215Y012774D01*
X004189Y012833D02*
X003243Y012833D01*
X003497Y012891D02*
X004177Y012891D01*
X004175Y012950D02*
X003498Y012950D01*
X003498Y013008D02*
X004185Y013008D01*
X004208Y013067D02*
X003499Y013067D01*
X003499Y013125D02*
X003549Y013125D01*
X003837Y013125D02*
X004248Y013125D01*
X004313Y013184D02*
X003895Y013184D01*
X003922Y013242D02*
X006306Y013242D01*
X006247Y013184D02*
X006176Y013184D01*
X006294Y012833D02*
X006341Y012833D01*
X006267Y012774D02*
X006608Y012774D01*
X006608Y012716D02*
X006222Y012716D01*
X006260Y012657D02*
X006138Y012657D01*
X005878Y012657D02*
X004602Y012657D01*
X004687Y012716D02*
X005794Y012716D01*
X005751Y012774D02*
X004732Y012774D01*
X004759Y012833D02*
X005725Y012833D01*
X005712Y012891D02*
X004773Y012891D01*
X004775Y012950D02*
X005711Y012950D01*
X005721Y013008D02*
X004766Y013008D01*
X004743Y013067D02*
X005744Y013067D01*
X005784Y013125D02*
X004704Y013125D01*
X004640Y013184D02*
X005848Y013184D01*
X006538Y013284D02*
X006672Y013150D01*
X006672Y013038D01*
X006711Y013077D01*
X006803Y013115D01*
X006903Y013115D01*
X006994Y013077D01*
X007000Y013072D01*
X007002Y013070D01*
X007002Y013189D01*
X007054Y013242D01*
X007223Y013242D01*
X007243Y013301D02*
X003922Y013301D01*
X003922Y013359D02*
X007243Y013359D01*
X007243Y013418D02*
X003904Y013418D01*
X003903Y013476D02*
X007243Y013476D01*
X007243Y013535D02*
X003903Y013535D01*
X003902Y013593D02*
X007243Y013593D01*
X007243Y013652D02*
X003843Y013652D01*
X003814Y013710D02*
X007243Y013710D01*
X007243Y013769D02*
X003814Y013769D01*
X003814Y013827D02*
X007243Y013827D01*
X007243Y013886D02*
X003814Y013886D01*
X003814Y013944D02*
X007243Y013944D01*
X007243Y014003D02*
X003814Y014003D01*
X003812Y014061D02*
X007243Y014061D01*
X007243Y014120D02*
X003243Y014120D01*
X006544Y012833D02*
X006603Y012833D01*
X006672Y013067D02*
X006701Y013067D01*
X006672Y013125D02*
X007002Y013125D01*
X007002Y013184D02*
X006638Y013184D01*
D34*
X001603Y013375D02*
X001603Y013760D01*
X001558Y013805D01*
D35*
X002227Y013805D02*
X002858Y013805D01*
X005577Y010735D02*
X005973Y010735D01*
X006073Y010635D01*
D36*
X008253Y013746D02*
X008244Y013755D01*
M02*
