G75*
G70*
%OFA0B0*%
%FSLAX24Y24*%
%IPPOS*%
%LPD*%
%AMOC8*
5,1,8,0,0,1.08239X$1,22.5*
%
%ADD10C,0.0080*%
%ADD11C,0.0100*%
%ADD12C,0.0060*%
%ADD13C,0.0160*%
%ADD14C,0.0050*%
%ADD15C,0.0040*%
D10*
X001243Y001505D02*
X001493Y001255D01*
X001993Y001255D01*
X002243Y001505D01*
X002243Y002005D01*
X001993Y002255D01*
X002243Y002505D01*
X002243Y003005D01*
X001993Y003255D01*
X002243Y003505D01*
X002243Y004005D01*
X001993Y004255D01*
X002243Y004505D01*
X002243Y005005D01*
X001993Y005255D01*
X002243Y005505D01*
X002243Y006005D01*
X001993Y006255D01*
X002243Y006505D01*
X002243Y007005D01*
X001993Y007255D01*
X002243Y007505D01*
X002243Y008005D01*
X001993Y008255D01*
X002243Y008505D01*
X002243Y009005D01*
X001993Y009255D01*
X002243Y009505D01*
X002243Y010005D01*
X001993Y010255D01*
X002243Y010505D01*
X002243Y011005D01*
X001993Y011255D01*
X002243Y011505D01*
X002243Y012005D01*
X001993Y012255D01*
X002243Y012505D01*
X002243Y013005D01*
X001993Y013255D01*
X001493Y013255D01*
X001243Y013005D01*
X001243Y012505D01*
X001493Y012255D01*
X001243Y012005D01*
X001243Y011505D01*
X001493Y011255D01*
X001243Y011005D01*
X001243Y010505D01*
X001493Y010255D01*
X001243Y010005D01*
X001243Y009505D01*
X001493Y009255D01*
X001243Y009005D01*
X001243Y008505D01*
X001493Y008255D01*
X001243Y008005D01*
X001243Y007505D01*
X001493Y007255D01*
X001243Y007005D01*
X001243Y006505D01*
X001493Y006255D01*
X001243Y006005D01*
X001243Y005505D01*
X001493Y005255D01*
X001243Y005005D01*
X001243Y004505D01*
X001493Y004255D01*
X001243Y004005D01*
X001243Y003505D01*
X001493Y003255D01*
X001243Y003005D01*
X001243Y002505D01*
X001493Y002255D01*
X001243Y002005D01*
X001243Y001505D01*
X002903Y002715D02*
X002903Y002795D01*
X003183Y002795D02*
X003183Y002715D01*
X003553Y002715D02*
X003553Y002795D01*
X003833Y002795D02*
X003833Y002715D01*
X004203Y002715D02*
X004203Y002795D01*
X004483Y002795D02*
X004483Y002715D01*
X004853Y002715D02*
X004853Y002795D01*
X005133Y002795D02*
X005133Y002715D01*
X005503Y002715D02*
X005503Y002795D01*
X005783Y002795D02*
X005783Y002715D01*
X005785Y004195D02*
X005785Y004315D01*
X005501Y004315D02*
X005501Y004195D01*
X005088Y004258D02*
X005088Y004652D01*
X004498Y004652D02*
X004498Y004258D01*
X004123Y004369D02*
X004123Y004841D01*
X003611Y005589D02*
X003375Y005589D01*
X003383Y006415D02*
X003383Y006495D01*
X003103Y006495D02*
X003103Y006415D01*
X002863Y004841D02*
X002863Y004369D01*
X003375Y003621D02*
X003611Y003621D01*
X005203Y005565D02*
X005283Y005565D01*
X005283Y005845D02*
X005203Y005845D01*
X007653Y008215D02*
X007653Y008295D01*
X007933Y008295D02*
X007933Y008215D01*
X008243Y008005D02*
X008243Y007505D01*
X008493Y007255D01*
X008243Y007005D01*
X008243Y006505D01*
X008493Y006255D01*
X008243Y006005D01*
X008243Y005505D01*
X008493Y005255D01*
X008243Y005005D01*
X008243Y004505D01*
X008493Y004255D01*
X008243Y004005D01*
X008243Y003505D01*
X008493Y003255D01*
X008243Y003005D01*
X008243Y002505D01*
X008493Y002255D01*
X008243Y002005D01*
X008243Y001505D01*
X008493Y001255D01*
X008993Y001255D01*
X009243Y001505D01*
X009243Y002005D01*
X008993Y002255D01*
X009243Y002505D01*
X009243Y003005D01*
X008993Y003255D01*
X009243Y003505D01*
X009243Y004005D01*
X008993Y004255D01*
X009243Y004505D01*
X009243Y005005D01*
X008993Y005255D01*
X009243Y005505D01*
X009243Y006005D01*
X008993Y006255D01*
X009243Y006505D01*
X009243Y007005D01*
X008993Y007255D01*
X009243Y007505D01*
X009243Y008005D01*
X008993Y008255D01*
X009243Y008505D01*
X009243Y009005D01*
X008993Y009255D01*
X009243Y009505D01*
X009243Y010005D01*
X008993Y010255D01*
X009243Y010505D01*
X009243Y011005D01*
X008993Y011255D01*
X009243Y011505D01*
X009243Y012005D01*
X008993Y012255D01*
X009243Y012505D01*
X009243Y013005D01*
X008993Y013255D01*
X008493Y013255D01*
X008243Y013005D01*
X008243Y012505D01*
X008493Y012255D01*
X008243Y012005D01*
X008243Y011505D01*
X008493Y011255D01*
X008243Y011005D01*
X008243Y010505D01*
X008493Y010255D01*
X008243Y010005D01*
X008243Y009505D01*
X008493Y009255D01*
X008243Y009005D01*
X008243Y008505D01*
X008493Y008255D01*
X008243Y008005D01*
X006533Y012005D02*
X006533Y013305D01*
X003953Y013305D01*
X003953Y012005D01*
X006533Y012005D01*
X007153Y012285D02*
X007233Y012285D01*
X007233Y012565D02*
X007153Y012565D01*
X007299Y013283D02*
X006709Y013283D01*
X006709Y014227D01*
X007299Y014227D01*
X008087Y014227D02*
X008520Y014227D01*
X008677Y014070D01*
X008677Y013440D01*
X008520Y013283D01*
X008087Y013283D01*
X005283Y010875D02*
X005203Y010875D01*
X005203Y010595D02*
X005283Y010595D01*
X003667Y012529D02*
X003669Y012543D01*
X003675Y012557D01*
X003683Y012569D01*
X003695Y012577D01*
X003709Y012583D01*
X003723Y012585D01*
X003737Y012583D01*
X003751Y012577D01*
X003763Y012569D01*
X003771Y012557D01*
X003777Y012543D01*
X003779Y012529D01*
X003777Y012515D01*
X003771Y012501D01*
X003763Y012489D01*
X003751Y012481D01*
X003737Y012475D01*
X003723Y012473D01*
X003709Y012475D01*
X003695Y012481D01*
X003683Y012489D01*
X003675Y012501D01*
X003669Y012515D01*
X003667Y012529D01*
X003565Y012490D02*
X003565Y013120D01*
X003253Y013663D02*
X003133Y013663D01*
X003133Y013947D02*
X003253Y013947D01*
X002620Y013120D02*
X002620Y012490D01*
X003053Y011945D02*
X003133Y011945D01*
X003133Y011665D02*
X003053Y011665D01*
X003033Y011247D02*
X003153Y011247D01*
X003153Y010963D02*
X003033Y010963D01*
X003033Y010597D02*
X003153Y010597D01*
X003153Y010313D02*
X003033Y010313D01*
X001953Y013663D02*
X001833Y013663D01*
X001833Y013947D02*
X001953Y013947D01*
D11*
X005166Y010058D02*
X003440Y008332D01*
X003440Y008178D01*
X005166Y006452D01*
X005319Y006452D01*
X007045Y008178D01*
X007045Y008332D01*
X005319Y010058D01*
X005166Y010058D01*
X005007Y007141D02*
X005009Y007171D01*
X005015Y007201D01*
X005024Y007230D01*
X005037Y007257D01*
X005054Y007282D01*
X005073Y007305D01*
X005096Y007326D01*
X005121Y007343D01*
X005147Y007357D01*
X005176Y007367D01*
X005205Y007374D01*
X005235Y007377D01*
X005266Y007376D01*
X005296Y007371D01*
X005325Y007362D01*
X005352Y007350D01*
X005378Y007335D01*
X005402Y007316D01*
X005423Y007294D01*
X005441Y007270D01*
X005456Y007243D01*
X005467Y007215D01*
X005475Y007186D01*
X005479Y007156D01*
X005479Y007126D01*
X005475Y007096D01*
X005467Y007067D01*
X005456Y007039D01*
X005441Y007012D01*
X005423Y006988D01*
X005402Y006966D01*
X005378Y006947D01*
X005352Y006932D01*
X005325Y006920D01*
X005296Y006911D01*
X005266Y006906D01*
X005235Y006905D01*
X005205Y006908D01*
X005176Y006915D01*
X005147Y006925D01*
X005121Y006939D01*
X005096Y006956D01*
X005073Y006977D01*
X005054Y007000D01*
X005037Y007025D01*
X005024Y007052D01*
X005015Y007081D01*
X005009Y007111D01*
X005007Y007141D01*
D12*
X005983Y005165D02*
X006083Y005165D01*
X005983Y005165D02*
X005983Y004225D01*
X005983Y003985D01*
X005983Y003045D01*
X006083Y003045D01*
X006503Y003045D02*
X006583Y003045D01*
X007003Y003045D02*
X007083Y003045D01*
X007503Y003045D02*
X007583Y003045D01*
X008003Y003045D02*
X008103Y003045D01*
X008103Y005165D01*
X008003Y005165D01*
X007583Y005165D02*
X007503Y005165D01*
X007083Y005165D02*
X007003Y005165D01*
X006583Y005165D02*
X006503Y005165D01*
X005983Y004225D02*
X006004Y004223D01*
X006024Y004218D01*
X006043Y004209D01*
X006060Y004197D01*
X006075Y004182D01*
X006087Y004165D01*
X006096Y004146D01*
X006101Y004126D01*
X006103Y004105D01*
X006101Y004084D01*
X006096Y004064D01*
X006087Y004045D01*
X006075Y004028D01*
X006060Y004013D01*
X006043Y004001D01*
X006024Y003992D01*
X006004Y003987D01*
X005983Y003985D01*
D13*
X006243Y004855D02*
X006245Y004868D01*
X006250Y004881D01*
X006259Y004892D01*
X006270Y004899D01*
X006283Y004904D01*
X006296Y004905D01*
X006310Y004902D01*
X006322Y004896D01*
X006332Y004887D01*
X006339Y004875D01*
X006343Y004862D01*
X006343Y004848D01*
X006339Y004835D01*
X006332Y004823D01*
X006322Y004814D01*
X006310Y004808D01*
X006296Y004805D01*
X006283Y004806D01*
X006270Y004811D01*
X006259Y004818D01*
X006250Y004829D01*
X006245Y004842D01*
X006243Y004855D01*
D14*
X006881Y011420D02*
X007393Y011420D01*
X007393Y012090D02*
X006881Y012090D01*
X007843Y013355D02*
X007843Y014155D01*
X003723Y012529D02*
X003683Y012529D01*
X003683Y012490D01*
D15*
X006883Y010544D02*
X006883Y010426D01*
X008103Y010426D02*
X008103Y010544D01*
M02*
