G75*
G70*
%OFA0B0*%
%FSLAX24Y24*%
%IPPOS*%
%LPD*%
%AMOC8*
5,1,8,0,0,1.08239X$1,22.5*
%
%ADD10R,0.0433X0.0394*%
%ADD11R,0.0157X0.0531*%
%ADD12R,0.0591X0.0748*%
%ADD13C,0.0433*%
%ADD14R,0.0472X0.0472*%
%ADD15R,0.0472X0.0276*%
%ADD16R,0.0276X0.0472*%
%ADD17R,0.0945X0.0748*%
%ADD18R,0.0256X0.0492*%
%ADD19R,0.0394X0.0433*%
%ADD20R,0.0315X0.0315*%
%ADD21R,0.0433X0.0551*%
%ADD22R,0.0709X0.0413*%
%ADD23R,0.0413X0.0394*%
%ADD24R,0.0394X0.0591*%
%ADD25C,0.0690*%
%ADD26R,0.1050X0.0900*%
%ADD27R,0.0300X0.0500*%
%ADD28C,0.0278*%
%ADD29C,0.0080*%
%ADD30C,0.0060*%
%ADD31C,0.0240*%
%ADD32C,0.0200*%
%ADD33C,0.0160*%
%ADD34C,0.0320*%
%ADD35C,0.0120*%
%ADD36C,0.0100*%
%ADD37C,0.0250*%
D10*
X002958Y002255D03*
X003627Y002255D03*
X005808Y002255D03*
X006477Y002255D03*
X006558Y009805D03*
X007227Y009805D03*
X006293Y011520D03*
X006293Y012190D03*
X004193Y012190D03*
X004193Y011520D03*
X003927Y009805D03*
X003258Y009805D03*
D11*
X004731Y012702D03*
X004987Y012702D03*
X005243Y012702D03*
X005499Y012702D03*
X005755Y012702D03*
D12*
X005637Y013755D03*
X004849Y013751D03*
D13*
X004150Y013538D02*
X004150Y013972D01*
X006335Y013972D02*
X006335Y013538D01*
D14*
X007546Y009098D03*
X007546Y003389D03*
X002940Y003389D03*
X002940Y009098D03*
D15*
X002940Y008369D03*
X002940Y007897D03*
X002940Y007424D03*
X002940Y006952D03*
X002940Y006479D03*
X002940Y006007D03*
X002940Y005535D03*
X002940Y005062D03*
X002940Y004590D03*
X002940Y004117D03*
X007546Y004117D03*
X007546Y004590D03*
X007546Y005062D03*
X007546Y005535D03*
X007546Y006007D03*
X007546Y006479D03*
X007546Y006952D03*
X007546Y007424D03*
X007546Y007897D03*
X007546Y008369D03*
D16*
X006896Y009098D03*
X006424Y009098D03*
X005951Y009098D03*
X005479Y009098D03*
X005007Y009098D03*
X004534Y009098D03*
X004062Y009098D03*
X003589Y009098D03*
X003589Y003389D03*
X004062Y003389D03*
X004534Y003389D03*
X005007Y003389D03*
X005479Y003389D03*
X005951Y003389D03*
X006424Y003389D03*
X006896Y003389D03*
D17*
X006089Y004826D03*
X006089Y006243D03*
X006089Y007661D03*
X004396Y007661D03*
X004396Y006243D03*
X004396Y004826D03*
D18*
X003548Y010667D03*
X002938Y010667D03*
X002938Y012143D03*
X003548Y012143D03*
X006938Y012143D03*
X007548Y012143D03*
X007548Y010667D03*
X006938Y010667D03*
D19*
X005577Y009805D03*
X004908Y009805D03*
X003427Y012725D03*
X002758Y012725D03*
D20*
X007348Y013885D03*
X007938Y013885D03*
D21*
X005597Y011626D03*
X005597Y010484D03*
X004888Y010484D03*
X004888Y011626D03*
D22*
X007093Y002836D03*
X007093Y001674D03*
D23*
X006491Y002255D03*
D24*
X006808Y000655D03*
X003658Y000655D03*
D25*
X001743Y001755D03*
X001743Y002755D03*
X001743Y003755D03*
X001743Y004755D03*
X001743Y005755D03*
X001743Y006755D03*
X001743Y007755D03*
X001743Y008755D03*
X001743Y009755D03*
X001743Y010755D03*
X001743Y011755D03*
X001743Y012755D03*
X008743Y012755D03*
X008743Y011755D03*
X008743Y010755D03*
X008743Y009755D03*
X008743Y008755D03*
X008743Y007755D03*
X008743Y006755D03*
X008743Y005755D03*
X008743Y004755D03*
X008743Y003755D03*
X008743Y002755D03*
X008743Y001755D03*
D26*
X002443Y013655D03*
D27*
X003368Y013655D03*
D28*
X003693Y013305D03*
X003893Y012635D03*
X003903Y010835D03*
X004273Y010855D03*
X004473Y010655D03*
X003841Y010253D03*
X003492Y008445D03*
X003663Y007935D03*
X004273Y008455D03*
X004753Y008465D03*
X005143Y007945D03*
X005083Y007435D03*
X005043Y006955D03*
X005443Y006955D03*
X005943Y007075D03*
X006433Y008245D03*
X006663Y008675D03*
X006793Y008355D03*
X007093Y008155D03*
X007673Y009695D03*
X008013Y009805D03*
X008093Y011235D03*
X007803Y011635D03*
X007963Y011955D03*
X007953Y012475D03*
X007673Y013395D03*
X006853Y012865D03*
X006443Y013055D03*
X007153Y011345D03*
X006773Y011265D03*
X006593Y010745D03*
X006443Y010245D03*
X006073Y010635D03*
X006083Y008655D03*
X005563Y008345D03*
X005233Y008455D03*
X006993Y006025D03*
X007063Y005075D03*
X007083Y004585D03*
X006923Y003905D03*
X006433Y003975D03*
X006083Y003865D03*
X005973Y005415D03*
X005063Y004475D03*
X005343Y001605D03*
X004293Y001605D03*
X003043Y001605D03*
X002693Y001205D03*
X002693Y000505D03*
X002143Y000755D03*
X001743Y001155D03*
X002543Y002865D03*
X002493Y008175D03*
X002443Y009825D03*
X002713Y010035D03*
X002343Y010315D03*
X002343Y010785D03*
X002343Y012505D03*
X002343Y012895D03*
X001603Y013375D03*
X008073Y004115D03*
X007793Y001605D03*
X006443Y001605D03*
X008243Y008255D03*
D29*
X007873Y008645D02*
X008273Y009045D01*
X008273Y009445D01*
X007333Y009445D01*
X007227Y009550D01*
X007227Y009805D01*
X007203Y009830D01*
X007203Y010435D01*
X006971Y010667D01*
X006938Y010667D01*
X006938Y010495D01*
X006343Y010495D01*
X006183Y010335D01*
X006183Y010025D01*
X005963Y009805D01*
X005577Y009805D01*
X005479Y009098D02*
X005479Y008971D01*
X005383Y008875D01*
X005383Y008835D01*
X005263Y008715D01*
X005043Y008715D01*
X004793Y008465D01*
X004753Y008465D01*
X004783Y008735D02*
X004603Y008735D01*
X004513Y008645D01*
X004513Y008275D01*
X004633Y008155D01*
X004933Y008155D01*
X005143Y007945D01*
X005233Y008455D02*
X005263Y008455D01*
X005483Y008675D01*
X005683Y008675D01*
X005863Y008855D01*
X005863Y009009D01*
X005951Y009098D01*
X006327Y009194D02*
X006424Y009098D01*
X007083Y008645D02*
X006793Y008355D01*
X007083Y008645D02*
X007873Y008645D01*
X008273Y009445D02*
X008273Y011025D01*
X008743Y011495D01*
X008743Y011755D01*
X008243Y011385D02*
X008093Y011235D01*
X008243Y011385D02*
X008243Y013055D01*
X007993Y013305D01*
X007993Y013830D01*
X007938Y013885D01*
X008293Y013914D02*
X009123Y013914D01*
X009123Y013836D02*
X008293Y013836D01*
X008293Y013757D02*
X009123Y013757D01*
X009123Y013679D02*
X008293Y013679D01*
X008293Y013600D02*
X009123Y013600D01*
X009123Y013522D02*
X008293Y013522D01*
X008293Y013443D02*
X009123Y013443D01*
X009123Y013365D02*
X008293Y013365D01*
X008293Y013305D02*
X009123Y013305D01*
X009123Y014135D01*
X008293Y014135D01*
X008293Y013305D01*
X008293Y013993D02*
X009123Y013993D01*
X009123Y014071D02*
X008293Y014071D01*
X007383Y011735D02*
X007563Y011555D01*
X007563Y011395D01*
X008013Y010945D01*
X008013Y009805D01*
X007673Y009695D02*
X007673Y010195D01*
X007853Y010375D01*
X007853Y010895D01*
X007423Y011325D01*
X007423Y011475D01*
X007303Y011595D01*
X006387Y011595D01*
X006377Y011605D01*
X006337Y011565D02*
X006293Y011520D01*
X006292Y011520D02*
X006294Y011537D01*
X006298Y011553D01*
X006306Y011567D01*
X006317Y011580D01*
X006330Y011591D01*
X006344Y011599D01*
X006360Y011603D01*
X006377Y011605D01*
X006593Y011855D02*
X006713Y011735D01*
X007383Y011735D01*
X007153Y011345D02*
X007153Y011225D01*
X006943Y011015D01*
X006583Y011015D01*
X006543Y011055D01*
X005143Y011055D01*
X004888Y011309D01*
X004888Y011626D01*
X004543Y011870D02*
X004543Y012005D01*
X004593Y012055D01*
X005843Y012055D01*
X006043Y011855D01*
X006593Y011855D01*
X006773Y011265D02*
X006713Y011205D01*
X005643Y011205D01*
X005597Y011251D01*
X005597Y011626D01*
X004993Y010905D02*
X006453Y010905D01*
X006593Y010765D01*
X006593Y010745D01*
X004993Y010905D02*
X004888Y010801D01*
X004888Y010484D01*
X004443Y009495D02*
X004513Y009425D01*
X004513Y009119D01*
X004534Y009098D01*
X004493Y009056D01*
X004493Y008905D01*
X004783Y008735D02*
X004933Y008885D01*
X004933Y009024D01*
X004443Y009495D02*
X003933Y009495D01*
X003927Y009500D01*
X003927Y009805D01*
X003933Y009495D02*
X003663Y009495D01*
X003583Y009415D01*
X003583Y009104D01*
X002946Y009104D01*
X002940Y009098D01*
X003583Y009104D02*
X003589Y009098D01*
X003593Y009101D01*
X003655Y010253D02*
X003553Y010355D01*
X003553Y010662D01*
X003548Y010667D01*
X003543Y010662D01*
X003655Y010253D02*
X003841Y010253D01*
X004163Y011490D02*
X004193Y011520D01*
X004543Y011870D01*
X002940Y007897D02*
X002940Y007424D01*
X004160Y007424D01*
X004396Y007661D01*
X002940Y007424D02*
X002940Y006952D01*
X003010Y005605D02*
X002793Y005605D01*
X002543Y005355D01*
X002543Y003555D01*
X002693Y003405D01*
X002924Y003405D01*
X002940Y003389D01*
X002947Y005055D02*
X002940Y005062D01*
X002940Y005535D02*
X003010Y005605D01*
X004534Y003564D02*
X004534Y003389D01*
X005007Y003389D01*
X005479Y003389D01*
X005951Y003389D01*
X006477Y002255D02*
X006491Y002255D01*
X007546Y003389D02*
X007546Y003452D01*
X007546Y004117D02*
X007305Y004117D01*
X007546Y006007D02*
X007594Y006055D01*
X007843Y006055D01*
X007943Y006155D01*
X007943Y006855D01*
X007846Y006952D01*
X007546Y006952D01*
X006127Y006205D02*
X006089Y006243D01*
D30*
X001353Y001560D02*
X001353Y001301D01*
X002288Y000365D01*
X002843Y000365D01*
X002843Y002105D01*
X002008Y002105D01*
X002112Y002001D01*
X002178Y001842D01*
X002178Y001668D01*
X002112Y001509D01*
X001989Y001386D01*
X001829Y001320D01*
X001656Y001320D01*
X001496Y001386D01*
X001374Y001509D01*
X001353Y001560D01*
X001353Y001542D02*
X001360Y001542D01*
X001353Y001484D02*
X001399Y001484D01*
X001353Y001425D02*
X001458Y001425D01*
X001544Y001367D02*
X001353Y001367D01*
X001353Y001308D02*
X002843Y001308D01*
X002843Y001250D02*
X001404Y001250D01*
X001462Y001191D02*
X002843Y001191D01*
X002843Y001133D02*
X001521Y001133D01*
X001579Y001074D02*
X002843Y001074D01*
X002843Y001016D02*
X001638Y001016D01*
X001696Y000957D02*
X002843Y000957D01*
X002843Y000899D02*
X001755Y000899D01*
X001813Y000840D02*
X002843Y000840D01*
X002843Y000782D02*
X001872Y000782D01*
X001930Y000723D02*
X002843Y000723D01*
X002843Y000665D02*
X001989Y000665D01*
X002047Y000606D02*
X002843Y000606D01*
X002843Y000548D02*
X002106Y000548D01*
X002164Y000489D02*
X002843Y000489D01*
X002843Y000431D02*
X002223Y000431D01*
X002281Y000372D02*
X002843Y000372D01*
X002843Y001367D02*
X001942Y001367D01*
X002028Y001425D02*
X002843Y001425D01*
X002843Y001484D02*
X002086Y001484D01*
X002125Y001542D02*
X002843Y001542D01*
X002843Y001601D02*
X002150Y001601D01*
X002174Y001659D02*
X002843Y001659D01*
X002843Y001718D02*
X002178Y001718D01*
X002178Y001776D02*
X002843Y001776D01*
X002843Y001835D02*
X002178Y001835D01*
X002156Y001893D02*
X002843Y001893D01*
X002843Y001952D02*
X002132Y001952D01*
X002103Y002010D02*
X002843Y002010D01*
X002843Y002069D02*
X002044Y002069D01*
X002443Y002069D02*
X003081Y002069D01*
X003081Y002127D02*
X002443Y002127D01*
X002443Y002186D02*
X003081Y002186D01*
X003081Y002244D02*
X002443Y002244D01*
X002443Y002303D02*
X003081Y002303D01*
X003081Y002361D02*
X002443Y002361D01*
X002443Y002420D02*
X003081Y002420D01*
X003081Y002478D02*
X002443Y002478D01*
X002443Y002537D02*
X003089Y002537D01*
X003081Y002517D02*
X003081Y001993D01*
X003131Y001871D01*
X003188Y001815D01*
X003188Y001455D01*
X002443Y001455D01*
X002443Y006368D01*
X002541Y006269D01*
X002648Y006269D01*
X002666Y006252D01*
X003213Y006252D01*
X003266Y006304D01*
X003266Y006654D01*
X003213Y006707D01*
X002703Y006707D01*
X002703Y008061D01*
X002722Y008080D01*
X002722Y008141D01*
X003213Y008141D01*
X003266Y008194D01*
X003266Y008347D01*
X003397Y008216D01*
X003587Y008216D01*
X003721Y008350D01*
X003721Y008540D01*
X003587Y008674D01*
X003397Y008674D01*
X003266Y008543D01*
X003266Y008544D01*
X003213Y008597D01*
X002703Y008597D01*
X002703Y009328D01*
X002952Y009577D01*
X002952Y009571D01*
X003004Y009518D01*
X003512Y009518D01*
X003565Y009571D01*
X003565Y009955D01*
X004560Y009955D01*
X004621Y009894D01*
X004621Y009551D01*
X004674Y009498D01*
X005142Y009498D01*
X005195Y009551D01*
X005195Y009880D01*
X005270Y009955D01*
X005291Y009955D01*
X005291Y009551D01*
X005343Y009498D01*
X005812Y009498D01*
X005864Y009551D01*
X005864Y009675D01*
X006017Y009675D01*
X006237Y009895D01*
X006297Y009955D01*
X006921Y009955D01*
X006921Y009571D01*
X006974Y009518D01*
X007097Y009518D01*
X007097Y009497D01*
X007203Y009391D01*
X007279Y009315D01*
X008043Y009315D01*
X008043Y008999D01*
X007819Y008775D01*
X007029Y008775D01*
X006838Y008584D01*
X006698Y008584D01*
X006564Y008450D01*
X006564Y008438D01*
X006528Y008474D01*
X006494Y008474D01*
X006523Y008503D01*
X006523Y008771D01*
X006599Y008771D01*
X006652Y008824D01*
X006652Y009371D01*
X006599Y009424D01*
X006249Y009424D01*
X006196Y009371D01*
X006196Y008866D01*
X006179Y008882D01*
X006179Y009371D01*
X006127Y009424D01*
X005776Y009424D01*
X005724Y009371D01*
X005724Y008900D01*
X005707Y008883D01*
X005707Y009371D01*
X005654Y009424D01*
X005304Y009424D01*
X005251Y009371D01*
X005251Y008887D01*
X005234Y008870D01*
X005234Y009371D01*
X005182Y009424D01*
X004832Y009424D01*
X004779Y009371D01*
X004779Y008915D01*
X004729Y008865D01*
X004549Y008865D01*
X004383Y008699D01*
X004383Y008669D01*
X004368Y008684D01*
X004256Y008684D01*
X004212Y008728D01*
X004212Y008771D01*
X004237Y008771D01*
X004289Y008824D01*
X004289Y009371D01*
X004237Y009424D01*
X003887Y009424D01*
X003834Y009371D01*
X003834Y008824D01*
X003887Y008771D01*
X003912Y008771D01*
X003912Y008604D01*
X004044Y008472D01*
X004044Y008360D01*
X004178Y008226D01*
X004368Y008226D01*
X004383Y008241D01*
X004383Y008221D01*
X004579Y008025D01*
X004879Y008025D01*
X004914Y007990D01*
X004914Y007850D01*
X005048Y007716D01*
X005238Y007716D01*
X005372Y007850D01*
X005372Y008040D01*
X005238Y008174D01*
X005098Y008174D01*
X005063Y008209D01*
X004987Y008285D01*
X004897Y008285D01*
X004982Y008370D01*
X004982Y008470D01*
X005004Y008492D01*
X005004Y008360D01*
X005138Y008226D01*
X005328Y008226D01*
X005343Y008241D01*
X005468Y008116D01*
X005658Y008116D01*
X005737Y008195D01*
X006204Y008195D01*
X006204Y008150D01*
X006338Y008016D01*
X006528Y008016D01*
X006662Y008150D01*
X006662Y008162D01*
X006698Y008126D01*
X006864Y008126D01*
X006864Y008060D01*
X006998Y007926D01*
X007188Y007926D01*
X007322Y008060D01*
X007322Y008250D01*
X007188Y008384D01*
X007022Y008384D01*
X007022Y008400D01*
X007137Y008515D01*
X007927Y008515D01*
X008043Y008631D01*
X008043Y006939D01*
X007997Y006985D01*
X007900Y007082D01*
X007872Y007082D01*
X007872Y007127D01*
X007819Y007180D01*
X007272Y007180D01*
X007220Y007127D01*
X007220Y006777D01*
X007272Y006724D01*
X007813Y006724D01*
X007813Y006707D01*
X007272Y006707D01*
X007220Y006654D01*
X007220Y006304D01*
X007272Y006252D01*
X007813Y006252D01*
X007813Y006235D01*
X007272Y006235D01*
X007220Y006182D01*
X007220Y006122D01*
X007088Y006254D01*
X006898Y006254D01*
X006764Y006120D01*
X006764Y005930D01*
X006898Y005796D01*
X007088Y005796D01*
X007220Y005928D01*
X007220Y005832D01*
X007272Y005779D01*
X007819Y005779D01*
X007872Y005832D01*
X007872Y005925D01*
X007897Y005925D01*
X007973Y006001D01*
X008043Y006071D01*
X008043Y001455D01*
X004098Y001455D01*
X004098Y001800D01*
X005383Y001800D01*
X005405Y001778D01*
X005526Y001728D01*
X006090Y001728D01*
X006143Y001750D01*
X006195Y001728D01*
X006764Y001728D01*
X006885Y001778D01*
X006978Y001871D01*
X007028Y001993D01*
X007028Y002517D01*
X006978Y002639D01*
X006885Y002732D01*
X006879Y002734D01*
X006879Y003056D01*
X006892Y003087D01*
X006892Y003676D01*
X007018Y003676D01*
X007152Y003810D01*
X007152Y004000D01*
X007018Y004134D01*
X006828Y004134D01*
X006694Y004000D01*
X006694Y003928D01*
X006662Y003941D01*
X006662Y004070D01*
X006528Y004204D01*
X006338Y004204D01*
X006204Y004070D01*
X006204Y004068D01*
X006178Y004094D01*
X005988Y004094D01*
X005854Y003960D01*
X005854Y003770D01*
X005956Y003668D01*
X005956Y003087D01*
X005969Y003056D01*
X005969Y002782D01*
X005526Y002782D01*
X005405Y002732D01*
X005383Y002710D01*
X004053Y002710D01*
X004031Y002732D01*
X003910Y002782D01*
X003345Y002782D01*
X003224Y002732D01*
X003131Y002639D01*
X003081Y002517D01*
X003113Y002595D02*
X002443Y002595D01*
X002443Y002654D02*
X003146Y002654D01*
X003204Y002712D02*
X002443Y002712D01*
X002443Y002771D02*
X003318Y002771D01*
X003414Y003063D02*
X003764Y003063D01*
X003817Y003115D01*
X003817Y003179D01*
X003834Y003179D01*
X003834Y003115D01*
X003887Y003063D01*
X004237Y003063D01*
X005966Y003063D01*
X005969Y003005D02*
X002443Y003005D01*
X002443Y003063D02*
X003414Y003063D01*
X003361Y003115D01*
X003361Y003662D01*
X003414Y003715D01*
X003764Y003715D01*
X003817Y003662D01*
X003817Y003599D01*
X003834Y003599D01*
X003834Y003662D01*
X003887Y003715D01*
X004237Y003715D01*
X004289Y003662D01*
X004289Y003115D01*
X004237Y003063D01*
X004289Y003122D02*
X005956Y003122D01*
X005956Y003180D02*
X004289Y003180D01*
X004289Y003239D02*
X005956Y003239D01*
X005956Y003297D02*
X004289Y003297D01*
X004289Y003356D02*
X005956Y003356D01*
X005956Y003414D02*
X004289Y003414D01*
X004289Y003473D02*
X005956Y003473D01*
X005956Y003531D02*
X004289Y003531D01*
X004289Y003590D02*
X005956Y003590D01*
X005956Y003648D02*
X004289Y003648D01*
X004245Y003707D02*
X005917Y003707D01*
X005859Y003765D02*
X002443Y003765D01*
X002443Y003707D02*
X003406Y003707D01*
X003361Y003648D02*
X002443Y003648D01*
X002443Y003590D02*
X003361Y003590D01*
X003361Y003531D02*
X002443Y003531D01*
X002443Y003473D02*
X003361Y003473D01*
X003361Y003414D02*
X002443Y003414D01*
X002443Y003356D02*
X003361Y003356D01*
X003361Y003297D02*
X002443Y003297D01*
X002443Y003239D02*
X003361Y003239D01*
X003361Y003180D02*
X002443Y003180D01*
X002443Y003122D02*
X003361Y003122D01*
X003765Y003063D02*
X003886Y003063D01*
X003834Y003122D02*
X003817Y003122D01*
X003937Y002771D02*
X005499Y002771D01*
X005385Y002712D02*
X004051Y002712D01*
X004098Y001776D02*
X005410Y001776D01*
X005969Y002829D02*
X002443Y002829D01*
X002443Y002888D02*
X005969Y002888D01*
X005969Y002946D02*
X002443Y002946D01*
X002443Y003824D02*
X005854Y003824D01*
X005854Y003882D02*
X002443Y003882D01*
X002443Y003941D02*
X002615Y003941D01*
X002613Y003942D02*
X002666Y003889D01*
X003213Y003889D01*
X003266Y003942D01*
X003266Y004292D01*
X003213Y004345D01*
X003150Y004345D01*
X003150Y004362D01*
X003213Y004362D01*
X003266Y004415D01*
X003266Y004765D01*
X003213Y004817D01*
X002666Y004817D01*
X002613Y004765D01*
X002613Y004415D01*
X002666Y004362D01*
X002730Y004362D01*
X002730Y004345D01*
X002666Y004345D01*
X002613Y004292D01*
X002613Y003942D01*
X002613Y003999D02*
X002443Y003999D01*
X002443Y004058D02*
X002613Y004058D01*
X002613Y004116D02*
X002443Y004116D01*
X002443Y004175D02*
X002613Y004175D01*
X002613Y004233D02*
X002443Y004233D01*
X002443Y004292D02*
X002613Y004292D01*
X002619Y004409D02*
X002443Y004409D01*
X002443Y004467D02*
X002613Y004467D01*
X002613Y004526D02*
X002443Y004526D01*
X002443Y004584D02*
X002613Y004584D01*
X002613Y004643D02*
X002443Y004643D01*
X002443Y004701D02*
X002613Y004701D01*
X002613Y004760D02*
X002443Y004760D01*
X002443Y004818D02*
X008043Y004818D01*
X008043Y004760D02*
X007872Y004760D01*
X007872Y004765D02*
X007819Y004817D01*
X007272Y004817D01*
X007220Y004765D01*
X007220Y004415D01*
X007272Y004362D01*
X007819Y004362D01*
X007872Y004415D01*
X007872Y004765D01*
X007872Y004701D02*
X008043Y004701D01*
X008043Y004643D02*
X007872Y004643D01*
X007872Y004584D02*
X008043Y004584D01*
X008043Y004526D02*
X007872Y004526D01*
X007872Y004467D02*
X008043Y004467D01*
X008043Y004409D02*
X007866Y004409D01*
X008043Y004350D02*
X003150Y004350D01*
X003260Y004409D02*
X007226Y004409D01*
X007220Y004467D02*
X003266Y004467D01*
X003266Y004526D02*
X007220Y004526D01*
X007220Y004584D02*
X003266Y004584D01*
X003266Y004643D02*
X007220Y004643D01*
X007220Y004701D02*
X003266Y004701D01*
X003266Y004760D02*
X007220Y004760D01*
X007272Y004834D02*
X007220Y004887D01*
X007220Y004908D01*
X007158Y004846D01*
X006968Y004846D01*
X006834Y004980D01*
X006834Y005170D01*
X006968Y005304D01*
X007158Y005304D01*
X007222Y005240D01*
X007272Y005290D01*
X007819Y005290D01*
X007872Y005237D01*
X007872Y004887D01*
X007819Y004834D01*
X007272Y004834D01*
X007230Y004877D02*
X007188Y004877D01*
X006937Y004877D02*
X003255Y004877D01*
X003266Y004887D02*
X003266Y004912D01*
X003402Y004912D01*
X003875Y005385D01*
X005045Y005385D01*
X005405Y005745D01*
X005493Y005833D01*
X005493Y006726D01*
X005538Y006726D01*
X005672Y006860D01*
X005672Y007050D01*
X005538Y007184D01*
X005348Y007184D01*
X005243Y007079D01*
X005138Y007184D01*
X004948Y007184D01*
X004814Y007050D01*
X004814Y006860D01*
X004948Y006726D01*
X005138Y006726D01*
X005193Y006781D01*
X005193Y005957D01*
X004921Y005685D01*
X003751Y005685D01*
X003663Y005597D01*
X003278Y005212D01*
X003266Y005212D01*
X003266Y005237D01*
X003213Y005290D01*
X002666Y005290D01*
X002613Y005237D01*
X002613Y004887D01*
X002666Y004834D01*
X003213Y004834D01*
X003266Y004887D01*
X003425Y004935D02*
X006879Y004935D01*
X006834Y004994D02*
X003483Y004994D01*
X003542Y005052D02*
X006834Y005052D01*
X006834Y005111D02*
X003600Y005111D01*
X003659Y005169D02*
X006834Y005169D01*
X006891Y005228D02*
X003717Y005228D01*
X003776Y005286D02*
X006950Y005286D01*
X007176Y005286D02*
X007269Y005286D01*
X007272Y005307D02*
X007220Y005359D01*
X007220Y005710D01*
X007272Y005762D01*
X007819Y005762D01*
X007872Y005710D01*
X007872Y005359D01*
X007819Y005307D01*
X007272Y005307D01*
X007235Y005345D02*
X003834Y005345D01*
X003644Y005579D02*
X002443Y005579D01*
X002443Y005637D02*
X003703Y005637D01*
X003586Y005520D02*
X002443Y005520D01*
X002443Y005462D02*
X003527Y005462D01*
X003469Y005403D02*
X002443Y005403D01*
X002443Y005345D02*
X003410Y005345D01*
X003352Y005286D02*
X003217Y005286D01*
X003266Y005228D02*
X003293Y005228D01*
X003213Y005779D02*
X003266Y005832D01*
X003266Y006182D01*
X003213Y006235D01*
X002666Y006235D01*
X002613Y006182D01*
X002613Y005832D01*
X002666Y005779D01*
X003213Y005779D01*
X003247Y005813D02*
X005048Y005813D01*
X005107Y005871D02*
X003266Y005871D01*
X003266Y005930D02*
X005165Y005930D01*
X005193Y005988D02*
X003266Y005988D01*
X003266Y006047D02*
X005193Y006047D01*
X005193Y006105D02*
X003266Y006105D01*
X003266Y006164D02*
X005193Y006164D01*
X005193Y006222D02*
X003226Y006222D01*
X003242Y006281D02*
X005193Y006281D01*
X005193Y006339D02*
X003266Y006339D01*
X003266Y006398D02*
X005193Y006398D01*
X005193Y006456D02*
X003266Y006456D01*
X003266Y006515D02*
X005193Y006515D01*
X005193Y006573D02*
X003266Y006573D01*
X003266Y006632D02*
X005193Y006632D01*
X005193Y006690D02*
X003230Y006690D01*
X002703Y006749D02*
X004925Y006749D01*
X004867Y006807D02*
X002703Y006807D01*
X002703Y006866D02*
X004814Y006866D01*
X004814Y006924D02*
X002703Y006924D01*
X002703Y006983D02*
X004814Y006983D01*
X004814Y007041D02*
X002703Y007041D01*
X002703Y007100D02*
X004863Y007100D01*
X004922Y007158D02*
X002703Y007158D01*
X002703Y007217D02*
X007252Y007217D01*
X007272Y007196D02*
X007220Y007249D01*
X007220Y007599D01*
X007272Y007652D01*
X007819Y007652D01*
X007872Y007599D01*
X007872Y007249D01*
X007819Y007196D01*
X007272Y007196D01*
X007251Y007158D02*
X005564Y007158D01*
X005622Y007100D02*
X007220Y007100D01*
X007220Y007041D02*
X005672Y007041D01*
X005672Y006983D02*
X007220Y006983D01*
X007220Y006924D02*
X005672Y006924D01*
X005672Y006866D02*
X007220Y006866D01*
X007220Y006807D02*
X005619Y006807D01*
X005560Y006749D02*
X007248Y006749D01*
X007255Y006690D02*
X005493Y006690D01*
X005493Y006632D02*
X007220Y006632D01*
X007220Y006573D02*
X005493Y006573D01*
X005493Y006515D02*
X007220Y006515D01*
X007220Y006456D02*
X005493Y006456D01*
X005493Y006398D02*
X007220Y006398D01*
X007220Y006339D02*
X005493Y006339D01*
X005493Y006281D02*
X007244Y006281D01*
X007260Y006222D02*
X007120Y006222D01*
X007178Y006164D02*
X007220Y006164D01*
X007220Y005871D02*
X007163Y005871D01*
X007104Y005813D02*
X007239Y005813D01*
X007264Y005754D02*
X005414Y005754D01*
X005472Y005813D02*
X006881Y005813D01*
X006823Y005871D02*
X005493Y005871D01*
X005493Y005930D02*
X006764Y005930D01*
X006764Y005988D02*
X005493Y005988D01*
X005493Y006047D02*
X006764Y006047D01*
X006764Y006105D02*
X005493Y006105D01*
X005493Y006164D02*
X006807Y006164D01*
X006866Y006222D02*
X005493Y006222D01*
X005355Y005696D02*
X007220Y005696D01*
X007220Y005637D02*
X005297Y005637D01*
X005238Y005579D02*
X007220Y005579D01*
X007220Y005520D02*
X005180Y005520D01*
X005121Y005462D02*
X007220Y005462D01*
X007220Y005403D02*
X005063Y005403D01*
X004931Y005696D02*
X002443Y005696D01*
X002443Y005754D02*
X004990Y005754D01*
X005160Y006749D02*
X005193Y006749D01*
X005222Y007100D02*
X005263Y007100D01*
X005322Y007158D02*
X005164Y007158D01*
X005265Y007743D02*
X008043Y007743D01*
X008043Y007685D02*
X002703Y007685D01*
X002703Y007743D02*
X003531Y007743D01*
X003568Y007706D02*
X003758Y007706D01*
X003892Y007840D01*
X003892Y008030D01*
X003758Y008164D01*
X003568Y008164D01*
X003434Y008030D01*
X003434Y007840D01*
X003568Y007706D01*
X003472Y007802D02*
X002703Y007802D01*
X002703Y007860D02*
X003434Y007860D01*
X003434Y007919D02*
X002703Y007919D01*
X002703Y007977D02*
X003434Y007977D01*
X003439Y008036D02*
X002703Y008036D01*
X002722Y008094D02*
X003498Y008094D01*
X003556Y008153D02*
X003224Y008153D01*
X003266Y008211D02*
X004393Y008211D01*
X004451Y008153D02*
X003769Y008153D01*
X003828Y008094D02*
X004510Y008094D01*
X004568Y008036D02*
X003886Y008036D01*
X003892Y007977D02*
X004914Y007977D01*
X004914Y007919D02*
X003892Y007919D01*
X003892Y007860D02*
X004914Y007860D01*
X004962Y007802D02*
X003853Y007802D01*
X003795Y007743D02*
X005021Y007743D01*
X005323Y007802D02*
X008043Y007802D01*
X008043Y007860D02*
X005372Y007860D01*
X005372Y007919D02*
X008043Y007919D01*
X008043Y007977D02*
X007239Y007977D01*
X007297Y008036D02*
X008043Y008036D01*
X008043Y008094D02*
X007322Y008094D01*
X007322Y008153D02*
X008043Y008153D01*
X008043Y008211D02*
X007322Y008211D01*
X007302Y008270D02*
X008043Y008270D01*
X008043Y008328D02*
X007244Y008328D01*
X007125Y008504D02*
X008043Y008504D01*
X008043Y008562D02*
X007974Y008562D01*
X008032Y008621D02*
X008043Y008621D01*
X008043Y008445D02*
X007067Y008445D01*
X007022Y008387D02*
X008043Y008387D01*
X007840Y008796D02*
X006624Y008796D01*
X006652Y008855D02*
X007898Y008855D01*
X007957Y008913D02*
X006652Y008913D01*
X006652Y008972D02*
X008015Y008972D01*
X008043Y009030D02*
X006652Y009030D01*
X006652Y009089D02*
X008043Y009089D01*
X008043Y009147D02*
X006652Y009147D01*
X006652Y009206D02*
X008043Y009206D01*
X008043Y009264D02*
X006652Y009264D01*
X006652Y009323D02*
X007271Y009323D01*
X007213Y009381D02*
X006642Y009381D01*
X006935Y009557D02*
X005864Y009557D01*
X005864Y009615D02*
X006921Y009615D01*
X006921Y009674D02*
X005864Y009674D01*
X006074Y009732D02*
X006921Y009732D01*
X006921Y009791D02*
X006132Y009791D01*
X006191Y009849D02*
X006921Y009849D01*
X006921Y009908D02*
X006249Y009908D01*
X006237Y009895D02*
X006237Y009895D01*
X006206Y009381D02*
X006169Y009381D01*
X006179Y009323D02*
X006196Y009323D01*
X006196Y009264D02*
X006179Y009264D01*
X006179Y009206D02*
X006196Y009206D01*
X006196Y009147D02*
X006179Y009147D01*
X006179Y009089D02*
X006196Y009089D01*
X006196Y009030D02*
X006179Y009030D01*
X006179Y008972D02*
X006196Y008972D01*
X006196Y008913D02*
X006179Y008913D01*
X006523Y008738D02*
X006991Y008738D01*
X006933Y008679D02*
X006523Y008679D01*
X006523Y008621D02*
X006874Y008621D01*
X006676Y008562D02*
X006523Y008562D01*
X006523Y008504D02*
X006617Y008504D01*
X006564Y008445D02*
X006557Y008445D01*
X006662Y008153D02*
X006671Y008153D01*
X006606Y008094D02*
X006864Y008094D01*
X006888Y008036D02*
X006547Y008036D01*
X006318Y008036D02*
X005372Y008036D01*
X005372Y007977D02*
X006947Y007977D01*
X007246Y007626D02*
X002703Y007626D01*
X002703Y007568D02*
X007220Y007568D01*
X007220Y007509D02*
X002703Y007509D01*
X002703Y007451D02*
X007220Y007451D01*
X007220Y007392D02*
X002703Y007392D01*
X002703Y007334D02*
X007220Y007334D01*
X007220Y007275D02*
X002703Y007275D01*
X002472Y006339D02*
X002443Y006339D01*
X002443Y006281D02*
X002530Y006281D01*
X002443Y006222D02*
X002653Y006222D01*
X002613Y006164D02*
X002443Y006164D01*
X002443Y006105D02*
X002613Y006105D01*
X002613Y006047D02*
X002443Y006047D01*
X002443Y005988D02*
X002613Y005988D01*
X002613Y005930D02*
X002443Y005930D01*
X002443Y005871D02*
X002613Y005871D01*
X002633Y005813D02*
X002443Y005813D01*
X002443Y005286D02*
X002662Y005286D01*
X002613Y005228D02*
X002443Y005228D01*
X002443Y005169D02*
X002613Y005169D01*
X002613Y005111D02*
X002443Y005111D01*
X002443Y005052D02*
X002613Y005052D01*
X002613Y004994D02*
X002443Y004994D01*
X002443Y004935D02*
X002613Y004935D01*
X002624Y004877D02*
X002443Y004877D01*
X002443Y004350D02*
X002730Y004350D01*
X003266Y004292D02*
X008043Y004292D01*
X008043Y004233D02*
X003266Y004233D01*
X003266Y004175D02*
X006308Y004175D01*
X006250Y004116D02*
X003266Y004116D01*
X003266Y004058D02*
X005951Y004058D01*
X005893Y003999D02*
X003266Y003999D01*
X003264Y003941D02*
X005854Y003941D01*
X006557Y004175D02*
X008043Y004175D01*
X008043Y004116D02*
X007036Y004116D01*
X007094Y004058D02*
X008043Y004058D01*
X008043Y003999D02*
X007152Y003999D01*
X007152Y003941D02*
X008043Y003941D01*
X008043Y003882D02*
X007152Y003882D01*
X007152Y003824D02*
X008043Y003824D01*
X008043Y003765D02*
X007107Y003765D01*
X007048Y003707D02*
X008043Y003707D01*
X008043Y003648D02*
X006892Y003648D01*
X006892Y003590D02*
X008043Y003590D01*
X008043Y003531D02*
X006892Y003531D01*
X006892Y003473D02*
X008043Y003473D01*
X008043Y003414D02*
X006892Y003414D01*
X006892Y003356D02*
X008043Y003356D01*
X008043Y003297D02*
X006892Y003297D01*
X006892Y003239D02*
X008043Y003239D01*
X008043Y003180D02*
X006892Y003180D01*
X006892Y003122D02*
X008043Y003122D01*
X008043Y003063D02*
X006882Y003063D01*
X006879Y003005D02*
X008043Y003005D01*
X008043Y002946D02*
X006879Y002946D01*
X006879Y002888D02*
X008043Y002888D01*
X008043Y002829D02*
X006879Y002829D01*
X006879Y002771D02*
X008043Y002771D01*
X008043Y002712D02*
X006905Y002712D01*
X006963Y002654D02*
X008043Y002654D01*
X008043Y002595D02*
X006996Y002595D01*
X007020Y002537D02*
X008043Y002537D01*
X008043Y002478D02*
X007028Y002478D01*
X007028Y002420D02*
X008043Y002420D01*
X008043Y002361D02*
X007028Y002361D01*
X007028Y002303D02*
X008043Y002303D01*
X008043Y002244D02*
X007028Y002244D01*
X007028Y002186D02*
X008043Y002186D01*
X008043Y002127D02*
X007028Y002127D01*
X007028Y002069D02*
X008043Y002069D01*
X008043Y002010D02*
X007028Y002010D01*
X007011Y001952D02*
X008043Y001952D01*
X008043Y001893D02*
X006987Y001893D01*
X006941Y001835D02*
X008043Y001835D01*
X008043Y001776D02*
X006879Y001776D01*
X008043Y001718D02*
X004098Y001718D01*
X004098Y001659D02*
X008043Y001659D01*
X008043Y001601D02*
X004098Y001601D01*
X004098Y001542D02*
X008043Y001542D01*
X008043Y001484D02*
X004098Y001484D01*
X003188Y001484D02*
X002443Y001484D01*
X002443Y001542D02*
X003188Y001542D01*
X003188Y001601D02*
X002443Y001601D01*
X002443Y001659D02*
X003188Y001659D01*
X003188Y001718D02*
X002443Y001718D01*
X002443Y001776D02*
X003188Y001776D01*
X003168Y001835D02*
X002443Y001835D01*
X002443Y001893D02*
X003122Y001893D01*
X003098Y001952D02*
X002443Y001952D01*
X002443Y002010D02*
X003081Y002010D01*
X003817Y003648D02*
X003834Y003648D01*
X003878Y003707D02*
X003773Y003707D01*
X005318Y008094D02*
X006260Y008094D01*
X006204Y008153D02*
X005694Y008153D01*
X005431Y008153D02*
X005259Y008153D01*
X005373Y008211D02*
X005061Y008211D01*
X005094Y008270D02*
X005002Y008270D01*
X005036Y008328D02*
X004940Y008328D01*
X004982Y008387D02*
X005004Y008387D01*
X005004Y008445D02*
X004982Y008445D01*
X004777Y008913D02*
X004289Y008913D01*
X004289Y008855D02*
X004538Y008855D01*
X004480Y008796D02*
X004262Y008796D01*
X004212Y008738D02*
X004421Y008738D01*
X004383Y008679D02*
X004373Y008679D01*
X004289Y008972D02*
X004779Y008972D01*
X004779Y009030D02*
X004289Y009030D01*
X004289Y009089D02*
X004779Y009089D01*
X004779Y009147D02*
X004289Y009147D01*
X004289Y009206D02*
X004779Y009206D01*
X004779Y009264D02*
X004289Y009264D01*
X004289Y009323D02*
X004779Y009323D01*
X004789Y009381D02*
X004279Y009381D01*
X004621Y009557D02*
X003550Y009557D01*
X003565Y009615D02*
X004621Y009615D01*
X004621Y009674D02*
X003565Y009674D01*
X003565Y009732D02*
X004621Y009732D01*
X004621Y009791D02*
X003565Y009791D01*
X003565Y009849D02*
X004621Y009849D01*
X004608Y009908D02*
X003565Y009908D01*
X003844Y009381D02*
X002756Y009381D01*
X002703Y009323D02*
X003834Y009323D01*
X003834Y009264D02*
X002703Y009264D01*
X002703Y009206D02*
X003834Y009206D01*
X003834Y009147D02*
X002703Y009147D01*
X002703Y009089D02*
X003834Y009089D01*
X003834Y009030D02*
X002703Y009030D01*
X002703Y008972D02*
X003834Y008972D01*
X003834Y008913D02*
X002703Y008913D01*
X002703Y008855D02*
X003834Y008855D01*
X003862Y008796D02*
X002703Y008796D01*
X002703Y008738D02*
X003912Y008738D01*
X003912Y008679D02*
X002703Y008679D01*
X002703Y008621D02*
X003343Y008621D01*
X003285Y008562D02*
X003248Y008562D01*
X003266Y008328D02*
X003285Y008328D01*
X003266Y008270D02*
X003343Y008270D01*
X003640Y008270D02*
X004134Y008270D01*
X004076Y008328D02*
X003699Y008328D01*
X003721Y008387D02*
X004044Y008387D01*
X004044Y008445D02*
X003721Y008445D01*
X003721Y008504D02*
X004012Y008504D01*
X003954Y008562D02*
X003699Y008562D01*
X003640Y008621D02*
X003912Y008621D01*
X002966Y009557D02*
X002931Y009557D01*
X002873Y009498D02*
X007097Y009498D01*
X007154Y009440D02*
X002814Y009440D01*
X005195Y009557D02*
X005291Y009557D01*
X005291Y009615D02*
X005195Y009615D01*
X005195Y009674D02*
X005291Y009674D01*
X005291Y009732D02*
X005195Y009732D01*
X005195Y009791D02*
X005291Y009791D01*
X005291Y009849D02*
X005195Y009849D01*
X005223Y009908D02*
X005291Y009908D01*
X005261Y009381D02*
X005224Y009381D01*
X005234Y009323D02*
X005251Y009323D01*
X005251Y009264D02*
X005234Y009264D01*
X005234Y009206D02*
X005251Y009206D01*
X005251Y009147D02*
X005234Y009147D01*
X005234Y009089D02*
X005251Y009089D01*
X005251Y009030D02*
X005234Y009030D01*
X005234Y008972D02*
X005251Y008972D01*
X005251Y008913D02*
X005234Y008913D01*
X005707Y008913D02*
X005724Y008913D01*
X005724Y008972D02*
X005707Y008972D01*
X005707Y009030D02*
X005724Y009030D01*
X005724Y009089D02*
X005707Y009089D01*
X005707Y009147D02*
X005724Y009147D01*
X005724Y009206D02*
X005707Y009206D01*
X005707Y009264D02*
X005724Y009264D01*
X005724Y009323D02*
X005707Y009323D01*
X005697Y009381D02*
X005734Y009381D01*
X007846Y007626D02*
X008043Y007626D01*
X008043Y007568D02*
X007872Y007568D01*
X007872Y007509D02*
X008043Y007509D01*
X008043Y007451D02*
X007872Y007451D01*
X007872Y007392D02*
X008043Y007392D01*
X008043Y007334D02*
X007872Y007334D01*
X007872Y007275D02*
X008043Y007275D01*
X008043Y007217D02*
X007839Y007217D01*
X007841Y007158D02*
X008043Y007158D01*
X008043Y007100D02*
X007872Y007100D01*
X007941Y007041D02*
X008043Y007041D01*
X008043Y006983D02*
X007999Y006983D01*
X008018Y006047D02*
X008043Y006047D01*
X008043Y005988D02*
X007960Y005988D01*
X007901Y005930D02*
X008043Y005930D01*
X008043Y005871D02*
X007872Y005871D01*
X007853Y005813D02*
X008043Y005813D01*
X008043Y005754D02*
X007828Y005754D01*
X007872Y005696D02*
X008043Y005696D01*
X008043Y005637D02*
X007872Y005637D01*
X007872Y005579D02*
X008043Y005579D01*
X008043Y005520D02*
X007872Y005520D01*
X007872Y005462D02*
X008043Y005462D01*
X008043Y005403D02*
X007872Y005403D01*
X007857Y005345D02*
X008043Y005345D01*
X008043Y005286D02*
X007823Y005286D01*
X007872Y005228D02*
X008043Y005228D01*
X008043Y005169D02*
X007872Y005169D01*
X007872Y005111D02*
X008043Y005111D01*
X008043Y005052D02*
X007872Y005052D01*
X007872Y004994D02*
X008043Y004994D01*
X008043Y004935D02*
X007872Y004935D01*
X007862Y004877D02*
X008043Y004877D01*
X006810Y004116D02*
X006616Y004116D01*
X006662Y004058D02*
X006751Y004058D01*
X006694Y003999D02*
X006662Y003999D01*
X006662Y003941D02*
X006694Y003941D01*
D31*
X007546Y004117D02*
X008071Y004117D01*
X008073Y004115D01*
X007546Y007897D02*
X007546Y008369D01*
X007660Y008255D01*
X008243Y008255D01*
X007548Y012143D02*
X007548Y012750D01*
X006863Y013435D01*
X006863Y013895D01*
X006873Y013885D01*
X007348Y013885D01*
X006863Y013895D02*
X006475Y013895D01*
X006335Y013755D01*
X006443Y013055D02*
X006443Y012855D01*
X006193Y012605D01*
X005843Y012605D01*
X004731Y013843D02*
X004238Y013843D01*
X004150Y013755D01*
X003693Y013405D02*
X003693Y013305D01*
X003693Y013405D02*
X003443Y013655D01*
X003368Y013655D01*
X002938Y012143D02*
X002131Y012143D01*
X001743Y011755D01*
X002713Y010035D02*
X002943Y009805D01*
X003258Y009805D01*
X002943Y009805D02*
X002883Y009805D01*
X002493Y009415D01*
X002493Y008375D01*
X002934Y008375D01*
X002940Y008369D01*
X002493Y008375D02*
X002493Y008175D01*
X002493Y006615D01*
X002628Y006479D01*
X002940Y006479D01*
X002940Y004590D02*
X002940Y004117D01*
X003589Y003389D02*
X004062Y003389D01*
X004203Y009930D02*
X004203Y010385D01*
X003903Y010685D01*
X003903Y010835D01*
D32*
X006443Y010245D02*
X006443Y009920D01*
X006558Y009805D01*
D33*
X004731Y012702D02*
X004731Y013843D01*
D34*
X002443Y013655D02*
X002443Y013635D01*
X001743Y012935D01*
X001743Y012755D01*
D35*
X002343Y012895D02*
X002363Y012875D01*
X002608Y012875D01*
X002758Y012725D01*
X003427Y012725D02*
X003427Y012740D01*
X003643Y012955D01*
X004043Y012955D01*
X004243Y012755D01*
X004243Y012240D01*
X004193Y012190D01*
X004258Y012255D01*
X005143Y012255D01*
X005243Y012355D01*
X005243Y012702D01*
X005499Y012702D02*
X005499Y012349D01*
X005593Y012255D01*
X006227Y012255D01*
X006293Y012190D01*
X005843Y012605D02*
X005743Y012705D01*
X005743Y012704D01*
X005745Y012702D01*
X005746Y012702D01*
X005755Y012702D01*
X005597Y010484D02*
X005587Y010484D01*
X004908Y009805D01*
X005007Y009098D02*
X004933Y009024D01*
X005563Y008345D02*
X006153Y008345D01*
X006373Y008565D01*
X006373Y009046D01*
X006424Y009098D01*
X005443Y006955D02*
X005343Y006855D01*
X005343Y005895D01*
X004983Y005535D01*
X003813Y005535D01*
X003340Y005062D01*
X002940Y005062D01*
X004273Y008455D02*
X004062Y008666D01*
X004062Y009098D01*
D36*
X004908Y009805D02*
X004473Y010240D01*
X004473Y010655D01*
D37*
X006424Y003389D02*
X006424Y002309D01*
X006477Y002255D01*
X005808Y002255D02*
X003643Y002255D01*
X003627Y002255D01*
X003643Y002255D02*
X003643Y000670D01*
X003658Y000655D01*
X003658Y000655D01*
M02*
