%
M48
M72
;FILE_FORMAT=2:4
INCH,TZ
T01C0.0240
T02C0.0335
T03C0.0374
T04C0.0512
T05C0.0866
T06C0.1260
%
T01
X16910Y10810
X15010Y12410
X15100Y14300
X17100Y14250
X19150Y15300
X20700Y13850
X19400Y12850
X19950Y12150
X23300Y16150
X24660Y16760
X28700Y18200
X27675Y19825
X26975Y19775
X27010Y21210
X25510Y22110
X22750Y20850
X21650Y19950
X21200Y19500
X19050Y18150
X17550Y18250
X18500Y17300
X17250Y16950
X15900Y18000
X14000Y16450
X11450Y15700
X11950Y14950
X12950Y14700
X10450Y15450
X9450Y14950
X9450Y16550
X10450Y17700
X11450Y17450
X11950Y18200
X13125Y18225
X11200Y19200
X9450Y18200
X13200Y19450
X11200Y21050
X13200Y22050
X15830Y22930
X18350Y24500
X18300Y25700
X17200Y25850
X20400Y24510
X20510Y23210
X20250Y22100
X21000Y21550
X21400Y22000
X20350Y21250
X18650Y21450
X18250Y20600
X18620Y19360
X15900Y20000
X20600Y25900
X17350Y28050
X18400Y29050
X12550Y29350
X11950Y28464
X25650Y29700
X29950Y29050
X33910Y28360
X33910Y25660
X32550Y22650
X30630Y22030
X31850Y20700
X31850Y19450
X31800Y16900
X32800Y16500
X34920Y16670
X34910Y13910
X27450Y12950
X27450Y10700
T02
X26450Y10700
X25450Y10700
X24450Y10700
X23450Y10700
X22450Y10700
X21450Y10700
X20450Y10700
X19450Y10700
X20200Y14650
X21200Y14650
X22200Y14650
X23200Y14650
X24200Y14650
X25200Y14650
X26200Y14650
X27200Y14650
X28200Y14650
X29200Y14650
X30200Y14650
X31200Y14650
X32200Y14650
X33200Y14650
X33200Y17650
X32200Y17650
X31200Y17650
X30200Y17650
X29200Y17650
X28200Y17650
X27200Y17650
X26200Y17650
X25200Y17650
X24200Y17650
X23200Y17650
X22200Y17650
X21200Y17650
X20200Y17650
X16900Y20000
X14900Y20000
X28450Y10700
X29450Y10700
X30450Y10700
X31450Y10700
X32450Y10700
X33450Y10700
X33450Y29700
X32450Y29700
X31450Y29700
X30450Y29700
X29450Y29700
X28450Y29700
X27450Y29700
X26450Y29700
X24850Y29700
X23850Y29700
X22850Y29700
X21850Y29700
X20850Y29700
X19850Y29700
X18850Y29700
X17850Y29700
X16850Y29700
X15850Y29700
T03
X15650Y28400
X16650Y28400
X16650Y27400
X15650Y27400
X14650Y27400
X14650Y28400
X15650Y26400
X16650Y26400
X16650Y25400
X15650Y25400
X11804Y25192
X11017Y25192
X11017Y24208
X11804Y24208
X33500Y21700
X34500Y21700
X34500Y20700
X33500Y20700
X33500Y19700
X34500Y19700
T04
X13050Y13270
X13050Y12970
X13050Y12670
X10690Y12670
X10690Y12970
X10690Y13270
X11570Y11000
X11870Y11000
X12170Y11000
T05
X9950Y22338
X9950Y27062
T06
X13950Y10700
X34450Y12700
X34450Y23700
X14450Y29700
M30
