G75*
%MOIN*%
%OFA0B0*%
%FSLAX24Y24*%
%IPPOS*%
%LPD*%
%AMOC8*
5,1,8,0,0,1.08239X$1,22.5*
%
%ADD10C,0.1300*%
%ADD11C,0.0600*%
%ADD12OC8,0.0650*%
%ADD13OC8,0.1615*%
%ADD14C,0.0808*%
%ADD15OC8,0.0700*%
%ADD16C,0.1306*%
%ADD17C,0.0050*%
%ADD18R,0.0060X0.0720*%
D10*
X013950Y010700D03*
X034450Y012700D03*
X034450Y023700D03*
X014450Y029700D03*
D11*
X015850Y029840D02*
X015850Y029560D01*
X016850Y029560D02*
X016850Y029840D01*
X017850Y029840D02*
X017850Y029560D01*
X018850Y029560D02*
X018850Y029840D01*
X019850Y029840D02*
X019850Y029560D01*
X020850Y029560D02*
X020850Y029840D01*
X021850Y029840D02*
X021850Y029560D01*
X022850Y029560D02*
X022850Y029840D01*
X023850Y029840D02*
X023850Y029560D01*
X024850Y029560D02*
X024850Y029840D01*
X026450Y029840D02*
X026450Y029560D01*
X027450Y029560D02*
X027450Y029840D01*
X028450Y029840D02*
X028450Y029560D01*
X029450Y029560D02*
X029450Y029840D01*
X030450Y029840D02*
X030450Y029560D01*
X031450Y029560D02*
X031450Y029840D01*
X032450Y029840D02*
X032450Y029560D01*
X033450Y029560D02*
X033450Y029840D01*
X033200Y017790D02*
X033200Y017510D01*
X032200Y017510D02*
X032200Y017790D01*
X031200Y017790D02*
X031200Y017510D01*
X030200Y017510D02*
X030200Y017790D01*
X029200Y017790D02*
X029200Y017510D01*
X028200Y017510D02*
X028200Y017790D01*
X027200Y017790D02*
X027200Y017510D01*
X026200Y017510D02*
X026200Y017790D01*
X025200Y017790D02*
X025200Y017510D01*
X024200Y017510D02*
X024200Y017790D01*
X023200Y017790D02*
X023200Y017510D01*
X022200Y017510D02*
X022200Y017790D01*
X021200Y017790D02*
X021200Y017510D01*
X020200Y017510D02*
X020200Y017790D01*
X020200Y014790D02*
X020200Y014510D01*
X021200Y014510D02*
X021200Y014790D01*
X022200Y014790D02*
X022200Y014510D01*
X023200Y014510D02*
X023200Y014790D01*
X024200Y014790D02*
X024200Y014510D01*
X025200Y014510D02*
X025200Y014790D01*
X026200Y014790D02*
X026200Y014510D01*
X027200Y014510D02*
X027200Y014790D01*
X028200Y014790D02*
X028200Y014510D01*
X029200Y014510D02*
X029200Y014790D01*
X030200Y014790D02*
X030200Y014510D01*
X031200Y014510D02*
X031200Y014790D01*
X032200Y014790D02*
X032200Y014510D01*
X033200Y014510D02*
X033200Y014790D01*
X033450Y010840D02*
X033450Y010560D01*
X032450Y010560D02*
X032450Y010840D01*
X031450Y010840D02*
X031450Y010560D01*
X030450Y010560D02*
X030450Y010840D01*
X029450Y010840D02*
X029450Y010560D01*
X028450Y010560D02*
X028450Y010840D01*
X026450Y010840D02*
X026450Y010560D01*
X025450Y010560D02*
X025450Y010840D01*
X024450Y010840D02*
X024450Y010560D01*
X023450Y010560D02*
X023450Y010840D01*
X022450Y010840D02*
X022450Y010560D01*
X021450Y010560D02*
X021450Y010840D01*
X020450Y010840D02*
X020450Y010560D01*
X019450Y010560D02*
X019450Y010840D01*
D12*
X033500Y019700D03*
X034500Y019700D03*
X034500Y020700D03*
X033500Y020700D03*
X033500Y021700D03*
X034500Y021700D03*
X016650Y027400D03*
X015650Y027400D03*
X014650Y027400D03*
X014650Y028400D03*
X015650Y028400D03*
X016650Y028400D03*
D13*
X013050Y012970D03*
X010690Y012970D03*
X011870Y011000D03*
D14*
X011570Y011000D03*
X012170Y011000D03*
X013050Y012670D03*
X013050Y013270D03*
X010690Y013270D03*
X010690Y012670D03*
D15*
X014900Y020000D03*
X016900Y020000D03*
X011804Y024208D03*
X011017Y024208D03*
X011017Y025192D03*
X011804Y025192D03*
X015650Y025400D03*
X016650Y025400D03*
X016650Y026400D03*
X015650Y026400D03*
D16*
X009950Y027062D03*
X009950Y022338D03*
D17*
X012425Y026010D02*
X012875Y026010D01*
X012875Y025390D01*
X012425Y025390D01*
X012425Y026010D01*
X012425Y025439D02*
X012875Y025439D01*
X012875Y025488D02*
X012425Y025488D01*
X012425Y025537D02*
X012875Y025537D01*
X012875Y025586D02*
X012425Y025586D01*
X012425Y025635D02*
X012875Y025635D01*
X012875Y025684D02*
X012425Y025684D01*
X012425Y025733D02*
X012875Y025733D01*
X012875Y025782D02*
X012425Y025782D01*
X012425Y025831D02*
X012875Y025831D01*
X012875Y025880D02*
X012425Y025880D01*
X012425Y025929D02*
X012875Y025929D01*
X012875Y025978D02*
X012425Y025978D01*
X013025Y026010D02*
X013475Y026010D01*
X013475Y025390D01*
X013025Y025390D01*
X013025Y026010D01*
X013025Y025439D02*
X013475Y025439D01*
X013475Y025488D02*
X013025Y025488D01*
X013025Y025537D02*
X013475Y025537D01*
X013475Y025586D02*
X013025Y025586D01*
X013025Y025635D02*
X013475Y025635D01*
X013475Y025684D02*
X013025Y025684D01*
X013025Y025733D02*
X013475Y025733D01*
X013475Y025782D02*
X013025Y025782D01*
X013025Y025831D02*
X013475Y025831D01*
X013475Y025880D02*
X013025Y025880D01*
X013025Y025929D02*
X013475Y025929D01*
X013475Y025978D02*
X013025Y025978D01*
D18*
X012950Y025700D03*
M02*
