%
M48
M72
T01C0.0197
T02C0.0236
T03C0.0335
T04C0.0400
T05C0.0433
T06C0.0472
T07C0.0591
T08C0.0787
%
T01
X7003Y2682
X11403Y4082
X8603Y6182
X7703Y7282
X6403Y6182
X4303Y7782
X4503Y9782
X4703Y10982
X6203Y9782
X7003Y10282
X8503Y8782
X10503Y9782
X12328Y9782
X15578Y10157
X15703Y11807
X15103Y11782
X18490Y13986
X19490Y14386
X21090Y15186
X23990Y14286
X23403Y10532
X23803Y8582
X22003Y7182
X23303Y5882
X32526Y3548
X27903Y5582
X26603Y7082
X25803Y7382
X26603Y8582
X27103Y8882
X27903Y8282
X28503Y7482
X29403Y7482
X31403Y6682
X33303Y7882
X32003Y8682
X29403Y9782
X28303Y10182
X31303Y10682
X32303Y10982
X34803Y11082
X35453Y11282
X35953Y10782
X38578Y12282
X35953Y13157
X35453Y12782
X34828Y13582
X32303Y15082
X37903Y15682
X34978Y6982
X18403Y5482
X16903Y6282
X16903Y7682
X18953Y9782
X12828Y7407
X15003Y4482
X2803Y4382
X7903Y12282
X5203Y12582
T02
X36203Y4657
X36703Y10782
X4203Y14282
X17490Y12186
T03
X31972Y2823
X30063Y2823
T04
X38006Y7542
X37006Y7542
X37006Y8542
X38006Y8542
X38006Y9542
X37006Y9542
T05
X11057Y11109
X12041Y11109
X13026Y11109
X29671Y11109
X28687Y11109
X27703Y11109
T06
X9758Y2094
X9758Y4456
T07
X32425Y1642
X29610Y1642
T08
X30459Y13865
X26915Y13865
X10270Y13865
X13813Y13865
M30
