G75*
%MOIN*%
%OFA0B0*%
%FSLAX24Y24*%
%IPPOS*%
%LPD*%
%AMOC8*
5,1,8,0,0,1.08239X$1,22.5*
%
%ADD10C,0.0080*%
%ADD11C,0.0079*%
%ADD12C,0.0000*%
D10*
X001687Y016424D02*
X039679Y016424D01*
D11*
X002967Y001023D02*
X002990Y001086D01*
X003010Y001151D01*
X003026Y001217D01*
X003039Y001283D01*
X003047Y001350D01*
X003052Y001417D01*
X003053Y001485D01*
X003050Y001552D01*
X003043Y001620D01*
X003032Y001686D01*
X003018Y001752D01*
X003000Y001818D01*
X002978Y001881D01*
X002952Y001944D01*
X002923Y002005D01*
X002891Y002064D01*
X002855Y002122D01*
X002816Y002177D01*
X002774Y002230D01*
X002728Y002280D01*
X002681Y002328D01*
X002630Y002373D01*
X002577Y002414D01*
X002522Y002453D01*
X002464Y002489D01*
X002405Y002521D01*
X002344Y002550D01*
X002281Y002575D01*
X002217Y002597D01*
X002152Y002615D01*
X002086Y002629D01*
X002019Y002640D01*
X001952Y002646D01*
X001884Y002649D01*
X001817Y002648D01*
X001749Y002643D01*
X001682Y002634D01*
X001687Y002645D02*
X001687Y016424D01*
X012120Y003038D02*
X019203Y004382D01*
X019211Y004376D02*
X019221Y004443D01*
X019236Y004509D01*
X019254Y004575D01*
X019276Y004639D01*
X019302Y004701D01*
X019331Y004763D01*
X019363Y004822D01*
X019399Y004879D01*
X019438Y004935D01*
X019481Y004988D01*
X019526Y005038D01*
X019574Y005086D01*
X019624Y005131D01*
X019678Y005173D01*
X019733Y005212D01*
X019791Y005247D01*
X019850Y005280D01*
X019911Y005309D01*
X019974Y005334D01*
X020038Y005355D01*
X020104Y005373D01*
X020170Y005387D01*
X020237Y005398D01*
X020304Y005404D01*
X020372Y005407D01*
X020440Y005406D01*
X020507Y005401D01*
X020574Y005392D01*
X020641Y005379D01*
X020707Y005362D01*
X020771Y005342D01*
X020835Y005318D01*
X020896Y005290D01*
X020957Y005259D01*
X021015Y005225D01*
X021071Y005187D01*
X021125Y005146D01*
X021177Y005102D01*
X021226Y005055D01*
X021272Y005006D01*
X021315Y004954D01*
X021355Y004899D01*
X021392Y004843D01*
X021426Y004784D01*
X021456Y004723D01*
X021483Y004661D01*
X021507Y004597D01*
X021526Y004533D01*
X021542Y004467D01*
X021554Y004400D01*
X021562Y004333D01*
X021603Y004382D02*
X028656Y003038D01*
X028656Y001070D01*
X037711Y001070D01*
X037784Y001088D02*
X037763Y001152D01*
X037747Y001216D01*
X037734Y001282D01*
X037724Y001348D01*
X037719Y001414D01*
X037717Y001481D01*
X037719Y001547D01*
X037725Y001614D01*
X037734Y001680D01*
X037747Y001745D01*
X037764Y001809D01*
X037785Y001873D01*
X037809Y001935D01*
X037837Y001996D01*
X037867Y002055D01*
X037902Y002112D01*
X037939Y002167D01*
X037980Y002220D01*
X038023Y002270D01*
X038069Y002318D01*
X038118Y002364D01*
X038169Y002406D01*
X038223Y002446D01*
X038279Y002482D01*
X038337Y002515D01*
X038396Y002545D01*
X038457Y002571D01*
X038520Y002594D01*
X038584Y002614D01*
X038649Y002629D01*
X038714Y002641D01*
X038780Y002650D01*
X038847Y002654D01*
X038913Y002655D01*
X038980Y002652D01*
X039046Y002645D01*
X039112Y002634D01*
X039089Y002645D02*
X039089Y010125D01*
X039679Y010125D01*
X039679Y016424D01*
X012120Y003038D02*
X012120Y001070D01*
X003065Y001070D01*
D12*
X009522Y002094D02*
X009524Y002124D01*
X009530Y002154D01*
X009539Y002183D01*
X009552Y002210D01*
X009569Y002235D01*
X009588Y002258D01*
X009611Y002279D01*
X009636Y002296D01*
X009662Y002310D01*
X009691Y002320D01*
X009720Y002327D01*
X009750Y002330D01*
X009781Y002329D01*
X009811Y002324D01*
X009840Y002315D01*
X009867Y002303D01*
X009893Y002288D01*
X009917Y002269D01*
X009938Y002247D01*
X009956Y002223D01*
X009971Y002196D01*
X009982Y002168D01*
X009990Y002139D01*
X009994Y002109D01*
X009994Y002079D01*
X009990Y002049D01*
X009982Y002020D01*
X009971Y001992D01*
X009956Y001965D01*
X009938Y001941D01*
X009917Y001919D01*
X009893Y001900D01*
X009867Y001885D01*
X009840Y001873D01*
X009811Y001864D01*
X009781Y001859D01*
X009750Y001858D01*
X009720Y001861D01*
X009691Y001868D01*
X009662Y001878D01*
X009636Y001892D01*
X009611Y001909D01*
X009588Y001930D01*
X009569Y001953D01*
X009552Y001978D01*
X009539Y002005D01*
X009530Y002034D01*
X009524Y002064D01*
X009522Y002094D01*
X009522Y004456D02*
X009524Y004486D01*
X009530Y004516D01*
X009539Y004545D01*
X009552Y004572D01*
X009569Y004597D01*
X009588Y004620D01*
X009611Y004641D01*
X009636Y004658D01*
X009662Y004672D01*
X009691Y004682D01*
X009720Y004689D01*
X009750Y004692D01*
X009781Y004691D01*
X009811Y004686D01*
X009840Y004677D01*
X009867Y004665D01*
X009893Y004650D01*
X009917Y004631D01*
X009938Y004609D01*
X009956Y004585D01*
X009971Y004558D01*
X009982Y004530D01*
X009990Y004501D01*
X009994Y004471D01*
X009994Y004441D01*
X009990Y004411D01*
X009982Y004382D01*
X009971Y004354D01*
X009956Y004327D01*
X009938Y004303D01*
X009917Y004281D01*
X009893Y004262D01*
X009867Y004247D01*
X009840Y004235D01*
X009811Y004226D01*
X009781Y004221D01*
X009750Y004220D01*
X009720Y004223D01*
X009691Y004230D01*
X009662Y004240D01*
X009636Y004254D01*
X009611Y004271D01*
X009588Y004292D01*
X009569Y004315D01*
X009552Y004340D01*
X009539Y004367D01*
X009530Y004396D01*
X009524Y004426D01*
X009522Y004456D01*
M02*
