G75*
G70*
%OFA0B0*%
%FSLAX24Y24*%
%IPPOS*%
%LPD*%
%AMOC8*
5,1,8,0,0,1.08239X$1,22.5*
%
%ADD10R,0.0513X0.0828*%
%ADD11R,0.0474X0.0513*%
%ADD12C,0.0316*%
%ADD13C,0.0513*%
%ADD14R,0.0159X0.0474*%
%ADD15R,0.0474X0.0159*%
%ADD16R,0.0513X0.0474*%
%ADD17R,0.0300X0.0670*%
%ADD18R,0.0198X0.0470*%
%ADD19R,0.0828X0.0513*%
%ADD20R,0.0580X0.0830*%
%ADD21R,0.1580X0.0830*%
%ADD22R,0.0316X0.0395*%
%ADD23R,0.0277X0.0395*%
%ADD24R,0.0631X0.0710*%
%ADD25C,0.0770*%
%ADD26R,0.0257X0.0198*%
D10*
X003040Y003877D03*
X003946Y003877D03*
X003946Y005333D03*
X003040Y005333D03*
D11*
X003243Y006120D03*
X003243Y006790D03*
X003427Y010455D03*
X003427Y011105D03*
X002758Y011105D03*
X002758Y010455D03*
X002858Y013805D03*
X002227Y013805D03*
X001558Y013805D03*
X003527Y013805D03*
X007793Y008590D03*
X007793Y007920D03*
X005643Y003090D03*
X005643Y002420D03*
X004993Y002420D03*
X004993Y003090D03*
X004343Y003090D03*
X004343Y002420D03*
X003693Y002420D03*
X003693Y003090D03*
X003043Y003090D03*
X003043Y002420D03*
D12*
X004475Y012928D03*
X006011Y012928D03*
D13*
X006335Y013538D02*
X006335Y013972D01*
X004150Y013972D02*
X004150Y013538D01*
D14*
G36*
X005841Y010496D02*
X005953Y010384D01*
X005619Y010050D01*
X005507Y010162D01*
X005841Y010496D01*
G37*
G36*
X005980Y010357D02*
X006092Y010245D01*
X005758Y009911D01*
X005646Y010023D01*
X005980Y010357D01*
G37*
G36*
X006119Y010218D02*
X006231Y010106D01*
X005897Y009772D01*
X005785Y009884D01*
X006119Y010218D01*
G37*
G36*
X006259Y010079D02*
X006371Y009967D01*
X006037Y009633D01*
X005925Y009745D01*
X006259Y010079D01*
G37*
G36*
X006398Y009940D02*
X006510Y009828D01*
X006176Y009494D01*
X006064Y009606D01*
X006398Y009940D01*
G37*
G36*
X006537Y009800D02*
X006649Y009688D01*
X006315Y009354D01*
X006203Y009466D01*
X006537Y009800D01*
G37*
G36*
X006676Y009661D02*
X006788Y009549D01*
X006454Y009215D01*
X006342Y009327D01*
X006676Y009661D01*
G37*
G36*
X006815Y009522D02*
X006927Y009410D01*
X006593Y009076D01*
X006481Y009188D01*
X006815Y009522D01*
G37*
G36*
X006955Y009383D02*
X007067Y009271D01*
X006733Y008937D01*
X006621Y009049D01*
X006955Y009383D01*
G37*
G36*
X007094Y009244D02*
X007206Y009132D01*
X006872Y008798D01*
X006760Y008910D01*
X007094Y009244D01*
G37*
G36*
X007233Y009104D02*
X007345Y008992D01*
X007011Y008658D01*
X006899Y008770D01*
X007233Y009104D01*
G37*
G36*
X007372Y008965D02*
X007484Y008853D01*
X007150Y008519D01*
X007038Y008631D01*
X007372Y008965D01*
G37*
G36*
X004867Y006460D02*
X004979Y006348D01*
X004645Y006014D01*
X004533Y006126D01*
X004867Y006460D01*
G37*
G36*
X004727Y006599D02*
X004839Y006487D01*
X004505Y006153D01*
X004393Y006265D01*
X004727Y006599D01*
G37*
G36*
X004588Y006738D02*
X004700Y006626D01*
X004366Y006292D01*
X004254Y006404D01*
X004588Y006738D01*
G37*
G36*
X004449Y006877D02*
X004561Y006765D01*
X004227Y006431D01*
X004115Y006543D01*
X004449Y006877D01*
G37*
G36*
X004310Y007016D02*
X004422Y006904D01*
X004088Y006570D01*
X003976Y006682D01*
X004310Y007016D01*
G37*
G36*
X004171Y007156D02*
X004283Y007044D01*
X003949Y006710D01*
X003837Y006822D01*
X004171Y007156D01*
G37*
G36*
X004031Y007295D02*
X004143Y007183D01*
X003809Y006849D01*
X003697Y006961D01*
X004031Y007295D01*
G37*
G36*
X003892Y007434D02*
X004004Y007322D01*
X003670Y006988D01*
X003558Y007100D01*
X003892Y007434D01*
G37*
G36*
X003753Y007573D02*
X003865Y007461D01*
X003531Y007127D01*
X003419Y007239D01*
X003753Y007573D01*
G37*
G36*
X003614Y007712D02*
X003726Y007600D01*
X003392Y007266D01*
X003280Y007378D01*
X003614Y007712D01*
G37*
G36*
X003475Y007852D02*
X003587Y007740D01*
X003253Y007406D01*
X003141Y007518D01*
X003475Y007852D01*
G37*
G36*
X003335Y007991D02*
X003447Y007879D01*
X003113Y007545D01*
X003001Y007657D01*
X003335Y007991D01*
G37*
D15*
G36*
X003113Y008965D02*
X003447Y008631D01*
X003335Y008519D01*
X003001Y008853D01*
X003113Y008965D01*
G37*
G36*
X003253Y009104D02*
X003587Y008770D01*
X003475Y008658D01*
X003141Y008992D01*
X003253Y009104D01*
G37*
G36*
X003392Y009244D02*
X003726Y008910D01*
X003614Y008798D01*
X003280Y009132D01*
X003392Y009244D01*
G37*
G36*
X003531Y009383D02*
X003865Y009049D01*
X003753Y008937D01*
X003419Y009271D01*
X003531Y009383D01*
G37*
G36*
X003670Y009522D02*
X004004Y009188D01*
X003892Y009076D01*
X003558Y009410D01*
X003670Y009522D01*
G37*
G36*
X003809Y009661D02*
X004143Y009327D01*
X004031Y009215D01*
X003697Y009549D01*
X003809Y009661D01*
G37*
G36*
X003949Y009800D02*
X004283Y009466D01*
X004171Y009354D01*
X003837Y009688D01*
X003949Y009800D01*
G37*
G36*
X004088Y009940D02*
X004422Y009606D01*
X004310Y009494D01*
X003976Y009828D01*
X004088Y009940D01*
G37*
G36*
X004227Y010079D02*
X004561Y009745D01*
X004449Y009633D01*
X004115Y009967D01*
X004227Y010079D01*
G37*
G36*
X004366Y010218D02*
X004700Y009884D01*
X004588Y009772D01*
X004254Y010106D01*
X004366Y010218D01*
G37*
G36*
X004505Y010357D02*
X004839Y010023D01*
X004727Y009911D01*
X004393Y010245D01*
X004505Y010357D01*
G37*
G36*
X004645Y010496D02*
X004979Y010162D01*
X004867Y010050D01*
X004533Y010384D01*
X004645Y010496D01*
G37*
G36*
X006593Y007434D02*
X006927Y007100D01*
X006815Y006988D01*
X006481Y007322D01*
X006593Y007434D01*
G37*
G36*
X006454Y007295D02*
X006788Y006961D01*
X006676Y006849D01*
X006342Y007183D01*
X006454Y007295D01*
G37*
G36*
X006315Y007156D02*
X006649Y006822D01*
X006537Y006710D01*
X006203Y007044D01*
X006315Y007156D01*
G37*
G36*
X006176Y007016D02*
X006510Y006682D01*
X006398Y006570D01*
X006064Y006904D01*
X006176Y007016D01*
G37*
G36*
X006037Y006877D02*
X006371Y006543D01*
X006259Y006431D01*
X005925Y006765D01*
X006037Y006877D01*
G37*
G36*
X005897Y006738D02*
X006231Y006404D01*
X006119Y006292D01*
X005785Y006626D01*
X005897Y006738D01*
G37*
G36*
X005758Y006599D02*
X006092Y006265D01*
X005980Y006153D01*
X005646Y006487D01*
X005758Y006599D01*
G37*
G36*
X005619Y006460D02*
X005953Y006126D01*
X005841Y006014D01*
X005507Y006348D01*
X005619Y006460D01*
G37*
G36*
X006733Y007573D02*
X007067Y007239D01*
X006955Y007127D01*
X006621Y007461D01*
X006733Y007573D01*
G37*
G36*
X006872Y007712D02*
X007206Y007378D01*
X007094Y007266D01*
X006760Y007600D01*
X006872Y007712D01*
G37*
G36*
X007011Y007852D02*
X007345Y007518D01*
X007233Y007406D01*
X006899Y007740D01*
X007011Y007852D01*
G37*
G36*
X007150Y007991D02*
X007484Y007657D01*
X007372Y007545D01*
X007038Y007879D01*
X007150Y007991D01*
G37*
D16*
X005577Y005705D03*
X004908Y005705D03*
X005643Y004590D03*
X005643Y003920D03*
X005577Y010735D03*
X004908Y010735D03*
X003427Y011805D03*
X002758Y011805D03*
X006858Y012425D03*
X007308Y012955D03*
X007527Y012425D03*
X007977Y012955D03*
D17*
X007793Y005545D03*
X007293Y005545D03*
X006793Y005545D03*
X006293Y005545D03*
X006293Y002665D03*
X006793Y002665D03*
X007293Y002665D03*
X007793Y002665D03*
D18*
X003349Y012490D03*
X003093Y012490D03*
X002837Y012490D03*
X002837Y013124D03*
X003093Y013124D03*
X003349Y013124D03*
D19*
X004793Y004947D03*
X004793Y003963D03*
D20*
X005243Y011435D03*
X006153Y011435D03*
X004333Y011435D03*
D21*
X005243Y013875D03*
D22*
X006991Y010780D03*
X006991Y010190D03*
X007995Y010190D03*
X007995Y010780D03*
D23*
X007650Y010780D03*
X007335Y010780D03*
X007335Y010190D03*
X007650Y010190D03*
D24*
X007142Y013755D03*
X008244Y013755D03*
D25*
X001743Y001755D03*
X001743Y002755D03*
X001743Y003755D03*
X001743Y004755D03*
X001743Y005755D03*
X001743Y006755D03*
X001743Y007755D03*
X001743Y008755D03*
X001743Y009755D03*
X001743Y010755D03*
X001743Y011755D03*
X001743Y012755D03*
X008743Y012755D03*
X008743Y011755D03*
X008743Y010755D03*
X008743Y009755D03*
X008743Y008755D03*
X008743Y007755D03*
X008743Y006755D03*
X008743Y005755D03*
X008743Y004755D03*
X008743Y003755D03*
X008743Y002755D03*
X008743Y001755D03*
D26*
X007413Y011558D03*
X007413Y011755D03*
X007413Y011952D03*
X006881Y011952D03*
X006881Y011558D03*
M02*
