G04 (created by PCBNEW (2013-may-18)-stable) date Wed 19 Mar 2014 03:01:19 PM CET*
%MOIN*%
G04 Gerber Fmt 3.4, Leading zero omitted, Abs format*
%FSLAX34Y34*%
G01*
G70*
G90*
G04 APERTURE LIST*
%ADD10C,0.00590551*%
%ADD11C,0.00393701*%
%ADD12C,0.0039*%
%ADD13C,0.00392126*%
G04 APERTURE END LIST*
G54D10*
G54D11*
X15300Y-16500D02*
X15300Y-23500D01*
G54D12*
X29500Y-23700D02*
X15500Y-23700D01*
X29700Y-16500D02*
X29700Y-23500D01*
X15500Y-16300D02*
X29500Y-16300D01*
G54D13*
X15500Y-23700D02*
X15300Y-23500D01*
X29700Y-23500D02*
X29500Y-23700D01*
X29500Y-16300D02*
X29700Y-16500D01*
X15300Y-16500D02*
X15500Y-16300D01*
G54D10*
G36*
X16279Y-19370D02*
X15452Y-19370D01*
X15452Y-18463D01*
X16279Y-18463D01*
X16279Y-19370D01*
X16279Y-19370D01*
G37*
G36*
X16279Y-20374D02*
X15452Y-20374D01*
X15452Y-19547D01*
X16279Y-19547D01*
X16279Y-20374D01*
X16279Y-20374D01*
G37*
G36*
X16279Y-21318D02*
X15452Y-21318D01*
X15452Y-20491D01*
X16279Y-20491D01*
X16279Y-21318D01*
X16279Y-21318D01*
G37*
G36*
X16279Y-22402D02*
X15452Y-22402D01*
X15452Y-21495D01*
X16279Y-21495D01*
X16279Y-22402D01*
X16279Y-22402D01*
G37*
G36*
X16405Y-17953D02*
X16404Y-18042D01*
X16386Y-18123D01*
X16354Y-18194D01*
X16306Y-18262D01*
X16250Y-18315D01*
X16180Y-18360D01*
X16108Y-18388D01*
X16026Y-18402D01*
X15948Y-18400D01*
X15867Y-18383D01*
X15796Y-18352D01*
X15728Y-18304D01*
X15674Y-18248D01*
X15629Y-18178D01*
X15600Y-18107D01*
X15585Y-18024D01*
X15586Y-17947D01*
X15604Y-17866D01*
X15634Y-17795D01*
X15681Y-17726D01*
X15736Y-17672D01*
X15806Y-17626D01*
X15878Y-17597D01*
X15960Y-17582D01*
X16037Y-17582D01*
X16119Y-17599D01*
X16190Y-17629D01*
X16259Y-17676D01*
X16313Y-17730D01*
X16360Y-17800D01*
X16389Y-17871D01*
X16405Y-17953D01*
X16405Y-17953D01*
G37*
G36*
X16409Y-17011D02*
X16408Y-17100D01*
X16390Y-17181D01*
X16358Y-17252D01*
X16310Y-17319D01*
X16254Y-17373D01*
X16184Y-17417D01*
X16112Y-17445D01*
X16030Y-17460D01*
X15952Y-17458D01*
X15871Y-17440D01*
X15800Y-17409D01*
X15732Y-17362D01*
X15678Y-17306D01*
X15633Y-17236D01*
X15604Y-17164D01*
X15589Y-17082D01*
X15590Y-17005D01*
X15608Y-16923D01*
X15638Y-16853D01*
X15685Y-16784D01*
X15740Y-16730D01*
X15810Y-16684D01*
X15882Y-16655D01*
X15964Y-16640D01*
X16041Y-16640D01*
X16123Y-16657D01*
X16194Y-16687D01*
X16263Y-16734D01*
X16317Y-16788D01*
X16364Y-16858D01*
X16393Y-16929D01*
X16409Y-17011D01*
X16409Y-17011D01*
G37*
G36*
X16409Y-23011D02*
X16408Y-23100D01*
X16390Y-23181D01*
X16358Y-23252D01*
X16310Y-23319D01*
X16254Y-23373D01*
X16184Y-23417D01*
X16112Y-23445D01*
X16030Y-23460D01*
X15952Y-23458D01*
X15871Y-23440D01*
X15800Y-23409D01*
X15732Y-23362D01*
X15678Y-23306D01*
X15633Y-23236D01*
X15604Y-23164D01*
X15589Y-23082D01*
X15590Y-23005D01*
X15608Y-22923D01*
X15638Y-22853D01*
X15685Y-22784D01*
X15740Y-22730D01*
X15810Y-22684D01*
X15882Y-22655D01*
X15964Y-22640D01*
X16041Y-22640D01*
X16123Y-22657D01*
X16194Y-22687D01*
X16263Y-22734D01*
X16317Y-22788D01*
X16364Y-22858D01*
X16393Y-22929D01*
X16409Y-23011D01*
X16409Y-23011D01*
G37*
G36*
X17224Y-19666D02*
X16515Y-19666D01*
X16515Y-18759D01*
X17224Y-18759D01*
X17224Y-19666D01*
X17224Y-19666D01*
G37*
G36*
X17224Y-22106D02*
X16515Y-22106D01*
X16515Y-21199D01*
X17224Y-21199D01*
X17224Y-22106D01*
X17224Y-22106D01*
G37*
G36*
X17405Y-17953D02*
X17404Y-18042D01*
X17386Y-18123D01*
X17354Y-18194D01*
X17306Y-18262D01*
X17250Y-18315D01*
X17180Y-18360D01*
X17108Y-18388D01*
X17026Y-18402D01*
X16948Y-18400D01*
X16867Y-18383D01*
X16796Y-18352D01*
X16728Y-18304D01*
X16674Y-18248D01*
X16629Y-18178D01*
X16600Y-18107D01*
X16585Y-18024D01*
X16586Y-17947D01*
X16604Y-17866D01*
X16634Y-17795D01*
X16681Y-17726D01*
X16736Y-17672D01*
X16806Y-17626D01*
X16878Y-17597D01*
X16960Y-17582D01*
X17037Y-17582D01*
X17119Y-17599D01*
X17190Y-17629D01*
X17259Y-17676D01*
X17313Y-17730D01*
X17360Y-17800D01*
X17389Y-17871D01*
X17405Y-17953D01*
X17405Y-17953D01*
G37*
G36*
X17409Y-16911D02*
X17408Y-17000D01*
X17390Y-17081D01*
X17358Y-17152D01*
X17310Y-17219D01*
X17254Y-17273D01*
X17184Y-17317D01*
X17112Y-17345D01*
X17030Y-17360D01*
X16952Y-17358D01*
X16871Y-17340D01*
X16800Y-17309D01*
X16732Y-17262D01*
X16678Y-17206D01*
X16633Y-17136D01*
X16604Y-17064D01*
X16589Y-16982D01*
X16590Y-16905D01*
X16608Y-16823D01*
X16638Y-16753D01*
X16685Y-16684D01*
X16740Y-16630D01*
X16810Y-16584D01*
X16882Y-16555D01*
X16964Y-16540D01*
X17041Y-16540D01*
X17123Y-16557D01*
X17194Y-16587D01*
X17263Y-16634D01*
X17317Y-16688D01*
X17364Y-16758D01*
X17393Y-16829D01*
X17409Y-16911D01*
X17409Y-16911D01*
G37*
G36*
X17409Y-22911D02*
X17408Y-23000D01*
X17390Y-23081D01*
X17358Y-23152D01*
X17310Y-23219D01*
X17254Y-23273D01*
X17184Y-23317D01*
X17112Y-23345D01*
X17030Y-23360D01*
X16952Y-23358D01*
X16871Y-23340D01*
X16800Y-23309D01*
X16732Y-23262D01*
X16678Y-23206D01*
X16633Y-23136D01*
X16604Y-23064D01*
X16589Y-22982D01*
X16590Y-22905D01*
X16608Y-22823D01*
X16638Y-22753D01*
X16685Y-22684D01*
X16740Y-22630D01*
X16810Y-22584D01*
X16882Y-22555D01*
X16964Y-22540D01*
X17041Y-22540D01*
X17123Y-22557D01*
X17194Y-22587D01*
X17263Y-22634D01*
X17317Y-22688D01*
X17364Y-22758D01*
X17393Y-22829D01*
X17409Y-22911D01*
X17409Y-22911D01*
G37*
G36*
X17460Y-21062D02*
X16593Y-21062D01*
X16593Y-20829D01*
X16593Y-20821D01*
X16593Y-20810D01*
X16593Y-20802D01*
X16593Y-20574D01*
X16593Y-20566D01*
X16593Y-20554D01*
X16593Y-20546D01*
X16593Y-20319D01*
X16593Y-20311D01*
X16593Y-20299D01*
X16593Y-20291D01*
X16593Y-20063D01*
X16593Y-20055D01*
X16593Y-20044D01*
X16593Y-20036D01*
X16593Y-19803D01*
X17460Y-19803D01*
X17460Y-20036D01*
X17460Y-20044D01*
X17460Y-20055D01*
X17460Y-20063D01*
X17460Y-20291D01*
X17460Y-20299D01*
X17460Y-20311D01*
X17460Y-20319D01*
X17460Y-20546D01*
X17460Y-20554D01*
X17460Y-20566D01*
X17460Y-20574D01*
X17460Y-20802D01*
X17460Y-20810D01*
X17460Y-20821D01*
X17460Y-20829D01*
X17460Y-21062D01*
X17460Y-21062D01*
G37*
G36*
X17992Y-19183D02*
X17676Y-19183D01*
X17676Y-18848D01*
X17992Y-18848D01*
X17992Y-19183D01*
X17992Y-19183D01*
G37*
G36*
X17992Y-19577D02*
X17676Y-19577D01*
X17676Y-19241D01*
X17992Y-19241D01*
X17992Y-19577D01*
X17992Y-19577D01*
G37*
G36*
X17992Y-19970D02*
X17676Y-19970D01*
X17676Y-19635D01*
X17992Y-19635D01*
X17992Y-19970D01*
X17992Y-19970D01*
G37*
G36*
X17992Y-20364D02*
X17676Y-20364D01*
X17676Y-20029D01*
X17992Y-20029D01*
X17992Y-20364D01*
X17992Y-20364D01*
G37*
G36*
X18386Y-19183D02*
X18070Y-19183D01*
X18070Y-18848D01*
X18386Y-18848D01*
X18386Y-19183D01*
X18386Y-19183D01*
G37*
G36*
X18386Y-19577D02*
X18070Y-19577D01*
X18070Y-19241D01*
X18386Y-19241D01*
X18386Y-19577D01*
X18386Y-19577D01*
G37*
G36*
X18386Y-19970D02*
X18070Y-19970D01*
X18070Y-19635D01*
X18386Y-19635D01*
X18386Y-19970D01*
X18386Y-19970D01*
G37*
G36*
X18386Y-20364D02*
X18070Y-20364D01*
X18070Y-20029D01*
X18386Y-20029D01*
X18386Y-20364D01*
X18386Y-20364D01*
G37*
G36*
X18409Y-17011D02*
X18408Y-17100D01*
X18390Y-17181D01*
X18358Y-17252D01*
X18310Y-17319D01*
X18254Y-17373D01*
X18184Y-17417D01*
X18112Y-17445D01*
X18030Y-17460D01*
X17952Y-17458D01*
X17871Y-17440D01*
X17800Y-17409D01*
X17732Y-17362D01*
X17678Y-17306D01*
X17633Y-17236D01*
X17604Y-17164D01*
X17589Y-17082D01*
X17590Y-17005D01*
X17608Y-16923D01*
X17638Y-16853D01*
X17685Y-16784D01*
X17740Y-16730D01*
X17810Y-16684D01*
X17882Y-16655D01*
X17964Y-16640D01*
X18041Y-16640D01*
X18123Y-16657D01*
X18194Y-16687D01*
X18263Y-16734D01*
X18317Y-16788D01*
X18364Y-16858D01*
X18393Y-16929D01*
X18409Y-17011D01*
X18409Y-17011D01*
G37*
G36*
X18409Y-23011D02*
X18408Y-23100D01*
X18390Y-23181D01*
X18358Y-23252D01*
X18310Y-23319D01*
X18254Y-23373D01*
X18184Y-23417D01*
X18112Y-23445D01*
X18030Y-23460D01*
X17952Y-23458D01*
X17871Y-23440D01*
X17800Y-23409D01*
X17732Y-23362D01*
X17678Y-23306D01*
X17633Y-23236D01*
X17604Y-23164D01*
X17589Y-23082D01*
X17590Y-23005D01*
X17608Y-22923D01*
X17638Y-22853D01*
X17685Y-22784D01*
X17740Y-22730D01*
X17810Y-22684D01*
X17882Y-22655D01*
X17964Y-22640D01*
X18041Y-22640D01*
X18123Y-22657D01*
X18194Y-22687D01*
X18263Y-22734D01*
X18317Y-22788D01*
X18364Y-22858D01*
X18393Y-22929D01*
X18409Y-23011D01*
X18409Y-23011D01*
G37*
G36*
X18563Y-18524D02*
X17972Y-18524D01*
X17972Y-17932D01*
X18563Y-17932D01*
X18563Y-18524D01*
X18563Y-18524D01*
G37*
G36*
X19144Y-18189D02*
X18808Y-18189D01*
X18808Y-17873D01*
X19144Y-17873D01*
X19144Y-18189D01*
X19144Y-18189D01*
G37*
G36*
X19144Y-18583D02*
X18808Y-18583D01*
X18808Y-18267D01*
X19144Y-18267D01*
X19144Y-18583D01*
X19144Y-18583D01*
G37*
G36*
X19183Y-21772D02*
X18848Y-21772D01*
X18848Y-21456D01*
X19183Y-21456D01*
X19183Y-21772D01*
X19183Y-21772D01*
G37*
G36*
X19183Y-22165D02*
X18848Y-22165D01*
X18848Y-21850D01*
X19183Y-21850D01*
X19183Y-22165D01*
X19183Y-22165D01*
G37*
G36*
X19336Y-21170D02*
X18666Y-21170D01*
X18666Y-20996D01*
X18666Y-20989D01*
X18666Y-20977D01*
X18666Y-20970D01*
X18666Y-20799D01*
X18666Y-20792D01*
X18666Y-20780D01*
X18666Y-20773D01*
X18666Y-20603D01*
X18666Y-20596D01*
X18666Y-20583D01*
X18666Y-20576D01*
X18666Y-20406D01*
X18666Y-20399D01*
X18666Y-20387D01*
X18666Y-20380D01*
X18666Y-20209D01*
X18666Y-20202D01*
X18666Y-20190D01*
X18666Y-20183D01*
X18666Y-20013D01*
X18666Y-20006D01*
X18666Y-19993D01*
X18666Y-19986D01*
X18666Y-19816D01*
X18666Y-19809D01*
X18666Y-19797D01*
X18666Y-19790D01*
X18666Y-19619D01*
X18666Y-19612D01*
X18666Y-19600D01*
X18666Y-19593D01*
X18666Y-19423D01*
X18666Y-19416D01*
X18666Y-19403D01*
X18666Y-19396D01*
X18666Y-19226D01*
X18666Y-19219D01*
X18666Y-19207D01*
X18666Y-19200D01*
X18666Y-19029D01*
X18666Y-19022D01*
X18666Y-19010D01*
X18666Y-19003D01*
X18666Y-18829D01*
X19336Y-18829D01*
X19336Y-19003D01*
X19336Y-19010D01*
X19336Y-19022D01*
X19336Y-19029D01*
X19336Y-19200D01*
X19336Y-19207D01*
X19336Y-19219D01*
X19336Y-19226D01*
X19336Y-19396D01*
X19336Y-19403D01*
X19336Y-19416D01*
X19336Y-19423D01*
X19336Y-19593D01*
X19336Y-19600D01*
X19336Y-19612D01*
X19336Y-19619D01*
X19336Y-19790D01*
X19336Y-19797D01*
X19336Y-19809D01*
X19336Y-19816D01*
X19336Y-19986D01*
X19336Y-19993D01*
X19336Y-20006D01*
X19336Y-20013D01*
X19336Y-20183D01*
X19336Y-20190D01*
X19336Y-20202D01*
X19336Y-20209D01*
X19336Y-20380D01*
X19336Y-20387D01*
X19336Y-20399D01*
X19336Y-20406D01*
X19336Y-20576D01*
X19336Y-20583D01*
X19336Y-20596D01*
X19336Y-20603D01*
X19336Y-20773D01*
X19336Y-20780D01*
X19336Y-20792D01*
X19336Y-20799D01*
X19336Y-20970D01*
X19336Y-20977D01*
X19336Y-20989D01*
X19336Y-20996D01*
X19336Y-21170D01*
X19336Y-21170D01*
G37*
G36*
X19409Y-16911D02*
X19408Y-17000D01*
X19390Y-17081D01*
X19358Y-17152D01*
X19310Y-17219D01*
X19254Y-17273D01*
X19184Y-17317D01*
X19112Y-17345D01*
X19030Y-17360D01*
X18952Y-17358D01*
X18871Y-17340D01*
X18800Y-17309D01*
X18732Y-17262D01*
X18678Y-17206D01*
X18633Y-17136D01*
X18604Y-17064D01*
X18589Y-16982D01*
X18590Y-16905D01*
X18608Y-16823D01*
X18638Y-16753D01*
X18685Y-16684D01*
X18740Y-16630D01*
X18810Y-16584D01*
X18882Y-16555D01*
X18964Y-16540D01*
X19041Y-16540D01*
X19123Y-16557D01*
X19194Y-16587D01*
X19263Y-16634D01*
X19317Y-16688D01*
X19364Y-16758D01*
X19393Y-16829D01*
X19409Y-16911D01*
X19409Y-16911D01*
G37*
G36*
X19409Y-22911D02*
X19408Y-23000D01*
X19390Y-23081D01*
X19358Y-23152D01*
X19310Y-23219D01*
X19254Y-23273D01*
X19184Y-23317D01*
X19112Y-23345D01*
X19030Y-23360D01*
X18952Y-23358D01*
X18871Y-23340D01*
X18800Y-23309D01*
X18732Y-23262D01*
X18678Y-23206D01*
X18633Y-23136D01*
X18604Y-23064D01*
X18589Y-22982D01*
X18590Y-22905D01*
X18608Y-22823D01*
X18638Y-22753D01*
X18685Y-22684D01*
X18740Y-22630D01*
X18810Y-22584D01*
X18882Y-22555D01*
X18964Y-22540D01*
X19041Y-22540D01*
X19123Y-22557D01*
X19194Y-22587D01*
X19263Y-22634D01*
X19317Y-22688D01*
X19364Y-22758D01*
X19393Y-22829D01*
X19409Y-22911D01*
X19409Y-22911D01*
G37*
G36*
X20409Y-17011D02*
X20408Y-17100D01*
X20390Y-17181D01*
X20358Y-17252D01*
X20310Y-17319D01*
X20254Y-17373D01*
X20184Y-17417D01*
X20112Y-17445D01*
X20030Y-17460D01*
X19952Y-17458D01*
X19871Y-17440D01*
X19800Y-17409D01*
X19732Y-17362D01*
X19678Y-17306D01*
X19633Y-17236D01*
X19604Y-17164D01*
X19589Y-17082D01*
X19590Y-17005D01*
X19608Y-16923D01*
X19638Y-16853D01*
X19685Y-16784D01*
X19740Y-16730D01*
X19810Y-16684D01*
X19882Y-16655D01*
X19964Y-16640D01*
X20041Y-16640D01*
X20123Y-16657D01*
X20194Y-16687D01*
X20263Y-16734D01*
X20317Y-16788D01*
X20364Y-16858D01*
X20393Y-16929D01*
X20409Y-17011D01*
X20409Y-17011D01*
G37*
G36*
X20409Y-23011D02*
X20408Y-23100D01*
X20390Y-23181D01*
X20358Y-23252D01*
X20310Y-23319D01*
X20254Y-23373D01*
X20184Y-23417D01*
X20112Y-23445D01*
X20030Y-23460D01*
X19952Y-23458D01*
X19871Y-23440D01*
X19800Y-23409D01*
X19732Y-23362D01*
X19678Y-23306D01*
X19633Y-23236D01*
X19604Y-23164D01*
X19589Y-23082D01*
X19590Y-23005D01*
X19608Y-22923D01*
X19638Y-22853D01*
X19685Y-22784D01*
X19740Y-22730D01*
X19810Y-22684D01*
X19882Y-22655D01*
X19964Y-22640D01*
X20041Y-22640D01*
X20123Y-22657D01*
X20194Y-22687D01*
X20263Y-22734D01*
X20317Y-22788D01*
X20364Y-22858D01*
X20393Y-22929D01*
X20409Y-23011D01*
X20409Y-23011D01*
G37*
G36*
X21409Y-16911D02*
X21408Y-17000D01*
X21390Y-17081D01*
X21358Y-17152D01*
X21310Y-17219D01*
X21254Y-17273D01*
X21184Y-17317D01*
X21112Y-17345D01*
X21030Y-17360D01*
X20952Y-17358D01*
X20871Y-17340D01*
X20800Y-17309D01*
X20732Y-17262D01*
X20678Y-17206D01*
X20633Y-17136D01*
X20604Y-17064D01*
X20589Y-16982D01*
X20590Y-16905D01*
X20608Y-16823D01*
X20638Y-16753D01*
X20685Y-16684D01*
X20740Y-16630D01*
X20810Y-16584D01*
X20882Y-16555D01*
X20964Y-16540D01*
X21041Y-16540D01*
X21123Y-16557D01*
X21194Y-16587D01*
X21263Y-16634D01*
X21317Y-16688D01*
X21364Y-16758D01*
X21393Y-16829D01*
X21409Y-16911D01*
X21409Y-16911D01*
G37*
G36*
X21409Y-22911D02*
X21408Y-23000D01*
X21390Y-23081D01*
X21358Y-23152D01*
X21310Y-23219D01*
X21254Y-23273D01*
X21184Y-23317D01*
X21112Y-23345D01*
X21030Y-23360D01*
X20952Y-23358D01*
X20871Y-23340D01*
X20800Y-23309D01*
X20732Y-23262D01*
X20678Y-23206D01*
X20633Y-23136D01*
X20604Y-23064D01*
X20589Y-22982D01*
X20590Y-22905D01*
X20608Y-22823D01*
X20638Y-22753D01*
X20685Y-22684D01*
X20740Y-22630D01*
X20810Y-22584D01*
X20882Y-22555D01*
X20964Y-22540D01*
X21041Y-22540D01*
X21123Y-22557D01*
X21194Y-22587D01*
X21263Y-22634D01*
X21317Y-22688D01*
X21364Y-22758D01*
X21393Y-22829D01*
X21409Y-22911D01*
X21409Y-22911D01*
G37*
G36*
X21864Y-18642D02*
X21690Y-18642D01*
X21682Y-18642D01*
X21671Y-18642D01*
X21663Y-18642D01*
X21493Y-18642D01*
X21485Y-18642D01*
X21474Y-18642D01*
X21466Y-18642D01*
X21297Y-18642D01*
X21289Y-18642D01*
X21277Y-18642D01*
X21269Y-18642D01*
X21100Y-18642D01*
X21092Y-18642D01*
X21081Y-18642D01*
X21073Y-18642D01*
X20903Y-18642D01*
X20895Y-18642D01*
X20884Y-18642D01*
X20876Y-18642D01*
X20707Y-18642D01*
X20699Y-18642D01*
X20687Y-18642D01*
X20679Y-18642D01*
X20510Y-18642D01*
X20502Y-18642D01*
X20491Y-18642D01*
X20483Y-18642D01*
X20313Y-18642D01*
X20305Y-18642D01*
X20294Y-18642D01*
X20286Y-18642D01*
X20117Y-18642D01*
X20109Y-18642D01*
X20097Y-18642D01*
X20089Y-18642D01*
X19920Y-18642D01*
X19912Y-18642D01*
X19901Y-18642D01*
X19893Y-18642D01*
X19723Y-18642D01*
X19715Y-18642D01*
X19704Y-18642D01*
X19696Y-18642D01*
X19522Y-18642D01*
X19522Y-17973D01*
X19696Y-17973D01*
X19704Y-17973D01*
X19715Y-17973D01*
X19723Y-17973D01*
X19893Y-17973D01*
X19901Y-17973D01*
X19912Y-17973D01*
X19920Y-17973D01*
X20089Y-17973D01*
X20097Y-17973D01*
X20109Y-17973D01*
X20117Y-17973D01*
X20286Y-17973D01*
X20294Y-17973D01*
X20305Y-17973D01*
X20313Y-17973D01*
X20483Y-17973D01*
X20491Y-17973D01*
X20502Y-17973D01*
X20510Y-17973D01*
X20679Y-17973D01*
X20687Y-17973D01*
X20699Y-17973D01*
X20707Y-17973D01*
X20876Y-17973D01*
X20884Y-17973D01*
X20895Y-17973D01*
X20903Y-17973D01*
X21073Y-17973D01*
X21081Y-17973D01*
X21092Y-17973D01*
X21100Y-17973D01*
X21269Y-17973D01*
X21277Y-17973D01*
X21289Y-17973D01*
X21297Y-17973D01*
X21466Y-17973D01*
X21474Y-17973D01*
X21485Y-17973D01*
X21493Y-17973D01*
X21663Y-17973D01*
X21671Y-17973D01*
X21682Y-17973D01*
X21690Y-17973D01*
X21864Y-17973D01*
X21864Y-18642D01*
X21864Y-18642D01*
G37*
G36*
X21864Y-22026D02*
X21690Y-22026D01*
X21682Y-22026D01*
X21671Y-22026D01*
X21663Y-22026D01*
X21493Y-22026D01*
X21485Y-22026D01*
X21474Y-22026D01*
X21466Y-22026D01*
X21297Y-22026D01*
X21289Y-22026D01*
X21277Y-22026D01*
X21269Y-22026D01*
X21100Y-22026D01*
X21092Y-22026D01*
X21081Y-22026D01*
X21073Y-22026D01*
X20903Y-22026D01*
X20895Y-22026D01*
X20884Y-22026D01*
X20876Y-22026D01*
X20707Y-22026D01*
X20699Y-22026D01*
X20687Y-22026D01*
X20679Y-22026D01*
X20510Y-22026D01*
X20502Y-22026D01*
X20491Y-22026D01*
X20483Y-22026D01*
X20313Y-22026D01*
X20305Y-22026D01*
X20294Y-22026D01*
X20286Y-22026D01*
X20117Y-22026D01*
X20109Y-22026D01*
X20097Y-22026D01*
X20089Y-22026D01*
X19920Y-22026D01*
X19912Y-22026D01*
X19901Y-22026D01*
X19893Y-22026D01*
X19723Y-22026D01*
X19715Y-22026D01*
X19704Y-22026D01*
X19696Y-22026D01*
X19522Y-22026D01*
X19522Y-21357D01*
X19696Y-21357D01*
X19704Y-21357D01*
X19715Y-21357D01*
X19723Y-21357D01*
X19893Y-21357D01*
X19901Y-21357D01*
X19912Y-21357D01*
X19920Y-21357D01*
X20089Y-21357D01*
X20097Y-21357D01*
X20109Y-21357D01*
X20117Y-21357D01*
X20286Y-21357D01*
X20294Y-21357D01*
X20305Y-21357D01*
X20313Y-21357D01*
X20483Y-21357D01*
X20491Y-21357D01*
X20502Y-21357D01*
X20510Y-21357D01*
X20679Y-21357D01*
X20687Y-21357D01*
X20699Y-21357D01*
X20707Y-21357D01*
X20876Y-21357D01*
X20884Y-21357D01*
X20895Y-21357D01*
X20903Y-21357D01*
X21073Y-21357D01*
X21081Y-21357D01*
X21092Y-21357D01*
X21100Y-21357D01*
X21269Y-21357D01*
X21277Y-21357D01*
X21289Y-21357D01*
X21297Y-21357D01*
X21466Y-21357D01*
X21474Y-21357D01*
X21485Y-21357D01*
X21493Y-21357D01*
X21663Y-21357D01*
X21671Y-21357D01*
X21682Y-21357D01*
X21690Y-21357D01*
X21864Y-21357D01*
X21864Y-22026D01*
X21864Y-22026D01*
G37*
G36*
X22401Y-21899D02*
X22086Y-21899D01*
X22086Y-21564D01*
X22401Y-21564D01*
X22401Y-21899D01*
X22401Y-21899D01*
G37*
G36*
X22409Y-17011D02*
X22408Y-17100D01*
X22390Y-17181D01*
X22358Y-17252D01*
X22310Y-17319D01*
X22254Y-17373D01*
X22184Y-17417D01*
X22112Y-17445D01*
X22030Y-17460D01*
X21952Y-17458D01*
X21871Y-17440D01*
X21800Y-17409D01*
X21732Y-17362D01*
X21678Y-17306D01*
X21633Y-17236D01*
X21604Y-17164D01*
X21589Y-17082D01*
X21590Y-17005D01*
X21608Y-16923D01*
X21638Y-16853D01*
X21685Y-16784D01*
X21740Y-16730D01*
X21810Y-16684D01*
X21882Y-16655D01*
X21964Y-16640D01*
X22041Y-16640D01*
X22123Y-16657D01*
X22194Y-16687D01*
X22263Y-16734D01*
X22317Y-16788D01*
X22364Y-16858D01*
X22393Y-16929D01*
X22409Y-17011D01*
X22409Y-17011D01*
G37*
G36*
X22409Y-23011D02*
X22408Y-23100D01*
X22390Y-23181D01*
X22358Y-23252D01*
X22310Y-23319D01*
X22254Y-23373D01*
X22184Y-23417D01*
X22112Y-23445D01*
X22030Y-23460D01*
X21952Y-23458D01*
X21871Y-23440D01*
X21800Y-23409D01*
X21732Y-23362D01*
X21678Y-23306D01*
X21633Y-23236D01*
X21604Y-23164D01*
X21589Y-23082D01*
X21590Y-23005D01*
X21608Y-22923D01*
X21638Y-22853D01*
X21685Y-22784D01*
X21740Y-22730D01*
X21810Y-22684D01*
X21882Y-22655D01*
X21964Y-22640D01*
X22041Y-22640D01*
X22123Y-22657D01*
X22194Y-22687D01*
X22263Y-22734D01*
X22317Y-22788D01*
X22364Y-22858D01*
X22393Y-22929D01*
X22409Y-23011D01*
X22409Y-23011D01*
G37*
G36*
X22720Y-21170D02*
X22050Y-21170D01*
X22050Y-20996D01*
X22050Y-20989D01*
X22050Y-20977D01*
X22050Y-20970D01*
X22050Y-20799D01*
X22050Y-20792D01*
X22050Y-20780D01*
X22050Y-20773D01*
X22050Y-20603D01*
X22050Y-20596D01*
X22050Y-20583D01*
X22050Y-20576D01*
X22050Y-20406D01*
X22050Y-20399D01*
X22050Y-20387D01*
X22050Y-20380D01*
X22050Y-20209D01*
X22050Y-20202D01*
X22050Y-20190D01*
X22050Y-20183D01*
X22050Y-20013D01*
X22050Y-20006D01*
X22050Y-19993D01*
X22050Y-19986D01*
X22050Y-19816D01*
X22050Y-19809D01*
X22050Y-19797D01*
X22050Y-19790D01*
X22050Y-19619D01*
X22050Y-19612D01*
X22050Y-19600D01*
X22050Y-19593D01*
X22050Y-19423D01*
X22050Y-19416D01*
X22050Y-19403D01*
X22050Y-19396D01*
X22050Y-19226D01*
X22050Y-19219D01*
X22050Y-19207D01*
X22050Y-19200D01*
X22050Y-19029D01*
X22050Y-19022D01*
X22050Y-19010D01*
X22050Y-19003D01*
X22050Y-18829D01*
X22720Y-18829D01*
X22720Y-19003D01*
X22720Y-19010D01*
X22720Y-19022D01*
X22720Y-19029D01*
X22720Y-19200D01*
X22720Y-19207D01*
X22720Y-19219D01*
X22720Y-19226D01*
X22720Y-19396D01*
X22720Y-19403D01*
X22720Y-19416D01*
X22720Y-19423D01*
X22720Y-19593D01*
X22720Y-19600D01*
X22720Y-19612D01*
X22720Y-19619D01*
X22720Y-19790D01*
X22720Y-19797D01*
X22720Y-19809D01*
X22720Y-19816D01*
X22720Y-19986D01*
X22720Y-19993D01*
X22720Y-20006D01*
X22720Y-20013D01*
X22720Y-20183D01*
X22720Y-20190D01*
X22720Y-20202D01*
X22720Y-20209D01*
X22720Y-20380D01*
X22720Y-20387D01*
X22720Y-20399D01*
X22720Y-20406D01*
X22720Y-20576D01*
X22720Y-20583D01*
X22720Y-20596D01*
X22720Y-20603D01*
X22720Y-20773D01*
X22720Y-20780D01*
X22720Y-20792D01*
X22720Y-20799D01*
X22720Y-20970D01*
X22720Y-20977D01*
X22720Y-20989D01*
X22720Y-20996D01*
X22720Y-21170D01*
X22720Y-21170D01*
G37*
G36*
X22795Y-21899D02*
X22479Y-21899D01*
X22479Y-21564D01*
X22795Y-21564D01*
X22795Y-21899D01*
X22795Y-21899D01*
G37*
G36*
X23409Y-16911D02*
X23408Y-17000D01*
X23390Y-17081D01*
X23358Y-17152D01*
X23310Y-17219D01*
X23254Y-17273D01*
X23184Y-17317D01*
X23112Y-17345D01*
X23030Y-17360D01*
X22952Y-17358D01*
X22871Y-17340D01*
X22800Y-17309D01*
X22732Y-17262D01*
X22678Y-17206D01*
X22633Y-17136D01*
X22604Y-17064D01*
X22589Y-16982D01*
X22590Y-16905D01*
X22608Y-16823D01*
X22638Y-16753D01*
X22685Y-16684D01*
X22740Y-16630D01*
X22810Y-16584D01*
X22882Y-16555D01*
X22964Y-16540D01*
X23041Y-16540D01*
X23123Y-16557D01*
X23194Y-16587D01*
X23263Y-16634D01*
X23317Y-16688D01*
X23364Y-16758D01*
X23393Y-16829D01*
X23409Y-16911D01*
X23409Y-16911D01*
G37*
G36*
X23409Y-22911D02*
X23408Y-23000D01*
X23390Y-23081D01*
X23358Y-23152D01*
X23310Y-23219D01*
X23254Y-23273D01*
X23184Y-23317D01*
X23112Y-23345D01*
X23030Y-23360D01*
X22952Y-23358D01*
X22871Y-23340D01*
X22800Y-23309D01*
X22732Y-23262D01*
X22678Y-23206D01*
X22633Y-23136D01*
X22604Y-23064D01*
X22589Y-22982D01*
X22590Y-22905D01*
X22608Y-22823D01*
X22638Y-22753D01*
X22685Y-22684D01*
X22740Y-22630D01*
X22810Y-22584D01*
X22882Y-22555D01*
X22964Y-22540D01*
X23041Y-22540D01*
X23123Y-22557D01*
X23194Y-22587D01*
X23263Y-22634D01*
X23317Y-22688D01*
X23364Y-22758D01*
X23393Y-22829D01*
X23409Y-22911D01*
X23409Y-22911D01*
G37*
G36*
X23622Y-20128D02*
X23306Y-20128D01*
X23306Y-19792D01*
X23622Y-19792D01*
X23622Y-20128D01*
X23622Y-20128D01*
G37*
G36*
X23622Y-20522D02*
X23306Y-20522D01*
X23306Y-20186D01*
X23622Y-20186D01*
X23622Y-20522D01*
X23622Y-20522D01*
G37*
G36*
X23720Y-19724D02*
X23327Y-19724D01*
X23327Y-19330D01*
X23720Y-19330D01*
X23720Y-19724D01*
X23720Y-19724D01*
G37*
G36*
X24016Y-20128D02*
X23700Y-20128D01*
X23700Y-19792D01*
X24016Y-19792D01*
X24016Y-20128D01*
X24016Y-20128D01*
G37*
G36*
X24016Y-20522D02*
X23700Y-20522D01*
X23700Y-20186D01*
X24016Y-20186D01*
X24016Y-20522D01*
X24016Y-20522D01*
G37*
G36*
X24310Y-19724D02*
X23917Y-19724D01*
X23917Y-19330D01*
X24310Y-19330D01*
X24310Y-19724D01*
X24310Y-19724D01*
G37*
G36*
X24409Y-17011D02*
X24408Y-17100D01*
X24390Y-17181D01*
X24358Y-17252D01*
X24310Y-17319D01*
X24254Y-17373D01*
X24184Y-17417D01*
X24112Y-17445D01*
X24030Y-17460D01*
X23952Y-17458D01*
X23871Y-17440D01*
X23800Y-17409D01*
X23732Y-17362D01*
X23678Y-17306D01*
X23633Y-17236D01*
X23604Y-17164D01*
X23589Y-17082D01*
X23590Y-17005D01*
X23608Y-16923D01*
X23638Y-16853D01*
X23685Y-16784D01*
X23740Y-16730D01*
X23810Y-16684D01*
X23882Y-16655D01*
X23964Y-16640D01*
X24041Y-16640D01*
X24123Y-16657D01*
X24194Y-16687D01*
X24263Y-16734D01*
X24317Y-16788D01*
X24364Y-16858D01*
X24393Y-16929D01*
X24409Y-17011D01*
X24409Y-17011D01*
G37*
G36*
X24409Y-18011D02*
X24408Y-18100D01*
X24390Y-18181D01*
X24358Y-18252D01*
X24310Y-18319D01*
X24254Y-18373D01*
X24184Y-18417D01*
X24112Y-18445D01*
X24030Y-18460D01*
X23952Y-18458D01*
X23871Y-18440D01*
X23800Y-18409D01*
X23732Y-18362D01*
X23678Y-18306D01*
X23633Y-18236D01*
X23604Y-18164D01*
X23589Y-18082D01*
X23590Y-18005D01*
X23608Y-17923D01*
X23638Y-17853D01*
X23685Y-17784D01*
X23740Y-17730D01*
X23810Y-17684D01*
X23882Y-17655D01*
X23964Y-17640D01*
X24041Y-17640D01*
X24123Y-17657D01*
X24194Y-17687D01*
X24263Y-17734D01*
X24317Y-17788D01*
X24364Y-17858D01*
X24393Y-17929D01*
X24409Y-18011D01*
X24409Y-18011D01*
G37*
G36*
X24409Y-23011D02*
X24408Y-23100D01*
X24390Y-23181D01*
X24358Y-23252D01*
X24310Y-23319D01*
X24254Y-23373D01*
X24184Y-23417D01*
X24112Y-23445D01*
X24030Y-23460D01*
X23952Y-23458D01*
X23871Y-23440D01*
X23800Y-23409D01*
X23732Y-23362D01*
X23678Y-23306D01*
X23633Y-23236D01*
X23604Y-23164D01*
X23589Y-23082D01*
X23590Y-23005D01*
X23608Y-22923D01*
X23638Y-22853D01*
X23685Y-22784D01*
X23740Y-22730D01*
X23810Y-22684D01*
X23882Y-22655D01*
X23964Y-22640D01*
X24041Y-22640D01*
X24123Y-22657D01*
X24194Y-22687D01*
X24263Y-22734D01*
X24317Y-22788D01*
X24364Y-22858D01*
X24393Y-22929D01*
X24409Y-23011D01*
X24409Y-23011D01*
G37*
G36*
X25409Y-16911D02*
X25408Y-17000D01*
X25390Y-17081D01*
X25358Y-17152D01*
X25310Y-17219D01*
X25254Y-17273D01*
X25184Y-17317D01*
X25112Y-17345D01*
X25030Y-17360D01*
X24952Y-17358D01*
X24871Y-17340D01*
X24800Y-17309D01*
X24732Y-17262D01*
X24678Y-17206D01*
X24633Y-17136D01*
X24604Y-17064D01*
X24589Y-16982D01*
X24590Y-16905D01*
X24608Y-16823D01*
X24638Y-16753D01*
X24685Y-16684D01*
X24740Y-16630D01*
X24810Y-16584D01*
X24882Y-16555D01*
X24964Y-16540D01*
X25041Y-16540D01*
X25123Y-16557D01*
X25194Y-16587D01*
X25263Y-16634D01*
X25317Y-16688D01*
X25364Y-16758D01*
X25393Y-16829D01*
X25409Y-16911D01*
X25409Y-16911D01*
G37*
G36*
X25409Y-17911D02*
X25408Y-18000D01*
X25390Y-18081D01*
X25358Y-18152D01*
X25310Y-18219D01*
X25254Y-18273D01*
X25184Y-18317D01*
X25112Y-18345D01*
X25030Y-18360D01*
X24952Y-18358D01*
X24871Y-18340D01*
X24800Y-18309D01*
X24732Y-18262D01*
X24678Y-18206D01*
X24633Y-18136D01*
X24604Y-18064D01*
X24589Y-17982D01*
X24590Y-17905D01*
X24608Y-17823D01*
X24638Y-17753D01*
X24685Y-17684D01*
X24740Y-17630D01*
X24810Y-17584D01*
X24882Y-17555D01*
X24964Y-17540D01*
X25041Y-17540D01*
X25123Y-17557D01*
X25194Y-17587D01*
X25263Y-17634D01*
X25317Y-17688D01*
X25364Y-17758D01*
X25393Y-17829D01*
X25409Y-17911D01*
X25409Y-17911D01*
G37*
G36*
X25409Y-22911D02*
X25408Y-23000D01*
X25390Y-23081D01*
X25358Y-23152D01*
X25310Y-23219D01*
X25254Y-23273D01*
X25184Y-23317D01*
X25112Y-23345D01*
X25030Y-23360D01*
X24952Y-23358D01*
X24871Y-23340D01*
X24800Y-23309D01*
X24732Y-23262D01*
X24678Y-23206D01*
X24633Y-23136D01*
X24604Y-23064D01*
X24589Y-22982D01*
X24590Y-22905D01*
X24608Y-22823D01*
X24638Y-22753D01*
X24685Y-22684D01*
X24740Y-22630D01*
X24810Y-22584D01*
X24882Y-22555D01*
X24964Y-22540D01*
X25041Y-22540D01*
X25123Y-22557D01*
X25194Y-22587D01*
X25263Y-22634D01*
X25317Y-22688D01*
X25364Y-22758D01*
X25393Y-22829D01*
X25409Y-22911D01*
X25409Y-22911D01*
G37*
G36*
X26065Y-20289D02*
X26062Y-20437D01*
X26033Y-20568D01*
X25980Y-20686D01*
X25903Y-20796D01*
X25810Y-20884D01*
X25696Y-20956D01*
X25576Y-21003D01*
X25443Y-21026D01*
X25315Y-21024D01*
X25183Y-20995D01*
X25066Y-20943D01*
X24955Y-20866D01*
X24866Y-20774D01*
X24793Y-20661D01*
X24745Y-20541D01*
X24721Y-20409D01*
X24723Y-20280D01*
X24751Y-20148D01*
X24801Y-20030D01*
X24878Y-19919D01*
X24969Y-19829D01*
X25082Y-19755D01*
X25201Y-19707D01*
X25334Y-19682D01*
X25462Y-19683D01*
X25594Y-19710D01*
X25712Y-19760D01*
X25825Y-19835D01*
X25915Y-19926D01*
X25990Y-20039D01*
X26038Y-20157D01*
X26065Y-20289D01*
X26065Y-20289D01*
G37*
G36*
X26409Y-17011D02*
X26408Y-17100D01*
X26390Y-17181D01*
X26358Y-17252D01*
X26310Y-17319D01*
X26254Y-17373D01*
X26184Y-17417D01*
X26112Y-17445D01*
X26030Y-17460D01*
X25952Y-17458D01*
X25871Y-17440D01*
X25800Y-17409D01*
X25732Y-17362D01*
X25678Y-17306D01*
X25633Y-17236D01*
X25604Y-17164D01*
X25589Y-17082D01*
X25590Y-17005D01*
X25608Y-16923D01*
X25638Y-16853D01*
X25685Y-16784D01*
X25740Y-16730D01*
X25810Y-16684D01*
X25882Y-16655D01*
X25964Y-16640D01*
X26041Y-16640D01*
X26123Y-16657D01*
X26194Y-16687D01*
X26263Y-16734D01*
X26317Y-16788D01*
X26364Y-16858D01*
X26393Y-16929D01*
X26409Y-17011D01*
X26409Y-17011D01*
G37*
G36*
X26409Y-18011D02*
X26408Y-18100D01*
X26390Y-18181D01*
X26358Y-18252D01*
X26310Y-18319D01*
X26254Y-18373D01*
X26184Y-18417D01*
X26112Y-18445D01*
X26030Y-18460D01*
X25952Y-18458D01*
X25871Y-18440D01*
X25800Y-18409D01*
X25732Y-18362D01*
X25678Y-18306D01*
X25633Y-18236D01*
X25604Y-18164D01*
X25589Y-18082D01*
X25590Y-18005D01*
X25608Y-17923D01*
X25638Y-17853D01*
X25685Y-17784D01*
X25740Y-17730D01*
X25810Y-17684D01*
X25882Y-17655D01*
X25964Y-17640D01*
X26041Y-17640D01*
X26123Y-17657D01*
X26194Y-17687D01*
X26263Y-17734D01*
X26317Y-17788D01*
X26364Y-17858D01*
X26393Y-17929D01*
X26409Y-18011D01*
X26409Y-18011D01*
G37*
G36*
X26409Y-22011D02*
X26408Y-22100D01*
X26390Y-22181D01*
X26358Y-22252D01*
X26310Y-22319D01*
X26254Y-22373D01*
X26184Y-22417D01*
X26112Y-22445D01*
X26030Y-22460D01*
X25952Y-22458D01*
X25871Y-22440D01*
X25800Y-22409D01*
X25732Y-22362D01*
X25678Y-22306D01*
X25633Y-22236D01*
X25604Y-22164D01*
X25589Y-22082D01*
X25590Y-22005D01*
X25608Y-21923D01*
X25638Y-21853D01*
X25685Y-21784D01*
X25740Y-21730D01*
X25810Y-21684D01*
X25882Y-21655D01*
X25964Y-21640D01*
X26041Y-21640D01*
X26123Y-21657D01*
X26194Y-21687D01*
X26263Y-21734D01*
X26317Y-21788D01*
X26364Y-21858D01*
X26393Y-21929D01*
X26409Y-22011D01*
X26409Y-22011D01*
G37*
G36*
X26409Y-23011D02*
X26408Y-23100D01*
X26390Y-23181D01*
X26358Y-23252D01*
X26310Y-23319D01*
X26254Y-23373D01*
X26184Y-23417D01*
X26112Y-23445D01*
X26030Y-23460D01*
X25952Y-23458D01*
X25871Y-23440D01*
X25800Y-23409D01*
X25732Y-23362D01*
X25678Y-23306D01*
X25633Y-23236D01*
X25604Y-23164D01*
X25589Y-23082D01*
X25590Y-23005D01*
X25608Y-22923D01*
X25638Y-22853D01*
X25685Y-22784D01*
X25740Y-22730D01*
X25810Y-22684D01*
X25882Y-22655D01*
X25964Y-22640D01*
X26041Y-22640D01*
X26123Y-22657D01*
X26194Y-22687D01*
X26263Y-22734D01*
X26317Y-22788D01*
X26364Y-22858D01*
X26393Y-22929D01*
X26409Y-23011D01*
X26409Y-23011D01*
G37*
G36*
X27409Y-16911D02*
X27408Y-17000D01*
X27390Y-17081D01*
X27358Y-17152D01*
X27310Y-17219D01*
X27254Y-17273D01*
X27184Y-17317D01*
X27112Y-17345D01*
X27030Y-17360D01*
X26952Y-17358D01*
X26871Y-17340D01*
X26800Y-17309D01*
X26732Y-17262D01*
X26678Y-17206D01*
X26633Y-17136D01*
X26604Y-17064D01*
X26589Y-16982D01*
X26590Y-16905D01*
X26608Y-16823D01*
X26638Y-16753D01*
X26685Y-16684D01*
X26740Y-16630D01*
X26810Y-16584D01*
X26882Y-16555D01*
X26964Y-16540D01*
X27041Y-16540D01*
X27123Y-16557D01*
X27194Y-16587D01*
X27263Y-16634D01*
X27317Y-16688D01*
X27364Y-16758D01*
X27393Y-16829D01*
X27409Y-16911D01*
X27409Y-16911D01*
G37*
G36*
X27409Y-17911D02*
X27408Y-18000D01*
X27390Y-18081D01*
X27358Y-18152D01*
X27310Y-18219D01*
X27254Y-18273D01*
X27184Y-18317D01*
X27112Y-18345D01*
X27030Y-18360D01*
X26952Y-18358D01*
X26871Y-18340D01*
X26800Y-18309D01*
X26732Y-18262D01*
X26678Y-18206D01*
X26633Y-18136D01*
X26604Y-18064D01*
X26589Y-17982D01*
X26590Y-17905D01*
X26608Y-17823D01*
X26638Y-17753D01*
X26685Y-17684D01*
X26740Y-17630D01*
X26810Y-17584D01*
X26882Y-17555D01*
X26964Y-17540D01*
X27041Y-17540D01*
X27123Y-17557D01*
X27194Y-17587D01*
X27263Y-17634D01*
X27317Y-17688D01*
X27364Y-17758D01*
X27393Y-17829D01*
X27409Y-17911D01*
X27409Y-17911D01*
G37*
G36*
X27409Y-21911D02*
X27408Y-22000D01*
X27390Y-22081D01*
X27358Y-22152D01*
X27310Y-22219D01*
X27254Y-22273D01*
X27184Y-22317D01*
X27112Y-22345D01*
X27030Y-22360D01*
X26952Y-22358D01*
X26871Y-22340D01*
X26800Y-22309D01*
X26732Y-22262D01*
X26678Y-22206D01*
X26633Y-22136D01*
X26604Y-22064D01*
X26589Y-21982D01*
X26590Y-21905D01*
X26608Y-21823D01*
X26638Y-21753D01*
X26685Y-21684D01*
X26740Y-21630D01*
X26810Y-21584D01*
X26882Y-21555D01*
X26964Y-21540D01*
X27041Y-21540D01*
X27123Y-21557D01*
X27194Y-21587D01*
X27263Y-21634D01*
X27317Y-21688D01*
X27364Y-21758D01*
X27393Y-21829D01*
X27409Y-21911D01*
X27409Y-21911D01*
G37*
G36*
X27409Y-22911D02*
X27408Y-23000D01*
X27390Y-23081D01*
X27358Y-23152D01*
X27310Y-23219D01*
X27254Y-23273D01*
X27184Y-23317D01*
X27112Y-23345D01*
X27030Y-23360D01*
X26952Y-23358D01*
X26871Y-23340D01*
X26800Y-23309D01*
X26732Y-23262D01*
X26678Y-23206D01*
X26633Y-23136D01*
X26604Y-23064D01*
X26589Y-22982D01*
X26590Y-22905D01*
X26608Y-22823D01*
X26638Y-22753D01*
X26685Y-22684D01*
X26740Y-22630D01*
X26810Y-22584D01*
X26882Y-22555D01*
X26964Y-22540D01*
X27041Y-22540D01*
X27123Y-22557D01*
X27194Y-22587D01*
X27263Y-22634D01*
X27317Y-22688D01*
X27364Y-22758D01*
X27393Y-22829D01*
X27409Y-22911D01*
X27409Y-22911D01*
G37*
G36*
X28409Y-17011D02*
X28408Y-17100D01*
X28390Y-17181D01*
X28358Y-17252D01*
X28310Y-17319D01*
X28254Y-17373D01*
X28184Y-17417D01*
X28112Y-17445D01*
X28030Y-17460D01*
X27952Y-17458D01*
X27871Y-17440D01*
X27800Y-17409D01*
X27732Y-17362D01*
X27678Y-17306D01*
X27633Y-17236D01*
X27604Y-17164D01*
X27589Y-17082D01*
X27590Y-17005D01*
X27608Y-16923D01*
X27638Y-16853D01*
X27685Y-16784D01*
X27740Y-16730D01*
X27810Y-16684D01*
X27882Y-16655D01*
X27964Y-16640D01*
X28041Y-16640D01*
X28123Y-16657D01*
X28194Y-16687D01*
X28263Y-16734D01*
X28317Y-16788D01*
X28364Y-16858D01*
X28393Y-16929D01*
X28409Y-17011D01*
X28409Y-17011D01*
G37*
G36*
X28409Y-18011D02*
X28408Y-18100D01*
X28390Y-18181D01*
X28358Y-18252D01*
X28310Y-18319D01*
X28254Y-18373D01*
X28184Y-18417D01*
X28112Y-18445D01*
X28030Y-18460D01*
X27952Y-18458D01*
X27871Y-18440D01*
X27800Y-18409D01*
X27732Y-18362D01*
X27678Y-18306D01*
X27633Y-18236D01*
X27604Y-18164D01*
X27589Y-18082D01*
X27590Y-18005D01*
X27608Y-17923D01*
X27638Y-17853D01*
X27685Y-17784D01*
X27740Y-17730D01*
X27810Y-17684D01*
X27882Y-17655D01*
X27964Y-17640D01*
X28041Y-17640D01*
X28123Y-17657D01*
X28194Y-17687D01*
X28263Y-17734D01*
X28317Y-17788D01*
X28364Y-17858D01*
X28393Y-17929D01*
X28409Y-18011D01*
X28409Y-18011D01*
G37*
G36*
X28409Y-22011D02*
X28408Y-22100D01*
X28390Y-22181D01*
X28358Y-22252D01*
X28310Y-22319D01*
X28254Y-22373D01*
X28184Y-22417D01*
X28112Y-22445D01*
X28030Y-22460D01*
X27952Y-22458D01*
X27871Y-22440D01*
X27800Y-22409D01*
X27732Y-22362D01*
X27678Y-22306D01*
X27633Y-22236D01*
X27604Y-22164D01*
X27589Y-22082D01*
X27590Y-22005D01*
X27608Y-21923D01*
X27638Y-21853D01*
X27685Y-21784D01*
X27740Y-21730D01*
X27810Y-21684D01*
X27882Y-21655D01*
X27964Y-21640D01*
X28041Y-21640D01*
X28123Y-21657D01*
X28194Y-21687D01*
X28263Y-21734D01*
X28317Y-21788D01*
X28364Y-21858D01*
X28393Y-21929D01*
X28409Y-22011D01*
X28409Y-22011D01*
G37*
G36*
X28409Y-23011D02*
X28408Y-23100D01*
X28390Y-23181D01*
X28358Y-23252D01*
X28310Y-23319D01*
X28254Y-23373D01*
X28184Y-23417D01*
X28112Y-23445D01*
X28030Y-23460D01*
X27952Y-23458D01*
X27871Y-23440D01*
X27800Y-23409D01*
X27732Y-23362D01*
X27678Y-23306D01*
X27633Y-23236D01*
X27604Y-23164D01*
X27589Y-23082D01*
X27590Y-23005D01*
X27608Y-22923D01*
X27638Y-22853D01*
X27685Y-22784D01*
X27740Y-22730D01*
X27810Y-22684D01*
X27882Y-22655D01*
X27964Y-22640D01*
X28041Y-22640D01*
X28123Y-22657D01*
X28194Y-22687D01*
X28263Y-22734D01*
X28317Y-22788D01*
X28364Y-22858D01*
X28393Y-22929D01*
X28409Y-23011D01*
X28409Y-23011D01*
G37*
G36*
X28871Y-19816D02*
X28358Y-19816D01*
X28358Y-19107D01*
X28871Y-19107D01*
X28871Y-19816D01*
X28871Y-19816D01*
G37*
G36*
X28871Y-21312D02*
X28358Y-21312D01*
X28358Y-20603D01*
X28871Y-20603D01*
X28871Y-21312D01*
X28871Y-21312D01*
G37*
G36*
X29409Y-16911D02*
X29408Y-17000D01*
X29390Y-17081D01*
X29358Y-17152D01*
X29310Y-17219D01*
X29254Y-17273D01*
X29184Y-17317D01*
X29112Y-17345D01*
X29030Y-17360D01*
X28952Y-17358D01*
X28871Y-17340D01*
X28800Y-17309D01*
X28732Y-17262D01*
X28678Y-17206D01*
X28633Y-17136D01*
X28604Y-17064D01*
X28589Y-16982D01*
X28590Y-16905D01*
X28608Y-16823D01*
X28638Y-16753D01*
X28685Y-16684D01*
X28740Y-16630D01*
X28810Y-16584D01*
X28882Y-16555D01*
X28964Y-16540D01*
X29041Y-16540D01*
X29123Y-16557D01*
X29194Y-16587D01*
X29263Y-16634D01*
X29317Y-16688D01*
X29364Y-16758D01*
X29393Y-16829D01*
X29409Y-16911D01*
X29409Y-16911D01*
G37*
G36*
X29409Y-17911D02*
X29408Y-18000D01*
X29390Y-18081D01*
X29358Y-18152D01*
X29310Y-18219D01*
X29254Y-18273D01*
X29184Y-18317D01*
X29112Y-18345D01*
X29030Y-18360D01*
X28952Y-18358D01*
X28871Y-18340D01*
X28800Y-18309D01*
X28732Y-18262D01*
X28678Y-18206D01*
X28633Y-18136D01*
X28604Y-18064D01*
X28589Y-17982D01*
X28590Y-17905D01*
X28608Y-17823D01*
X28638Y-17753D01*
X28685Y-17684D01*
X28740Y-17630D01*
X28810Y-17584D01*
X28882Y-17555D01*
X28964Y-17540D01*
X29041Y-17540D01*
X29123Y-17557D01*
X29194Y-17587D01*
X29263Y-17634D01*
X29317Y-17688D01*
X29364Y-17758D01*
X29393Y-17829D01*
X29409Y-17911D01*
X29409Y-17911D01*
G37*
G36*
X29409Y-21911D02*
X29408Y-22000D01*
X29390Y-22081D01*
X29358Y-22152D01*
X29310Y-22219D01*
X29254Y-22273D01*
X29184Y-22317D01*
X29112Y-22345D01*
X29030Y-22360D01*
X28952Y-22358D01*
X28871Y-22340D01*
X28800Y-22309D01*
X28732Y-22262D01*
X28678Y-22206D01*
X28633Y-22136D01*
X28604Y-22064D01*
X28589Y-21982D01*
X28590Y-21905D01*
X28608Y-21823D01*
X28638Y-21753D01*
X28685Y-21684D01*
X28740Y-21630D01*
X28810Y-21584D01*
X28882Y-21555D01*
X28964Y-21540D01*
X29041Y-21540D01*
X29123Y-21557D01*
X29194Y-21587D01*
X29263Y-21634D01*
X29317Y-21688D01*
X29364Y-21758D01*
X29393Y-21829D01*
X29409Y-21911D01*
X29409Y-21911D01*
G37*
G36*
X29409Y-22911D02*
X29408Y-23000D01*
X29390Y-23081D01*
X29358Y-23152D01*
X29310Y-23219D01*
X29254Y-23273D01*
X29184Y-23317D01*
X29112Y-23345D01*
X29030Y-23360D01*
X28952Y-23358D01*
X28871Y-23340D01*
X28800Y-23309D01*
X28732Y-23262D01*
X28678Y-23206D01*
X28633Y-23136D01*
X28604Y-23064D01*
X28589Y-22982D01*
X28590Y-22905D01*
X28608Y-22823D01*
X28638Y-22753D01*
X28685Y-22684D01*
X28740Y-22630D01*
X28810Y-22584D01*
X28882Y-22555D01*
X28964Y-22540D01*
X29041Y-22540D01*
X29123Y-22557D01*
X29194Y-22587D01*
X29263Y-22634D01*
X29317Y-22688D01*
X29364Y-22758D01*
X29393Y-22829D01*
X29409Y-22911D01*
X29409Y-22911D01*
G37*
G36*
X29540Y-21312D02*
X29028Y-21312D01*
X29028Y-20603D01*
X29540Y-20603D01*
X29540Y-21312D01*
X29540Y-21312D01*
G37*
G36*
X29541Y-19816D02*
X29028Y-19816D01*
X29028Y-19107D01*
X29541Y-19107D01*
X29541Y-19816D01*
X29541Y-19816D01*
G37*
M02*
