G04 (created by PCBNEW (2013-may-18)-stable) date Wed 19 Mar 2014 03:01:16 PM CET*
%MOIN*%
G04 Gerber Fmt 3.4, Leading zero omitted, Abs format*
%FSLAX34Y34*%
G01*
G70*
G90*
G04 APERTURE LIST*
%ADD10C,0.00590551*%
%ADD11C,0.00393701*%
%ADD12C,0.0039*%
%ADD13C,0.00392126*%
%ADD14C,0.0059*%
%ADD15C,0.074*%
%ADD16R,0.0394X0.045*%
%ADD17R,0.035X0.063*%
%ADD18R,0.0256X0.0394*%
%ADD19R,0.0984X0.0393*%
%ADD20C,0.134*%
%ADD21R,0.063X0.024*%
%ADD22R,0.0583X0.023*%
%ADD23R,0.045X0.025*%
%ADD24R,0.055X0.035*%
%ADD25R,0.035X0.055*%
%ADD26R,0.0394X0.0256*%
%ADD27R,0.025X0.045*%
%ADD28R,0.0511811X0.015748*%
%ADD29R,0.0431102X0.0153543*%
%ADD30R,0.00787402X0.0590551*%
%ADD31R,0.0511811X0.0511811*%
%ADD32C,0.0217*%
%ADD33C,0.0118*%
%ADD34C,0.006*%
G04 APERTURE END LIST*
G54D10*
G54D11*
X15300Y-16500D02*
X15300Y-23500D01*
G54D12*
X29500Y-23700D02*
X15500Y-23700D01*
X29700Y-16500D02*
X29700Y-23500D01*
X15500Y-16300D02*
X29500Y-16300D01*
G54D13*
X15500Y-23700D02*
X15300Y-23500D01*
X29700Y-23500D02*
X29500Y-23700D01*
X29500Y-16300D02*
X29700Y-16500D01*
X15300Y-16500D02*
X15500Y-16300D01*
G54D14*
X20393Y-19960D02*
X19843Y-19960D01*
X18523Y-21712D02*
X18523Y-22106D01*
X18937Y-19488D02*
X18543Y-19488D01*
G54D15*
X24000Y-18050D03*
X25000Y-17950D03*
X26000Y-18050D03*
X27000Y-17950D03*
X28000Y-18050D03*
X29000Y-17950D03*
G54D16*
X16968Y-19291D03*
X17676Y-19291D03*
G54D17*
X27668Y-19117D03*
X26918Y-19117D03*
X26168Y-19117D03*
G54D15*
X26000Y-22050D03*
X27000Y-21950D03*
X28000Y-22050D03*
X29000Y-21950D03*
G54D18*
X18443Y-17885D03*
X19193Y-17885D03*
X18443Y-18885D03*
X18818Y-17885D03*
X19193Y-18885D03*
G54D19*
X19537Y-22244D03*
X19537Y-21378D03*
G54D20*
X25393Y-20354D03*
G54D15*
X16000Y-17050D03*
X17000Y-16950D03*
X18000Y-17050D03*
X19000Y-16950D03*
X20000Y-17050D03*
X21000Y-16950D03*
X22000Y-17050D03*
X23000Y-16950D03*
X24000Y-17050D03*
X25000Y-16950D03*
X26000Y-17050D03*
X27000Y-16950D03*
X28000Y-17050D03*
X29000Y-16950D03*
X16000Y-23050D03*
X17000Y-22950D03*
X18000Y-23050D03*
X19000Y-22950D03*
X20000Y-23050D03*
X21000Y-22950D03*
X22000Y-23050D03*
X23000Y-22950D03*
X24000Y-23050D03*
X25000Y-22950D03*
X26000Y-23050D03*
X27000Y-22950D03*
X28000Y-23050D03*
X29000Y-22950D03*
G54D21*
X20669Y-19372D03*
X20669Y-18872D03*
X20669Y-18372D03*
X20669Y-17872D03*
X22795Y-17872D03*
X22795Y-18372D03*
X22795Y-18872D03*
X22795Y-19372D03*
G54D22*
X19858Y-19372D03*
X19858Y-18872D03*
X19858Y-18372D03*
X19858Y-17872D03*
G54D23*
X18700Y-20054D03*
X18700Y-20654D03*
G54D24*
X17795Y-17774D03*
X17795Y-18524D03*
G54D23*
X23582Y-19394D03*
X23582Y-18794D03*
G54D16*
X20472Y-19960D03*
X19764Y-19960D03*
G54D25*
X29075Y-20275D03*
X28325Y-20275D03*
X27065Y-20669D03*
X27815Y-20669D03*
G54D23*
X18523Y-22209D03*
X18523Y-21609D03*
G54D26*
X29218Y-18942D03*
X29218Y-19692D03*
X28218Y-18942D03*
X29218Y-19317D03*
X28218Y-19692D03*
G54D23*
X17913Y-22209D03*
X17913Y-21609D03*
G54D27*
X18440Y-19488D03*
X19040Y-19488D03*
G54D28*
X27519Y-20137D03*
X27519Y-19704D03*
G54D29*
X27541Y-19921D03*
G54D30*
X27224Y-19921D03*
G54D31*
X16850Y-19960D03*
X16023Y-19960D03*
X16850Y-20787D03*
X16023Y-20787D03*
G54D15*
X15996Y-17992D03*
X16996Y-17992D03*
G54D32*
X18043Y-20476D03*
X16578Y-19929D03*
X19413Y-19920D03*
X22395Y-18101D03*
X21998Y-19507D03*
X21578Y-17928D03*
X21181Y-18700D03*
X24133Y-22130D03*
X20403Y-22106D03*
X20984Y-22086D03*
X23893Y-21980D03*
X18464Y-19724D03*
X16417Y-20354D03*
X17452Y-20177D03*
X18346Y-17874D03*
X19813Y-22080D03*
X22773Y-20880D03*
X23553Y-20890D03*
X20003Y-21310D03*
X19379Y-18316D03*
X21383Y-21310D03*
X22116Y-21751D03*
X18669Y-21307D03*
X28700Y-20275D03*
X27440Y-20629D03*
X18228Y-21141D03*
X22870Y-21984D03*
X22051Y-21330D03*
X21653Y-20620D03*
X19814Y-20673D03*
X17433Y-21354D03*
X21503Y-19100D03*
G54D33*
X17007Y-19929D02*
X17007Y-19330D01*
X17007Y-19330D02*
X16968Y-19291D01*
X16614Y-19929D02*
X17007Y-19929D01*
X17007Y-19929D02*
X16976Y-19929D01*
X17566Y-19929D02*
X18043Y-20405D01*
X18043Y-20405D02*
X18043Y-20476D01*
X19370Y-19876D02*
X19370Y-19062D01*
X19370Y-19062D02*
X19193Y-18885D01*
X17566Y-19929D02*
X16614Y-19929D01*
X16614Y-19929D02*
X16578Y-19929D01*
X19370Y-19876D02*
X19413Y-19920D01*
X19659Y-19920D02*
X19739Y-20000D01*
X19413Y-19920D02*
X19659Y-19920D01*
G54D34*
X17913Y-22209D02*
X17913Y-22963D01*
X17913Y-22963D02*
X18000Y-23050D01*
X22566Y-18101D02*
X22395Y-18101D01*
X22795Y-17872D02*
X22566Y-18101D01*
X21998Y-19507D02*
X21914Y-19590D01*
X20888Y-19590D02*
X20669Y-19372D01*
X21914Y-19590D02*
X20888Y-19590D01*
X19858Y-19372D02*
X20669Y-19372D01*
X21578Y-17928D02*
X21622Y-17928D01*
X21622Y-17928D02*
X22067Y-18372D01*
X22067Y-18372D02*
X22795Y-18372D01*
X21009Y-18872D02*
X20669Y-18872D01*
X21181Y-18700D02*
X21009Y-18872D01*
X19858Y-18872D02*
X20669Y-18872D01*
X20613Y-22316D02*
X23727Y-22316D01*
X24083Y-22180D02*
X24133Y-22130D01*
X23863Y-22180D02*
X24083Y-22180D01*
X23727Y-22316D02*
X23863Y-22180D01*
X20403Y-22106D02*
X20613Y-22316D01*
X20984Y-22086D02*
X21093Y-22195D01*
X21093Y-22195D02*
X23677Y-22195D01*
X23677Y-22195D02*
X23893Y-21980D01*
X18389Y-19488D02*
X18440Y-19488D01*
X18464Y-19724D02*
X18389Y-19488D01*
X16023Y-20748D02*
X16023Y-20787D01*
X16417Y-20354D02*
X16023Y-20748D01*
X17452Y-20177D02*
X16850Y-20779D01*
X16850Y-20779D02*
X16850Y-20787D01*
G54D33*
X17795Y-17774D02*
X17499Y-17774D01*
X17499Y-17774D02*
X17204Y-17480D01*
X16519Y-17480D02*
X16000Y-18000D01*
X17204Y-17480D02*
X16519Y-17480D01*
X19193Y-17885D02*
X19193Y-17619D01*
X18052Y-17774D02*
X17795Y-17774D01*
X18267Y-17559D02*
X18052Y-17774D01*
X19133Y-17559D02*
X18267Y-17559D01*
X19193Y-17619D02*
X19133Y-17559D01*
X19193Y-17885D02*
X19193Y-18114D01*
X18192Y-18775D02*
X17676Y-19291D01*
X18192Y-18637D02*
X18192Y-18775D01*
X18263Y-18566D02*
X18192Y-18637D01*
X18741Y-18566D02*
X18263Y-18566D01*
X19193Y-18114D02*
X18741Y-18566D01*
X25468Y-18543D02*
X26220Y-18543D01*
X28503Y-18720D02*
X28725Y-18942D01*
X28228Y-17549D02*
X28503Y-17824D01*
X27775Y-17549D02*
X28228Y-17549D01*
X27500Y-17824D02*
X27775Y-17549D01*
X27500Y-18169D02*
X27500Y-17824D01*
X26220Y-18543D02*
X26318Y-18444D01*
X26318Y-18444D02*
X27224Y-18444D01*
X27224Y-18444D02*
X27500Y-18169D01*
X28768Y-18942D02*
X28725Y-18942D01*
X28503Y-17824D02*
X28503Y-18720D01*
X22253Y-20000D02*
X20447Y-20000D01*
X22253Y-20000D02*
X22613Y-19640D01*
X23930Y-19298D02*
X24507Y-18721D01*
X25468Y-18543D02*
X25290Y-18721D01*
X23863Y-19640D02*
X23930Y-19573D01*
X22613Y-19640D02*
X23863Y-19640D01*
X23930Y-19573D02*
X23930Y-19298D01*
X24507Y-18721D02*
X25290Y-18721D01*
X27668Y-19117D02*
X27740Y-19190D01*
X28768Y-18942D02*
X29218Y-18942D01*
X28520Y-19190D02*
X28768Y-18942D01*
X27740Y-19190D02*
X28520Y-19190D01*
X29218Y-18942D02*
X29383Y-18942D01*
X29398Y-19692D02*
X29540Y-19550D01*
X29398Y-19692D02*
X29218Y-19692D01*
X29540Y-19100D02*
X29540Y-19550D01*
X29383Y-18942D02*
X29540Y-19100D01*
X29000Y-21950D02*
X29132Y-21817D01*
X29093Y-21817D02*
X29093Y-20417D01*
X29093Y-20417D02*
X29093Y-19817D01*
X29093Y-19817D02*
X29218Y-19692D01*
G54D34*
X18346Y-17874D02*
X18358Y-17885D01*
X18358Y-17885D02*
X18443Y-17885D01*
X18443Y-18885D02*
X18224Y-19105D01*
X18507Y-20054D02*
X18700Y-20054D01*
X18224Y-19771D02*
X18507Y-20054D01*
X18224Y-19105D02*
X18224Y-19771D01*
G54D33*
X28218Y-19692D02*
X28063Y-19692D01*
X27834Y-19921D02*
X27541Y-19921D01*
X28063Y-19692D02*
X27834Y-19921D01*
X26918Y-19117D02*
X26918Y-18770D01*
X27898Y-18622D02*
X28218Y-18942D01*
X27066Y-18622D02*
X27898Y-18622D01*
X26918Y-18770D02*
X27066Y-18622D01*
G54D34*
X19537Y-22244D02*
X19649Y-22244D01*
X19649Y-22244D02*
X19813Y-22080D01*
X19813Y-22080D02*
X19793Y-22100D01*
X22773Y-20880D02*
X23543Y-20880D01*
X23543Y-20880D02*
X23553Y-20890D01*
X19935Y-21378D02*
X19537Y-21378D01*
X20003Y-21310D02*
X19935Y-21378D01*
G54D33*
X27065Y-20669D02*
X27065Y-21460D01*
X28031Y-21460D02*
X27065Y-21460D01*
X28500Y-21800D02*
X28160Y-21460D01*
X29000Y-22950D02*
X28500Y-22450D01*
X28500Y-22450D02*
X28500Y-21800D01*
X28031Y-21460D02*
X28160Y-21460D01*
X27065Y-21460D02*
X26453Y-21460D01*
X26453Y-21460D02*
X22408Y-21460D01*
X22408Y-21460D02*
X22116Y-21751D01*
G54D34*
X27519Y-19704D02*
X27185Y-19704D01*
X27224Y-19744D02*
X27224Y-20177D01*
X27185Y-19704D02*
X27224Y-19744D01*
X27224Y-20177D02*
X27224Y-19921D01*
G54D33*
X27065Y-20354D02*
X27065Y-20669D01*
G54D34*
X27065Y-20354D02*
X27065Y-20335D01*
X27065Y-20335D02*
X27224Y-20177D01*
X27224Y-19704D02*
X27519Y-19704D01*
G54D33*
X27519Y-19704D02*
X26755Y-19704D01*
X26755Y-19704D02*
X26168Y-19117D01*
G54D34*
X27519Y-19704D02*
X27224Y-19704D01*
X27224Y-20177D02*
X27165Y-20236D01*
G54D33*
X27263Y-20137D02*
X27519Y-20137D01*
X27065Y-20335D02*
X27165Y-20236D01*
X27165Y-20236D02*
X27263Y-20137D01*
X22116Y-21751D02*
X22408Y-21460D01*
X19040Y-19488D02*
X19047Y-19495D01*
X19300Y-20314D02*
X20696Y-20314D01*
X20696Y-20314D02*
X20826Y-20444D01*
X20826Y-20444D02*
X20826Y-21850D01*
X19047Y-20062D02*
X19300Y-20314D01*
X19047Y-19495D02*
X19047Y-20062D01*
X19040Y-19488D02*
X19040Y-19237D01*
X19242Y-18316D02*
X19379Y-18316D01*
X18937Y-18622D02*
X19242Y-18316D01*
X18937Y-19133D02*
X18937Y-18622D01*
X19040Y-19237D02*
X18937Y-19133D01*
X20826Y-21850D02*
X19055Y-21850D01*
X18917Y-22106D02*
X18814Y-22209D01*
X18917Y-21988D02*
X18917Y-22106D01*
X18814Y-22209D02*
X18523Y-22209D01*
X19055Y-21850D02*
X18917Y-21988D01*
X21821Y-22046D02*
X22116Y-21751D01*
X21298Y-22046D02*
X21821Y-22046D01*
X21102Y-21850D02*
X21298Y-22046D01*
X20826Y-21850D02*
X21102Y-21850D01*
X22116Y-21751D02*
X21674Y-21310D01*
X21674Y-21310D02*
X21383Y-21310D01*
X25216Y-18543D02*
X24433Y-18543D01*
X24433Y-18543D02*
X23582Y-19394D01*
X26599Y-17549D02*
X27000Y-17950D01*
X25777Y-17549D02*
X26599Y-17549D01*
X25501Y-17824D02*
X25777Y-17549D01*
X25501Y-18257D02*
X25501Y-17824D01*
X25216Y-18543D02*
X25501Y-18257D01*
X19858Y-18372D02*
X19435Y-18372D01*
X19435Y-18372D02*
X19379Y-18316D01*
X22795Y-18872D02*
X21685Y-18872D01*
X21185Y-18372D02*
X20669Y-18372D01*
X21685Y-18872D02*
X21185Y-18372D01*
X22795Y-19372D02*
X22817Y-19394D01*
X22817Y-19394D02*
X23582Y-19394D01*
X22795Y-18872D02*
X22795Y-19372D01*
X19858Y-18372D02*
X20669Y-18372D01*
X18669Y-21463D02*
X18523Y-21609D01*
X18669Y-21307D02*
X18669Y-21463D01*
G54D34*
X28325Y-20275D02*
X28700Y-20275D01*
X27815Y-20669D02*
X27480Y-20669D01*
X27480Y-20669D02*
X27440Y-20629D01*
G54D10*
G36*
X22635Y-19151D02*
X22470Y-19151D01*
X22451Y-19155D01*
X22432Y-19162D01*
X22416Y-19173D01*
X22402Y-19187D01*
X22391Y-19204D01*
X22383Y-19222D01*
X22379Y-19241D01*
X22379Y-19261D01*
X22379Y-19501D01*
X22383Y-19521D01*
X22391Y-19539D01*
X22402Y-19555D01*
X22415Y-19569D01*
X22432Y-19580D01*
X22442Y-19585D01*
X22187Y-19840D01*
X20769Y-19840D01*
X20769Y-19725D01*
X20765Y-19706D01*
X20758Y-19688D01*
X20757Y-19687D01*
X20757Y-19645D01*
X20795Y-19683D01*
X20805Y-19690D01*
X20814Y-19698D01*
X20815Y-19699D01*
X20815Y-19699D01*
X20826Y-19705D01*
X20836Y-19710D01*
X20837Y-19711D01*
X20838Y-19711D01*
X20849Y-19714D01*
X20861Y-19718D01*
X20861Y-19718D01*
X20862Y-19718D01*
X20874Y-19720D01*
X20886Y-19721D01*
X20887Y-19721D01*
X20887Y-19721D01*
X20887Y-19721D01*
X20888Y-19721D01*
X21914Y-19721D01*
X21926Y-19720D01*
X21938Y-19719D01*
X21939Y-19719D01*
X21940Y-19719D01*
X21951Y-19715D01*
X21959Y-19713D01*
X21973Y-19716D01*
X22014Y-19717D01*
X22054Y-19710D01*
X22092Y-19695D01*
X22127Y-19673D01*
X22157Y-19645D01*
X22180Y-19611D01*
X22197Y-19574D01*
X22206Y-19534D01*
X22207Y-19487D01*
X22199Y-19447D01*
X22183Y-19409D01*
X22160Y-19375D01*
X22131Y-19346D01*
X22097Y-19323D01*
X22060Y-19307D01*
X22019Y-19299D01*
X21978Y-19298D01*
X21938Y-19306D01*
X21900Y-19321D01*
X21866Y-19344D01*
X21837Y-19372D01*
X21813Y-19406D01*
X21797Y-19444D01*
X21794Y-19460D01*
X21084Y-19460D01*
X21084Y-19242D01*
X21080Y-19222D01*
X21073Y-19204D01*
X21062Y-19188D01*
X21048Y-19174D01*
X21032Y-19163D01*
X21014Y-19155D01*
X20994Y-19151D01*
X20975Y-19151D01*
X20344Y-19151D01*
X20325Y-19155D01*
X20306Y-19162D01*
X20290Y-19173D01*
X20276Y-19187D01*
X20265Y-19204D01*
X20257Y-19222D01*
X20253Y-19241D01*
X20253Y-19241D01*
X20249Y-19241D01*
X20246Y-19227D01*
X20238Y-19209D01*
X20228Y-19193D01*
X20214Y-19179D01*
X20197Y-19168D01*
X20179Y-19160D01*
X20160Y-19156D01*
X20140Y-19156D01*
X19556Y-19156D01*
X19537Y-19160D01*
X19529Y-19163D01*
X19529Y-19080D01*
X19536Y-19083D01*
X19556Y-19087D01*
X19575Y-19087D01*
X20159Y-19087D01*
X20178Y-19083D01*
X20197Y-19076D01*
X20213Y-19065D01*
X20227Y-19051D01*
X20238Y-19035D01*
X20246Y-19016D01*
X20249Y-19002D01*
X20253Y-19002D01*
X20257Y-19021D01*
X20265Y-19039D01*
X20276Y-19055D01*
X20289Y-19069D01*
X20306Y-19080D01*
X20324Y-19088D01*
X20343Y-19092D01*
X20363Y-19092D01*
X20994Y-19092D01*
X21013Y-19088D01*
X21031Y-19081D01*
X21048Y-19070D01*
X21062Y-19056D01*
X21073Y-19040D01*
X21080Y-19021D01*
X21084Y-19002D01*
X21084Y-18982D01*
X21084Y-18978D01*
X21091Y-18973D01*
X21100Y-18965D01*
X21101Y-18964D01*
X21101Y-18964D01*
X21101Y-18964D01*
X21102Y-18964D01*
X21157Y-18909D01*
X21197Y-18910D01*
X21237Y-18903D01*
X21275Y-18888D01*
X21310Y-18866D01*
X21340Y-18838D01*
X21363Y-18804D01*
X21372Y-18784D01*
X21572Y-18984D01*
X21584Y-18994D01*
X21595Y-19003D01*
X21596Y-19004D01*
X21597Y-19004D01*
X21609Y-19011D01*
X21622Y-19018D01*
X21623Y-19018D01*
X21624Y-19019D01*
X21638Y-19023D01*
X21652Y-19028D01*
X21653Y-19028D01*
X21654Y-19028D01*
X21668Y-19029D01*
X21683Y-19031D01*
X21685Y-19031D01*
X21685Y-19031D01*
X21685Y-19031D01*
X21685Y-19031D01*
X22387Y-19031D01*
X22391Y-19039D01*
X22402Y-19055D01*
X22415Y-19069D01*
X22432Y-19080D01*
X22450Y-19088D01*
X22469Y-19092D01*
X22489Y-19092D01*
X22635Y-19092D01*
X22635Y-19151D01*
X22635Y-19151D01*
G37*
G54D14*
X22635Y-19151D02*
X22470Y-19151D01*
X22451Y-19155D01*
X22432Y-19162D01*
X22416Y-19173D01*
X22402Y-19187D01*
X22391Y-19204D01*
X22383Y-19222D01*
X22379Y-19241D01*
X22379Y-19261D01*
X22379Y-19501D01*
X22383Y-19521D01*
X22391Y-19539D01*
X22402Y-19555D01*
X22415Y-19569D01*
X22432Y-19580D01*
X22442Y-19585D01*
X22187Y-19840D01*
X20769Y-19840D01*
X20769Y-19725D01*
X20765Y-19706D01*
X20758Y-19688D01*
X20757Y-19687D01*
X20757Y-19645D01*
X20795Y-19683D01*
X20805Y-19690D01*
X20814Y-19698D01*
X20815Y-19699D01*
X20815Y-19699D01*
X20826Y-19705D01*
X20836Y-19710D01*
X20837Y-19711D01*
X20838Y-19711D01*
X20849Y-19714D01*
X20861Y-19718D01*
X20861Y-19718D01*
X20862Y-19718D01*
X20874Y-19720D01*
X20886Y-19721D01*
X20887Y-19721D01*
X20887Y-19721D01*
X20887Y-19721D01*
X20888Y-19721D01*
X21914Y-19721D01*
X21926Y-19720D01*
X21938Y-19719D01*
X21939Y-19719D01*
X21940Y-19719D01*
X21951Y-19715D01*
X21959Y-19713D01*
X21973Y-19716D01*
X22014Y-19717D01*
X22054Y-19710D01*
X22092Y-19695D01*
X22127Y-19673D01*
X22157Y-19645D01*
X22180Y-19611D01*
X22197Y-19574D01*
X22206Y-19534D01*
X22207Y-19487D01*
X22199Y-19447D01*
X22183Y-19409D01*
X22160Y-19375D01*
X22131Y-19346D01*
X22097Y-19323D01*
X22060Y-19307D01*
X22019Y-19299D01*
X21978Y-19298D01*
X21938Y-19306D01*
X21900Y-19321D01*
X21866Y-19344D01*
X21837Y-19372D01*
X21813Y-19406D01*
X21797Y-19444D01*
X21794Y-19460D01*
X21084Y-19460D01*
X21084Y-19242D01*
X21080Y-19222D01*
X21073Y-19204D01*
X21062Y-19188D01*
X21048Y-19174D01*
X21032Y-19163D01*
X21014Y-19155D01*
X20994Y-19151D01*
X20975Y-19151D01*
X20344Y-19151D01*
X20325Y-19155D01*
X20306Y-19162D01*
X20290Y-19173D01*
X20276Y-19187D01*
X20265Y-19204D01*
X20257Y-19222D01*
X20253Y-19241D01*
X20253Y-19241D01*
X20249Y-19241D01*
X20246Y-19227D01*
X20238Y-19209D01*
X20228Y-19193D01*
X20214Y-19179D01*
X20197Y-19168D01*
X20179Y-19160D01*
X20160Y-19156D01*
X20140Y-19156D01*
X19556Y-19156D01*
X19537Y-19160D01*
X19529Y-19163D01*
X19529Y-19080D01*
X19536Y-19083D01*
X19556Y-19087D01*
X19575Y-19087D01*
X20159Y-19087D01*
X20178Y-19083D01*
X20197Y-19076D01*
X20213Y-19065D01*
X20227Y-19051D01*
X20238Y-19035D01*
X20246Y-19016D01*
X20249Y-19002D01*
X20253Y-19002D01*
X20257Y-19021D01*
X20265Y-19039D01*
X20276Y-19055D01*
X20289Y-19069D01*
X20306Y-19080D01*
X20324Y-19088D01*
X20343Y-19092D01*
X20363Y-19092D01*
X20994Y-19092D01*
X21013Y-19088D01*
X21031Y-19081D01*
X21048Y-19070D01*
X21062Y-19056D01*
X21073Y-19040D01*
X21080Y-19021D01*
X21084Y-19002D01*
X21084Y-18982D01*
X21084Y-18978D01*
X21091Y-18973D01*
X21100Y-18965D01*
X21101Y-18964D01*
X21101Y-18964D01*
X21101Y-18964D01*
X21102Y-18964D01*
X21157Y-18909D01*
X21197Y-18910D01*
X21237Y-18903D01*
X21275Y-18888D01*
X21310Y-18866D01*
X21340Y-18838D01*
X21363Y-18804D01*
X21372Y-18784D01*
X21572Y-18984D01*
X21584Y-18994D01*
X21595Y-19003D01*
X21596Y-19004D01*
X21597Y-19004D01*
X21609Y-19011D01*
X21622Y-19018D01*
X21623Y-19018D01*
X21624Y-19019D01*
X21638Y-19023D01*
X21652Y-19028D01*
X21653Y-19028D01*
X21654Y-19028D01*
X21668Y-19029D01*
X21683Y-19031D01*
X21685Y-19031D01*
X21685Y-19031D01*
X21685Y-19031D01*
X21685Y-19031D01*
X22387Y-19031D01*
X22391Y-19039D01*
X22402Y-19055D01*
X22415Y-19069D01*
X22432Y-19080D01*
X22450Y-19088D01*
X22469Y-19092D01*
X22489Y-19092D01*
X22635Y-19092D01*
X22635Y-19151D01*
G54D10*
G36*
X27084Y-20091D02*
X27052Y-20123D01*
X27052Y-20123D01*
X26953Y-20222D01*
X26933Y-20246D01*
X26918Y-20274D01*
X26912Y-20293D01*
X26881Y-20293D01*
X26861Y-20297D01*
X26843Y-20305D01*
X26827Y-20316D01*
X26813Y-20329D01*
X26802Y-20346D01*
X26794Y-20364D01*
X26790Y-20383D01*
X26790Y-20403D01*
X26790Y-20954D01*
X26794Y-20973D01*
X26801Y-20991D01*
X26812Y-21008D01*
X26826Y-21022D01*
X26842Y-21033D01*
X26861Y-21040D01*
X26880Y-21044D01*
X26900Y-21044D01*
X26906Y-21044D01*
X26906Y-21300D01*
X26453Y-21300D01*
X23762Y-21300D01*
X23762Y-20869D01*
X23754Y-20829D01*
X23739Y-20791D01*
X23716Y-20757D01*
X23687Y-20728D01*
X23653Y-20705D01*
X23615Y-20689D01*
X23575Y-20681D01*
X23534Y-20680D01*
X23494Y-20688D01*
X23456Y-20703D01*
X23422Y-20726D01*
X23398Y-20749D01*
X22937Y-20749D01*
X22936Y-20747D01*
X22907Y-20718D01*
X22873Y-20695D01*
X22835Y-20679D01*
X22795Y-20671D01*
X22754Y-20670D01*
X22714Y-20678D01*
X22676Y-20693D01*
X22642Y-20716D01*
X22612Y-20745D01*
X22589Y-20778D01*
X22573Y-20816D01*
X22564Y-20856D01*
X22564Y-20897D01*
X22571Y-20937D01*
X22586Y-20975D01*
X22609Y-21010D01*
X22637Y-21039D01*
X22671Y-21063D01*
X22708Y-21079D01*
X22748Y-21088D01*
X22789Y-21089D01*
X22830Y-21082D01*
X22868Y-21067D01*
X22902Y-21045D01*
X22932Y-21017D01*
X22937Y-21010D01*
X23382Y-21010D01*
X23389Y-21020D01*
X23417Y-21049D01*
X23451Y-21073D01*
X23488Y-21089D01*
X23528Y-21098D01*
X23569Y-21099D01*
X23610Y-21092D01*
X23648Y-21077D01*
X23682Y-21055D01*
X23712Y-21027D01*
X23736Y-20993D01*
X23752Y-20956D01*
X23762Y-20916D01*
X23762Y-20869D01*
X23762Y-21300D01*
X22408Y-21300D01*
X22393Y-21301D01*
X22378Y-21303D01*
X22377Y-21303D01*
X22377Y-21303D01*
X22363Y-21307D01*
X22348Y-21311D01*
X22348Y-21312D01*
X22347Y-21312D01*
X22334Y-21319D01*
X22321Y-21326D01*
X22320Y-21326D01*
X22319Y-21327D01*
X22308Y-21336D01*
X22296Y-21345D01*
X22295Y-21346D01*
X22295Y-21346D01*
X22295Y-21346D01*
X22295Y-21347D01*
X22116Y-21526D01*
X21786Y-21197D01*
X21775Y-21187D01*
X21764Y-21178D01*
X21763Y-21177D01*
X21762Y-21177D01*
X21749Y-21170D01*
X21737Y-21163D01*
X21736Y-21163D01*
X21735Y-21162D01*
X21721Y-21158D01*
X21707Y-21153D01*
X21706Y-21153D01*
X21705Y-21153D01*
X21691Y-21152D01*
X21676Y-21150D01*
X21674Y-21150D01*
X21674Y-21150D01*
X21674Y-21150D01*
X21674Y-21150D01*
X21519Y-21150D01*
X21517Y-21148D01*
X21483Y-21125D01*
X21445Y-21109D01*
X21405Y-21101D01*
X21364Y-21100D01*
X21324Y-21108D01*
X21286Y-21123D01*
X21252Y-21146D01*
X21222Y-21175D01*
X21199Y-21208D01*
X21183Y-21246D01*
X21174Y-21286D01*
X21174Y-21327D01*
X21181Y-21367D01*
X21196Y-21405D01*
X21219Y-21440D01*
X21247Y-21469D01*
X21281Y-21493D01*
X21318Y-21509D01*
X21358Y-21518D01*
X21399Y-21519D01*
X21440Y-21512D01*
X21478Y-21497D01*
X21512Y-21475D01*
X21519Y-21469D01*
X21608Y-21469D01*
X21890Y-21751D01*
X21755Y-21887D01*
X21365Y-21887D01*
X21215Y-21737D01*
X21203Y-21728D01*
X21192Y-21718D01*
X21191Y-21718D01*
X21191Y-21717D01*
X21178Y-21710D01*
X21165Y-21703D01*
X21164Y-21703D01*
X21163Y-21703D01*
X21149Y-21698D01*
X21135Y-21694D01*
X21134Y-21694D01*
X21133Y-21694D01*
X21119Y-21692D01*
X21104Y-21690D01*
X21102Y-21690D01*
X21102Y-21690D01*
X21102Y-21690D01*
X21102Y-21690D01*
X20986Y-21690D01*
X20986Y-20444D01*
X20984Y-20430D01*
X20983Y-20415D01*
X20983Y-20414D01*
X20983Y-20413D01*
X20978Y-20399D01*
X20974Y-20385D01*
X20974Y-20384D01*
X20974Y-20384D01*
X20967Y-20371D01*
X20960Y-20358D01*
X20960Y-20357D01*
X20959Y-20356D01*
X20950Y-20345D01*
X20941Y-20333D01*
X20939Y-20332D01*
X20939Y-20332D01*
X20939Y-20332D01*
X20939Y-20332D01*
X20809Y-20202D01*
X20798Y-20192D01*
X20786Y-20183D01*
X20786Y-20182D01*
X20785Y-20182D01*
X20772Y-20175D01*
X20769Y-20173D01*
X20769Y-20159D01*
X22253Y-20159D01*
X22268Y-20158D01*
X22283Y-20156D01*
X22283Y-20156D01*
X22284Y-20156D01*
X22298Y-20152D01*
X22312Y-20148D01*
X22313Y-20147D01*
X22314Y-20147D01*
X22327Y-20140D01*
X22340Y-20133D01*
X22341Y-20133D01*
X22341Y-20132D01*
X22353Y-20123D01*
X22364Y-20114D01*
X22366Y-20113D01*
X22366Y-20113D01*
X22366Y-20113D01*
X22366Y-20112D01*
X22679Y-19799D01*
X23863Y-19799D01*
X23878Y-19798D01*
X23893Y-19796D01*
X23893Y-19796D01*
X23894Y-19796D01*
X23908Y-19792D01*
X23922Y-19788D01*
X23923Y-19787D01*
X23924Y-19787D01*
X23937Y-19780D01*
X23950Y-19773D01*
X23951Y-19773D01*
X23951Y-19772D01*
X23963Y-19763D01*
X23974Y-19754D01*
X23976Y-19753D01*
X23976Y-19753D01*
X23976Y-19753D01*
X23976Y-19752D01*
X24043Y-19685D01*
X24052Y-19674D01*
X24062Y-19663D01*
X24062Y-19662D01*
X24063Y-19661D01*
X24070Y-19648D01*
X24077Y-19635D01*
X24077Y-19635D01*
X24077Y-19634D01*
X24082Y-19620D01*
X24086Y-19606D01*
X24086Y-19605D01*
X24086Y-19604D01*
X24088Y-19590D01*
X24090Y-19575D01*
X24090Y-19573D01*
X24090Y-19573D01*
X24090Y-19573D01*
X24090Y-19573D01*
X24090Y-19364D01*
X24573Y-18880D01*
X25290Y-18880D01*
X25304Y-18879D01*
X25319Y-18878D01*
X25320Y-18877D01*
X25321Y-18877D01*
X25335Y-18873D01*
X25349Y-18869D01*
X25350Y-18869D01*
X25351Y-18868D01*
X25364Y-18861D01*
X25377Y-18855D01*
X25377Y-18854D01*
X25378Y-18854D01*
X25389Y-18844D01*
X25401Y-18835D01*
X25402Y-18834D01*
X25402Y-18834D01*
X25402Y-18834D01*
X25403Y-18834D01*
X25534Y-18702D01*
X25978Y-18702D01*
X25963Y-18705D01*
X25945Y-18713D01*
X25929Y-18724D01*
X25915Y-18738D01*
X25904Y-18754D01*
X25896Y-18772D01*
X25892Y-18791D01*
X25892Y-18811D01*
X25892Y-19442D01*
X25896Y-19461D01*
X25903Y-19479D01*
X25914Y-19496D01*
X25928Y-19510D01*
X25945Y-19521D01*
X25963Y-19528D01*
X25982Y-19532D01*
X26002Y-19532D01*
X26352Y-19532D01*
X26357Y-19532D01*
X26642Y-19817D01*
X26653Y-19826D01*
X26665Y-19836D01*
X26665Y-19836D01*
X26666Y-19837D01*
X26679Y-19844D01*
X26692Y-19851D01*
X26693Y-19851D01*
X26694Y-19851D01*
X26708Y-19856D01*
X26722Y-19860D01*
X26723Y-19860D01*
X26723Y-19861D01*
X26738Y-19862D01*
X26753Y-19864D01*
X26754Y-19864D01*
X26754Y-19864D01*
X26754Y-19864D01*
X26755Y-19864D01*
X27084Y-19864D01*
X27084Y-20091D01*
X27084Y-20091D01*
G37*
G54D14*
X27084Y-20091D02*
X27052Y-20123D01*
X27052Y-20123D01*
X26953Y-20222D01*
X26933Y-20246D01*
X26918Y-20274D01*
X26912Y-20293D01*
X26881Y-20293D01*
X26861Y-20297D01*
X26843Y-20305D01*
X26827Y-20316D01*
X26813Y-20329D01*
X26802Y-20346D01*
X26794Y-20364D01*
X26790Y-20383D01*
X26790Y-20403D01*
X26790Y-20954D01*
X26794Y-20973D01*
X26801Y-20991D01*
X26812Y-21008D01*
X26826Y-21022D01*
X26842Y-21033D01*
X26861Y-21040D01*
X26880Y-21044D01*
X26900Y-21044D01*
X26906Y-21044D01*
X26906Y-21300D01*
X26453Y-21300D01*
X23762Y-21300D01*
X23762Y-20869D01*
X23754Y-20829D01*
X23739Y-20791D01*
X23716Y-20757D01*
X23687Y-20728D01*
X23653Y-20705D01*
X23615Y-20689D01*
X23575Y-20681D01*
X23534Y-20680D01*
X23494Y-20688D01*
X23456Y-20703D01*
X23422Y-20726D01*
X23398Y-20749D01*
X22937Y-20749D01*
X22936Y-20747D01*
X22907Y-20718D01*
X22873Y-20695D01*
X22835Y-20679D01*
X22795Y-20671D01*
X22754Y-20670D01*
X22714Y-20678D01*
X22676Y-20693D01*
X22642Y-20716D01*
X22612Y-20745D01*
X22589Y-20778D01*
X22573Y-20816D01*
X22564Y-20856D01*
X22564Y-20897D01*
X22571Y-20937D01*
X22586Y-20975D01*
X22609Y-21010D01*
X22637Y-21039D01*
X22671Y-21063D01*
X22708Y-21079D01*
X22748Y-21088D01*
X22789Y-21089D01*
X22830Y-21082D01*
X22868Y-21067D01*
X22902Y-21045D01*
X22932Y-21017D01*
X22937Y-21010D01*
X23382Y-21010D01*
X23389Y-21020D01*
X23417Y-21049D01*
X23451Y-21073D01*
X23488Y-21089D01*
X23528Y-21098D01*
X23569Y-21099D01*
X23610Y-21092D01*
X23648Y-21077D01*
X23682Y-21055D01*
X23712Y-21027D01*
X23736Y-20993D01*
X23752Y-20956D01*
X23762Y-20916D01*
X23762Y-20869D01*
X23762Y-21300D01*
X22408Y-21300D01*
X22393Y-21301D01*
X22378Y-21303D01*
X22377Y-21303D01*
X22377Y-21303D01*
X22363Y-21307D01*
X22348Y-21311D01*
X22348Y-21312D01*
X22347Y-21312D01*
X22334Y-21319D01*
X22321Y-21326D01*
X22320Y-21326D01*
X22319Y-21327D01*
X22308Y-21336D01*
X22296Y-21345D01*
X22295Y-21346D01*
X22295Y-21346D01*
X22295Y-21346D01*
X22295Y-21347D01*
X22116Y-21526D01*
X21786Y-21197D01*
X21775Y-21187D01*
X21764Y-21178D01*
X21763Y-21177D01*
X21762Y-21177D01*
X21749Y-21170D01*
X21737Y-21163D01*
X21736Y-21163D01*
X21735Y-21162D01*
X21721Y-21158D01*
X21707Y-21153D01*
X21706Y-21153D01*
X21705Y-21153D01*
X21691Y-21152D01*
X21676Y-21150D01*
X21674Y-21150D01*
X21674Y-21150D01*
X21674Y-21150D01*
X21674Y-21150D01*
X21519Y-21150D01*
X21517Y-21148D01*
X21483Y-21125D01*
X21445Y-21109D01*
X21405Y-21101D01*
X21364Y-21100D01*
X21324Y-21108D01*
X21286Y-21123D01*
X21252Y-21146D01*
X21222Y-21175D01*
X21199Y-21208D01*
X21183Y-21246D01*
X21174Y-21286D01*
X21174Y-21327D01*
X21181Y-21367D01*
X21196Y-21405D01*
X21219Y-21440D01*
X21247Y-21469D01*
X21281Y-21493D01*
X21318Y-21509D01*
X21358Y-21518D01*
X21399Y-21519D01*
X21440Y-21512D01*
X21478Y-21497D01*
X21512Y-21475D01*
X21519Y-21469D01*
X21608Y-21469D01*
X21890Y-21751D01*
X21755Y-21887D01*
X21365Y-21887D01*
X21215Y-21737D01*
X21203Y-21728D01*
X21192Y-21718D01*
X21191Y-21718D01*
X21191Y-21717D01*
X21178Y-21710D01*
X21165Y-21703D01*
X21164Y-21703D01*
X21163Y-21703D01*
X21149Y-21698D01*
X21135Y-21694D01*
X21134Y-21694D01*
X21133Y-21694D01*
X21119Y-21692D01*
X21104Y-21690D01*
X21102Y-21690D01*
X21102Y-21690D01*
X21102Y-21690D01*
X21102Y-21690D01*
X20986Y-21690D01*
X20986Y-20444D01*
X20984Y-20430D01*
X20983Y-20415D01*
X20983Y-20414D01*
X20983Y-20413D01*
X20978Y-20399D01*
X20974Y-20385D01*
X20974Y-20384D01*
X20974Y-20384D01*
X20967Y-20371D01*
X20960Y-20358D01*
X20960Y-20357D01*
X20959Y-20356D01*
X20950Y-20345D01*
X20941Y-20333D01*
X20939Y-20332D01*
X20939Y-20332D01*
X20939Y-20332D01*
X20939Y-20332D01*
X20809Y-20202D01*
X20798Y-20192D01*
X20786Y-20183D01*
X20786Y-20182D01*
X20785Y-20182D01*
X20772Y-20175D01*
X20769Y-20173D01*
X20769Y-20159D01*
X22253Y-20159D01*
X22268Y-20158D01*
X22283Y-20156D01*
X22283Y-20156D01*
X22284Y-20156D01*
X22298Y-20152D01*
X22312Y-20148D01*
X22313Y-20147D01*
X22314Y-20147D01*
X22327Y-20140D01*
X22340Y-20133D01*
X22341Y-20133D01*
X22341Y-20132D01*
X22353Y-20123D01*
X22364Y-20114D01*
X22366Y-20113D01*
X22366Y-20113D01*
X22366Y-20113D01*
X22366Y-20112D01*
X22679Y-19799D01*
X23863Y-19799D01*
X23878Y-19798D01*
X23893Y-19796D01*
X23893Y-19796D01*
X23894Y-19796D01*
X23908Y-19792D01*
X23922Y-19788D01*
X23923Y-19787D01*
X23924Y-19787D01*
X23937Y-19780D01*
X23950Y-19773D01*
X23951Y-19773D01*
X23951Y-19772D01*
X23963Y-19763D01*
X23974Y-19754D01*
X23976Y-19753D01*
X23976Y-19753D01*
X23976Y-19753D01*
X23976Y-19752D01*
X24043Y-19685D01*
X24052Y-19674D01*
X24062Y-19663D01*
X24062Y-19662D01*
X24063Y-19661D01*
X24070Y-19648D01*
X24077Y-19635D01*
X24077Y-19635D01*
X24077Y-19634D01*
X24082Y-19620D01*
X24086Y-19606D01*
X24086Y-19605D01*
X24086Y-19604D01*
X24088Y-19590D01*
X24090Y-19575D01*
X24090Y-19573D01*
X24090Y-19573D01*
X24090Y-19573D01*
X24090Y-19573D01*
X24090Y-19364D01*
X24573Y-18880D01*
X25290Y-18880D01*
X25304Y-18879D01*
X25319Y-18878D01*
X25320Y-18877D01*
X25321Y-18877D01*
X25335Y-18873D01*
X25349Y-18869D01*
X25350Y-18869D01*
X25351Y-18868D01*
X25364Y-18861D01*
X25377Y-18855D01*
X25377Y-18854D01*
X25378Y-18854D01*
X25389Y-18844D01*
X25401Y-18835D01*
X25402Y-18834D01*
X25402Y-18834D01*
X25402Y-18834D01*
X25403Y-18834D01*
X25534Y-18702D01*
X25978Y-18702D01*
X25963Y-18705D01*
X25945Y-18713D01*
X25929Y-18724D01*
X25915Y-18738D01*
X25904Y-18754D01*
X25896Y-18772D01*
X25892Y-18791D01*
X25892Y-18811D01*
X25892Y-19442D01*
X25896Y-19461D01*
X25903Y-19479D01*
X25914Y-19496D01*
X25928Y-19510D01*
X25945Y-19521D01*
X25963Y-19528D01*
X25982Y-19532D01*
X26002Y-19532D01*
X26352Y-19532D01*
X26357Y-19532D01*
X26642Y-19817D01*
X26653Y-19826D01*
X26665Y-19836D01*
X26665Y-19836D01*
X26666Y-19837D01*
X26679Y-19844D01*
X26692Y-19851D01*
X26693Y-19851D01*
X26694Y-19851D01*
X26708Y-19856D01*
X26722Y-19860D01*
X26723Y-19860D01*
X26723Y-19861D01*
X26738Y-19862D01*
X26753Y-19864D01*
X26754Y-19864D01*
X26754Y-19864D01*
X26754Y-19864D01*
X26755Y-19864D01*
X27084Y-19864D01*
X27084Y-20091D01*
G54D10*
G36*
X29255Y-19346D02*
X29247Y-19346D01*
X29247Y-19354D01*
X29188Y-19354D01*
X29188Y-19346D01*
X28954Y-19346D01*
X28932Y-19369D01*
X28932Y-19454D01*
X28935Y-19471D01*
X28942Y-19487D01*
X28947Y-19495D01*
X28943Y-19500D01*
X28932Y-19516D01*
X28924Y-19534D01*
X28920Y-19553D01*
X28920Y-19573D01*
X28920Y-19830D01*
X28924Y-19849D01*
X28931Y-19867D01*
X28933Y-19870D01*
X28933Y-19900D01*
X28890Y-19900D01*
X28871Y-19903D01*
X28853Y-19911D01*
X28836Y-19922D01*
X28822Y-19936D01*
X28811Y-19952D01*
X28804Y-19970D01*
X28800Y-19990D01*
X28800Y-20009D01*
X28800Y-20560D01*
X28804Y-20579D01*
X28811Y-20598D01*
X28822Y-20614D01*
X28836Y-20628D01*
X28852Y-20639D01*
X28870Y-20647D01*
X28890Y-20651D01*
X28909Y-20651D01*
X28933Y-20651D01*
X28933Y-21483D01*
X28866Y-21496D01*
X28780Y-21531D01*
X28703Y-21581D01*
X28637Y-21646D01*
X28610Y-21685D01*
X28589Y-21663D01*
X28589Y-20542D01*
X28589Y-20327D01*
X28567Y-20305D01*
X28355Y-20305D01*
X28355Y-20616D01*
X28377Y-20639D01*
X28509Y-20639D01*
X28526Y-20635D01*
X28542Y-20629D01*
X28556Y-20619D01*
X28569Y-20607D01*
X28579Y-20592D01*
X28585Y-20576D01*
X28589Y-20559D01*
X28589Y-20542D01*
X28589Y-21663D01*
X28296Y-21370D01*
X28272Y-21347D01*
X28261Y-21337D01*
X28250Y-21328D01*
X28249Y-21327D01*
X28248Y-21327D01*
X28235Y-21320D01*
X28222Y-21313D01*
X28222Y-21313D01*
X28221Y-21312D01*
X28207Y-21308D01*
X28193Y-21303D01*
X28192Y-21303D01*
X28191Y-21303D01*
X28176Y-21302D01*
X28162Y-21300D01*
X28160Y-21300D01*
X28160Y-21300D01*
X28160Y-21300D01*
X28160Y-21300D01*
X28079Y-21300D01*
X28079Y-20936D01*
X28079Y-20720D01*
X28057Y-20698D01*
X27845Y-20698D01*
X27845Y-21010D01*
X27867Y-21032D01*
X27999Y-21032D01*
X28016Y-21029D01*
X28032Y-21022D01*
X28047Y-21013D01*
X28059Y-21000D01*
X28069Y-20986D01*
X28075Y-20970D01*
X28079Y-20953D01*
X28079Y-20936D01*
X28079Y-21300D01*
X28031Y-21300D01*
X27786Y-21300D01*
X27786Y-21010D01*
X27786Y-20698D01*
X27574Y-20698D01*
X27552Y-20720D01*
X27552Y-20936D01*
X27552Y-20953D01*
X27555Y-20970D01*
X27562Y-20986D01*
X27572Y-21000D01*
X27584Y-21013D01*
X27599Y-21022D01*
X27615Y-21029D01*
X27632Y-21032D01*
X27764Y-21032D01*
X27786Y-21010D01*
X27786Y-21300D01*
X27225Y-21300D01*
X27225Y-21044D01*
X27250Y-21044D01*
X27270Y-21040D01*
X27288Y-21033D01*
X27304Y-21022D01*
X27318Y-21008D01*
X27329Y-20992D01*
X27337Y-20974D01*
X27341Y-20954D01*
X27341Y-20935D01*
X27341Y-20384D01*
X27337Y-20365D01*
X27330Y-20346D01*
X27319Y-20330D01*
X27307Y-20319D01*
X27310Y-20317D01*
X27597Y-20317D01*
X27584Y-20325D01*
X27572Y-20337D01*
X27562Y-20351D01*
X27555Y-20367D01*
X27552Y-20384D01*
X27552Y-20402D01*
X27552Y-20617D01*
X27574Y-20639D01*
X27786Y-20639D01*
X27786Y-20631D01*
X27845Y-20631D01*
X27845Y-20639D01*
X28057Y-20639D01*
X28079Y-20617D01*
X28079Y-20603D01*
X28082Y-20607D01*
X28094Y-20619D01*
X28109Y-20629D01*
X28125Y-20635D01*
X28142Y-20639D01*
X28274Y-20639D01*
X28296Y-20616D01*
X28296Y-20305D01*
X28084Y-20305D01*
X28062Y-20327D01*
X28062Y-20341D01*
X28059Y-20337D01*
X28047Y-20325D01*
X28032Y-20315D01*
X28016Y-20309D01*
X27999Y-20305D01*
X27867Y-20305D01*
X27845Y-20327D01*
X27845Y-20305D01*
X27822Y-20305D01*
X27823Y-20305D01*
X27839Y-20294D01*
X27853Y-20280D01*
X27864Y-20264D01*
X27872Y-20246D01*
X27876Y-20227D01*
X27876Y-20207D01*
X27876Y-20074D01*
X27879Y-20073D01*
X27893Y-20069D01*
X27894Y-20068D01*
X27895Y-20068D01*
X27908Y-20061D01*
X27921Y-20055D01*
X27922Y-20054D01*
X27922Y-20054D01*
X27934Y-20044D01*
X27945Y-20035D01*
X27947Y-20034D01*
X27947Y-20034D01*
X27947Y-20034D01*
X27947Y-20034D01*
X28060Y-19920D01*
X28111Y-19920D01*
X28109Y-19922D01*
X28094Y-19931D01*
X28082Y-19943D01*
X28072Y-19958D01*
X28065Y-19974D01*
X28062Y-19991D01*
X28062Y-20008D01*
X28062Y-20223D01*
X28084Y-20246D01*
X28296Y-20246D01*
X28296Y-20238D01*
X28355Y-20238D01*
X28355Y-20246D01*
X28567Y-20246D01*
X28589Y-20223D01*
X28589Y-20008D01*
X28589Y-19991D01*
X28585Y-19974D01*
X28579Y-19958D01*
X28569Y-19943D01*
X28556Y-19931D01*
X28542Y-19922D01*
X28526Y-19915D01*
X28509Y-19912D01*
X28456Y-19912D01*
X28462Y-19909D01*
X28478Y-19898D01*
X28492Y-19884D01*
X28503Y-19868D01*
X28511Y-19850D01*
X28515Y-19830D01*
X28515Y-19811D01*
X28515Y-19554D01*
X28511Y-19535D01*
X28504Y-19516D01*
X28493Y-19500D01*
X28479Y-19486D01*
X28463Y-19475D01*
X28444Y-19467D01*
X28425Y-19463D01*
X28405Y-19463D01*
X28011Y-19463D01*
X27991Y-19467D01*
X27973Y-19475D01*
X27957Y-19486D01*
X27943Y-19500D01*
X27932Y-19516D01*
X27924Y-19534D01*
X27920Y-19553D01*
X27920Y-19573D01*
X27920Y-19609D01*
X27876Y-19654D01*
X27876Y-19616D01*
X27872Y-19596D01*
X27864Y-19578D01*
X27853Y-19562D01*
X27839Y-19548D01*
X27823Y-19537D01*
X27813Y-19532D01*
X27852Y-19532D01*
X27872Y-19529D01*
X27890Y-19521D01*
X27906Y-19510D01*
X27920Y-19496D01*
X27931Y-19480D01*
X27939Y-19462D01*
X27943Y-19442D01*
X27943Y-19423D01*
X27943Y-19349D01*
X28520Y-19349D01*
X28535Y-19348D01*
X28549Y-19346D01*
X28550Y-19346D01*
X28551Y-19346D01*
X28565Y-19342D01*
X28579Y-19338D01*
X28580Y-19337D01*
X28581Y-19337D01*
X28594Y-19330D01*
X28607Y-19323D01*
X28608Y-19323D01*
X28608Y-19322D01*
X28620Y-19313D01*
X28631Y-19304D01*
X28632Y-19303D01*
X28633Y-19303D01*
X28633Y-19303D01*
X28633Y-19302D01*
X28834Y-19101D01*
X28925Y-19101D01*
X28931Y-19117D01*
X28942Y-19134D01*
X28947Y-19139D01*
X28942Y-19147D01*
X28935Y-19163D01*
X28932Y-19180D01*
X28932Y-19265D01*
X28954Y-19287D01*
X29188Y-19287D01*
X29188Y-19280D01*
X29247Y-19280D01*
X29247Y-19287D01*
X29255Y-19287D01*
X29255Y-19346D01*
X29255Y-19346D01*
G37*
G54D14*
X29255Y-19346D02*
X29247Y-19346D01*
X29247Y-19354D01*
X29188Y-19354D01*
X29188Y-19346D01*
X28954Y-19346D01*
X28932Y-19369D01*
X28932Y-19454D01*
X28935Y-19471D01*
X28942Y-19487D01*
X28947Y-19495D01*
X28943Y-19500D01*
X28932Y-19516D01*
X28924Y-19534D01*
X28920Y-19553D01*
X28920Y-19573D01*
X28920Y-19830D01*
X28924Y-19849D01*
X28931Y-19867D01*
X28933Y-19870D01*
X28933Y-19900D01*
X28890Y-19900D01*
X28871Y-19903D01*
X28853Y-19911D01*
X28836Y-19922D01*
X28822Y-19936D01*
X28811Y-19952D01*
X28804Y-19970D01*
X28800Y-19990D01*
X28800Y-20009D01*
X28800Y-20560D01*
X28804Y-20579D01*
X28811Y-20598D01*
X28822Y-20614D01*
X28836Y-20628D01*
X28852Y-20639D01*
X28870Y-20647D01*
X28890Y-20651D01*
X28909Y-20651D01*
X28933Y-20651D01*
X28933Y-21483D01*
X28866Y-21496D01*
X28780Y-21531D01*
X28703Y-21581D01*
X28637Y-21646D01*
X28610Y-21685D01*
X28589Y-21663D01*
X28589Y-20542D01*
X28589Y-20327D01*
X28567Y-20305D01*
X28355Y-20305D01*
X28355Y-20616D01*
X28377Y-20639D01*
X28509Y-20639D01*
X28526Y-20635D01*
X28542Y-20629D01*
X28556Y-20619D01*
X28569Y-20607D01*
X28579Y-20592D01*
X28585Y-20576D01*
X28589Y-20559D01*
X28589Y-20542D01*
X28589Y-21663D01*
X28296Y-21370D01*
X28272Y-21347D01*
X28261Y-21337D01*
X28250Y-21328D01*
X28249Y-21327D01*
X28248Y-21327D01*
X28235Y-21320D01*
X28222Y-21313D01*
X28222Y-21313D01*
X28221Y-21312D01*
X28207Y-21308D01*
X28193Y-21303D01*
X28192Y-21303D01*
X28191Y-21303D01*
X28176Y-21302D01*
X28162Y-21300D01*
X28160Y-21300D01*
X28160Y-21300D01*
X28160Y-21300D01*
X28160Y-21300D01*
X28079Y-21300D01*
X28079Y-20936D01*
X28079Y-20720D01*
X28057Y-20698D01*
X27845Y-20698D01*
X27845Y-21010D01*
X27867Y-21032D01*
X27999Y-21032D01*
X28016Y-21029D01*
X28032Y-21022D01*
X28047Y-21013D01*
X28059Y-21000D01*
X28069Y-20986D01*
X28075Y-20970D01*
X28079Y-20953D01*
X28079Y-20936D01*
X28079Y-21300D01*
X28031Y-21300D01*
X27786Y-21300D01*
X27786Y-21010D01*
X27786Y-20698D01*
X27574Y-20698D01*
X27552Y-20720D01*
X27552Y-20936D01*
X27552Y-20953D01*
X27555Y-20970D01*
X27562Y-20986D01*
X27572Y-21000D01*
X27584Y-21013D01*
X27599Y-21022D01*
X27615Y-21029D01*
X27632Y-21032D01*
X27764Y-21032D01*
X27786Y-21010D01*
X27786Y-21300D01*
X27225Y-21300D01*
X27225Y-21044D01*
X27250Y-21044D01*
X27270Y-21040D01*
X27288Y-21033D01*
X27304Y-21022D01*
X27318Y-21008D01*
X27329Y-20992D01*
X27337Y-20974D01*
X27341Y-20954D01*
X27341Y-20935D01*
X27341Y-20384D01*
X27337Y-20365D01*
X27330Y-20346D01*
X27319Y-20330D01*
X27307Y-20319D01*
X27310Y-20317D01*
X27597Y-20317D01*
X27584Y-20325D01*
X27572Y-20337D01*
X27562Y-20351D01*
X27555Y-20367D01*
X27552Y-20384D01*
X27552Y-20402D01*
X27552Y-20617D01*
X27574Y-20639D01*
X27786Y-20639D01*
X27786Y-20631D01*
X27845Y-20631D01*
X27845Y-20639D01*
X28057Y-20639D01*
X28079Y-20617D01*
X28079Y-20603D01*
X28082Y-20607D01*
X28094Y-20619D01*
X28109Y-20629D01*
X28125Y-20635D01*
X28142Y-20639D01*
X28274Y-20639D01*
X28296Y-20616D01*
X28296Y-20305D01*
X28084Y-20305D01*
X28062Y-20327D01*
X28062Y-20341D01*
X28059Y-20337D01*
X28047Y-20325D01*
X28032Y-20315D01*
X28016Y-20309D01*
X27999Y-20305D01*
X27867Y-20305D01*
X27845Y-20327D01*
X27845Y-20305D01*
X27822Y-20305D01*
X27823Y-20305D01*
X27839Y-20294D01*
X27853Y-20280D01*
X27864Y-20264D01*
X27872Y-20246D01*
X27876Y-20227D01*
X27876Y-20207D01*
X27876Y-20074D01*
X27879Y-20073D01*
X27893Y-20069D01*
X27894Y-20068D01*
X27895Y-20068D01*
X27908Y-20061D01*
X27921Y-20055D01*
X27922Y-20054D01*
X27922Y-20054D01*
X27934Y-20044D01*
X27945Y-20035D01*
X27947Y-20034D01*
X27947Y-20034D01*
X27947Y-20034D01*
X27947Y-20034D01*
X28060Y-19920D01*
X28111Y-19920D01*
X28109Y-19922D01*
X28094Y-19931D01*
X28082Y-19943D01*
X28072Y-19958D01*
X28065Y-19974D01*
X28062Y-19991D01*
X28062Y-20008D01*
X28062Y-20223D01*
X28084Y-20246D01*
X28296Y-20246D01*
X28296Y-20238D01*
X28355Y-20238D01*
X28355Y-20246D01*
X28567Y-20246D01*
X28589Y-20223D01*
X28589Y-20008D01*
X28589Y-19991D01*
X28585Y-19974D01*
X28579Y-19958D01*
X28569Y-19943D01*
X28556Y-19931D01*
X28542Y-19922D01*
X28526Y-19915D01*
X28509Y-19912D01*
X28456Y-19912D01*
X28462Y-19909D01*
X28478Y-19898D01*
X28492Y-19884D01*
X28503Y-19868D01*
X28511Y-19850D01*
X28515Y-19830D01*
X28515Y-19811D01*
X28515Y-19554D01*
X28511Y-19535D01*
X28504Y-19516D01*
X28493Y-19500D01*
X28479Y-19486D01*
X28463Y-19475D01*
X28444Y-19467D01*
X28425Y-19463D01*
X28405Y-19463D01*
X28011Y-19463D01*
X27991Y-19467D01*
X27973Y-19475D01*
X27957Y-19486D01*
X27943Y-19500D01*
X27932Y-19516D01*
X27924Y-19534D01*
X27920Y-19553D01*
X27920Y-19573D01*
X27920Y-19609D01*
X27876Y-19654D01*
X27876Y-19616D01*
X27872Y-19596D01*
X27864Y-19578D01*
X27853Y-19562D01*
X27839Y-19548D01*
X27823Y-19537D01*
X27813Y-19532D01*
X27852Y-19532D01*
X27872Y-19529D01*
X27890Y-19521D01*
X27906Y-19510D01*
X27920Y-19496D01*
X27931Y-19480D01*
X27939Y-19462D01*
X27943Y-19442D01*
X27943Y-19423D01*
X27943Y-19349D01*
X28520Y-19349D01*
X28535Y-19348D01*
X28549Y-19346D01*
X28550Y-19346D01*
X28551Y-19346D01*
X28565Y-19342D01*
X28579Y-19338D01*
X28580Y-19337D01*
X28581Y-19337D01*
X28594Y-19330D01*
X28607Y-19323D01*
X28608Y-19323D01*
X28608Y-19322D01*
X28620Y-19313D01*
X28631Y-19304D01*
X28632Y-19303D01*
X28633Y-19303D01*
X28633Y-19303D01*
X28633Y-19302D01*
X28834Y-19101D01*
X28925Y-19101D01*
X28931Y-19117D01*
X28942Y-19134D01*
X28947Y-19139D01*
X28942Y-19147D01*
X28935Y-19163D01*
X28932Y-19180D01*
X28932Y-19265D01*
X28954Y-19287D01*
X29188Y-19287D01*
X29188Y-19280D01*
X29247Y-19280D01*
X29247Y-19287D01*
X29255Y-19287D01*
X29255Y-19346D01*
G54D10*
G36*
X29580Y-23384D02*
X29384Y-23580D01*
X28460Y-23580D01*
X28460Y-23039D01*
X28449Y-22950D01*
X28421Y-22865D01*
X28389Y-22803D01*
X28330Y-22761D01*
X28288Y-22803D01*
X28288Y-22719D01*
X28288Y-22380D01*
X28000Y-22091D01*
X27958Y-22133D01*
X27958Y-22050D01*
X27669Y-21761D01*
X27610Y-21803D01*
X27570Y-21883D01*
X27546Y-21970D01*
X27539Y-22060D01*
X27550Y-22149D01*
X27578Y-22234D01*
X27610Y-22296D01*
X27669Y-22338D01*
X27958Y-22050D01*
X27958Y-22133D01*
X27711Y-22380D01*
X27753Y-22439D01*
X27833Y-22479D01*
X27920Y-22503D01*
X28010Y-22510D01*
X28099Y-22499D01*
X28184Y-22471D01*
X28246Y-22439D01*
X28288Y-22380D01*
X28288Y-22719D01*
X28246Y-22660D01*
X28166Y-22620D01*
X28079Y-22596D01*
X27989Y-22589D01*
X27900Y-22600D01*
X27815Y-22628D01*
X27753Y-22660D01*
X27711Y-22719D01*
X28000Y-23008D01*
X28288Y-22719D01*
X28288Y-22803D01*
X28041Y-23050D01*
X28330Y-23338D01*
X28389Y-23296D01*
X28429Y-23216D01*
X28453Y-23129D01*
X28460Y-23039D01*
X28460Y-23580D01*
X28288Y-23580D01*
X28288Y-23380D01*
X28000Y-23091D01*
X27958Y-23133D01*
X27958Y-23050D01*
X27669Y-22761D01*
X27610Y-22803D01*
X27570Y-22883D01*
X27546Y-22970D01*
X27539Y-23060D01*
X27550Y-23149D01*
X27578Y-23234D01*
X27610Y-23296D01*
X27669Y-23338D01*
X27958Y-23050D01*
X27958Y-23133D01*
X27711Y-23380D01*
X27753Y-23439D01*
X27833Y-23479D01*
X27920Y-23503D01*
X28010Y-23510D01*
X28099Y-23499D01*
X28184Y-23471D01*
X28246Y-23439D01*
X28288Y-23380D01*
X28288Y-23580D01*
X27470Y-23580D01*
X27470Y-22903D01*
X27452Y-22813D01*
X27417Y-22728D01*
X27366Y-22651D01*
X27301Y-22585D01*
X27224Y-22534D01*
X27139Y-22498D01*
X27049Y-22479D01*
X26957Y-22479D01*
X26866Y-22496D01*
X26780Y-22531D01*
X26703Y-22581D01*
X26637Y-22646D01*
X26585Y-22722D01*
X26549Y-22807D01*
X26530Y-22897D01*
X26528Y-22989D01*
X26545Y-23080D01*
X26579Y-23166D01*
X26629Y-23243D01*
X26693Y-23310D01*
X26769Y-23362D01*
X26853Y-23399D01*
X26944Y-23419D01*
X27036Y-23421D01*
X27127Y-23405D01*
X27213Y-23371D01*
X27291Y-23322D01*
X27357Y-23258D01*
X27411Y-23183D01*
X27448Y-23099D01*
X27469Y-23009D01*
X27470Y-22903D01*
X27470Y-23580D01*
X26470Y-23580D01*
X26470Y-23003D01*
X26452Y-22913D01*
X26417Y-22828D01*
X26366Y-22751D01*
X26301Y-22685D01*
X26224Y-22634D01*
X26139Y-22598D01*
X26049Y-22579D01*
X25957Y-22579D01*
X25866Y-22596D01*
X25780Y-22631D01*
X25703Y-22681D01*
X25637Y-22746D01*
X25585Y-22822D01*
X25549Y-22907D01*
X25530Y-22997D01*
X25528Y-23089D01*
X25545Y-23180D01*
X25579Y-23266D01*
X25629Y-23343D01*
X25693Y-23410D01*
X25769Y-23462D01*
X25853Y-23499D01*
X25944Y-23519D01*
X26036Y-23521D01*
X26127Y-23505D01*
X26213Y-23471D01*
X26291Y-23422D01*
X26357Y-23358D01*
X26411Y-23283D01*
X26448Y-23199D01*
X26469Y-23109D01*
X26470Y-23003D01*
X26470Y-23580D01*
X25470Y-23580D01*
X25470Y-22903D01*
X25452Y-22813D01*
X25417Y-22728D01*
X25366Y-22651D01*
X25301Y-22585D01*
X25224Y-22534D01*
X25139Y-22498D01*
X25049Y-22479D01*
X24957Y-22479D01*
X24866Y-22496D01*
X24780Y-22531D01*
X24703Y-22581D01*
X24637Y-22646D01*
X24585Y-22722D01*
X24549Y-22807D01*
X24530Y-22897D01*
X24528Y-22989D01*
X24545Y-23080D01*
X24579Y-23166D01*
X24629Y-23243D01*
X24693Y-23310D01*
X24769Y-23362D01*
X24853Y-23399D01*
X24944Y-23419D01*
X25036Y-23421D01*
X25127Y-23405D01*
X25213Y-23371D01*
X25291Y-23322D01*
X25357Y-23258D01*
X25411Y-23183D01*
X25448Y-23099D01*
X25469Y-23009D01*
X25470Y-22903D01*
X25470Y-23580D01*
X24470Y-23580D01*
X24470Y-23003D01*
X24452Y-22913D01*
X24417Y-22828D01*
X24366Y-22751D01*
X24301Y-22685D01*
X24224Y-22634D01*
X24139Y-22598D01*
X24049Y-22579D01*
X23957Y-22579D01*
X23866Y-22596D01*
X23780Y-22631D01*
X23703Y-22681D01*
X23637Y-22746D01*
X23585Y-22822D01*
X23549Y-22907D01*
X23530Y-22997D01*
X23528Y-23089D01*
X23545Y-23180D01*
X23579Y-23266D01*
X23629Y-23343D01*
X23693Y-23410D01*
X23769Y-23462D01*
X23853Y-23499D01*
X23944Y-23519D01*
X24036Y-23521D01*
X24127Y-23505D01*
X24213Y-23471D01*
X24291Y-23422D01*
X24357Y-23358D01*
X24411Y-23283D01*
X24448Y-23199D01*
X24469Y-23109D01*
X24470Y-23003D01*
X24470Y-23580D01*
X23470Y-23580D01*
X23470Y-22903D01*
X23452Y-22813D01*
X23417Y-22728D01*
X23366Y-22651D01*
X23301Y-22585D01*
X23224Y-22534D01*
X23139Y-22498D01*
X23049Y-22479D01*
X22957Y-22479D01*
X22866Y-22496D01*
X22780Y-22531D01*
X22703Y-22581D01*
X22637Y-22646D01*
X22585Y-22722D01*
X22549Y-22807D01*
X22530Y-22897D01*
X22528Y-22989D01*
X22545Y-23080D01*
X22579Y-23166D01*
X22629Y-23243D01*
X22693Y-23310D01*
X22769Y-23362D01*
X22853Y-23399D01*
X22944Y-23419D01*
X23036Y-23421D01*
X23127Y-23405D01*
X23213Y-23371D01*
X23291Y-23322D01*
X23357Y-23258D01*
X23411Y-23183D01*
X23448Y-23099D01*
X23469Y-23009D01*
X23470Y-22903D01*
X23470Y-23580D01*
X22470Y-23580D01*
X22470Y-23003D01*
X22452Y-22913D01*
X22417Y-22828D01*
X22366Y-22751D01*
X22301Y-22685D01*
X22224Y-22634D01*
X22139Y-22598D01*
X22049Y-22579D01*
X21957Y-22579D01*
X21866Y-22596D01*
X21780Y-22631D01*
X21703Y-22681D01*
X21637Y-22746D01*
X21585Y-22822D01*
X21549Y-22907D01*
X21530Y-22997D01*
X21528Y-23089D01*
X21545Y-23180D01*
X21579Y-23266D01*
X21629Y-23343D01*
X21693Y-23410D01*
X21769Y-23462D01*
X21853Y-23499D01*
X21944Y-23519D01*
X22036Y-23521D01*
X22127Y-23505D01*
X22213Y-23471D01*
X22291Y-23422D01*
X22357Y-23358D01*
X22411Y-23283D01*
X22448Y-23199D01*
X22469Y-23109D01*
X22470Y-23003D01*
X22470Y-23580D01*
X21470Y-23580D01*
X21470Y-22903D01*
X21452Y-22813D01*
X21417Y-22728D01*
X21366Y-22651D01*
X21301Y-22585D01*
X21224Y-22534D01*
X21139Y-22498D01*
X21049Y-22479D01*
X20957Y-22479D01*
X20866Y-22496D01*
X20780Y-22531D01*
X20703Y-22581D01*
X20637Y-22646D01*
X20585Y-22722D01*
X20549Y-22807D01*
X20530Y-22897D01*
X20528Y-22989D01*
X20545Y-23080D01*
X20579Y-23166D01*
X20629Y-23243D01*
X20693Y-23310D01*
X20769Y-23362D01*
X20853Y-23399D01*
X20944Y-23419D01*
X21036Y-23421D01*
X21127Y-23405D01*
X21213Y-23371D01*
X21291Y-23322D01*
X21357Y-23258D01*
X21411Y-23183D01*
X21448Y-23099D01*
X21469Y-23009D01*
X21470Y-22903D01*
X21470Y-23580D01*
X20470Y-23580D01*
X20470Y-23003D01*
X20452Y-22913D01*
X20417Y-22828D01*
X20366Y-22751D01*
X20301Y-22685D01*
X20224Y-22634D01*
X20139Y-22598D01*
X20049Y-22579D01*
X19957Y-22579D01*
X19866Y-22596D01*
X19780Y-22631D01*
X19703Y-22681D01*
X19637Y-22746D01*
X19585Y-22822D01*
X19549Y-22907D01*
X19530Y-22997D01*
X19528Y-23089D01*
X19545Y-23180D01*
X19579Y-23266D01*
X19629Y-23343D01*
X19693Y-23410D01*
X19769Y-23462D01*
X19853Y-23499D01*
X19944Y-23519D01*
X20036Y-23521D01*
X20127Y-23505D01*
X20213Y-23471D01*
X20291Y-23422D01*
X20357Y-23358D01*
X20411Y-23283D01*
X20448Y-23199D01*
X20469Y-23109D01*
X20470Y-23003D01*
X20470Y-23580D01*
X17470Y-23580D01*
X17470Y-22903D01*
X17452Y-22813D01*
X17417Y-22728D01*
X17366Y-22651D01*
X17301Y-22585D01*
X17224Y-22534D01*
X17139Y-22498D01*
X17049Y-22479D01*
X16957Y-22479D01*
X16866Y-22496D01*
X16780Y-22531D01*
X16703Y-22581D01*
X16637Y-22646D01*
X16585Y-22722D01*
X16549Y-22807D01*
X16530Y-22897D01*
X16528Y-22989D01*
X16545Y-23080D01*
X16579Y-23166D01*
X16629Y-23243D01*
X16693Y-23310D01*
X16769Y-23362D01*
X16853Y-23399D01*
X16944Y-23419D01*
X17036Y-23421D01*
X17127Y-23405D01*
X17213Y-23371D01*
X17291Y-23322D01*
X17357Y-23258D01*
X17411Y-23183D01*
X17448Y-23099D01*
X17469Y-23009D01*
X17470Y-22903D01*
X17470Y-23580D01*
X16470Y-23580D01*
X16470Y-23003D01*
X16452Y-22913D01*
X16417Y-22828D01*
X16366Y-22751D01*
X16301Y-22685D01*
X16224Y-22634D01*
X16139Y-22598D01*
X16049Y-22579D01*
X15957Y-22579D01*
X15866Y-22596D01*
X15780Y-22631D01*
X15703Y-22681D01*
X15637Y-22746D01*
X15585Y-22822D01*
X15549Y-22907D01*
X15530Y-22997D01*
X15528Y-23089D01*
X15545Y-23180D01*
X15579Y-23266D01*
X15629Y-23343D01*
X15693Y-23410D01*
X15769Y-23462D01*
X15853Y-23499D01*
X15944Y-23519D01*
X16036Y-23521D01*
X16127Y-23505D01*
X16213Y-23471D01*
X16291Y-23422D01*
X16357Y-23358D01*
X16411Y-23283D01*
X16448Y-23199D01*
X16469Y-23109D01*
X16470Y-23003D01*
X16470Y-23580D01*
X15615Y-23580D01*
X15420Y-23384D01*
X15420Y-16615D01*
X15615Y-16420D01*
X29384Y-16420D01*
X29580Y-16615D01*
X29580Y-18913D01*
X29515Y-18849D01*
X29515Y-18804D01*
X29511Y-18785D01*
X29504Y-18766D01*
X29493Y-18750D01*
X29479Y-18736D01*
X29463Y-18725D01*
X29444Y-18717D01*
X29425Y-18713D01*
X29405Y-18713D01*
X29011Y-18713D01*
X28991Y-18717D01*
X28973Y-18725D01*
X28957Y-18736D01*
X28943Y-18750D01*
X28932Y-18766D01*
X28925Y-18782D01*
X28791Y-18782D01*
X28663Y-18654D01*
X28663Y-18278D01*
X28693Y-18310D01*
X28769Y-18362D01*
X28853Y-18399D01*
X28944Y-18419D01*
X29036Y-18421D01*
X29127Y-18405D01*
X29213Y-18371D01*
X29291Y-18322D01*
X29357Y-18258D01*
X29411Y-18183D01*
X29448Y-18099D01*
X29469Y-18009D01*
X29470Y-17903D01*
X29470Y-16903D01*
X29452Y-16813D01*
X29417Y-16728D01*
X29366Y-16651D01*
X29301Y-16585D01*
X29224Y-16534D01*
X29139Y-16498D01*
X29049Y-16479D01*
X28957Y-16479D01*
X28866Y-16496D01*
X28780Y-16531D01*
X28703Y-16581D01*
X28637Y-16646D01*
X28585Y-16722D01*
X28549Y-16807D01*
X28530Y-16897D01*
X28528Y-16989D01*
X28545Y-17080D01*
X28579Y-17166D01*
X28629Y-17243D01*
X28693Y-17310D01*
X28769Y-17362D01*
X28853Y-17399D01*
X28944Y-17419D01*
X29036Y-17421D01*
X29127Y-17405D01*
X29213Y-17371D01*
X29291Y-17322D01*
X29357Y-17258D01*
X29411Y-17183D01*
X29448Y-17099D01*
X29469Y-17009D01*
X29470Y-16903D01*
X29470Y-17903D01*
X29452Y-17813D01*
X29417Y-17728D01*
X29366Y-17651D01*
X29301Y-17585D01*
X29224Y-17534D01*
X29139Y-17498D01*
X29049Y-17479D01*
X28957Y-17479D01*
X28866Y-17496D01*
X28780Y-17531D01*
X28703Y-17581D01*
X28637Y-17646D01*
X28602Y-17697D01*
X28341Y-17436D01*
X28329Y-17427D01*
X28318Y-17417D01*
X28317Y-17417D01*
X28317Y-17416D01*
X28304Y-17409D01*
X28357Y-17358D01*
X28411Y-17283D01*
X28448Y-17199D01*
X28469Y-17109D01*
X28470Y-17003D01*
X28452Y-16913D01*
X28417Y-16828D01*
X28366Y-16751D01*
X28301Y-16685D01*
X28224Y-16634D01*
X28139Y-16598D01*
X28049Y-16579D01*
X27957Y-16579D01*
X27866Y-16596D01*
X27780Y-16631D01*
X27703Y-16681D01*
X27637Y-16746D01*
X27585Y-16822D01*
X27549Y-16907D01*
X27530Y-16997D01*
X27528Y-17089D01*
X27545Y-17180D01*
X27579Y-17266D01*
X27629Y-17343D01*
X27693Y-17410D01*
X27695Y-17411D01*
X27688Y-17415D01*
X27688Y-17415D01*
X27687Y-17416D01*
X27675Y-17425D01*
X27664Y-17434D01*
X27663Y-17436D01*
X27663Y-17436D01*
X27663Y-17436D01*
X27662Y-17436D01*
X27460Y-17638D01*
X27460Y-16939D01*
X27449Y-16850D01*
X27421Y-16765D01*
X27389Y-16703D01*
X27330Y-16661D01*
X27288Y-16703D01*
X27288Y-16619D01*
X27246Y-16560D01*
X27166Y-16520D01*
X27079Y-16496D01*
X26989Y-16489D01*
X26900Y-16500D01*
X26815Y-16528D01*
X26753Y-16560D01*
X26711Y-16619D01*
X27000Y-16908D01*
X27288Y-16619D01*
X27288Y-16703D01*
X27041Y-16950D01*
X27330Y-17238D01*
X27389Y-17196D01*
X27429Y-17116D01*
X27453Y-17029D01*
X27460Y-16939D01*
X27460Y-17638D01*
X27398Y-17700D01*
X27366Y-17651D01*
X27301Y-17585D01*
X27288Y-17577D01*
X27288Y-17280D01*
X27000Y-16991D01*
X26958Y-17033D01*
X26958Y-16950D01*
X26669Y-16661D01*
X26610Y-16703D01*
X26570Y-16783D01*
X26546Y-16870D01*
X26539Y-16960D01*
X26550Y-17049D01*
X26578Y-17134D01*
X26610Y-17196D01*
X26669Y-17238D01*
X26958Y-16950D01*
X26958Y-17033D01*
X26711Y-17280D01*
X26753Y-17339D01*
X26833Y-17379D01*
X26920Y-17403D01*
X27010Y-17410D01*
X27099Y-17399D01*
X27184Y-17371D01*
X27246Y-17339D01*
X27288Y-17280D01*
X27288Y-17577D01*
X27224Y-17534D01*
X27139Y-17498D01*
X27049Y-17479D01*
X26957Y-17479D01*
X26866Y-17496D01*
X26799Y-17523D01*
X26711Y-17436D01*
X26700Y-17427D01*
X26689Y-17417D01*
X26688Y-17417D01*
X26687Y-17416D01*
X26674Y-17409D01*
X26662Y-17402D01*
X26661Y-17402D01*
X26660Y-17401D01*
X26646Y-17397D01*
X26632Y-17393D01*
X26631Y-17393D01*
X26630Y-17392D01*
X26616Y-17391D01*
X26601Y-17389D01*
X26599Y-17389D01*
X26599Y-17389D01*
X26599Y-17389D01*
X26599Y-17389D01*
X26325Y-17389D01*
X26357Y-17358D01*
X26411Y-17283D01*
X26448Y-17199D01*
X26469Y-17109D01*
X26470Y-17003D01*
X26452Y-16913D01*
X26417Y-16828D01*
X26366Y-16751D01*
X26301Y-16685D01*
X26224Y-16634D01*
X26139Y-16598D01*
X26049Y-16579D01*
X25957Y-16579D01*
X25866Y-16596D01*
X25780Y-16631D01*
X25703Y-16681D01*
X25637Y-16746D01*
X25585Y-16822D01*
X25549Y-16907D01*
X25530Y-16997D01*
X25528Y-17089D01*
X25545Y-17180D01*
X25579Y-17266D01*
X25629Y-17343D01*
X25693Y-17410D01*
X25696Y-17412D01*
X25690Y-17415D01*
X25690Y-17415D01*
X25689Y-17416D01*
X25677Y-17425D01*
X25666Y-17434D01*
X25665Y-17436D01*
X25665Y-17436D01*
X25665Y-17436D01*
X25664Y-17436D01*
X25470Y-17630D01*
X25470Y-16903D01*
X25452Y-16813D01*
X25417Y-16728D01*
X25366Y-16651D01*
X25301Y-16585D01*
X25224Y-16534D01*
X25139Y-16498D01*
X25049Y-16479D01*
X24957Y-16479D01*
X24866Y-16496D01*
X24780Y-16531D01*
X24703Y-16581D01*
X24637Y-16646D01*
X24585Y-16722D01*
X24549Y-16807D01*
X24530Y-16897D01*
X24528Y-16989D01*
X24545Y-17080D01*
X24579Y-17166D01*
X24629Y-17243D01*
X24693Y-17310D01*
X24769Y-17362D01*
X24853Y-17399D01*
X24944Y-17419D01*
X25036Y-17421D01*
X25127Y-17405D01*
X25213Y-17371D01*
X25291Y-17322D01*
X25357Y-17258D01*
X25411Y-17183D01*
X25448Y-17099D01*
X25469Y-17009D01*
X25470Y-16903D01*
X25470Y-17630D01*
X25399Y-17701D01*
X25366Y-17651D01*
X25301Y-17585D01*
X25224Y-17534D01*
X25139Y-17498D01*
X25049Y-17479D01*
X24957Y-17479D01*
X24866Y-17496D01*
X24780Y-17531D01*
X24703Y-17581D01*
X24637Y-17646D01*
X24585Y-17722D01*
X24549Y-17807D01*
X24530Y-17897D01*
X24528Y-17989D01*
X24545Y-18080D01*
X24579Y-18166D01*
X24629Y-18243D01*
X24693Y-18310D01*
X24769Y-18362D01*
X24817Y-18383D01*
X24470Y-18383D01*
X24470Y-18003D01*
X24470Y-17003D01*
X24452Y-16913D01*
X24417Y-16828D01*
X24366Y-16751D01*
X24301Y-16685D01*
X24224Y-16634D01*
X24139Y-16598D01*
X24049Y-16579D01*
X23957Y-16579D01*
X23866Y-16596D01*
X23780Y-16631D01*
X23703Y-16681D01*
X23637Y-16746D01*
X23585Y-16822D01*
X23549Y-16907D01*
X23530Y-16997D01*
X23528Y-17089D01*
X23545Y-17180D01*
X23579Y-17266D01*
X23629Y-17343D01*
X23693Y-17410D01*
X23769Y-17462D01*
X23853Y-17499D01*
X23944Y-17519D01*
X24036Y-17521D01*
X24127Y-17505D01*
X24213Y-17471D01*
X24291Y-17422D01*
X24357Y-17358D01*
X24411Y-17283D01*
X24448Y-17199D01*
X24469Y-17109D01*
X24470Y-17003D01*
X24470Y-18003D01*
X24452Y-17913D01*
X24417Y-17828D01*
X24366Y-17751D01*
X24301Y-17685D01*
X24224Y-17634D01*
X24139Y-17598D01*
X24049Y-17579D01*
X23957Y-17579D01*
X23866Y-17596D01*
X23780Y-17631D01*
X23703Y-17681D01*
X23637Y-17746D01*
X23585Y-17822D01*
X23549Y-17907D01*
X23530Y-17997D01*
X23528Y-18089D01*
X23545Y-18180D01*
X23579Y-18266D01*
X23629Y-18343D01*
X23693Y-18410D01*
X23769Y-18462D01*
X23853Y-18499D01*
X23944Y-18519D01*
X24036Y-18521D01*
X24127Y-18505D01*
X24213Y-18471D01*
X24291Y-18422D01*
X24357Y-18358D01*
X24411Y-18283D01*
X24448Y-18199D01*
X24469Y-18109D01*
X24470Y-18003D01*
X24470Y-18383D01*
X24433Y-18383D01*
X24419Y-18385D01*
X24404Y-18386D01*
X24403Y-18386D01*
X24402Y-18386D01*
X24388Y-18391D01*
X24374Y-18395D01*
X24373Y-18395D01*
X24373Y-18395D01*
X24360Y-18402D01*
X24346Y-18409D01*
X24346Y-18410D01*
X24345Y-18410D01*
X24334Y-18419D01*
X24322Y-18428D01*
X24321Y-18430D01*
X24321Y-18430D01*
X24321Y-18430D01*
X24321Y-18430D01*
X23896Y-18855D01*
X23896Y-18660D01*
X23892Y-18643D01*
X23886Y-18627D01*
X23876Y-18613D01*
X23864Y-18600D01*
X23849Y-18591D01*
X23833Y-18584D01*
X23816Y-18581D01*
X23799Y-18580D01*
X23634Y-18580D01*
X23612Y-18603D01*
X23612Y-18764D01*
X23874Y-18764D01*
X23896Y-18742D01*
X23896Y-18660D01*
X23896Y-18855D01*
X23896Y-18855D01*
X23896Y-18846D01*
X23874Y-18823D01*
X23612Y-18823D01*
X23612Y-18985D01*
X23634Y-19007D01*
X23743Y-19008D01*
X23582Y-19168D01*
X23553Y-19168D01*
X23553Y-18985D01*
X23553Y-18823D01*
X23553Y-18764D01*
X23553Y-18603D01*
X23531Y-18580D01*
X23470Y-18580D01*
X23470Y-16903D01*
X23452Y-16813D01*
X23417Y-16728D01*
X23366Y-16651D01*
X23301Y-16585D01*
X23224Y-16534D01*
X23139Y-16498D01*
X23049Y-16479D01*
X22957Y-16479D01*
X22866Y-16496D01*
X22780Y-16531D01*
X22703Y-16581D01*
X22637Y-16646D01*
X22585Y-16722D01*
X22549Y-16807D01*
X22530Y-16897D01*
X22528Y-16989D01*
X22545Y-17080D01*
X22579Y-17166D01*
X22629Y-17243D01*
X22693Y-17310D01*
X22769Y-17362D01*
X22853Y-17399D01*
X22944Y-17419D01*
X23036Y-17421D01*
X23127Y-17405D01*
X23213Y-17371D01*
X23291Y-17322D01*
X23357Y-17258D01*
X23411Y-17183D01*
X23448Y-17099D01*
X23469Y-17009D01*
X23470Y-16903D01*
X23470Y-18580D01*
X23365Y-18580D01*
X23348Y-18581D01*
X23331Y-18584D01*
X23315Y-18591D01*
X23300Y-18600D01*
X23288Y-18613D01*
X23279Y-18627D01*
X23272Y-18643D01*
X23269Y-18660D01*
X23269Y-18742D01*
X23291Y-18764D01*
X23553Y-18764D01*
X23553Y-18823D01*
X23291Y-18823D01*
X23269Y-18846D01*
X23269Y-18928D01*
X23272Y-18945D01*
X23279Y-18961D01*
X23288Y-18975D01*
X23300Y-18988D01*
X23315Y-18997D01*
X23331Y-19004D01*
X23348Y-19007D01*
X23365Y-19008D01*
X23531Y-19007D01*
X23553Y-18985D01*
X23553Y-19168D01*
X23347Y-19168D01*
X23328Y-19172D01*
X23310Y-19180D01*
X23293Y-19191D01*
X23279Y-19205D01*
X23268Y-19221D01*
X23263Y-19234D01*
X23209Y-19234D01*
X23206Y-19222D01*
X23199Y-19204D01*
X23188Y-19188D01*
X23174Y-19174D01*
X23158Y-19163D01*
X23140Y-19155D01*
X23120Y-19151D01*
X23101Y-19151D01*
X22954Y-19151D01*
X22954Y-19092D01*
X23120Y-19092D01*
X23139Y-19088D01*
X23157Y-19081D01*
X23174Y-19070D01*
X23188Y-19056D01*
X23199Y-19040D01*
X23206Y-19021D01*
X23210Y-19002D01*
X23210Y-18982D01*
X23210Y-18482D01*
X23210Y-18242D01*
X23206Y-18222D01*
X23199Y-18204D01*
X23188Y-18188D01*
X23174Y-18174D01*
X23158Y-18163D01*
X23140Y-18155D01*
X23120Y-18151D01*
X23101Y-18151D01*
X22700Y-18151D01*
X22759Y-18092D01*
X23120Y-18092D01*
X23139Y-18088D01*
X23157Y-18081D01*
X23174Y-18070D01*
X23188Y-18056D01*
X23199Y-18040D01*
X23206Y-18021D01*
X23210Y-18002D01*
X23210Y-17982D01*
X23210Y-17742D01*
X23206Y-17722D01*
X23199Y-17704D01*
X23188Y-17688D01*
X23174Y-17674D01*
X23158Y-17663D01*
X23140Y-17655D01*
X23120Y-17651D01*
X23101Y-17651D01*
X22470Y-17651D01*
X22470Y-17003D01*
X22452Y-16913D01*
X22417Y-16828D01*
X22366Y-16751D01*
X22301Y-16685D01*
X22224Y-16634D01*
X22139Y-16598D01*
X22049Y-16579D01*
X21957Y-16579D01*
X21866Y-16596D01*
X21780Y-16631D01*
X21703Y-16681D01*
X21637Y-16746D01*
X21585Y-16822D01*
X21549Y-16907D01*
X21530Y-16997D01*
X21528Y-17089D01*
X21545Y-17180D01*
X21579Y-17266D01*
X21629Y-17343D01*
X21693Y-17410D01*
X21769Y-17462D01*
X21853Y-17499D01*
X21944Y-17519D01*
X22036Y-17521D01*
X22127Y-17505D01*
X22213Y-17471D01*
X22291Y-17422D01*
X22357Y-17358D01*
X22411Y-17283D01*
X22448Y-17199D01*
X22469Y-17109D01*
X22470Y-17003D01*
X22470Y-17651D01*
X22470Y-17651D01*
X22451Y-17655D01*
X22432Y-17662D01*
X22416Y-17673D01*
X22402Y-17687D01*
X22391Y-17704D01*
X22383Y-17722D01*
X22379Y-17741D01*
X22379Y-17761D01*
X22379Y-17891D01*
X22376Y-17891D01*
X22336Y-17899D01*
X22298Y-17914D01*
X22264Y-17937D01*
X22234Y-17966D01*
X22211Y-17999D01*
X22195Y-18037D01*
X22186Y-18077D01*
X22186Y-18118D01*
X22193Y-18158D01*
X22208Y-18196D01*
X22231Y-18231D01*
X22240Y-18241D01*
X22121Y-18241D01*
X21787Y-17908D01*
X21787Y-17907D01*
X21779Y-17867D01*
X21764Y-17829D01*
X21741Y-17795D01*
X21712Y-17766D01*
X21678Y-17743D01*
X21640Y-17727D01*
X21600Y-17719D01*
X21559Y-17718D01*
X21519Y-17726D01*
X21481Y-17741D01*
X21470Y-17749D01*
X21470Y-16903D01*
X21452Y-16813D01*
X21417Y-16728D01*
X21366Y-16651D01*
X21301Y-16585D01*
X21224Y-16534D01*
X21139Y-16498D01*
X21049Y-16479D01*
X20957Y-16479D01*
X20866Y-16496D01*
X20780Y-16531D01*
X20703Y-16581D01*
X20637Y-16646D01*
X20585Y-16722D01*
X20549Y-16807D01*
X20530Y-16897D01*
X20528Y-16989D01*
X20545Y-17080D01*
X20579Y-17166D01*
X20629Y-17243D01*
X20693Y-17310D01*
X20769Y-17362D01*
X20853Y-17399D01*
X20944Y-17419D01*
X21036Y-17421D01*
X21127Y-17405D01*
X21213Y-17371D01*
X21291Y-17322D01*
X21357Y-17258D01*
X21411Y-17183D01*
X21448Y-17099D01*
X21469Y-17009D01*
X21470Y-16903D01*
X21470Y-17749D01*
X21447Y-17764D01*
X21417Y-17793D01*
X21394Y-17826D01*
X21378Y-17864D01*
X21369Y-17904D01*
X21369Y-17945D01*
X21376Y-17985D01*
X21391Y-18023D01*
X21414Y-18058D01*
X21442Y-18087D01*
X21476Y-18111D01*
X21513Y-18127D01*
X21553Y-18136D01*
X21594Y-18137D01*
X21635Y-18130D01*
X21639Y-18128D01*
X21974Y-18464D01*
X21984Y-18471D01*
X21993Y-18479D01*
X21993Y-18480D01*
X21994Y-18480D01*
X22005Y-18486D01*
X22015Y-18491D01*
X22016Y-18492D01*
X22016Y-18492D01*
X22028Y-18496D01*
X22039Y-18499D01*
X22040Y-18499D01*
X22041Y-18499D01*
X22053Y-18501D01*
X22065Y-18502D01*
X22066Y-18502D01*
X22066Y-18502D01*
X22066Y-18502D01*
X22067Y-18502D01*
X22379Y-18502D01*
X22383Y-18521D01*
X22391Y-18539D01*
X22402Y-18555D01*
X22415Y-18569D01*
X22432Y-18580D01*
X22450Y-18588D01*
X22469Y-18592D01*
X22489Y-18592D01*
X23120Y-18592D01*
X23139Y-18588D01*
X23157Y-18581D01*
X23174Y-18570D01*
X23188Y-18556D01*
X23199Y-18540D01*
X23206Y-18521D01*
X23210Y-18502D01*
X23210Y-18482D01*
X23210Y-18982D01*
X23210Y-18742D01*
X23206Y-18722D01*
X23199Y-18704D01*
X23188Y-18688D01*
X23174Y-18674D01*
X23158Y-18663D01*
X23140Y-18655D01*
X23120Y-18651D01*
X23101Y-18651D01*
X22470Y-18651D01*
X22451Y-18655D01*
X22432Y-18662D01*
X22416Y-18673D01*
X22402Y-18687D01*
X22391Y-18704D01*
X22387Y-18712D01*
X21751Y-18712D01*
X21298Y-18259D01*
X21287Y-18249D01*
X21275Y-18240D01*
X21275Y-18240D01*
X21274Y-18239D01*
X21261Y-18232D01*
X21248Y-18225D01*
X21247Y-18225D01*
X21247Y-18224D01*
X21232Y-18220D01*
X21218Y-18216D01*
X21218Y-18215D01*
X21217Y-18215D01*
X21202Y-18214D01*
X21187Y-18212D01*
X21186Y-18212D01*
X21186Y-18212D01*
X21186Y-18212D01*
X21185Y-18212D01*
X21076Y-18212D01*
X21073Y-18204D01*
X21072Y-18203D01*
X21072Y-18000D01*
X21072Y-17743D01*
X21069Y-17726D01*
X21062Y-17710D01*
X21053Y-17695D01*
X21040Y-17683D01*
X21026Y-17673D01*
X21010Y-17667D01*
X20993Y-17663D01*
X20976Y-17663D01*
X20720Y-17663D01*
X20698Y-17685D01*
X20698Y-17842D01*
X21050Y-17842D01*
X21072Y-17820D01*
X21072Y-17743D01*
X21072Y-18000D01*
X21072Y-17923D01*
X21050Y-17901D01*
X20698Y-17901D01*
X20698Y-18058D01*
X20720Y-18080D01*
X20976Y-18080D01*
X20993Y-18080D01*
X21010Y-18076D01*
X21026Y-18070D01*
X21040Y-18060D01*
X21053Y-18048D01*
X21062Y-18033D01*
X21069Y-18017D01*
X21072Y-18000D01*
X21072Y-18203D01*
X21062Y-18188D01*
X21048Y-18174D01*
X21032Y-18163D01*
X21014Y-18155D01*
X20994Y-18151D01*
X20975Y-18151D01*
X20639Y-18151D01*
X20639Y-18058D01*
X20639Y-17901D01*
X20639Y-17842D01*
X20639Y-17685D01*
X20617Y-17663D01*
X20470Y-17663D01*
X20470Y-17003D01*
X20452Y-16913D01*
X20417Y-16828D01*
X20366Y-16751D01*
X20301Y-16685D01*
X20224Y-16634D01*
X20139Y-16598D01*
X20049Y-16579D01*
X19957Y-16579D01*
X19866Y-16596D01*
X19780Y-16631D01*
X19703Y-16681D01*
X19637Y-16746D01*
X19585Y-16822D01*
X19549Y-16907D01*
X19530Y-16997D01*
X19528Y-17089D01*
X19545Y-17180D01*
X19579Y-17266D01*
X19629Y-17343D01*
X19693Y-17410D01*
X19769Y-17462D01*
X19853Y-17499D01*
X19944Y-17519D01*
X20036Y-17521D01*
X20127Y-17505D01*
X20213Y-17471D01*
X20291Y-17422D01*
X20357Y-17358D01*
X20411Y-17283D01*
X20448Y-17199D01*
X20469Y-17109D01*
X20470Y-17003D01*
X20470Y-17663D01*
X20362Y-17663D01*
X20344Y-17663D01*
X20327Y-17667D01*
X20311Y-17673D01*
X20297Y-17683D01*
X20285Y-17695D01*
X20275Y-17710D01*
X20269Y-17726D01*
X20265Y-17743D01*
X20265Y-17820D01*
X20287Y-17842D01*
X20639Y-17842D01*
X20639Y-17901D01*
X20287Y-17901D01*
X20265Y-17923D01*
X20265Y-18000D01*
X20269Y-18017D01*
X20275Y-18033D01*
X20285Y-18048D01*
X20297Y-18060D01*
X20311Y-18070D01*
X20327Y-18076D01*
X20344Y-18080D01*
X20362Y-18080D01*
X20617Y-18080D01*
X20639Y-18058D01*
X20639Y-18151D01*
X20344Y-18151D01*
X20325Y-18155D01*
X20306Y-18162D01*
X20290Y-18173D01*
X20276Y-18187D01*
X20265Y-18204D01*
X20261Y-18212D01*
X20240Y-18212D01*
X20238Y-18209D01*
X20238Y-18208D01*
X20238Y-17995D01*
X20238Y-17748D01*
X20234Y-17731D01*
X20228Y-17715D01*
X20218Y-17700D01*
X20206Y-17688D01*
X20192Y-17678D01*
X20176Y-17672D01*
X20159Y-17668D01*
X20141Y-17668D01*
X19909Y-17668D01*
X19887Y-17690D01*
X19887Y-17842D01*
X20216Y-17842D01*
X20238Y-17820D01*
X20238Y-17748D01*
X20238Y-17995D01*
X20238Y-17923D01*
X20216Y-17901D01*
X19887Y-17901D01*
X19887Y-18053D01*
X19909Y-18075D01*
X20141Y-18075D01*
X20159Y-18075D01*
X20176Y-18071D01*
X20192Y-18065D01*
X20206Y-18055D01*
X20218Y-18043D01*
X20228Y-18028D01*
X20234Y-18012D01*
X20238Y-17995D01*
X20238Y-18208D01*
X20228Y-18193D01*
X20214Y-18179D01*
X20197Y-18168D01*
X20179Y-18160D01*
X20160Y-18156D01*
X20140Y-18156D01*
X19828Y-18156D01*
X19828Y-18053D01*
X19828Y-17901D01*
X19828Y-17842D01*
X19828Y-17690D01*
X19806Y-17668D01*
X19574Y-17668D01*
X19557Y-17668D01*
X19540Y-17672D01*
X19524Y-17678D01*
X19510Y-17688D01*
X19497Y-17700D01*
X19488Y-17715D01*
X19481Y-17731D01*
X19478Y-17748D01*
X19478Y-17820D01*
X19500Y-17842D01*
X19828Y-17842D01*
X19828Y-17901D01*
X19500Y-17901D01*
X19478Y-17923D01*
X19478Y-17995D01*
X19481Y-18012D01*
X19488Y-18028D01*
X19497Y-18043D01*
X19510Y-18055D01*
X19524Y-18065D01*
X19540Y-18071D01*
X19557Y-18075D01*
X19574Y-18075D01*
X19806Y-18075D01*
X19828Y-18053D01*
X19828Y-18156D01*
X19556Y-18156D01*
X19537Y-18160D01*
X19524Y-18165D01*
X19513Y-18155D01*
X19479Y-18132D01*
X19442Y-18116D01*
X19418Y-18111D01*
X19422Y-18093D01*
X19422Y-18073D01*
X19422Y-17678D01*
X19418Y-17659D01*
X19411Y-17641D01*
X19400Y-17625D01*
X19386Y-17611D01*
X19369Y-17599D01*
X19351Y-17592D01*
X19350Y-17592D01*
X19350Y-17589D01*
X19350Y-17588D01*
X19350Y-17588D01*
X19346Y-17574D01*
X19341Y-17559D01*
X19341Y-17559D01*
X19341Y-17558D01*
X19334Y-17545D01*
X19327Y-17532D01*
X19327Y-17531D01*
X19326Y-17530D01*
X19317Y-17519D01*
X19308Y-17507D01*
X19307Y-17506D01*
X19307Y-17506D01*
X19307Y-17506D01*
X19306Y-17506D01*
X19246Y-17446D01*
X19235Y-17436D01*
X19223Y-17427D01*
X19223Y-17427D01*
X19222Y-17426D01*
X19209Y-17419D01*
X19196Y-17412D01*
X19195Y-17412D01*
X19195Y-17411D01*
X19181Y-17407D01*
X19167Y-17403D01*
X19166Y-17402D01*
X19165Y-17402D01*
X19150Y-17401D01*
X19140Y-17400D01*
X19213Y-17371D01*
X19291Y-17322D01*
X19357Y-17258D01*
X19411Y-17183D01*
X19448Y-17099D01*
X19469Y-17009D01*
X19470Y-16903D01*
X19452Y-16813D01*
X19417Y-16728D01*
X19366Y-16651D01*
X19301Y-16585D01*
X19224Y-16534D01*
X19139Y-16498D01*
X19049Y-16479D01*
X18957Y-16479D01*
X18866Y-16496D01*
X18780Y-16531D01*
X18703Y-16581D01*
X18637Y-16646D01*
X18585Y-16722D01*
X18549Y-16807D01*
X18530Y-16897D01*
X18528Y-16989D01*
X18545Y-17080D01*
X18579Y-17166D01*
X18629Y-17243D01*
X18693Y-17310D01*
X18769Y-17362D01*
X18853Y-17399D01*
X18315Y-17399D01*
X18357Y-17358D01*
X18411Y-17283D01*
X18448Y-17199D01*
X18469Y-17109D01*
X18470Y-17003D01*
X18452Y-16913D01*
X18417Y-16828D01*
X18366Y-16751D01*
X18301Y-16685D01*
X18224Y-16634D01*
X18139Y-16598D01*
X18049Y-16579D01*
X17957Y-16579D01*
X17866Y-16596D01*
X17780Y-16631D01*
X17703Y-16681D01*
X17637Y-16746D01*
X17585Y-16822D01*
X17549Y-16907D01*
X17530Y-16997D01*
X17528Y-17089D01*
X17545Y-17180D01*
X17579Y-17266D01*
X17629Y-17343D01*
X17693Y-17410D01*
X17769Y-17462D01*
X17852Y-17499D01*
X17510Y-17499D01*
X17491Y-17502D01*
X17472Y-17510D01*
X17465Y-17515D01*
X17317Y-17367D01*
X17306Y-17358D01*
X17294Y-17348D01*
X17294Y-17348D01*
X17293Y-17347D01*
X17280Y-17340D01*
X17270Y-17335D01*
X17291Y-17322D01*
X17357Y-17258D01*
X17411Y-17183D01*
X17448Y-17099D01*
X17469Y-17009D01*
X17470Y-16903D01*
X17452Y-16813D01*
X17417Y-16728D01*
X17366Y-16651D01*
X17301Y-16585D01*
X17224Y-16534D01*
X17139Y-16498D01*
X17049Y-16479D01*
X16957Y-16479D01*
X16866Y-16496D01*
X16780Y-16531D01*
X16703Y-16581D01*
X16637Y-16646D01*
X16585Y-16722D01*
X16549Y-16807D01*
X16530Y-16897D01*
X16528Y-16989D01*
X16545Y-17080D01*
X16579Y-17166D01*
X16629Y-17243D01*
X16693Y-17310D01*
X16709Y-17320D01*
X16519Y-17320D01*
X16505Y-17322D01*
X16490Y-17323D01*
X16489Y-17323D01*
X16488Y-17323D01*
X16474Y-17328D01*
X16470Y-17329D01*
X16470Y-17003D01*
X16452Y-16913D01*
X16417Y-16828D01*
X16366Y-16751D01*
X16301Y-16685D01*
X16224Y-16634D01*
X16139Y-16598D01*
X16049Y-16579D01*
X15957Y-16579D01*
X15866Y-16596D01*
X15780Y-16631D01*
X15703Y-16681D01*
X15637Y-16746D01*
X15585Y-16822D01*
X15549Y-16907D01*
X15530Y-16997D01*
X15528Y-17089D01*
X15545Y-17180D01*
X15579Y-17266D01*
X15629Y-17343D01*
X15693Y-17410D01*
X15769Y-17462D01*
X15853Y-17499D01*
X15944Y-17519D01*
X16036Y-17521D01*
X16127Y-17505D01*
X16213Y-17471D01*
X16291Y-17422D01*
X16357Y-17358D01*
X16411Y-17283D01*
X16448Y-17199D01*
X16469Y-17109D01*
X16470Y-17003D01*
X16470Y-17329D01*
X16460Y-17332D01*
X16459Y-17332D01*
X16458Y-17332D01*
X16445Y-17339D01*
X16432Y-17346D01*
X16432Y-17347D01*
X16431Y-17347D01*
X16420Y-17356D01*
X16408Y-17365D01*
X16407Y-17367D01*
X16407Y-17367D01*
X16407Y-17367D01*
X16406Y-17367D01*
X16204Y-17569D01*
X16135Y-17540D01*
X16045Y-17521D01*
X15953Y-17521D01*
X15862Y-17538D01*
X15777Y-17573D01*
X15699Y-17623D01*
X15633Y-17688D01*
X15581Y-17764D01*
X15545Y-17849D01*
X15526Y-17939D01*
X15524Y-18031D01*
X15541Y-18122D01*
X15575Y-18208D01*
X15625Y-18285D01*
X15689Y-18352D01*
X15765Y-18404D01*
X15849Y-18441D01*
X15940Y-18461D01*
X16032Y-18463D01*
X16123Y-18447D01*
X16209Y-18414D01*
X16287Y-18364D01*
X16353Y-18301D01*
X16407Y-18225D01*
X16444Y-18141D01*
X16465Y-18051D01*
X16466Y-17945D01*
X16448Y-17855D01*
X16425Y-17799D01*
X16585Y-17639D01*
X16723Y-17639D01*
X16707Y-17661D01*
X16996Y-17950D01*
X17001Y-17944D01*
X17043Y-17986D01*
X17037Y-17992D01*
X17326Y-18280D01*
X17385Y-18238D01*
X17425Y-18158D01*
X17449Y-18071D01*
X17453Y-18024D01*
X17455Y-18027D01*
X17472Y-18038D01*
X17490Y-18046D01*
X17509Y-18050D01*
X17529Y-18050D01*
X18080Y-18050D01*
X18099Y-18046D01*
X18117Y-18038D01*
X18134Y-18027D01*
X18148Y-18013D01*
X18159Y-17997D01*
X18166Y-17980D01*
X18181Y-18004D01*
X18210Y-18033D01*
X18215Y-18037D01*
X18215Y-18092D01*
X18219Y-18112D01*
X18226Y-18130D01*
X18237Y-18146D01*
X18251Y-18160D01*
X18267Y-18171D01*
X18286Y-18179D01*
X18305Y-18183D01*
X18325Y-18183D01*
X18581Y-18183D01*
X18601Y-18179D01*
X18619Y-18171D01*
X18635Y-18161D01*
X18640Y-18155D01*
X18649Y-18161D01*
X18665Y-18167D01*
X18682Y-18171D01*
X18767Y-18171D01*
X18789Y-18149D01*
X18789Y-17915D01*
X18781Y-17915D01*
X18781Y-17856D01*
X18789Y-17856D01*
X18789Y-17848D01*
X18848Y-17848D01*
X18848Y-17856D01*
X18856Y-17856D01*
X18856Y-17915D01*
X18848Y-17915D01*
X18848Y-18149D01*
X18870Y-18171D01*
X18911Y-18171D01*
X18675Y-18407D01*
X18263Y-18407D01*
X18249Y-18408D01*
X18234Y-18410D01*
X18233Y-18410D01*
X18232Y-18410D01*
X18218Y-18414D01*
X18204Y-18418D01*
X18203Y-18419D01*
X18202Y-18419D01*
X18189Y-18426D01*
X18176Y-18433D01*
X18176Y-18433D01*
X18175Y-18434D01*
X18164Y-18443D01*
X18158Y-18447D01*
X18158Y-18340D01*
X18155Y-18323D01*
X18148Y-18307D01*
X18139Y-18293D01*
X18126Y-18281D01*
X18112Y-18271D01*
X18096Y-18264D01*
X18079Y-18261D01*
X18062Y-18261D01*
X17846Y-18261D01*
X17824Y-18283D01*
X17824Y-18495D01*
X17832Y-18495D01*
X17832Y-18554D01*
X17824Y-18554D01*
X17824Y-18765D01*
X17846Y-18788D01*
X17954Y-18788D01*
X17776Y-18965D01*
X17765Y-18965D01*
X17765Y-18765D01*
X17765Y-18554D01*
X17765Y-18495D01*
X17765Y-18283D01*
X17743Y-18261D01*
X17528Y-18261D01*
X17510Y-18261D01*
X17493Y-18264D01*
X17477Y-18271D01*
X17463Y-18281D01*
X17451Y-18293D01*
X17441Y-18307D01*
X17435Y-18323D01*
X17431Y-18340D01*
X17431Y-18472D01*
X17453Y-18495D01*
X17765Y-18495D01*
X17765Y-18554D01*
X17453Y-18554D01*
X17431Y-18576D01*
X17431Y-18708D01*
X17435Y-18725D01*
X17441Y-18741D01*
X17451Y-18755D01*
X17463Y-18768D01*
X17477Y-18777D01*
X17493Y-18784D01*
X17510Y-18788D01*
X17528Y-18788D01*
X17743Y-18788D01*
X17765Y-18765D01*
X17765Y-18965D01*
X17469Y-18965D01*
X17450Y-18969D01*
X17432Y-18977D01*
X17416Y-18988D01*
X17402Y-19001D01*
X17391Y-19018D01*
X17383Y-19036D01*
X17379Y-19055D01*
X17379Y-19075D01*
X17379Y-19526D01*
X17383Y-19545D01*
X17390Y-19563D01*
X17401Y-19580D01*
X17415Y-19594D01*
X17431Y-19605D01*
X17449Y-19612D01*
X17469Y-19616D01*
X17488Y-19616D01*
X17883Y-19616D01*
X17903Y-19613D01*
X17921Y-19605D01*
X17937Y-19594D01*
X17951Y-19580D01*
X17962Y-19564D01*
X17970Y-19546D01*
X17974Y-19526D01*
X17974Y-19507D01*
X17974Y-19219D01*
X18094Y-19099D01*
X18093Y-19103D01*
X18093Y-19104D01*
X18093Y-19104D01*
X18093Y-19104D01*
X18093Y-19105D01*
X18093Y-19771D01*
X18095Y-19783D01*
X18096Y-19795D01*
X18096Y-19796D01*
X18096Y-19797D01*
X18099Y-19808D01*
X18103Y-19820D01*
X18103Y-19820D01*
X18103Y-19821D01*
X18109Y-19832D01*
X18114Y-19842D01*
X18115Y-19843D01*
X18115Y-19843D01*
X18123Y-19853D01*
X18130Y-19862D01*
X18131Y-19863D01*
X18131Y-19863D01*
X18131Y-19863D01*
X18132Y-19863D01*
X18375Y-20107D01*
X18375Y-20189D01*
X18379Y-20208D01*
X18386Y-20226D01*
X18397Y-20243D01*
X18411Y-20257D01*
X18427Y-20268D01*
X18445Y-20275D01*
X18465Y-20279D01*
X18484Y-20279D01*
X18935Y-20279D01*
X18954Y-20276D01*
X18973Y-20268D01*
X18989Y-20257D01*
X19003Y-20243D01*
X19187Y-20427D01*
X19198Y-20437D01*
X19209Y-20446D01*
X19210Y-20446D01*
X19211Y-20447D01*
X19224Y-20454D01*
X19237Y-20461D01*
X19237Y-20461D01*
X19238Y-20462D01*
X19252Y-20466D01*
X19266Y-20470D01*
X19267Y-20471D01*
X19268Y-20471D01*
X19283Y-20472D01*
X19297Y-20474D01*
X19299Y-20474D01*
X19299Y-20474D01*
X19299Y-20474D01*
X19300Y-20474D01*
X20630Y-20474D01*
X20667Y-20510D01*
X20667Y-21690D01*
X20212Y-21690D01*
X20212Y-21289D01*
X20204Y-21249D01*
X20189Y-21211D01*
X20166Y-21177D01*
X20137Y-21148D01*
X20119Y-21135D01*
X20118Y-21134D01*
X20107Y-21117D01*
X20093Y-21103D01*
X20077Y-21092D01*
X20059Y-21085D01*
X20039Y-21081D01*
X20020Y-21080D01*
X19035Y-21081D01*
X19016Y-21084D01*
X19014Y-21085D01*
X19014Y-20788D01*
X19014Y-20520D01*
X19010Y-20503D01*
X19004Y-20487D01*
X18994Y-20473D01*
X18982Y-20460D01*
X18968Y-20451D01*
X18952Y-20444D01*
X18935Y-20440D01*
X18917Y-20440D01*
X18752Y-20440D01*
X18730Y-20462D01*
X18730Y-20624D01*
X18992Y-20624D01*
X19014Y-20602D01*
X19014Y-20520D01*
X19014Y-20788D01*
X19014Y-20705D01*
X18992Y-20683D01*
X18730Y-20683D01*
X18730Y-20845D01*
X18752Y-20867D01*
X18917Y-20867D01*
X18935Y-20867D01*
X18952Y-20864D01*
X18968Y-20857D01*
X18982Y-20847D01*
X18994Y-20835D01*
X19004Y-20821D01*
X19010Y-20805D01*
X19014Y-20788D01*
X19014Y-21085D01*
X18997Y-21092D01*
X18981Y-21103D01*
X18967Y-21117D01*
X18956Y-21133D01*
X18948Y-21151D01*
X18944Y-21170D01*
X18944Y-21190D01*
X18944Y-21584D01*
X18948Y-21603D01*
X18956Y-21621D01*
X18967Y-21638D01*
X18981Y-21652D01*
X18997Y-21663D01*
X19015Y-21670D01*
X19034Y-21674D01*
X19054Y-21675D01*
X20039Y-21675D01*
X20058Y-21671D01*
X20076Y-21663D01*
X20093Y-21652D01*
X20107Y-21638D01*
X20118Y-21622D01*
X20125Y-21604D01*
X20129Y-21585D01*
X20129Y-21565D01*
X20129Y-21477D01*
X20132Y-21475D01*
X20162Y-21447D01*
X20186Y-21413D01*
X20202Y-21376D01*
X20212Y-21336D01*
X20212Y-21289D01*
X20212Y-21690D01*
X19055Y-21690D01*
X19040Y-21692D01*
X19025Y-21693D01*
X19024Y-21693D01*
X19024Y-21693D01*
X19010Y-21698D01*
X18995Y-21702D01*
X18995Y-21702D01*
X18994Y-21702D01*
X18981Y-21709D01*
X18968Y-21716D01*
X18967Y-21717D01*
X18966Y-21717D01*
X18955Y-21726D01*
X18943Y-21736D01*
X18942Y-21737D01*
X18942Y-21737D01*
X18942Y-21737D01*
X18942Y-21737D01*
X18848Y-21831D01*
X18848Y-21748D01*
X18849Y-21745D01*
X18849Y-21725D01*
X18849Y-21474D01*
X18848Y-21470D01*
X18848Y-21415D01*
X18851Y-21410D01*
X18868Y-21373D01*
X18877Y-21333D01*
X18878Y-21286D01*
X18870Y-21246D01*
X18854Y-21208D01*
X18832Y-21174D01*
X18803Y-21145D01*
X18769Y-21122D01*
X18731Y-21106D01*
X18691Y-21098D01*
X18671Y-21098D01*
X18671Y-20845D01*
X18671Y-20683D01*
X18671Y-20624D01*
X18671Y-20462D01*
X18649Y-20440D01*
X18483Y-20440D01*
X18466Y-20440D01*
X18449Y-20444D01*
X18433Y-20451D01*
X18419Y-20460D01*
X18406Y-20473D01*
X18397Y-20487D01*
X18390Y-20503D01*
X18387Y-20520D01*
X18387Y-20602D01*
X18409Y-20624D01*
X18671Y-20624D01*
X18671Y-20683D01*
X18409Y-20683D01*
X18387Y-20705D01*
X18387Y-20788D01*
X18390Y-20805D01*
X18397Y-20821D01*
X18406Y-20835D01*
X18419Y-20847D01*
X18433Y-20857D01*
X18449Y-20864D01*
X18466Y-20867D01*
X18483Y-20867D01*
X18649Y-20867D01*
X18671Y-20845D01*
X18671Y-21098D01*
X18650Y-21097D01*
X18609Y-21105D01*
X18571Y-21120D01*
X18537Y-21143D01*
X18508Y-21172D01*
X18485Y-21205D01*
X18469Y-21243D01*
X18460Y-21283D01*
X18460Y-21324D01*
X18467Y-21364D01*
X18474Y-21383D01*
X18288Y-21383D01*
X18269Y-21387D01*
X18269Y-21387D01*
X18252Y-21387D01*
X18252Y-20455D01*
X18244Y-20415D01*
X18228Y-20377D01*
X18206Y-20343D01*
X18177Y-20314D01*
X18170Y-20309D01*
X18166Y-20305D01*
X18157Y-20294D01*
X18156Y-20293D01*
X18156Y-20293D01*
X18156Y-20293D01*
X18156Y-20292D01*
X17679Y-19816D01*
X17668Y-19807D01*
X17657Y-19797D01*
X17656Y-19797D01*
X17655Y-19796D01*
X17642Y-19789D01*
X17629Y-19782D01*
X17628Y-19782D01*
X17628Y-19781D01*
X17614Y-19777D01*
X17600Y-19773D01*
X17599Y-19773D01*
X17598Y-19772D01*
X17583Y-19771D01*
X17569Y-19769D01*
X17567Y-19769D01*
X17567Y-19769D01*
X17567Y-19769D01*
X17566Y-19769D01*
X17284Y-19769D01*
X17284Y-18322D01*
X16996Y-18033D01*
X16954Y-18075D01*
X16954Y-17992D01*
X16665Y-17703D01*
X16606Y-17745D01*
X16566Y-17826D01*
X16542Y-17912D01*
X16535Y-18002D01*
X16546Y-18091D01*
X16574Y-18177D01*
X16606Y-18238D01*
X16665Y-18280D01*
X16954Y-17992D01*
X16954Y-18075D01*
X16707Y-18322D01*
X16749Y-18381D01*
X16829Y-18421D01*
X16916Y-18445D01*
X17006Y-18452D01*
X17095Y-18441D01*
X17181Y-18414D01*
X17242Y-18381D01*
X17284Y-18322D01*
X17284Y-19769D01*
X17206Y-19769D01*
X17206Y-19694D01*
X17202Y-19675D01*
X17195Y-19657D01*
X17184Y-19640D01*
X17170Y-19626D01*
X17167Y-19624D01*
X17167Y-19616D01*
X17175Y-19616D01*
X17195Y-19613D01*
X17213Y-19605D01*
X17229Y-19594D01*
X17243Y-19580D01*
X17254Y-19564D01*
X17262Y-19546D01*
X17266Y-19526D01*
X17266Y-19507D01*
X17266Y-19056D01*
X17262Y-19037D01*
X17255Y-19018D01*
X17244Y-19002D01*
X17230Y-18988D01*
X17213Y-18977D01*
X17195Y-18969D01*
X17176Y-18965D01*
X17156Y-18965D01*
X16761Y-18965D01*
X16742Y-18969D01*
X16724Y-18977D01*
X16708Y-18988D01*
X16694Y-19001D01*
X16683Y-19018D01*
X16675Y-19036D01*
X16671Y-19055D01*
X16671Y-19075D01*
X16671Y-19526D01*
X16675Y-19545D01*
X16682Y-19563D01*
X16693Y-19580D01*
X16707Y-19594D01*
X16722Y-19604D01*
X16584Y-19604D01*
X16565Y-19608D01*
X16547Y-19615D01*
X16530Y-19626D01*
X16516Y-19640D01*
X16505Y-19656D01*
X16498Y-19674D01*
X16494Y-19694D01*
X16493Y-19713D01*
X16493Y-19737D01*
X16481Y-19743D01*
X16447Y-19765D01*
X16417Y-19794D01*
X16394Y-19827D01*
X16378Y-19865D01*
X16370Y-19905D01*
X16369Y-19946D01*
X16376Y-19987D01*
X16391Y-20025D01*
X16414Y-20059D01*
X16442Y-20089D01*
X16476Y-20112D01*
X16493Y-20120D01*
X16493Y-20159D01*
X16479Y-20153D01*
X16439Y-20145D01*
X16398Y-20145D01*
X16368Y-20150D01*
X16368Y-19712D01*
X16367Y-19695D01*
X16364Y-19678D01*
X16357Y-19662D01*
X16348Y-19648D01*
X16335Y-19635D01*
X16321Y-19626D01*
X16305Y-19619D01*
X16288Y-19616D01*
X16075Y-19616D01*
X16053Y-19638D01*
X16053Y-19931D01*
X16345Y-19931D01*
X16368Y-19909D01*
X16368Y-19712D01*
X16368Y-20150D01*
X16368Y-20150D01*
X16368Y-20012D01*
X16345Y-19990D01*
X16053Y-19990D01*
X16053Y-20282D01*
X16075Y-20305D01*
X16214Y-20305D01*
X16208Y-20330D01*
X16208Y-20371D01*
X16209Y-20377D01*
X16156Y-20430D01*
X15994Y-20430D01*
X15994Y-20282D01*
X15994Y-19990D01*
X15994Y-19931D01*
X15994Y-19638D01*
X15971Y-19616D01*
X15759Y-19616D01*
X15742Y-19619D01*
X15725Y-19626D01*
X15711Y-19635D01*
X15699Y-19648D01*
X15689Y-19662D01*
X15682Y-19678D01*
X15679Y-19695D01*
X15679Y-19712D01*
X15679Y-19909D01*
X15701Y-19931D01*
X15994Y-19931D01*
X15994Y-19990D01*
X15701Y-19990D01*
X15679Y-20012D01*
X15679Y-20208D01*
X15679Y-20225D01*
X15682Y-20242D01*
X15689Y-20258D01*
X15699Y-20273D01*
X15711Y-20285D01*
X15725Y-20295D01*
X15742Y-20301D01*
X15759Y-20305D01*
X15971Y-20305D01*
X15994Y-20282D01*
X15994Y-20430D01*
X15757Y-20430D01*
X15738Y-20434D01*
X15720Y-20442D01*
X15703Y-20453D01*
X15689Y-20467D01*
X15678Y-20483D01*
X15671Y-20501D01*
X15667Y-20520D01*
X15667Y-20540D01*
X15667Y-21053D01*
X15671Y-21072D01*
X15678Y-21090D01*
X15689Y-21107D01*
X15703Y-21121D01*
X15719Y-21132D01*
X15737Y-21139D01*
X15757Y-21143D01*
X15776Y-21143D01*
X16289Y-21143D01*
X16308Y-21139D01*
X16326Y-21132D01*
X16343Y-21121D01*
X16357Y-21107D01*
X16368Y-21091D01*
X16375Y-21073D01*
X16379Y-21053D01*
X16380Y-21034D01*
X16380Y-20576D01*
X16393Y-20562D01*
X16433Y-20563D01*
X16473Y-20556D01*
X16493Y-20548D01*
X16493Y-21053D01*
X16497Y-21072D01*
X16505Y-21090D01*
X16516Y-21107D01*
X16530Y-21121D01*
X16546Y-21132D01*
X16564Y-21139D01*
X16583Y-21143D01*
X16603Y-21143D01*
X17116Y-21143D01*
X17135Y-21139D01*
X17153Y-21132D01*
X17170Y-21121D01*
X17184Y-21107D01*
X17195Y-21091D01*
X17202Y-21073D01*
X17206Y-21053D01*
X17206Y-21034D01*
X17206Y-20607D01*
X17428Y-20385D01*
X17468Y-20386D01*
X17509Y-20379D01*
X17547Y-20364D01*
X17582Y-20342D01*
X17611Y-20314D01*
X17635Y-20280D01*
X17652Y-20243D01*
X17652Y-20240D01*
X17839Y-20427D01*
X17834Y-20452D01*
X17834Y-20493D01*
X17841Y-20534D01*
X17856Y-20572D01*
X17878Y-20606D01*
X17907Y-20636D01*
X17940Y-20659D01*
X17978Y-20676D01*
X18018Y-20684D01*
X18059Y-20685D01*
X18099Y-20678D01*
X18137Y-20663D01*
X18172Y-20641D01*
X18202Y-20613D01*
X18225Y-20580D01*
X18242Y-20542D01*
X18251Y-20502D01*
X18252Y-20455D01*
X18252Y-21387D01*
X18198Y-21387D01*
X18198Y-21419D01*
X18195Y-21415D01*
X18180Y-21406D01*
X18164Y-21399D01*
X18147Y-21396D01*
X18130Y-21395D01*
X17965Y-21395D01*
X17942Y-21418D01*
X17942Y-21579D01*
X17950Y-21579D01*
X17950Y-21638D01*
X17942Y-21638D01*
X17942Y-21800D01*
X17965Y-21822D01*
X18130Y-21823D01*
X18147Y-21822D01*
X18164Y-21819D01*
X18180Y-21812D01*
X18195Y-21802D01*
X18198Y-21799D01*
X18198Y-22003D01*
X18186Y-21995D01*
X18168Y-21987D01*
X18148Y-21984D01*
X18129Y-21983D01*
X17883Y-21983D01*
X17883Y-21800D01*
X17883Y-21638D01*
X17883Y-21579D01*
X17883Y-21418D01*
X17861Y-21395D01*
X17696Y-21395D01*
X17679Y-21396D01*
X17662Y-21399D01*
X17646Y-21406D01*
X17631Y-21415D01*
X17619Y-21428D01*
X17609Y-21442D01*
X17603Y-21458D01*
X17599Y-21475D01*
X17599Y-21557D01*
X17622Y-21579D01*
X17883Y-21579D01*
X17883Y-21638D01*
X17622Y-21638D01*
X17599Y-21661D01*
X17599Y-21743D01*
X17603Y-21760D01*
X17609Y-21776D01*
X17619Y-21790D01*
X17631Y-21802D01*
X17646Y-21812D01*
X17662Y-21819D01*
X17679Y-21822D01*
X17696Y-21823D01*
X17861Y-21822D01*
X17883Y-21800D01*
X17883Y-21983D01*
X17678Y-21983D01*
X17659Y-21987D01*
X17640Y-21995D01*
X17624Y-22006D01*
X17610Y-22020D01*
X17599Y-22036D01*
X17591Y-22054D01*
X17587Y-22073D01*
X17587Y-22093D01*
X17587Y-22344D01*
X17591Y-22363D01*
X17599Y-22381D01*
X17610Y-22398D01*
X17624Y-22412D01*
X17640Y-22423D01*
X17658Y-22430D01*
X17677Y-22434D01*
X17697Y-22435D01*
X17782Y-22435D01*
X17782Y-22630D01*
X17780Y-22631D01*
X17703Y-22681D01*
X17637Y-22746D01*
X17585Y-22822D01*
X17549Y-22907D01*
X17530Y-22997D01*
X17528Y-23089D01*
X17545Y-23180D01*
X17579Y-23266D01*
X17629Y-23343D01*
X17693Y-23410D01*
X17769Y-23462D01*
X17853Y-23499D01*
X17944Y-23519D01*
X18036Y-23521D01*
X18127Y-23505D01*
X18213Y-23471D01*
X18291Y-23422D01*
X18357Y-23358D01*
X18411Y-23283D01*
X18448Y-23199D01*
X18469Y-23109D01*
X18470Y-23003D01*
X18452Y-22913D01*
X18417Y-22828D01*
X18366Y-22751D01*
X18301Y-22685D01*
X18224Y-22634D01*
X18139Y-22598D01*
X18049Y-22579D01*
X18043Y-22579D01*
X18043Y-22434D01*
X18148Y-22434D01*
X18167Y-22431D01*
X18185Y-22423D01*
X18198Y-22414D01*
X18198Y-22431D01*
X18269Y-22431D01*
X18288Y-22434D01*
X18307Y-22435D01*
X18758Y-22434D01*
X18777Y-22431D01*
X18777Y-22431D01*
X18848Y-22431D01*
X18848Y-22364D01*
X18859Y-22361D01*
X18873Y-22357D01*
X18874Y-22357D01*
X18874Y-22356D01*
X18887Y-22349D01*
X18901Y-22343D01*
X18901Y-22342D01*
X18902Y-22342D01*
X18913Y-22332D01*
X18925Y-22323D01*
X18926Y-22322D01*
X18926Y-22322D01*
X18926Y-22322D01*
X18926Y-22322D01*
X18944Y-22304D01*
X18944Y-22450D01*
X18948Y-22469D01*
X18952Y-22479D01*
X18866Y-22496D01*
X18780Y-22531D01*
X18703Y-22581D01*
X18637Y-22646D01*
X18585Y-22722D01*
X18549Y-22807D01*
X18530Y-22897D01*
X18528Y-22989D01*
X18545Y-23080D01*
X18579Y-23166D01*
X18629Y-23243D01*
X18693Y-23310D01*
X18769Y-23362D01*
X18853Y-23399D01*
X18944Y-23419D01*
X19036Y-23421D01*
X19127Y-23405D01*
X19213Y-23371D01*
X19291Y-23322D01*
X19357Y-23258D01*
X19411Y-23183D01*
X19448Y-23099D01*
X19469Y-23009D01*
X19470Y-22903D01*
X19452Y-22813D01*
X19417Y-22728D01*
X19366Y-22651D01*
X19301Y-22585D01*
X19235Y-22541D01*
X20039Y-22541D01*
X20058Y-22537D01*
X20076Y-22529D01*
X20093Y-22518D01*
X20107Y-22504D01*
X20118Y-22488D01*
X20125Y-22470D01*
X20129Y-22451D01*
X20129Y-22431D01*
X20129Y-22037D01*
X20126Y-22018D01*
X20122Y-22009D01*
X20217Y-22009D01*
X20203Y-22042D01*
X20194Y-22082D01*
X20194Y-22123D01*
X20201Y-22164D01*
X20216Y-22202D01*
X20238Y-22236D01*
X20267Y-22266D01*
X20301Y-22289D01*
X20338Y-22306D01*
X20378Y-22314D01*
X20419Y-22315D01*
X20427Y-22314D01*
X20520Y-22408D01*
X20530Y-22415D01*
X20539Y-22423D01*
X20540Y-22424D01*
X20540Y-22424D01*
X20551Y-22430D01*
X20561Y-22435D01*
X20562Y-22436D01*
X20563Y-22436D01*
X20574Y-22439D01*
X20586Y-22443D01*
X20586Y-22443D01*
X20587Y-22443D01*
X20599Y-22445D01*
X20611Y-22446D01*
X20612Y-22446D01*
X20612Y-22446D01*
X20612Y-22446D01*
X20613Y-22446D01*
X23727Y-22446D01*
X23739Y-22445D01*
X23751Y-22444D01*
X23752Y-22444D01*
X23752Y-22444D01*
X23764Y-22440D01*
X23775Y-22437D01*
X23776Y-22436D01*
X23777Y-22436D01*
X23787Y-22430D01*
X23798Y-22425D01*
X23799Y-22425D01*
X23799Y-22424D01*
X23808Y-22417D01*
X23818Y-22409D01*
X23819Y-22408D01*
X23819Y-22408D01*
X23819Y-22408D01*
X23819Y-22408D01*
X23917Y-22310D01*
X24027Y-22310D01*
X24031Y-22313D01*
X24068Y-22329D01*
X24108Y-22338D01*
X24149Y-22339D01*
X24190Y-22332D01*
X24228Y-22317D01*
X24262Y-22295D01*
X24292Y-22267D01*
X24316Y-22233D01*
X24332Y-22196D01*
X24342Y-22156D01*
X24342Y-22109D01*
X24334Y-22069D01*
X24319Y-22031D01*
X24296Y-21997D01*
X24267Y-21968D01*
X24233Y-21945D01*
X24195Y-21929D01*
X24155Y-21921D01*
X24114Y-21920D01*
X24095Y-21924D01*
X24094Y-21919D01*
X24079Y-21881D01*
X24056Y-21847D01*
X24027Y-21818D01*
X23993Y-21795D01*
X23955Y-21779D01*
X23915Y-21771D01*
X23874Y-21770D01*
X23834Y-21778D01*
X23796Y-21793D01*
X23762Y-21816D01*
X23732Y-21845D01*
X23709Y-21878D01*
X23693Y-21916D01*
X23684Y-21956D01*
X23684Y-21997D01*
X23685Y-22003D01*
X23623Y-22065D01*
X22028Y-22065D01*
X22132Y-21961D01*
X22172Y-21954D01*
X22210Y-21939D01*
X22245Y-21917D01*
X22275Y-21889D01*
X22298Y-21855D01*
X22315Y-21818D01*
X22324Y-21778D01*
X22324Y-21769D01*
X22474Y-21619D01*
X25809Y-21619D01*
X25780Y-21631D01*
X25703Y-21681D01*
X25637Y-21746D01*
X25585Y-21822D01*
X25549Y-21907D01*
X25530Y-21997D01*
X25528Y-22089D01*
X25545Y-22180D01*
X25579Y-22266D01*
X25629Y-22343D01*
X25693Y-22410D01*
X25769Y-22462D01*
X25853Y-22499D01*
X25944Y-22519D01*
X26036Y-22521D01*
X26127Y-22505D01*
X26213Y-22471D01*
X26291Y-22422D01*
X26357Y-22358D01*
X26411Y-22283D01*
X26448Y-22199D01*
X26469Y-22109D01*
X26470Y-22003D01*
X26452Y-21913D01*
X26417Y-21828D01*
X26366Y-21751D01*
X26301Y-21685D01*
X26224Y-21634D01*
X26190Y-21619D01*
X26453Y-21619D01*
X26665Y-21619D01*
X26637Y-21646D01*
X26585Y-21722D01*
X26549Y-21807D01*
X26530Y-21897D01*
X26528Y-21989D01*
X26545Y-22080D01*
X26579Y-22166D01*
X26629Y-22243D01*
X26693Y-22310D01*
X26769Y-22362D01*
X26853Y-22399D01*
X26944Y-22419D01*
X27036Y-22421D01*
X27127Y-22405D01*
X27213Y-22371D01*
X27291Y-22322D01*
X27357Y-22258D01*
X27411Y-22183D01*
X27448Y-22099D01*
X27469Y-22009D01*
X27470Y-21903D01*
X27452Y-21813D01*
X27417Y-21728D01*
X27366Y-21651D01*
X27334Y-21619D01*
X27841Y-21619D01*
X27815Y-21628D01*
X27753Y-21660D01*
X27711Y-21719D01*
X28000Y-22008D01*
X28005Y-22002D01*
X28047Y-22044D01*
X28041Y-22050D01*
X28330Y-22338D01*
X28340Y-22331D01*
X28340Y-22450D01*
X28341Y-22464D01*
X28343Y-22479D01*
X28343Y-22480D01*
X28343Y-22480D01*
X28347Y-22495D01*
X28351Y-22509D01*
X28352Y-22509D01*
X28352Y-22510D01*
X28359Y-22523D01*
X28366Y-22536D01*
X28366Y-22537D01*
X28367Y-22538D01*
X28376Y-22549D01*
X28385Y-22561D01*
X28386Y-22562D01*
X28386Y-22562D01*
X28386Y-22562D01*
X28387Y-22562D01*
X28573Y-22749D01*
X28549Y-22807D01*
X28530Y-22897D01*
X28528Y-22989D01*
X28545Y-23080D01*
X28579Y-23166D01*
X28629Y-23243D01*
X28693Y-23310D01*
X28769Y-23362D01*
X28853Y-23399D01*
X28944Y-23419D01*
X29036Y-23421D01*
X29127Y-23405D01*
X29213Y-23371D01*
X29291Y-23322D01*
X29357Y-23258D01*
X29411Y-23183D01*
X29448Y-23099D01*
X29469Y-23009D01*
X29470Y-22903D01*
X29452Y-22813D01*
X29417Y-22728D01*
X29366Y-22651D01*
X29301Y-22585D01*
X29224Y-22534D01*
X29139Y-22498D01*
X29049Y-22479D01*
X28957Y-22479D01*
X28866Y-22496D01*
X28799Y-22523D01*
X28659Y-22383D01*
X28659Y-22274D01*
X28693Y-22310D01*
X28769Y-22362D01*
X28853Y-22399D01*
X28944Y-22419D01*
X29036Y-22421D01*
X29127Y-22405D01*
X29213Y-22371D01*
X29291Y-22322D01*
X29357Y-22258D01*
X29411Y-22183D01*
X29448Y-22099D01*
X29469Y-22009D01*
X29470Y-21903D01*
X29452Y-21813D01*
X29417Y-21728D01*
X29366Y-21651D01*
X29301Y-21585D01*
X29252Y-21552D01*
X29252Y-20651D01*
X29260Y-20651D01*
X29279Y-20647D01*
X29298Y-20639D01*
X29314Y-20628D01*
X29328Y-20614D01*
X29339Y-20598D01*
X29347Y-20580D01*
X29351Y-20561D01*
X29351Y-20541D01*
X29351Y-19990D01*
X29347Y-19971D01*
X29339Y-19953D01*
X29329Y-19936D01*
X29315Y-19922D01*
X29312Y-19920D01*
X29424Y-19920D01*
X29444Y-19917D01*
X29462Y-19909D01*
X29478Y-19898D01*
X29492Y-19884D01*
X29503Y-19868D01*
X29511Y-19850D01*
X29515Y-19830D01*
X29515Y-19811D01*
X29515Y-19800D01*
X29580Y-19736D01*
X29580Y-23384D01*
X29580Y-23384D01*
G37*
G54D14*
X29580Y-23384D02*
X29384Y-23580D01*
X28460Y-23580D01*
X28460Y-23039D01*
X28449Y-22950D01*
X28421Y-22865D01*
X28389Y-22803D01*
X28330Y-22761D01*
X28288Y-22803D01*
X28288Y-22719D01*
X28288Y-22380D01*
X28000Y-22091D01*
X27958Y-22133D01*
X27958Y-22050D01*
X27669Y-21761D01*
X27610Y-21803D01*
X27570Y-21883D01*
X27546Y-21970D01*
X27539Y-22060D01*
X27550Y-22149D01*
X27578Y-22234D01*
X27610Y-22296D01*
X27669Y-22338D01*
X27958Y-22050D01*
X27958Y-22133D01*
X27711Y-22380D01*
X27753Y-22439D01*
X27833Y-22479D01*
X27920Y-22503D01*
X28010Y-22510D01*
X28099Y-22499D01*
X28184Y-22471D01*
X28246Y-22439D01*
X28288Y-22380D01*
X28288Y-22719D01*
X28246Y-22660D01*
X28166Y-22620D01*
X28079Y-22596D01*
X27989Y-22589D01*
X27900Y-22600D01*
X27815Y-22628D01*
X27753Y-22660D01*
X27711Y-22719D01*
X28000Y-23008D01*
X28288Y-22719D01*
X28288Y-22803D01*
X28041Y-23050D01*
X28330Y-23338D01*
X28389Y-23296D01*
X28429Y-23216D01*
X28453Y-23129D01*
X28460Y-23039D01*
X28460Y-23580D01*
X28288Y-23580D01*
X28288Y-23380D01*
X28000Y-23091D01*
X27958Y-23133D01*
X27958Y-23050D01*
X27669Y-22761D01*
X27610Y-22803D01*
X27570Y-22883D01*
X27546Y-22970D01*
X27539Y-23060D01*
X27550Y-23149D01*
X27578Y-23234D01*
X27610Y-23296D01*
X27669Y-23338D01*
X27958Y-23050D01*
X27958Y-23133D01*
X27711Y-23380D01*
X27753Y-23439D01*
X27833Y-23479D01*
X27920Y-23503D01*
X28010Y-23510D01*
X28099Y-23499D01*
X28184Y-23471D01*
X28246Y-23439D01*
X28288Y-23380D01*
X28288Y-23580D01*
X27470Y-23580D01*
X27470Y-22903D01*
X27452Y-22813D01*
X27417Y-22728D01*
X27366Y-22651D01*
X27301Y-22585D01*
X27224Y-22534D01*
X27139Y-22498D01*
X27049Y-22479D01*
X26957Y-22479D01*
X26866Y-22496D01*
X26780Y-22531D01*
X26703Y-22581D01*
X26637Y-22646D01*
X26585Y-22722D01*
X26549Y-22807D01*
X26530Y-22897D01*
X26528Y-22989D01*
X26545Y-23080D01*
X26579Y-23166D01*
X26629Y-23243D01*
X26693Y-23310D01*
X26769Y-23362D01*
X26853Y-23399D01*
X26944Y-23419D01*
X27036Y-23421D01*
X27127Y-23405D01*
X27213Y-23371D01*
X27291Y-23322D01*
X27357Y-23258D01*
X27411Y-23183D01*
X27448Y-23099D01*
X27469Y-23009D01*
X27470Y-22903D01*
X27470Y-23580D01*
X26470Y-23580D01*
X26470Y-23003D01*
X26452Y-22913D01*
X26417Y-22828D01*
X26366Y-22751D01*
X26301Y-22685D01*
X26224Y-22634D01*
X26139Y-22598D01*
X26049Y-22579D01*
X25957Y-22579D01*
X25866Y-22596D01*
X25780Y-22631D01*
X25703Y-22681D01*
X25637Y-22746D01*
X25585Y-22822D01*
X25549Y-22907D01*
X25530Y-22997D01*
X25528Y-23089D01*
X25545Y-23180D01*
X25579Y-23266D01*
X25629Y-23343D01*
X25693Y-23410D01*
X25769Y-23462D01*
X25853Y-23499D01*
X25944Y-23519D01*
X26036Y-23521D01*
X26127Y-23505D01*
X26213Y-23471D01*
X26291Y-23422D01*
X26357Y-23358D01*
X26411Y-23283D01*
X26448Y-23199D01*
X26469Y-23109D01*
X26470Y-23003D01*
X26470Y-23580D01*
X25470Y-23580D01*
X25470Y-22903D01*
X25452Y-22813D01*
X25417Y-22728D01*
X25366Y-22651D01*
X25301Y-22585D01*
X25224Y-22534D01*
X25139Y-22498D01*
X25049Y-22479D01*
X24957Y-22479D01*
X24866Y-22496D01*
X24780Y-22531D01*
X24703Y-22581D01*
X24637Y-22646D01*
X24585Y-22722D01*
X24549Y-22807D01*
X24530Y-22897D01*
X24528Y-22989D01*
X24545Y-23080D01*
X24579Y-23166D01*
X24629Y-23243D01*
X24693Y-23310D01*
X24769Y-23362D01*
X24853Y-23399D01*
X24944Y-23419D01*
X25036Y-23421D01*
X25127Y-23405D01*
X25213Y-23371D01*
X25291Y-23322D01*
X25357Y-23258D01*
X25411Y-23183D01*
X25448Y-23099D01*
X25469Y-23009D01*
X25470Y-22903D01*
X25470Y-23580D01*
X24470Y-23580D01*
X24470Y-23003D01*
X24452Y-22913D01*
X24417Y-22828D01*
X24366Y-22751D01*
X24301Y-22685D01*
X24224Y-22634D01*
X24139Y-22598D01*
X24049Y-22579D01*
X23957Y-22579D01*
X23866Y-22596D01*
X23780Y-22631D01*
X23703Y-22681D01*
X23637Y-22746D01*
X23585Y-22822D01*
X23549Y-22907D01*
X23530Y-22997D01*
X23528Y-23089D01*
X23545Y-23180D01*
X23579Y-23266D01*
X23629Y-23343D01*
X23693Y-23410D01*
X23769Y-23462D01*
X23853Y-23499D01*
X23944Y-23519D01*
X24036Y-23521D01*
X24127Y-23505D01*
X24213Y-23471D01*
X24291Y-23422D01*
X24357Y-23358D01*
X24411Y-23283D01*
X24448Y-23199D01*
X24469Y-23109D01*
X24470Y-23003D01*
X24470Y-23580D01*
X23470Y-23580D01*
X23470Y-22903D01*
X23452Y-22813D01*
X23417Y-22728D01*
X23366Y-22651D01*
X23301Y-22585D01*
X23224Y-22534D01*
X23139Y-22498D01*
X23049Y-22479D01*
X22957Y-22479D01*
X22866Y-22496D01*
X22780Y-22531D01*
X22703Y-22581D01*
X22637Y-22646D01*
X22585Y-22722D01*
X22549Y-22807D01*
X22530Y-22897D01*
X22528Y-22989D01*
X22545Y-23080D01*
X22579Y-23166D01*
X22629Y-23243D01*
X22693Y-23310D01*
X22769Y-23362D01*
X22853Y-23399D01*
X22944Y-23419D01*
X23036Y-23421D01*
X23127Y-23405D01*
X23213Y-23371D01*
X23291Y-23322D01*
X23357Y-23258D01*
X23411Y-23183D01*
X23448Y-23099D01*
X23469Y-23009D01*
X23470Y-22903D01*
X23470Y-23580D01*
X22470Y-23580D01*
X22470Y-23003D01*
X22452Y-22913D01*
X22417Y-22828D01*
X22366Y-22751D01*
X22301Y-22685D01*
X22224Y-22634D01*
X22139Y-22598D01*
X22049Y-22579D01*
X21957Y-22579D01*
X21866Y-22596D01*
X21780Y-22631D01*
X21703Y-22681D01*
X21637Y-22746D01*
X21585Y-22822D01*
X21549Y-22907D01*
X21530Y-22997D01*
X21528Y-23089D01*
X21545Y-23180D01*
X21579Y-23266D01*
X21629Y-23343D01*
X21693Y-23410D01*
X21769Y-23462D01*
X21853Y-23499D01*
X21944Y-23519D01*
X22036Y-23521D01*
X22127Y-23505D01*
X22213Y-23471D01*
X22291Y-23422D01*
X22357Y-23358D01*
X22411Y-23283D01*
X22448Y-23199D01*
X22469Y-23109D01*
X22470Y-23003D01*
X22470Y-23580D01*
X21470Y-23580D01*
X21470Y-22903D01*
X21452Y-22813D01*
X21417Y-22728D01*
X21366Y-22651D01*
X21301Y-22585D01*
X21224Y-22534D01*
X21139Y-22498D01*
X21049Y-22479D01*
X20957Y-22479D01*
X20866Y-22496D01*
X20780Y-22531D01*
X20703Y-22581D01*
X20637Y-22646D01*
X20585Y-22722D01*
X20549Y-22807D01*
X20530Y-22897D01*
X20528Y-22989D01*
X20545Y-23080D01*
X20579Y-23166D01*
X20629Y-23243D01*
X20693Y-23310D01*
X20769Y-23362D01*
X20853Y-23399D01*
X20944Y-23419D01*
X21036Y-23421D01*
X21127Y-23405D01*
X21213Y-23371D01*
X21291Y-23322D01*
X21357Y-23258D01*
X21411Y-23183D01*
X21448Y-23099D01*
X21469Y-23009D01*
X21470Y-22903D01*
X21470Y-23580D01*
X20470Y-23580D01*
X20470Y-23003D01*
X20452Y-22913D01*
X20417Y-22828D01*
X20366Y-22751D01*
X20301Y-22685D01*
X20224Y-22634D01*
X20139Y-22598D01*
X20049Y-22579D01*
X19957Y-22579D01*
X19866Y-22596D01*
X19780Y-22631D01*
X19703Y-22681D01*
X19637Y-22746D01*
X19585Y-22822D01*
X19549Y-22907D01*
X19530Y-22997D01*
X19528Y-23089D01*
X19545Y-23180D01*
X19579Y-23266D01*
X19629Y-23343D01*
X19693Y-23410D01*
X19769Y-23462D01*
X19853Y-23499D01*
X19944Y-23519D01*
X20036Y-23521D01*
X20127Y-23505D01*
X20213Y-23471D01*
X20291Y-23422D01*
X20357Y-23358D01*
X20411Y-23283D01*
X20448Y-23199D01*
X20469Y-23109D01*
X20470Y-23003D01*
X20470Y-23580D01*
X17470Y-23580D01*
X17470Y-22903D01*
X17452Y-22813D01*
X17417Y-22728D01*
X17366Y-22651D01*
X17301Y-22585D01*
X17224Y-22534D01*
X17139Y-22498D01*
X17049Y-22479D01*
X16957Y-22479D01*
X16866Y-22496D01*
X16780Y-22531D01*
X16703Y-22581D01*
X16637Y-22646D01*
X16585Y-22722D01*
X16549Y-22807D01*
X16530Y-22897D01*
X16528Y-22989D01*
X16545Y-23080D01*
X16579Y-23166D01*
X16629Y-23243D01*
X16693Y-23310D01*
X16769Y-23362D01*
X16853Y-23399D01*
X16944Y-23419D01*
X17036Y-23421D01*
X17127Y-23405D01*
X17213Y-23371D01*
X17291Y-23322D01*
X17357Y-23258D01*
X17411Y-23183D01*
X17448Y-23099D01*
X17469Y-23009D01*
X17470Y-22903D01*
X17470Y-23580D01*
X16470Y-23580D01*
X16470Y-23003D01*
X16452Y-22913D01*
X16417Y-22828D01*
X16366Y-22751D01*
X16301Y-22685D01*
X16224Y-22634D01*
X16139Y-22598D01*
X16049Y-22579D01*
X15957Y-22579D01*
X15866Y-22596D01*
X15780Y-22631D01*
X15703Y-22681D01*
X15637Y-22746D01*
X15585Y-22822D01*
X15549Y-22907D01*
X15530Y-22997D01*
X15528Y-23089D01*
X15545Y-23180D01*
X15579Y-23266D01*
X15629Y-23343D01*
X15693Y-23410D01*
X15769Y-23462D01*
X15853Y-23499D01*
X15944Y-23519D01*
X16036Y-23521D01*
X16127Y-23505D01*
X16213Y-23471D01*
X16291Y-23422D01*
X16357Y-23358D01*
X16411Y-23283D01*
X16448Y-23199D01*
X16469Y-23109D01*
X16470Y-23003D01*
X16470Y-23580D01*
X15615Y-23580D01*
X15420Y-23384D01*
X15420Y-16615D01*
X15615Y-16420D01*
X29384Y-16420D01*
X29580Y-16615D01*
X29580Y-18913D01*
X29515Y-18849D01*
X29515Y-18804D01*
X29511Y-18785D01*
X29504Y-18766D01*
X29493Y-18750D01*
X29479Y-18736D01*
X29463Y-18725D01*
X29444Y-18717D01*
X29425Y-18713D01*
X29405Y-18713D01*
X29011Y-18713D01*
X28991Y-18717D01*
X28973Y-18725D01*
X28957Y-18736D01*
X28943Y-18750D01*
X28932Y-18766D01*
X28925Y-18782D01*
X28791Y-18782D01*
X28663Y-18654D01*
X28663Y-18278D01*
X28693Y-18310D01*
X28769Y-18362D01*
X28853Y-18399D01*
X28944Y-18419D01*
X29036Y-18421D01*
X29127Y-18405D01*
X29213Y-18371D01*
X29291Y-18322D01*
X29357Y-18258D01*
X29411Y-18183D01*
X29448Y-18099D01*
X29469Y-18009D01*
X29470Y-17903D01*
X29470Y-16903D01*
X29452Y-16813D01*
X29417Y-16728D01*
X29366Y-16651D01*
X29301Y-16585D01*
X29224Y-16534D01*
X29139Y-16498D01*
X29049Y-16479D01*
X28957Y-16479D01*
X28866Y-16496D01*
X28780Y-16531D01*
X28703Y-16581D01*
X28637Y-16646D01*
X28585Y-16722D01*
X28549Y-16807D01*
X28530Y-16897D01*
X28528Y-16989D01*
X28545Y-17080D01*
X28579Y-17166D01*
X28629Y-17243D01*
X28693Y-17310D01*
X28769Y-17362D01*
X28853Y-17399D01*
X28944Y-17419D01*
X29036Y-17421D01*
X29127Y-17405D01*
X29213Y-17371D01*
X29291Y-17322D01*
X29357Y-17258D01*
X29411Y-17183D01*
X29448Y-17099D01*
X29469Y-17009D01*
X29470Y-16903D01*
X29470Y-17903D01*
X29452Y-17813D01*
X29417Y-17728D01*
X29366Y-17651D01*
X29301Y-17585D01*
X29224Y-17534D01*
X29139Y-17498D01*
X29049Y-17479D01*
X28957Y-17479D01*
X28866Y-17496D01*
X28780Y-17531D01*
X28703Y-17581D01*
X28637Y-17646D01*
X28602Y-17697D01*
X28341Y-17436D01*
X28329Y-17427D01*
X28318Y-17417D01*
X28317Y-17417D01*
X28317Y-17416D01*
X28304Y-17409D01*
X28357Y-17358D01*
X28411Y-17283D01*
X28448Y-17199D01*
X28469Y-17109D01*
X28470Y-17003D01*
X28452Y-16913D01*
X28417Y-16828D01*
X28366Y-16751D01*
X28301Y-16685D01*
X28224Y-16634D01*
X28139Y-16598D01*
X28049Y-16579D01*
X27957Y-16579D01*
X27866Y-16596D01*
X27780Y-16631D01*
X27703Y-16681D01*
X27637Y-16746D01*
X27585Y-16822D01*
X27549Y-16907D01*
X27530Y-16997D01*
X27528Y-17089D01*
X27545Y-17180D01*
X27579Y-17266D01*
X27629Y-17343D01*
X27693Y-17410D01*
X27695Y-17411D01*
X27688Y-17415D01*
X27688Y-17415D01*
X27687Y-17416D01*
X27675Y-17425D01*
X27664Y-17434D01*
X27663Y-17436D01*
X27663Y-17436D01*
X27663Y-17436D01*
X27662Y-17436D01*
X27460Y-17638D01*
X27460Y-16939D01*
X27449Y-16850D01*
X27421Y-16765D01*
X27389Y-16703D01*
X27330Y-16661D01*
X27288Y-16703D01*
X27288Y-16619D01*
X27246Y-16560D01*
X27166Y-16520D01*
X27079Y-16496D01*
X26989Y-16489D01*
X26900Y-16500D01*
X26815Y-16528D01*
X26753Y-16560D01*
X26711Y-16619D01*
X27000Y-16908D01*
X27288Y-16619D01*
X27288Y-16703D01*
X27041Y-16950D01*
X27330Y-17238D01*
X27389Y-17196D01*
X27429Y-17116D01*
X27453Y-17029D01*
X27460Y-16939D01*
X27460Y-17638D01*
X27398Y-17700D01*
X27366Y-17651D01*
X27301Y-17585D01*
X27288Y-17577D01*
X27288Y-17280D01*
X27000Y-16991D01*
X26958Y-17033D01*
X26958Y-16950D01*
X26669Y-16661D01*
X26610Y-16703D01*
X26570Y-16783D01*
X26546Y-16870D01*
X26539Y-16960D01*
X26550Y-17049D01*
X26578Y-17134D01*
X26610Y-17196D01*
X26669Y-17238D01*
X26958Y-16950D01*
X26958Y-17033D01*
X26711Y-17280D01*
X26753Y-17339D01*
X26833Y-17379D01*
X26920Y-17403D01*
X27010Y-17410D01*
X27099Y-17399D01*
X27184Y-17371D01*
X27246Y-17339D01*
X27288Y-17280D01*
X27288Y-17577D01*
X27224Y-17534D01*
X27139Y-17498D01*
X27049Y-17479D01*
X26957Y-17479D01*
X26866Y-17496D01*
X26799Y-17523D01*
X26711Y-17436D01*
X26700Y-17427D01*
X26689Y-17417D01*
X26688Y-17417D01*
X26687Y-17416D01*
X26674Y-17409D01*
X26662Y-17402D01*
X26661Y-17402D01*
X26660Y-17401D01*
X26646Y-17397D01*
X26632Y-17393D01*
X26631Y-17393D01*
X26630Y-17392D01*
X26616Y-17391D01*
X26601Y-17389D01*
X26599Y-17389D01*
X26599Y-17389D01*
X26599Y-17389D01*
X26599Y-17389D01*
X26325Y-17389D01*
X26357Y-17358D01*
X26411Y-17283D01*
X26448Y-17199D01*
X26469Y-17109D01*
X26470Y-17003D01*
X26452Y-16913D01*
X26417Y-16828D01*
X26366Y-16751D01*
X26301Y-16685D01*
X26224Y-16634D01*
X26139Y-16598D01*
X26049Y-16579D01*
X25957Y-16579D01*
X25866Y-16596D01*
X25780Y-16631D01*
X25703Y-16681D01*
X25637Y-16746D01*
X25585Y-16822D01*
X25549Y-16907D01*
X25530Y-16997D01*
X25528Y-17089D01*
X25545Y-17180D01*
X25579Y-17266D01*
X25629Y-17343D01*
X25693Y-17410D01*
X25696Y-17412D01*
X25690Y-17415D01*
X25690Y-17415D01*
X25689Y-17416D01*
X25677Y-17425D01*
X25666Y-17434D01*
X25665Y-17436D01*
X25665Y-17436D01*
X25665Y-17436D01*
X25664Y-17436D01*
X25470Y-17630D01*
X25470Y-16903D01*
X25452Y-16813D01*
X25417Y-16728D01*
X25366Y-16651D01*
X25301Y-16585D01*
X25224Y-16534D01*
X25139Y-16498D01*
X25049Y-16479D01*
X24957Y-16479D01*
X24866Y-16496D01*
X24780Y-16531D01*
X24703Y-16581D01*
X24637Y-16646D01*
X24585Y-16722D01*
X24549Y-16807D01*
X24530Y-16897D01*
X24528Y-16989D01*
X24545Y-17080D01*
X24579Y-17166D01*
X24629Y-17243D01*
X24693Y-17310D01*
X24769Y-17362D01*
X24853Y-17399D01*
X24944Y-17419D01*
X25036Y-17421D01*
X25127Y-17405D01*
X25213Y-17371D01*
X25291Y-17322D01*
X25357Y-17258D01*
X25411Y-17183D01*
X25448Y-17099D01*
X25469Y-17009D01*
X25470Y-16903D01*
X25470Y-17630D01*
X25399Y-17701D01*
X25366Y-17651D01*
X25301Y-17585D01*
X25224Y-17534D01*
X25139Y-17498D01*
X25049Y-17479D01*
X24957Y-17479D01*
X24866Y-17496D01*
X24780Y-17531D01*
X24703Y-17581D01*
X24637Y-17646D01*
X24585Y-17722D01*
X24549Y-17807D01*
X24530Y-17897D01*
X24528Y-17989D01*
X24545Y-18080D01*
X24579Y-18166D01*
X24629Y-18243D01*
X24693Y-18310D01*
X24769Y-18362D01*
X24817Y-18383D01*
X24470Y-18383D01*
X24470Y-18003D01*
X24470Y-17003D01*
X24452Y-16913D01*
X24417Y-16828D01*
X24366Y-16751D01*
X24301Y-16685D01*
X24224Y-16634D01*
X24139Y-16598D01*
X24049Y-16579D01*
X23957Y-16579D01*
X23866Y-16596D01*
X23780Y-16631D01*
X23703Y-16681D01*
X23637Y-16746D01*
X23585Y-16822D01*
X23549Y-16907D01*
X23530Y-16997D01*
X23528Y-17089D01*
X23545Y-17180D01*
X23579Y-17266D01*
X23629Y-17343D01*
X23693Y-17410D01*
X23769Y-17462D01*
X23853Y-17499D01*
X23944Y-17519D01*
X24036Y-17521D01*
X24127Y-17505D01*
X24213Y-17471D01*
X24291Y-17422D01*
X24357Y-17358D01*
X24411Y-17283D01*
X24448Y-17199D01*
X24469Y-17109D01*
X24470Y-17003D01*
X24470Y-18003D01*
X24452Y-17913D01*
X24417Y-17828D01*
X24366Y-17751D01*
X24301Y-17685D01*
X24224Y-17634D01*
X24139Y-17598D01*
X24049Y-17579D01*
X23957Y-17579D01*
X23866Y-17596D01*
X23780Y-17631D01*
X23703Y-17681D01*
X23637Y-17746D01*
X23585Y-17822D01*
X23549Y-17907D01*
X23530Y-17997D01*
X23528Y-18089D01*
X23545Y-18180D01*
X23579Y-18266D01*
X23629Y-18343D01*
X23693Y-18410D01*
X23769Y-18462D01*
X23853Y-18499D01*
X23944Y-18519D01*
X24036Y-18521D01*
X24127Y-18505D01*
X24213Y-18471D01*
X24291Y-18422D01*
X24357Y-18358D01*
X24411Y-18283D01*
X24448Y-18199D01*
X24469Y-18109D01*
X24470Y-18003D01*
X24470Y-18383D01*
X24433Y-18383D01*
X24419Y-18385D01*
X24404Y-18386D01*
X24403Y-18386D01*
X24402Y-18386D01*
X24388Y-18391D01*
X24374Y-18395D01*
X24373Y-18395D01*
X24373Y-18395D01*
X24360Y-18402D01*
X24346Y-18409D01*
X24346Y-18410D01*
X24345Y-18410D01*
X24334Y-18419D01*
X24322Y-18428D01*
X24321Y-18430D01*
X24321Y-18430D01*
X24321Y-18430D01*
X24321Y-18430D01*
X23896Y-18855D01*
X23896Y-18660D01*
X23892Y-18643D01*
X23886Y-18627D01*
X23876Y-18613D01*
X23864Y-18600D01*
X23849Y-18591D01*
X23833Y-18584D01*
X23816Y-18581D01*
X23799Y-18580D01*
X23634Y-18580D01*
X23612Y-18603D01*
X23612Y-18764D01*
X23874Y-18764D01*
X23896Y-18742D01*
X23896Y-18660D01*
X23896Y-18855D01*
X23896Y-18855D01*
X23896Y-18846D01*
X23874Y-18823D01*
X23612Y-18823D01*
X23612Y-18985D01*
X23634Y-19007D01*
X23743Y-19008D01*
X23582Y-19168D01*
X23553Y-19168D01*
X23553Y-18985D01*
X23553Y-18823D01*
X23553Y-18764D01*
X23553Y-18603D01*
X23531Y-18580D01*
X23470Y-18580D01*
X23470Y-16903D01*
X23452Y-16813D01*
X23417Y-16728D01*
X23366Y-16651D01*
X23301Y-16585D01*
X23224Y-16534D01*
X23139Y-16498D01*
X23049Y-16479D01*
X22957Y-16479D01*
X22866Y-16496D01*
X22780Y-16531D01*
X22703Y-16581D01*
X22637Y-16646D01*
X22585Y-16722D01*
X22549Y-16807D01*
X22530Y-16897D01*
X22528Y-16989D01*
X22545Y-17080D01*
X22579Y-17166D01*
X22629Y-17243D01*
X22693Y-17310D01*
X22769Y-17362D01*
X22853Y-17399D01*
X22944Y-17419D01*
X23036Y-17421D01*
X23127Y-17405D01*
X23213Y-17371D01*
X23291Y-17322D01*
X23357Y-17258D01*
X23411Y-17183D01*
X23448Y-17099D01*
X23469Y-17009D01*
X23470Y-16903D01*
X23470Y-18580D01*
X23365Y-18580D01*
X23348Y-18581D01*
X23331Y-18584D01*
X23315Y-18591D01*
X23300Y-18600D01*
X23288Y-18613D01*
X23279Y-18627D01*
X23272Y-18643D01*
X23269Y-18660D01*
X23269Y-18742D01*
X23291Y-18764D01*
X23553Y-18764D01*
X23553Y-18823D01*
X23291Y-18823D01*
X23269Y-18846D01*
X23269Y-18928D01*
X23272Y-18945D01*
X23279Y-18961D01*
X23288Y-18975D01*
X23300Y-18988D01*
X23315Y-18997D01*
X23331Y-19004D01*
X23348Y-19007D01*
X23365Y-19008D01*
X23531Y-19007D01*
X23553Y-18985D01*
X23553Y-19168D01*
X23347Y-19168D01*
X23328Y-19172D01*
X23310Y-19180D01*
X23293Y-19191D01*
X23279Y-19205D01*
X23268Y-19221D01*
X23263Y-19234D01*
X23209Y-19234D01*
X23206Y-19222D01*
X23199Y-19204D01*
X23188Y-19188D01*
X23174Y-19174D01*
X23158Y-19163D01*
X23140Y-19155D01*
X23120Y-19151D01*
X23101Y-19151D01*
X22954Y-19151D01*
X22954Y-19092D01*
X23120Y-19092D01*
X23139Y-19088D01*
X23157Y-19081D01*
X23174Y-19070D01*
X23188Y-19056D01*
X23199Y-19040D01*
X23206Y-19021D01*
X23210Y-19002D01*
X23210Y-18982D01*
X23210Y-18482D01*
X23210Y-18242D01*
X23206Y-18222D01*
X23199Y-18204D01*
X23188Y-18188D01*
X23174Y-18174D01*
X23158Y-18163D01*
X23140Y-18155D01*
X23120Y-18151D01*
X23101Y-18151D01*
X22700Y-18151D01*
X22759Y-18092D01*
X23120Y-18092D01*
X23139Y-18088D01*
X23157Y-18081D01*
X23174Y-18070D01*
X23188Y-18056D01*
X23199Y-18040D01*
X23206Y-18021D01*
X23210Y-18002D01*
X23210Y-17982D01*
X23210Y-17742D01*
X23206Y-17722D01*
X23199Y-17704D01*
X23188Y-17688D01*
X23174Y-17674D01*
X23158Y-17663D01*
X23140Y-17655D01*
X23120Y-17651D01*
X23101Y-17651D01*
X22470Y-17651D01*
X22470Y-17003D01*
X22452Y-16913D01*
X22417Y-16828D01*
X22366Y-16751D01*
X22301Y-16685D01*
X22224Y-16634D01*
X22139Y-16598D01*
X22049Y-16579D01*
X21957Y-16579D01*
X21866Y-16596D01*
X21780Y-16631D01*
X21703Y-16681D01*
X21637Y-16746D01*
X21585Y-16822D01*
X21549Y-16907D01*
X21530Y-16997D01*
X21528Y-17089D01*
X21545Y-17180D01*
X21579Y-17266D01*
X21629Y-17343D01*
X21693Y-17410D01*
X21769Y-17462D01*
X21853Y-17499D01*
X21944Y-17519D01*
X22036Y-17521D01*
X22127Y-17505D01*
X22213Y-17471D01*
X22291Y-17422D01*
X22357Y-17358D01*
X22411Y-17283D01*
X22448Y-17199D01*
X22469Y-17109D01*
X22470Y-17003D01*
X22470Y-17651D01*
X22470Y-17651D01*
X22451Y-17655D01*
X22432Y-17662D01*
X22416Y-17673D01*
X22402Y-17687D01*
X22391Y-17704D01*
X22383Y-17722D01*
X22379Y-17741D01*
X22379Y-17761D01*
X22379Y-17891D01*
X22376Y-17891D01*
X22336Y-17899D01*
X22298Y-17914D01*
X22264Y-17937D01*
X22234Y-17966D01*
X22211Y-17999D01*
X22195Y-18037D01*
X22186Y-18077D01*
X22186Y-18118D01*
X22193Y-18158D01*
X22208Y-18196D01*
X22231Y-18231D01*
X22240Y-18241D01*
X22121Y-18241D01*
X21787Y-17908D01*
X21787Y-17907D01*
X21779Y-17867D01*
X21764Y-17829D01*
X21741Y-17795D01*
X21712Y-17766D01*
X21678Y-17743D01*
X21640Y-17727D01*
X21600Y-17719D01*
X21559Y-17718D01*
X21519Y-17726D01*
X21481Y-17741D01*
X21470Y-17749D01*
X21470Y-16903D01*
X21452Y-16813D01*
X21417Y-16728D01*
X21366Y-16651D01*
X21301Y-16585D01*
X21224Y-16534D01*
X21139Y-16498D01*
X21049Y-16479D01*
X20957Y-16479D01*
X20866Y-16496D01*
X20780Y-16531D01*
X20703Y-16581D01*
X20637Y-16646D01*
X20585Y-16722D01*
X20549Y-16807D01*
X20530Y-16897D01*
X20528Y-16989D01*
X20545Y-17080D01*
X20579Y-17166D01*
X20629Y-17243D01*
X20693Y-17310D01*
X20769Y-17362D01*
X20853Y-17399D01*
X20944Y-17419D01*
X21036Y-17421D01*
X21127Y-17405D01*
X21213Y-17371D01*
X21291Y-17322D01*
X21357Y-17258D01*
X21411Y-17183D01*
X21448Y-17099D01*
X21469Y-17009D01*
X21470Y-16903D01*
X21470Y-17749D01*
X21447Y-17764D01*
X21417Y-17793D01*
X21394Y-17826D01*
X21378Y-17864D01*
X21369Y-17904D01*
X21369Y-17945D01*
X21376Y-17985D01*
X21391Y-18023D01*
X21414Y-18058D01*
X21442Y-18087D01*
X21476Y-18111D01*
X21513Y-18127D01*
X21553Y-18136D01*
X21594Y-18137D01*
X21635Y-18130D01*
X21639Y-18128D01*
X21974Y-18464D01*
X21984Y-18471D01*
X21993Y-18479D01*
X21993Y-18480D01*
X21994Y-18480D01*
X22005Y-18486D01*
X22015Y-18491D01*
X22016Y-18492D01*
X22016Y-18492D01*
X22028Y-18496D01*
X22039Y-18499D01*
X22040Y-18499D01*
X22041Y-18499D01*
X22053Y-18501D01*
X22065Y-18502D01*
X22066Y-18502D01*
X22066Y-18502D01*
X22066Y-18502D01*
X22067Y-18502D01*
X22379Y-18502D01*
X22383Y-18521D01*
X22391Y-18539D01*
X22402Y-18555D01*
X22415Y-18569D01*
X22432Y-18580D01*
X22450Y-18588D01*
X22469Y-18592D01*
X22489Y-18592D01*
X23120Y-18592D01*
X23139Y-18588D01*
X23157Y-18581D01*
X23174Y-18570D01*
X23188Y-18556D01*
X23199Y-18540D01*
X23206Y-18521D01*
X23210Y-18502D01*
X23210Y-18482D01*
X23210Y-18982D01*
X23210Y-18742D01*
X23206Y-18722D01*
X23199Y-18704D01*
X23188Y-18688D01*
X23174Y-18674D01*
X23158Y-18663D01*
X23140Y-18655D01*
X23120Y-18651D01*
X23101Y-18651D01*
X22470Y-18651D01*
X22451Y-18655D01*
X22432Y-18662D01*
X22416Y-18673D01*
X22402Y-18687D01*
X22391Y-18704D01*
X22387Y-18712D01*
X21751Y-18712D01*
X21298Y-18259D01*
X21287Y-18249D01*
X21275Y-18240D01*
X21275Y-18240D01*
X21274Y-18239D01*
X21261Y-18232D01*
X21248Y-18225D01*
X21247Y-18225D01*
X21247Y-18224D01*
X21232Y-18220D01*
X21218Y-18216D01*
X21218Y-18215D01*
X21217Y-18215D01*
X21202Y-18214D01*
X21187Y-18212D01*
X21186Y-18212D01*
X21186Y-18212D01*
X21186Y-18212D01*
X21185Y-18212D01*
X21076Y-18212D01*
X21073Y-18204D01*
X21072Y-18203D01*
X21072Y-18000D01*
X21072Y-17743D01*
X21069Y-17726D01*
X21062Y-17710D01*
X21053Y-17695D01*
X21040Y-17683D01*
X21026Y-17673D01*
X21010Y-17667D01*
X20993Y-17663D01*
X20976Y-17663D01*
X20720Y-17663D01*
X20698Y-17685D01*
X20698Y-17842D01*
X21050Y-17842D01*
X21072Y-17820D01*
X21072Y-17743D01*
X21072Y-18000D01*
X21072Y-17923D01*
X21050Y-17901D01*
X20698Y-17901D01*
X20698Y-18058D01*
X20720Y-18080D01*
X20976Y-18080D01*
X20993Y-18080D01*
X21010Y-18076D01*
X21026Y-18070D01*
X21040Y-18060D01*
X21053Y-18048D01*
X21062Y-18033D01*
X21069Y-18017D01*
X21072Y-18000D01*
X21072Y-18203D01*
X21062Y-18188D01*
X21048Y-18174D01*
X21032Y-18163D01*
X21014Y-18155D01*
X20994Y-18151D01*
X20975Y-18151D01*
X20639Y-18151D01*
X20639Y-18058D01*
X20639Y-17901D01*
X20639Y-17842D01*
X20639Y-17685D01*
X20617Y-17663D01*
X20470Y-17663D01*
X20470Y-17003D01*
X20452Y-16913D01*
X20417Y-16828D01*
X20366Y-16751D01*
X20301Y-16685D01*
X20224Y-16634D01*
X20139Y-16598D01*
X20049Y-16579D01*
X19957Y-16579D01*
X19866Y-16596D01*
X19780Y-16631D01*
X19703Y-16681D01*
X19637Y-16746D01*
X19585Y-16822D01*
X19549Y-16907D01*
X19530Y-16997D01*
X19528Y-17089D01*
X19545Y-17180D01*
X19579Y-17266D01*
X19629Y-17343D01*
X19693Y-17410D01*
X19769Y-17462D01*
X19853Y-17499D01*
X19944Y-17519D01*
X20036Y-17521D01*
X20127Y-17505D01*
X20213Y-17471D01*
X20291Y-17422D01*
X20357Y-17358D01*
X20411Y-17283D01*
X20448Y-17199D01*
X20469Y-17109D01*
X20470Y-17003D01*
X20470Y-17663D01*
X20362Y-17663D01*
X20344Y-17663D01*
X20327Y-17667D01*
X20311Y-17673D01*
X20297Y-17683D01*
X20285Y-17695D01*
X20275Y-17710D01*
X20269Y-17726D01*
X20265Y-17743D01*
X20265Y-17820D01*
X20287Y-17842D01*
X20639Y-17842D01*
X20639Y-17901D01*
X20287Y-17901D01*
X20265Y-17923D01*
X20265Y-18000D01*
X20269Y-18017D01*
X20275Y-18033D01*
X20285Y-18048D01*
X20297Y-18060D01*
X20311Y-18070D01*
X20327Y-18076D01*
X20344Y-18080D01*
X20362Y-18080D01*
X20617Y-18080D01*
X20639Y-18058D01*
X20639Y-18151D01*
X20344Y-18151D01*
X20325Y-18155D01*
X20306Y-18162D01*
X20290Y-18173D01*
X20276Y-18187D01*
X20265Y-18204D01*
X20261Y-18212D01*
X20240Y-18212D01*
X20238Y-18209D01*
X20238Y-18208D01*
X20238Y-17995D01*
X20238Y-17748D01*
X20234Y-17731D01*
X20228Y-17715D01*
X20218Y-17700D01*
X20206Y-17688D01*
X20192Y-17678D01*
X20176Y-17672D01*
X20159Y-17668D01*
X20141Y-17668D01*
X19909Y-17668D01*
X19887Y-17690D01*
X19887Y-17842D01*
X20216Y-17842D01*
X20238Y-17820D01*
X20238Y-17748D01*
X20238Y-17995D01*
X20238Y-17923D01*
X20216Y-17901D01*
X19887Y-17901D01*
X19887Y-18053D01*
X19909Y-18075D01*
X20141Y-18075D01*
X20159Y-18075D01*
X20176Y-18071D01*
X20192Y-18065D01*
X20206Y-18055D01*
X20218Y-18043D01*
X20228Y-18028D01*
X20234Y-18012D01*
X20238Y-17995D01*
X20238Y-18208D01*
X20228Y-18193D01*
X20214Y-18179D01*
X20197Y-18168D01*
X20179Y-18160D01*
X20160Y-18156D01*
X20140Y-18156D01*
X19828Y-18156D01*
X19828Y-18053D01*
X19828Y-17901D01*
X19828Y-17842D01*
X19828Y-17690D01*
X19806Y-17668D01*
X19574Y-17668D01*
X19557Y-17668D01*
X19540Y-17672D01*
X19524Y-17678D01*
X19510Y-17688D01*
X19497Y-17700D01*
X19488Y-17715D01*
X19481Y-17731D01*
X19478Y-17748D01*
X19478Y-17820D01*
X19500Y-17842D01*
X19828Y-17842D01*
X19828Y-17901D01*
X19500Y-17901D01*
X19478Y-17923D01*
X19478Y-17995D01*
X19481Y-18012D01*
X19488Y-18028D01*
X19497Y-18043D01*
X19510Y-18055D01*
X19524Y-18065D01*
X19540Y-18071D01*
X19557Y-18075D01*
X19574Y-18075D01*
X19806Y-18075D01*
X19828Y-18053D01*
X19828Y-18156D01*
X19556Y-18156D01*
X19537Y-18160D01*
X19524Y-18165D01*
X19513Y-18155D01*
X19479Y-18132D01*
X19442Y-18116D01*
X19418Y-18111D01*
X19422Y-18093D01*
X19422Y-18073D01*
X19422Y-17678D01*
X19418Y-17659D01*
X19411Y-17641D01*
X19400Y-17625D01*
X19386Y-17611D01*
X19369Y-17599D01*
X19351Y-17592D01*
X19350Y-17592D01*
X19350Y-17589D01*
X19350Y-17588D01*
X19350Y-17588D01*
X19346Y-17574D01*
X19341Y-17559D01*
X19341Y-17559D01*
X19341Y-17558D01*
X19334Y-17545D01*
X19327Y-17532D01*
X19327Y-17531D01*
X19326Y-17530D01*
X19317Y-17519D01*
X19308Y-17507D01*
X19307Y-17506D01*
X19307Y-17506D01*
X19307Y-17506D01*
X19306Y-17506D01*
X19246Y-17446D01*
X19235Y-17436D01*
X19223Y-17427D01*
X19223Y-17427D01*
X19222Y-17426D01*
X19209Y-17419D01*
X19196Y-17412D01*
X19195Y-17412D01*
X19195Y-17411D01*
X19181Y-17407D01*
X19167Y-17403D01*
X19166Y-17402D01*
X19165Y-17402D01*
X19150Y-17401D01*
X19140Y-17400D01*
X19213Y-17371D01*
X19291Y-17322D01*
X19357Y-17258D01*
X19411Y-17183D01*
X19448Y-17099D01*
X19469Y-17009D01*
X19470Y-16903D01*
X19452Y-16813D01*
X19417Y-16728D01*
X19366Y-16651D01*
X19301Y-16585D01*
X19224Y-16534D01*
X19139Y-16498D01*
X19049Y-16479D01*
X18957Y-16479D01*
X18866Y-16496D01*
X18780Y-16531D01*
X18703Y-16581D01*
X18637Y-16646D01*
X18585Y-16722D01*
X18549Y-16807D01*
X18530Y-16897D01*
X18528Y-16989D01*
X18545Y-17080D01*
X18579Y-17166D01*
X18629Y-17243D01*
X18693Y-17310D01*
X18769Y-17362D01*
X18853Y-17399D01*
X18315Y-17399D01*
X18357Y-17358D01*
X18411Y-17283D01*
X18448Y-17199D01*
X18469Y-17109D01*
X18470Y-17003D01*
X18452Y-16913D01*
X18417Y-16828D01*
X18366Y-16751D01*
X18301Y-16685D01*
X18224Y-16634D01*
X18139Y-16598D01*
X18049Y-16579D01*
X17957Y-16579D01*
X17866Y-16596D01*
X17780Y-16631D01*
X17703Y-16681D01*
X17637Y-16746D01*
X17585Y-16822D01*
X17549Y-16907D01*
X17530Y-16997D01*
X17528Y-17089D01*
X17545Y-17180D01*
X17579Y-17266D01*
X17629Y-17343D01*
X17693Y-17410D01*
X17769Y-17462D01*
X17852Y-17499D01*
X17510Y-17499D01*
X17491Y-17502D01*
X17472Y-17510D01*
X17465Y-17515D01*
X17317Y-17367D01*
X17306Y-17358D01*
X17294Y-17348D01*
X17294Y-17348D01*
X17293Y-17347D01*
X17280Y-17340D01*
X17270Y-17335D01*
X17291Y-17322D01*
X17357Y-17258D01*
X17411Y-17183D01*
X17448Y-17099D01*
X17469Y-17009D01*
X17470Y-16903D01*
X17452Y-16813D01*
X17417Y-16728D01*
X17366Y-16651D01*
X17301Y-16585D01*
X17224Y-16534D01*
X17139Y-16498D01*
X17049Y-16479D01*
X16957Y-16479D01*
X16866Y-16496D01*
X16780Y-16531D01*
X16703Y-16581D01*
X16637Y-16646D01*
X16585Y-16722D01*
X16549Y-16807D01*
X16530Y-16897D01*
X16528Y-16989D01*
X16545Y-17080D01*
X16579Y-17166D01*
X16629Y-17243D01*
X16693Y-17310D01*
X16709Y-17320D01*
X16519Y-17320D01*
X16505Y-17322D01*
X16490Y-17323D01*
X16489Y-17323D01*
X16488Y-17323D01*
X16474Y-17328D01*
X16470Y-17329D01*
X16470Y-17003D01*
X16452Y-16913D01*
X16417Y-16828D01*
X16366Y-16751D01*
X16301Y-16685D01*
X16224Y-16634D01*
X16139Y-16598D01*
X16049Y-16579D01*
X15957Y-16579D01*
X15866Y-16596D01*
X15780Y-16631D01*
X15703Y-16681D01*
X15637Y-16746D01*
X15585Y-16822D01*
X15549Y-16907D01*
X15530Y-16997D01*
X15528Y-17089D01*
X15545Y-17180D01*
X15579Y-17266D01*
X15629Y-17343D01*
X15693Y-17410D01*
X15769Y-17462D01*
X15853Y-17499D01*
X15944Y-17519D01*
X16036Y-17521D01*
X16127Y-17505D01*
X16213Y-17471D01*
X16291Y-17422D01*
X16357Y-17358D01*
X16411Y-17283D01*
X16448Y-17199D01*
X16469Y-17109D01*
X16470Y-17003D01*
X16470Y-17329D01*
X16460Y-17332D01*
X16459Y-17332D01*
X16458Y-17332D01*
X16445Y-17339D01*
X16432Y-17346D01*
X16432Y-17347D01*
X16431Y-17347D01*
X16420Y-17356D01*
X16408Y-17365D01*
X16407Y-17367D01*
X16407Y-17367D01*
X16407Y-17367D01*
X16406Y-17367D01*
X16204Y-17569D01*
X16135Y-17540D01*
X16045Y-17521D01*
X15953Y-17521D01*
X15862Y-17538D01*
X15777Y-17573D01*
X15699Y-17623D01*
X15633Y-17688D01*
X15581Y-17764D01*
X15545Y-17849D01*
X15526Y-17939D01*
X15524Y-18031D01*
X15541Y-18122D01*
X15575Y-18208D01*
X15625Y-18285D01*
X15689Y-18352D01*
X15765Y-18404D01*
X15849Y-18441D01*
X15940Y-18461D01*
X16032Y-18463D01*
X16123Y-18447D01*
X16209Y-18414D01*
X16287Y-18364D01*
X16353Y-18301D01*
X16407Y-18225D01*
X16444Y-18141D01*
X16465Y-18051D01*
X16466Y-17945D01*
X16448Y-17855D01*
X16425Y-17799D01*
X16585Y-17639D01*
X16723Y-17639D01*
X16707Y-17661D01*
X16996Y-17950D01*
X17001Y-17944D01*
X17043Y-17986D01*
X17037Y-17992D01*
X17326Y-18280D01*
X17385Y-18238D01*
X17425Y-18158D01*
X17449Y-18071D01*
X17453Y-18024D01*
X17455Y-18027D01*
X17472Y-18038D01*
X17490Y-18046D01*
X17509Y-18050D01*
X17529Y-18050D01*
X18080Y-18050D01*
X18099Y-18046D01*
X18117Y-18038D01*
X18134Y-18027D01*
X18148Y-18013D01*
X18159Y-17997D01*
X18166Y-17980D01*
X18181Y-18004D01*
X18210Y-18033D01*
X18215Y-18037D01*
X18215Y-18092D01*
X18219Y-18112D01*
X18226Y-18130D01*
X18237Y-18146D01*
X18251Y-18160D01*
X18267Y-18171D01*
X18286Y-18179D01*
X18305Y-18183D01*
X18325Y-18183D01*
X18581Y-18183D01*
X18601Y-18179D01*
X18619Y-18171D01*
X18635Y-18161D01*
X18640Y-18155D01*
X18649Y-18161D01*
X18665Y-18167D01*
X18682Y-18171D01*
X18767Y-18171D01*
X18789Y-18149D01*
X18789Y-17915D01*
X18781Y-17915D01*
X18781Y-17856D01*
X18789Y-17856D01*
X18789Y-17848D01*
X18848Y-17848D01*
X18848Y-17856D01*
X18856Y-17856D01*
X18856Y-17915D01*
X18848Y-17915D01*
X18848Y-18149D01*
X18870Y-18171D01*
X18911Y-18171D01*
X18675Y-18407D01*
X18263Y-18407D01*
X18249Y-18408D01*
X18234Y-18410D01*
X18233Y-18410D01*
X18232Y-18410D01*
X18218Y-18414D01*
X18204Y-18418D01*
X18203Y-18419D01*
X18202Y-18419D01*
X18189Y-18426D01*
X18176Y-18433D01*
X18176Y-18433D01*
X18175Y-18434D01*
X18164Y-18443D01*
X18158Y-18447D01*
X18158Y-18340D01*
X18155Y-18323D01*
X18148Y-18307D01*
X18139Y-18293D01*
X18126Y-18281D01*
X18112Y-18271D01*
X18096Y-18264D01*
X18079Y-18261D01*
X18062Y-18261D01*
X17846Y-18261D01*
X17824Y-18283D01*
X17824Y-18495D01*
X17832Y-18495D01*
X17832Y-18554D01*
X17824Y-18554D01*
X17824Y-18765D01*
X17846Y-18788D01*
X17954Y-18788D01*
X17776Y-18965D01*
X17765Y-18965D01*
X17765Y-18765D01*
X17765Y-18554D01*
X17765Y-18495D01*
X17765Y-18283D01*
X17743Y-18261D01*
X17528Y-18261D01*
X17510Y-18261D01*
X17493Y-18264D01*
X17477Y-18271D01*
X17463Y-18281D01*
X17451Y-18293D01*
X17441Y-18307D01*
X17435Y-18323D01*
X17431Y-18340D01*
X17431Y-18472D01*
X17453Y-18495D01*
X17765Y-18495D01*
X17765Y-18554D01*
X17453Y-18554D01*
X17431Y-18576D01*
X17431Y-18708D01*
X17435Y-18725D01*
X17441Y-18741D01*
X17451Y-18755D01*
X17463Y-18768D01*
X17477Y-18777D01*
X17493Y-18784D01*
X17510Y-18788D01*
X17528Y-18788D01*
X17743Y-18788D01*
X17765Y-18765D01*
X17765Y-18965D01*
X17469Y-18965D01*
X17450Y-18969D01*
X17432Y-18977D01*
X17416Y-18988D01*
X17402Y-19001D01*
X17391Y-19018D01*
X17383Y-19036D01*
X17379Y-19055D01*
X17379Y-19075D01*
X17379Y-19526D01*
X17383Y-19545D01*
X17390Y-19563D01*
X17401Y-19580D01*
X17415Y-19594D01*
X17431Y-19605D01*
X17449Y-19612D01*
X17469Y-19616D01*
X17488Y-19616D01*
X17883Y-19616D01*
X17903Y-19613D01*
X17921Y-19605D01*
X17937Y-19594D01*
X17951Y-19580D01*
X17962Y-19564D01*
X17970Y-19546D01*
X17974Y-19526D01*
X17974Y-19507D01*
X17974Y-19219D01*
X18094Y-19099D01*
X18093Y-19103D01*
X18093Y-19104D01*
X18093Y-19104D01*
X18093Y-19104D01*
X18093Y-19105D01*
X18093Y-19771D01*
X18095Y-19783D01*
X18096Y-19795D01*
X18096Y-19796D01*
X18096Y-19797D01*
X18099Y-19808D01*
X18103Y-19820D01*
X18103Y-19820D01*
X18103Y-19821D01*
X18109Y-19832D01*
X18114Y-19842D01*
X18115Y-19843D01*
X18115Y-19843D01*
X18123Y-19853D01*
X18130Y-19862D01*
X18131Y-19863D01*
X18131Y-19863D01*
X18131Y-19863D01*
X18132Y-19863D01*
X18375Y-20107D01*
X18375Y-20189D01*
X18379Y-20208D01*
X18386Y-20226D01*
X18397Y-20243D01*
X18411Y-20257D01*
X18427Y-20268D01*
X18445Y-20275D01*
X18465Y-20279D01*
X18484Y-20279D01*
X18935Y-20279D01*
X18954Y-20276D01*
X18973Y-20268D01*
X18989Y-20257D01*
X19003Y-20243D01*
X19187Y-20427D01*
X19198Y-20437D01*
X19209Y-20446D01*
X19210Y-20446D01*
X19211Y-20447D01*
X19224Y-20454D01*
X19237Y-20461D01*
X19237Y-20461D01*
X19238Y-20462D01*
X19252Y-20466D01*
X19266Y-20470D01*
X19267Y-20471D01*
X19268Y-20471D01*
X19283Y-20472D01*
X19297Y-20474D01*
X19299Y-20474D01*
X19299Y-20474D01*
X19299Y-20474D01*
X19300Y-20474D01*
X20630Y-20474D01*
X20667Y-20510D01*
X20667Y-21690D01*
X20212Y-21690D01*
X20212Y-21289D01*
X20204Y-21249D01*
X20189Y-21211D01*
X20166Y-21177D01*
X20137Y-21148D01*
X20119Y-21135D01*
X20118Y-21134D01*
X20107Y-21117D01*
X20093Y-21103D01*
X20077Y-21092D01*
X20059Y-21085D01*
X20039Y-21081D01*
X20020Y-21080D01*
X19035Y-21081D01*
X19016Y-21084D01*
X19014Y-21085D01*
X19014Y-20788D01*
X19014Y-20520D01*
X19010Y-20503D01*
X19004Y-20487D01*
X18994Y-20473D01*
X18982Y-20460D01*
X18968Y-20451D01*
X18952Y-20444D01*
X18935Y-20440D01*
X18917Y-20440D01*
X18752Y-20440D01*
X18730Y-20462D01*
X18730Y-20624D01*
X18992Y-20624D01*
X19014Y-20602D01*
X19014Y-20520D01*
X19014Y-20788D01*
X19014Y-20705D01*
X18992Y-20683D01*
X18730Y-20683D01*
X18730Y-20845D01*
X18752Y-20867D01*
X18917Y-20867D01*
X18935Y-20867D01*
X18952Y-20864D01*
X18968Y-20857D01*
X18982Y-20847D01*
X18994Y-20835D01*
X19004Y-20821D01*
X19010Y-20805D01*
X19014Y-20788D01*
X19014Y-21085D01*
X18997Y-21092D01*
X18981Y-21103D01*
X18967Y-21117D01*
X18956Y-21133D01*
X18948Y-21151D01*
X18944Y-21170D01*
X18944Y-21190D01*
X18944Y-21584D01*
X18948Y-21603D01*
X18956Y-21621D01*
X18967Y-21638D01*
X18981Y-21652D01*
X18997Y-21663D01*
X19015Y-21670D01*
X19034Y-21674D01*
X19054Y-21675D01*
X20039Y-21675D01*
X20058Y-21671D01*
X20076Y-21663D01*
X20093Y-21652D01*
X20107Y-21638D01*
X20118Y-21622D01*
X20125Y-21604D01*
X20129Y-21585D01*
X20129Y-21565D01*
X20129Y-21477D01*
X20132Y-21475D01*
X20162Y-21447D01*
X20186Y-21413D01*
X20202Y-21376D01*
X20212Y-21336D01*
X20212Y-21289D01*
X20212Y-21690D01*
X19055Y-21690D01*
X19040Y-21692D01*
X19025Y-21693D01*
X19024Y-21693D01*
X19024Y-21693D01*
X19010Y-21698D01*
X18995Y-21702D01*
X18995Y-21702D01*
X18994Y-21702D01*
X18981Y-21709D01*
X18968Y-21716D01*
X18967Y-21717D01*
X18966Y-21717D01*
X18955Y-21726D01*
X18943Y-21736D01*
X18942Y-21737D01*
X18942Y-21737D01*
X18942Y-21737D01*
X18942Y-21737D01*
X18848Y-21831D01*
X18848Y-21748D01*
X18849Y-21745D01*
X18849Y-21725D01*
X18849Y-21474D01*
X18848Y-21470D01*
X18848Y-21415D01*
X18851Y-21410D01*
X18868Y-21373D01*
X18877Y-21333D01*
X18878Y-21286D01*
X18870Y-21246D01*
X18854Y-21208D01*
X18832Y-21174D01*
X18803Y-21145D01*
X18769Y-21122D01*
X18731Y-21106D01*
X18691Y-21098D01*
X18671Y-21098D01*
X18671Y-20845D01*
X18671Y-20683D01*
X18671Y-20624D01*
X18671Y-20462D01*
X18649Y-20440D01*
X18483Y-20440D01*
X18466Y-20440D01*
X18449Y-20444D01*
X18433Y-20451D01*
X18419Y-20460D01*
X18406Y-20473D01*
X18397Y-20487D01*
X18390Y-20503D01*
X18387Y-20520D01*
X18387Y-20602D01*
X18409Y-20624D01*
X18671Y-20624D01*
X18671Y-20683D01*
X18409Y-20683D01*
X18387Y-20705D01*
X18387Y-20788D01*
X18390Y-20805D01*
X18397Y-20821D01*
X18406Y-20835D01*
X18419Y-20847D01*
X18433Y-20857D01*
X18449Y-20864D01*
X18466Y-20867D01*
X18483Y-20867D01*
X18649Y-20867D01*
X18671Y-20845D01*
X18671Y-21098D01*
X18650Y-21097D01*
X18609Y-21105D01*
X18571Y-21120D01*
X18537Y-21143D01*
X18508Y-21172D01*
X18485Y-21205D01*
X18469Y-21243D01*
X18460Y-21283D01*
X18460Y-21324D01*
X18467Y-21364D01*
X18474Y-21383D01*
X18288Y-21383D01*
X18269Y-21387D01*
X18269Y-21387D01*
X18252Y-21387D01*
X18252Y-20455D01*
X18244Y-20415D01*
X18228Y-20377D01*
X18206Y-20343D01*
X18177Y-20314D01*
X18170Y-20309D01*
X18166Y-20305D01*
X18157Y-20294D01*
X18156Y-20293D01*
X18156Y-20293D01*
X18156Y-20293D01*
X18156Y-20292D01*
X17679Y-19816D01*
X17668Y-19807D01*
X17657Y-19797D01*
X17656Y-19797D01*
X17655Y-19796D01*
X17642Y-19789D01*
X17629Y-19782D01*
X17628Y-19782D01*
X17628Y-19781D01*
X17614Y-19777D01*
X17600Y-19773D01*
X17599Y-19773D01*
X17598Y-19772D01*
X17583Y-19771D01*
X17569Y-19769D01*
X17567Y-19769D01*
X17567Y-19769D01*
X17567Y-19769D01*
X17566Y-19769D01*
X17284Y-19769D01*
X17284Y-18322D01*
X16996Y-18033D01*
X16954Y-18075D01*
X16954Y-17992D01*
X16665Y-17703D01*
X16606Y-17745D01*
X16566Y-17826D01*
X16542Y-17912D01*
X16535Y-18002D01*
X16546Y-18091D01*
X16574Y-18177D01*
X16606Y-18238D01*
X16665Y-18280D01*
X16954Y-17992D01*
X16954Y-18075D01*
X16707Y-18322D01*
X16749Y-18381D01*
X16829Y-18421D01*
X16916Y-18445D01*
X17006Y-18452D01*
X17095Y-18441D01*
X17181Y-18414D01*
X17242Y-18381D01*
X17284Y-18322D01*
X17284Y-19769D01*
X17206Y-19769D01*
X17206Y-19694D01*
X17202Y-19675D01*
X17195Y-19657D01*
X17184Y-19640D01*
X17170Y-19626D01*
X17167Y-19624D01*
X17167Y-19616D01*
X17175Y-19616D01*
X17195Y-19613D01*
X17213Y-19605D01*
X17229Y-19594D01*
X17243Y-19580D01*
X17254Y-19564D01*
X17262Y-19546D01*
X17266Y-19526D01*
X17266Y-19507D01*
X17266Y-19056D01*
X17262Y-19037D01*
X17255Y-19018D01*
X17244Y-19002D01*
X17230Y-18988D01*
X17213Y-18977D01*
X17195Y-18969D01*
X17176Y-18965D01*
X17156Y-18965D01*
X16761Y-18965D01*
X16742Y-18969D01*
X16724Y-18977D01*
X16708Y-18988D01*
X16694Y-19001D01*
X16683Y-19018D01*
X16675Y-19036D01*
X16671Y-19055D01*
X16671Y-19075D01*
X16671Y-19526D01*
X16675Y-19545D01*
X16682Y-19563D01*
X16693Y-19580D01*
X16707Y-19594D01*
X16722Y-19604D01*
X16584Y-19604D01*
X16565Y-19608D01*
X16547Y-19615D01*
X16530Y-19626D01*
X16516Y-19640D01*
X16505Y-19656D01*
X16498Y-19674D01*
X16494Y-19694D01*
X16493Y-19713D01*
X16493Y-19737D01*
X16481Y-19743D01*
X16447Y-19765D01*
X16417Y-19794D01*
X16394Y-19827D01*
X16378Y-19865D01*
X16370Y-19905D01*
X16369Y-19946D01*
X16376Y-19987D01*
X16391Y-20025D01*
X16414Y-20059D01*
X16442Y-20089D01*
X16476Y-20112D01*
X16493Y-20120D01*
X16493Y-20159D01*
X16479Y-20153D01*
X16439Y-20145D01*
X16398Y-20145D01*
X16368Y-20150D01*
X16368Y-19712D01*
X16367Y-19695D01*
X16364Y-19678D01*
X16357Y-19662D01*
X16348Y-19648D01*
X16335Y-19635D01*
X16321Y-19626D01*
X16305Y-19619D01*
X16288Y-19616D01*
X16075Y-19616D01*
X16053Y-19638D01*
X16053Y-19931D01*
X16345Y-19931D01*
X16368Y-19909D01*
X16368Y-19712D01*
X16368Y-20150D01*
X16368Y-20150D01*
X16368Y-20012D01*
X16345Y-19990D01*
X16053Y-19990D01*
X16053Y-20282D01*
X16075Y-20305D01*
X16214Y-20305D01*
X16208Y-20330D01*
X16208Y-20371D01*
X16209Y-20377D01*
X16156Y-20430D01*
X15994Y-20430D01*
X15994Y-20282D01*
X15994Y-19990D01*
X15994Y-19931D01*
X15994Y-19638D01*
X15971Y-19616D01*
X15759Y-19616D01*
X15742Y-19619D01*
X15725Y-19626D01*
X15711Y-19635D01*
X15699Y-19648D01*
X15689Y-19662D01*
X15682Y-19678D01*
X15679Y-19695D01*
X15679Y-19712D01*
X15679Y-19909D01*
X15701Y-19931D01*
X15994Y-19931D01*
X15994Y-19990D01*
X15701Y-19990D01*
X15679Y-20012D01*
X15679Y-20208D01*
X15679Y-20225D01*
X15682Y-20242D01*
X15689Y-20258D01*
X15699Y-20273D01*
X15711Y-20285D01*
X15725Y-20295D01*
X15742Y-20301D01*
X15759Y-20305D01*
X15971Y-20305D01*
X15994Y-20282D01*
X15994Y-20430D01*
X15757Y-20430D01*
X15738Y-20434D01*
X15720Y-20442D01*
X15703Y-20453D01*
X15689Y-20467D01*
X15678Y-20483D01*
X15671Y-20501D01*
X15667Y-20520D01*
X15667Y-20540D01*
X15667Y-21053D01*
X15671Y-21072D01*
X15678Y-21090D01*
X15689Y-21107D01*
X15703Y-21121D01*
X15719Y-21132D01*
X15737Y-21139D01*
X15757Y-21143D01*
X15776Y-21143D01*
X16289Y-21143D01*
X16308Y-21139D01*
X16326Y-21132D01*
X16343Y-21121D01*
X16357Y-21107D01*
X16368Y-21091D01*
X16375Y-21073D01*
X16379Y-21053D01*
X16380Y-21034D01*
X16380Y-20576D01*
X16393Y-20562D01*
X16433Y-20563D01*
X16473Y-20556D01*
X16493Y-20548D01*
X16493Y-21053D01*
X16497Y-21072D01*
X16505Y-21090D01*
X16516Y-21107D01*
X16530Y-21121D01*
X16546Y-21132D01*
X16564Y-21139D01*
X16583Y-21143D01*
X16603Y-21143D01*
X17116Y-21143D01*
X17135Y-21139D01*
X17153Y-21132D01*
X17170Y-21121D01*
X17184Y-21107D01*
X17195Y-21091D01*
X17202Y-21073D01*
X17206Y-21053D01*
X17206Y-21034D01*
X17206Y-20607D01*
X17428Y-20385D01*
X17468Y-20386D01*
X17509Y-20379D01*
X17547Y-20364D01*
X17582Y-20342D01*
X17611Y-20314D01*
X17635Y-20280D01*
X17652Y-20243D01*
X17652Y-20240D01*
X17839Y-20427D01*
X17834Y-20452D01*
X17834Y-20493D01*
X17841Y-20534D01*
X17856Y-20572D01*
X17878Y-20606D01*
X17907Y-20636D01*
X17940Y-20659D01*
X17978Y-20676D01*
X18018Y-20684D01*
X18059Y-20685D01*
X18099Y-20678D01*
X18137Y-20663D01*
X18172Y-20641D01*
X18202Y-20613D01*
X18225Y-20580D01*
X18242Y-20542D01*
X18251Y-20502D01*
X18252Y-20455D01*
X18252Y-21387D01*
X18198Y-21387D01*
X18198Y-21419D01*
X18195Y-21415D01*
X18180Y-21406D01*
X18164Y-21399D01*
X18147Y-21396D01*
X18130Y-21395D01*
X17965Y-21395D01*
X17942Y-21418D01*
X17942Y-21579D01*
X17950Y-21579D01*
X17950Y-21638D01*
X17942Y-21638D01*
X17942Y-21800D01*
X17965Y-21822D01*
X18130Y-21823D01*
X18147Y-21822D01*
X18164Y-21819D01*
X18180Y-21812D01*
X18195Y-21802D01*
X18198Y-21799D01*
X18198Y-22003D01*
X18186Y-21995D01*
X18168Y-21987D01*
X18148Y-21984D01*
X18129Y-21983D01*
X17883Y-21983D01*
X17883Y-21800D01*
X17883Y-21638D01*
X17883Y-21579D01*
X17883Y-21418D01*
X17861Y-21395D01*
X17696Y-21395D01*
X17679Y-21396D01*
X17662Y-21399D01*
X17646Y-21406D01*
X17631Y-21415D01*
X17619Y-21428D01*
X17609Y-21442D01*
X17603Y-21458D01*
X17599Y-21475D01*
X17599Y-21557D01*
X17622Y-21579D01*
X17883Y-21579D01*
X17883Y-21638D01*
X17622Y-21638D01*
X17599Y-21661D01*
X17599Y-21743D01*
X17603Y-21760D01*
X17609Y-21776D01*
X17619Y-21790D01*
X17631Y-21802D01*
X17646Y-21812D01*
X17662Y-21819D01*
X17679Y-21822D01*
X17696Y-21823D01*
X17861Y-21822D01*
X17883Y-21800D01*
X17883Y-21983D01*
X17678Y-21983D01*
X17659Y-21987D01*
X17640Y-21995D01*
X17624Y-22006D01*
X17610Y-22020D01*
X17599Y-22036D01*
X17591Y-22054D01*
X17587Y-22073D01*
X17587Y-22093D01*
X17587Y-22344D01*
X17591Y-22363D01*
X17599Y-22381D01*
X17610Y-22398D01*
X17624Y-22412D01*
X17640Y-22423D01*
X17658Y-22430D01*
X17677Y-22434D01*
X17697Y-22435D01*
X17782Y-22435D01*
X17782Y-22630D01*
X17780Y-22631D01*
X17703Y-22681D01*
X17637Y-22746D01*
X17585Y-22822D01*
X17549Y-22907D01*
X17530Y-22997D01*
X17528Y-23089D01*
X17545Y-23180D01*
X17579Y-23266D01*
X17629Y-23343D01*
X17693Y-23410D01*
X17769Y-23462D01*
X17853Y-23499D01*
X17944Y-23519D01*
X18036Y-23521D01*
X18127Y-23505D01*
X18213Y-23471D01*
X18291Y-23422D01*
X18357Y-23358D01*
X18411Y-23283D01*
X18448Y-23199D01*
X18469Y-23109D01*
X18470Y-23003D01*
X18452Y-22913D01*
X18417Y-22828D01*
X18366Y-22751D01*
X18301Y-22685D01*
X18224Y-22634D01*
X18139Y-22598D01*
X18049Y-22579D01*
X18043Y-22579D01*
X18043Y-22434D01*
X18148Y-22434D01*
X18167Y-22431D01*
X18185Y-22423D01*
X18198Y-22414D01*
X18198Y-22431D01*
X18269Y-22431D01*
X18288Y-22434D01*
X18307Y-22435D01*
X18758Y-22434D01*
X18777Y-22431D01*
X18777Y-22431D01*
X18848Y-22431D01*
X18848Y-22364D01*
X18859Y-22361D01*
X18873Y-22357D01*
X18874Y-22357D01*
X18874Y-22356D01*
X18887Y-22349D01*
X18901Y-22343D01*
X18901Y-22342D01*
X18902Y-22342D01*
X18913Y-22332D01*
X18925Y-22323D01*
X18926Y-22322D01*
X18926Y-22322D01*
X18926Y-22322D01*
X18926Y-22322D01*
X18944Y-22304D01*
X18944Y-22450D01*
X18948Y-22469D01*
X18952Y-22479D01*
X18866Y-22496D01*
X18780Y-22531D01*
X18703Y-22581D01*
X18637Y-22646D01*
X18585Y-22722D01*
X18549Y-22807D01*
X18530Y-22897D01*
X18528Y-22989D01*
X18545Y-23080D01*
X18579Y-23166D01*
X18629Y-23243D01*
X18693Y-23310D01*
X18769Y-23362D01*
X18853Y-23399D01*
X18944Y-23419D01*
X19036Y-23421D01*
X19127Y-23405D01*
X19213Y-23371D01*
X19291Y-23322D01*
X19357Y-23258D01*
X19411Y-23183D01*
X19448Y-23099D01*
X19469Y-23009D01*
X19470Y-22903D01*
X19452Y-22813D01*
X19417Y-22728D01*
X19366Y-22651D01*
X19301Y-22585D01*
X19235Y-22541D01*
X20039Y-22541D01*
X20058Y-22537D01*
X20076Y-22529D01*
X20093Y-22518D01*
X20107Y-22504D01*
X20118Y-22488D01*
X20125Y-22470D01*
X20129Y-22451D01*
X20129Y-22431D01*
X20129Y-22037D01*
X20126Y-22018D01*
X20122Y-22009D01*
X20217Y-22009D01*
X20203Y-22042D01*
X20194Y-22082D01*
X20194Y-22123D01*
X20201Y-22164D01*
X20216Y-22202D01*
X20238Y-22236D01*
X20267Y-22266D01*
X20301Y-22289D01*
X20338Y-22306D01*
X20378Y-22314D01*
X20419Y-22315D01*
X20427Y-22314D01*
X20520Y-22408D01*
X20530Y-22415D01*
X20539Y-22423D01*
X20540Y-22424D01*
X20540Y-22424D01*
X20551Y-22430D01*
X20561Y-22435D01*
X20562Y-22436D01*
X20563Y-22436D01*
X20574Y-22439D01*
X20586Y-22443D01*
X20586Y-22443D01*
X20587Y-22443D01*
X20599Y-22445D01*
X20611Y-22446D01*
X20612Y-22446D01*
X20612Y-22446D01*
X20612Y-22446D01*
X20613Y-22446D01*
X23727Y-22446D01*
X23739Y-22445D01*
X23751Y-22444D01*
X23752Y-22444D01*
X23752Y-22444D01*
X23764Y-22440D01*
X23775Y-22437D01*
X23776Y-22436D01*
X23777Y-22436D01*
X23787Y-22430D01*
X23798Y-22425D01*
X23799Y-22425D01*
X23799Y-22424D01*
X23808Y-22417D01*
X23818Y-22409D01*
X23819Y-22408D01*
X23819Y-22408D01*
X23819Y-22408D01*
X23819Y-22408D01*
X23917Y-22310D01*
X24027Y-22310D01*
X24031Y-22313D01*
X24068Y-22329D01*
X24108Y-22338D01*
X24149Y-22339D01*
X24190Y-22332D01*
X24228Y-22317D01*
X24262Y-22295D01*
X24292Y-22267D01*
X24316Y-22233D01*
X24332Y-22196D01*
X24342Y-22156D01*
X24342Y-22109D01*
X24334Y-22069D01*
X24319Y-22031D01*
X24296Y-21997D01*
X24267Y-21968D01*
X24233Y-21945D01*
X24195Y-21929D01*
X24155Y-21921D01*
X24114Y-21920D01*
X24095Y-21924D01*
X24094Y-21919D01*
X24079Y-21881D01*
X24056Y-21847D01*
X24027Y-21818D01*
X23993Y-21795D01*
X23955Y-21779D01*
X23915Y-21771D01*
X23874Y-21770D01*
X23834Y-21778D01*
X23796Y-21793D01*
X23762Y-21816D01*
X23732Y-21845D01*
X23709Y-21878D01*
X23693Y-21916D01*
X23684Y-21956D01*
X23684Y-21997D01*
X23685Y-22003D01*
X23623Y-22065D01*
X22028Y-22065D01*
X22132Y-21961D01*
X22172Y-21954D01*
X22210Y-21939D01*
X22245Y-21917D01*
X22275Y-21889D01*
X22298Y-21855D01*
X22315Y-21818D01*
X22324Y-21778D01*
X22324Y-21769D01*
X22474Y-21619D01*
X25809Y-21619D01*
X25780Y-21631D01*
X25703Y-21681D01*
X25637Y-21746D01*
X25585Y-21822D01*
X25549Y-21907D01*
X25530Y-21997D01*
X25528Y-22089D01*
X25545Y-22180D01*
X25579Y-22266D01*
X25629Y-22343D01*
X25693Y-22410D01*
X25769Y-22462D01*
X25853Y-22499D01*
X25944Y-22519D01*
X26036Y-22521D01*
X26127Y-22505D01*
X26213Y-22471D01*
X26291Y-22422D01*
X26357Y-22358D01*
X26411Y-22283D01*
X26448Y-22199D01*
X26469Y-22109D01*
X26470Y-22003D01*
X26452Y-21913D01*
X26417Y-21828D01*
X26366Y-21751D01*
X26301Y-21685D01*
X26224Y-21634D01*
X26190Y-21619D01*
X26453Y-21619D01*
X26665Y-21619D01*
X26637Y-21646D01*
X26585Y-21722D01*
X26549Y-21807D01*
X26530Y-21897D01*
X26528Y-21989D01*
X26545Y-22080D01*
X26579Y-22166D01*
X26629Y-22243D01*
X26693Y-22310D01*
X26769Y-22362D01*
X26853Y-22399D01*
X26944Y-22419D01*
X27036Y-22421D01*
X27127Y-22405D01*
X27213Y-22371D01*
X27291Y-22322D01*
X27357Y-22258D01*
X27411Y-22183D01*
X27448Y-22099D01*
X27469Y-22009D01*
X27470Y-21903D01*
X27452Y-21813D01*
X27417Y-21728D01*
X27366Y-21651D01*
X27334Y-21619D01*
X27841Y-21619D01*
X27815Y-21628D01*
X27753Y-21660D01*
X27711Y-21719D01*
X28000Y-22008D01*
X28005Y-22002D01*
X28047Y-22044D01*
X28041Y-22050D01*
X28330Y-22338D01*
X28340Y-22331D01*
X28340Y-22450D01*
X28341Y-22464D01*
X28343Y-22479D01*
X28343Y-22480D01*
X28343Y-22480D01*
X28347Y-22495D01*
X28351Y-22509D01*
X28352Y-22509D01*
X28352Y-22510D01*
X28359Y-22523D01*
X28366Y-22536D01*
X28366Y-22537D01*
X28367Y-22538D01*
X28376Y-22549D01*
X28385Y-22561D01*
X28386Y-22562D01*
X28386Y-22562D01*
X28386Y-22562D01*
X28387Y-22562D01*
X28573Y-22749D01*
X28549Y-22807D01*
X28530Y-22897D01*
X28528Y-22989D01*
X28545Y-23080D01*
X28579Y-23166D01*
X28629Y-23243D01*
X28693Y-23310D01*
X28769Y-23362D01*
X28853Y-23399D01*
X28944Y-23419D01*
X29036Y-23421D01*
X29127Y-23405D01*
X29213Y-23371D01*
X29291Y-23322D01*
X29357Y-23258D01*
X29411Y-23183D01*
X29448Y-23099D01*
X29469Y-23009D01*
X29470Y-22903D01*
X29452Y-22813D01*
X29417Y-22728D01*
X29366Y-22651D01*
X29301Y-22585D01*
X29224Y-22534D01*
X29139Y-22498D01*
X29049Y-22479D01*
X28957Y-22479D01*
X28866Y-22496D01*
X28799Y-22523D01*
X28659Y-22383D01*
X28659Y-22274D01*
X28693Y-22310D01*
X28769Y-22362D01*
X28853Y-22399D01*
X28944Y-22419D01*
X29036Y-22421D01*
X29127Y-22405D01*
X29213Y-22371D01*
X29291Y-22322D01*
X29357Y-22258D01*
X29411Y-22183D01*
X29448Y-22099D01*
X29469Y-22009D01*
X29470Y-21903D01*
X29452Y-21813D01*
X29417Y-21728D01*
X29366Y-21651D01*
X29301Y-21585D01*
X29252Y-21552D01*
X29252Y-20651D01*
X29260Y-20651D01*
X29279Y-20647D01*
X29298Y-20639D01*
X29314Y-20628D01*
X29328Y-20614D01*
X29339Y-20598D01*
X29347Y-20580D01*
X29351Y-20561D01*
X29351Y-20541D01*
X29351Y-19990D01*
X29347Y-19971D01*
X29339Y-19953D01*
X29329Y-19936D01*
X29315Y-19922D01*
X29312Y-19920D01*
X29424Y-19920D01*
X29444Y-19917D01*
X29462Y-19909D01*
X29478Y-19898D01*
X29492Y-19884D01*
X29503Y-19868D01*
X29511Y-19850D01*
X29515Y-19830D01*
X29515Y-19811D01*
X29515Y-19800D01*
X29580Y-19736D01*
X29580Y-23384D01*
M02*
