M48
METRIC,TZ
T1C0.300
T2C1.016
T3C3.401
%
G90
G05
T1
X41.7Y-51.7
X42.11Y-50.62
X44.28Y-54.24
X44.33Y-51.25
X45.83Y-52.01
X46.3Y-53.7
X46.6Y-45.4
X46.9Y-50.1
X47.42Y-54.12
X49.225Y-46.525
X49.311Y-50.597
X50.327Y-56.083
X50.33Y-52.51
X50.809Y-54.127
X51.825Y-56.15
X53.3Y-56.1
X53.8Y-47.5
X54.315Y-54.127
X54.619Y-48.514
X54.81Y-45.537
X55.Y-52.375
X55.875Y-49.55
X56.01Y-54.18
X56.175Y-55.25
X56.885Y-45.977
X57.845Y-53.035
X58.09Y-55.84
X59.826Y-53.061
X60.69Y-55.829
X61.3Y-56.21
X69.7Y-52.4
X72.9Y-51.5
T2
X40.63Y-45.7
X40.64Y-43.307
X40.64Y-58.547
X43.17Y-45.7
X43.18Y-43.053
X43.18Y-58.293
X45.72Y-43.307
X45.72Y-58.547
X48.26Y-43.053
X48.26Y-58.293
X50.8Y-43.307
X50.8Y-58.547
X53.34Y-43.053
X53.34Y-58.293
X55.88Y-43.307
X55.88Y-58.547
X58.42Y-43.053
X58.42Y-58.293
X60.96Y-43.307
X60.96Y-45.847
X60.96Y-58.547
X63.5Y-43.053
X63.5Y-45.593
X63.5Y-58.293
X66.04Y-43.307
X66.04Y-45.847
X66.04Y-56.007
X66.04Y-58.547
X68.58Y-43.053
X68.58Y-45.593
X68.58Y-55.753
X68.58Y-58.293
X71.12Y-43.307
X71.12Y-45.847
X71.12Y-56.007
X71.12Y-58.547
X73.66Y-43.053
X73.66Y-45.593
X73.66Y-55.753
X73.66Y-58.293
T3
X64.5Y-51.7
T0
M30
