G04 #@! TF.FileFunction,Soldermask,Top*
%FSLAX46Y46*%
G04 Gerber Fmt 4.6, Leading zero omitted, Abs format (unit mm)*
G04 Created by KiCad (PCBNEW 4.0.3+e1-6302~38~ubuntu14.04.1-stable) date Sat Aug 27 00:04:27 2016*
%MOMM*%
%LPD*%
G01*
G04 APERTURE LIST*
%ADD10C,0.100000*%
%ADD11C,0.009978*%
G04 APERTURE END LIST*
D10*
D11*
G36*
X146434042Y-121584283D02*
X149122198Y-120858473D01*
X149826814Y-119693759D01*
X148481334Y-118346876D01*
X147307510Y-119045187D01*
X147532329Y-120656428D01*
X149122198Y-120858473D01*
X146434042Y-121584283D01*
X152614520Y-120459349D01*
X153319136Y-119294637D01*
X151995396Y-117947599D01*
X150625432Y-119274647D01*
X151268128Y-120453017D01*
X152614520Y-120459349D01*
X146434042Y-121584283D01*
X145188035Y-120298448D01*
X145934997Y-119018774D01*
X145593805Y-118170639D01*
X144647808Y-117797928D01*
X143732193Y-118109112D01*
X143325977Y-119321653D01*
X144089429Y-120302171D01*
X145188035Y-120298445D01*
X145188035Y-120298448D01*
X146434042Y-121584283D01*
X156574132Y-120175543D01*
X157110800Y-118988511D01*
X156723416Y-118135421D01*
X155850336Y-117748410D01*
X154570013Y-118572814D01*
X154969839Y-120121777D01*
X156574132Y-120175543D01*
X146434042Y-121584283D01*
X141439090Y-119860665D01*
X142123177Y-118632650D01*
X141366214Y-117479982D01*
X139986288Y-117597141D01*
X139449630Y-118719251D01*
X140796668Y-120042992D01*
X141439090Y-119860665D01*
X146434042Y-121584283D01*
X160273416Y-119748047D01*
X160972911Y-118562158D01*
X160297631Y-117431466D01*
X158955132Y-117436510D01*
X158308915Y-118596180D01*
X158967968Y-119755749D01*
X160273416Y-119748047D01*
X146434042Y-121584283D01*
X166425979Y-119612741D01*
X167272205Y-119943218D01*
X168096861Y-119715064D01*
X168324868Y-117752866D01*
X167124496Y-117307415D01*
X166179638Y-117915835D01*
X166016243Y-118770988D01*
X166425979Y-119612741D01*
X146434042Y-121584283D01*
X137623213Y-119648259D01*
X138268893Y-118496392D01*
X137374242Y-117222964D01*
X135866338Y-117709610D01*
X135819283Y-119231095D01*
X137623213Y-119648259D01*
X146434042Y-121584283D01*
X163533447Y-119743277D01*
X164406526Y-119356266D01*
X164793910Y-118498582D01*
X163437522Y-117132723D01*
X162135385Y-118266078D01*
X163533447Y-119743277D01*
X146434042Y-121584283D01*
X146017935Y-112271778D01*
X149185583Y-111719437D01*
X152290715Y-111145698D01*
X155246863Y-110566538D01*
X157967555Y-109997934D01*
X160366324Y-109455864D01*
X162356699Y-108956304D01*
X163852211Y-108515232D01*
X166115650Y-107181321D01*
X167091620Y-105160257D01*
X166946069Y-103463986D01*
X166119960Y-101544414D01*
X164788460Y-99688707D01*
X163010414Y-97946427D01*
X160844668Y-96367135D01*
X158350070Y-95000394D01*
X155585465Y-93895764D01*
X153833306Y-93374786D01*
X152209140Y-93125545D01*
X149818618Y-93010797D01*
X147444643Y-92978457D01*
X144929433Y-93005096D01*
X142739389Y-93080590D01*
X141340914Y-93194815D01*
X139020873Y-93697905D01*
X136548812Y-94491159D01*
X134108025Y-95507078D01*
X131881804Y-96678165D01*
X129516621Y-98317728D01*
X127423406Y-100220199D01*
X125722478Y-102260541D01*
X124534161Y-104313718D01*
X123930129Y-106077027D01*
X123752452Y-107869756D01*
X123900412Y-109527697D01*
X124507387Y-110962956D01*
X125695383Y-112379132D01*
X127126723Y-113520507D01*
X129521458Y-114194395D01*
X131546558Y-114176242D01*
X134451581Y-113947621D01*
X137004594Y-113640643D01*
X139840971Y-113248358D01*
X142874241Y-112786744D01*
X146017935Y-112271778D01*
X146434042Y-121584283D01*
X144415069Y-121227790D01*
X141950234Y-120867461D01*
X133900343Y-119734839D01*
X134432710Y-118467721D01*
X133518473Y-117383769D01*
X132142794Y-117741972D01*
X132213427Y-119611827D01*
X133090126Y-119943212D01*
X133900343Y-119734839D01*
X141950234Y-120867461D01*
X139367388Y-120544313D01*
X136994381Y-120299365D01*
X135159063Y-120173635D01*
X130021789Y-120241671D01*
X130604526Y-119022330D01*
X129285181Y-117809666D01*
X127974859Y-119201639D01*
X128362242Y-120054732D01*
X129223545Y-120442113D01*
X130021789Y-120241671D01*
X135159063Y-120173635D01*
X132981791Y-120248116D01*
X125785357Y-120641752D01*
X126433931Y-120236633D01*
X126727601Y-119330307D01*
X126354889Y-118388944D01*
X125496564Y-118047379D01*
X124288061Y-118677216D01*
X124235066Y-119903613D01*
X125380562Y-120731899D01*
X125785357Y-120641752D01*
X132981791Y-120248116D01*
X129875545Y-120953424D01*
X127279759Y-121484285D01*
X125233784Y-121512980D01*
X123177292Y-120667101D01*
X122593623Y-119290139D01*
X123276509Y-117850283D01*
X123632672Y-116435799D01*
X121776921Y-115054936D01*
X120817589Y-114704595D01*
X118912788Y-112780766D01*
X118652341Y-110863175D01*
X118790995Y-108894099D01*
X119209334Y-106940424D01*
X119942460Y-104838220D01*
X120902448Y-102849727D01*
X122144836Y-100913283D01*
X123646920Y-99054214D01*
X125385993Y-97297849D01*
X127339349Y-95669515D01*
X129484284Y-94194540D01*
X131672334Y-92960622D01*
X133992909Y-91893938D01*
X136427335Y-90997095D01*
X138956939Y-90272698D01*
X141563050Y-89723351D01*
X144226995Y-89351662D01*
X146930099Y-89160233D01*
X149653692Y-89151672D01*
X152379100Y-89328583D01*
X155087650Y-89693572D01*
X157760670Y-90249244D01*
X160555420Y-91058043D01*
X163209600Y-92068767D01*
X172477018Y-119025476D01*
X171847713Y-117870820D01*
X170627805Y-117794755D01*
X169819306Y-118859758D01*
X170423529Y-120154179D01*
X171775557Y-120214684D01*
X172477018Y-119025476D01*
X163209600Y-92068767D01*
X165705637Y-93268692D01*
X168025957Y-94645092D01*
X170152988Y-96185242D01*
X172069156Y-97876419D01*
X173756887Y-99705898D01*
X175198607Y-101660953D01*
X176376744Y-103728861D01*
X177348840Y-106112422D01*
X177964526Y-108541845D01*
X178197428Y-110913065D01*
X177941602Y-112692741D01*
X177347157Y-113681163D01*
X175478095Y-114949464D01*
X174640485Y-115162712D01*
X173707981Y-115692450D01*
X173203531Y-116569677D01*
X173663375Y-117996418D01*
X174226148Y-119249409D01*
X173791710Y-120501572D01*
X172443360Y-121370929D01*
X170230913Y-121553366D01*
X167272880Y-121039112D01*
X164233531Y-120300876D01*
X162149725Y-120199456D01*
X160409378Y-120248964D01*
X158757180Y-120376940D01*
X156684285Y-120633679D01*
X154236325Y-120972870D01*
X151940974Y-121318345D01*
X150325904Y-121593938D01*
X148376322Y-121815695D01*
X146434042Y-121584286D01*
X146434042Y-121584289D01*
X146434042Y-121584283D01*
X146434042Y-121584283D01*
G37*
X146434042Y-121584283D02*
X149122198Y-120858473D01*
X149826814Y-119693759D01*
X148481334Y-118346876D01*
X147307510Y-119045187D01*
X147532329Y-120656428D01*
X149122198Y-120858473D01*
X146434042Y-121584283D01*
X152614520Y-120459349D01*
X153319136Y-119294637D01*
X151995396Y-117947599D01*
X150625432Y-119274647D01*
X151268128Y-120453017D01*
X152614520Y-120459349D01*
X146434042Y-121584283D01*
X145188035Y-120298448D01*
X145934997Y-119018774D01*
X145593805Y-118170639D01*
X144647808Y-117797928D01*
X143732193Y-118109112D01*
X143325977Y-119321653D01*
X144089429Y-120302171D01*
X145188035Y-120298445D01*
X145188035Y-120298448D01*
X146434042Y-121584283D01*
X156574132Y-120175543D01*
X157110800Y-118988511D01*
X156723416Y-118135421D01*
X155850336Y-117748410D01*
X154570013Y-118572814D01*
X154969839Y-120121777D01*
X156574132Y-120175543D01*
X146434042Y-121584283D01*
X141439090Y-119860665D01*
X142123177Y-118632650D01*
X141366214Y-117479982D01*
X139986288Y-117597141D01*
X139449630Y-118719251D01*
X140796668Y-120042992D01*
X141439090Y-119860665D01*
X146434042Y-121584283D01*
X160273416Y-119748047D01*
X160972911Y-118562158D01*
X160297631Y-117431466D01*
X158955132Y-117436510D01*
X158308915Y-118596180D01*
X158967968Y-119755749D01*
X160273416Y-119748047D01*
X146434042Y-121584283D01*
X166425979Y-119612741D01*
X167272205Y-119943218D01*
X168096861Y-119715064D01*
X168324868Y-117752866D01*
X167124496Y-117307415D01*
X166179638Y-117915835D01*
X166016243Y-118770988D01*
X166425979Y-119612741D01*
X146434042Y-121584283D01*
X137623213Y-119648259D01*
X138268893Y-118496392D01*
X137374242Y-117222964D01*
X135866338Y-117709610D01*
X135819283Y-119231095D01*
X137623213Y-119648259D01*
X146434042Y-121584283D01*
X163533447Y-119743277D01*
X164406526Y-119356266D01*
X164793910Y-118498582D01*
X163437522Y-117132723D01*
X162135385Y-118266078D01*
X163533447Y-119743277D01*
X146434042Y-121584283D01*
X146017935Y-112271778D01*
X149185583Y-111719437D01*
X152290715Y-111145698D01*
X155246863Y-110566538D01*
X157967555Y-109997934D01*
X160366324Y-109455864D01*
X162356699Y-108956304D01*
X163852211Y-108515232D01*
X166115650Y-107181321D01*
X167091620Y-105160257D01*
X166946069Y-103463986D01*
X166119960Y-101544414D01*
X164788460Y-99688707D01*
X163010414Y-97946427D01*
X160844668Y-96367135D01*
X158350070Y-95000394D01*
X155585465Y-93895764D01*
X153833306Y-93374786D01*
X152209140Y-93125545D01*
X149818618Y-93010797D01*
X147444643Y-92978457D01*
X144929433Y-93005096D01*
X142739389Y-93080590D01*
X141340914Y-93194815D01*
X139020873Y-93697905D01*
X136548812Y-94491159D01*
X134108025Y-95507078D01*
X131881804Y-96678165D01*
X129516621Y-98317728D01*
X127423406Y-100220199D01*
X125722478Y-102260541D01*
X124534161Y-104313718D01*
X123930129Y-106077027D01*
X123752452Y-107869756D01*
X123900412Y-109527697D01*
X124507387Y-110962956D01*
X125695383Y-112379132D01*
X127126723Y-113520507D01*
X129521458Y-114194395D01*
X131546558Y-114176242D01*
X134451581Y-113947621D01*
X137004594Y-113640643D01*
X139840971Y-113248358D01*
X142874241Y-112786744D01*
X146017935Y-112271778D01*
X146434042Y-121584283D01*
X144415069Y-121227790D01*
X141950234Y-120867461D01*
X133900343Y-119734839D01*
X134432710Y-118467721D01*
X133518473Y-117383769D01*
X132142794Y-117741972D01*
X132213427Y-119611827D01*
X133090126Y-119943212D01*
X133900343Y-119734839D01*
X141950234Y-120867461D01*
X139367388Y-120544313D01*
X136994381Y-120299365D01*
X135159063Y-120173635D01*
X130021789Y-120241671D01*
X130604526Y-119022330D01*
X129285181Y-117809666D01*
X127974859Y-119201639D01*
X128362242Y-120054732D01*
X129223545Y-120442113D01*
X130021789Y-120241671D01*
X135159063Y-120173635D01*
X132981791Y-120248116D01*
X125785357Y-120641752D01*
X126433931Y-120236633D01*
X126727601Y-119330307D01*
X126354889Y-118388944D01*
X125496564Y-118047379D01*
X124288061Y-118677216D01*
X124235066Y-119903613D01*
X125380562Y-120731899D01*
X125785357Y-120641752D01*
X132981791Y-120248116D01*
X129875545Y-120953424D01*
X127279759Y-121484285D01*
X125233784Y-121512980D01*
X123177292Y-120667101D01*
X122593623Y-119290139D01*
X123276509Y-117850283D01*
X123632672Y-116435799D01*
X121776921Y-115054936D01*
X120817589Y-114704595D01*
X118912788Y-112780766D01*
X118652341Y-110863175D01*
X118790995Y-108894099D01*
X119209334Y-106940424D01*
X119942460Y-104838220D01*
X120902448Y-102849727D01*
X122144836Y-100913283D01*
X123646920Y-99054214D01*
X125385993Y-97297849D01*
X127339349Y-95669515D01*
X129484284Y-94194540D01*
X131672334Y-92960622D01*
X133992909Y-91893938D01*
X136427335Y-90997095D01*
X138956939Y-90272698D01*
X141563050Y-89723351D01*
X144226995Y-89351662D01*
X146930099Y-89160233D01*
X149653692Y-89151672D01*
X152379100Y-89328583D01*
X155087650Y-89693572D01*
X157760670Y-90249244D01*
X160555420Y-91058043D01*
X163209600Y-92068767D01*
X172477018Y-119025476D01*
X171847713Y-117870820D01*
X170627805Y-117794755D01*
X169819306Y-118859758D01*
X170423529Y-120154179D01*
X171775557Y-120214684D01*
X172477018Y-119025476D01*
X163209600Y-92068767D01*
X165705637Y-93268692D01*
X168025957Y-94645092D01*
X170152988Y-96185242D01*
X172069156Y-97876419D01*
X173756887Y-99705898D01*
X175198607Y-101660953D01*
X176376744Y-103728861D01*
X177348840Y-106112422D01*
X177964526Y-108541845D01*
X178197428Y-110913065D01*
X177941602Y-112692741D01*
X177347157Y-113681163D01*
X175478095Y-114949464D01*
X174640485Y-115162712D01*
X173707981Y-115692450D01*
X173203531Y-116569677D01*
X173663375Y-117996418D01*
X174226148Y-119249409D01*
X173791710Y-120501572D01*
X172443360Y-121370929D01*
X170230913Y-121553366D01*
X167272880Y-121039112D01*
X164233531Y-120300876D01*
X162149725Y-120199456D01*
X160409378Y-120248964D01*
X158757180Y-120376940D01*
X156684285Y-120633679D01*
X154236325Y-120972870D01*
X151940974Y-121318345D01*
X150325904Y-121593938D01*
X148376322Y-121815695D01*
X146434042Y-121584286D01*
X146434042Y-121584289D01*
X146434042Y-121584283D01*
M02*
