G04 (created by PCBNEW (2013-may-18)-stable) date Wed 19 Mar 2014 03:01:16 PM CET*
%MOIN*%
G04 Gerber Fmt 3.4, Leading zero omitted, Abs format*
%FSLAX34Y34*%
G01*
G70*
G90*
G04 APERTURE LIST*
%ADD10C,0.00590551*%
%ADD11C,0.00393701*%
%ADD12C,0.0039*%
%ADD13C,0.00392126*%
%ADD14C,0.0059*%
%ADD15C,0.0118*%
%ADD16C,0.0001*%
%ADD17C,0.00472441*%
%ADD18C,0.006*%
G04 APERTURE END LIST*
G54D10*
G54D11*
X15300Y-16500D02*
X15300Y-23500D01*
G54D12*
X29500Y-23700D02*
X15500Y-23700D01*
X29700Y-16500D02*
X29700Y-23500D01*
X15500Y-16300D02*
X29500Y-16300D01*
G54D13*
X15500Y-23700D02*
X15300Y-23500D01*
X29700Y-23500D02*
X29500Y-23700D01*
X29500Y-16300D02*
X29700Y-16500D01*
X15300Y-16500D02*
X15500Y-16300D01*
G54D14*
X15891Y-22075D02*
X15722Y-21957D01*
X15891Y-21873D02*
X15537Y-21873D01*
X15537Y-22008D01*
X15554Y-22042D01*
X15571Y-22058D01*
X15604Y-22075D01*
X15655Y-22075D01*
X15689Y-22058D01*
X15705Y-22042D01*
X15722Y-22008D01*
X15722Y-21873D01*
X15537Y-22396D02*
X15537Y-22227D01*
X15705Y-22210D01*
X15689Y-22227D01*
X15672Y-22261D01*
X15672Y-22345D01*
X15689Y-22379D01*
X15705Y-22396D01*
X15739Y-22412D01*
X15823Y-22412D01*
X15857Y-22396D01*
X15874Y-22379D01*
X15891Y-22345D01*
X15891Y-22261D01*
X15874Y-22227D01*
X15857Y-22210D01*
X16445Y-21704D02*
X16209Y-21704D01*
X16277Y-21704D02*
X16243Y-21721D01*
X16226Y-21738D01*
X16209Y-21772D01*
X16209Y-21806D01*
X16429Y-22075D02*
X16445Y-22042D01*
X16445Y-21974D01*
X16429Y-21940D01*
X16412Y-21924D01*
X16378Y-21907D01*
X16277Y-21907D01*
X16243Y-21924D01*
X16226Y-21940D01*
X16209Y-21974D01*
X16209Y-22042D01*
X16226Y-22075D01*
X16091Y-22193D02*
X16091Y-22412D01*
X16226Y-22294D01*
X16226Y-22345D01*
X16243Y-22379D01*
X16260Y-22396D01*
X16294Y-22412D01*
X16378Y-22412D01*
X16412Y-22396D01*
X16429Y-22379D01*
X16445Y-22345D01*
X16445Y-22244D01*
X16429Y-22210D01*
X16412Y-22193D01*
X24434Y-19851D02*
X24198Y-19880D01*
X24232Y-19876D02*
X24215Y-19895D01*
X24198Y-19931D01*
X24198Y-19981D01*
X24215Y-20013D01*
X24249Y-20026D01*
X24434Y-20002D01*
X24249Y-20026D02*
X24215Y-20047D01*
X24198Y-20082D01*
X24198Y-20133D01*
X24215Y-20165D01*
X24249Y-20177D01*
X24434Y-20154D01*
X24417Y-20476D02*
X24434Y-20441D01*
X24434Y-20373D01*
X24417Y-20342D01*
X24400Y-20327D01*
X24367Y-20314D01*
X24266Y-20327D01*
X24232Y-20348D01*
X24215Y-20367D01*
X24198Y-20403D01*
X24198Y-20470D01*
X24215Y-20502D01*
X24434Y-20626D02*
X24080Y-20670D01*
X24434Y-20778D02*
X24249Y-20801D01*
X24215Y-20788D01*
X24198Y-20757D01*
X24198Y-20706D01*
X24215Y-20670D01*
X24232Y-20651D01*
X24417Y-21100D02*
X24434Y-21064D01*
X24434Y-20997D01*
X24417Y-20965D01*
X24400Y-20951D01*
X24367Y-20938D01*
X24266Y-20951D01*
X24232Y-20972D01*
X24215Y-20991D01*
X24198Y-21026D01*
X24198Y-21094D01*
X24215Y-21125D01*
X24434Y-21250D02*
X24080Y-21294D01*
X24299Y-21300D02*
X24434Y-21385D01*
X24198Y-21414D02*
X24333Y-21262D01*
X24400Y-21541D02*
X24417Y-21555D01*
X24434Y-21536D01*
X24417Y-21522D01*
X24400Y-21541D01*
X24434Y-21536D01*
X24434Y-21755D02*
X24417Y-21724D01*
X24400Y-21709D01*
X24367Y-21696D01*
X24266Y-21709D01*
X24232Y-21730D01*
X24215Y-21749D01*
X24198Y-21785D01*
X24198Y-21836D01*
X24215Y-21867D01*
X24232Y-21882D01*
X24266Y-21895D01*
X24367Y-21882D01*
X24400Y-21861D01*
X24417Y-21842D01*
X24434Y-21806D01*
X24434Y-21755D01*
X24434Y-22025D02*
X24198Y-22055D01*
X24266Y-22046D02*
X24232Y-22067D01*
X24215Y-22086D01*
X24198Y-22122D01*
X24198Y-22156D01*
X24198Y-22426D02*
X24485Y-22390D01*
X24518Y-22369D01*
X24535Y-22350D01*
X24552Y-22314D01*
X24552Y-22263D01*
X24535Y-22232D01*
X24417Y-22398D02*
X24434Y-22362D01*
X24434Y-22295D01*
X24417Y-22263D01*
X24400Y-22249D01*
X24367Y-22236D01*
X24266Y-22249D01*
X24232Y-22270D01*
X24215Y-22289D01*
X24198Y-22324D01*
X24198Y-22392D01*
X24215Y-22423D01*
X16597Y-19591D02*
X16597Y-18991D01*
X16697Y-19591D02*
X17947Y-19591D01*
X17947Y-19591D02*
X17947Y-18991D01*
X17947Y-18991D02*
X16697Y-18991D01*
X16697Y-18991D02*
X16697Y-19591D01*
X27918Y-18723D02*
X25918Y-18723D01*
X25918Y-18723D02*
X25918Y-19511D01*
X25918Y-19511D02*
X27918Y-19511D01*
X27918Y-19511D02*
X27918Y-18723D01*
X19418Y-17596D02*
X19418Y-19174D01*
X19418Y-17595D02*
X18218Y-17595D01*
X18218Y-17596D02*
X18218Y-19174D01*
X18218Y-19174D02*
X19418Y-19174D01*
X20108Y-22520D02*
X20108Y-21102D01*
X20108Y-21102D02*
X18966Y-21102D01*
X18966Y-21102D02*
X18966Y-22520D01*
X18966Y-22520D02*
X20108Y-22520D01*
X20275Y-19587D02*
X19488Y-19587D01*
X19488Y-19587D02*
X19488Y-17657D01*
X19488Y-17657D02*
X20275Y-17657D01*
X23189Y-19587D02*
X23189Y-17657D01*
X23189Y-17657D02*
X20275Y-17657D01*
X20275Y-17657D02*
X20275Y-19587D01*
X20275Y-19587D02*
X23189Y-19587D01*
G54D15*
X21213Y-19381D02*
G75*
G03X21213Y-19381I-39J0D01*
G74*
G01*
G54D14*
X18400Y-19854D02*
X18400Y-20854D01*
X18400Y-20854D02*
X19000Y-20854D01*
X19000Y-20854D02*
X19000Y-19854D01*
X19000Y-19854D02*
X18400Y-19854D01*
X17445Y-17524D02*
X17445Y-18774D01*
X17445Y-18774D02*
X18145Y-18774D01*
X18145Y-18774D02*
X18145Y-17524D01*
X18145Y-17524D02*
X17445Y-17524D01*
X23882Y-19594D02*
X23882Y-18594D01*
X23882Y-18594D02*
X23282Y-18594D01*
X23282Y-18594D02*
X23282Y-19594D01*
X23282Y-19594D02*
X23882Y-19594D01*
X20843Y-19660D02*
X20843Y-20260D01*
X20743Y-19660D02*
X19493Y-19660D01*
X19493Y-19660D02*
X19493Y-20260D01*
X19493Y-20260D02*
X20743Y-20260D01*
X20743Y-20260D02*
X20743Y-19660D01*
X29325Y-19925D02*
X28075Y-19925D01*
X28075Y-19925D02*
X28075Y-20625D01*
X28075Y-20625D02*
X29325Y-20625D01*
X29325Y-20625D02*
X29325Y-19925D01*
X26815Y-21019D02*
X28065Y-21019D01*
X28065Y-21019D02*
X28065Y-20319D01*
X28065Y-20319D02*
X26815Y-20319D01*
X26815Y-20319D02*
X26815Y-21019D01*
G54D16*
G36*
X24015Y-21859D02*
X24007Y-21845D01*
X23988Y-21814D01*
X23959Y-21770D01*
X23925Y-21718D01*
X23889Y-21666D01*
X23861Y-21623D01*
X23841Y-21593D01*
X23834Y-21581D01*
X23837Y-21574D01*
X23849Y-21549D01*
X23867Y-21514D01*
X23878Y-21493D01*
X23892Y-21460D01*
X23895Y-21443D01*
X23891Y-21441D01*
X23866Y-21429D01*
X23823Y-21410D01*
X23766Y-21385D01*
X23699Y-21356D01*
X23627Y-21326D01*
X23554Y-21295D01*
X23484Y-21266D01*
X23421Y-21241D01*
X23369Y-21220D01*
X23334Y-21206D01*
X23319Y-21201D01*
X23315Y-21203D01*
X23299Y-21219D01*
X23278Y-21248D01*
X23227Y-21310D01*
X23151Y-21372D01*
X23064Y-21409D01*
X22967Y-21422D01*
X22877Y-21411D01*
X22791Y-21376D01*
X22714Y-21316D01*
X22656Y-21243D01*
X22620Y-21158D01*
X22608Y-21062D01*
X22618Y-20971D01*
X22653Y-20883D01*
X22712Y-20805D01*
X22750Y-20772D01*
X22828Y-20727D01*
X22912Y-20702D01*
X22934Y-20699D01*
X23026Y-20703D01*
X23114Y-20730D01*
X23193Y-20779D01*
X23258Y-20846D01*
X23264Y-20855D01*
X23288Y-20886D01*
X23304Y-20907D01*
X23317Y-20924D01*
X23600Y-20806D01*
X23645Y-20787D01*
X23723Y-20755D01*
X23789Y-20727D01*
X23842Y-20704D01*
X23878Y-20688D01*
X23892Y-20681D01*
X23893Y-20681D01*
X23895Y-20670D01*
X23887Y-20649D01*
X23868Y-20609D01*
X23854Y-20583D01*
X23840Y-20553D01*
X23834Y-20539D01*
X23841Y-20528D01*
X23859Y-20499D01*
X23887Y-20457D01*
X23922Y-20406D01*
X23955Y-20358D01*
X23984Y-20314D01*
X24005Y-20282D01*
X24013Y-20266D01*
X24013Y-20264D01*
X24005Y-20250D01*
X23984Y-20224D01*
X23948Y-20186D01*
X23894Y-20131D01*
X23885Y-20123D01*
X23840Y-20078D01*
X23802Y-20042D01*
X23774Y-20017D01*
X23762Y-20008D01*
X23762Y-20008D01*
X23747Y-20016D01*
X23714Y-20037D01*
X23669Y-20066D01*
X23617Y-20102D01*
X23481Y-20196D01*
X23352Y-20144D01*
X23313Y-20128D01*
X23265Y-20108D01*
X23231Y-20093D01*
X23216Y-20086D01*
X23211Y-20072D01*
X23203Y-20037D01*
X23192Y-19986D01*
X23181Y-19925D01*
X23170Y-19867D01*
X23160Y-19815D01*
X23153Y-19777D01*
X23150Y-19760D01*
X23147Y-19756D01*
X23139Y-19752D01*
X23121Y-19750D01*
X23089Y-19749D01*
X23039Y-19748D01*
X22967Y-19748D01*
X22959Y-19748D01*
X22890Y-19749D01*
X22835Y-19750D01*
X22799Y-19752D01*
X22785Y-19754D01*
X22785Y-19754D01*
X22781Y-19771D01*
X22773Y-19808D01*
X22763Y-19860D01*
X22751Y-19922D01*
X22750Y-19926D01*
X22738Y-19988D01*
X22727Y-20041D01*
X22719Y-20077D01*
X22714Y-20092D01*
X22710Y-20096D01*
X22685Y-20108D01*
X22647Y-20126D01*
X22600Y-20147D01*
X22551Y-20167D01*
X22507Y-20184D01*
X22474Y-20196D01*
X22459Y-20200D01*
X22459Y-20200D01*
X22444Y-20190D01*
X22412Y-20169D01*
X22367Y-20139D01*
X22314Y-20102D01*
X22310Y-20100D01*
X22258Y-20064D01*
X22213Y-20035D01*
X22181Y-20016D01*
X22167Y-20008D01*
X22166Y-20009D01*
X22151Y-20020D01*
X22121Y-20047D01*
X22081Y-20085D01*
X22034Y-20131D01*
X22020Y-20146D01*
X21970Y-20197D01*
X21937Y-20233D01*
X21920Y-20255D01*
X21916Y-20265D01*
X21916Y-20266D01*
X21926Y-20282D01*
X21948Y-20315D01*
X21978Y-20360D01*
X22014Y-20413D01*
X22017Y-20417D01*
X22053Y-20469D01*
X22082Y-20513D01*
X22103Y-20544D01*
X22111Y-20558D01*
X22111Y-20560D01*
X22105Y-20582D01*
X22092Y-20619D01*
X22074Y-20665D01*
X22054Y-20714D01*
X22036Y-20758D01*
X22021Y-20791D01*
X22012Y-20806D01*
X22011Y-20807D01*
X21992Y-20812D01*
X21953Y-20821D01*
X21899Y-20833D01*
X21834Y-20845D01*
X21824Y-20847D01*
X21761Y-20859D01*
X21710Y-20869D01*
X21674Y-20876D01*
X21659Y-20880D01*
X21657Y-20889D01*
X21655Y-20919D01*
X21654Y-20966D01*
X21653Y-21022D01*
X21653Y-21082D01*
X21655Y-21140D01*
X21656Y-21189D01*
X21659Y-21225D01*
X21662Y-21240D01*
X21663Y-21240D01*
X21682Y-21246D01*
X21721Y-21254D01*
X21776Y-21265D01*
X21840Y-21278D01*
X21852Y-21280D01*
X21914Y-21292D01*
X21965Y-21302D01*
X22001Y-21310D01*
X22015Y-21314D01*
X22018Y-21319D01*
X22029Y-21345D01*
X22046Y-21387D01*
X22067Y-21439D01*
X22116Y-21559D01*
X22015Y-21707D01*
X22006Y-21720D01*
X21969Y-21773D01*
X21940Y-21817D01*
X21921Y-21847D01*
X21914Y-21860D01*
X21914Y-21861D01*
X21927Y-21876D01*
X21954Y-21905D01*
X21993Y-21945D01*
X22040Y-21991D01*
X22074Y-22026D01*
X22115Y-22066D01*
X22143Y-22092D01*
X22161Y-22106D01*
X22172Y-22111D01*
X22179Y-22110D01*
X22194Y-22100D01*
X22227Y-22079D01*
X22271Y-22048D01*
X22324Y-22012D01*
X22367Y-21983D01*
X22417Y-21951D01*
X22452Y-21930D01*
X22469Y-21923D01*
X22477Y-21925D01*
X22505Y-21935D01*
X22549Y-21952D01*
X22601Y-21975D01*
X22718Y-22026D01*
X22733Y-22102D01*
X22741Y-22149D01*
X22754Y-22214D01*
X22766Y-22276D01*
X22785Y-22373D01*
X23141Y-22376D01*
X23147Y-22361D01*
X23151Y-22347D01*
X23159Y-22311D01*
X23169Y-22260D01*
X23180Y-22199D01*
X23190Y-22148D01*
X23200Y-22096D01*
X23207Y-22058D01*
X23211Y-22042D01*
X23216Y-22038D01*
X23241Y-22025D01*
X23281Y-22006D01*
X23329Y-21986D01*
X23379Y-21965D01*
X23425Y-21947D01*
X23460Y-21934D01*
X23479Y-21929D01*
X23492Y-21936D01*
X23523Y-21956D01*
X23566Y-21984D01*
X23618Y-22020D01*
X23669Y-22055D01*
X23714Y-22085D01*
X23745Y-22105D01*
X23760Y-22114D01*
X23770Y-22110D01*
X23795Y-22089D01*
X23835Y-22050D01*
X23892Y-21992D01*
X23901Y-21983D01*
X23946Y-21937D01*
X23982Y-21898D01*
X24006Y-21871D01*
X24015Y-21859D01*
X24015Y-21859D01*
G37*
G54D14*
X18823Y-22409D02*
X18823Y-21409D01*
X18823Y-21409D02*
X18223Y-21409D01*
X18223Y-21409D02*
X18223Y-22409D01*
X18223Y-22409D02*
X18823Y-22409D01*
X29507Y-19917D02*
X27929Y-19917D01*
X29508Y-19917D02*
X29508Y-18717D01*
X29507Y-18717D02*
X27929Y-18717D01*
X27929Y-18717D02*
X27929Y-19917D01*
X18213Y-22409D02*
X18213Y-21409D01*
X18213Y-21409D02*
X17613Y-21409D01*
X17613Y-21409D02*
X17613Y-22409D01*
X17613Y-22409D02*
X18213Y-22409D01*
X18240Y-19788D02*
X19240Y-19788D01*
X19240Y-19788D02*
X19240Y-19188D01*
X19240Y-19188D02*
X18240Y-19188D01*
X18240Y-19188D02*
X18240Y-19788D01*
G54D17*
X27086Y-20314D02*
X27874Y-20314D01*
X27874Y-20314D02*
X27874Y-19527D01*
X27874Y-19527D02*
X27086Y-19527D01*
X27086Y-19527D02*
X27086Y-20314D01*
X16496Y-20314D02*
X17204Y-20314D01*
X17204Y-20314D02*
X17204Y-19606D01*
X17204Y-19606D02*
X16496Y-19606D01*
X16496Y-19606D02*
X16496Y-20314D01*
X15669Y-20314D02*
X16377Y-20314D01*
X16377Y-20314D02*
X16377Y-19606D01*
X16377Y-19606D02*
X15669Y-19606D01*
X15669Y-19606D02*
X15669Y-20314D01*
X16496Y-21141D02*
X17204Y-21141D01*
X17204Y-21141D02*
X17204Y-20433D01*
X17204Y-20433D02*
X16496Y-20433D01*
X16496Y-20433D02*
X16496Y-21141D01*
X15669Y-21141D02*
X16377Y-21141D01*
X16377Y-21141D02*
X16377Y-20433D01*
X16377Y-20433D02*
X15669Y-20433D01*
X15669Y-20433D02*
X15669Y-21141D01*
G54D14*
X16560Y-19473D02*
X16560Y-19119D01*
X16476Y-19119D01*
X16425Y-19136D01*
X16391Y-19170D01*
X16375Y-19204D01*
X16358Y-19271D01*
X16358Y-19322D01*
X16375Y-19389D01*
X16391Y-19423D01*
X16425Y-19457D01*
X16476Y-19473D01*
X16560Y-19473D01*
X16223Y-19153D02*
X16206Y-19136D01*
X16172Y-19119D01*
X16088Y-19119D01*
X16054Y-19136D01*
X16037Y-19153D01*
X16021Y-19187D01*
X16021Y-19221D01*
X16037Y-19271D01*
X16240Y-19473D01*
X16021Y-19473D01*
X25609Y-19243D02*
X25777Y-19243D01*
X25777Y-18889D01*
X25305Y-19243D02*
X25507Y-19243D01*
X25406Y-19243D02*
X25406Y-18889D01*
X25440Y-18939D01*
X25474Y-18973D01*
X25507Y-18990D01*
X19104Y-18229D02*
X19104Y-18515D01*
X19087Y-18549D01*
X19070Y-18566D01*
X19036Y-18583D01*
X18969Y-18583D01*
X18935Y-18566D01*
X18918Y-18549D01*
X18902Y-18515D01*
X18902Y-18229D01*
X18750Y-18263D02*
X18733Y-18246D01*
X18699Y-18229D01*
X18615Y-18229D01*
X18581Y-18246D01*
X18564Y-18263D01*
X18548Y-18296D01*
X18548Y-18330D01*
X18564Y-18381D01*
X18767Y-18583D01*
X18548Y-18583D01*
X19705Y-21785D02*
X19705Y-21954D01*
X19823Y-21600D02*
X19705Y-21785D01*
X19587Y-21600D01*
X19284Y-21954D02*
X19486Y-21954D01*
X19385Y-21954D02*
X19385Y-21600D01*
X19419Y-21650D01*
X19453Y-21684D01*
X19486Y-21701D01*
X22021Y-18490D02*
X22021Y-18776D01*
X22004Y-18810D01*
X21987Y-18827D01*
X21954Y-18844D01*
X21886Y-18844D01*
X21853Y-18827D01*
X21836Y-18810D01*
X21819Y-18776D01*
X21819Y-18490D01*
X21684Y-18490D02*
X21465Y-18490D01*
X21583Y-18624D01*
X21532Y-18624D01*
X21499Y-18641D01*
X21482Y-18658D01*
X21465Y-18692D01*
X21465Y-18776D01*
X21482Y-18810D01*
X21499Y-18827D01*
X21532Y-18844D01*
X21633Y-18844D01*
X21667Y-18827D01*
X21684Y-18810D01*
X19468Y-20812D02*
X19586Y-20644D01*
X19670Y-20812D02*
X19670Y-20458D01*
X19535Y-20458D01*
X19502Y-20475D01*
X19485Y-20492D01*
X19468Y-20526D01*
X19468Y-20576D01*
X19485Y-20610D01*
X19502Y-20627D01*
X19535Y-20644D01*
X19670Y-20644D01*
X19165Y-20576D02*
X19165Y-20812D01*
X19249Y-20441D02*
X19333Y-20694D01*
X19114Y-20694D01*
X17145Y-18770D02*
X17162Y-18787D01*
X17213Y-18804D01*
X17246Y-18804D01*
X17297Y-18787D01*
X17331Y-18754D01*
X17347Y-18720D01*
X17364Y-18652D01*
X17364Y-18602D01*
X17347Y-18534D01*
X17331Y-18501D01*
X17297Y-18467D01*
X17246Y-18450D01*
X17213Y-18450D01*
X17162Y-18467D01*
X17145Y-18484D01*
X17027Y-18450D02*
X16791Y-18450D01*
X16943Y-18804D01*
X24303Y-18872D02*
X24320Y-18855D01*
X24336Y-18805D01*
X24336Y-18771D01*
X24320Y-18720D01*
X24286Y-18687D01*
X24252Y-18670D01*
X24185Y-18653D01*
X24134Y-18653D01*
X24067Y-18670D01*
X24033Y-18687D01*
X23999Y-18720D01*
X23982Y-18771D01*
X23982Y-18805D01*
X23999Y-18855D01*
X24016Y-18872D01*
X24336Y-19209D02*
X24336Y-19007D01*
X24336Y-19108D02*
X23982Y-19108D01*
X24033Y-19074D01*
X24067Y-19041D01*
X24084Y-19007D01*
X23982Y-19428D02*
X23982Y-19462D01*
X23999Y-19496D01*
X24016Y-19513D01*
X24050Y-19529D01*
X24117Y-19546D01*
X24202Y-19546D01*
X24269Y-19529D01*
X24303Y-19513D01*
X24320Y-19496D01*
X24336Y-19462D01*
X24336Y-19428D01*
X24320Y-19395D01*
X24303Y-19378D01*
X24269Y-19361D01*
X24202Y-19344D01*
X24117Y-19344D01*
X24050Y-19361D01*
X24016Y-19378D01*
X23999Y-19395D01*
X23982Y-19428D01*
X21481Y-20143D02*
X21481Y-19789D01*
X21397Y-19789D01*
X21346Y-19806D01*
X21313Y-19839D01*
X21296Y-19873D01*
X21279Y-19941D01*
X21279Y-19991D01*
X21296Y-20059D01*
X21313Y-20092D01*
X21346Y-20126D01*
X21397Y-20143D01*
X21481Y-20143D01*
X21161Y-19789D02*
X20942Y-19789D01*
X21060Y-19924D01*
X21009Y-19924D01*
X20976Y-19941D01*
X20959Y-19957D01*
X20942Y-19991D01*
X20942Y-20075D01*
X20959Y-20109D01*
X20976Y-20126D01*
X21009Y-20143D01*
X21110Y-20143D01*
X21144Y-20126D01*
X21161Y-20109D01*
X28910Y-21017D02*
X28927Y-21034D01*
X28977Y-21051D01*
X29011Y-21051D01*
X29062Y-21034D01*
X29095Y-21000D01*
X29112Y-20967D01*
X29129Y-20899D01*
X29129Y-20849D01*
X29112Y-20781D01*
X29095Y-20748D01*
X29062Y-20714D01*
X29011Y-20697D01*
X28977Y-20697D01*
X28927Y-20714D01*
X28910Y-20731D01*
X28573Y-21051D02*
X28775Y-21051D01*
X28674Y-21051D02*
X28674Y-20697D01*
X28708Y-20748D01*
X28741Y-20781D01*
X28775Y-20798D01*
X28438Y-20731D02*
X28421Y-20714D01*
X28387Y-20697D01*
X28303Y-20697D01*
X28269Y-20714D01*
X28252Y-20731D01*
X28236Y-20764D01*
X28236Y-20798D01*
X28252Y-20849D01*
X28455Y-21051D01*
X28236Y-21051D01*
X27650Y-21411D02*
X27667Y-21428D01*
X27717Y-21445D01*
X27751Y-21445D01*
X27802Y-21428D01*
X27835Y-21394D01*
X27852Y-21360D01*
X27869Y-21293D01*
X27869Y-21242D01*
X27852Y-21175D01*
X27835Y-21141D01*
X27802Y-21108D01*
X27751Y-21091D01*
X27717Y-21091D01*
X27667Y-21108D01*
X27650Y-21124D01*
X27313Y-21445D02*
X27515Y-21445D01*
X27414Y-21445D02*
X27414Y-21091D01*
X27448Y-21141D01*
X27481Y-21175D01*
X27515Y-21192D01*
X26976Y-21445D02*
X27178Y-21445D01*
X27077Y-21445D02*
X27077Y-21091D01*
X27111Y-21141D01*
X27144Y-21175D01*
X27178Y-21192D01*
G54D18*
X18769Y-21143D02*
X18875Y-21143D01*
X18875Y-21310D02*
X18875Y-20991D01*
X18724Y-20991D01*
X18496Y-21143D02*
X18450Y-21158D01*
X18435Y-21173D01*
X18420Y-21203D01*
X18420Y-21249D01*
X18435Y-21279D01*
X18450Y-21294D01*
X18481Y-21310D01*
X18602Y-21310D01*
X18602Y-20991D01*
X18496Y-20991D01*
X18465Y-21006D01*
X18450Y-21021D01*
X18435Y-21052D01*
X18435Y-21082D01*
X18450Y-21112D01*
X18465Y-21127D01*
X18496Y-21143D01*
X18602Y-21143D01*
X18116Y-21310D02*
X18298Y-21310D01*
X18207Y-21310D02*
X18207Y-20991D01*
X18238Y-21036D01*
X18268Y-21067D01*
X18298Y-21082D01*
G54D14*
X28539Y-19030D02*
X28825Y-19030D01*
X28859Y-19047D01*
X28876Y-19064D01*
X28893Y-19097D01*
X28893Y-19165D01*
X28876Y-19198D01*
X28859Y-19215D01*
X28825Y-19232D01*
X28539Y-19232D01*
X28657Y-19552D02*
X28893Y-19552D01*
X28522Y-19468D02*
X28775Y-19384D01*
X28775Y-19603D01*
G54D18*
X17775Y-21290D02*
X17792Y-21307D01*
X17843Y-21324D01*
X17876Y-21324D01*
X17927Y-21307D01*
X17961Y-21273D01*
X17978Y-21240D01*
X17994Y-21172D01*
X17994Y-21122D01*
X17978Y-21054D01*
X17961Y-21020D01*
X17927Y-20987D01*
X17876Y-20970D01*
X17843Y-20970D01*
X17792Y-20987D01*
X17775Y-21003D01*
X17573Y-21122D02*
X17606Y-21105D01*
X17623Y-21088D01*
X17640Y-21054D01*
X17640Y-21037D01*
X17623Y-21003D01*
X17606Y-20987D01*
X17573Y-20970D01*
X17505Y-20970D01*
X17471Y-20987D01*
X17455Y-21003D01*
X17438Y-21037D01*
X17438Y-21054D01*
X17455Y-21088D01*
X17471Y-21105D01*
X17505Y-21122D01*
X17573Y-21122D01*
X17606Y-21138D01*
X17623Y-21155D01*
X17640Y-21189D01*
X17640Y-21257D01*
X17623Y-21290D01*
X17606Y-21307D01*
X17573Y-21324D01*
X17505Y-21324D01*
X17471Y-21307D01*
X17455Y-21290D01*
X17438Y-21257D01*
X17438Y-21189D01*
X17455Y-21155D01*
X17471Y-21138D01*
X17505Y-21122D01*
G54D14*
X18157Y-19713D02*
X18174Y-19764D01*
X18174Y-19848D01*
X18157Y-19882D01*
X18141Y-19898D01*
X18107Y-19915D01*
X18073Y-19915D01*
X18039Y-19898D01*
X18023Y-19882D01*
X18006Y-19848D01*
X17989Y-19780D01*
X17972Y-19747D01*
X17955Y-19730D01*
X17921Y-19713D01*
X17888Y-19713D01*
X17854Y-19730D01*
X17837Y-19747D01*
X17820Y-19780D01*
X17820Y-19865D01*
X17837Y-19915D01*
X17820Y-20168D02*
X18073Y-20168D01*
X18124Y-20151D01*
X18157Y-20118D01*
X18174Y-20067D01*
X18174Y-20033D01*
X17820Y-20488D02*
X17820Y-20421D01*
X17837Y-20387D01*
X17854Y-20370D01*
X17905Y-20337D01*
X17972Y-20320D01*
X18107Y-20320D01*
X18141Y-20337D01*
X18157Y-20354D01*
X18174Y-20387D01*
X18174Y-20455D01*
X18157Y-20488D01*
X18141Y-20505D01*
X18107Y-20522D01*
X18023Y-20522D01*
X17989Y-20505D01*
X17972Y-20488D01*
X17955Y-20455D01*
X17955Y-20387D01*
X17972Y-20354D01*
X17989Y-20337D01*
X18023Y-20320D01*
X26979Y-20047D02*
X26929Y-20064D01*
X26844Y-20064D01*
X26811Y-20047D01*
X26794Y-20030D01*
X26777Y-19997D01*
X26777Y-19963D01*
X26794Y-19929D01*
X26811Y-19912D01*
X26844Y-19895D01*
X26912Y-19879D01*
X26946Y-19862D01*
X26962Y-19845D01*
X26979Y-19811D01*
X26979Y-19777D01*
X26962Y-19744D01*
X26946Y-19727D01*
X26912Y-19710D01*
X26827Y-19710D01*
X26777Y-19727D01*
X26524Y-19710D02*
X26524Y-19963D01*
X26541Y-20014D01*
X26574Y-20047D01*
X26625Y-20064D01*
X26659Y-20064D01*
X26186Y-19710D02*
X26355Y-19710D01*
X26372Y-19879D01*
X26355Y-19862D01*
X26321Y-19845D01*
X26237Y-19845D01*
X26203Y-19862D01*
X26186Y-19879D01*
X26169Y-19912D01*
X26169Y-19997D01*
X26186Y-20030D01*
X26203Y-20047D01*
X26237Y-20064D01*
X26321Y-20064D01*
X26355Y-20047D01*
X26372Y-20030D01*
X17290Y-19978D02*
X17290Y-19826D01*
X17442Y-19811D01*
X17427Y-19826D01*
X17411Y-19857D01*
X17411Y-19933D01*
X17427Y-19963D01*
X17442Y-19978D01*
X17472Y-19993D01*
X17548Y-19993D01*
X17579Y-19978D01*
X17594Y-19963D01*
X17609Y-19933D01*
X17609Y-19857D01*
X17594Y-19826D01*
X17579Y-19811D01*
X17290Y-20084D02*
X17609Y-20191D01*
X17290Y-20297D01*
X15415Y-19638D02*
X15400Y-19608D01*
X15400Y-19562D01*
X15415Y-19517D01*
X15446Y-19487D01*
X15476Y-19471D01*
X15537Y-19456D01*
X15582Y-19456D01*
X15643Y-19471D01*
X15674Y-19487D01*
X15704Y-19517D01*
X15719Y-19562D01*
X15719Y-19593D01*
X15704Y-19638D01*
X15689Y-19654D01*
X15582Y-19654D01*
X15582Y-19593D01*
X15719Y-19790D02*
X15400Y-19790D01*
X15719Y-19973D01*
X15400Y-19973D01*
X15719Y-20124D02*
X15400Y-20124D01*
X15400Y-20200D01*
X15415Y-20246D01*
X15446Y-20276D01*
X15476Y-20291D01*
X15537Y-20307D01*
X15582Y-20307D01*
X15643Y-20291D01*
X15674Y-20276D01*
X15704Y-20246D01*
X15719Y-20200D01*
X15719Y-20124D01*
X17131Y-21546D02*
X17131Y-21227D01*
X17055Y-21227D01*
X17009Y-21242D01*
X16979Y-21273D01*
X16964Y-21303D01*
X16949Y-21364D01*
X16949Y-21409D01*
X16964Y-21470D01*
X16979Y-21500D01*
X17009Y-21531D01*
X17055Y-21546D01*
X17131Y-21546D01*
X16812Y-21424D02*
X16569Y-21424D01*
X16304Y-21546D02*
X16304Y-21227D01*
X16228Y-21227D01*
X16183Y-21242D01*
X16152Y-21273D01*
X16137Y-21303D01*
X16122Y-21364D01*
X16122Y-21409D01*
X16137Y-21470D01*
X16152Y-21500D01*
X16183Y-21531D01*
X16228Y-21546D01*
X16304Y-21546D01*
X15985Y-21424D02*
X15742Y-21424D01*
X15864Y-21546D02*
X15864Y-21303D01*
X16282Y-18804D02*
X16450Y-18804D01*
X16450Y-18450D01*
X16164Y-18804D02*
X16164Y-18450D01*
X15995Y-18804D02*
X15995Y-18450D01*
X15860Y-18450D01*
X15826Y-18467D01*
X15810Y-18484D01*
X15793Y-18518D01*
X15793Y-18568D01*
X15810Y-18602D01*
X15826Y-18619D01*
X15860Y-18636D01*
X15995Y-18636D01*
X15574Y-18450D02*
X15506Y-18450D01*
X15472Y-18467D01*
X15439Y-18501D01*
X15422Y-18568D01*
X15422Y-18686D01*
X15439Y-18754D01*
X15472Y-18787D01*
X15506Y-18804D01*
X15574Y-18804D01*
X15607Y-18787D01*
X15641Y-18754D01*
X15658Y-18686D01*
X15658Y-18568D01*
X15641Y-18501D01*
X15607Y-18467D01*
X15574Y-18450D01*
M02*
