G75*
G70*
%OFA0B0*%
%FSLAX24Y24*%
%IPPOS*%
%LPD*%
%AMOC8*
5,1,8,0,0,1.08239X$1,22.5*
%
%ADD10C,0.1340*%
%ADD11OC8,0.0680*%
%ADD12OC8,0.0600*%
%ADD13O,0.0680X0.1040*%
%ADD14OC8,0.0710*%
%ADD15C,0.0710*%
%ADD16O,0.1040X0.0680*%
%ADD17R,0.0217X0.0630*%
%ADD18O,0.0600X0.0912*%
%ADD19C,0.0595*%
%ADD20C,0.0600*%
%ADD21C,0.0789*%
%ADD22OC8,0.1980*%
%ADD23OC8,0.0654*%
%ADD24OC8,0.1386*%
%ADD25R,0.2521X0.2206*%
%ADD26R,0.0710X0.0474*%
%ADD27C,0.0556*%
%ADD28R,0.0635X0.0635*%
%ADD29R,0.0556X0.0556*%
D10*
X009105Y022204D03*
X029105Y016204D03*
X029105Y005204D03*
D11*
X029224Y012202D03*
X028224Y012202D03*
X028224Y013202D03*
X029224Y013202D03*
X029224Y014202D03*
X028224Y014202D03*
D12*
X026290Y014543D03*
X026292Y015616D03*
X026295Y016966D03*
X026295Y017966D03*
X023292Y015616D03*
X023290Y014543D03*
X021975Y014091D03*
X021975Y013091D03*
X021946Y012111D03*
X021946Y011111D03*
X015149Y011340D03*
X015118Y012405D03*
X015118Y013440D03*
X015118Y014459D03*
X014836Y015255D03*
X014836Y016255D03*
X015118Y016899D03*
X014045Y018056D03*
X012634Y018527D03*
X012634Y019527D03*
X010732Y020285D03*
X008732Y020285D03*
X007079Y020066D03*
X007079Y022066D03*
X012118Y016899D03*
X012556Y016227D03*
X012556Y015227D03*
X012118Y014459D03*
X012118Y013440D03*
X012118Y012405D03*
X013149Y011340D03*
X010723Y010399D03*
X009084Y010394D03*
X009084Y008394D03*
X010723Y008399D03*
X018102Y005121D03*
X020102Y005121D03*
X021055Y005015D03*
X023055Y005015D03*
X010188Y014329D03*
X008188Y014329D03*
X014045Y021056D03*
D13*
X014484Y022232D03*
X013484Y022232D03*
X012484Y022232D03*
X015484Y022232D03*
X016484Y022232D03*
X017484Y022232D03*
X018484Y022232D03*
X019484Y022232D03*
X021164Y022232D03*
X022164Y022232D03*
X023164Y022232D03*
X024164Y022232D03*
X025164Y022232D03*
X026164Y022232D03*
X027164Y022232D03*
X028164Y022232D03*
X028044Y003222D03*
X027044Y003222D03*
X026044Y003222D03*
X025044Y003222D03*
X024044Y003222D03*
X023044Y003222D03*
X021072Y003202D03*
X020072Y003202D03*
X019072Y003202D03*
X018072Y003202D03*
X017072Y003202D03*
X016072Y003202D03*
D14*
X013261Y003622D03*
X009812Y003637D03*
D15*
X009812Y005037D03*
X013261Y005022D03*
D16*
X004519Y011517D03*
X004519Y012517D03*
X004519Y013517D03*
X023735Y013262D03*
X023735Y011482D03*
X026295Y011482D03*
X026295Y013262D03*
D17*
X011268Y015945D03*
X011012Y015945D03*
X010757Y015945D03*
X010501Y015945D03*
X010245Y015945D03*
X009989Y015945D03*
X009733Y015945D03*
X009477Y015945D03*
X009221Y015945D03*
X008965Y015945D03*
X008709Y015945D03*
X008453Y015945D03*
X008198Y015945D03*
X007942Y015945D03*
X007942Y018824D03*
X008198Y018824D03*
X008453Y018824D03*
X008709Y018824D03*
X008965Y018824D03*
X009221Y018824D03*
X009477Y018824D03*
X009733Y018824D03*
X009989Y018824D03*
X010245Y018824D03*
X010501Y018824D03*
X010757Y018824D03*
X011012Y018824D03*
X011268Y018824D03*
D18*
X015376Y009443D03*
X016376Y009443D03*
X017376Y009443D03*
X018376Y009443D03*
X019376Y009443D03*
X020376Y009443D03*
X021376Y009443D03*
X022376Y009443D03*
X023376Y009443D03*
X024376Y009443D03*
X025376Y009443D03*
X026376Y009443D03*
X027376Y009443D03*
X028376Y009443D03*
X028376Y006443D03*
X027376Y006443D03*
X026376Y006443D03*
X025376Y006443D03*
X024376Y006443D03*
X023376Y006443D03*
X022376Y006443D03*
X021376Y006443D03*
X020376Y006443D03*
X019376Y006443D03*
X018376Y006443D03*
X017376Y006443D03*
X016376Y006443D03*
X015376Y006443D03*
D19*
X010706Y011728D03*
X008706Y011728D03*
D20*
X020403Y011699D03*
X020403Y013599D03*
D21*
X012040Y006915D03*
X008040Y006915D03*
D22*
X006081Y003404D03*
X004901Y005374D03*
X007261Y005374D03*
D23*
X006403Y016876D03*
X005615Y016876D03*
X005615Y017861D03*
X006403Y017861D03*
D24*
X004548Y019739D03*
X004548Y014998D03*
D25*
X004885Y009112D03*
D26*
X007759Y008215D03*
X007759Y010010D03*
D27*
X006073Y009965D03*
X005323Y009965D03*
X004574Y009965D03*
X004574Y009215D03*
X005323Y009215D03*
X006073Y009215D03*
X006073Y008466D03*
X005323Y008466D03*
X004574Y008466D03*
X004574Y007716D03*
X005323Y007716D03*
X006073Y007716D03*
X003824Y007716D03*
X003824Y008466D03*
X003824Y009215D03*
X003824Y009965D03*
X003824Y010715D03*
X004574Y010715D03*
X005323Y010715D03*
X006073Y010715D03*
X011342Y012946D03*
X011932Y009924D03*
X013212Y008645D03*
X016847Y005190D03*
X014366Y003989D03*
X013409Y002611D03*
X023868Y008713D03*
X027127Y007404D03*
X017838Y012355D03*
X016854Y013719D03*
X020512Y018943D03*
X023842Y017401D03*
X028074Y015406D03*
X017050Y021115D03*
X008978Y016682D03*
X007642Y016697D03*
X007728Y021398D03*
D28*
X017070Y016713D03*
X020397Y012652D03*
X022474Y016541D03*
X026692Y004654D03*
D29*
X009728Y019626D03*
X008947Y019618D03*
M02*
